<?xml version="1.0" encoding="UTF-8"?>
<!DOCTYPE xmeml>
<xmeml version="5">
<sequence id="Sync_test">
	<uuid>264B3BE8-1B6A-4BA8-83C4-4076EC7FE9A3</uuid>
	<updatebehavior>add</updatebehavior>
	<name>Sync_test</name>
	<duration>22335</duration>
	<rate>
		<ntsc>TRUE</ntsc>
		<timebase>24</timebase>
	</rate>
	<timecode>
		<rate>
			<ntsc>TRUE</ntsc>
			<timebase>24</timebase>
		</rate>
		<string>13:34:41:13</string>
		<frame>1173157</frame>
		<source>source</source>
		<displayformat>NDF</displayformat>
	</timecode>
	<in>-1</in>
	<out>-1</out>
	<media>
		<video>
			<format>
				<samplecharacteristics>
					<width>1920</width>
					<height>1080</height>
					<anamorphic>FALSE</anamorphic>
					<pixelaspectratio>Square</pixelaspectratio>
					<fielddominance>none</fielddominance>
					<rate>
						<ntsc>TRUE</ntsc>
						<timebase>24</timebase>
					</rate>
					<colordepth>24</colordepth>
					<codec>
						<name>Apple ProRes 422 (Proxy)</name>
						<appspecificdata>
							<appname>Final Cut Pro</appname>
							<appmanufacturer>Apple Inc.</appmanufacturer>
							<appversion>7.0</appversion>
							<data>
								<qtcodec>
									<codecname>Apple ProRes 422 (Proxy)</codecname>
									<codectypename>Apple ProRes 422 (Proxy)</codectypename>
									<codectypecode>apco</codectypecode>
									<codecvendorcode>appl</codecvendorcode>
									<spatialquality>1024</spatialquality>
									<temporalquality>0</temporalquality>
									<keyframerate>0</keyframerate>
									<datarate>0</datarate>
								</qtcodec>
							</data>
						</appspecificdata>
					</codec>
				</samplecharacteristics>
				<appspecificdata>
					<appname>Final Cut Pro</appname>
					<appmanufacturer>Apple Inc.</appmanufacturer>
					<appversion>7.0</appversion>
					<data>
						<fcpimageprocessing>
							<useyuv>TRUE</useyuv>
							<usesuperwhite>FALSE</usesuperwhite>
							<rendermode>YUV8BPP</rendermode>
						</fcpimageprocessing>
					</data>
				</appspecificdata>
			</format>
			<track>
				<clipitem id="AA0042_01 ">
					<name>AA0042_01</name>
					<duration>578989</duration>
					<rate>
						<ntsc>TRUE</ntsc>
						<timebase>24</timebase>
					</rate>
					<in>186865</in>
					<out>193728</out>
					<start>5343</start>
					<end>12206</end>
					<pixelaspectratio>Square</pixelaspectratio>
					<enabled>TRUE</enabled>
					<anamorphic>FALSE</anamorphic>
					<alphatype>none</alphatype>
					<masterclipid>AA0042_01 1</masterclipid>
					<syncoffset>0</syncoffset>
					<logginginfo>
						<scene/>
						<shottake/>
						<lognote/>
						<good>FALSE</good>
					</logginginfo>
					<labels>
						<label>Alternate Shots</label>
						<label2/>
					</labels>
					<comments>
						<mastercomment1/>
						<mastercomment2/>
						<mastercomment3/>
						<mastercomment4/>
					</comments>
					<file id="AA0042_01 2">
						<name>AA0042_01.mov</name>
						<pathurl>file://localhost/Volumes/Share/Edit%20Share/00%20BREW%20DOGS%20S1/BD_00_San_Diego/052413/01_Video/C300/AA0042_01.mov</pathurl>
						<rate>
							<timebase>24</timebase>
							<ntsc>TRUE</ntsc>
						</rate>
						<duration>6864</duration>
						<metadata>
							<storage>QuickTime</storage>
							<key>com.apple.quicktime.creationdate</key>
							<size>24</size>
							<type>UTF8</type>
							<value>2013-05-24T13:34:11-0700</value>
						</metadata>
						<metadata>
							<storage>QuickTime</storage>
							<key>com.apple.finalcutstudio.media.history.uuid</key>
							<size>36</size>
							<type>UTF8</type>
							<value>83F5EE5F-D99D-46FF-8825-874E2AEDC584</value>
						</metadata>
						<metadata>
							<storage>QuickTime</storage>
							<key>com.apple.finalcutstudio.media.uuid</key>
							<size>36</size>
							<type>UTF8</type>
							<value>EBD90C33-E26D-4E21-8FC7-73A3CE222EAE</value>
						</metadata>
						<metadata>
							<storage>QuickTime</storage>
							<key>com.apple.proapps.reel</key>
							<size>12</size>
							<type>UTF8</type>
							<value>A02_verified</value>
						</metadata>
						<metadata>
							<storage>QuickTime</storage>
							<key>com.apple.proapps.isGood</key>
							<size>4</size>
							<type>unsigned</type>
							<value>0</value>
						</metadata>
						<metadata>
							<storage>QuickTime</storage>
							<key>com.apple.proapps.clipID</key>
							<size>36</size>
							<type>UTF8</type>
							<value>0D3D3434-3664-0580-0000-8500025A0F55</value>
						</metadata>
						<metadata>
							<storage>QuickTime</storage>
							<key>com.apple.proapps.originalFormat</key>
							<size>14</size>
							<type>UTF8</type>
							<value>Canon XF MPEG2</value>
						</metadata>
						<timecode>
							<rate>
								<timebase>24</timebase>
							</rate>
							<string>13:34:41:13</string>
							<frame>1173157</frame>
							<displayformat>NDF</displayformat>
							<source>source</source>
							<reel>
								<name>A02_verified</name>
							</reel>
						</timecode>
						<media>
							<video>
								<duration>6864</duration>
								<samplecharacteristics>
									<width>1920</width>
									<height>1080</height>
								</samplecharacteristics>
							</video>
							<audio>
								<samplecharacteristics>
									<samplerate>48000</samplerate>
									<depth>16</depth>
								</samplecharacteristics>
								<channelcount>1</channelcount>
								<layout>mono</layout>
								<audiochannel>
									<sourcechannel>1</sourcechannel>
									<channellabel>discrete</channellabel>
								</audiochannel>
							</audio>
							<audio>
								<samplecharacteristics>
									<samplerate>48000</samplerate>
									<depth>16</depth>
								</samplecharacteristics>
								<channelcount>1</channelcount>
								<layout>mono</layout>
								<audiochannel>
									<sourcechannel>2</sourcechannel>
									<channellabel>discrete</channellabel>
								</audiochannel>
							</audio>
						</media>
					</file>
					<filter>
						<effect>
							<name>Basic Motion</name>
							<effectid>basic</effectid>
							<effectcategory>motion</effectcategory>
							<effecttype>motion</effecttype>
							<mediatype>video</mediatype>
							<parameter>
								<parameterid>scale</parameterid>
								<name>Scale</name>
								<valuemin>0</valuemin>
								<valuemax>1000</valuemax>
								<value>49</value>
							</parameter>
							<parameter>
								<parameterid>rotation</parameterid>
								<name>Rotation</name>
								<valuemin>-8640</valuemin>
								<valuemax>8640</valuemax>
								<value>0</value>
							</parameter>
							<parameter>
								<parameterid>center</parameterid>
								<name>Center</name>
								<value>
									<horiz>-0.247917</horiz>
									<vert>-0.25</vert>
								</value>
							</parameter>
							<parameter>
								<parameterid>centerOffset</parameterid>
								<name>Anchor Point</name>
								<value>
									<horiz>0</horiz>
									<vert>0</vert>
								</value>
							</parameter>
						</effect>
					</filter>
					<sourcetrack>
						<mediatype>video</mediatype>
					</sourcetrack>
					<link>
						<linkclipref>AA0042_01 </linkclipref>
						<mediatype>video</mediatype>
						<trackindex>1</trackindex>
						<clipindex>1</clipindex>
					</link>
					<link>
						<linkclipref>AA0042_01 3</linkclipref>
						<mediatype>audio</mediatype>
						<trackindex>1</trackindex>
						<clipindex>1</clipindex>
					</link>
					<link>
						<linkclipref>AA0042_01 4</linkclipref>
						<mediatype>audio</mediatype>
						<trackindex>2</trackindex>
						<clipindex>1</clipindex>
					</link>
					<fielddominance>none</fielddominance>
					<multiclip id="Multiclip 2 ">
						<name>Multiclip 2</name>
						<collapsed>TRUE</collapsed>
						<synctype>3</synctype>
						<angle>
							<clip id="AA0026_01 ">
								<uuid>66FA9286-9F56-4A97-90CB-CE86EEDAD016</uuid>
								<updatebehavior>add</updatebehavior>
								<name>AA0026_01</name>
								<duration>578989</duration>
								<rate>
									<ntsc>TRUE</ntsc>
									<timebase>24</timebase>
								</rate>
								<in>-1</in>
								<out>-1</out>
								<anamorphic>FALSE</anamorphic>
								<masterclipid>AA0026_01 1</masterclipid>
								<ismasterclip>FALSE</ismasterclip>
								<logginginfo>
									<scene/>
									<shottake/>
									<lognote/>
									<good>FALSE</good>
								</logginginfo>
								<labels>
									<label>Alternate Shots</label>
									<label2/>
								</labels>
								<comments>
									<mastercomment1/>
									<mastercomment2/>
									<mastercomment3/>
									<mastercomment4/>
								</comments>
								<media>
									<video>
										<track>
											<clipitem id="AA0026_01 2">
												<name>AA0026_01</name>
												<duration>578989</duration>
												<rate>
													<ntsc>TRUE</ntsc>
													<timebase>24</timebase>
												</rate>
												<in>0</in>
												<out>578989</out>
												<start>0</start>
												<end>578989</end>
												<pixelaspectratio>Square</pixelaspectratio>
												<anamorphic>FALSE</anamorphic>
												<alphatype>none</alphatype>
												<masterclipid>AA0026_01 1</masterclipid>
												<syncoffset>0</syncoffset>
												<logginginfo>
													<scene/>
													<shottake/>
													<lognote/>
													<good>FALSE</good>
												</logginginfo>
												<labels>
													<label>Alternate Shots</label>
													<label2/>
												</labels>
												<comments>
													<mastercomment1/>
													<mastercomment2/>
													<mastercomment3/>
													<mastercomment4/>
												</comments>
												<file id="AA0026_01 3">
													<name>AA0026_01.mov</name>
													<pathurl>file://localhost/Volumes/Share/Edit%20Share/00%20BREW%20DOGS%20S1/BD_00_San_Diego/052413/01_Video/C300/AA0026_01.mov</pathurl>
													<rate>
														<timebase>24</timebase>
														<ntsc>TRUE</ntsc>
													</rate>
													<duration>4692</duration>
													<metadata>
														<storage>QuickTime</storage>
														<key>com.apple.quicktime.creationdate</key>
														<size>24</size>
														<type>UTF8</type>
														<value>2013-05-24T11:24:18-0700</value>
													</metadata>
													<metadata>
														<storage>QuickTime</storage>
														<key>com.apple.finalcutstudio.media.history.uuid</key>
														<size>36</size>
														<type>UTF8</type>
														<value>63E59B88-304B-46D6-A1DC-E4474DC55116</value>
													</metadata>
													<metadata>
														<storage>QuickTime</storage>
														<key>com.apple.finalcutstudio.media.uuid</key>
														<size>36</size>
														<type>UTF8</type>
														<value>4AF1FD09-26A3-466B-B7C4-815C9BBBCF96</value>
													</metadata>
													<metadata>
														<storage>QuickTime</storage>
														<key>com.apple.proapps.reel</key>
														<size>12</size>
														<type>UTF8</type>
														<value>A01_verified</value>
													</metadata>
													<metadata>
														<storage>QuickTime</storage>
														<key>com.apple.proapps.isGood</key>
														<size>4</size>
														<type>unsigned</type>
														<value>0</value>
													</metadata>
													<metadata>
														<storage>QuickTime</storage>
														<key>com.apple.proapps.clipID</key>
														<size>36</size>
														<type>UTF8</type>
														<value>0D3611B8-3664-0580-0000-8500025A0F55</value>
													</metadata>
													<metadata>
														<storage>QuickTime</storage>
														<key>com.apple.proapps.originalFormat</key>
														<size>14</size>
														<type>UTF8</type>
														<value>Canon XF MPEG2</value>
													</metadata>
													<timecode>
														<rate>
															<timebase>24</timebase>
														</rate>
														<string>11:24:55:12</string>
														<frame>986292</frame>
														<displayformat>NDF</displayformat>
														<source>source</source>
														<reel>
															<name>A01_verified</name>
														</reel>
													</timecode>
													<media>
														<video>
															<duration>4692</duration>
															<samplecharacteristics>
																<width>1920</width>
																<height>1080</height>
															</samplecharacteristics>
														</video>
														<audio>
															<samplecharacteristics>
																<samplerate>48000</samplerate>
																<depth>16</depth>
															</samplecharacteristics>
															<channelcount>1</channelcount>
															<layout>mono</layout>
															<audiochannel>
																<sourcechannel>1</sourcechannel>
																<channellabel>discrete</channellabel>
															</audiochannel>
														</audio>
														<audio>
															<samplecharacteristics>
																<samplerate>48000</samplerate>
																<depth>16</depth>
															</samplecharacteristics>
															<channelcount>1</channelcount>
															<layout>mono</layout>
															<audiochannel>
																<sourcechannel>2</sourcechannel>
																<channellabel>discrete</channellabel>
															</audiochannel>
														</audio>
													</media>
												</file>
												<sourcetrack>
													<mediatype>video</mediatype>
												</sourcetrack>
												<link>
													<linkclipref>AA0026_01 2</linkclipref>
													<mediatype>video</mediatype>
													<trackindex>1</trackindex>
													<clipindex>1</clipindex>
												</link>
												<link>
													<linkclipref>AA0026_01 4</linkclipref>
													<mediatype>audio</mediatype>
													<trackindex>1</trackindex>
													<clipindex>1</clipindex>
												</link>
												<link>
													<linkclipref>AA0026_01 5</linkclipref>
													<mediatype>audio</mediatype>
													<trackindex>2</trackindex>
													<clipindex>1</clipindex>
												</link>
												<fielddominance>none</fielddominance>
												<itemhistory>
													<uuid>DB42EBAD-61F9-4D18-B1BA-115CCDB2AD3B</uuid>
												</itemhistory>
											</clipitem>
											<enabled>TRUE</enabled>
											<locked>FALSE</locked>
										</track>
									</video>
									<audio>
										<outputs>
											<group>
												<index>1</index>
												<numchannels>2</numchannels>
												<downmix>0</downmix>
												<channel>
													<index>1</index>
												</channel>
												<channel>
													<index>2</index>
												</channel>
											</group>
										</outputs>
										<in>-1</in>
										<out>-1</out>
										<track>
											<clipitem id="AA0026_01 4">
												<name>AA0026_01</name>
												<duration>578989</duration>
												<rate>
													<ntsc>TRUE</ntsc>
													<timebase>24</timebase>
												</rate>
												<in>0</in>
												<out>578989</out>
												<start>0</start>
												<end>578989</end>
												<subframeoffset>0</subframeoffset>
												<anamorphic>FALSE</anamorphic>
												<masterclipid>AA0026_01 1</masterclipid>
												<syncoffset>0</syncoffset>
												<logginginfo>
													<scene/>
													<shottake/>
													<lognote/>
													<good>FALSE</good>
												</logginginfo>
												<labels>
													<label>Alternate Shots</label>
													<label2/>
												</labels>
												<comments>
													<mastercomment1/>
													<mastercomment2/>
													<mastercomment3/>
													<mastercomment4/>
												</comments>
												<file id="AA0026_01 3"/>
												<filter>
													<effect>
														<name>Audio Levels</name>
														<effectid>audiolevels</effectid>
														<effectcategory>audiolevels</effectcategory>
														<effecttype>audiolevels</effecttype>
														<mediatype>audio</mediatype>
														<parameter>
															<name>Level</name>
															<parameterid>level</parameterid>
															<valuemin>0</valuemin>
															<valuemax>3.98109</valuemax>
															<value>1</value>
														</parameter>
													</effect>
												</filter>
												<filter>
													<effect>
														<name>Audio Pan</name>
														<effectid>audiopan</effectid>
														<effectcategory>audiopan</effectcategory>
														<effecttype>audiopan</effecttype>
														<mediatype>audio</mediatype>
														<parameter>
															<name>Pan</name>
															<parameterid>pan</parameterid>
															<valuemin>-1</valuemin>
															<valuemax>1</valuemax>
															<value>0</value>
														</parameter>
													</effect>
												</filter>
												<sourcetrack>
													<mediatype>audio</mediatype>
													<trackindex>1</trackindex>
												</sourcetrack>
												<link>
													<linkclipref>AA0026_01 2</linkclipref>
													<mediatype>video</mediatype>
													<trackindex>1</trackindex>
													<clipindex>1</clipindex>
												</link>
												<link>
													<linkclipref>AA0026_01 4</linkclipref>
													<mediatype>audio</mediatype>
													<trackindex>1</trackindex>
													<clipindex>1</clipindex>
												</link>
												<link>
													<linkclipref>AA0026_01 5</linkclipref>
													<mediatype>audio</mediatype>
													<trackindex>2</trackindex>
													<clipindex>1</clipindex>
												</link>
												<itemhistory>
													<uuid>0BB857C5-CA99-4395-B3B1-9569A5DB740F</uuid>
												</itemhistory>
											</clipitem>
											<enabled>TRUE</enabled>
											<locked>FALSE</locked>
										</track>
										<track>
											<clipitem id="AA0026_01 5">
												<name>AA0026_01</name>
												<duration>578989</duration>
												<rate>
													<ntsc>TRUE</ntsc>
													<timebase>24</timebase>
												</rate>
												<in>0</in>
												<out>578989</out>
												<start>0</start>
												<end>578989</end>
												<subframeoffset>0</subframeoffset>
												<anamorphic>FALSE</anamorphic>
												<masterclipid>AA0026_01 1</masterclipid>
												<syncoffset>0</syncoffset>
												<logginginfo>
													<scene/>
													<shottake/>
													<lognote/>
													<good>FALSE</good>
												</logginginfo>
												<labels>
													<label>Alternate Shots</label>
													<label2/>
												</labels>
												<comments>
													<mastercomment1/>
													<mastercomment2/>
													<mastercomment3/>
													<mastercomment4/>
												</comments>
												<file id="AA0026_01 3"/>
												<filter>
													<effect>
														<name>Audio Levels</name>
														<effectid>audiolevels</effectid>
														<effectcategory>audiolevels</effectcategory>
														<effecttype>audiolevels</effecttype>
														<mediatype>audio</mediatype>
														<parameter>
															<name>Level</name>
															<parameterid>level</parameterid>
															<valuemin>0</valuemin>
															<valuemax>3.98109</valuemax>
															<value>1</value>
														</parameter>
													</effect>
												</filter>
												<filter>
													<effect>
														<name>Audio Pan</name>
														<effectid>audiopan</effectid>
														<effectcategory>audiopan</effectcategory>
														<effecttype>audiopan</effecttype>
														<mediatype>audio</mediatype>
														<parameter>
															<name>Pan</name>
															<parameterid>pan</parameterid>
															<valuemin>-1</valuemin>
															<valuemax>1</valuemax>
															<value>0</value>
														</parameter>
													</effect>
												</filter>
												<sourcetrack>
													<mediatype>audio</mediatype>
													<trackindex>2</trackindex>
												</sourcetrack>
												<link>
													<linkclipref>AA0026_01 2</linkclipref>
													<mediatype>video</mediatype>
													<trackindex>1</trackindex>
													<clipindex>1</clipindex>
												</link>
												<link>
													<linkclipref>AA0026_01 4</linkclipref>
													<mediatype>audio</mediatype>
													<trackindex>1</trackindex>
													<clipindex>1</clipindex>
												</link>
												<link>
													<linkclipref>AA0026_01 5</linkclipref>
													<mediatype>audio</mediatype>
													<trackindex>2</trackindex>
													<clipindex>1</clipindex>
												</link>
												<itemhistory>
													<uuid>EC5EB25C-7949-41BA-AE47-705849B543BF</uuid>
												</itemhistory>
											</clipitem>
											<enabled>TRUE</enabled>
											<locked>FALSE</locked>
										</track>
										<filter>
											<effect>
												<name>Audio Levels</name>
												<effectid>audiolevels</effectid>
												<effectcategory>audiolevels</effectcategory>
												<effecttype>audiolevels</effecttype>
												<mediatype>audio</mediatype>
												<parameter>
													<name>Level</name>
													<parameterid>level</parameterid>
													<valuemin>0</valuemin>
													<valuemax>3.98109</valuemax>
													<value>1</value>
												</parameter>
											</effect>
										</filter>
									</audio>
								</media>
							</clip>
						</angle>
						<angle>
							<clip id="AA0027_01 ">
								<uuid>3613C44E-059E-41CC-A213-77D26A436F4C</uuid>
								<updatebehavior>add</updatebehavior>
								<name>AA0027_01</name>
								<duration>578989</duration>
								<rate>
									<ntsc>TRUE</ntsc>
									<timebase>24</timebase>
								</rate>
								<in>-1</in>
								<out>-1</out>
								<anamorphic>FALSE</anamorphic>
								<masterclipid>AA0027_01 1</masterclipid>
								<ismasterclip>FALSE</ismasterclip>
								<logginginfo>
									<scene/>
									<shottake/>
									<lognote/>
									<good>FALSE</good>
								</logginginfo>
								<labels>
									<label>Alternate Shots</label>
									<label2/>
								</labels>
								<comments>
									<mastercomment1/>
									<mastercomment2/>
									<mastercomment3/>
									<mastercomment4/>
								</comments>
								<media>
									<video>
										<track>
											<clipitem id="AA0027_01 2">
												<name>AA0027_01</name>
												<duration>578989</duration>
												<rate>
													<ntsc>TRUE</ntsc>
													<timebase>24</timebase>
												</rate>
												<in>0</in>
												<out>578989</out>
												<start>0</start>
												<end>578989</end>
												<pixelaspectratio>Square</pixelaspectratio>
												<anamorphic>FALSE</anamorphic>
												<alphatype>none</alphatype>
												<masterclipid>AA0027_01 1</masterclipid>
												<syncoffset>0</syncoffset>
												<logginginfo>
													<scene/>
													<shottake/>
													<lognote/>
													<good>FALSE</good>
												</logginginfo>
												<labels>
													<label>Alternate Shots</label>
													<label2/>
												</labels>
												<comments>
													<mastercomment1/>
													<mastercomment2/>
													<mastercomment3/>
													<mastercomment4/>
												</comments>
												<file id="AA0027_01 3">
													<name>AA0027_01.mov</name>
													<pathurl>file://localhost/Volumes/Share/Edit%20Share/00%20BREW%20DOGS%20S1/BD_00_San_Diego/052413/01_Video/C300/AA0027_01.mov</pathurl>
													<rate>
														<timebase>24</timebase>
														<ntsc>TRUE</ntsc>
													</rate>
													<duration>12396</duration>
													<metadata>
														<storage>QuickTime</storage>
														<key>com.apple.quicktime.creationdate</key>
														<size>24</size>
														<type>UTF8</type>
														<value>2013-05-24T11:28:39-0700</value>
													</metadata>
													<metadata>
														<storage>QuickTime</storage>
														<key>com.apple.finalcutstudio.media.history.uuid</key>
														<size>36</size>
														<type>UTF8</type>
														<value>2321FD77-4FB1-4356-83CF-C32985C3F4EE</value>
													</metadata>
													<metadata>
														<storage>QuickTime</storage>
														<key>com.apple.finalcutstudio.media.uuid</key>
														<size>36</size>
														<type>UTF8</type>
														<value>0516BD1B-E44F-4BBC-91B7-D5B73E7879DF</value>
													</metadata>
													<metadata>
														<storage>QuickTime</storage>
														<key>com.apple.proapps.reel</key>
														<size>12</size>
														<type>UTF8</type>
														<value>A01_verified</value>
													</metadata>
													<metadata>
														<storage>QuickTime</storage>
														<key>com.apple.proapps.isGood</key>
														<size>4</size>
														<type>unsigned</type>
														<value>0</value>
													</metadata>
													<metadata>
														<storage>QuickTime</storage>
														<key>com.apple.proapps.clipID</key>
														<size>36</size>
														<type>UTF8</type>
														<value>0D364EE4-3664-0580-0000-8500025A0F55</value>
													</metadata>
													<metadata>
														<storage>QuickTime</storage>
														<key>com.apple.proapps.originalFormat</key>
														<size>14</size>
														<type>UTF8</type>
														<value>Canon XF MPEG2</value>
													</metadata>
													<timecode>
														<rate>
															<timebase>24</timebase>
														</rate>
														<string>11:29:16:04</string>
														<frame>992548</frame>
														<displayformat>NDF</displayformat>
														<source>source</source>
														<reel>
															<name>A01_verified</name>
														</reel>
													</timecode>
													<media>
														<video>
															<duration>12396</duration>
															<samplecharacteristics>
																<width>1920</width>
																<height>1080</height>
															</samplecharacteristics>
														</video>
														<audio>
															<samplecharacteristics>
																<samplerate>48000</samplerate>
																<depth>16</depth>
															</samplecharacteristics>
															<channelcount>1</channelcount>
															<layout>mono</layout>
															<audiochannel>
																<sourcechannel>1</sourcechannel>
																<channellabel>discrete</channellabel>
															</audiochannel>
														</audio>
														<audio>
															<samplecharacteristics>
																<samplerate>48000</samplerate>
																<depth>16</depth>
															</samplecharacteristics>
															<channelcount>1</channelcount>
															<layout>mono</layout>
															<audiochannel>
																<sourcechannel>2</sourcechannel>
																<channellabel>discrete</channellabel>
															</audiochannel>
														</audio>
													</media>
												</file>
												<sourcetrack>
													<mediatype>video</mediatype>
												</sourcetrack>
												<link>
													<linkclipref>AA0027_01 2</linkclipref>
													<mediatype>video</mediatype>
													<trackindex>1</trackindex>
													<clipindex>1</clipindex>
												</link>
												<link>
													<linkclipref>AA0027_01 4</linkclipref>
													<mediatype>audio</mediatype>
													<trackindex>1</trackindex>
													<clipindex>1</clipindex>
												</link>
												<link>
													<linkclipref>AA0027_01 5</linkclipref>
													<mediatype>audio</mediatype>
													<trackindex>2</trackindex>
													<clipindex>1</clipindex>
												</link>
												<fielddominance>none</fielddominance>
												<mediadelay>6256</mediadelay>
												<itemhistory>
													<uuid>DC03BB72-1DD5-423E-AEE8-327A74F9B495</uuid>
												</itemhistory>
											</clipitem>
											<enabled>TRUE</enabled>
											<locked>FALSE</locked>
										</track>
									</video>
									<audio>
										<outputs>
											<group>
												<index>1</index>
												<numchannels>2</numchannels>
												<downmix>0</downmix>
												<channel>
													<index>1</index>
												</channel>
												<channel>
													<index>2</index>
												</channel>
											</group>
										</outputs>
										<in>-1</in>
										<out>-1</out>
										<track>
											<clipitem id="AA0027_01 4">
												<name>AA0027_01</name>
												<duration>578989</duration>
												<rate>
													<ntsc>TRUE</ntsc>
													<timebase>24</timebase>
												</rate>
												<in>0</in>
												<out>578989</out>
												<start>0</start>
												<end>578989</end>
												<subframeoffset>0</subframeoffset>
												<anamorphic>FALSE</anamorphic>
												<masterclipid>AA0027_01 1</masterclipid>
												<syncoffset>0</syncoffset>
												<logginginfo>
													<scene/>
													<shottake/>
													<lognote/>
													<good>FALSE</good>
												</logginginfo>
												<labels>
													<label>Alternate Shots</label>
													<label2/>
												</labels>
												<comments>
													<mastercomment1/>
													<mastercomment2/>
													<mastercomment3/>
													<mastercomment4/>
												</comments>
												<file id="AA0027_01 3"/>
												<filter>
													<effect>
														<name>Audio Levels</name>
														<effectid>audiolevels</effectid>
														<effectcategory>audiolevels</effectcategory>
														<effecttype>audiolevels</effecttype>
														<mediatype>audio</mediatype>
														<parameter>
															<name>Level</name>
															<parameterid>level</parameterid>
															<valuemin>0</valuemin>
															<valuemax>3.98109</valuemax>
															<value>1</value>
														</parameter>
													</effect>
												</filter>
												<filter>
													<effect>
														<name>Audio Pan</name>
														<effectid>audiopan</effectid>
														<effectcategory>audiopan</effectcategory>
														<effecttype>audiopan</effecttype>
														<mediatype>audio</mediatype>
														<parameter>
															<name>Pan</name>
															<parameterid>pan</parameterid>
															<valuemin>-1</valuemin>
															<valuemax>1</valuemax>
															<value>0</value>
														</parameter>
													</effect>
												</filter>
												<sourcetrack>
													<mediatype>audio</mediatype>
													<trackindex>1</trackindex>
												</sourcetrack>
												<link>
													<linkclipref>AA0027_01 2</linkclipref>
													<mediatype>video</mediatype>
													<trackindex>1</trackindex>
													<clipindex>1</clipindex>
												</link>
												<link>
													<linkclipref>AA0027_01 4</linkclipref>
													<mediatype>audio</mediatype>
													<trackindex>1</trackindex>
													<clipindex>1</clipindex>
												</link>
												<link>
													<linkclipref>AA0027_01 5</linkclipref>
													<mediatype>audio</mediatype>
													<trackindex>2</trackindex>
													<clipindex>1</clipindex>
												</link>
												<mediadelay>6256</mediadelay>
												<itemhistory>
													<uuid>B476EFB7-7773-4205-974A-43FE6167DFBE</uuid>
												</itemhistory>
											</clipitem>
											<enabled>TRUE</enabled>
											<locked>FALSE</locked>
										</track>
										<track>
											<clipitem id="AA0027_01 5">
												<name>AA0027_01</name>
												<duration>578989</duration>
												<rate>
													<ntsc>TRUE</ntsc>
													<timebase>24</timebase>
												</rate>
												<in>0</in>
												<out>578989</out>
												<start>0</start>
												<end>578989</end>
												<subframeoffset>0</subframeoffset>
												<anamorphic>FALSE</anamorphic>
												<masterclipid>AA0027_01 1</masterclipid>
												<syncoffset>0</syncoffset>
												<logginginfo>
													<scene/>
													<shottake/>
													<lognote/>
													<good>FALSE</good>
												</logginginfo>
												<labels>
													<label>Alternate Shots</label>
													<label2/>
												</labels>
												<comments>
													<mastercomment1/>
													<mastercomment2/>
													<mastercomment3/>
													<mastercomment4/>
												</comments>
												<file id="AA0027_01 3"/>
												<filter>
													<effect>
														<name>Audio Levels</name>
														<effectid>audiolevels</effectid>
														<effectcategory>audiolevels</effectcategory>
														<effecttype>audiolevels</effecttype>
														<mediatype>audio</mediatype>
														<parameter>
															<name>Level</name>
															<parameterid>level</parameterid>
															<valuemin>0</valuemin>
															<valuemax>3.98109</valuemax>
															<value>1</value>
														</parameter>
													</effect>
												</filter>
												<filter>
													<effect>
														<name>Audio Pan</name>
														<effectid>audiopan</effectid>
														<effectcategory>audiopan</effectcategory>
														<effecttype>audiopan</effecttype>
														<mediatype>audio</mediatype>
														<parameter>
															<name>Pan</name>
															<parameterid>pan</parameterid>
															<valuemin>-1</valuemin>
															<valuemax>1</valuemax>
															<value>0</value>
														</parameter>
													</effect>
												</filter>
												<sourcetrack>
													<mediatype>audio</mediatype>
													<trackindex>2</trackindex>
												</sourcetrack>
												<link>
													<linkclipref>AA0027_01 2</linkclipref>
													<mediatype>video</mediatype>
													<trackindex>1</trackindex>
													<clipindex>1</clipindex>
												</link>
												<link>
													<linkclipref>AA0027_01 4</linkclipref>
													<mediatype>audio</mediatype>
													<trackindex>1</trackindex>
													<clipindex>1</clipindex>
												</link>
												<link>
													<linkclipref>AA0027_01 5</linkclipref>
													<mediatype>audio</mediatype>
													<trackindex>2</trackindex>
													<clipindex>1</clipindex>
												</link>
												<mediadelay>6256</mediadelay>
												<itemhistory>
													<uuid>5AE9CA67-4F80-459F-AFE0-AC5C50C01D9B</uuid>
												</itemhistory>
											</clipitem>
											<enabled>TRUE</enabled>
											<locked>FALSE</locked>
										</track>
										<filter>
											<effect>
												<name>Audio Levels</name>
												<effectid>audiolevels</effectid>
												<effectcategory>audiolevels</effectcategory>
												<effecttype>audiolevels</effecttype>
												<mediatype>audio</mediatype>
												<parameter>
													<name>Level</name>
													<parameterid>level</parameterid>
													<valuemin>0</valuemin>
													<valuemax>3.98109</valuemax>
													<value>1</value>
												</parameter>
											</effect>
										</filter>
									</audio>
								</media>
							</clip>
						</angle>
						<angle>
							<clip id="AA0031_01 ">
								<uuid>17F031CD-9082-4313-B113-068DFEA9E775</uuid>
								<updatebehavior>add</updatebehavior>
								<name>AA0031_01</name>
								<duration>578989</duration>
								<rate>
									<ntsc>TRUE</ntsc>
									<timebase>24</timebase>
								</rate>
								<in>-1</in>
								<out>-1</out>
								<anamorphic>FALSE</anamorphic>
								<masterclipid>AA0031_01 1</masterclipid>
								<ismasterclip>FALSE</ismasterclip>
								<logginginfo>
									<scene/>
									<shottake/>
									<lognote/>
									<good>FALSE</good>
								</logginginfo>
								<labels>
									<label>Alternate Shots</label>
									<label2/>
								</labels>
								<comments>
									<mastercomment1/>
									<mastercomment2/>
									<mastercomment3/>
									<mastercomment4/>
								</comments>
								<media>
									<video>
										<track>
											<clipitem id="AA0031_01 2">
												<name>AA0031_01</name>
												<duration>578989</duration>
												<rate>
													<ntsc>TRUE</ntsc>
													<timebase>24</timebase>
												</rate>
												<in>0</in>
												<out>578989</out>
												<start>0</start>
												<end>578989</end>
												<pixelaspectratio>Square</pixelaspectratio>
												<anamorphic>FALSE</anamorphic>
												<alphatype>none</alphatype>
												<masterclipid>AA0031_01 1</masterclipid>
												<syncoffset>0</syncoffset>
												<logginginfo>
													<scene/>
													<shottake/>
													<lognote/>
													<good>FALSE</good>
												</logginginfo>
												<labels>
													<label>Alternate Shots</label>
													<label2/>
												</labels>
												<comments>
													<mastercomment1/>
													<mastercomment2/>
													<mastercomment3/>
													<mastercomment4/>
												</comments>
												<file id="AA0031_01 3">
													<name>AA0031_01.mov</name>
													<pathurl>file://localhost/Volumes/Share/Edit%20Share/00%20BREW%20DOGS%20S1/BD_00_San_Diego/052413/01_Video/C300/AA0031_01.mov</pathurl>
													<rate>
														<timebase>24</timebase>
														<ntsc>TRUE</ntsc>
													</rate>
													<duration>11004</duration>
													<metadata>
														<storage>QuickTime</storage>
														<key>com.apple.quicktime.creationdate</key>
														<size>24</size>
														<type>UTF8</type>
														<value>2013-05-24T11:46:40-0700</value>
													</metadata>
													<metadata>
														<storage>QuickTime</storage>
														<key>com.apple.finalcutstudio.media.history.uuid</key>
														<size>36</size>
														<type>UTF8</type>
														<value>8101CF2A-01CC-433A-8BFF-760DFA65B313</value>
													</metadata>
													<metadata>
														<storage>QuickTime</storage>
														<key>com.apple.finalcutstudio.media.uuid</key>
														<size>36</size>
														<type>UTF8</type>
														<value>67A5CEDF-084E-4BC7-B5BC-95CCB21738A6</value>
													</metadata>
													<metadata>
														<storage>QuickTime</storage>
														<key>com.apple.proapps.reel</key>
														<size>12</size>
														<type>UTF8</type>
														<value>A01_verified</value>
													</metadata>
													<metadata>
														<storage>QuickTime</storage>
														<key>com.apple.proapps.isGood</key>
														<size>4</size>
														<type>unsigned</type>
														<value>0</value>
													</metadata>
													<metadata>
														<storage>QuickTime</storage>
														<key>com.apple.proapps.clipID</key>
														<size>36</size>
														<type>UTF8</type>
														<value>0D374C40-3664-0580-0000-8500025A0F55</value>
													</metadata>
													<metadata>
														<storage>QuickTime</storage>
														<key>com.apple.proapps.originalFormat</key>
														<size>14</size>
														<type>UTF8</type>
														<value>Canon XF MPEG2</value>
													</metadata>
													<timecode>
														<rate>
															<timebase>24</timebase>
														</rate>
														<string>11:47:16:04</string>
														<frame>1018468</frame>
														<displayformat>NDF</displayformat>
														<source>source</source>
														<reel>
															<name>A01_verified</name>
														</reel>
													</timecode>
													<media>
														<video>
															<duration>11004</duration>
															<samplecharacteristics>
																<width>1920</width>
																<height>1080</height>
															</samplecharacteristics>
														</video>
														<audio>
															<samplecharacteristics>
																<samplerate>48000</samplerate>
																<depth>16</depth>
															</samplecharacteristics>
															<channelcount>1</channelcount>
															<layout>mono</layout>
															<audiochannel>
																<sourcechannel>1</sourcechannel>
																<channellabel>discrete</channellabel>
															</audiochannel>
														</audio>
														<audio>
															<samplecharacteristics>
																<samplerate>48000</samplerate>
																<depth>16</depth>
															</samplecharacteristics>
															<channelcount>1</channelcount>
															<layout>mono</layout>
															<audiochannel>
																<sourcechannel>2</sourcechannel>
																<channellabel>discrete</channellabel>
															</audiochannel>
														</audio>
													</media>
												</file>
												<sourcetrack>
													<mediatype>video</mediatype>
												</sourcetrack>
												<link>
													<linkclipref>AA0031_01 2</linkclipref>
													<mediatype>video</mediatype>
													<trackindex>1</trackindex>
													<clipindex>1</clipindex>
												</link>
												<link>
													<linkclipref>AA0031_01 4</linkclipref>
													<mediatype>audio</mediatype>
													<trackindex>1</trackindex>
													<clipindex>1</clipindex>
												</link>
												<link>
													<linkclipref>AA0031_01 5</linkclipref>
													<mediatype>audio</mediatype>
													<trackindex>2</trackindex>
													<clipindex>1</clipindex>
												</link>
												<fielddominance>none</fielddominance>
												<mediadelay>32176</mediadelay>
												<itemhistory>
													<uuid>929AE307-69E9-4F34-BF31-F3F453DC2DFE</uuid>
												</itemhistory>
											</clipitem>
											<enabled>TRUE</enabled>
											<locked>FALSE</locked>
										</track>
									</video>
									<audio>
										<outputs>
											<group>
												<index>1</index>
												<numchannels>2</numchannels>
												<downmix>0</downmix>
												<channel>
													<index>1</index>
												</channel>
												<channel>
													<index>2</index>
												</channel>
											</group>
										</outputs>
										<in>-1</in>
										<out>-1</out>
										<track>
											<clipitem id="AA0031_01 4">
												<name>AA0031_01</name>
												<duration>578989</duration>
												<rate>
													<ntsc>TRUE</ntsc>
													<timebase>24</timebase>
												</rate>
												<in>0</in>
												<out>578989</out>
												<start>0</start>
												<end>578989</end>
												<subframeoffset>0</subframeoffset>
												<anamorphic>FALSE</anamorphic>
												<masterclipid>AA0031_01 1</masterclipid>
												<syncoffset>0</syncoffset>
												<logginginfo>
													<scene/>
													<shottake/>
													<lognote/>
													<good>FALSE</good>
												</logginginfo>
												<labels>
													<label>Alternate Shots</label>
													<label2/>
												</labels>
												<comments>
													<mastercomment1/>
													<mastercomment2/>
													<mastercomment3/>
													<mastercomment4/>
												</comments>
												<file id="AA0031_01 3"/>
												<filter>
													<effect>
														<name>Audio Levels</name>
														<effectid>audiolevels</effectid>
														<effectcategory>audiolevels</effectcategory>
														<effecttype>audiolevels</effecttype>
														<mediatype>audio</mediatype>
														<parameter>
															<name>Level</name>
															<parameterid>level</parameterid>
															<valuemin>0</valuemin>
															<valuemax>3.98109</valuemax>
															<value>1</value>
														</parameter>
													</effect>
												</filter>
												<filter>
													<effect>
														<name>Audio Pan</name>
														<effectid>audiopan</effectid>
														<effectcategory>audiopan</effectcategory>
														<effecttype>audiopan</effecttype>
														<mediatype>audio</mediatype>
														<parameter>
															<name>Pan</name>
															<parameterid>pan</parameterid>
															<valuemin>-1</valuemin>
															<valuemax>1</valuemax>
															<value>0</value>
														</parameter>
													</effect>
												</filter>
												<sourcetrack>
													<mediatype>audio</mediatype>
													<trackindex>1</trackindex>
												</sourcetrack>
												<link>
													<linkclipref>AA0031_01 2</linkclipref>
													<mediatype>video</mediatype>
													<trackindex>1</trackindex>
													<clipindex>1</clipindex>
												</link>
												<link>
													<linkclipref>AA0031_01 4</linkclipref>
													<mediatype>audio</mediatype>
													<trackindex>1</trackindex>
													<clipindex>1</clipindex>
												</link>
												<link>
													<linkclipref>AA0031_01 5</linkclipref>
													<mediatype>audio</mediatype>
													<trackindex>2</trackindex>
													<clipindex>1</clipindex>
												</link>
												<mediadelay>32176</mediadelay>
												<itemhistory>
													<uuid>BD53EA95-8FEE-438C-BB02-127C5081BDB4</uuid>
												</itemhistory>
											</clipitem>
											<enabled>TRUE</enabled>
											<locked>FALSE</locked>
										</track>
										<track>
											<clipitem id="AA0031_01 5">
												<name>AA0031_01</name>
												<duration>578989</duration>
												<rate>
													<ntsc>TRUE</ntsc>
													<timebase>24</timebase>
												</rate>
												<in>0</in>
												<out>578989</out>
												<start>0</start>
												<end>578989</end>
												<subframeoffset>0</subframeoffset>
												<anamorphic>FALSE</anamorphic>
												<masterclipid>AA0031_01 1</masterclipid>
												<syncoffset>0</syncoffset>
												<logginginfo>
													<scene/>
													<shottake/>
													<lognote/>
													<good>FALSE</good>
												</logginginfo>
												<labels>
													<label>Alternate Shots</label>
													<label2/>
												</labels>
												<comments>
													<mastercomment1/>
													<mastercomment2/>
													<mastercomment3/>
													<mastercomment4/>
												</comments>
												<file id="AA0031_01 3"/>
												<filter>
													<effect>
														<name>Audio Levels</name>
														<effectid>audiolevels</effectid>
														<effectcategory>audiolevels</effectcategory>
														<effecttype>audiolevels</effecttype>
														<mediatype>audio</mediatype>
														<parameter>
															<name>Level</name>
															<parameterid>level</parameterid>
															<valuemin>0</valuemin>
															<valuemax>3.98109</valuemax>
															<value>1</value>
														</parameter>
													</effect>
												</filter>
												<filter>
													<effect>
														<name>Audio Pan</name>
														<effectid>audiopan</effectid>
														<effectcategory>audiopan</effectcategory>
														<effecttype>audiopan</effecttype>
														<mediatype>audio</mediatype>
														<parameter>
															<name>Pan</name>
															<parameterid>pan</parameterid>
															<valuemin>-1</valuemin>
															<valuemax>1</valuemax>
															<value>0</value>
														</parameter>
													</effect>
												</filter>
												<sourcetrack>
													<mediatype>audio</mediatype>
													<trackindex>2</trackindex>
												</sourcetrack>
												<link>
													<linkclipref>AA0031_01 2</linkclipref>
													<mediatype>video</mediatype>
													<trackindex>1</trackindex>
													<clipindex>1</clipindex>
												</link>
												<link>
													<linkclipref>AA0031_01 4</linkclipref>
													<mediatype>audio</mediatype>
													<trackindex>1</trackindex>
													<clipindex>1</clipindex>
												</link>
												<link>
													<linkclipref>AA0031_01 5</linkclipref>
													<mediatype>audio</mediatype>
													<trackindex>2</trackindex>
													<clipindex>1</clipindex>
												</link>
												<mediadelay>32176</mediadelay>
												<itemhistory>
													<uuid>9523121C-D53D-41E4-9C84-AFBB0F860F75</uuid>
												</itemhistory>
											</clipitem>
											<enabled>TRUE</enabled>
											<locked>FALSE</locked>
										</track>
										<filter>
											<effect>
												<name>Audio Levels</name>
												<effectid>audiolevels</effectid>
												<effectcategory>audiolevels</effectcategory>
												<effecttype>audiolevels</effecttype>
												<mediatype>audio</mediatype>
												<parameter>
													<name>Level</name>
													<parameterid>level</parameterid>
													<valuemin>0</valuemin>
													<valuemax>3.98109</valuemax>
													<value>1</value>
												</parameter>
											</effect>
										</filter>
									</audio>
								</media>
							</clip>
						</angle>
						<angle>
							<clip id="AA0032_01 ">
								<uuid>7E24DC6D-F524-4A89-9D4B-225393BC6AC0</uuid>
								<updatebehavior>add</updatebehavior>
								<name>AA0032_01</name>
								<duration>578989</duration>
								<rate>
									<ntsc>TRUE</ntsc>
									<timebase>24</timebase>
								</rate>
								<in>-1</in>
								<out>-1</out>
								<anamorphic>FALSE</anamorphic>
								<masterclipid>AA0032_01 1</masterclipid>
								<ismasterclip>FALSE</ismasterclip>
								<logginginfo>
									<scene/>
									<shottake/>
									<lognote/>
									<good>FALSE</good>
								</logginginfo>
								<labels>
									<label>Alternate Shots</label>
									<label2/>
								</labels>
								<comments>
									<mastercomment1/>
									<mastercomment2/>
									<mastercomment3/>
									<mastercomment4/>
								</comments>
								<media>
									<video>
										<track>
											<clipitem id="AA0032_01 2">
												<name>AA0032_01</name>
												<duration>578989</duration>
												<rate>
													<ntsc>TRUE</ntsc>
													<timebase>24</timebase>
												</rate>
												<in>0</in>
												<out>578989</out>
												<start>0</start>
												<end>578989</end>
												<pixelaspectratio>Square</pixelaspectratio>
												<anamorphic>FALSE</anamorphic>
												<alphatype>none</alphatype>
												<masterclipid>AA0032_01 1</masterclipid>
												<syncoffset>0</syncoffset>
												<logginginfo>
													<scene/>
													<shottake/>
													<lognote/>
													<good>FALSE</good>
												</logginginfo>
												<labels>
													<label>Alternate Shots</label>
													<label2/>
												</labels>
												<comments>
													<mastercomment1/>
													<mastercomment2/>
													<mastercomment3/>
													<mastercomment4/>
												</comments>
												<file id="AA0032_01 3">
													<name>AA0032_01.mov</name>
													<pathurl>file://localhost/Volumes/Share/Edit%20Share/00%20BREW%20DOGS%20S1/BD_00_San_Diego/052413/01_Video/C300/AA0032_01.mov</pathurl>
													<rate>
														<timebase>24</timebase>
														<ntsc>TRUE</ntsc>
													</rate>
													<duration>7692</duration>
													<metadata>
														<storage>QuickTime</storage>
														<key>com.apple.quicktime.creationdate</key>
														<size>24</size>
														<type>UTF8</type>
														<value>2013-05-24T11:54:43-0700</value>
													</metadata>
													<metadata>
														<storage>QuickTime</storage>
														<key>com.apple.finalcutstudio.media.history.uuid</key>
														<size>36</size>
														<type>UTF8</type>
														<value>1357C7B5-E8F9-4461-90F8-E4C909248F26</value>
													</metadata>
													<metadata>
														<storage>QuickTime</storage>
														<key>com.apple.finalcutstudio.media.uuid</key>
														<size>36</size>
														<type>UTF8</type>
														<value>42F0E695-18EE-42FA-8417-8AD9193FCD71</value>
													</metadata>
													<metadata>
														<storage>QuickTime</storage>
														<key>com.apple.proapps.reel</key>
														<size>12</size>
														<type>UTF8</type>
														<value>A01_verified</value>
													</metadata>
													<metadata>
														<storage>QuickTime</storage>
														<key>com.apple.proapps.isGood</key>
														<size>4</size>
														<type>unsigned</type>
														<value>0</value>
													</metadata>
													<metadata>
														<storage>QuickTime</storage>
														<key>com.apple.proapps.clipID</key>
														<size>36</size>
														<type>UTF8</type>
														<value>0D37BD74-3664-0580-0000-8500025A0F55</value>
													</metadata>
													<metadata>
														<storage>QuickTime</storage>
														<key>com.apple.proapps.originalFormat</key>
														<size>14</size>
														<type>UTF8</type>
														<value>Canon XF MPEG2</value>
													</metadata>
													<timecode>
														<rate>
															<timebase>24</timebase>
														</rate>
														<string>11:55:18:20</string>
														<frame>1030052</frame>
														<displayformat>NDF</displayformat>
														<source>source</source>
														<reel>
															<name>A01_verified</name>
														</reel>
													</timecode>
													<media>
														<video>
															<duration>7692</duration>
															<samplecharacteristics>
																<width>1920</width>
																<height>1080</height>
															</samplecharacteristics>
														</video>
														<audio>
															<samplecharacteristics>
																<samplerate>48000</samplerate>
																<depth>16</depth>
															</samplecharacteristics>
															<channelcount>1</channelcount>
															<layout>mono</layout>
															<audiochannel>
																<sourcechannel>1</sourcechannel>
																<channellabel>discrete</channellabel>
															</audiochannel>
														</audio>
														<audio>
															<samplecharacteristics>
																<samplerate>48000</samplerate>
																<depth>16</depth>
															</samplecharacteristics>
															<channelcount>1</channelcount>
															<layout>mono</layout>
															<audiochannel>
																<sourcechannel>2</sourcechannel>
																<channellabel>discrete</channellabel>
															</audiochannel>
														</audio>
													</media>
												</file>
												<sourcetrack>
													<mediatype>video</mediatype>
												</sourcetrack>
												<link>
													<linkclipref>AA0032_01 2</linkclipref>
													<mediatype>video</mediatype>
													<trackindex>1</trackindex>
													<clipindex>1</clipindex>
												</link>
												<link>
													<linkclipref>AA0032_01 4</linkclipref>
													<mediatype>audio</mediatype>
													<trackindex>1</trackindex>
													<clipindex>1</clipindex>
												</link>
												<link>
													<linkclipref>AA0032_01 5</linkclipref>
													<mediatype>audio</mediatype>
													<trackindex>2</trackindex>
													<clipindex>1</clipindex>
												</link>
												<fielddominance>none</fielddominance>
												<mediadelay>43760</mediadelay>
												<itemhistory>
													<uuid>6D29ADC3-A425-4952-9A00-62250B52E47A</uuid>
												</itemhistory>
											</clipitem>
											<enabled>TRUE</enabled>
											<locked>FALSE</locked>
										</track>
									</video>
									<audio>
										<outputs>
											<group>
												<index>1</index>
												<numchannels>2</numchannels>
												<downmix>0</downmix>
												<channel>
													<index>1</index>
												</channel>
												<channel>
													<index>2</index>
												</channel>
											</group>
										</outputs>
										<in>-1</in>
										<out>-1</out>
										<track>
											<clipitem id="AA0032_01 4">
												<name>AA0032_01</name>
												<duration>578989</duration>
												<rate>
													<ntsc>TRUE</ntsc>
													<timebase>24</timebase>
												</rate>
												<in>0</in>
												<out>578989</out>
												<start>0</start>
												<end>578989</end>
												<subframeoffset>0</subframeoffset>
												<anamorphic>FALSE</anamorphic>
												<masterclipid>AA0032_01 1</masterclipid>
												<syncoffset>0</syncoffset>
												<logginginfo>
													<scene/>
													<shottake/>
													<lognote/>
													<good>FALSE</good>
												</logginginfo>
												<labels>
													<label>Alternate Shots</label>
													<label2/>
												</labels>
												<comments>
													<mastercomment1/>
													<mastercomment2/>
													<mastercomment3/>
													<mastercomment4/>
												</comments>
												<file id="AA0032_01 3"/>
												<filter>
													<effect>
														<name>Audio Levels</name>
														<effectid>audiolevels</effectid>
														<effectcategory>audiolevels</effectcategory>
														<effecttype>audiolevels</effecttype>
														<mediatype>audio</mediatype>
														<parameter>
															<name>Level</name>
															<parameterid>level</parameterid>
															<valuemin>0</valuemin>
															<valuemax>3.98109</valuemax>
															<value>1</value>
														</parameter>
													</effect>
												</filter>
												<filter>
													<effect>
														<name>Audio Pan</name>
														<effectid>audiopan</effectid>
														<effectcategory>audiopan</effectcategory>
														<effecttype>audiopan</effecttype>
														<mediatype>audio</mediatype>
														<parameter>
															<name>Pan</name>
															<parameterid>pan</parameterid>
															<valuemin>-1</valuemin>
															<valuemax>1</valuemax>
															<value>0</value>
														</parameter>
													</effect>
												</filter>
												<sourcetrack>
													<mediatype>audio</mediatype>
													<trackindex>1</trackindex>
												</sourcetrack>
												<link>
													<linkclipref>AA0032_01 2</linkclipref>
													<mediatype>video</mediatype>
													<trackindex>1</trackindex>
													<clipindex>1</clipindex>
												</link>
												<link>
													<linkclipref>AA0032_01 4</linkclipref>
													<mediatype>audio</mediatype>
													<trackindex>1</trackindex>
													<clipindex>1</clipindex>
												</link>
												<link>
													<linkclipref>AA0032_01 5</linkclipref>
													<mediatype>audio</mediatype>
													<trackindex>2</trackindex>
													<clipindex>1</clipindex>
												</link>
												<mediadelay>43760</mediadelay>
												<itemhistory>
													<uuid>20229D14-2C2C-48F2-92BF-F47E8280F10C</uuid>
												</itemhistory>
											</clipitem>
											<enabled>TRUE</enabled>
											<locked>FALSE</locked>
										</track>
										<track>
											<clipitem id="AA0032_01 5">
												<name>AA0032_01</name>
												<duration>578989</duration>
												<rate>
													<ntsc>TRUE</ntsc>
													<timebase>24</timebase>
												</rate>
												<in>0</in>
												<out>578989</out>
												<start>0</start>
												<end>578989</end>
												<subframeoffset>0</subframeoffset>
												<anamorphic>FALSE</anamorphic>
												<masterclipid>AA0032_01 1</masterclipid>
												<syncoffset>0</syncoffset>
												<logginginfo>
													<scene/>
													<shottake/>
													<lognote/>
													<good>FALSE</good>
												</logginginfo>
												<labels>
													<label>Alternate Shots</label>
													<label2/>
												</labels>
												<comments>
													<mastercomment1/>
													<mastercomment2/>
													<mastercomment3/>
													<mastercomment4/>
												</comments>
												<file id="AA0032_01 3"/>
												<filter>
													<effect>
														<name>Audio Levels</name>
														<effectid>audiolevels</effectid>
														<effectcategory>audiolevels</effectcategory>
														<effecttype>audiolevels</effecttype>
														<mediatype>audio</mediatype>
														<parameter>
															<name>Level</name>
															<parameterid>level</parameterid>
															<valuemin>0</valuemin>
															<valuemax>3.98109</valuemax>
															<value>1</value>
														</parameter>
													</effect>
												</filter>
												<filter>
													<effect>
														<name>Audio Pan</name>
														<effectid>audiopan</effectid>
														<effectcategory>audiopan</effectcategory>
														<effecttype>audiopan</effecttype>
														<mediatype>audio</mediatype>
														<parameter>
															<name>Pan</name>
															<parameterid>pan</parameterid>
															<valuemin>-1</valuemin>
															<valuemax>1</valuemax>
															<value>0</value>
														</parameter>
													</effect>
												</filter>
												<sourcetrack>
													<mediatype>audio</mediatype>
													<trackindex>2</trackindex>
												</sourcetrack>
												<link>
													<linkclipref>AA0032_01 2</linkclipref>
													<mediatype>video</mediatype>
													<trackindex>1</trackindex>
													<clipindex>1</clipindex>
												</link>
												<link>
													<linkclipref>AA0032_01 4</linkclipref>
													<mediatype>audio</mediatype>
													<trackindex>1</trackindex>
													<clipindex>1</clipindex>
												</link>
												<link>
													<linkclipref>AA0032_01 5</linkclipref>
													<mediatype>audio</mediatype>
													<trackindex>2</trackindex>
													<clipindex>1</clipindex>
												</link>
												<mediadelay>43760</mediadelay>
												<itemhistory>
													<uuid>F0E75F6C-6F2D-44A6-8896-5A5B94EF1384</uuid>
												</itemhistory>
											</clipitem>
											<enabled>TRUE</enabled>
											<locked>FALSE</locked>
										</track>
										<filter>
											<effect>
												<name>Audio Levels</name>
												<effectid>audiolevels</effectid>
												<effectcategory>audiolevels</effectcategory>
												<effecttype>audiolevels</effecttype>
												<mediatype>audio</mediatype>
												<parameter>
													<name>Level</name>
													<parameterid>level</parameterid>
													<valuemin>0</valuemin>
													<valuemax>3.98109</valuemax>
													<value>1</value>
												</parameter>
											</effect>
										</filter>
									</audio>
								</media>
							</clip>
						</angle>
						<angle>
							<clip id="AA0033_01 ">
								<uuid>2F259303-B2C0-4311-8A44-06D172F4955D</uuid>
								<updatebehavior>add</updatebehavior>
								<name>AA0033_01</name>
								<duration>578989</duration>
								<rate>
									<ntsc>TRUE</ntsc>
									<timebase>24</timebase>
								</rate>
								<in>-1</in>
								<out>-1</out>
								<anamorphic>FALSE</anamorphic>
								<masterclipid>AA0033_01 1</masterclipid>
								<ismasterclip>FALSE</ismasterclip>
								<logginginfo>
									<scene/>
									<shottake/>
									<lognote/>
									<good>FALSE</good>
								</logginginfo>
								<labels>
									<label>Alternate Shots</label>
									<label2/>
								</labels>
								<comments>
									<mastercomment1/>
									<mastercomment2/>
									<mastercomment3/>
									<mastercomment4/>
								</comments>
								<media>
									<video>
										<track>
											<clipitem id="AA0033_01 2">
												<name>AA0033_01</name>
												<duration>578989</duration>
												<rate>
													<ntsc>TRUE</ntsc>
													<timebase>24</timebase>
												</rate>
												<in>0</in>
												<out>578989</out>
												<start>0</start>
												<end>578989</end>
												<pixelaspectratio>Square</pixelaspectratio>
												<anamorphic>FALSE</anamorphic>
												<alphatype>none</alphatype>
												<masterclipid>AA0033_01 1</masterclipid>
												<syncoffset>0</syncoffset>
												<logginginfo>
													<scene/>
													<shottake/>
													<lognote/>
													<good>FALSE</good>
												</logginginfo>
												<labels>
													<label>Alternate Shots</label>
													<label2/>
												</labels>
												<comments>
													<mastercomment1/>
													<mastercomment2/>
													<mastercomment3/>
													<mastercomment4/>
												</comments>
												<file id="AA0033_01 3">
													<name>AA0033_01.mov</name>
													<pathurl>file://localhost/Volumes/Share/Edit%20Share/00%20BREW%20DOGS%20S1/BD_00_San_Diego/052413/01_Video/C300/AA0033_01.mov</pathurl>
													<rate>
														<timebase>24</timebase>
														<ntsc>TRUE</ntsc>
													</rate>
													<duration>19692</duration>
													<metadata>
														<storage>QuickTime</storage>
														<key>com.apple.quicktime.creationdate</key>
														<size>24</size>
														<type>UTF8</type>
														<value>2013-05-24T12:14:34-0700</value>
													</metadata>
													<metadata>
														<storage>QuickTime</storage>
														<key>com.apple.finalcutstudio.media.history.uuid</key>
														<size>36</size>
														<type>UTF8</type>
														<value>D24348D7-2D8F-4F77-99D2-3A10769326E8</value>
													</metadata>
													<metadata>
														<storage>QuickTime</storage>
														<key>com.apple.finalcutstudio.media.uuid</key>
														<size>36</size>
														<type>UTF8</type>
														<value>EBE77DE7-E330-48D0-B9A0-03CC9D82DB71</value>
													</metadata>
													<metadata>
														<storage>QuickTime</storage>
														<key>com.apple.proapps.reel</key>
														<size>12</size>
														<type>UTF8</type>
														<value>A01_verified</value>
													</metadata>
													<metadata>
														<storage>QuickTime</storage>
														<key>com.apple.proapps.isGood</key>
														<size>4</size>
														<type>unsigned</type>
														<value>0</value>
													</metadata>
													<metadata>
														<storage>QuickTime</storage>
														<key>com.apple.proapps.clipID</key>
														<size>36</size>
														<type>UTF8</type>
														<value>0D38D498-3664-0580-0000-8500025A0F55</value>
													</metadata>
													<metadata>
														<storage>QuickTime</storage>
														<key>com.apple.proapps.originalFormat</key>
														<size>14</size>
														<type>UTF8</type>
														<value>Canon XF MPEG2</value>
													</metadata>
													<timecode>
														<rate>
															<timebase>24</timebase>
														</rate>
														<string>12:15:08:12</string>
														<frame>1058604</frame>
														<displayformat>NDF</displayformat>
														<source>source</source>
														<reel>
															<name>A01_verified</name>
														</reel>
													</timecode>
													<media>
														<video>
															<duration>19692</duration>
															<samplecharacteristics>
																<width>1920</width>
																<height>1080</height>
															</samplecharacteristics>
														</video>
														<audio>
															<samplecharacteristics>
																<samplerate>48000</samplerate>
																<depth>16</depth>
															</samplecharacteristics>
															<channelcount>1</channelcount>
															<layout>mono</layout>
															<audiochannel>
																<sourcechannel>1</sourcechannel>
																<channellabel>discrete</channellabel>
															</audiochannel>
														</audio>
														<audio>
															<samplecharacteristics>
																<samplerate>48000</samplerate>
																<depth>16</depth>
															</samplecharacteristics>
															<channelcount>1</channelcount>
															<layout>mono</layout>
															<audiochannel>
																<sourcechannel>2</sourcechannel>
																<channellabel>discrete</channellabel>
															</audiochannel>
														</audio>
													</media>
												</file>
												<sourcetrack>
													<mediatype>video</mediatype>
												</sourcetrack>
												<link>
													<linkclipref>AA0033_01 2</linkclipref>
													<mediatype>video</mediatype>
													<trackindex>1</trackindex>
													<clipindex>1</clipindex>
												</link>
												<link>
													<linkclipref>AA0033_01 4</linkclipref>
													<mediatype>audio</mediatype>
													<trackindex>1</trackindex>
													<clipindex>1</clipindex>
												</link>
												<link>
													<linkclipref>AA0033_01 5</linkclipref>
													<mediatype>audio</mediatype>
													<trackindex>2</trackindex>
													<clipindex>1</clipindex>
												</link>
												<fielddominance>none</fielddominance>
												<mediadelay>72312</mediadelay>
												<itemhistory>
													<uuid>2C66FF15-6111-4EAE-9572-036BA84448D3</uuid>
												</itemhistory>
											</clipitem>
											<enabled>TRUE</enabled>
											<locked>FALSE</locked>
										</track>
									</video>
									<audio>
										<outputs>
											<group>
												<index>1</index>
												<numchannels>2</numchannels>
												<downmix>0</downmix>
												<channel>
													<index>1</index>
												</channel>
												<channel>
													<index>2</index>
												</channel>
											</group>
										</outputs>
										<in>-1</in>
										<out>-1</out>
										<track>
											<clipitem id="AA0033_01 4">
												<name>AA0033_01</name>
												<duration>578989</duration>
												<rate>
													<ntsc>TRUE</ntsc>
													<timebase>24</timebase>
												</rate>
												<in>0</in>
												<out>578989</out>
												<start>0</start>
												<end>578989</end>
												<subframeoffset>0</subframeoffset>
												<anamorphic>FALSE</anamorphic>
												<masterclipid>AA0033_01 1</masterclipid>
												<syncoffset>0</syncoffset>
												<logginginfo>
													<scene/>
													<shottake/>
													<lognote/>
													<good>FALSE</good>
												</logginginfo>
												<labels>
													<label>Alternate Shots</label>
													<label2/>
												</labels>
												<comments>
													<mastercomment1/>
													<mastercomment2/>
													<mastercomment3/>
													<mastercomment4/>
												</comments>
												<file id="AA0033_01 3"/>
												<filter>
													<effect>
														<name>Audio Levels</name>
														<effectid>audiolevels</effectid>
														<effectcategory>audiolevels</effectcategory>
														<effecttype>audiolevels</effecttype>
														<mediatype>audio</mediatype>
														<parameter>
															<name>Level</name>
															<parameterid>level</parameterid>
															<valuemin>0</valuemin>
															<valuemax>3.98109</valuemax>
															<value>1</value>
														</parameter>
													</effect>
												</filter>
												<filter>
													<effect>
														<name>Audio Pan</name>
														<effectid>audiopan</effectid>
														<effectcategory>audiopan</effectcategory>
														<effecttype>audiopan</effecttype>
														<mediatype>audio</mediatype>
														<parameter>
															<name>Pan</name>
															<parameterid>pan</parameterid>
															<valuemin>-1</valuemin>
															<valuemax>1</valuemax>
															<value>0</value>
														</parameter>
													</effect>
												</filter>
												<sourcetrack>
													<mediatype>audio</mediatype>
													<trackindex>1</trackindex>
												</sourcetrack>
												<link>
													<linkclipref>AA0033_01 2</linkclipref>
													<mediatype>video</mediatype>
													<trackindex>1</trackindex>
													<clipindex>1</clipindex>
												</link>
												<link>
													<linkclipref>AA0033_01 4</linkclipref>
													<mediatype>audio</mediatype>
													<trackindex>1</trackindex>
													<clipindex>1</clipindex>
												</link>
												<link>
													<linkclipref>AA0033_01 5</linkclipref>
													<mediatype>audio</mediatype>
													<trackindex>2</trackindex>
													<clipindex>1</clipindex>
												</link>
												<mediadelay>72312</mediadelay>
												<itemhistory>
													<uuid>C427D624-2ED1-4EAC-A13B-B1CB55F282C6</uuid>
												</itemhistory>
											</clipitem>
											<enabled>TRUE</enabled>
											<locked>FALSE</locked>
										</track>
										<track>
											<clipitem id="AA0033_01 5">
												<name>AA0033_01</name>
												<duration>578989</duration>
												<rate>
													<ntsc>TRUE</ntsc>
													<timebase>24</timebase>
												</rate>
												<in>0</in>
												<out>578989</out>
												<start>0</start>
												<end>578989</end>
												<subframeoffset>0</subframeoffset>
												<anamorphic>FALSE</anamorphic>
												<masterclipid>AA0033_01 1</masterclipid>
												<syncoffset>0</syncoffset>
												<logginginfo>
													<scene/>
													<shottake/>
													<lognote/>
													<good>FALSE</good>
												</logginginfo>
												<labels>
													<label>Alternate Shots</label>
													<label2/>
												</labels>
												<comments>
													<mastercomment1/>
													<mastercomment2/>
													<mastercomment3/>
													<mastercomment4/>
												</comments>
												<file id="AA0033_01 3"/>
												<filter>
													<effect>
														<name>Audio Levels</name>
														<effectid>audiolevels</effectid>
														<effectcategory>audiolevels</effectcategory>
														<effecttype>audiolevels</effecttype>
														<mediatype>audio</mediatype>
														<parameter>
															<name>Level</name>
															<parameterid>level</parameterid>
															<valuemin>0</valuemin>
															<valuemax>3.98109</valuemax>
															<value>1</value>
														</parameter>
													</effect>
												</filter>
												<filter>
													<effect>
														<name>Audio Pan</name>
														<effectid>audiopan</effectid>
														<effectcategory>audiopan</effectcategory>
														<effecttype>audiopan</effecttype>
														<mediatype>audio</mediatype>
														<parameter>
															<name>Pan</name>
															<parameterid>pan</parameterid>
															<valuemin>-1</valuemin>
															<valuemax>1</valuemax>
															<value>0</value>
														</parameter>
													</effect>
												</filter>
												<sourcetrack>
													<mediatype>audio</mediatype>
													<trackindex>2</trackindex>
												</sourcetrack>
												<link>
													<linkclipref>AA0033_01 2</linkclipref>
													<mediatype>video</mediatype>
													<trackindex>1</trackindex>
													<clipindex>1</clipindex>
												</link>
												<link>
													<linkclipref>AA0033_01 4</linkclipref>
													<mediatype>audio</mediatype>
													<trackindex>1</trackindex>
													<clipindex>1</clipindex>
												</link>
												<link>
													<linkclipref>AA0033_01 5</linkclipref>
													<mediatype>audio</mediatype>
													<trackindex>2</trackindex>
													<clipindex>1</clipindex>
												</link>
												<mediadelay>72312</mediadelay>
												<itemhistory>
													<uuid>2B19A915-FCAB-4182-AACD-3C6D0FD9F8FC</uuid>
												</itemhistory>
											</clipitem>
											<enabled>TRUE</enabled>
											<locked>FALSE</locked>
										</track>
										<filter>
											<effect>
												<name>Audio Levels</name>
												<effectid>audiolevels</effectid>
												<effectcategory>audiolevels</effectcategory>
												<effecttype>audiolevels</effecttype>
												<mediatype>audio</mediatype>
												<parameter>
													<name>Level</name>
													<parameterid>level</parameterid>
													<valuemin>0</valuemin>
													<valuemax>3.98109</valuemax>
													<value>1</value>
												</parameter>
											</effect>
										</filter>
									</audio>
								</media>
							</clip>
						</angle>
						<angle>
							<clip id="AA0034_01 ">
								<uuid>E13CB0E6-082F-4F79-BD2B-D395EBCF2EEF</uuid>
								<updatebehavior>add</updatebehavior>
								<name>AA0034_01</name>
								<duration>578989</duration>
								<rate>
									<ntsc>TRUE</ntsc>
									<timebase>24</timebase>
								</rate>
								<in>-1</in>
								<out>-1</out>
								<anamorphic>FALSE</anamorphic>
								<masterclipid>AA0034_01 1</masterclipid>
								<ismasterclip>FALSE</ismasterclip>
								<logginginfo>
									<scene/>
									<shottake/>
									<lognote/>
									<good>FALSE</good>
								</logginginfo>
								<labels>
									<label>Alternate Shots</label>
									<label2/>
								</labels>
								<comments>
									<mastercomment1/>
									<mastercomment2/>
									<mastercomment3/>
									<mastercomment4/>
								</comments>
								<media>
									<video>
										<track>
											<clipitem id="AA0034_01 2">
												<name>AA0034_01</name>
												<duration>578989</duration>
												<rate>
													<ntsc>TRUE</ntsc>
													<timebase>24</timebase>
												</rate>
												<in>0</in>
												<out>578989</out>
												<start>0</start>
												<end>578989</end>
												<pixelaspectratio>Square</pixelaspectratio>
												<anamorphic>FALSE</anamorphic>
												<alphatype>none</alphatype>
												<masterclipid>AA0034_01 1</masterclipid>
												<syncoffset>0</syncoffset>
												<logginginfo>
													<scene/>
													<shottake/>
													<lognote/>
													<good>FALSE</good>
												</logginginfo>
												<labels>
													<label>Alternate Shots</label>
													<label2/>
												</labels>
												<comments>
													<mastercomment1/>
													<mastercomment2/>
													<mastercomment3/>
													<mastercomment4/>
												</comments>
												<file id="AA0034_01 3">
													<name>AA0034_01.mov</name>
													<pathurl>file://localhost/Volumes/Share/Edit%20Share/00%20BREW%20DOGS%20S1/BD_00_San_Diego/052413/01_Video/C300/AA0034_01.mov</pathurl>
													<rate>
														<timebase>24</timebase>
														<ntsc>TRUE</ntsc>
													</rate>
													<duration>492</duration>
													<metadata>
														<storage>QuickTime</storage>
														<key>com.apple.quicktime.creationdate</key>
														<size>24</size>
														<type>UTF8</type>
														<value>2013-05-24T12:29:13-0700</value>
													</metadata>
													<metadata>
														<storage>QuickTime</storage>
														<key>com.apple.finalcutstudio.media.history.uuid</key>
														<size>36</size>
														<type>UTF8</type>
														<value>6FD2A76A-98FB-48C0-9A92-8318F7BAE240</value>
													</metadata>
													<metadata>
														<storage>QuickTime</storage>
														<key>com.apple.finalcutstudio.media.uuid</key>
														<size>36</size>
														<type>UTF8</type>
														<value>168C424C-1E0D-44CE-A33B-FB5E5293ADBC</value>
													</metadata>
													<metadata>
														<storage>QuickTime</storage>
														<key>com.apple.proapps.reel</key>
														<size>12</size>
														<type>UTF8</type>
														<value>A01_verified</value>
													</metadata>
													<metadata>
														<storage>QuickTime</storage>
														<key>com.apple.proapps.isGood</key>
														<size>4</size>
														<type>unsigned</type>
														<value>0</value>
													</metadata>
													<metadata>
														<storage>QuickTime</storage>
														<key>com.apple.proapps.clipID</key>
														<size>36</size>
														<type>UTF8</type>
														<value>0D39A29C-3664-0580-0000-8500025A0F55</value>
													</metadata>
													<metadata>
														<storage>QuickTime</storage>
														<key>com.apple.proapps.originalFormat</key>
														<size>14</size>
														<type>UTF8</type>
														<value>Canon XF MPEG2</value>
													</metadata>
													<timecode>
														<rate>
															<timebase>24</timebase>
														</rate>
														<string>12:29:47:08</string>
														<frame>1079696</frame>
														<displayformat>NDF</displayformat>
														<source>source</source>
														<reel>
															<name>A01_verified</name>
														</reel>
													</timecode>
													<media>
														<video>
															<duration>492</duration>
															<samplecharacteristics>
																<width>1920</width>
																<height>1080</height>
															</samplecharacteristics>
														</video>
														<audio>
															<samplecharacteristics>
																<samplerate>48000</samplerate>
																<depth>16</depth>
															</samplecharacteristics>
															<channelcount>1</channelcount>
															<layout>mono</layout>
															<audiochannel>
																<sourcechannel>1</sourcechannel>
																<channellabel>discrete</channellabel>
															</audiochannel>
														</audio>
														<audio>
															<samplecharacteristics>
																<samplerate>48000</samplerate>
																<depth>16</depth>
															</samplecharacteristics>
															<channelcount>1</channelcount>
															<layout>mono</layout>
															<audiochannel>
																<sourcechannel>2</sourcechannel>
																<channellabel>discrete</channellabel>
															</audiochannel>
														</audio>
													</media>
												</file>
												<sourcetrack>
													<mediatype>video</mediatype>
												</sourcetrack>
												<link>
													<linkclipref>AA0034_01 2</linkclipref>
													<mediatype>video</mediatype>
													<trackindex>1</trackindex>
													<clipindex>1</clipindex>
												</link>
												<link>
													<linkclipref>AA0034_01 4</linkclipref>
													<mediatype>audio</mediatype>
													<trackindex>1</trackindex>
													<clipindex>1</clipindex>
												</link>
												<link>
													<linkclipref>AA0034_01 5</linkclipref>
													<mediatype>audio</mediatype>
													<trackindex>2</trackindex>
													<clipindex>1</clipindex>
												</link>
												<fielddominance>none</fielddominance>
												<mediadelay>93404</mediadelay>
												<itemhistory>
													<uuid>72329C22-9B85-4205-8187-E27D7FC4F830</uuid>
												</itemhistory>
											</clipitem>
											<enabled>TRUE</enabled>
											<locked>FALSE</locked>
										</track>
									</video>
									<audio>
										<outputs>
											<group>
												<index>1</index>
												<numchannels>2</numchannels>
												<downmix>0</downmix>
												<channel>
													<index>1</index>
												</channel>
												<channel>
													<index>2</index>
												</channel>
											</group>
										</outputs>
										<in>-1</in>
										<out>-1</out>
										<track>
											<clipitem id="AA0034_01 4">
												<name>AA0034_01</name>
												<duration>578989</duration>
												<rate>
													<ntsc>TRUE</ntsc>
													<timebase>24</timebase>
												</rate>
												<in>0</in>
												<out>578989</out>
												<start>0</start>
												<end>578989</end>
												<subframeoffset>0</subframeoffset>
												<anamorphic>FALSE</anamorphic>
												<masterclipid>AA0034_01 1</masterclipid>
												<syncoffset>0</syncoffset>
												<logginginfo>
													<scene/>
													<shottake/>
													<lognote/>
													<good>FALSE</good>
												</logginginfo>
												<labels>
													<label>Alternate Shots</label>
													<label2/>
												</labels>
												<comments>
													<mastercomment1/>
													<mastercomment2/>
													<mastercomment3/>
													<mastercomment4/>
												</comments>
												<file id="AA0034_01 3"/>
												<filter>
													<effect>
														<name>Audio Levels</name>
														<effectid>audiolevels</effectid>
														<effectcategory>audiolevels</effectcategory>
														<effecttype>audiolevels</effecttype>
														<mediatype>audio</mediatype>
														<parameter>
															<name>Level</name>
															<parameterid>level</parameterid>
															<valuemin>0</valuemin>
															<valuemax>3.98109</valuemax>
															<value>1</value>
														</parameter>
													</effect>
												</filter>
												<filter>
													<effect>
														<name>Audio Pan</name>
														<effectid>audiopan</effectid>
														<effectcategory>audiopan</effectcategory>
														<effecttype>audiopan</effecttype>
														<mediatype>audio</mediatype>
														<parameter>
															<name>Pan</name>
															<parameterid>pan</parameterid>
															<valuemin>-1</valuemin>
															<valuemax>1</valuemax>
															<value>0</value>
														</parameter>
													</effect>
												</filter>
												<sourcetrack>
													<mediatype>audio</mediatype>
													<trackindex>1</trackindex>
												</sourcetrack>
												<link>
													<linkclipref>AA0034_01 2</linkclipref>
													<mediatype>video</mediatype>
													<trackindex>1</trackindex>
													<clipindex>1</clipindex>
												</link>
												<link>
													<linkclipref>AA0034_01 4</linkclipref>
													<mediatype>audio</mediatype>
													<trackindex>1</trackindex>
													<clipindex>1</clipindex>
												</link>
												<link>
													<linkclipref>AA0034_01 5</linkclipref>
													<mediatype>audio</mediatype>
													<trackindex>2</trackindex>
													<clipindex>1</clipindex>
												</link>
												<mediadelay>93404</mediadelay>
												<itemhistory>
													<uuid>A95BDCD4-6788-4F00-B21C-AB093EDEA394</uuid>
												</itemhistory>
											</clipitem>
											<enabled>TRUE</enabled>
											<locked>FALSE</locked>
										</track>
										<track>
											<clipitem id="AA0034_01 5">
												<name>AA0034_01</name>
												<duration>578989</duration>
												<rate>
													<ntsc>TRUE</ntsc>
													<timebase>24</timebase>
												</rate>
												<in>0</in>
												<out>578989</out>
												<start>0</start>
												<end>578989</end>
												<subframeoffset>0</subframeoffset>
												<anamorphic>FALSE</anamorphic>
												<masterclipid>AA0034_01 1</masterclipid>
												<syncoffset>0</syncoffset>
												<logginginfo>
													<scene/>
													<shottake/>
													<lognote/>
													<good>FALSE</good>
												</logginginfo>
												<labels>
													<label>Alternate Shots</label>
													<label2/>
												</labels>
												<comments>
													<mastercomment1/>
													<mastercomment2/>
													<mastercomment3/>
													<mastercomment4/>
												</comments>
												<file id="AA0034_01 3"/>
												<filter>
													<effect>
														<name>Audio Levels</name>
														<effectid>audiolevels</effectid>
														<effectcategory>audiolevels</effectcategory>
														<effecttype>audiolevels</effecttype>
														<mediatype>audio</mediatype>
														<parameter>
															<name>Level</name>
															<parameterid>level</parameterid>
															<valuemin>0</valuemin>
															<valuemax>3.98109</valuemax>
															<value>1</value>
														</parameter>
													</effect>
												</filter>
												<filter>
													<effect>
														<name>Audio Pan</name>
														<effectid>audiopan</effectid>
														<effectcategory>audiopan</effectcategory>
														<effecttype>audiopan</effecttype>
														<mediatype>audio</mediatype>
														<parameter>
															<name>Pan</name>
															<parameterid>pan</parameterid>
															<valuemin>-1</valuemin>
															<valuemax>1</valuemax>
															<value>0</value>
														</parameter>
													</effect>
												</filter>
												<sourcetrack>
													<mediatype>audio</mediatype>
													<trackindex>2</trackindex>
												</sourcetrack>
												<link>
													<linkclipref>AA0034_01 2</linkclipref>
													<mediatype>video</mediatype>
													<trackindex>1</trackindex>
													<clipindex>1</clipindex>
												</link>
												<link>
													<linkclipref>AA0034_01 4</linkclipref>
													<mediatype>audio</mediatype>
													<trackindex>1</trackindex>
													<clipindex>1</clipindex>
												</link>
												<link>
													<linkclipref>AA0034_01 5</linkclipref>
													<mediatype>audio</mediatype>
													<trackindex>2</trackindex>
													<clipindex>1</clipindex>
												</link>
												<mediadelay>93404</mediadelay>
												<itemhistory>
													<uuid>A755D13E-400C-4CB9-9473-7EACDED82E1A</uuid>
												</itemhistory>
											</clipitem>
											<enabled>TRUE</enabled>
											<locked>FALSE</locked>
										</track>
										<filter>
											<effect>
												<name>Audio Levels</name>
												<effectid>audiolevels</effectid>
												<effectcategory>audiolevels</effectcategory>
												<effecttype>audiolevels</effecttype>
												<mediatype>audio</mediatype>
												<parameter>
													<name>Level</name>
													<parameterid>level</parameterid>
													<valuemin>0</valuemin>
													<valuemax>3.98109</valuemax>
													<value>1</value>
												</parameter>
											</effect>
										</filter>
									</audio>
								</media>
							</clip>
						</angle>
						<angle>
							<clip id="AA0035_01 ">
								<uuid>ABF70DB3-C18D-405E-9D9E-BAF8E3061314</uuid>
								<updatebehavior>add</updatebehavior>
								<name>AA0035_01</name>
								<duration>578989</duration>
								<rate>
									<ntsc>TRUE</ntsc>
									<timebase>24</timebase>
								</rate>
								<in>-1</in>
								<out>-1</out>
								<anamorphic>FALSE</anamorphic>
								<masterclipid>AA0035_01 1</masterclipid>
								<ismasterclip>FALSE</ismasterclip>
								<logginginfo>
									<scene/>
									<shottake/>
									<lognote/>
									<good>FALSE</good>
								</logginginfo>
								<labels>
									<label>Alternate Shots</label>
									<label2/>
								</labels>
								<comments>
									<mastercomment1/>
									<mastercomment2/>
									<mastercomment3/>
									<mastercomment4/>
								</comments>
								<media>
									<video>
										<track>
											<clipitem id="AA0035_01 2">
												<name>AA0035_01</name>
												<duration>578989</duration>
												<rate>
													<ntsc>TRUE</ntsc>
													<timebase>24</timebase>
												</rate>
												<in>0</in>
												<out>578989</out>
												<start>0</start>
												<end>578989</end>
												<pixelaspectratio>Square</pixelaspectratio>
												<anamorphic>FALSE</anamorphic>
												<alphatype>none</alphatype>
												<masterclipid>AA0035_01 1</masterclipid>
												<syncoffset>0</syncoffset>
												<logginginfo>
													<scene/>
													<shottake/>
													<lognote/>
													<good>FALSE</good>
												</logginginfo>
												<labels>
													<label>Alternate Shots</label>
													<label2/>
												</labels>
												<comments>
													<mastercomment1/>
													<mastercomment2/>
													<mastercomment3/>
													<mastercomment4/>
												</comments>
												<file id="AA0035_01 3">
													<name>AA0035_01.mov</name>
													<pathurl>file://localhost/Volumes/Share/Edit%20Share/00%20BREW%20DOGS%20S1/BD_00_San_Diego/052413/01_Video/C300/AA0035_01.mov</pathurl>
													<rate>
														<timebase>24</timebase>
														<ntsc>TRUE</ntsc>
													</rate>
													<duration>4056</duration>
													<metadata>
														<storage>QuickTime</storage>
														<key>com.apple.quicktime.creationdate</key>
														<size>24</size>
														<type>UTF8</type>
														<value>2013-05-24T12:29:59-0700</value>
													</metadata>
													<metadata>
														<storage>QuickTime</storage>
														<key>com.apple.finalcutstudio.media.history.uuid</key>
														<size>36</size>
														<type>UTF8</type>
														<value>C40E621C-2874-489A-85B3-48605E36D797</value>
													</metadata>
													<metadata>
														<storage>QuickTime</storage>
														<key>com.apple.finalcutstudio.media.uuid</key>
														<size>36</size>
														<type>UTF8</type>
														<value>973E9C4C-2355-40B7-8094-436C49B43289</value>
													</metadata>
													<metadata>
														<storage>QuickTime</storage>
														<key>com.apple.proapps.reel</key>
														<size>12</size>
														<type>UTF8</type>
														<value>A01_verified</value>
													</metadata>
													<metadata>
														<storage>QuickTime</storage>
														<key>com.apple.proapps.isGood</key>
														<size>4</size>
														<type>unsigned</type>
														<value>0</value>
													</metadata>
													<metadata>
														<storage>QuickTime</storage>
														<key>com.apple.proapps.clipID</key>
														<size>36</size>
														<type>UTF8</type>
														<value>0D39AD64-3664-0580-0000-8500025A0F55</value>
													</metadata>
													<metadata>
														<storage>QuickTime</storage>
														<key>com.apple.proapps.originalFormat</key>
														<size>14</size>
														<type>UTF8</type>
														<value>Canon XF MPEG2</value>
													</metadata>
													<timecode>
														<rate>
															<timebase>24</timebase>
														</rate>
														<string>12:30:32:12</string>
														<frame>1080780</frame>
														<displayformat>NDF</displayformat>
														<source>source</source>
														<reel>
															<name>A01_verified</name>
														</reel>
													</timecode>
													<media>
														<video>
															<duration>4056</duration>
															<samplecharacteristics>
																<width>1920</width>
																<height>1080</height>
															</samplecharacteristics>
														</video>
														<audio>
															<samplecharacteristics>
																<samplerate>48000</samplerate>
																<depth>16</depth>
															</samplecharacteristics>
															<channelcount>1</channelcount>
															<layout>mono</layout>
															<audiochannel>
																<sourcechannel>1</sourcechannel>
																<channellabel>discrete</channellabel>
															</audiochannel>
														</audio>
														<audio>
															<samplecharacteristics>
																<samplerate>48000</samplerate>
																<depth>16</depth>
															</samplecharacteristics>
															<channelcount>1</channelcount>
															<layout>mono</layout>
															<audiochannel>
																<sourcechannel>2</sourcechannel>
																<channellabel>discrete</channellabel>
															</audiochannel>
														</audio>
													</media>
												</file>
												<sourcetrack>
													<mediatype>video</mediatype>
												</sourcetrack>
												<link>
													<linkclipref>AA0035_01 2</linkclipref>
													<mediatype>video</mediatype>
													<trackindex>1</trackindex>
													<clipindex>1</clipindex>
												</link>
												<link>
													<linkclipref>AA0035_01 4</linkclipref>
													<mediatype>audio</mediatype>
													<trackindex>1</trackindex>
													<clipindex>1</clipindex>
												</link>
												<link>
													<linkclipref>AA0035_01 5</linkclipref>
													<mediatype>audio</mediatype>
													<trackindex>2</trackindex>
													<clipindex>1</clipindex>
												</link>
												<fielddominance>none</fielddominance>
												<mediadelay>94488</mediadelay>
												<itemhistory>
													<uuid>BCF76774-4D6A-40D8-9B1C-BD5D1016AABD</uuid>
												</itemhistory>
											</clipitem>
											<enabled>TRUE</enabled>
											<locked>FALSE</locked>
										</track>
									</video>
									<audio>
										<outputs>
											<group>
												<index>1</index>
												<numchannels>2</numchannels>
												<downmix>0</downmix>
												<channel>
													<index>1</index>
												</channel>
												<channel>
													<index>2</index>
												</channel>
											</group>
										</outputs>
										<in>-1</in>
										<out>-1</out>
										<track>
											<clipitem id="AA0035_01 4">
												<name>AA0035_01</name>
												<duration>578989</duration>
												<rate>
													<ntsc>TRUE</ntsc>
													<timebase>24</timebase>
												</rate>
												<in>0</in>
												<out>578989</out>
												<start>0</start>
												<end>578989</end>
												<subframeoffset>0</subframeoffset>
												<anamorphic>FALSE</anamorphic>
												<masterclipid>AA0035_01 1</masterclipid>
												<syncoffset>0</syncoffset>
												<logginginfo>
													<scene/>
													<shottake/>
													<lognote/>
													<good>FALSE</good>
												</logginginfo>
												<labels>
													<label>Alternate Shots</label>
													<label2/>
												</labels>
												<comments>
													<mastercomment1/>
													<mastercomment2/>
													<mastercomment3/>
													<mastercomment4/>
												</comments>
												<file id="AA0035_01 3"/>
												<filter>
													<effect>
														<name>Audio Levels</name>
														<effectid>audiolevels</effectid>
														<effectcategory>audiolevels</effectcategory>
														<effecttype>audiolevels</effecttype>
														<mediatype>audio</mediatype>
														<parameter>
															<name>Level</name>
															<parameterid>level</parameterid>
															<valuemin>0</valuemin>
															<valuemax>3.98109</valuemax>
															<value>1</value>
														</parameter>
													</effect>
												</filter>
												<filter>
													<effect>
														<name>Audio Pan</name>
														<effectid>audiopan</effectid>
														<effectcategory>audiopan</effectcategory>
														<effecttype>audiopan</effecttype>
														<mediatype>audio</mediatype>
														<parameter>
															<name>Pan</name>
															<parameterid>pan</parameterid>
															<valuemin>-1</valuemin>
															<valuemax>1</valuemax>
															<value>0</value>
														</parameter>
													</effect>
												</filter>
												<sourcetrack>
													<mediatype>audio</mediatype>
													<trackindex>1</trackindex>
												</sourcetrack>
												<link>
													<linkclipref>AA0035_01 2</linkclipref>
													<mediatype>video</mediatype>
													<trackindex>1</trackindex>
													<clipindex>1</clipindex>
												</link>
												<link>
													<linkclipref>AA0035_01 4</linkclipref>
													<mediatype>audio</mediatype>
													<trackindex>1</trackindex>
													<clipindex>1</clipindex>
												</link>
												<link>
													<linkclipref>AA0035_01 5</linkclipref>
													<mediatype>audio</mediatype>
													<trackindex>2</trackindex>
													<clipindex>1</clipindex>
												</link>
												<mediadelay>94488</mediadelay>
												<itemhistory>
													<uuid>0BEF3773-97E1-45F8-ADA7-5E3E9FC46240</uuid>
												</itemhistory>
											</clipitem>
											<enabled>TRUE</enabled>
											<locked>FALSE</locked>
										</track>
										<track>
											<clipitem id="AA0035_01 5">
												<name>AA0035_01</name>
												<duration>578989</duration>
												<rate>
													<ntsc>TRUE</ntsc>
													<timebase>24</timebase>
												</rate>
												<in>0</in>
												<out>578989</out>
												<start>0</start>
												<end>578989</end>
												<subframeoffset>0</subframeoffset>
												<anamorphic>FALSE</anamorphic>
												<masterclipid>AA0035_01 1</masterclipid>
												<syncoffset>0</syncoffset>
												<logginginfo>
													<scene/>
													<shottake/>
													<lognote/>
													<good>FALSE</good>
												</logginginfo>
												<labels>
													<label>Alternate Shots</label>
													<label2/>
												</labels>
												<comments>
													<mastercomment1/>
													<mastercomment2/>
													<mastercomment3/>
													<mastercomment4/>
												</comments>
												<file id="AA0035_01 3"/>
												<filter>
													<effect>
														<name>Audio Levels</name>
														<effectid>audiolevels</effectid>
														<effectcategory>audiolevels</effectcategory>
														<effecttype>audiolevels</effecttype>
														<mediatype>audio</mediatype>
														<parameter>
															<name>Level</name>
															<parameterid>level</parameterid>
															<valuemin>0</valuemin>
															<valuemax>3.98109</valuemax>
															<value>1</value>
														</parameter>
													</effect>
												</filter>
												<filter>
													<effect>
														<name>Audio Pan</name>
														<effectid>audiopan</effectid>
														<effectcategory>audiopan</effectcategory>
														<effecttype>audiopan</effecttype>
														<mediatype>audio</mediatype>
														<parameter>
															<name>Pan</name>
															<parameterid>pan</parameterid>
															<valuemin>-1</valuemin>
															<valuemax>1</valuemax>
															<value>0</value>
														</parameter>
													</effect>
												</filter>
												<sourcetrack>
													<mediatype>audio</mediatype>
													<trackindex>2</trackindex>
												</sourcetrack>
												<link>
													<linkclipref>AA0035_01 2</linkclipref>
													<mediatype>video</mediatype>
													<trackindex>1</trackindex>
													<clipindex>1</clipindex>
												</link>
												<link>
													<linkclipref>AA0035_01 4</linkclipref>
													<mediatype>audio</mediatype>
													<trackindex>1</trackindex>
													<clipindex>1</clipindex>
												</link>
												<link>
													<linkclipref>AA0035_01 5</linkclipref>
													<mediatype>audio</mediatype>
													<trackindex>2</trackindex>
													<clipindex>1</clipindex>
												</link>
												<mediadelay>94488</mediadelay>
												<itemhistory>
													<uuid>8AFD5F95-1D6E-4333-A89D-E8F4A2F463CD</uuid>
												</itemhistory>
											</clipitem>
											<enabled>TRUE</enabled>
											<locked>FALSE</locked>
										</track>
										<filter>
											<effect>
												<name>Audio Levels</name>
												<effectid>audiolevels</effectid>
												<effectcategory>audiolevels</effectcategory>
												<effecttype>audiolevels</effecttype>
												<mediatype>audio</mediatype>
												<parameter>
													<name>Level</name>
													<parameterid>level</parameterid>
													<valuemin>0</valuemin>
													<valuemax>3.98109</valuemax>
													<value>1</value>
												</parameter>
											</effect>
										</filter>
									</audio>
								</media>
							</clip>
						</angle>
						<angle>
							<clip id="AA0036_01 ">
								<uuid>EBD9EEB4-65BA-41A2-BA3A-CBCCE5FDCD79</uuid>
								<updatebehavior>add</updatebehavior>
								<name>AA0036_01</name>
								<duration>578989</duration>
								<rate>
									<ntsc>TRUE</ntsc>
									<timebase>24</timebase>
								</rate>
								<in>-1</in>
								<out>-1</out>
								<anamorphic>FALSE</anamorphic>
								<masterclipid>AA0036_01 1</masterclipid>
								<ismasterclip>FALSE</ismasterclip>
								<logginginfo>
									<scene/>
									<shottake/>
									<lognote/>
									<good>FALSE</good>
								</logginginfo>
								<labels>
									<label>Alternate Shots</label>
									<label2/>
								</labels>
								<comments>
									<mastercomment1/>
									<mastercomment2/>
									<mastercomment3/>
									<mastercomment4/>
								</comments>
								<media>
									<video>
										<track>
											<clipitem id="AA0036_01 2">
												<name>AA0036_01</name>
												<duration>578989</duration>
												<rate>
													<ntsc>TRUE</ntsc>
													<timebase>24</timebase>
												</rate>
												<in>0</in>
												<out>578989</out>
												<start>0</start>
												<end>578989</end>
												<pixelaspectratio>Square</pixelaspectratio>
												<anamorphic>FALSE</anamorphic>
												<alphatype>none</alphatype>
												<masterclipid>AA0036_01 1</masterclipid>
												<syncoffset>0</syncoffset>
												<logginginfo>
													<scene/>
													<shottake/>
													<lognote/>
													<good>FALSE</good>
												</logginginfo>
												<labels>
													<label>Alternate Shots</label>
													<label2/>
												</labels>
												<comments>
													<mastercomment1/>
													<mastercomment2/>
													<mastercomment3/>
													<mastercomment4/>
												</comments>
												<file id="AA0036_01 3">
													<name>AA0036_01.mov</name>
													<pathurl>file://localhost/Volumes/Share/Edit%20Share/00%20BREW%20DOGS%20S1/BD_00_San_Diego/052413/01_Video/C300/AA0036_01.mov</pathurl>
													<rate>
														<timebase>24</timebase>
														<ntsc>TRUE</ntsc>
													</rate>
													<duration>2892</duration>
													<metadata>
														<storage>QuickTime</storage>
														<key>com.apple.quicktime.creationdate</key>
														<size>24</size>
														<type>UTF8</type>
														<value>2013-05-24T12:34:03-0700</value>
													</metadata>
													<metadata>
														<storage>QuickTime</storage>
														<key>com.apple.finalcutstudio.media.history.uuid</key>
														<size>36</size>
														<type>UTF8</type>
														<value>2ADC0009-5C8E-493D-9F61-F802F5710697</value>
													</metadata>
													<metadata>
														<storage>QuickTime</storage>
														<key>com.apple.finalcutstudio.media.uuid</key>
														<size>36</size>
														<type>UTF8</type>
														<value>95FC8DA6-43E0-4ADD-B0E4-370C64F5FA3B</value>
													</metadata>
													<metadata>
														<storage>QuickTime</storage>
														<key>com.apple.proapps.reel</key>
														<size>12</size>
														<type>UTF8</type>
														<value>A01_verified</value>
													</metadata>
													<metadata>
														<storage>QuickTime</storage>
														<key>com.apple.proapps.isGood</key>
														<size>4</size>
														<type>unsigned</type>
														<value>0</value>
													</metadata>
													<metadata>
														<storage>QuickTime</storage>
														<key>com.apple.proapps.clipID</key>
														<size>36</size>
														<type>UTF8</type>
														<value>0D39E694-3664-0580-0000-8500025A0F55</value>
													</metadata>
													<metadata>
														<storage>QuickTime</storage>
														<key>com.apple.proapps.originalFormat</key>
														<size>14</size>
														<type>UTF8</type>
														<value>Canon XF MPEG2</value>
													</metadata>
													<timecode>
														<rate>
															<timebase>24</timebase>
														</rate>
														<string>12:34:36:16</string>
														<frame>1086640</frame>
														<displayformat>NDF</displayformat>
														<source>source</source>
														<reel>
															<name>A01_verified</name>
														</reel>
													</timecode>
													<media>
														<video>
															<duration>2892</duration>
															<samplecharacteristics>
																<width>1920</width>
																<height>1080</height>
															</samplecharacteristics>
														</video>
														<audio>
															<samplecharacteristics>
																<samplerate>48000</samplerate>
																<depth>16</depth>
															</samplecharacteristics>
															<channelcount>1</channelcount>
															<layout>mono</layout>
															<audiochannel>
																<sourcechannel>1</sourcechannel>
																<channellabel>discrete</channellabel>
															</audiochannel>
														</audio>
														<audio>
															<samplecharacteristics>
																<samplerate>48000</samplerate>
																<depth>16</depth>
															</samplecharacteristics>
															<channelcount>1</channelcount>
															<layout>mono</layout>
															<audiochannel>
																<sourcechannel>2</sourcechannel>
																<channellabel>discrete</channellabel>
															</audiochannel>
														</audio>
													</media>
												</file>
												<sourcetrack>
													<mediatype>video</mediatype>
												</sourcetrack>
												<link>
													<linkclipref>AA0036_01 2</linkclipref>
													<mediatype>video</mediatype>
													<trackindex>1</trackindex>
													<clipindex>1</clipindex>
												</link>
												<link>
													<linkclipref>AA0036_01 4</linkclipref>
													<mediatype>audio</mediatype>
													<trackindex>1</trackindex>
													<clipindex>1</clipindex>
												</link>
												<link>
													<linkclipref>AA0036_01 5</linkclipref>
													<mediatype>audio</mediatype>
													<trackindex>2</trackindex>
													<clipindex>1</clipindex>
												</link>
												<fielddominance>none</fielddominance>
												<mediadelay>100348</mediadelay>
												<itemhistory>
													<uuid>4A8BD7AD-EAF1-4FD5-8F9F-8E8803A8405A</uuid>
												</itemhistory>
											</clipitem>
											<enabled>TRUE</enabled>
											<locked>FALSE</locked>
										</track>
									</video>
									<audio>
										<outputs>
											<group>
												<index>1</index>
												<numchannels>2</numchannels>
												<downmix>0</downmix>
												<channel>
													<index>1</index>
												</channel>
												<channel>
													<index>2</index>
												</channel>
											</group>
										</outputs>
										<in>-1</in>
										<out>-1</out>
										<track>
											<clipitem id="AA0036_01 4">
												<name>AA0036_01</name>
												<duration>578989</duration>
												<rate>
													<ntsc>TRUE</ntsc>
													<timebase>24</timebase>
												</rate>
												<in>0</in>
												<out>578989</out>
												<start>0</start>
												<end>578989</end>
												<subframeoffset>0</subframeoffset>
												<anamorphic>FALSE</anamorphic>
												<masterclipid>AA0036_01 1</masterclipid>
												<syncoffset>0</syncoffset>
												<logginginfo>
													<scene/>
													<shottake/>
													<lognote/>
													<good>FALSE</good>
												</logginginfo>
												<labels>
													<label>Alternate Shots</label>
													<label2/>
												</labels>
												<comments>
													<mastercomment1/>
													<mastercomment2/>
													<mastercomment3/>
													<mastercomment4/>
												</comments>
												<file id="AA0036_01 3"/>
												<filter>
													<effect>
														<name>Audio Levels</name>
														<effectid>audiolevels</effectid>
														<effectcategory>audiolevels</effectcategory>
														<effecttype>audiolevels</effecttype>
														<mediatype>audio</mediatype>
														<parameter>
															<name>Level</name>
															<parameterid>level</parameterid>
															<valuemin>0</valuemin>
															<valuemax>3.98109</valuemax>
															<value>1</value>
														</parameter>
													</effect>
												</filter>
												<filter>
													<effect>
														<name>Audio Pan</name>
														<effectid>audiopan</effectid>
														<effectcategory>audiopan</effectcategory>
														<effecttype>audiopan</effecttype>
														<mediatype>audio</mediatype>
														<parameter>
															<name>Pan</name>
															<parameterid>pan</parameterid>
															<valuemin>-1</valuemin>
															<valuemax>1</valuemax>
															<value>0</value>
														</parameter>
													</effect>
												</filter>
												<sourcetrack>
													<mediatype>audio</mediatype>
													<trackindex>1</trackindex>
												</sourcetrack>
												<link>
													<linkclipref>AA0036_01 2</linkclipref>
													<mediatype>video</mediatype>
													<trackindex>1</trackindex>
													<clipindex>1</clipindex>
												</link>
												<link>
													<linkclipref>AA0036_01 4</linkclipref>
													<mediatype>audio</mediatype>
													<trackindex>1</trackindex>
													<clipindex>1</clipindex>
												</link>
												<link>
													<linkclipref>AA0036_01 5</linkclipref>
													<mediatype>audio</mediatype>
													<trackindex>2</trackindex>
													<clipindex>1</clipindex>
												</link>
												<mediadelay>100348</mediadelay>
												<itemhistory>
													<uuid>F3CC2340-973C-4D4D-B37C-B70A00042DF5</uuid>
												</itemhistory>
											</clipitem>
											<enabled>TRUE</enabled>
											<locked>FALSE</locked>
										</track>
										<track>
											<clipitem id="AA0036_01 5">
												<name>AA0036_01</name>
												<duration>578989</duration>
												<rate>
													<ntsc>TRUE</ntsc>
													<timebase>24</timebase>
												</rate>
												<in>0</in>
												<out>578989</out>
												<start>0</start>
												<end>578989</end>
												<subframeoffset>0</subframeoffset>
												<anamorphic>FALSE</anamorphic>
												<masterclipid>AA0036_01 1</masterclipid>
												<syncoffset>0</syncoffset>
												<logginginfo>
													<scene/>
													<shottake/>
													<lognote/>
													<good>FALSE</good>
												</logginginfo>
												<labels>
													<label>Alternate Shots</label>
													<label2/>
												</labels>
												<comments>
													<mastercomment1/>
													<mastercomment2/>
													<mastercomment3/>
													<mastercomment4/>
												</comments>
												<file id="AA0036_01 3"/>
												<filter>
													<effect>
														<name>Audio Levels</name>
														<effectid>audiolevels</effectid>
														<effectcategory>audiolevels</effectcategory>
														<effecttype>audiolevels</effecttype>
														<mediatype>audio</mediatype>
														<parameter>
															<name>Level</name>
															<parameterid>level</parameterid>
															<valuemin>0</valuemin>
															<valuemax>3.98109</valuemax>
															<value>1</value>
														</parameter>
													</effect>
												</filter>
												<filter>
													<effect>
														<name>Audio Pan</name>
														<effectid>audiopan</effectid>
														<effectcategory>audiopan</effectcategory>
														<effecttype>audiopan</effecttype>
														<mediatype>audio</mediatype>
														<parameter>
															<name>Pan</name>
															<parameterid>pan</parameterid>
															<valuemin>-1</valuemin>
															<valuemax>1</valuemax>
															<value>0</value>
														</parameter>
													</effect>
												</filter>
												<sourcetrack>
													<mediatype>audio</mediatype>
													<trackindex>2</trackindex>
												</sourcetrack>
												<link>
													<linkclipref>AA0036_01 2</linkclipref>
													<mediatype>video</mediatype>
													<trackindex>1</trackindex>
													<clipindex>1</clipindex>
												</link>
												<link>
													<linkclipref>AA0036_01 4</linkclipref>
													<mediatype>audio</mediatype>
													<trackindex>1</trackindex>
													<clipindex>1</clipindex>
												</link>
												<link>
													<linkclipref>AA0036_01 5</linkclipref>
													<mediatype>audio</mediatype>
													<trackindex>2</trackindex>
													<clipindex>1</clipindex>
												</link>
												<mediadelay>100348</mediadelay>
												<itemhistory>
													<uuid>559B63E5-C83F-4F8E-A35E-6D075E329DA6</uuid>
												</itemhistory>
											</clipitem>
											<enabled>TRUE</enabled>
											<locked>FALSE</locked>
										</track>
										<filter>
											<effect>
												<name>Audio Levels</name>
												<effectid>audiolevels</effectid>
												<effectcategory>audiolevels</effectcategory>
												<effecttype>audiolevels</effecttype>
												<mediatype>audio</mediatype>
												<parameter>
													<name>Level</name>
													<parameterid>level</parameterid>
													<valuemin>0</valuemin>
													<valuemax>3.98109</valuemax>
													<value>1</value>
												</parameter>
											</effect>
										</filter>
									</audio>
								</media>
							</clip>
						</angle>
						<angle>
							<clip id="AA0037_01 ">
								<uuid>5018C0B1-C65F-446C-8DC0-78ECF984663F</uuid>
								<updatebehavior>add</updatebehavior>
								<name>AA0037_01</name>
								<duration>578989</duration>
								<rate>
									<ntsc>TRUE</ntsc>
									<timebase>24</timebase>
								</rate>
								<in>-1</in>
								<out>-1</out>
								<anamorphic>FALSE</anamorphic>
								<masterclipid>AA0037_01 1</masterclipid>
								<ismasterclip>FALSE</ismasterclip>
								<logginginfo>
									<scene/>
									<shottake/>
									<lognote/>
									<good>FALSE</good>
								</logginginfo>
								<labels>
									<label>Alternate Shots</label>
									<label2/>
								</labels>
								<comments>
									<mastercomment1/>
									<mastercomment2/>
									<mastercomment3/>
									<mastercomment4/>
								</comments>
								<media>
									<video>
										<track>
											<clipitem id="AA0037_01 2">
												<name>AA0037_01</name>
												<duration>578989</duration>
												<rate>
													<ntsc>TRUE</ntsc>
													<timebase>24</timebase>
												</rate>
												<in>0</in>
												<out>578989</out>
												<start>0</start>
												<end>578989</end>
												<pixelaspectratio>Square</pixelaspectratio>
												<anamorphic>FALSE</anamorphic>
												<alphatype>none</alphatype>
												<masterclipid>AA0037_01 1</masterclipid>
												<syncoffset>0</syncoffset>
												<logginginfo>
													<scene/>
													<shottake/>
													<lognote/>
													<good>FALSE</good>
												</logginginfo>
												<labels>
													<label>Alternate Shots</label>
													<label2/>
												</labels>
												<comments>
													<mastercomment1/>
													<mastercomment2/>
													<mastercomment3/>
													<mastercomment4/>
												</comments>
												<file id="AA0037_01 3">
													<name>AA0037_01.mov</name>
													<pathurl>file://localhost/Volumes/Share/Edit%20Share/00%20BREW%20DOGS%20S1/BD_00_San_Diego/052413/01_Video/C300/AA0037_01.mov</pathurl>
													<rate>
														<timebase>24</timebase>
														<ntsc>TRUE</ntsc>
													</rate>
													<duration>10692</duration>
													<metadata>
														<storage>QuickTime</storage>
														<key>com.apple.quicktime.creationdate</key>
														<size>24</size>
														<type>UTF8</type>
														<value>2013-05-24T12:37:02-0700</value>
													</metadata>
													<metadata>
														<storage>QuickTime</storage>
														<key>com.apple.finalcutstudio.media.history.uuid</key>
														<size>36</size>
														<type>UTF8</type>
														<value>67B022AC-FCFA-4279-8519-8C81CFD29639</value>
													</metadata>
													<metadata>
														<storage>QuickTime</storage>
														<key>com.apple.finalcutstudio.media.uuid</key>
														<size>36</size>
														<type>UTF8</type>
														<value>D045503C-E8C6-4793-8698-6E61FBA41A89</value>
													</metadata>
													<metadata>
														<storage>QuickTime</storage>
														<key>com.apple.proapps.reel</key>
														<size>12</size>
														<type>UTF8</type>
														<value>A01_verified</value>
													</metadata>
													<metadata>
														<storage>QuickTime</storage>
														<key>com.apple.proapps.isGood</key>
														<size>4</size>
														<type>unsigned</type>
														<value>0</value>
													</metadata>
													<metadata>
														<storage>QuickTime</storage>
														<key>com.apple.proapps.clipID</key>
														<size>36</size>
														<type>UTF8</type>
														<value>0D3A1088-3664-0580-0000-8500025A0F55</value>
													</metadata>
													<metadata>
														<storage>QuickTime</storage>
														<key>com.apple.proapps.originalFormat</key>
														<size>14</size>
														<type>UTF8</type>
														<value>Canon XF MPEG2</value>
													</metadata>
													<timecode>
														<rate>
															<timebase>24</timebase>
														</rate>
														<string>12:37:35:12</string>
														<frame>1090932</frame>
														<displayformat>NDF</displayformat>
														<source>source</source>
														<reel>
															<name>A01_verified</name>
														</reel>
													</timecode>
													<media>
														<video>
															<duration>10692</duration>
															<samplecharacteristics>
																<width>1920</width>
																<height>1080</height>
															</samplecharacteristics>
														</video>
														<audio>
															<samplecharacteristics>
																<samplerate>48000</samplerate>
																<depth>16</depth>
															</samplecharacteristics>
															<channelcount>1</channelcount>
															<layout>mono</layout>
															<audiochannel>
																<sourcechannel>1</sourcechannel>
																<channellabel>discrete</channellabel>
															</audiochannel>
														</audio>
														<audio>
															<samplecharacteristics>
																<samplerate>48000</samplerate>
																<depth>16</depth>
															</samplecharacteristics>
															<channelcount>1</channelcount>
															<layout>mono</layout>
															<audiochannel>
																<sourcechannel>2</sourcechannel>
																<channellabel>discrete</channellabel>
															</audiochannel>
														</audio>
													</media>
												</file>
												<sourcetrack>
													<mediatype>video</mediatype>
												</sourcetrack>
												<link>
													<linkclipref>AA0037_01 2</linkclipref>
													<mediatype>video</mediatype>
													<trackindex>1</trackindex>
													<clipindex>1</clipindex>
												</link>
												<link>
													<linkclipref>AA0037_01 4</linkclipref>
													<mediatype>audio</mediatype>
													<trackindex>1</trackindex>
													<clipindex>1</clipindex>
												</link>
												<link>
													<linkclipref>AA0037_01 5</linkclipref>
													<mediatype>audio</mediatype>
													<trackindex>2</trackindex>
													<clipindex>1</clipindex>
												</link>
												<fielddominance>none</fielddominance>
												<mediadelay>104640</mediadelay>
												<itemhistory>
													<uuid>1AC35E08-F85A-4255-8A43-6E5B54E0D322</uuid>
												</itemhistory>
											</clipitem>
											<enabled>TRUE</enabled>
											<locked>FALSE</locked>
										</track>
									</video>
									<audio>
										<outputs>
											<group>
												<index>1</index>
												<numchannels>2</numchannels>
												<downmix>0</downmix>
												<channel>
													<index>1</index>
												</channel>
												<channel>
													<index>2</index>
												</channel>
											</group>
										</outputs>
										<in>-1</in>
										<out>-1</out>
										<track>
											<clipitem id="AA0037_01 4">
												<name>AA0037_01</name>
												<duration>578989</duration>
												<rate>
													<ntsc>TRUE</ntsc>
													<timebase>24</timebase>
												</rate>
												<in>0</in>
												<out>578989</out>
												<start>0</start>
												<end>578989</end>
												<subframeoffset>0</subframeoffset>
												<anamorphic>FALSE</anamorphic>
												<masterclipid>AA0037_01 1</masterclipid>
												<syncoffset>0</syncoffset>
												<logginginfo>
													<scene/>
													<shottake/>
													<lognote/>
													<good>FALSE</good>
												</logginginfo>
												<labels>
													<label>Alternate Shots</label>
													<label2/>
												</labels>
												<comments>
													<mastercomment1/>
													<mastercomment2/>
													<mastercomment3/>
													<mastercomment4/>
												</comments>
												<file id="AA0037_01 3"/>
												<filter>
													<effect>
														<name>Audio Levels</name>
														<effectid>audiolevels</effectid>
														<effectcategory>audiolevels</effectcategory>
														<effecttype>audiolevels</effecttype>
														<mediatype>audio</mediatype>
														<parameter>
															<name>Level</name>
															<parameterid>level</parameterid>
															<valuemin>0</valuemin>
															<valuemax>3.98109</valuemax>
															<value>1</value>
														</parameter>
													</effect>
												</filter>
												<filter>
													<effect>
														<name>Audio Pan</name>
														<effectid>audiopan</effectid>
														<effectcategory>audiopan</effectcategory>
														<effecttype>audiopan</effecttype>
														<mediatype>audio</mediatype>
														<parameter>
															<name>Pan</name>
															<parameterid>pan</parameterid>
															<valuemin>-1</valuemin>
															<valuemax>1</valuemax>
															<value>0</value>
														</parameter>
													</effect>
												</filter>
												<sourcetrack>
													<mediatype>audio</mediatype>
													<trackindex>1</trackindex>
												</sourcetrack>
												<link>
													<linkclipref>AA0037_01 2</linkclipref>
													<mediatype>video</mediatype>
													<trackindex>1</trackindex>
													<clipindex>1</clipindex>
												</link>
												<link>
													<linkclipref>AA0037_01 4</linkclipref>
													<mediatype>audio</mediatype>
													<trackindex>1</trackindex>
													<clipindex>1</clipindex>
												</link>
												<link>
													<linkclipref>AA0037_01 5</linkclipref>
													<mediatype>audio</mediatype>
													<trackindex>2</trackindex>
													<clipindex>1</clipindex>
												</link>
												<mediadelay>104640</mediadelay>
												<itemhistory>
													<uuid>0D1D200A-4F63-4A34-9EC8-918F30B6784E</uuid>
												</itemhistory>
											</clipitem>
											<enabled>TRUE</enabled>
											<locked>FALSE</locked>
										</track>
										<track>
											<clipitem id="AA0037_01 5">
												<name>AA0037_01</name>
												<duration>578989</duration>
												<rate>
													<ntsc>TRUE</ntsc>
													<timebase>24</timebase>
												</rate>
												<in>0</in>
												<out>578989</out>
												<start>0</start>
												<end>578989</end>
												<subframeoffset>0</subframeoffset>
												<anamorphic>FALSE</anamorphic>
												<masterclipid>AA0037_01 1</masterclipid>
												<syncoffset>0</syncoffset>
												<logginginfo>
													<scene/>
													<shottake/>
													<lognote/>
													<good>FALSE</good>
												</logginginfo>
												<labels>
													<label>Alternate Shots</label>
													<label2/>
												</labels>
												<comments>
													<mastercomment1/>
													<mastercomment2/>
													<mastercomment3/>
													<mastercomment4/>
												</comments>
												<file id="AA0037_01 3"/>
												<filter>
													<effect>
														<name>Audio Levels</name>
														<effectid>audiolevels</effectid>
														<effectcategory>audiolevels</effectcategory>
														<effecttype>audiolevels</effecttype>
														<mediatype>audio</mediatype>
														<parameter>
															<name>Level</name>
															<parameterid>level</parameterid>
															<valuemin>0</valuemin>
															<valuemax>3.98109</valuemax>
															<value>1</value>
														</parameter>
													</effect>
												</filter>
												<filter>
													<effect>
														<name>Audio Pan</name>
														<effectid>audiopan</effectid>
														<effectcategory>audiopan</effectcategory>
														<effecttype>audiopan</effecttype>
														<mediatype>audio</mediatype>
														<parameter>
															<name>Pan</name>
															<parameterid>pan</parameterid>
															<valuemin>-1</valuemin>
															<valuemax>1</valuemax>
															<value>0</value>
														</parameter>
													</effect>
												</filter>
												<sourcetrack>
													<mediatype>audio</mediatype>
													<trackindex>2</trackindex>
												</sourcetrack>
												<link>
													<linkclipref>AA0037_01 2</linkclipref>
													<mediatype>video</mediatype>
													<trackindex>1</trackindex>
													<clipindex>1</clipindex>
												</link>
												<link>
													<linkclipref>AA0037_01 4</linkclipref>
													<mediatype>audio</mediatype>
													<trackindex>1</trackindex>
													<clipindex>1</clipindex>
												</link>
												<link>
													<linkclipref>AA0037_01 5</linkclipref>
													<mediatype>audio</mediatype>
													<trackindex>2</trackindex>
													<clipindex>1</clipindex>
												</link>
												<mediadelay>104640</mediadelay>
												<itemhistory>
													<uuid>2CA3ECE1-C190-4DC5-8AD0-DA388C6D3877</uuid>
												</itemhistory>
											</clipitem>
											<enabled>TRUE</enabled>
											<locked>FALSE</locked>
										</track>
										<filter>
											<effect>
												<name>Audio Levels</name>
												<effectid>audiolevels</effectid>
												<effectcategory>audiolevels</effectcategory>
												<effecttype>audiolevels</effecttype>
												<mediatype>audio</mediatype>
												<parameter>
													<name>Level</name>
													<parameterid>level</parameterid>
													<valuemin>0</valuemin>
													<valuemax>3.98109</valuemax>
													<value>1</value>
												</parameter>
											</effect>
										</filter>
									</audio>
								</media>
							</clip>
						</angle>
						<angle>
							<clip id="AA0039_01 ">
								<uuid>BBAEF80F-2B6F-4DF8-A21B-2C0961DBE96A</uuid>
								<updatebehavior>add</updatebehavior>
								<name>AA0039_01</name>
								<duration>578989</duration>
								<rate>
									<ntsc>TRUE</ntsc>
									<timebase>24</timebase>
								</rate>
								<in>-1</in>
								<out>-1</out>
								<anamorphic>FALSE</anamorphic>
								<masterclipid>AA0039_01 1</masterclipid>
								<ismasterclip>FALSE</ismasterclip>
								<logginginfo>
									<scene/>
									<shottake/>
									<lognote/>
									<good>FALSE</good>
								</logginginfo>
								<labels>
									<label>Alternate Shots</label>
									<label2/>
								</labels>
								<comments>
									<mastercomment1/>
									<mastercomment2/>
									<mastercomment3/>
									<mastercomment4/>
								</comments>
								<media>
									<video>
										<track>
											<clipitem id="AA0039_01 2">
												<name>AA0039_01</name>
												<duration>578989</duration>
												<rate>
													<ntsc>TRUE</ntsc>
													<timebase>24</timebase>
												</rate>
												<in>0</in>
												<out>578989</out>
												<start>0</start>
												<end>578989</end>
												<pixelaspectratio>Square</pixelaspectratio>
												<anamorphic>FALSE</anamorphic>
												<alphatype>none</alphatype>
												<masterclipid>AA0039_01 1</masterclipid>
												<syncoffset>0</syncoffset>
												<logginginfo>
													<scene/>
													<shottake/>
													<lognote/>
													<good>FALSE</good>
												</logginginfo>
												<labels>
													<label>Alternate Shots</label>
													<label2/>
												</labels>
												<comments>
													<mastercomment1/>
													<mastercomment2/>
													<mastercomment3/>
													<mastercomment4/>
												</comments>
												<file id="AA0039_01 3">
													<name>AA0039_01.mov</name>
													<pathurl>file://localhost/Volumes/Share/Edit%20Share/00%20BREW%20DOGS%20S1/BD_00_San_Diego/052413/01_Video/C300/AA0039_01.mov</pathurl>
													<rate>
														<timebase>24</timebase>
														<ntsc>TRUE</ntsc>
													</rate>
													<duration>15672</duration>
													<metadata>
														<storage>QuickTime</storage>
														<key>com.apple.quicktime.creationdate</key>
														<size>24</size>
														<type>UTF8</type>
														<value>2013-05-24T12:49:37-0700</value>
													</metadata>
													<metadata>
														<storage>QuickTime</storage>
														<key>com.apple.finalcutstudio.media.history.uuid</key>
														<size>36</size>
														<type>UTF8</type>
														<value>1FF7C958-0BB0-44B6-B2DA-2104A0A8B095</value>
													</metadata>
													<metadata>
														<storage>QuickTime</storage>
														<key>com.apple.finalcutstudio.media.uuid</key>
														<size>36</size>
														<type>UTF8</type>
														<value>CC70796D-50EF-4869-962D-5D2530C9E0D5</value>
													</metadata>
													<metadata>
														<storage>QuickTime</storage>
														<key>com.apple.proapps.reel</key>
														<size>12</size>
														<type>UTF8</type>
														<value>A02_verified</value>
													</metadata>
													<metadata>
														<storage>QuickTime</storage>
														<key>com.apple.proapps.isGood</key>
														<size>4</size>
														<type>unsigned</type>
														<value>0</value>
													</metadata>
													<metadata>
														<storage>QuickTime</storage>
														<key>com.apple.proapps.clipID</key>
														<size>36</size>
														<type>UTF8</type>
														<value>0D3AC17C-3664-0580-0000-8500025A0F55</value>
													</metadata>
													<metadata>
														<storage>QuickTime</storage>
														<key>com.apple.proapps.originalFormat</key>
														<size>14</size>
														<type>UTF8</type>
														<value>Canon XF MPEG2</value>
													</metadata>
													<timecode>
														<rate>
															<timebase>24</timebase>
														</rate>
														<string>12:50:10:08</string>
														<frame>1109048</frame>
														<displayformat>NDF</displayformat>
														<source>source</source>
														<reel>
															<name>A02_verified</name>
														</reel>
													</timecode>
													<media>
														<video>
															<duration>15672</duration>
															<samplecharacteristics>
																<width>1920</width>
																<height>1080</height>
															</samplecharacteristics>
														</video>
														<audio>
															<samplecharacteristics>
																<samplerate>48000</samplerate>
																<depth>16</depth>
															</samplecharacteristics>
															<channelcount>1</channelcount>
															<layout>mono</layout>
															<audiochannel>
																<sourcechannel>1</sourcechannel>
																<channellabel>discrete</channellabel>
															</audiochannel>
														</audio>
														<audio>
															<samplecharacteristics>
																<samplerate>48000</samplerate>
																<depth>16</depth>
															</samplecharacteristics>
															<channelcount>1</channelcount>
															<layout>mono</layout>
															<audiochannel>
																<sourcechannel>2</sourcechannel>
																<channellabel>discrete</channellabel>
															</audiochannel>
														</audio>
													</media>
												</file>
												<sourcetrack>
													<mediatype>video</mediatype>
												</sourcetrack>
												<link>
													<linkclipref>AA0039_01 2</linkclipref>
													<mediatype>video</mediatype>
													<trackindex>1</trackindex>
													<clipindex>1</clipindex>
												</link>
												<link>
													<linkclipref>AA0039_01 4</linkclipref>
													<mediatype>audio</mediatype>
													<trackindex>1</trackindex>
													<clipindex>1</clipindex>
												</link>
												<link>
													<linkclipref>AA0039_01 5</linkclipref>
													<mediatype>audio</mediatype>
													<trackindex>2</trackindex>
													<clipindex>1</clipindex>
												</link>
												<fielddominance>none</fielddominance>
												<mediadelay>122756</mediadelay>
												<itemhistory>
													<uuid>B472F4AF-470C-495F-B3DA-82B4CECD10BD</uuid>
												</itemhistory>
											</clipitem>
											<enabled>TRUE</enabled>
											<locked>FALSE</locked>
										</track>
									</video>
									<audio>
										<outputs>
											<group>
												<index>1</index>
												<numchannels>2</numchannels>
												<downmix>0</downmix>
												<channel>
													<index>1</index>
												</channel>
												<channel>
													<index>2</index>
												</channel>
											</group>
										</outputs>
										<in>-1</in>
										<out>-1</out>
										<track>
											<clipitem id="AA0039_01 4">
												<name>AA0039_01</name>
												<duration>578989</duration>
												<rate>
													<ntsc>TRUE</ntsc>
													<timebase>24</timebase>
												</rate>
												<in>0</in>
												<out>578989</out>
												<start>0</start>
												<end>578989</end>
												<subframeoffset>0</subframeoffset>
												<anamorphic>FALSE</anamorphic>
												<masterclipid>AA0039_01 1</masterclipid>
												<syncoffset>0</syncoffset>
												<logginginfo>
													<scene/>
													<shottake/>
													<lognote/>
													<good>FALSE</good>
												</logginginfo>
												<labels>
													<label>Alternate Shots</label>
													<label2/>
												</labels>
												<comments>
													<mastercomment1/>
													<mastercomment2/>
													<mastercomment3/>
													<mastercomment4/>
												</comments>
												<file id="AA0039_01 3"/>
												<filter>
													<effect>
														<name>Audio Levels</name>
														<effectid>audiolevels</effectid>
														<effectcategory>audiolevels</effectcategory>
														<effecttype>audiolevels</effecttype>
														<mediatype>audio</mediatype>
														<parameter>
															<name>Level</name>
															<parameterid>level</parameterid>
															<valuemin>0</valuemin>
															<valuemax>3.98109</valuemax>
															<value>1</value>
														</parameter>
													</effect>
												</filter>
												<filter>
													<effect>
														<name>Audio Pan</name>
														<effectid>audiopan</effectid>
														<effectcategory>audiopan</effectcategory>
														<effecttype>audiopan</effecttype>
														<mediatype>audio</mediatype>
														<parameter>
															<name>Pan</name>
															<parameterid>pan</parameterid>
															<valuemin>-1</valuemin>
															<valuemax>1</valuemax>
															<value>0</value>
														</parameter>
													</effect>
												</filter>
												<sourcetrack>
													<mediatype>audio</mediatype>
													<trackindex>1</trackindex>
												</sourcetrack>
												<link>
													<linkclipref>AA0039_01 2</linkclipref>
													<mediatype>video</mediatype>
													<trackindex>1</trackindex>
													<clipindex>1</clipindex>
												</link>
												<link>
													<linkclipref>AA0039_01 4</linkclipref>
													<mediatype>audio</mediatype>
													<trackindex>1</trackindex>
													<clipindex>1</clipindex>
												</link>
												<link>
													<linkclipref>AA0039_01 5</linkclipref>
													<mediatype>audio</mediatype>
													<trackindex>2</trackindex>
													<clipindex>1</clipindex>
												</link>
												<mediadelay>122756</mediadelay>
												<itemhistory>
													<uuid>81B7651B-2578-4CCB-9CA9-8BAE12E8A0DE</uuid>
												</itemhistory>
											</clipitem>
											<enabled>TRUE</enabled>
											<locked>FALSE</locked>
										</track>
										<track>
											<clipitem id="AA0039_01 5">
												<name>AA0039_01</name>
												<duration>578989</duration>
												<rate>
													<ntsc>TRUE</ntsc>
													<timebase>24</timebase>
												</rate>
												<in>0</in>
												<out>578989</out>
												<start>0</start>
												<end>578989</end>
												<subframeoffset>0</subframeoffset>
												<anamorphic>FALSE</anamorphic>
												<masterclipid>AA0039_01 1</masterclipid>
												<syncoffset>0</syncoffset>
												<logginginfo>
													<scene/>
													<shottake/>
													<lognote/>
													<good>FALSE</good>
												</logginginfo>
												<labels>
													<label>Alternate Shots</label>
													<label2/>
												</labels>
												<comments>
													<mastercomment1/>
													<mastercomment2/>
													<mastercomment3/>
													<mastercomment4/>
												</comments>
												<file id="AA0039_01 3"/>
												<filter>
													<effect>
														<name>Audio Levels</name>
														<effectid>audiolevels</effectid>
														<effectcategory>audiolevels</effectcategory>
														<effecttype>audiolevels</effecttype>
														<mediatype>audio</mediatype>
														<parameter>
															<name>Level</name>
															<parameterid>level</parameterid>
															<valuemin>0</valuemin>
															<valuemax>3.98109</valuemax>
															<value>1</value>
														</parameter>
													</effect>
												</filter>
												<filter>
													<effect>
														<name>Audio Pan</name>
														<effectid>audiopan</effectid>
														<effectcategory>audiopan</effectcategory>
														<effecttype>audiopan</effecttype>
														<mediatype>audio</mediatype>
														<parameter>
															<name>Pan</name>
															<parameterid>pan</parameterid>
															<valuemin>-1</valuemin>
															<valuemax>1</valuemax>
															<value>0</value>
														</parameter>
													</effect>
												</filter>
												<sourcetrack>
													<mediatype>audio</mediatype>
													<trackindex>2</trackindex>
												</sourcetrack>
												<link>
													<linkclipref>AA0039_01 2</linkclipref>
													<mediatype>video</mediatype>
													<trackindex>1</trackindex>
													<clipindex>1</clipindex>
												</link>
												<link>
													<linkclipref>AA0039_01 4</linkclipref>
													<mediatype>audio</mediatype>
													<trackindex>1</trackindex>
													<clipindex>1</clipindex>
												</link>
												<link>
													<linkclipref>AA0039_01 5</linkclipref>
													<mediatype>audio</mediatype>
													<trackindex>2</trackindex>
													<clipindex>1</clipindex>
												</link>
												<mediadelay>122756</mediadelay>
												<itemhistory>
													<uuid>CD132EAA-2576-4B5E-86F9-B754AFBC1150</uuid>
												</itemhistory>
											</clipitem>
											<enabled>TRUE</enabled>
											<locked>FALSE</locked>
										</track>
										<filter>
											<effect>
												<name>Audio Levels</name>
												<effectid>audiolevels</effectid>
												<effectcategory>audiolevels</effectcategory>
												<effecttype>audiolevels</effecttype>
												<mediatype>audio</mediatype>
												<parameter>
													<name>Level</name>
													<parameterid>level</parameterid>
													<valuemin>0</valuemin>
													<valuemax>3.98109</valuemax>
													<value>1</value>
												</parameter>
											</effect>
										</filter>
									</audio>
								</media>
							</clip>
						</angle>
						<angle>
							<clip id="AA0041_01 ">
								<uuid>42FAF3B6-4ADC-49BB-8C38-46E2AB0D4131</uuid>
								<updatebehavior>add</updatebehavior>
								<name>AA0041_01</name>
								<duration>578989</duration>
								<rate>
									<ntsc>TRUE</ntsc>
									<timebase>24</timebase>
								</rate>
								<in>-1</in>
								<out>-1</out>
								<anamorphic>FALSE</anamorphic>
								<masterclipid>AA0041_01 1</masterclipid>
								<ismasterclip>FALSE</ismasterclip>
								<logginginfo>
									<scene/>
									<shottake/>
									<lognote/>
									<good>FALSE</good>
								</logginginfo>
								<labels>
									<label>Alternate Shots</label>
									<label2/>
								</labels>
								<comments>
									<mastercomment1/>
									<mastercomment2/>
									<mastercomment3/>
									<mastercomment4/>
								</comments>
								<media>
									<video>
										<track>
											<clipitem id="AA0041_01 2">
												<name>AA0041_01</name>
												<duration>578989</duration>
												<rate>
													<ntsc>TRUE</ntsc>
													<timebase>24</timebase>
												</rate>
												<in>0</in>
												<out>578989</out>
												<start>0</start>
												<end>578989</end>
												<pixelaspectratio>Square</pixelaspectratio>
												<anamorphic>FALSE</anamorphic>
												<alphatype>none</alphatype>
												<masterclipid>AA0041_01 1</masterclipid>
												<syncoffset>0</syncoffset>
												<logginginfo>
													<scene/>
													<shottake/>
													<lognote/>
													<good>FALSE</good>
												</logginginfo>
												<labels>
													<label>Alternate Shots</label>
													<label2/>
												</labels>
												<comments>
													<mastercomment1/>
													<mastercomment2/>
													<mastercomment3/>
													<mastercomment4/>
												</comments>
												<file id="AA0041_01 3">
													<name>AA0041_01.mov</name>
													<pathurl>file://localhost/Volumes/Share/Edit%20Share/00%20BREW%20DOGS%20S1/BD_00_San_Diego/052413/01_Video/C300/AA0041_01.mov</pathurl>
													<rate>
														<timebase>24</timebase>
														<ntsc>TRUE</ntsc>
													</rate>
													<duration>11448</duration>
													<metadata>
														<storage>QuickTime</storage>
														<key>com.apple.quicktime.creationdate</key>
														<size>24</size>
														<type>UTF8</type>
														<value>2013-05-24T13:25:51-0700</value>
													</metadata>
													<metadata>
														<storage>QuickTime</storage>
														<key>com.apple.finalcutstudio.media.history.uuid</key>
														<size>36</size>
														<type>UTF8</type>
														<value>1DC61C7C-01CD-47C2-895F-B15E02FB4A56</value>
													</metadata>
													<metadata>
														<storage>QuickTime</storage>
														<key>com.apple.finalcutstudio.media.uuid</key>
														<size>36</size>
														<type>UTF8</type>
														<value>F3480E10-C266-4ED9-BBAF-419F95669C08</value>
													</metadata>
													<metadata>
														<storage>QuickTime</storage>
														<key>com.apple.proapps.reel</key>
														<size>12</size>
														<type>UTF8</type>
														<value>A02_verified</value>
													</metadata>
													<metadata>
														<storage>QuickTime</storage>
														<key>com.apple.proapps.isGood</key>
														<size>4</size>
														<type>unsigned</type>
														<value>0</value>
													</metadata>
													<metadata>
														<storage>QuickTime</storage>
														<key>com.apple.proapps.clipID</key>
														<size>36</size>
														<type>UTF8</type>
														<value>0D3CBF04-3664-0580-0000-8500025A0F55</value>
													</metadata>
													<metadata>
														<storage>QuickTime</storage>
														<key>com.apple.proapps.originalFormat</key>
														<size>14</size>
														<type>UTF8</type>
														<value>Canon XF MPEG2</value>
													</metadata>
													<timecode>
														<rate>
															<timebase>24</timebase>
														</rate>
														<string>13:26:21:05</string>
														<frame>1161149</frame>
														<displayformat>NDF</displayformat>
														<source>source</source>
														<reel>
															<name>A02_verified</name>
														</reel>
													</timecode>
													<media>
														<video>
															<duration>11448</duration>
															<samplecharacteristics>
																<width>1920</width>
																<height>1080</height>
															</samplecharacteristics>
														</video>
														<audio>
															<samplecharacteristics>
																<samplerate>48000</samplerate>
																<depth>16</depth>
															</samplecharacteristics>
															<channelcount>1</channelcount>
															<layout>mono</layout>
															<audiochannel>
																<sourcechannel>1</sourcechannel>
																<channellabel>discrete</channellabel>
															</audiochannel>
														</audio>
														<audio>
															<samplecharacteristics>
																<samplerate>48000</samplerate>
																<depth>16</depth>
															</samplecharacteristics>
															<channelcount>1</channelcount>
															<layout>mono</layout>
															<audiochannel>
																<sourcechannel>2</sourcechannel>
																<channellabel>discrete</channellabel>
															</audiochannel>
														</audio>
													</media>
												</file>
												<sourcetrack>
													<mediatype>video</mediatype>
												</sourcetrack>
												<link>
													<linkclipref>AA0041_01 2</linkclipref>
													<mediatype>video</mediatype>
													<trackindex>1</trackindex>
													<clipindex>1</clipindex>
												</link>
												<link>
													<linkclipref>AA0041_01 4</linkclipref>
													<mediatype>audio</mediatype>
													<trackindex>1</trackindex>
													<clipindex>1</clipindex>
												</link>
												<link>
													<linkclipref>AA0041_01 5</linkclipref>
													<mediatype>audio</mediatype>
													<trackindex>2</trackindex>
													<clipindex>1</clipindex>
												</link>
												<fielddominance>none</fielddominance>
												<mediadelay>174857</mediadelay>
												<itemhistory>
													<uuid>99BC27DF-E807-48AE-8D29-1FD772212319</uuid>
												</itemhistory>
											</clipitem>
											<enabled>TRUE</enabled>
											<locked>FALSE</locked>
										</track>
									</video>
									<audio>
										<outputs>
											<group>
												<index>1</index>
												<numchannels>2</numchannels>
												<downmix>0</downmix>
												<channel>
													<index>1</index>
												</channel>
												<channel>
													<index>2</index>
												</channel>
											</group>
										</outputs>
										<in>-1</in>
										<out>-1</out>
										<track>
											<clipitem id="AA0041_01 4">
												<name>AA0041_01</name>
												<duration>578989</duration>
												<rate>
													<ntsc>TRUE</ntsc>
													<timebase>24</timebase>
												</rate>
												<in>0</in>
												<out>578989</out>
												<start>0</start>
												<end>578989</end>
												<subframeoffset>0</subframeoffset>
												<anamorphic>FALSE</anamorphic>
												<masterclipid>AA0041_01 1</masterclipid>
												<syncoffset>0</syncoffset>
												<logginginfo>
													<scene/>
													<shottake/>
													<lognote/>
													<good>FALSE</good>
												</logginginfo>
												<labels>
													<label>Alternate Shots</label>
													<label2/>
												</labels>
												<comments>
													<mastercomment1/>
													<mastercomment2/>
													<mastercomment3/>
													<mastercomment4/>
												</comments>
												<file id="AA0041_01 3"/>
												<filter>
													<effect>
														<name>Audio Levels</name>
														<effectid>audiolevels</effectid>
														<effectcategory>audiolevels</effectcategory>
														<effecttype>audiolevels</effecttype>
														<mediatype>audio</mediatype>
														<parameter>
															<name>Level</name>
															<parameterid>level</parameterid>
															<valuemin>0</valuemin>
															<valuemax>3.98109</valuemax>
															<value>1</value>
														</parameter>
													</effect>
												</filter>
												<filter>
													<effect>
														<name>Audio Pan</name>
														<effectid>audiopan</effectid>
														<effectcategory>audiopan</effectcategory>
														<effecttype>audiopan</effecttype>
														<mediatype>audio</mediatype>
														<parameter>
															<name>Pan</name>
															<parameterid>pan</parameterid>
															<valuemin>-1</valuemin>
															<valuemax>1</valuemax>
															<value>0</value>
														</parameter>
													</effect>
												</filter>
												<sourcetrack>
													<mediatype>audio</mediatype>
													<trackindex>1</trackindex>
												</sourcetrack>
												<link>
													<linkclipref>AA0041_01 2</linkclipref>
													<mediatype>video</mediatype>
													<trackindex>1</trackindex>
													<clipindex>1</clipindex>
												</link>
												<link>
													<linkclipref>AA0041_01 4</linkclipref>
													<mediatype>audio</mediatype>
													<trackindex>1</trackindex>
													<clipindex>1</clipindex>
												</link>
												<link>
													<linkclipref>AA0041_01 5</linkclipref>
													<mediatype>audio</mediatype>
													<trackindex>2</trackindex>
													<clipindex>1</clipindex>
												</link>
												<mediadelay>174857</mediadelay>
												<itemhistory>
													<uuid>B8D62BA5-94D9-42EF-9FE3-62D7614D39DC</uuid>
												</itemhistory>
											</clipitem>
											<enabled>TRUE</enabled>
											<locked>FALSE</locked>
										</track>
										<track>
											<clipitem id="AA0041_01 5">
												<name>AA0041_01</name>
												<duration>578989</duration>
												<rate>
													<ntsc>TRUE</ntsc>
													<timebase>24</timebase>
												</rate>
												<in>0</in>
												<out>578989</out>
												<start>0</start>
												<end>578989</end>
												<subframeoffset>0</subframeoffset>
												<anamorphic>FALSE</anamorphic>
												<masterclipid>AA0041_01 1</masterclipid>
												<syncoffset>0</syncoffset>
												<logginginfo>
													<scene/>
													<shottake/>
													<lognote/>
													<good>FALSE</good>
												</logginginfo>
												<labels>
													<label>Alternate Shots</label>
													<label2/>
												</labels>
												<comments>
													<mastercomment1/>
													<mastercomment2/>
													<mastercomment3/>
													<mastercomment4/>
												</comments>
												<file id="AA0041_01 3"/>
												<filter>
													<effect>
														<name>Audio Levels</name>
														<effectid>audiolevels</effectid>
														<effectcategory>audiolevels</effectcategory>
														<effecttype>audiolevels</effecttype>
														<mediatype>audio</mediatype>
														<parameter>
															<name>Level</name>
															<parameterid>level</parameterid>
															<valuemin>0</valuemin>
															<valuemax>3.98109</valuemax>
															<value>1</value>
														</parameter>
													</effect>
												</filter>
												<filter>
													<effect>
														<name>Audio Pan</name>
														<effectid>audiopan</effectid>
														<effectcategory>audiopan</effectcategory>
														<effecttype>audiopan</effecttype>
														<mediatype>audio</mediatype>
														<parameter>
															<name>Pan</name>
															<parameterid>pan</parameterid>
															<valuemin>-1</valuemin>
															<valuemax>1</valuemax>
															<value>0</value>
														</parameter>
													</effect>
												</filter>
												<sourcetrack>
													<mediatype>audio</mediatype>
													<trackindex>2</trackindex>
												</sourcetrack>
												<link>
													<linkclipref>AA0041_01 2</linkclipref>
													<mediatype>video</mediatype>
													<trackindex>1</trackindex>
													<clipindex>1</clipindex>
												</link>
												<link>
													<linkclipref>AA0041_01 4</linkclipref>
													<mediatype>audio</mediatype>
													<trackindex>1</trackindex>
													<clipindex>1</clipindex>
												</link>
												<link>
													<linkclipref>AA0041_01 5</linkclipref>
													<mediatype>audio</mediatype>
													<trackindex>2</trackindex>
													<clipindex>1</clipindex>
												</link>
												<mediadelay>174857</mediadelay>
												<itemhistory>
													<uuid>13409E76-0BC0-4B6D-962E-6E822FC42442</uuid>
												</itemhistory>
											</clipitem>
											<enabled>TRUE</enabled>
											<locked>FALSE</locked>
										</track>
										<filter>
											<effect>
												<name>Audio Levels</name>
												<effectid>audiolevels</effectid>
												<effectcategory>audiolevels</effectcategory>
												<effecttype>audiolevels</effecttype>
												<mediatype>audio</mediatype>
												<parameter>
													<name>Level</name>
													<parameterid>level</parameterid>
													<valuemin>0</valuemin>
													<valuemax>3.98109</valuemax>
													<value>1</value>
												</parameter>
											</effect>
										</filter>
									</audio>
								</media>
							</clip>
						</angle>
						<angle>
							<activevideoangle>TRUE</activevideoangle>
							<activeaudioangle>TRUE</activeaudioangle>
							<clip id="AA0042_01 5">
								<uuid>5FCD939C-6488-4C27-91C9-206E75204372</uuid>
								<updatebehavior>add</updatebehavior>
								<name>AA0042_01</name>
								<duration>578989</duration>
								<rate>
									<ntsc>TRUE</ntsc>
									<timebase>24</timebase>
								</rate>
								<in>-1</in>
								<out>-1</out>
								<anamorphic>FALSE</anamorphic>
								<masterclipid>AA0042_01 1</masterclipid>
								<ismasterclip>FALSE</ismasterclip>
								<logginginfo>
									<scene/>
									<shottake/>
									<lognote/>
									<good>FALSE</good>
								</logginginfo>
								<labels>
									<label>Alternate Shots</label>
									<label2/>
								</labels>
								<comments>
									<mastercomment1/>
									<mastercomment2/>
									<mastercomment3/>
									<mastercomment4/>
								</comments>
								<media>
									<video>
										<track>
											<clipitem id="AA0042_01 6">
												<name>AA0042_01</name>
												<duration>578989</duration>
												<rate>
													<ntsc>TRUE</ntsc>
													<timebase>24</timebase>
												</rate>
												<in>0</in>
												<out>578989</out>
												<start>0</start>
												<end>578989</end>
												<pixelaspectratio>Square</pixelaspectratio>
												<anamorphic>FALSE</anamorphic>
												<alphatype>none</alphatype>
												<masterclipid>AA0042_01 1</masterclipid>
												<syncoffset>0</syncoffset>
												<logginginfo>
													<scene/>
													<shottake/>
													<lognote/>
													<good>FALSE</good>
												</logginginfo>
												<labels>
													<label>Alternate Shots</label>
													<label2/>
												</labels>
												<comments>
													<mastercomment1/>
													<mastercomment2/>
													<mastercomment3/>
													<mastercomment4/>
												</comments>
												<file id="AA0042_01 2"/>
												<sourcetrack>
													<mediatype>video</mediatype>
												</sourcetrack>
												<link>
													<linkclipref>AA0042_01 6</linkclipref>
													<mediatype>video</mediatype>
													<trackindex>1</trackindex>
													<clipindex>1</clipindex>
												</link>
												<link>
													<linkclipref>AA0042_01 7</linkclipref>
													<mediatype>audio</mediatype>
													<trackindex>1</trackindex>
													<clipindex>1</clipindex>
												</link>
												<link>
													<linkclipref>AA0042_01 8</linkclipref>
													<mediatype>audio</mediatype>
													<trackindex>2</trackindex>
													<clipindex>1</clipindex>
												</link>
												<fielddominance>none</fielddominance>
												<mediadelay>186865</mediadelay>
												<itemhistory>
													<uuid>B5893700-9833-43B8-A368-09C6E8CA99A1</uuid>
												</itemhistory>
											</clipitem>
											<enabled>TRUE</enabled>
											<locked>FALSE</locked>
										</track>
									</video>
									<audio>
										<outputs>
											<group>
												<index>1</index>
												<numchannels>2</numchannels>
												<downmix>0</downmix>
												<channel>
													<index>1</index>
												</channel>
												<channel>
													<index>2</index>
												</channel>
											</group>
										</outputs>
										<in>-1</in>
										<out>-1</out>
										<track>
											<clipitem id="AA0042_01 7">
												<name>AA0042_01</name>
												<duration>578989</duration>
												<rate>
													<ntsc>TRUE</ntsc>
													<timebase>24</timebase>
												</rate>
												<in>0</in>
												<out>578989</out>
												<start>0</start>
												<end>578989</end>
												<subframeoffset>0</subframeoffset>
												<anamorphic>FALSE</anamorphic>
												<masterclipid>AA0042_01 1</masterclipid>
												<syncoffset>0</syncoffset>
												<logginginfo>
													<scene/>
													<shottake/>
													<lognote/>
													<good>FALSE</good>
												</logginginfo>
												<labels>
													<label>Alternate Shots</label>
													<label2/>
												</labels>
												<comments>
													<mastercomment1/>
													<mastercomment2/>
													<mastercomment3/>
													<mastercomment4/>
												</comments>
												<file id="AA0042_01 2"/>
												<filter>
													<effect>
														<name>Audio Levels</name>
														<effectid>audiolevels</effectid>
														<effectcategory>audiolevels</effectcategory>
														<effecttype>audiolevels</effecttype>
														<mediatype>audio</mediatype>
														<parameter>
															<name>Level</name>
															<parameterid>level</parameterid>
															<valuemin>0</valuemin>
															<valuemax>3.98109</valuemax>
															<value>1</value>
														</parameter>
													</effect>
												</filter>
												<filter>
													<effect>
														<name>Audio Pan</name>
														<effectid>audiopan</effectid>
														<effectcategory>audiopan</effectcategory>
														<effecttype>audiopan</effecttype>
														<mediatype>audio</mediatype>
														<parameter>
															<name>Pan</name>
															<parameterid>pan</parameterid>
															<valuemin>-1</valuemin>
															<valuemax>1</valuemax>
															<value>0</value>
														</parameter>
													</effect>
												</filter>
												<sourcetrack>
													<mediatype>audio</mediatype>
													<trackindex>1</trackindex>
												</sourcetrack>
												<link>
													<linkclipref>AA0042_01 6</linkclipref>
													<mediatype>video</mediatype>
													<trackindex>1</trackindex>
													<clipindex>1</clipindex>
												</link>
												<link>
													<linkclipref>AA0042_01 7</linkclipref>
													<mediatype>audio</mediatype>
													<trackindex>1</trackindex>
													<clipindex>1</clipindex>
												</link>
												<link>
													<linkclipref>AA0042_01 8</linkclipref>
													<mediatype>audio</mediatype>
													<trackindex>2</trackindex>
													<clipindex>1</clipindex>
												</link>
												<mediadelay>186865</mediadelay>
												<itemhistory>
													<uuid>0DA49784-15D3-41AE-BA69-8DC6E9DFEC9E</uuid>
												</itemhistory>
											</clipitem>
											<enabled>TRUE</enabled>
											<locked>FALSE</locked>
										</track>
										<track>
											<clipitem id="AA0042_01 8">
												<name>AA0042_01</name>
												<duration>578989</duration>
												<rate>
													<ntsc>TRUE</ntsc>
													<timebase>24</timebase>
												</rate>
												<in>0</in>
												<out>578989</out>
												<start>0</start>
												<end>578989</end>
												<subframeoffset>0</subframeoffset>
												<anamorphic>FALSE</anamorphic>
												<masterclipid>AA0042_01 1</masterclipid>
												<syncoffset>0</syncoffset>
												<logginginfo>
													<scene/>
													<shottake/>
													<lognote/>
													<good>FALSE</good>
												</logginginfo>
												<labels>
													<label>Alternate Shots</label>
													<label2/>
												</labels>
												<comments>
													<mastercomment1/>
													<mastercomment2/>
													<mastercomment3/>
													<mastercomment4/>
												</comments>
												<file id="AA0042_01 2"/>
												<filter>
													<effect>
														<name>Audio Levels</name>
														<effectid>audiolevels</effectid>
														<effectcategory>audiolevels</effectcategory>
														<effecttype>audiolevels</effecttype>
														<mediatype>audio</mediatype>
														<parameter>
															<name>Level</name>
															<parameterid>level</parameterid>
															<valuemin>0</valuemin>
															<valuemax>3.98109</valuemax>
															<value>1</value>
														</parameter>
													</effect>
												</filter>
												<filter>
													<effect>
														<name>Audio Pan</name>
														<effectid>audiopan</effectid>
														<effectcategory>audiopan</effectcategory>
														<effecttype>audiopan</effecttype>
														<mediatype>audio</mediatype>
														<parameter>
															<name>Pan</name>
															<parameterid>pan</parameterid>
															<valuemin>-1</valuemin>
															<valuemax>1</valuemax>
															<value>0</value>
														</parameter>
													</effect>
												</filter>
												<sourcetrack>
													<mediatype>audio</mediatype>
													<trackindex>2</trackindex>
												</sourcetrack>
												<link>
													<linkclipref>AA0042_01 6</linkclipref>
													<mediatype>video</mediatype>
													<trackindex>1</trackindex>
													<clipindex>1</clipindex>
												</link>
												<link>
													<linkclipref>AA0042_01 7</linkclipref>
													<mediatype>audio</mediatype>
													<trackindex>1</trackindex>
													<clipindex>1</clipindex>
												</link>
												<link>
													<linkclipref>AA0042_01 8</linkclipref>
													<mediatype>audio</mediatype>
													<trackindex>2</trackindex>
													<clipindex>1</clipindex>
												</link>
												<mediadelay>186865</mediadelay>
												<itemhistory>
													<uuid>9AA28336-C7A2-4460-AAE6-0DDACE79AB58</uuid>
												</itemhistory>
											</clipitem>
											<enabled>TRUE</enabled>
											<locked>FALSE</locked>
										</track>
										<filter>
											<effect>
												<name>Audio Levels</name>
												<effectid>audiolevels</effectid>
												<effectcategory>audiolevels</effectcategory>
												<effecttype>audiolevels</effecttype>
												<mediatype>audio</mediatype>
												<parameter>
													<name>Level</name>
													<parameterid>level</parameterid>
													<valuemin>0</valuemin>
													<valuemax>3.98109</valuemax>
													<value>1</value>
												</parameter>
											</effect>
										</filter>
									</audio>
								</media>
							</clip>
						</angle>
						<angle>
							<clip id="AA0043_01 ">
								<uuid>C8354F3A-EA79-46B9-B71F-7128465230F6</uuid>
								<updatebehavior>add</updatebehavior>
								<name>AA0043_01</name>
								<duration>578989</duration>
								<rate>
									<ntsc>TRUE</ntsc>
									<timebase>24</timebase>
								</rate>
								<in>-1</in>
								<out>-1</out>
								<anamorphic>FALSE</anamorphic>
								<masterclipid>AA0043_01 1</masterclipid>
								<ismasterclip>FALSE</ismasterclip>
								<logginginfo>
									<scene/>
									<shottake/>
									<lognote/>
									<good>FALSE</good>
								</logginginfo>
								<labels>
									<label>Alternate Shots</label>
									<label2/>
								</labels>
								<comments>
									<mastercomment1/>
									<mastercomment2/>
									<mastercomment3/>
									<mastercomment4/>
								</comments>
								<media>
									<video>
										<track>
											<clipitem id="AA0043_01 2">
												<name>AA0043_01</name>
												<duration>578989</duration>
												<rate>
													<ntsc>TRUE</ntsc>
													<timebase>24</timebase>
												</rate>
												<in>0</in>
												<out>578989</out>
												<start>0</start>
												<end>578989</end>
												<pixelaspectratio>Square</pixelaspectratio>
												<anamorphic>FALSE</anamorphic>
												<alphatype>none</alphatype>
												<masterclipid>AA0043_01 1</masterclipid>
												<syncoffset>0</syncoffset>
												<logginginfo>
													<scene/>
													<shottake/>
													<lognote/>
													<good>FALSE</good>
												</logginginfo>
												<labels>
													<label>Alternate Shots</label>
													<label2/>
												</labels>
												<comments>
													<mastercomment1/>
													<mastercomment2/>
													<mastercomment3/>
													<mastercomment4/>
												</comments>
												<file id="AA0043_01 3">
													<name>AA0043_01.mov</name>
													<pathurl>file://localhost/Volumes/Share/Edit%20Share/00%20BREW%20DOGS%20S1/BD_00_San_Diego/052413/01_Video/C300/AA0043_01.mov</pathurl>
													<rate>
														<timebase>24</timebase>
														<ntsc>TRUE</ntsc>
													</rate>
													<duration>2352</duration>
													<metadata>
														<storage>QuickTime</storage>
														<key>com.apple.quicktime.creationdate</key>
														<size>24</size>
														<type>UTF8</type>
														<value>2013-05-24T13:39:42-0700</value>
													</metadata>
													<metadata>
														<storage>QuickTime</storage>
														<key>com.apple.finalcutstudio.media.history.uuid</key>
														<size>36</size>
														<type>UTF8</type>
														<value>BB870385-35C7-4573-8106-5F0FD333D3EE</value>
													</metadata>
													<metadata>
														<storage>QuickTime</storage>
														<key>com.apple.finalcutstudio.media.uuid</key>
														<size>36</size>
														<type>UTF8</type>
														<value>C9C25463-B91C-4382-8AE0-4A6BA8532F89</value>
													</metadata>
													<metadata>
														<storage>QuickTime</storage>
														<key>com.apple.proapps.reel</key>
														<size>12</size>
														<type>UTF8</type>
														<value>A02_verified</value>
													</metadata>
													<metadata>
														<storage>QuickTime</storage>
														<key>com.apple.proapps.isGood</key>
														<size>4</size>
														<type>unsigned</type>
														<value>0</value>
													</metadata>
													<metadata>
														<storage>QuickTime</storage>
														<key>com.apple.proapps.clipID</key>
														<size>36</size>
														<type>UTF8</type>
														<value>0D3D81C8-3664-0580-0000-8500025A0F55</value>
													</metadata>
													<metadata>
														<storage>QuickTime</storage>
														<key>com.apple.proapps.originalFormat</key>
														<size>14</size>
														<type>UTF8</type>
														<value>Canon XF MPEG2</value>
													</metadata>
													<timecode>
														<rate>
															<timebase>24</timebase>
														</rate>
														<string>13:40:11:21</string>
														<frame>1181085</frame>
														<displayformat>NDF</displayformat>
														<source>source</source>
														<reel>
															<name>A02_verified</name>
														</reel>
													</timecode>
													<media>
														<video>
															<duration>2352</duration>
															<samplecharacteristics>
																<width>1920</width>
																<height>1080</height>
															</samplecharacteristics>
														</video>
														<audio>
															<samplecharacteristics>
																<samplerate>48000</samplerate>
																<depth>16</depth>
															</samplecharacteristics>
															<channelcount>1</channelcount>
															<layout>mono</layout>
															<audiochannel>
																<sourcechannel>1</sourcechannel>
																<channellabel>discrete</channellabel>
															</audiochannel>
														</audio>
														<audio>
															<samplecharacteristics>
																<samplerate>48000</samplerate>
																<depth>16</depth>
															</samplecharacteristics>
															<channelcount>1</channelcount>
															<layout>mono</layout>
															<audiochannel>
																<sourcechannel>2</sourcechannel>
																<channellabel>discrete</channellabel>
															</audiochannel>
														</audio>
													</media>
												</file>
												<sourcetrack>
													<mediatype>video</mediatype>
												</sourcetrack>
												<link>
													<linkclipref>AA0043_01 2</linkclipref>
													<mediatype>video</mediatype>
													<trackindex>1</trackindex>
													<clipindex>1</clipindex>
												</link>
												<link>
													<linkclipref>AA0043_01 4</linkclipref>
													<mediatype>audio</mediatype>
													<trackindex>1</trackindex>
													<clipindex>1</clipindex>
												</link>
												<link>
													<linkclipref>AA0043_01 5</linkclipref>
													<mediatype>audio</mediatype>
													<trackindex>2</trackindex>
													<clipindex>1</clipindex>
												</link>
												<fielddominance>none</fielddominance>
												<mediadelay>194793</mediadelay>
												<itemhistory>
													<uuid>EB67CC84-19A0-4963-9D2A-43F6D6E1968D</uuid>
												</itemhistory>
											</clipitem>
											<enabled>TRUE</enabled>
											<locked>FALSE</locked>
										</track>
									</video>
									<audio>
										<outputs>
											<group>
												<index>1</index>
												<numchannels>2</numchannels>
												<downmix>0</downmix>
												<channel>
													<index>1</index>
												</channel>
												<channel>
													<index>2</index>
												</channel>
											</group>
										</outputs>
										<in>-1</in>
										<out>-1</out>
										<track>
											<clipitem id="AA0043_01 4">
												<name>AA0043_01</name>
												<duration>578989</duration>
												<rate>
													<ntsc>TRUE</ntsc>
													<timebase>24</timebase>
												</rate>
												<in>0</in>
												<out>578989</out>
												<start>0</start>
												<end>578989</end>
												<subframeoffset>0</subframeoffset>
												<anamorphic>FALSE</anamorphic>
												<masterclipid>AA0043_01 1</masterclipid>
												<syncoffset>0</syncoffset>
												<logginginfo>
													<scene/>
													<shottake/>
													<lognote/>
													<good>FALSE</good>
												</logginginfo>
												<labels>
													<label>Alternate Shots</label>
													<label2/>
												</labels>
												<comments>
													<mastercomment1/>
													<mastercomment2/>
													<mastercomment3/>
													<mastercomment4/>
												</comments>
												<file id="AA0043_01 3"/>
												<filter>
													<effect>
														<name>Audio Levels</name>
														<effectid>audiolevels</effectid>
														<effectcategory>audiolevels</effectcategory>
														<effecttype>audiolevels</effecttype>
														<mediatype>audio</mediatype>
														<parameter>
															<name>Level</name>
															<parameterid>level</parameterid>
															<valuemin>0</valuemin>
															<valuemax>3.98109</valuemax>
															<value>1</value>
														</parameter>
													</effect>
												</filter>
												<filter>
													<effect>
														<name>Audio Pan</name>
														<effectid>audiopan</effectid>
														<effectcategory>audiopan</effectcategory>
														<effecttype>audiopan</effecttype>
														<mediatype>audio</mediatype>
														<parameter>
															<name>Pan</name>
															<parameterid>pan</parameterid>
															<valuemin>-1</valuemin>
															<valuemax>1</valuemax>
															<value>0</value>
														</parameter>
													</effect>
												</filter>
												<sourcetrack>
													<mediatype>audio</mediatype>
													<trackindex>1</trackindex>
												</sourcetrack>
												<link>
													<linkclipref>AA0043_01 2</linkclipref>
													<mediatype>video</mediatype>
													<trackindex>1</trackindex>
													<clipindex>1</clipindex>
												</link>
												<link>
													<linkclipref>AA0043_01 4</linkclipref>
													<mediatype>audio</mediatype>
													<trackindex>1</trackindex>
													<clipindex>1</clipindex>
												</link>
												<link>
													<linkclipref>AA0043_01 5</linkclipref>
													<mediatype>audio</mediatype>
													<trackindex>2</trackindex>
													<clipindex>1</clipindex>
												</link>
												<mediadelay>194793</mediadelay>
												<itemhistory>
													<uuid>EFE2C805-1E15-425B-B16C-C9992699A55E</uuid>
												</itemhistory>
											</clipitem>
											<enabled>TRUE</enabled>
											<locked>FALSE</locked>
										</track>
										<track>
											<clipitem id="AA0043_01 5">
												<name>AA0043_01</name>
												<duration>578989</duration>
												<rate>
													<ntsc>TRUE</ntsc>
													<timebase>24</timebase>
												</rate>
												<in>0</in>
												<out>578989</out>
												<start>0</start>
												<end>578989</end>
												<subframeoffset>0</subframeoffset>
												<anamorphic>FALSE</anamorphic>
												<masterclipid>AA0043_01 1</masterclipid>
												<syncoffset>0</syncoffset>
												<logginginfo>
													<scene/>
													<shottake/>
													<lognote/>
													<good>FALSE</good>
												</logginginfo>
												<labels>
													<label>Alternate Shots</label>
													<label2/>
												</labels>
												<comments>
													<mastercomment1/>
													<mastercomment2/>
													<mastercomment3/>
													<mastercomment4/>
												</comments>
												<file id="AA0043_01 3"/>
												<filter>
													<effect>
														<name>Audio Levels</name>
														<effectid>audiolevels</effectid>
														<effectcategory>audiolevels</effectcategory>
														<effecttype>audiolevels</effecttype>
														<mediatype>audio</mediatype>
														<parameter>
															<name>Level</name>
															<parameterid>level</parameterid>
															<valuemin>0</valuemin>
															<valuemax>3.98109</valuemax>
															<value>1</value>
														</parameter>
													</effect>
												</filter>
												<filter>
													<effect>
														<name>Audio Pan</name>
														<effectid>audiopan</effectid>
														<effectcategory>audiopan</effectcategory>
														<effecttype>audiopan</effecttype>
														<mediatype>audio</mediatype>
														<parameter>
															<name>Pan</name>
															<parameterid>pan</parameterid>
															<valuemin>-1</valuemin>
															<valuemax>1</valuemax>
															<value>0</value>
														</parameter>
													</effect>
												</filter>
												<sourcetrack>
													<mediatype>audio</mediatype>
													<trackindex>2</trackindex>
												</sourcetrack>
												<link>
													<linkclipref>AA0043_01 2</linkclipref>
													<mediatype>video</mediatype>
													<trackindex>1</trackindex>
													<clipindex>1</clipindex>
												</link>
												<link>
													<linkclipref>AA0043_01 4</linkclipref>
													<mediatype>audio</mediatype>
													<trackindex>1</trackindex>
													<clipindex>1</clipindex>
												</link>
												<link>
													<linkclipref>AA0043_01 5</linkclipref>
													<mediatype>audio</mediatype>
													<trackindex>2</trackindex>
													<clipindex>1</clipindex>
												</link>
												<mediadelay>194793</mediadelay>
												<itemhistory>
													<uuid>4CECDD33-3AB8-48B6-B9F4-8561F30F1BC9</uuid>
												</itemhistory>
											</clipitem>
											<enabled>TRUE</enabled>
											<locked>FALSE</locked>
										</track>
										<filter>
											<effect>
												<name>Audio Levels</name>
												<effectid>audiolevels</effectid>
												<effectcategory>audiolevels</effectcategory>
												<effecttype>audiolevels</effecttype>
												<mediatype>audio</mediatype>
												<parameter>
													<name>Level</name>
													<parameterid>level</parameterid>
													<valuemin>0</valuemin>
													<valuemax>3.98109</valuemax>
													<value>1</value>
												</parameter>
											</effect>
										</filter>
									</audio>
								</media>
							</clip>
						</angle>
						<angle>
							<clip id="AA0044_01 ">
								<uuid>B462996A-03CE-417D-9A1D-D6354783BC0C</uuid>
								<updatebehavior>add</updatebehavior>
								<name>AA0044_01</name>
								<duration>578989</duration>
								<rate>
									<ntsc>TRUE</ntsc>
									<timebase>24</timebase>
								</rate>
								<in>-1</in>
								<out>-1</out>
								<anamorphic>FALSE</anamorphic>
								<masterclipid>AA0044_01 1</masterclipid>
								<ismasterclip>FALSE</ismasterclip>
								<logginginfo>
									<scene/>
									<shottake/>
									<lognote/>
									<good>FALSE</good>
								</logginginfo>
								<labels>
									<label>Alternate Shots</label>
									<label2/>
								</labels>
								<comments>
									<mastercomment1/>
									<mastercomment2/>
									<mastercomment3/>
									<mastercomment4/>
								</comments>
								<media>
									<video>
										<track>
											<clipitem id="AA0044_01 2">
												<name>AA0044_01</name>
												<duration>578989</duration>
												<rate>
													<ntsc>TRUE</ntsc>
													<timebase>24</timebase>
												</rate>
												<in>0</in>
												<out>578989</out>
												<start>0</start>
												<end>578989</end>
												<pixelaspectratio>Square</pixelaspectratio>
												<anamorphic>FALSE</anamorphic>
												<alphatype>none</alphatype>
												<masterclipid>AA0044_01 1</masterclipid>
												<syncoffset>0</syncoffset>
												<logginginfo>
													<scene/>
													<shottake/>
													<lognote/>
													<good>FALSE</good>
												</logginginfo>
												<labels>
													<label>Alternate Shots</label>
													<label2/>
												</labels>
												<comments>
													<mastercomment1/>
													<mastercomment2/>
													<mastercomment3/>
													<mastercomment4/>
												</comments>
												<file id="AA0044_01 3">
													<name>AA0044_01.mov</name>
													<pathurl>file://localhost/Volumes/Share/Edit%20Share/00%20BREW%20DOGS%20S1/BD_00_San_Diego/052413/01_Video/C300/AA0044_01.mov</pathurl>
													<rate>
														<timebase>24</timebase>
														<ntsc>TRUE</ntsc>
													</rate>
													<duration>372</duration>
													<metadata>
														<storage>QuickTime</storage>
														<key>com.apple.quicktime.creationdate</key>
														<size>24</size>
														<type>UTF8</type>
														<value>2013-05-24T13:41:38-0700</value>
													</metadata>
													<metadata>
														<storage>QuickTime</storage>
														<key>com.apple.finalcutstudio.media.history.uuid</key>
														<size>36</size>
														<type>UTF8</type>
														<value>26FB1196-9FAD-4AF3-95D6-DB00B697206B</value>
													</metadata>
													<metadata>
														<storage>QuickTime</storage>
														<key>com.apple.finalcutstudio.media.uuid</key>
														<size>36</size>
														<type>UTF8</type>
														<value>5E89D4DC-1EAD-49F0-899D-EF5A8DD3C8F4</value>
													</metadata>
													<metadata>
														<storage>QuickTime</storage>
														<key>com.apple.proapps.reel</key>
														<size>12</size>
														<type>UTF8</type>
														<value>A02_verified</value>
													</metadata>
													<metadata>
														<storage>QuickTime</storage>
														<key>com.apple.proapps.isGood</key>
														<size>4</size>
														<type>unsigned</type>
														<value>0</value>
													</metadata>
													<metadata>
														<storage>QuickTime</storage>
														<key>com.apple.proapps.clipID</key>
														<size>36</size>
														<type>UTF8</type>
														<value>0D3D9CF8-3664-0580-0000-8500025A0F55</value>
													</metadata>
													<metadata>
														<storage>QuickTime</storage>
														<key>com.apple.proapps.originalFormat</key>
														<size>14</size>
														<type>UTF8</type>
														<value>Canon XF MPEG2</value>
													</metadata>
													<timecode>
														<rate>
															<timebase>24</timebase>
														</rate>
														<string>13:42:07:17</string>
														<frame>1183865</frame>
														<displayformat>NDF</displayformat>
														<source>source</source>
														<reel>
															<name>A02_verified</name>
														</reel>
													</timecode>
													<media>
														<video>
															<duration>372</duration>
															<samplecharacteristics>
																<width>1920</width>
																<height>1080</height>
															</samplecharacteristics>
														</video>
														<audio>
															<samplecharacteristics>
																<samplerate>48000</samplerate>
																<depth>16</depth>
															</samplecharacteristics>
															<channelcount>1</channelcount>
															<layout>mono</layout>
															<audiochannel>
																<sourcechannel>1</sourcechannel>
																<channellabel>discrete</channellabel>
															</audiochannel>
														</audio>
														<audio>
															<samplecharacteristics>
																<samplerate>48000</samplerate>
																<depth>16</depth>
															</samplecharacteristics>
															<channelcount>1</channelcount>
															<layout>mono</layout>
															<audiochannel>
																<sourcechannel>2</sourcechannel>
																<channellabel>discrete</channellabel>
															</audiochannel>
														</audio>
													</media>
												</file>
												<sourcetrack>
													<mediatype>video</mediatype>
												</sourcetrack>
												<link>
													<linkclipref>AA0044_01 2</linkclipref>
													<mediatype>video</mediatype>
													<trackindex>1</trackindex>
													<clipindex>1</clipindex>
												</link>
												<link>
													<linkclipref>AA0044_01 4</linkclipref>
													<mediatype>audio</mediatype>
													<trackindex>1</trackindex>
													<clipindex>1</clipindex>
												</link>
												<link>
													<linkclipref>AA0044_01 5</linkclipref>
													<mediatype>audio</mediatype>
													<trackindex>2</trackindex>
													<clipindex>1</clipindex>
												</link>
												<fielddominance>none</fielddominance>
												<mediadelay>197573</mediadelay>
												<itemhistory>
													<uuid>6467E716-F77A-4895-8E99-7C5073EB121D</uuid>
												</itemhistory>
											</clipitem>
											<enabled>TRUE</enabled>
											<locked>FALSE</locked>
										</track>
									</video>
									<audio>
										<outputs>
											<group>
												<index>1</index>
												<numchannels>2</numchannels>
												<downmix>0</downmix>
												<channel>
													<index>1</index>
												</channel>
												<channel>
													<index>2</index>
												</channel>
											</group>
										</outputs>
										<in>-1</in>
										<out>-1</out>
										<track>
											<clipitem id="AA0044_01 4">
												<name>AA0044_01</name>
												<duration>578989</duration>
												<rate>
													<ntsc>TRUE</ntsc>
													<timebase>24</timebase>
												</rate>
												<in>0</in>
												<out>578989</out>
												<start>0</start>
												<end>578989</end>
												<subframeoffset>0</subframeoffset>
												<anamorphic>FALSE</anamorphic>
												<masterclipid>AA0044_01 1</masterclipid>
												<syncoffset>0</syncoffset>
												<logginginfo>
													<scene/>
													<shottake/>
													<lognote/>
													<good>FALSE</good>
												</logginginfo>
												<labels>
													<label>Alternate Shots</label>
													<label2/>
												</labels>
												<comments>
													<mastercomment1/>
													<mastercomment2/>
													<mastercomment3/>
													<mastercomment4/>
												</comments>
												<file id="AA0044_01 3"/>
												<filter>
													<effect>
														<name>Audio Levels</name>
														<effectid>audiolevels</effectid>
														<effectcategory>audiolevels</effectcategory>
														<effecttype>audiolevels</effecttype>
														<mediatype>audio</mediatype>
														<parameter>
															<name>Level</name>
															<parameterid>level</parameterid>
															<valuemin>0</valuemin>
															<valuemax>3.98109</valuemax>
															<value>1</value>
														</parameter>
													</effect>
												</filter>
												<filter>
													<effect>
														<name>Audio Pan</name>
														<effectid>audiopan</effectid>
														<effectcategory>audiopan</effectcategory>
														<effecttype>audiopan</effecttype>
														<mediatype>audio</mediatype>
														<parameter>
															<name>Pan</name>
															<parameterid>pan</parameterid>
															<valuemin>-1</valuemin>
															<valuemax>1</valuemax>
															<value>0</value>
														</parameter>
													</effect>
												</filter>
												<sourcetrack>
													<mediatype>audio</mediatype>
													<trackindex>1</trackindex>
												</sourcetrack>
												<link>
													<linkclipref>AA0044_01 2</linkclipref>
													<mediatype>video</mediatype>
													<trackindex>1</trackindex>
													<clipindex>1</clipindex>
												</link>
												<link>
													<linkclipref>AA0044_01 4</linkclipref>
													<mediatype>audio</mediatype>
													<trackindex>1</trackindex>
													<clipindex>1</clipindex>
												</link>
												<link>
													<linkclipref>AA0044_01 5</linkclipref>
													<mediatype>audio</mediatype>
													<trackindex>2</trackindex>
													<clipindex>1</clipindex>
												</link>
												<mediadelay>197573</mediadelay>
												<itemhistory>
													<uuid>2CFCDC2E-A53C-4D89-82F0-97F8E28AA1F1</uuid>
												</itemhistory>
											</clipitem>
											<enabled>TRUE</enabled>
											<locked>FALSE</locked>
										</track>
										<track>
											<clipitem id="AA0044_01 5">
												<name>AA0044_01</name>
												<duration>578989</duration>
												<rate>
													<ntsc>TRUE</ntsc>
													<timebase>24</timebase>
												</rate>
												<in>0</in>
												<out>578989</out>
												<start>0</start>
												<end>578989</end>
												<subframeoffset>0</subframeoffset>
												<anamorphic>FALSE</anamorphic>
												<masterclipid>AA0044_01 1</masterclipid>
												<syncoffset>0</syncoffset>
												<logginginfo>
													<scene/>
													<shottake/>
													<lognote/>
													<good>FALSE</good>
												</logginginfo>
												<labels>
													<label>Alternate Shots</label>
													<label2/>
												</labels>
												<comments>
													<mastercomment1/>
													<mastercomment2/>
													<mastercomment3/>
													<mastercomment4/>
												</comments>
												<file id="AA0044_01 3"/>
												<filter>
													<effect>
														<name>Audio Levels</name>
														<effectid>audiolevels</effectid>
														<effectcategory>audiolevels</effectcategory>
														<effecttype>audiolevels</effecttype>
														<mediatype>audio</mediatype>
														<parameter>
															<name>Level</name>
															<parameterid>level</parameterid>
															<valuemin>0</valuemin>
															<valuemax>3.98109</valuemax>
															<value>1</value>
														</parameter>
													</effect>
												</filter>
												<filter>
													<effect>
														<name>Audio Pan</name>
														<effectid>audiopan</effectid>
														<effectcategory>audiopan</effectcategory>
														<effecttype>audiopan</effecttype>
														<mediatype>audio</mediatype>
														<parameter>
															<name>Pan</name>
															<parameterid>pan</parameterid>
															<valuemin>-1</valuemin>
															<valuemax>1</valuemax>
															<value>0</value>
														</parameter>
													</effect>
												</filter>
												<sourcetrack>
													<mediatype>audio</mediatype>
													<trackindex>2</trackindex>
												</sourcetrack>
												<link>
													<linkclipref>AA0044_01 2</linkclipref>
													<mediatype>video</mediatype>
													<trackindex>1</trackindex>
													<clipindex>1</clipindex>
												</link>
												<link>
													<linkclipref>AA0044_01 4</linkclipref>
													<mediatype>audio</mediatype>
													<trackindex>1</trackindex>
													<clipindex>1</clipindex>
												</link>
												<link>
													<linkclipref>AA0044_01 5</linkclipref>
													<mediatype>audio</mediatype>
													<trackindex>2</trackindex>
													<clipindex>1</clipindex>
												</link>
												<mediadelay>197573</mediadelay>
												<itemhistory>
													<uuid>98204DED-D4A4-4F79-AE7B-4F6D5FB189EA</uuid>
												</itemhistory>
											</clipitem>
											<enabled>TRUE</enabled>
											<locked>FALSE</locked>
										</track>
										<filter>
											<effect>
												<name>Audio Levels</name>
												<effectid>audiolevels</effectid>
												<effectcategory>audiolevels</effectcategory>
												<effecttype>audiolevels</effecttype>
												<mediatype>audio</mediatype>
												<parameter>
													<name>Level</name>
													<parameterid>level</parameterid>
													<valuemin>0</valuemin>
													<valuemax>3.98109</valuemax>
													<value>1</value>
												</parameter>
											</effect>
										</filter>
									</audio>
								</media>
							</clip>
						</angle>
						<angle>
							<clip id="AA0045_01 ">
								<uuid>4D859A1A-34F9-4F37-8E27-EDED2D748DAA</uuid>
								<updatebehavior>add</updatebehavior>
								<name>AA0045_01</name>
								<duration>578989</duration>
								<rate>
									<ntsc>TRUE</ntsc>
									<timebase>24</timebase>
								</rate>
								<in>-1</in>
								<out>-1</out>
								<anamorphic>FALSE</anamorphic>
								<masterclipid>AA0045_01 1</masterclipid>
								<ismasterclip>FALSE</ismasterclip>
								<logginginfo>
									<scene/>
									<shottake/>
									<lognote/>
									<good>FALSE</good>
								</logginginfo>
								<labels>
									<label>Alternate Shots</label>
									<label2/>
								</labels>
								<comments>
									<mastercomment1/>
									<mastercomment2/>
									<mastercomment3/>
									<mastercomment4/>
								</comments>
								<media>
									<video>
										<track>
											<clipitem id="AA0045_01 2">
												<name>AA0045_01</name>
												<duration>578989</duration>
												<rate>
													<ntsc>TRUE</ntsc>
													<timebase>24</timebase>
												</rate>
												<in>0</in>
												<out>578989</out>
												<start>0</start>
												<end>578989</end>
												<pixelaspectratio>Square</pixelaspectratio>
												<anamorphic>FALSE</anamorphic>
												<alphatype>none</alphatype>
												<masterclipid>AA0045_01 1</masterclipid>
												<syncoffset>0</syncoffset>
												<logginginfo>
													<scene/>
													<shottake/>
													<lognote/>
													<good>FALSE</good>
												</logginginfo>
												<labels>
													<label>Alternate Shots</label>
													<label2/>
												</labels>
												<comments>
													<mastercomment1/>
													<mastercomment2/>
													<mastercomment3/>
													<mastercomment4/>
												</comments>
												<file id="AA0045_01 3">
													<name>AA0045_01.mov</name>
													<pathurl>file://localhost/Volumes/Share/Edit%20Share/00%20BREW%20DOGS%20S1/BD_00_San_Diego/052413/01_Video/C300/AA0045_01.mov</pathurl>
													<rate>
														<timebase>24</timebase>
														<ntsc>TRUE</ntsc>
													</rate>
													<duration>1704</duration>
													<metadata>
														<storage>QuickTime</storage>
														<key>com.apple.quicktime.creationdate</key>
														<size>24</size>
														<type>UTF8</type>
														<value>2013-05-24T13:42:06-0700</value>
													</metadata>
													<metadata>
														<storage>QuickTime</storage>
														<key>com.apple.finalcutstudio.media.history.uuid</key>
														<size>36</size>
														<type>UTF8</type>
														<value>C538706D-2C07-40D7-BA01-D4D3668C3680</value>
													</metadata>
													<metadata>
														<storage>QuickTime</storage>
														<key>com.apple.finalcutstudio.media.uuid</key>
														<size>36</size>
														<type>UTF8</type>
														<value>DE2AE02E-D162-4A20-920C-B1C9649F8CE1</value>
													</metadata>
													<metadata>
														<storage>QuickTime</storage>
														<key>com.apple.proapps.reel</key>
														<size>12</size>
														<type>UTF8</type>
														<value>A02_verified</value>
													</metadata>
													<metadata>
														<storage>QuickTime</storage>
														<key>com.apple.proapps.isGood</key>
														<size>4</size>
														<type>unsigned</type>
														<value>0</value>
													</metadata>
													<metadata>
														<storage>QuickTime</storage>
														<key>com.apple.proapps.clipID</key>
														<size>36</size>
														<type>UTF8</type>
														<value>0D3DA388-3664-0580-0000-8500025A0F55</value>
													</metadata>
													<metadata>
														<storage>QuickTime</storage>
														<key>com.apple.proapps.originalFormat</key>
														<size>14</size>
														<type>UTF8</type>
														<value>Canon XF MPEG2</value>
													</metadata>
													<timecode>
														<rate>
															<timebase>24</timebase>
														</rate>
														<string>13:42:35:17</string>
														<frame>1184537</frame>
														<displayformat>NDF</displayformat>
														<source>source</source>
														<reel>
															<name>A02_verified</name>
														</reel>
													</timecode>
													<media>
														<video>
															<duration>1704</duration>
															<samplecharacteristics>
																<width>1920</width>
																<height>1080</height>
															</samplecharacteristics>
														</video>
														<audio>
															<samplecharacteristics>
																<samplerate>48000</samplerate>
																<depth>16</depth>
															</samplecharacteristics>
															<channelcount>1</channelcount>
															<layout>mono</layout>
															<audiochannel>
																<sourcechannel>1</sourcechannel>
																<channellabel>discrete</channellabel>
															</audiochannel>
														</audio>
														<audio>
															<samplecharacteristics>
																<samplerate>48000</samplerate>
																<depth>16</depth>
															</samplecharacteristics>
															<channelcount>1</channelcount>
															<layout>mono</layout>
															<audiochannel>
																<sourcechannel>2</sourcechannel>
																<channellabel>discrete</channellabel>
															</audiochannel>
														</audio>
													</media>
												</file>
												<sourcetrack>
													<mediatype>video</mediatype>
												</sourcetrack>
												<link>
													<linkclipref>AA0045_01 2</linkclipref>
													<mediatype>video</mediatype>
													<trackindex>1</trackindex>
													<clipindex>1</clipindex>
												</link>
												<link>
													<linkclipref>AA0045_01 4</linkclipref>
													<mediatype>audio</mediatype>
													<trackindex>1</trackindex>
													<clipindex>1</clipindex>
												</link>
												<link>
													<linkclipref>AA0045_01 5</linkclipref>
													<mediatype>audio</mediatype>
													<trackindex>2</trackindex>
													<clipindex>1</clipindex>
												</link>
												<fielddominance>none</fielddominance>
												<mediadelay>198245</mediadelay>
												<itemhistory>
													<uuid>5CC66E89-84FA-4DE9-9F89-46583F9E02FC</uuid>
												</itemhistory>
											</clipitem>
											<enabled>TRUE</enabled>
											<locked>FALSE</locked>
										</track>
									</video>
									<audio>
										<outputs>
											<group>
												<index>1</index>
												<numchannels>2</numchannels>
												<downmix>0</downmix>
												<channel>
													<index>1</index>
												</channel>
												<channel>
													<index>2</index>
												</channel>
											</group>
										</outputs>
										<in>-1</in>
										<out>-1</out>
										<track>
											<clipitem id="AA0045_01 4">
												<name>AA0045_01</name>
												<duration>578989</duration>
												<rate>
													<ntsc>TRUE</ntsc>
													<timebase>24</timebase>
												</rate>
												<in>0</in>
												<out>578989</out>
												<start>0</start>
												<end>578989</end>
												<subframeoffset>0</subframeoffset>
												<anamorphic>FALSE</anamorphic>
												<masterclipid>AA0045_01 1</masterclipid>
												<syncoffset>0</syncoffset>
												<logginginfo>
													<scene/>
													<shottake/>
													<lognote/>
													<good>FALSE</good>
												</logginginfo>
												<labels>
													<label>Alternate Shots</label>
													<label2/>
												</labels>
												<comments>
													<mastercomment1/>
													<mastercomment2/>
													<mastercomment3/>
													<mastercomment4/>
												</comments>
												<file id="AA0045_01 3"/>
												<filter>
													<effect>
														<name>Audio Levels</name>
														<effectid>audiolevels</effectid>
														<effectcategory>audiolevels</effectcategory>
														<effecttype>audiolevels</effecttype>
														<mediatype>audio</mediatype>
														<parameter>
															<name>Level</name>
															<parameterid>level</parameterid>
															<valuemin>0</valuemin>
															<valuemax>3.98109</valuemax>
															<value>1</value>
														</parameter>
													</effect>
												</filter>
												<filter>
													<effect>
														<name>Audio Pan</name>
														<effectid>audiopan</effectid>
														<effectcategory>audiopan</effectcategory>
														<effecttype>audiopan</effecttype>
														<mediatype>audio</mediatype>
														<parameter>
															<name>Pan</name>
															<parameterid>pan</parameterid>
															<valuemin>-1</valuemin>
															<valuemax>1</valuemax>
															<value>0</value>
														</parameter>
													</effect>
												</filter>
												<sourcetrack>
													<mediatype>audio</mediatype>
													<trackindex>1</trackindex>
												</sourcetrack>
												<link>
													<linkclipref>AA0045_01 2</linkclipref>
													<mediatype>video</mediatype>
													<trackindex>1</trackindex>
													<clipindex>1</clipindex>
												</link>
												<link>
													<linkclipref>AA0045_01 4</linkclipref>
													<mediatype>audio</mediatype>
													<trackindex>1</trackindex>
													<clipindex>1</clipindex>
												</link>
												<link>
													<linkclipref>AA0045_01 5</linkclipref>
													<mediatype>audio</mediatype>
													<trackindex>2</trackindex>
													<clipindex>1</clipindex>
												</link>
												<mediadelay>198245</mediadelay>
												<itemhistory>
													<uuid>288E0064-5A65-43D5-8485-95F3EDA61060</uuid>
												</itemhistory>
											</clipitem>
											<enabled>TRUE</enabled>
											<locked>FALSE</locked>
										</track>
										<track>
											<clipitem id="AA0045_01 5">
												<name>AA0045_01</name>
												<duration>578989</duration>
												<rate>
													<ntsc>TRUE</ntsc>
													<timebase>24</timebase>
												</rate>
												<in>0</in>
												<out>578989</out>
												<start>0</start>
												<end>578989</end>
												<subframeoffset>0</subframeoffset>
												<anamorphic>FALSE</anamorphic>
												<masterclipid>AA0045_01 1</masterclipid>
												<syncoffset>0</syncoffset>
												<logginginfo>
													<scene/>
													<shottake/>
													<lognote/>
													<good>FALSE</good>
												</logginginfo>
												<labels>
													<label>Alternate Shots</label>
													<label2/>
												</labels>
												<comments>
													<mastercomment1/>
													<mastercomment2/>
													<mastercomment3/>
													<mastercomment4/>
												</comments>
												<file id="AA0045_01 3"/>
												<filter>
													<effect>
														<name>Audio Levels</name>
														<effectid>audiolevels</effectid>
														<effectcategory>audiolevels</effectcategory>
														<effecttype>audiolevels</effecttype>
														<mediatype>audio</mediatype>
														<parameter>
															<name>Level</name>
															<parameterid>level</parameterid>
															<valuemin>0</valuemin>
															<valuemax>3.98109</valuemax>
															<value>1</value>
														</parameter>
													</effect>
												</filter>
												<filter>
													<effect>
														<name>Audio Pan</name>
														<effectid>audiopan</effectid>
														<effectcategory>audiopan</effectcategory>
														<effecttype>audiopan</effecttype>
														<mediatype>audio</mediatype>
														<parameter>
															<name>Pan</name>
															<parameterid>pan</parameterid>
															<valuemin>-1</valuemin>
															<valuemax>1</valuemax>
															<value>0</value>
														</parameter>
													</effect>
												</filter>
												<sourcetrack>
													<mediatype>audio</mediatype>
													<trackindex>2</trackindex>
												</sourcetrack>
												<link>
													<linkclipref>AA0045_01 2</linkclipref>
													<mediatype>video</mediatype>
													<trackindex>1</trackindex>
													<clipindex>1</clipindex>
												</link>
												<link>
													<linkclipref>AA0045_01 4</linkclipref>
													<mediatype>audio</mediatype>
													<trackindex>1</trackindex>
													<clipindex>1</clipindex>
												</link>
												<link>
													<linkclipref>AA0045_01 5</linkclipref>
													<mediatype>audio</mediatype>
													<trackindex>2</trackindex>
													<clipindex>1</clipindex>
												</link>
												<mediadelay>198245</mediadelay>
												<itemhistory>
													<uuid>C85FF03D-A6D6-467E-89E2-557D621057F4</uuid>
												</itemhistory>
											</clipitem>
											<enabled>TRUE</enabled>
											<locked>FALSE</locked>
										</track>
										<filter>
											<effect>
												<name>Audio Levels</name>
												<effectid>audiolevels</effectid>
												<effectcategory>audiolevels</effectcategory>
												<effecttype>audiolevels</effecttype>
												<mediatype>audio</mediatype>
												<parameter>
													<name>Level</name>
													<parameterid>level</parameterid>
													<valuemin>0</valuemin>
													<valuemax>3.98109</valuemax>
													<value>1</value>
												</parameter>
											</effect>
										</filter>
									</audio>
								</media>
							</clip>
						</angle>
						<angle>
							<clip id="AA0047_01 ">
								<uuid>D33872F4-0BCD-4E20-A783-E33400253CA8</uuid>
								<updatebehavior>add</updatebehavior>
								<name>AA0047_01</name>
								<duration>578989</duration>
								<rate>
									<ntsc>TRUE</ntsc>
									<timebase>24</timebase>
								</rate>
								<in>-1</in>
								<out>-1</out>
								<anamorphic>FALSE</anamorphic>
								<masterclipid>AA0047_01 1</masterclipid>
								<ismasterclip>FALSE</ismasterclip>
								<logginginfo>
									<scene/>
									<shottake/>
									<lognote/>
									<good>FALSE</good>
								</logginginfo>
								<labels>
									<label>Alternate Shots</label>
									<label2/>
								</labels>
								<comments>
									<mastercomment1/>
									<mastercomment2/>
									<mastercomment3/>
									<mastercomment4/>
								</comments>
								<media>
									<video>
										<track>
											<clipitem id="AA0047_01 2">
												<name>AA0047_01</name>
												<duration>578989</duration>
												<rate>
													<ntsc>TRUE</ntsc>
													<timebase>24</timebase>
												</rate>
												<in>0</in>
												<out>578989</out>
												<start>0</start>
												<end>578989</end>
												<pixelaspectratio>Square</pixelaspectratio>
												<anamorphic>FALSE</anamorphic>
												<alphatype>none</alphatype>
												<masterclipid>AA0047_01 1</masterclipid>
												<syncoffset>0</syncoffset>
												<logginginfo>
													<scene/>
													<shottake/>
													<lognote/>
													<good>FALSE</good>
												</logginginfo>
												<labels>
													<label>Alternate Shots</label>
													<label2/>
												</labels>
												<comments>
													<mastercomment1/>
													<mastercomment2/>
													<mastercomment3/>
													<mastercomment4/>
												</comments>
												<file id="AA0047_01 3">
													<name>AA0047_01.mov</name>
													<pathurl>file://localhost/Volumes/Share/Edit%20Share/00%20BREW%20DOGS%20S1/BD_00_San_Diego/052413/01_Video/C300/AA0047_01.mov</pathurl>
													<rate>
														<timebase>24</timebase>
														<ntsc>TRUE</ntsc>
													</rate>
													<duration>15828</duration>
													<metadata>
														<storage>QuickTime</storage>
														<key>com.apple.quicktime.creationdate</key>
														<size>24</size>
														<type>UTF8</type>
														<value>2013-05-24T17:07:58-0700</value>
													</metadata>
													<metadata>
														<storage>QuickTime</storage>
														<key>com.apple.finalcutstudio.media.history.uuid</key>
														<size>36</size>
														<type>UTF8</type>
														<value>CFD6CD08-1435-4693-80D2-6A59630C3605</value>
													</metadata>
													<metadata>
														<storage>QuickTime</storage>
														<key>com.apple.finalcutstudio.media.uuid</key>
														<size>36</size>
														<type>UTF8</type>
														<value>5F24B2DA-5F20-4E2F-A597-2078AB34511E</value>
													</metadata>
													<metadata>
														<storage>QuickTime</storage>
														<key>com.apple.proapps.reel</key>
														<size>12</size>
														<type>UTF8</type>
														<value>A03_verified</value>
													</metadata>
													<metadata>
														<storage>QuickTime</storage>
														<key>com.apple.proapps.isGood</key>
														<size>4</size>
														<type>unsigned</type>
														<value>0</value>
													</metadata>
													<metadata>
														<storage>QuickTime</storage>
														<key>com.apple.proapps.clipID</key>
														<size>36</size>
														<type>UTF8</type>
														<value>0D48F288-3664-0580-0000-8500025A0F55</value>
													</metadata>
													<metadata>
														<storage>QuickTime</storage>
														<key>com.apple.proapps.originalFormat</key>
														<size>14</size>
														<type>UTF8</type>
														<value>Canon XF MPEG2</value>
													</metadata>
													<timecode>
														<rate>
															<timebase>24</timebase>
														</rate>
														<string>17:08:15:09</string>
														<frame>1480689</frame>
														<displayformat>NDF</displayformat>
														<source>source</source>
														<reel>
															<name>A03_verified</name>
														</reel>
													</timecode>
													<media>
														<video>
															<duration>15828</duration>
															<samplecharacteristics>
																<width>1920</width>
																<height>1080</height>
															</samplecharacteristics>
														</video>
														<audio>
															<samplecharacteristics>
																<samplerate>48000</samplerate>
																<depth>16</depth>
															</samplecharacteristics>
															<channelcount>1</channelcount>
															<layout>mono</layout>
															<audiochannel>
																<sourcechannel>1</sourcechannel>
																<channellabel>discrete</channellabel>
															</audiochannel>
														</audio>
														<audio>
															<samplecharacteristics>
																<samplerate>48000</samplerate>
																<depth>16</depth>
															</samplecharacteristics>
															<channelcount>1</channelcount>
															<layout>mono</layout>
															<audiochannel>
																<sourcechannel>2</sourcechannel>
																<channellabel>discrete</channellabel>
															</audiochannel>
														</audio>
													</media>
												</file>
												<sourcetrack>
													<mediatype>video</mediatype>
												</sourcetrack>
												<link>
													<linkclipref>AA0047_01 2</linkclipref>
													<mediatype>video</mediatype>
													<trackindex>1</trackindex>
													<clipindex>1</clipindex>
												</link>
												<link>
													<linkclipref>AA0047_01 4</linkclipref>
													<mediatype>audio</mediatype>
													<trackindex>1</trackindex>
													<clipindex>1</clipindex>
												</link>
												<link>
													<linkclipref>AA0047_01 5</linkclipref>
													<mediatype>audio</mediatype>
													<trackindex>2</trackindex>
													<clipindex>1</clipindex>
												</link>
												<fielddominance>none</fielddominance>
												<mediadelay>494397</mediadelay>
												<itemhistory>
													<uuid>E02B6579-9959-44FC-8E58-F795691F35B1</uuid>
												</itemhistory>
											</clipitem>
											<enabled>TRUE</enabled>
											<locked>FALSE</locked>
										</track>
									</video>
									<audio>
										<outputs>
											<group>
												<index>1</index>
												<numchannels>2</numchannels>
												<downmix>0</downmix>
												<channel>
													<index>1</index>
												</channel>
												<channel>
													<index>2</index>
												</channel>
											</group>
										</outputs>
										<in>-1</in>
										<out>-1</out>
										<track>
											<clipitem id="AA0047_01 4">
												<name>AA0047_01</name>
												<duration>578989</duration>
												<rate>
													<ntsc>TRUE</ntsc>
													<timebase>24</timebase>
												</rate>
												<in>0</in>
												<out>578989</out>
												<start>0</start>
												<end>578989</end>
												<subframeoffset>0</subframeoffset>
												<anamorphic>FALSE</anamorphic>
												<masterclipid>AA0047_01 1</masterclipid>
												<syncoffset>0</syncoffset>
												<logginginfo>
													<scene/>
													<shottake/>
													<lognote/>
													<good>FALSE</good>
												</logginginfo>
												<labels>
													<label>Alternate Shots</label>
													<label2/>
												</labels>
												<comments>
													<mastercomment1/>
													<mastercomment2/>
													<mastercomment3/>
													<mastercomment4/>
												</comments>
												<file id="AA0047_01 3"/>
												<filter>
													<effect>
														<name>Audio Levels</name>
														<effectid>audiolevels</effectid>
														<effectcategory>audiolevels</effectcategory>
														<effecttype>audiolevels</effecttype>
														<mediatype>audio</mediatype>
														<parameter>
															<name>Level</name>
															<parameterid>level</parameterid>
															<valuemin>0</valuemin>
															<valuemax>3.98109</valuemax>
															<value>1</value>
														</parameter>
													</effect>
												</filter>
												<filter>
													<effect>
														<name>Audio Pan</name>
														<effectid>audiopan</effectid>
														<effectcategory>audiopan</effectcategory>
														<effecttype>audiopan</effecttype>
														<mediatype>audio</mediatype>
														<parameter>
															<name>Pan</name>
															<parameterid>pan</parameterid>
															<valuemin>-1</valuemin>
															<valuemax>1</valuemax>
															<value>0</value>
														</parameter>
													</effect>
												</filter>
												<sourcetrack>
													<mediatype>audio</mediatype>
													<trackindex>1</trackindex>
												</sourcetrack>
												<link>
													<linkclipref>AA0047_01 2</linkclipref>
													<mediatype>video</mediatype>
													<trackindex>1</trackindex>
													<clipindex>1</clipindex>
												</link>
												<link>
													<linkclipref>AA0047_01 4</linkclipref>
													<mediatype>audio</mediatype>
													<trackindex>1</trackindex>
													<clipindex>1</clipindex>
												</link>
												<link>
													<linkclipref>AA0047_01 5</linkclipref>
													<mediatype>audio</mediatype>
													<trackindex>2</trackindex>
													<clipindex>1</clipindex>
												</link>
												<mediadelay>494397</mediadelay>
												<itemhistory>
													<uuid>02BAB0D9-FB95-4F91-A0C0-0DC6E9562DA0</uuid>
												</itemhistory>
											</clipitem>
											<enabled>TRUE</enabled>
											<locked>FALSE</locked>
										</track>
										<track>
											<clipitem id="AA0047_01 5">
												<name>AA0047_01</name>
												<duration>578989</duration>
												<rate>
													<ntsc>TRUE</ntsc>
													<timebase>24</timebase>
												</rate>
												<in>0</in>
												<out>578989</out>
												<start>0</start>
												<end>578989</end>
												<subframeoffset>0</subframeoffset>
												<anamorphic>FALSE</anamorphic>
												<masterclipid>AA0047_01 1</masterclipid>
												<syncoffset>0</syncoffset>
												<logginginfo>
													<scene/>
													<shottake/>
													<lognote/>
													<good>FALSE</good>
												</logginginfo>
												<labels>
													<label>Alternate Shots</label>
													<label2/>
												</labels>
												<comments>
													<mastercomment1/>
													<mastercomment2/>
													<mastercomment3/>
													<mastercomment4/>
												</comments>
												<file id="AA0047_01 3"/>
												<filter>
													<effect>
														<name>Audio Levels</name>
														<effectid>audiolevels</effectid>
														<effectcategory>audiolevels</effectcategory>
														<effecttype>audiolevels</effecttype>
														<mediatype>audio</mediatype>
														<parameter>
															<name>Level</name>
															<parameterid>level</parameterid>
															<valuemin>0</valuemin>
															<valuemax>3.98109</valuemax>
															<value>1</value>
														</parameter>
													</effect>
												</filter>
												<filter>
													<effect>
														<name>Audio Pan</name>
														<effectid>audiopan</effectid>
														<effectcategory>audiopan</effectcategory>
														<effecttype>audiopan</effecttype>
														<mediatype>audio</mediatype>
														<parameter>
															<name>Pan</name>
															<parameterid>pan</parameterid>
															<valuemin>-1</valuemin>
															<valuemax>1</valuemax>
															<value>0</value>
														</parameter>
													</effect>
												</filter>
												<sourcetrack>
													<mediatype>audio</mediatype>
													<trackindex>2</trackindex>
												</sourcetrack>
												<link>
													<linkclipref>AA0047_01 2</linkclipref>
													<mediatype>video</mediatype>
													<trackindex>1</trackindex>
													<clipindex>1</clipindex>
												</link>
												<link>
													<linkclipref>AA0047_01 4</linkclipref>
													<mediatype>audio</mediatype>
													<trackindex>1</trackindex>
													<clipindex>1</clipindex>
												</link>
												<link>
													<linkclipref>AA0047_01 5</linkclipref>
													<mediatype>audio</mediatype>
													<trackindex>2</trackindex>
													<clipindex>1</clipindex>
												</link>
												<mediadelay>494397</mediadelay>
												<itemhistory>
													<uuid>B953B95D-933D-4EC3-AE45-E19728CBC85B</uuid>
												</itemhistory>
											</clipitem>
											<enabled>TRUE</enabled>
											<locked>FALSE</locked>
										</track>
										<filter>
											<effect>
												<name>Audio Levels</name>
												<effectid>audiolevels</effectid>
												<effectcategory>audiolevels</effectcategory>
												<effecttype>audiolevels</effecttype>
												<mediatype>audio</mediatype>
												<parameter>
													<name>Level</name>
													<parameterid>level</parameterid>
													<valuemin>0</valuemin>
													<valuemax>3.98109</valuemax>
													<value>1</value>
												</parameter>
											</effect>
										</filter>
									</audio>
								</media>
							</clip>
						</angle>
						<angle>
							<clip id="AA0048_01 ">
								<uuid>6EE76188-0655-416C-8B8B-F5AB563A6474</uuid>
								<updatebehavior>add</updatebehavior>
								<name>AA0048_01</name>
								<duration>578989</duration>
								<rate>
									<ntsc>TRUE</ntsc>
									<timebase>24</timebase>
								</rate>
								<in>-1</in>
								<out>-1</out>
								<anamorphic>FALSE</anamorphic>
								<masterclipid>AA0048_01 1</masterclipid>
								<ismasterclip>FALSE</ismasterclip>
								<logginginfo>
									<scene/>
									<shottake/>
									<lognote/>
									<good>FALSE</good>
								</logginginfo>
								<labels>
									<label>Alternate Shots</label>
									<label2/>
								</labels>
								<comments>
									<mastercomment1/>
									<mastercomment2/>
									<mastercomment3/>
									<mastercomment4/>
								</comments>
								<media>
									<video>
										<track>
											<clipitem id="AA0048_01 2">
												<name>AA0048_01</name>
												<duration>578989</duration>
												<rate>
													<ntsc>TRUE</ntsc>
													<timebase>24</timebase>
												</rate>
												<in>0</in>
												<out>578989</out>
												<start>0</start>
												<end>578989</end>
												<pixelaspectratio>Square</pixelaspectratio>
												<anamorphic>FALSE</anamorphic>
												<alphatype>none</alphatype>
												<masterclipid>AA0048_01 1</masterclipid>
												<syncoffset>0</syncoffset>
												<logginginfo>
													<scene/>
													<shottake/>
													<lognote/>
													<good>FALSE</good>
												</logginginfo>
												<labels>
													<label>Alternate Shots</label>
													<label2/>
												</labels>
												<comments>
													<mastercomment1/>
													<mastercomment2/>
													<mastercomment3/>
													<mastercomment4/>
												</comments>
												<file id="AA0048_01 3">
													<name>AA0048_01.mov</name>
													<pathurl>file://localhost/Volumes/Share/Edit%20Share/00%20BREW%20DOGS%20S1/BD_00_San_Diego/052413/01_Video/C300/AA0048_01.mov</pathurl>
													<rate>
														<timebase>24</timebase>
														<ntsc>TRUE</ntsc>
													</rate>
													<duration>60</duration>
													<metadata>
														<storage>QuickTime</storage>
														<key>com.apple.quicktime.creationdate</key>
														<size>24</size>
														<type>UTF8</type>
														<value>2013-05-24T17:22:36-0700</value>
													</metadata>
													<metadata>
														<storage>QuickTime</storage>
														<key>com.apple.finalcutstudio.media.history.uuid</key>
														<size>36</size>
														<type>UTF8</type>
														<value>39BF196E-117E-4287-A7ED-36F66A6371B4</value>
													</metadata>
													<metadata>
														<storage>QuickTime</storage>
														<key>com.apple.finalcutstudio.media.uuid</key>
														<size>36</size>
														<type>UTF8</type>
														<value>1593FF46-6377-4CD6-A250-FFFD5F79FAAF</value>
													</metadata>
													<metadata>
														<storage>QuickTime</storage>
														<key>com.apple.proapps.reel</key>
														<size>12</size>
														<type>UTF8</type>
														<value>A03_verified</value>
													</metadata>
													<metadata>
														<storage>QuickTime</storage>
														<key>com.apple.proapps.isGood</key>
														<size>4</size>
														<type>unsigned</type>
														<value>0</value>
													</metadata>
													<metadata>
														<storage>QuickTime</storage>
														<key>com.apple.proapps.clipID</key>
														<size>36</size>
														<type>UTF8</type>
														<value>0D49C050-3664-0580-0000-8500025A0F55</value>
													</metadata>
													<metadata>
														<storage>QuickTime</storage>
														<key>com.apple.proapps.originalFormat</key>
														<size>14</size>
														<type>UTF8</type>
														<value>Canon XF MPEG2</value>
													</metadata>
													<timecode>
														<rate>
															<timebase>24</timebase>
														</rate>
														<string>17:22:52:01</string>
														<frame>1501729</frame>
														<displayformat>NDF</displayformat>
														<source>source</source>
														<reel>
															<name>A03_verified</name>
														</reel>
													</timecode>
													<media>
														<video>
															<duration>60</duration>
															<samplecharacteristics>
																<width>1920</width>
																<height>1080</height>
															</samplecharacteristics>
														</video>
														<audio>
															<samplecharacteristics>
																<samplerate>48000</samplerate>
																<depth>16</depth>
															</samplecharacteristics>
															<channelcount>1</channelcount>
															<layout>mono</layout>
															<audiochannel>
																<sourcechannel>1</sourcechannel>
																<channellabel>discrete</channellabel>
															</audiochannel>
														</audio>
														<audio>
															<samplecharacteristics>
																<samplerate>48000</samplerate>
																<depth>16</depth>
															</samplecharacteristics>
															<channelcount>1</channelcount>
															<layout>mono</layout>
															<audiochannel>
																<sourcechannel>2</sourcechannel>
																<channellabel>discrete</channellabel>
															</audiochannel>
														</audio>
													</media>
												</file>
												<sourcetrack>
													<mediatype>video</mediatype>
												</sourcetrack>
												<link>
													<linkclipref>AA0048_01 2</linkclipref>
													<mediatype>video</mediatype>
													<trackindex>1</trackindex>
													<clipindex>1</clipindex>
												</link>
												<link>
													<linkclipref>AA0048_01 4</linkclipref>
													<mediatype>audio</mediatype>
													<trackindex>1</trackindex>
													<clipindex>1</clipindex>
												</link>
												<link>
													<linkclipref>AA0048_01 5</linkclipref>
													<mediatype>audio</mediatype>
													<trackindex>2</trackindex>
													<clipindex>1</clipindex>
												</link>
												<fielddominance>none</fielddominance>
												<mediadelay>515437</mediadelay>
												<itemhistory>
													<uuid>2D79D7ED-C1CC-454B-A5FB-B4F2DADB67A5</uuid>
												</itemhistory>
											</clipitem>
											<enabled>TRUE</enabled>
											<locked>FALSE</locked>
										</track>
									</video>
									<audio>
										<outputs>
											<group>
												<index>1</index>
												<numchannels>2</numchannels>
												<downmix>0</downmix>
												<channel>
													<index>1</index>
												</channel>
												<channel>
													<index>2</index>
												</channel>
											</group>
										</outputs>
										<in>-1</in>
										<out>-1</out>
										<track>
											<clipitem id="AA0048_01 4">
												<name>AA0048_01</name>
												<duration>578989</duration>
												<rate>
													<ntsc>TRUE</ntsc>
													<timebase>24</timebase>
												</rate>
												<in>0</in>
												<out>578989</out>
												<start>0</start>
												<end>578989</end>
												<subframeoffset>0</subframeoffset>
												<anamorphic>FALSE</anamorphic>
												<masterclipid>AA0048_01 1</masterclipid>
												<syncoffset>0</syncoffset>
												<logginginfo>
													<scene/>
													<shottake/>
													<lognote/>
													<good>FALSE</good>
												</logginginfo>
												<labels>
													<label>Alternate Shots</label>
													<label2/>
												</labels>
												<comments>
													<mastercomment1/>
													<mastercomment2/>
													<mastercomment3/>
													<mastercomment4/>
												</comments>
												<file id="AA0048_01 3"/>
												<filter>
													<effect>
														<name>Audio Levels</name>
														<effectid>audiolevels</effectid>
														<effectcategory>audiolevels</effectcategory>
														<effecttype>audiolevels</effecttype>
														<mediatype>audio</mediatype>
														<parameter>
															<name>Level</name>
															<parameterid>level</parameterid>
															<valuemin>0</valuemin>
															<valuemax>3.98109</valuemax>
															<value>1</value>
														</parameter>
													</effect>
												</filter>
												<filter>
													<effect>
														<name>Audio Pan</name>
														<effectid>audiopan</effectid>
														<effectcategory>audiopan</effectcategory>
														<effecttype>audiopan</effecttype>
														<mediatype>audio</mediatype>
														<parameter>
															<name>Pan</name>
															<parameterid>pan</parameterid>
															<valuemin>-1</valuemin>
															<valuemax>1</valuemax>
															<value>0</value>
														</parameter>
													</effect>
												</filter>
												<sourcetrack>
													<mediatype>audio</mediatype>
													<trackindex>1</trackindex>
												</sourcetrack>
												<link>
													<linkclipref>AA0048_01 2</linkclipref>
													<mediatype>video</mediatype>
													<trackindex>1</trackindex>
													<clipindex>1</clipindex>
												</link>
												<link>
													<linkclipref>AA0048_01 4</linkclipref>
													<mediatype>audio</mediatype>
													<trackindex>1</trackindex>
													<clipindex>1</clipindex>
												</link>
												<link>
													<linkclipref>AA0048_01 5</linkclipref>
													<mediatype>audio</mediatype>
													<trackindex>2</trackindex>
													<clipindex>1</clipindex>
												</link>
												<mediadelay>515437</mediadelay>
												<itemhistory>
													<uuid>5E48A441-EF82-4A0D-BB3B-6BF3154AD135</uuid>
												</itemhistory>
											</clipitem>
											<enabled>TRUE</enabled>
											<locked>FALSE</locked>
										</track>
										<track>
											<clipitem id="AA0048_01 5">
												<name>AA0048_01</name>
												<duration>578989</duration>
												<rate>
													<ntsc>TRUE</ntsc>
													<timebase>24</timebase>
												</rate>
												<in>0</in>
												<out>578989</out>
												<start>0</start>
												<end>578989</end>
												<subframeoffset>0</subframeoffset>
												<anamorphic>FALSE</anamorphic>
												<masterclipid>AA0048_01 1</masterclipid>
												<syncoffset>0</syncoffset>
												<logginginfo>
													<scene/>
													<shottake/>
													<lognote/>
													<good>FALSE</good>
												</logginginfo>
												<labels>
													<label>Alternate Shots</label>
													<label2/>
												</labels>
												<comments>
													<mastercomment1/>
													<mastercomment2/>
													<mastercomment3/>
													<mastercomment4/>
												</comments>
												<file id="AA0048_01 3"/>
												<filter>
													<effect>
														<name>Audio Levels</name>
														<effectid>audiolevels</effectid>
														<effectcategory>audiolevels</effectcategory>
														<effecttype>audiolevels</effecttype>
														<mediatype>audio</mediatype>
														<parameter>
															<name>Level</name>
															<parameterid>level</parameterid>
															<valuemin>0</valuemin>
															<valuemax>3.98109</valuemax>
															<value>1</value>
														</parameter>
													</effect>
												</filter>
												<filter>
													<effect>
														<name>Audio Pan</name>
														<effectid>audiopan</effectid>
														<effectcategory>audiopan</effectcategory>
														<effecttype>audiopan</effecttype>
														<mediatype>audio</mediatype>
														<parameter>
															<name>Pan</name>
															<parameterid>pan</parameterid>
															<valuemin>-1</valuemin>
															<valuemax>1</valuemax>
															<value>0</value>
														</parameter>
													</effect>
												</filter>
												<sourcetrack>
													<mediatype>audio</mediatype>
													<trackindex>2</trackindex>
												</sourcetrack>
												<link>
													<linkclipref>AA0048_01 2</linkclipref>
													<mediatype>video</mediatype>
													<trackindex>1</trackindex>
													<clipindex>1</clipindex>
												</link>
												<link>
													<linkclipref>AA0048_01 4</linkclipref>
													<mediatype>audio</mediatype>
													<trackindex>1</trackindex>
													<clipindex>1</clipindex>
												</link>
												<link>
													<linkclipref>AA0048_01 5</linkclipref>
													<mediatype>audio</mediatype>
													<trackindex>2</trackindex>
													<clipindex>1</clipindex>
												</link>
												<mediadelay>515437</mediadelay>
												<itemhistory>
													<uuid>275FDA37-24E8-4FD9-97CC-73827A0DC400</uuid>
												</itemhistory>
											</clipitem>
											<enabled>TRUE</enabled>
											<locked>FALSE</locked>
										</track>
										<filter>
											<effect>
												<name>Audio Levels</name>
												<effectid>audiolevels</effectid>
												<effectcategory>audiolevels</effectcategory>
												<effecttype>audiolevels</effecttype>
												<mediatype>audio</mediatype>
												<parameter>
													<name>Level</name>
													<parameterid>level</parameterid>
													<valuemin>0</valuemin>
													<valuemax>3.98109</valuemax>
													<value>1</value>
												</parameter>
											</effect>
										</filter>
									</audio>
								</media>
							</clip>
						</angle>
						<angle>
							<clip id="AA0049_01 ">
								<uuid>E4D4AFE3-645E-47E3-9412-40F2A289F7BE</uuid>
								<updatebehavior>add</updatebehavior>
								<name>AA0049_01</name>
								<duration>578989</duration>
								<rate>
									<ntsc>TRUE</ntsc>
									<timebase>24</timebase>
								</rate>
								<in>-1</in>
								<out>-1</out>
								<anamorphic>FALSE</anamorphic>
								<masterclipid>AA0049_01 1</masterclipid>
								<ismasterclip>FALSE</ismasterclip>
								<logginginfo>
									<scene/>
									<shottake/>
									<lognote/>
									<good>FALSE</good>
								</logginginfo>
								<labels>
									<label>Alternate Shots</label>
									<label2/>
								</labels>
								<comments>
									<mastercomment1/>
									<mastercomment2/>
									<mastercomment3/>
									<mastercomment4/>
								</comments>
								<media>
									<video>
										<track>
											<clipitem id="AA0049_01 2">
												<name>AA0049_01</name>
												<duration>578989</duration>
												<rate>
													<ntsc>TRUE</ntsc>
													<timebase>24</timebase>
												</rate>
												<in>0</in>
												<out>578989</out>
												<start>0</start>
												<end>578989</end>
												<pixelaspectratio>Square</pixelaspectratio>
												<anamorphic>FALSE</anamorphic>
												<alphatype>none</alphatype>
												<masterclipid>AA0049_01 1</masterclipid>
												<syncoffset>0</syncoffset>
												<logginginfo>
													<scene/>
													<shottake/>
													<lognote/>
													<good>FALSE</good>
												</logginginfo>
												<labels>
													<label>Alternate Shots</label>
													<label2/>
												</labels>
												<comments>
													<mastercomment1/>
													<mastercomment2/>
													<mastercomment3/>
													<mastercomment4/>
												</comments>
												<file id="AA0049_01 3">
													<name>AA0049_01.mov</name>
													<pathurl>file://localhost/Volumes/Share/Edit%20Share/00%20BREW%20DOGS%20S1/BD_00_San_Diego/052413/01_Video/C300/AA0049_01.mov</pathurl>
													<rate>
														<timebase>24</timebase>
														<ntsc>TRUE</ntsc>
													</rate>
													<duration>3924</duration>
													<metadata>
														<storage>QuickTime</storage>
														<key>com.apple.quicktime.creationdate</key>
														<size>24</size>
														<type>UTF8</type>
														<value>2013-05-24T17:28:45-0700</value>
													</metadata>
													<metadata>
														<storage>QuickTime</storage>
														<key>com.apple.finalcutstudio.media.history.uuid</key>
														<size>36</size>
														<type>UTF8</type>
														<value>0D63C3D8-F9BD-4DA8-9A75-E4A95F91A1E6</value>
													</metadata>
													<metadata>
														<storage>QuickTime</storage>
														<key>com.apple.finalcutstudio.media.uuid</key>
														<size>36</size>
														<type>UTF8</type>
														<value>8970B741-A1F8-495F-ACDF-A03C7C279F6A</value>
													</metadata>
													<metadata>
														<storage>QuickTime</storage>
														<key>com.apple.proapps.reel</key>
														<size>12</size>
														<type>UTF8</type>
														<value>A03_verified</value>
													</metadata>
													<metadata>
														<storage>QuickTime</storage>
														<key>com.apple.proapps.isGood</key>
														<size>4</size>
														<type>unsigned</type>
														<value>0</value>
													</metadata>
													<metadata>
														<storage>QuickTime</storage>
														<key>com.apple.proapps.clipID</key>
														<size>36</size>
														<type>UTF8</type>
														<value>0D4A16CC-3664-0580-0000-8500025A0F55</value>
													</metadata>
													<metadata>
														<storage>QuickTime</storage>
														<key>com.apple.proapps.originalFormat</key>
														<size>14</size>
														<type>UTF8</type>
														<value>Canon XF MPEG2</value>
													</metadata>
													<timecode>
														<rate>
															<timebase>24</timebase>
														</rate>
														<string>17:29:01:05</string>
														<frame>1510589</frame>
														<displayformat>NDF</displayformat>
														<source>source</source>
														<reel>
															<name>A03_verified</name>
														</reel>
													</timecode>
													<media>
														<video>
															<duration>3924</duration>
															<samplecharacteristics>
																<width>1920</width>
																<height>1080</height>
															</samplecharacteristics>
														</video>
														<audio>
															<samplecharacteristics>
																<samplerate>48000</samplerate>
																<depth>16</depth>
															</samplecharacteristics>
															<channelcount>1</channelcount>
															<layout>mono</layout>
															<audiochannel>
																<sourcechannel>1</sourcechannel>
																<channellabel>discrete</channellabel>
															</audiochannel>
														</audio>
														<audio>
															<samplecharacteristics>
																<samplerate>48000</samplerate>
																<depth>16</depth>
															</samplecharacteristics>
															<channelcount>1</channelcount>
															<layout>mono</layout>
															<audiochannel>
																<sourcechannel>2</sourcechannel>
																<channellabel>discrete</channellabel>
															</audiochannel>
														</audio>
													</media>
												</file>
												<sourcetrack>
													<mediatype>video</mediatype>
												</sourcetrack>
												<link>
													<linkclipref>AA0049_01 2</linkclipref>
													<mediatype>video</mediatype>
													<trackindex>1</trackindex>
													<clipindex>1</clipindex>
												</link>
												<link>
													<linkclipref>AA0049_01 4</linkclipref>
													<mediatype>audio</mediatype>
													<trackindex>1</trackindex>
													<clipindex>1</clipindex>
												</link>
												<link>
													<linkclipref>AA0049_01 5</linkclipref>
													<mediatype>audio</mediatype>
													<trackindex>2</trackindex>
													<clipindex>1</clipindex>
												</link>
												<fielddominance>none</fielddominance>
												<mediadelay>524297</mediadelay>
												<itemhistory>
													<uuid>4A7E8A60-1BA9-4F74-8D2D-54024D71B228</uuid>
												</itemhistory>
											</clipitem>
											<enabled>TRUE</enabled>
											<locked>FALSE</locked>
										</track>
									</video>
									<audio>
										<outputs>
											<group>
												<index>1</index>
												<numchannels>2</numchannels>
												<downmix>0</downmix>
												<channel>
													<index>1</index>
												</channel>
												<channel>
													<index>2</index>
												</channel>
											</group>
										</outputs>
										<in>-1</in>
										<out>-1</out>
										<track>
											<clipitem id="AA0049_01 4">
												<name>AA0049_01</name>
												<duration>578989</duration>
												<rate>
													<ntsc>TRUE</ntsc>
													<timebase>24</timebase>
												</rate>
												<in>0</in>
												<out>578989</out>
												<start>0</start>
												<end>578989</end>
												<subframeoffset>0</subframeoffset>
												<anamorphic>FALSE</anamorphic>
												<masterclipid>AA0049_01 1</masterclipid>
												<syncoffset>0</syncoffset>
												<logginginfo>
													<scene/>
													<shottake/>
													<lognote/>
													<good>FALSE</good>
												</logginginfo>
												<labels>
													<label>Alternate Shots</label>
													<label2/>
												</labels>
												<comments>
													<mastercomment1/>
													<mastercomment2/>
													<mastercomment3/>
													<mastercomment4/>
												</comments>
												<file id="AA0049_01 3"/>
												<filter>
													<effect>
														<name>Audio Levels</name>
														<effectid>audiolevels</effectid>
														<effectcategory>audiolevels</effectcategory>
														<effecttype>audiolevels</effecttype>
														<mediatype>audio</mediatype>
														<parameter>
															<name>Level</name>
															<parameterid>level</parameterid>
															<valuemin>0</valuemin>
															<valuemax>3.98109</valuemax>
															<value>1</value>
														</parameter>
													</effect>
												</filter>
												<filter>
													<effect>
														<name>Audio Pan</name>
														<effectid>audiopan</effectid>
														<effectcategory>audiopan</effectcategory>
														<effecttype>audiopan</effecttype>
														<mediatype>audio</mediatype>
														<parameter>
															<name>Pan</name>
															<parameterid>pan</parameterid>
															<valuemin>-1</valuemin>
															<valuemax>1</valuemax>
															<value>0</value>
														</parameter>
													</effect>
												</filter>
												<sourcetrack>
													<mediatype>audio</mediatype>
													<trackindex>1</trackindex>
												</sourcetrack>
												<link>
													<linkclipref>AA0049_01 2</linkclipref>
													<mediatype>video</mediatype>
													<trackindex>1</trackindex>
													<clipindex>1</clipindex>
												</link>
												<link>
													<linkclipref>AA0049_01 4</linkclipref>
													<mediatype>audio</mediatype>
													<trackindex>1</trackindex>
													<clipindex>1</clipindex>
												</link>
												<link>
													<linkclipref>AA0049_01 5</linkclipref>
													<mediatype>audio</mediatype>
													<trackindex>2</trackindex>
													<clipindex>1</clipindex>
												</link>
												<mediadelay>524297</mediadelay>
												<itemhistory>
													<uuid>1B08DCC3-EFFE-4F2C-BEF3-E5C8ECB3C024</uuid>
												</itemhistory>
											</clipitem>
											<enabled>TRUE</enabled>
											<locked>FALSE</locked>
										</track>
										<track>
											<clipitem id="AA0049_01 5">
												<name>AA0049_01</name>
												<duration>578989</duration>
												<rate>
													<ntsc>TRUE</ntsc>
													<timebase>24</timebase>
												</rate>
												<in>0</in>
												<out>578989</out>
												<start>0</start>
												<end>578989</end>
												<subframeoffset>0</subframeoffset>
												<anamorphic>FALSE</anamorphic>
												<masterclipid>AA0049_01 1</masterclipid>
												<syncoffset>0</syncoffset>
												<logginginfo>
													<scene/>
													<shottake/>
													<lognote/>
													<good>FALSE</good>
												</logginginfo>
												<labels>
													<label>Alternate Shots</label>
													<label2/>
												</labels>
												<comments>
													<mastercomment1/>
													<mastercomment2/>
													<mastercomment3/>
													<mastercomment4/>
												</comments>
												<file id="AA0049_01 3"/>
												<filter>
													<effect>
														<name>Audio Levels</name>
														<effectid>audiolevels</effectid>
														<effectcategory>audiolevels</effectcategory>
														<effecttype>audiolevels</effecttype>
														<mediatype>audio</mediatype>
														<parameter>
															<name>Level</name>
															<parameterid>level</parameterid>
															<valuemin>0</valuemin>
															<valuemax>3.98109</valuemax>
															<value>1</value>
														</parameter>
													</effect>
												</filter>
												<filter>
													<effect>
														<name>Audio Pan</name>
														<effectid>audiopan</effectid>
														<effectcategory>audiopan</effectcategory>
														<effecttype>audiopan</effecttype>
														<mediatype>audio</mediatype>
														<parameter>
															<name>Pan</name>
															<parameterid>pan</parameterid>
															<valuemin>-1</valuemin>
															<valuemax>1</valuemax>
															<value>0</value>
														</parameter>
													</effect>
												</filter>
												<sourcetrack>
													<mediatype>audio</mediatype>
													<trackindex>2</trackindex>
												</sourcetrack>
												<link>
													<linkclipref>AA0049_01 2</linkclipref>
													<mediatype>video</mediatype>
													<trackindex>1</trackindex>
													<clipindex>1</clipindex>
												</link>
												<link>
													<linkclipref>AA0049_01 4</linkclipref>
													<mediatype>audio</mediatype>
													<trackindex>1</trackindex>
													<clipindex>1</clipindex>
												</link>
												<link>
													<linkclipref>AA0049_01 5</linkclipref>
													<mediatype>audio</mediatype>
													<trackindex>2</trackindex>
													<clipindex>1</clipindex>
												</link>
												<mediadelay>524297</mediadelay>
												<itemhistory>
													<uuid>2D632446-E45A-48F5-A478-97CF656C9308</uuid>
												</itemhistory>
											</clipitem>
											<enabled>TRUE</enabled>
											<locked>FALSE</locked>
										</track>
										<filter>
											<effect>
												<name>Audio Levels</name>
												<effectid>audiolevels</effectid>
												<effectcategory>audiolevels</effectcategory>
												<effecttype>audiolevels</effecttype>
												<mediatype>audio</mediatype>
												<parameter>
													<name>Level</name>
													<parameterid>level</parameterid>
													<valuemin>0</valuemin>
													<valuemax>3.98109</valuemax>
													<value>1</value>
												</parameter>
											</effect>
										</filter>
									</audio>
								</media>
							</clip>
						</angle>
						<angle>
							<clip id="AA0050_01 ">
								<uuid>11992549-722C-4B78-8A0A-1402E596DB9B</uuid>
								<updatebehavior>add</updatebehavior>
								<name>AA0050_01</name>
								<duration>578989</duration>
								<rate>
									<ntsc>TRUE</ntsc>
									<timebase>24</timebase>
								</rate>
								<in>-1</in>
								<out>-1</out>
								<anamorphic>FALSE</anamorphic>
								<masterclipid>AA0050_01 1</masterclipid>
								<ismasterclip>FALSE</ismasterclip>
								<logginginfo>
									<scene/>
									<shottake/>
									<lognote/>
									<good>FALSE</good>
								</logginginfo>
								<labels>
									<label>Alternate Shots</label>
									<label2/>
								</labels>
								<comments>
									<mastercomment1/>
									<mastercomment2/>
									<mastercomment3/>
									<mastercomment4/>
								</comments>
								<media>
									<video>
										<track>
											<clipitem id="AA0050_01 2">
												<name>AA0050_01</name>
												<duration>578989</duration>
												<rate>
													<ntsc>TRUE</ntsc>
													<timebase>24</timebase>
												</rate>
												<in>0</in>
												<out>578989</out>
												<start>0</start>
												<end>578989</end>
												<pixelaspectratio>Square</pixelaspectratio>
												<anamorphic>FALSE</anamorphic>
												<alphatype>none</alphatype>
												<masterclipid>AA0050_01 1</masterclipid>
												<syncoffset>0</syncoffset>
												<logginginfo>
													<scene/>
													<shottake/>
													<lognote/>
													<good>FALSE</good>
												</logginginfo>
												<labels>
													<label>Alternate Shots</label>
													<label2/>
												</labels>
												<comments>
													<mastercomment1/>
													<mastercomment2/>
													<mastercomment3/>
													<mastercomment4/>
												</comments>
												<file id="AA0050_01 3">
													<name>AA0050_01.mov</name>
													<pathurl>file://localhost/Volumes/Share/Edit%20Share/00%20BREW%20DOGS%20S1/BD_00_San_Diego/052413/01_Video/C300/AA0050_01.mov</pathurl>
													<rate>
														<timebase>24</timebase>
														<ntsc>TRUE</ntsc>
													</rate>
													<duration>84</duration>
													<metadata>
														<storage>QuickTime</storage>
														<key>com.apple.quicktime.creationdate</key>
														<size>24</size>
														<type>UTF8</type>
														<value>2013-05-24T17:38:25-0700</value>
													</metadata>
													<metadata>
														<storage>QuickTime</storage>
														<key>com.apple.finalcutstudio.media.history.uuid</key>
														<size>36</size>
														<type>UTF8</type>
														<value>5BA3E7AA-3F1A-4064-8BE5-668A8D719942</value>
													</metadata>
													<metadata>
														<storage>QuickTime</storage>
														<key>com.apple.finalcutstudio.media.uuid</key>
														<size>36</size>
														<type>UTF8</type>
														<value>7BD7772E-6469-429E-9FF7-4FEEB1931DC6</value>
													</metadata>
													<metadata>
														<storage>QuickTime</storage>
														<key>com.apple.proapps.reel</key>
														<size>12</size>
														<type>UTF8</type>
														<value>A03_verified</value>
													</metadata>
													<metadata>
														<storage>QuickTime</storage>
														<key>com.apple.proapps.isGood</key>
														<size>4</size>
														<type>unsigned</type>
														<value>0</value>
													</metadata>
													<metadata>
														<storage>QuickTime</storage>
														<key>com.apple.proapps.clipID</key>
														<size>36</size>
														<type>UTF8</type>
														<value>0D4A9EBC-3664-0580-0000-8500025A0F55</value>
													</metadata>
													<metadata>
														<storage>QuickTime</storage>
														<key>com.apple.proapps.originalFormat</key>
														<size>14</size>
														<type>UTF8</type>
														<value>Canon XF MPEG2</value>
													</metadata>
													<timecode>
														<rate>
															<timebase>24</timebase>
														</rate>
														<string>17:38:40:09</string>
														<frame>1524489</frame>
														<displayformat>NDF</displayformat>
														<source>source</source>
														<reel>
															<name>A03_verified</name>
														</reel>
													</timecode>
													<media>
														<video>
															<duration>84</duration>
															<samplecharacteristics>
																<width>1920</width>
																<height>1080</height>
															</samplecharacteristics>
														</video>
														<audio>
															<samplecharacteristics>
																<samplerate>48000</samplerate>
																<depth>16</depth>
															</samplecharacteristics>
															<channelcount>1</channelcount>
															<layout>mono</layout>
															<audiochannel>
																<sourcechannel>1</sourcechannel>
																<channellabel>discrete</channellabel>
															</audiochannel>
														</audio>
														<audio>
															<samplecharacteristics>
																<samplerate>48000</samplerate>
																<depth>16</depth>
															</samplecharacteristics>
															<channelcount>1</channelcount>
															<layout>mono</layout>
															<audiochannel>
																<sourcechannel>2</sourcechannel>
																<channellabel>discrete</channellabel>
															</audiochannel>
														</audio>
													</media>
												</file>
												<sourcetrack>
													<mediatype>video</mediatype>
												</sourcetrack>
												<link>
													<linkclipref>AA0050_01 2</linkclipref>
													<mediatype>video</mediatype>
													<trackindex>1</trackindex>
													<clipindex>1</clipindex>
												</link>
												<link>
													<linkclipref>AA0050_01 4</linkclipref>
													<mediatype>audio</mediatype>
													<trackindex>1</trackindex>
													<clipindex>1</clipindex>
												</link>
												<link>
													<linkclipref>AA0050_01 5</linkclipref>
													<mediatype>audio</mediatype>
													<trackindex>2</trackindex>
													<clipindex>1</clipindex>
												</link>
												<fielddominance>none</fielddominance>
												<mediadelay>538197</mediadelay>
												<itemhistory>
													<uuid>2B4E8733-FE01-439E-9B83-13F5335C0FA9</uuid>
												</itemhistory>
											</clipitem>
											<enabled>TRUE</enabled>
											<locked>FALSE</locked>
										</track>
									</video>
									<audio>
										<outputs>
											<group>
												<index>1</index>
												<numchannels>2</numchannels>
												<downmix>0</downmix>
												<channel>
													<index>1</index>
												</channel>
												<channel>
													<index>2</index>
												</channel>
											</group>
										</outputs>
										<in>-1</in>
										<out>-1</out>
										<track>
											<clipitem id="AA0050_01 4">
												<name>AA0050_01</name>
												<duration>578989</duration>
												<rate>
													<ntsc>TRUE</ntsc>
													<timebase>24</timebase>
												</rate>
												<in>0</in>
												<out>578989</out>
												<start>0</start>
												<end>578989</end>
												<subframeoffset>0</subframeoffset>
												<anamorphic>FALSE</anamorphic>
												<masterclipid>AA0050_01 1</masterclipid>
												<syncoffset>0</syncoffset>
												<logginginfo>
													<scene/>
													<shottake/>
													<lognote/>
													<good>FALSE</good>
												</logginginfo>
												<labels>
													<label>Alternate Shots</label>
													<label2/>
												</labels>
												<comments>
													<mastercomment1/>
													<mastercomment2/>
													<mastercomment3/>
													<mastercomment4/>
												</comments>
												<file id="AA0050_01 3"/>
												<filter>
													<effect>
														<name>Audio Levels</name>
														<effectid>audiolevels</effectid>
														<effectcategory>audiolevels</effectcategory>
														<effecttype>audiolevels</effecttype>
														<mediatype>audio</mediatype>
														<parameter>
															<name>Level</name>
															<parameterid>level</parameterid>
															<valuemin>0</valuemin>
															<valuemax>3.98109</valuemax>
															<value>1</value>
														</parameter>
													</effect>
												</filter>
												<filter>
													<effect>
														<name>Audio Pan</name>
														<effectid>audiopan</effectid>
														<effectcategory>audiopan</effectcategory>
														<effecttype>audiopan</effecttype>
														<mediatype>audio</mediatype>
														<parameter>
															<name>Pan</name>
															<parameterid>pan</parameterid>
															<valuemin>-1</valuemin>
															<valuemax>1</valuemax>
															<value>0</value>
														</parameter>
													</effect>
												</filter>
												<sourcetrack>
													<mediatype>audio</mediatype>
													<trackindex>1</trackindex>
												</sourcetrack>
												<link>
													<linkclipref>AA0050_01 2</linkclipref>
													<mediatype>video</mediatype>
													<trackindex>1</trackindex>
													<clipindex>1</clipindex>
												</link>
												<link>
													<linkclipref>AA0050_01 4</linkclipref>
													<mediatype>audio</mediatype>
													<trackindex>1</trackindex>
													<clipindex>1</clipindex>
												</link>
												<link>
													<linkclipref>AA0050_01 5</linkclipref>
													<mediatype>audio</mediatype>
													<trackindex>2</trackindex>
													<clipindex>1</clipindex>
												</link>
												<mediadelay>538197</mediadelay>
												<itemhistory>
													<uuid>56FF8ADE-6309-4824-B888-50711882A13F</uuid>
												</itemhistory>
											</clipitem>
											<enabled>TRUE</enabled>
											<locked>FALSE</locked>
										</track>
										<track>
											<clipitem id="AA0050_01 5">
												<name>AA0050_01</name>
												<duration>578989</duration>
												<rate>
													<ntsc>TRUE</ntsc>
													<timebase>24</timebase>
												</rate>
												<in>0</in>
												<out>578989</out>
												<start>0</start>
												<end>578989</end>
												<subframeoffset>0</subframeoffset>
												<anamorphic>FALSE</anamorphic>
												<masterclipid>AA0050_01 1</masterclipid>
												<syncoffset>0</syncoffset>
												<logginginfo>
													<scene/>
													<shottake/>
													<lognote/>
													<good>FALSE</good>
												</logginginfo>
												<labels>
													<label>Alternate Shots</label>
													<label2/>
												</labels>
												<comments>
													<mastercomment1/>
													<mastercomment2/>
													<mastercomment3/>
													<mastercomment4/>
												</comments>
												<file id="AA0050_01 3"/>
												<filter>
													<effect>
														<name>Audio Levels</name>
														<effectid>audiolevels</effectid>
														<effectcategory>audiolevels</effectcategory>
														<effecttype>audiolevels</effecttype>
														<mediatype>audio</mediatype>
														<parameter>
															<name>Level</name>
															<parameterid>level</parameterid>
															<valuemin>0</valuemin>
															<valuemax>3.98109</valuemax>
															<value>1</value>
														</parameter>
													</effect>
												</filter>
												<filter>
													<effect>
														<name>Audio Pan</name>
														<effectid>audiopan</effectid>
														<effectcategory>audiopan</effectcategory>
														<effecttype>audiopan</effecttype>
														<mediatype>audio</mediatype>
														<parameter>
															<name>Pan</name>
															<parameterid>pan</parameterid>
															<valuemin>-1</valuemin>
															<valuemax>1</valuemax>
															<value>0</value>
														</parameter>
													</effect>
												</filter>
												<sourcetrack>
													<mediatype>audio</mediatype>
													<trackindex>2</trackindex>
												</sourcetrack>
												<link>
													<linkclipref>AA0050_01 2</linkclipref>
													<mediatype>video</mediatype>
													<trackindex>1</trackindex>
													<clipindex>1</clipindex>
												</link>
												<link>
													<linkclipref>AA0050_01 4</linkclipref>
													<mediatype>audio</mediatype>
													<trackindex>1</trackindex>
													<clipindex>1</clipindex>
												</link>
												<link>
													<linkclipref>AA0050_01 5</linkclipref>
													<mediatype>audio</mediatype>
													<trackindex>2</trackindex>
													<clipindex>1</clipindex>
												</link>
												<mediadelay>538197</mediadelay>
												<itemhistory>
													<uuid>228B8419-CEFE-43FC-A37B-F988AC7DE9DD</uuid>
												</itemhistory>
											</clipitem>
											<enabled>TRUE</enabled>
											<locked>FALSE</locked>
										</track>
										<filter>
											<effect>
												<name>Audio Levels</name>
												<effectid>audiolevels</effectid>
												<effectcategory>audiolevels</effectcategory>
												<effecttype>audiolevels</effecttype>
												<mediatype>audio</mediatype>
												<parameter>
													<name>Level</name>
													<parameterid>level</parameterid>
													<valuemin>0</valuemin>
													<valuemax>3.98109</valuemax>
													<value>1</value>
												</parameter>
											</effect>
										</filter>
									</audio>
								</media>
							</clip>
						</angle>
						<angle>
							<clip id="AA0051_01 ">
								<uuid>6FFACDB4-2CFA-43E3-8673-7BB0C051DEDD</uuid>
								<updatebehavior>add</updatebehavior>
								<name>AA0051_01</name>
								<duration>578989</duration>
								<rate>
									<ntsc>TRUE</ntsc>
									<timebase>24</timebase>
								</rate>
								<in>-1</in>
								<out>-1</out>
								<anamorphic>FALSE</anamorphic>
								<masterclipid>AA0051_01 1</masterclipid>
								<ismasterclip>FALSE</ismasterclip>
								<logginginfo>
									<scene/>
									<shottake/>
									<lognote/>
									<good>FALSE</good>
								</logginginfo>
								<labels>
									<label>Alternate Shots</label>
									<label2/>
								</labels>
								<comments>
									<mastercomment1/>
									<mastercomment2/>
									<mastercomment3/>
									<mastercomment4/>
								</comments>
								<media>
									<video>
										<track>
											<clipitem id="AA0051_01 2">
												<name>AA0051_01</name>
												<duration>578989</duration>
												<rate>
													<ntsc>TRUE</ntsc>
													<timebase>24</timebase>
												</rate>
												<in>0</in>
												<out>578989</out>
												<start>0</start>
												<end>578989</end>
												<pixelaspectratio>Square</pixelaspectratio>
												<anamorphic>FALSE</anamorphic>
												<alphatype>none</alphatype>
												<masterclipid>AA0051_01 1</masterclipid>
												<syncoffset>0</syncoffset>
												<logginginfo>
													<scene/>
													<shottake/>
													<lognote/>
													<good>FALSE</good>
												</logginginfo>
												<labels>
													<label>Alternate Shots</label>
													<label2/>
												</labels>
												<comments>
													<mastercomment1/>
													<mastercomment2/>
													<mastercomment3/>
													<mastercomment4/>
												</comments>
												<file id="AA0051_01 3">
													<name>AA0051_01.mov</name>
													<pathurl>file://localhost/Volumes/Share/Edit%20Share/00%20BREW%20DOGS%20S1/BD_00_San_Diego/052413/01_Video/C300/AA0051_01.mov</pathurl>
													<rate>
														<timebase>24</timebase>
														<ntsc>TRUE</ntsc>
													</rate>
													<duration>192</duration>
													<metadata>
														<storage>QuickTime</storage>
														<key>com.apple.quicktime.creationdate</key>
														<size>24</size>
														<type>UTF8</type>
														<value>2013-05-24T17:38:30-0700</value>
													</metadata>
													<metadata>
														<storage>QuickTime</storage>
														<key>com.apple.finalcutstudio.media.history.uuid</key>
														<size>36</size>
														<type>UTF8</type>
														<value>8CEE59E8-9D19-42C3-8213-05A91D1FB924</value>
													</metadata>
													<metadata>
														<storage>QuickTime</storage>
														<key>com.apple.finalcutstudio.media.uuid</key>
														<size>36</size>
														<type>UTF8</type>
														<value>5FF95135-1312-4A93-9630-27A023EDE2A7</value>
													</metadata>
													<metadata>
														<storage>QuickTime</storage>
														<key>com.apple.proapps.reel</key>
														<size>12</size>
														<type>UTF8</type>
														<value>A03_verified</value>
													</metadata>
													<metadata>
														<storage>QuickTime</storage>
														<key>com.apple.proapps.isGood</key>
														<size>4</size>
														<type>unsigned</type>
														<value>0</value>
													</metadata>
													<metadata>
														<storage>QuickTime</storage>
														<key>com.apple.proapps.clipID</key>
														<size>36</size>
														<type>UTF8</type>
														<value>0D4A9FE8-3664-0580-0000-8500025A0F55</value>
													</metadata>
													<metadata>
														<storage>QuickTime</storage>
														<key>com.apple.proapps.originalFormat</key>
														<size>14</size>
														<type>UTF8</type>
														<value>Canon XF MPEG2</value>
													</metadata>
													<timecode>
														<rate>
															<timebase>24</timebase>
														</rate>
														<string>17:38:45:09</string>
														<frame>1524609</frame>
														<displayformat>NDF</displayformat>
														<source>source</source>
														<reel>
															<name>A03_verified</name>
														</reel>
													</timecode>
													<media>
														<video>
															<duration>192</duration>
															<samplecharacteristics>
																<width>1920</width>
																<height>1080</height>
															</samplecharacteristics>
														</video>
														<audio>
															<samplecharacteristics>
																<samplerate>48000</samplerate>
																<depth>16</depth>
															</samplecharacteristics>
															<channelcount>1</channelcount>
															<layout>mono</layout>
															<audiochannel>
																<sourcechannel>1</sourcechannel>
																<channellabel>discrete</channellabel>
															</audiochannel>
														</audio>
														<audio>
															<samplecharacteristics>
																<samplerate>48000</samplerate>
																<depth>16</depth>
															</samplecharacteristics>
															<channelcount>1</channelcount>
															<layout>mono</layout>
															<audiochannel>
																<sourcechannel>2</sourcechannel>
																<channellabel>discrete</channellabel>
															</audiochannel>
														</audio>
													</media>
												</file>
												<sourcetrack>
													<mediatype>video</mediatype>
												</sourcetrack>
												<link>
													<linkclipref>AA0051_01 2</linkclipref>
													<mediatype>video</mediatype>
													<trackindex>1</trackindex>
													<clipindex>1</clipindex>
												</link>
												<link>
													<linkclipref>AA0051_01 4</linkclipref>
													<mediatype>audio</mediatype>
													<trackindex>1</trackindex>
													<clipindex>1</clipindex>
												</link>
												<link>
													<linkclipref>AA0051_01 5</linkclipref>
													<mediatype>audio</mediatype>
													<trackindex>2</trackindex>
													<clipindex>1</clipindex>
												</link>
												<fielddominance>none</fielddominance>
												<mediadelay>538317</mediadelay>
												<itemhistory>
													<uuid>AA26440C-AF05-41DD-ADB6-0F4FBA3C6C05</uuid>
												</itemhistory>
											</clipitem>
											<enabled>TRUE</enabled>
											<locked>FALSE</locked>
										</track>
									</video>
									<audio>
										<outputs>
											<group>
												<index>1</index>
												<numchannels>2</numchannels>
												<downmix>0</downmix>
												<channel>
													<index>1</index>
												</channel>
												<channel>
													<index>2</index>
												</channel>
											</group>
										</outputs>
										<in>-1</in>
										<out>-1</out>
										<track>
											<clipitem id="AA0051_01 4">
												<name>AA0051_01</name>
												<duration>578989</duration>
												<rate>
													<ntsc>TRUE</ntsc>
													<timebase>24</timebase>
												</rate>
												<in>0</in>
												<out>578989</out>
												<start>0</start>
												<end>578989</end>
												<subframeoffset>0</subframeoffset>
												<anamorphic>FALSE</anamorphic>
												<masterclipid>AA0051_01 1</masterclipid>
												<syncoffset>0</syncoffset>
												<logginginfo>
													<scene/>
													<shottake/>
													<lognote/>
													<good>FALSE</good>
												</logginginfo>
												<labels>
													<label>Alternate Shots</label>
													<label2/>
												</labels>
												<comments>
													<mastercomment1/>
													<mastercomment2/>
													<mastercomment3/>
													<mastercomment4/>
												</comments>
												<file id="AA0051_01 3"/>
												<filter>
													<effect>
														<name>Audio Levels</name>
														<effectid>audiolevels</effectid>
														<effectcategory>audiolevels</effectcategory>
														<effecttype>audiolevels</effecttype>
														<mediatype>audio</mediatype>
														<parameter>
															<name>Level</name>
															<parameterid>level</parameterid>
															<valuemin>0</valuemin>
															<valuemax>3.98109</valuemax>
															<value>1</value>
														</parameter>
													</effect>
												</filter>
												<filter>
													<effect>
														<name>Audio Pan</name>
														<effectid>audiopan</effectid>
														<effectcategory>audiopan</effectcategory>
														<effecttype>audiopan</effecttype>
														<mediatype>audio</mediatype>
														<parameter>
															<name>Pan</name>
															<parameterid>pan</parameterid>
															<valuemin>-1</valuemin>
															<valuemax>1</valuemax>
															<value>0</value>
														</parameter>
													</effect>
												</filter>
												<sourcetrack>
													<mediatype>audio</mediatype>
													<trackindex>1</trackindex>
												</sourcetrack>
												<link>
													<linkclipref>AA0051_01 2</linkclipref>
													<mediatype>video</mediatype>
													<trackindex>1</trackindex>
													<clipindex>1</clipindex>
												</link>
												<link>
													<linkclipref>AA0051_01 4</linkclipref>
													<mediatype>audio</mediatype>
													<trackindex>1</trackindex>
													<clipindex>1</clipindex>
												</link>
												<link>
													<linkclipref>AA0051_01 5</linkclipref>
													<mediatype>audio</mediatype>
													<trackindex>2</trackindex>
													<clipindex>1</clipindex>
												</link>
												<mediadelay>538317</mediadelay>
												<itemhistory>
													<uuid>9B5722E7-D2F2-4910-A5B4-E2BFE992403B</uuid>
												</itemhistory>
											</clipitem>
											<enabled>TRUE</enabled>
											<locked>FALSE</locked>
										</track>
										<track>
											<clipitem id="AA0051_01 5">
												<name>AA0051_01</name>
												<duration>578989</duration>
												<rate>
													<ntsc>TRUE</ntsc>
													<timebase>24</timebase>
												</rate>
												<in>0</in>
												<out>578989</out>
												<start>0</start>
												<end>578989</end>
												<subframeoffset>0</subframeoffset>
												<anamorphic>FALSE</anamorphic>
												<masterclipid>AA0051_01 1</masterclipid>
												<syncoffset>0</syncoffset>
												<logginginfo>
													<scene/>
													<shottake/>
													<lognote/>
													<good>FALSE</good>
												</logginginfo>
												<labels>
													<label>Alternate Shots</label>
													<label2/>
												</labels>
												<comments>
													<mastercomment1/>
													<mastercomment2/>
													<mastercomment3/>
													<mastercomment4/>
												</comments>
												<file id="AA0051_01 3"/>
												<filter>
													<effect>
														<name>Audio Levels</name>
														<effectid>audiolevels</effectid>
														<effectcategory>audiolevels</effectcategory>
														<effecttype>audiolevels</effecttype>
														<mediatype>audio</mediatype>
														<parameter>
															<name>Level</name>
															<parameterid>level</parameterid>
															<valuemin>0</valuemin>
															<valuemax>3.98109</valuemax>
															<value>1</value>
														</parameter>
													</effect>
												</filter>
												<filter>
													<effect>
														<name>Audio Pan</name>
														<effectid>audiopan</effectid>
														<effectcategory>audiopan</effectcategory>
														<effecttype>audiopan</effecttype>
														<mediatype>audio</mediatype>
														<parameter>
															<name>Pan</name>
															<parameterid>pan</parameterid>
															<valuemin>-1</valuemin>
															<valuemax>1</valuemax>
															<value>0</value>
														</parameter>
													</effect>
												</filter>
												<sourcetrack>
													<mediatype>audio</mediatype>
													<trackindex>2</trackindex>
												</sourcetrack>
												<link>
													<linkclipref>AA0051_01 2</linkclipref>
													<mediatype>video</mediatype>
													<trackindex>1</trackindex>
													<clipindex>1</clipindex>
												</link>
												<link>
													<linkclipref>AA0051_01 4</linkclipref>
													<mediatype>audio</mediatype>
													<trackindex>1</trackindex>
													<clipindex>1</clipindex>
												</link>
												<link>
													<linkclipref>AA0051_01 5</linkclipref>
													<mediatype>audio</mediatype>
													<trackindex>2</trackindex>
													<clipindex>1</clipindex>
												</link>
												<mediadelay>538317</mediadelay>
												<itemhistory>
													<uuid>24BCA448-251C-4750-9B5C-568D24EDAF05</uuid>
												</itemhistory>
											</clipitem>
											<enabled>TRUE</enabled>
											<locked>FALSE</locked>
										</track>
										<filter>
											<effect>
												<name>Audio Levels</name>
												<effectid>audiolevels</effectid>
												<effectcategory>audiolevels</effectcategory>
												<effecttype>audiolevels</effecttype>
												<mediatype>audio</mediatype>
												<parameter>
													<name>Level</name>
													<parameterid>level</parameterid>
													<valuemin>0</valuemin>
													<valuemax>3.98109</valuemax>
													<value>1</value>
												</parameter>
											</effect>
										</filter>
									</audio>
								</media>
							</clip>
						</angle>
						<angle>
							<clip id="AA0052_01 ">
								<uuid>E416B9E2-677A-41F8-8EE3-C9F097B5C062</uuid>
								<updatebehavior>add</updatebehavior>
								<name>AA0052_01</name>
								<duration>578989</duration>
								<rate>
									<ntsc>TRUE</ntsc>
									<timebase>24</timebase>
								</rate>
								<in>-1</in>
								<out>-1</out>
								<anamorphic>FALSE</anamorphic>
								<masterclipid>AA0052_01 1</masterclipid>
								<ismasterclip>FALSE</ismasterclip>
								<logginginfo>
									<scene/>
									<shottake/>
									<lognote/>
									<good>FALSE</good>
								</logginginfo>
								<labels>
									<label>Alternate Shots</label>
									<label2/>
								</labels>
								<comments>
									<mastercomment1/>
									<mastercomment2/>
									<mastercomment3/>
									<mastercomment4/>
								</comments>
								<media>
									<video>
										<track>
											<clipitem id="AA0052_01 2">
												<name>AA0052_01</name>
												<duration>578989</duration>
												<rate>
													<ntsc>TRUE</ntsc>
													<timebase>24</timebase>
												</rate>
												<in>0</in>
												<out>578989</out>
												<start>0</start>
												<end>578989</end>
												<pixelaspectratio>Square</pixelaspectratio>
												<anamorphic>FALSE</anamorphic>
												<alphatype>none</alphatype>
												<masterclipid>AA0052_01 1</masterclipid>
												<syncoffset>0</syncoffset>
												<logginginfo>
													<scene/>
													<shottake/>
													<lognote/>
													<good>FALSE</good>
												</logginginfo>
												<labels>
													<label>Alternate Shots</label>
													<label2/>
												</labels>
												<comments>
													<mastercomment1/>
													<mastercomment2/>
													<mastercomment3/>
													<mastercomment4/>
												</comments>
												<file id="AA0052_01 3">
													<name>AA0052_01.mov</name>
													<pathurl>file://localhost/Volumes/Share/Edit%20Share/00%20BREW%20DOGS%20S1/BD_00_San_Diego/052413/01_Video/C300/AA0052_01.mov</pathurl>
													<rate>
														<timebase>24</timebase>
														<ntsc>TRUE</ntsc>
													</rate>
													<duration>1380</duration>
													<metadata>
														<storage>QuickTime</storage>
														<key>com.apple.quicktime.creationdate</key>
														<size>24</size>
														<type>UTF8</type>
														<value>2013-05-24T17:41:43-0700</value>
													</metadata>
													<metadata>
														<storage>QuickTime</storage>
														<key>com.apple.finalcutstudio.media.history.uuid</key>
														<size>36</size>
														<type>UTF8</type>
														<value>5A78E812-CD2C-4E97-BF3C-BB7E9848647D</value>
													</metadata>
													<metadata>
														<storage>QuickTime</storage>
														<key>com.apple.finalcutstudio.media.uuid</key>
														<size>36</size>
														<type>UTF8</type>
														<value>1018840C-94AF-4A31-8A43-18E09C8EA708</value>
													</metadata>
													<metadata>
														<storage>QuickTime</storage>
														<key>com.apple.proapps.reel</key>
														<size>12</size>
														<type>UTF8</type>
														<value>A03_verified</value>
													</metadata>
													<metadata>
														<storage>QuickTime</storage>
														<key>com.apple.proapps.isGood</key>
														<size>4</size>
														<type>unsigned</type>
														<value>0</value>
													</metadata>
													<metadata>
														<storage>QuickTime</storage>
														<key>com.apple.proapps.clipID</key>
														<size>36</size>
														<type>UTF8</type>
														<value>0D4ACD24-3664-0580-0000-8500025A0F55</value>
													</metadata>
													<metadata>
														<storage>QuickTime</storage>
														<key>com.apple.proapps.originalFormat</key>
														<size>14</size>
														<type>UTF8</type>
														<value>Canon XF MPEG2</value>
													</metadata>
													<timecode>
														<rate>
															<timebase>24</timebase>
														</rate>
														<string>17:41:58:13</string>
														<frame>1529245</frame>
														<displayformat>NDF</displayformat>
														<source>source</source>
														<reel>
															<name>A03_verified</name>
														</reel>
													</timecode>
													<media>
														<video>
															<duration>1380</duration>
															<samplecharacteristics>
																<width>1920</width>
																<height>1080</height>
															</samplecharacteristics>
														</video>
														<audio>
															<samplecharacteristics>
																<samplerate>48000</samplerate>
																<depth>16</depth>
															</samplecharacteristics>
															<channelcount>1</channelcount>
															<layout>mono</layout>
															<audiochannel>
																<sourcechannel>1</sourcechannel>
																<channellabel>discrete</channellabel>
															</audiochannel>
														</audio>
														<audio>
															<samplecharacteristics>
																<samplerate>48000</samplerate>
																<depth>16</depth>
															</samplecharacteristics>
															<channelcount>1</channelcount>
															<layout>mono</layout>
															<audiochannel>
																<sourcechannel>2</sourcechannel>
																<channellabel>discrete</channellabel>
															</audiochannel>
														</audio>
													</media>
												</file>
												<sourcetrack>
													<mediatype>video</mediatype>
												</sourcetrack>
												<link>
													<linkclipref>AA0052_01 2</linkclipref>
													<mediatype>video</mediatype>
													<trackindex>1</trackindex>
													<clipindex>1</clipindex>
												</link>
												<link>
													<linkclipref>AA0052_01 4</linkclipref>
													<mediatype>audio</mediatype>
													<trackindex>1</trackindex>
													<clipindex>1</clipindex>
												</link>
												<link>
													<linkclipref>AA0052_01 5</linkclipref>
													<mediatype>audio</mediatype>
													<trackindex>2</trackindex>
													<clipindex>1</clipindex>
												</link>
												<fielddominance>none</fielddominance>
												<mediadelay>542953</mediadelay>
												<itemhistory>
													<uuid>B485DCA7-D45C-4E78-9C88-7A0AE2D0EFA1</uuid>
												</itemhistory>
											</clipitem>
											<enabled>TRUE</enabled>
											<locked>FALSE</locked>
										</track>
									</video>
									<audio>
										<outputs>
											<group>
												<index>1</index>
												<numchannels>2</numchannels>
												<downmix>0</downmix>
												<channel>
													<index>1</index>
												</channel>
												<channel>
													<index>2</index>
												</channel>
											</group>
										</outputs>
										<in>-1</in>
										<out>-1</out>
										<track>
											<clipitem id="AA0052_01 4">
												<name>AA0052_01</name>
												<duration>578989</duration>
												<rate>
													<ntsc>TRUE</ntsc>
													<timebase>24</timebase>
												</rate>
												<in>0</in>
												<out>578989</out>
												<start>0</start>
												<end>578989</end>
												<subframeoffset>0</subframeoffset>
												<anamorphic>FALSE</anamorphic>
												<masterclipid>AA0052_01 1</masterclipid>
												<syncoffset>0</syncoffset>
												<logginginfo>
													<scene/>
													<shottake/>
													<lognote/>
													<good>FALSE</good>
												</logginginfo>
												<labels>
													<label>Alternate Shots</label>
													<label2/>
												</labels>
												<comments>
													<mastercomment1/>
													<mastercomment2/>
													<mastercomment3/>
													<mastercomment4/>
												</comments>
												<file id="AA0052_01 3"/>
												<filter>
													<effect>
														<name>Audio Levels</name>
														<effectid>audiolevels</effectid>
														<effectcategory>audiolevels</effectcategory>
														<effecttype>audiolevels</effecttype>
														<mediatype>audio</mediatype>
														<parameter>
															<name>Level</name>
															<parameterid>level</parameterid>
															<valuemin>0</valuemin>
															<valuemax>3.98109</valuemax>
															<value>1</value>
														</parameter>
													</effect>
												</filter>
												<filter>
													<effect>
														<name>Audio Pan</name>
														<effectid>audiopan</effectid>
														<effectcategory>audiopan</effectcategory>
														<effecttype>audiopan</effecttype>
														<mediatype>audio</mediatype>
														<parameter>
															<name>Pan</name>
															<parameterid>pan</parameterid>
															<valuemin>-1</valuemin>
															<valuemax>1</valuemax>
															<value>0</value>
														</parameter>
													</effect>
												</filter>
												<sourcetrack>
													<mediatype>audio</mediatype>
													<trackindex>1</trackindex>
												</sourcetrack>
												<link>
													<linkclipref>AA0052_01 2</linkclipref>
													<mediatype>video</mediatype>
													<trackindex>1</trackindex>
													<clipindex>1</clipindex>
												</link>
												<link>
													<linkclipref>AA0052_01 4</linkclipref>
													<mediatype>audio</mediatype>
													<trackindex>1</trackindex>
													<clipindex>1</clipindex>
												</link>
												<link>
													<linkclipref>AA0052_01 5</linkclipref>
													<mediatype>audio</mediatype>
													<trackindex>2</trackindex>
													<clipindex>1</clipindex>
												</link>
												<mediadelay>542953</mediadelay>
												<itemhistory>
													<uuid>6069571A-A880-4004-9F63-C39028CB2F82</uuid>
												</itemhistory>
											</clipitem>
											<enabled>TRUE</enabled>
											<locked>FALSE</locked>
										</track>
										<track>
											<clipitem id="AA0052_01 5">
												<name>AA0052_01</name>
												<duration>578989</duration>
												<rate>
													<ntsc>TRUE</ntsc>
													<timebase>24</timebase>
												</rate>
												<in>0</in>
												<out>578989</out>
												<start>0</start>
												<end>578989</end>
												<subframeoffset>0</subframeoffset>
												<anamorphic>FALSE</anamorphic>
												<masterclipid>AA0052_01 1</masterclipid>
												<syncoffset>0</syncoffset>
												<logginginfo>
													<scene/>
													<shottake/>
													<lognote/>
													<good>FALSE</good>
												</logginginfo>
												<labels>
													<label>Alternate Shots</label>
													<label2/>
												</labels>
												<comments>
													<mastercomment1/>
													<mastercomment2/>
													<mastercomment3/>
													<mastercomment4/>
												</comments>
												<file id="AA0052_01 3"/>
												<filter>
													<effect>
														<name>Audio Levels</name>
														<effectid>audiolevels</effectid>
														<effectcategory>audiolevels</effectcategory>
														<effecttype>audiolevels</effecttype>
														<mediatype>audio</mediatype>
														<parameter>
															<name>Level</name>
															<parameterid>level</parameterid>
															<valuemin>0</valuemin>
															<valuemax>3.98109</valuemax>
															<value>1</value>
														</parameter>
													</effect>
												</filter>
												<filter>
													<effect>
														<name>Audio Pan</name>
														<effectid>audiopan</effectid>
														<effectcategory>audiopan</effectcategory>
														<effecttype>audiopan</effecttype>
														<mediatype>audio</mediatype>
														<parameter>
															<name>Pan</name>
															<parameterid>pan</parameterid>
															<valuemin>-1</valuemin>
															<valuemax>1</valuemax>
															<value>0</value>
														</parameter>
													</effect>
												</filter>
												<sourcetrack>
													<mediatype>audio</mediatype>
													<trackindex>2</trackindex>
												</sourcetrack>
												<link>
													<linkclipref>AA0052_01 2</linkclipref>
													<mediatype>video</mediatype>
													<trackindex>1</trackindex>
													<clipindex>1</clipindex>
												</link>
												<link>
													<linkclipref>AA0052_01 4</linkclipref>
													<mediatype>audio</mediatype>
													<trackindex>1</trackindex>
													<clipindex>1</clipindex>
												</link>
												<link>
													<linkclipref>AA0052_01 5</linkclipref>
													<mediatype>audio</mediatype>
													<trackindex>2</trackindex>
													<clipindex>1</clipindex>
												</link>
												<mediadelay>542953</mediadelay>
												<itemhistory>
													<uuid>18D1630A-FF65-40EE-B449-43CBB5E1D4E4</uuid>
												</itemhistory>
											</clipitem>
											<enabled>TRUE</enabled>
											<locked>FALSE</locked>
										</track>
										<filter>
											<effect>
												<name>Audio Levels</name>
												<effectid>audiolevels</effectid>
												<effectcategory>audiolevels</effectcategory>
												<effecttype>audiolevels</effecttype>
												<mediatype>audio</mediatype>
												<parameter>
													<name>Level</name>
													<parameterid>level</parameterid>
													<valuemin>0</valuemin>
													<valuemax>3.98109</valuemax>
													<value>1</value>
												</parameter>
											</effect>
										</filter>
									</audio>
								</media>
							</clip>
						</angle>
						<angle>
							<clip id="AA0053_01 ">
								<uuid>D8A47D1D-D5D7-4617-9A5D-1040D6E2A817</uuid>
								<updatebehavior>add</updatebehavior>
								<name>AA0053_01</name>
								<duration>578989</duration>
								<rate>
									<ntsc>TRUE</ntsc>
									<timebase>24</timebase>
								</rate>
								<in>-1</in>
								<out>-1</out>
								<anamorphic>FALSE</anamorphic>
								<masterclipid>AA0053_01 1</masterclipid>
								<ismasterclip>FALSE</ismasterclip>
								<logginginfo>
									<scene/>
									<shottake/>
									<lognote/>
									<good>FALSE</good>
								</logginginfo>
								<labels>
									<label>Alternate Shots</label>
									<label2/>
								</labels>
								<comments>
									<mastercomment1/>
									<mastercomment2/>
									<mastercomment3/>
									<mastercomment4/>
								</comments>
								<media>
									<video>
										<track>
											<clipitem id="AA0053_01 2">
												<name>AA0053_01</name>
												<duration>578989</duration>
												<rate>
													<ntsc>TRUE</ntsc>
													<timebase>24</timebase>
												</rate>
												<in>0</in>
												<out>578989</out>
												<start>0</start>
												<end>578989</end>
												<pixelaspectratio>Square</pixelaspectratio>
												<anamorphic>FALSE</anamorphic>
												<alphatype>none</alphatype>
												<masterclipid>AA0053_01 1</masterclipid>
												<syncoffset>0</syncoffset>
												<logginginfo>
													<scene/>
													<shottake/>
													<lognote/>
													<good>FALSE</good>
												</logginginfo>
												<labels>
													<label>Alternate Shots</label>
													<label2/>
												</labels>
												<comments>
													<mastercomment1/>
													<mastercomment2/>
													<mastercomment3/>
													<mastercomment4/>
												</comments>
												<file id="AA0053_01 3">
													<name>AA0053_01.mov</name>
													<pathurl>file://localhost/Volumes/Share/Edit%20Share/00%20BREW%20DOGS%20S1/BD_00_San_Diego/052413/01_Video/C300/AA0053_01.mov</pathurl>
													<rate>
														<timebase>24</timebase>
														<ntsc>TRUE</ntsc>
													</rate>
													<duration>1416</duration>
													<metadata>
														<storage>QuickTime</storage>
														<key>com.apple.quicktime.creationdate</key>
														<size>24</size>
														<type>UTF8</type>
														<value>2013-05-24T17:46:39-0700</value>
													</metadata>
													<metadata>
														<storage>QuickTime</storage>
														<key>com.apple.finalcutstudio.media.history.uuid</key>
														<size>36</size>
														<type>UTF8</type>
														<value>A85F294C-4B25-49A8-A22E-5F77AEF0A9EE</value>
													</metadata>
													<metadata>
														<storage>QuickTime</storage>
														<key>com.apple.finalcutstudio.media.uuid</key>
														<size>36</size>
														<type>UTF8</type>
														<value>5E07010D-0ADE-45FF-9BBA-1390035D27C3</value>
													</metadata>
													<metadata>
														<storage>QuickTime</storage>
														<key>com.apple.proapps.reel</key>
														<size>12</size>
														<type>UTF8</type>
														<value>A03_verified</value>
													</metadata>
													<metadata>
														<storage>QuickTime</storage>
														<key>com.apple.proapps.isGood</key>
														<size>4</size>
														<type>unsigned</type>
														<value>0</value>
													</metadata>
													<metadata>
														<storage>QuickTime</storage>
														<key>com.apple.proapps.clipID</key>
														<size>36</size>
														<type>UTF8</type>
														<value>0D4B1284-3664-0580-0000-8500025A0F55</value>
													</metadata>
													<metadata>
														<storage>QuickTime</storage>
														<key>com.apple.proapps.originalFormat</key>
														<size>14</size>
														<type>UTF8</type>
														<value>Canon XF MPEG2</value>
													</metadata>
													<timecode>
														<rate>
															<timebase>24</timebase>
														</rate>
														<string>17:46:53:13</string>
														<frame>1536325</frame>
														<displayformat>NDF</displayformat>
														<source>source</source>
														<reel>
															<name>A03_verified</name>
														</reel>
													</timecode>
													<media>
														<video>
															<duration>1416</duration>
															<samplecharacteristics>
																<width>1920</width>
																<height>1080</height>
															</samplecharacteristics>
														</video>
														<audio>
															<samplecharacteristics>
																<samplerate>48000</samplerate>
																<depth>16</depth>
															</samplecharacteristics>
															<channelcount>1</channelcount>
															<layout>mono</layout>
															<audiochannel>
																<sourcechannel>1</sourcechannel>
																<channellabel>discrete</channellabel>
															</audiochannel>
														</audio>
														<audio>
															<samplecharacteristics>
																<samplerate>48000</samplerate>
																<depth>16</depth>
															</samplecharacteristics>
															<channelcount>1</channelcount>
															<layout>mono</layout>
															<audiochannel>
																<sourcechannel>2</sourcechannel>
																<channellabel>discrete</channellabel>
															</audiochannel>
														</audio>
													</media>
												</file>
												<sourcetrack>
													<mediatype>video</mediatype>
												</sourcetrack>
												<link>
													<linkclipref>AA0053_01 2</linkclipref>
													<mediatype>video</mediatype>
													<trackindex>1</trackindex>
													<clipindex>1</clipindex>
												</link>
												<link>
													<linkclipref>AA0053_01 4</linkclipref>
													<mediatype>audio</mediatype>
													<trackindex>1</trackindex>
													<clipindex>1</clipindex>
												</link>
												<link>
													<linkclipref>AA0053_01 5</linkclipref>
													<mediatype>audio</mediatype>
													<trackindex>2</trackindex>
													<clipindex>1</clipindex>
												</link>
												<fielddominance>none</fielddominance>
												<mediadelay>550033</mediadelay>
												<itemhistory>
													<uuid>45E417ED-A9B0-4977-AD15-A7A65314C2AD</uuid>
												</itemhistory>
											</clipitem>
											<enabled>TRUE</enabled>
											<locked>FALSE</locked>
										</track>
									</video>
									<audio>
										<outputs>
											<group>
												<index>1</index>
												<numchannels>2</numchannels>
												<downmix>0</downmix>
												<channel>
													<index>1</index>
												</channel>
												<channel>
													<index>2</index>
												</channel>
											</group>
										</outputs>
										<in>-1</in>
										<out>-1</out>
										<track>
											<clipitem id="AA0053_01 4">
												<name>AA0053_01</name>
												<duration>578989</duration>
												<rate>
													<ntsc>TRUE</ntsc>
													<timebase>24</timebase>
												</rate>
												<in>0</in>
												<out>578989</out>
												<start>0</start>
												<end>578989</end>
												<subframeoffset>0</subframeoffset>
												<anamorphic>FALSE</anamorphic>
												<masterclipid>AA0053_01 1</masterclipid>
												<syncoffset>0</syncoffset>
												<logginginfo>
													<scene/>
													<shottake/>
													<lognote/>
													<good>FALSE</good>
												</logginginfo>
												<labels>
													<label>Alternate Shots</label>
													<label2/>
												</labels>
												<comments>
													<mastercomment1/>
													<mastercomment2/>
													<mastercomment3/>
													<mastercomment4/>
												</comments>
												<file id="AA0053_01 3"/>
												<filter>
													<effect>
														<name>Audio Levels</name>
														<effectid>audiolevels</effectid>
														<effectcategory>audiolevels</effectcategory>
														<effecttype>audiolevels</effecttype>
														<mediatype>audio</mediatype>
														<parameter>
															<name>Level</name>
															<parameterid>level</parameterid>
															<valuemin>0</valuemin>
															<valuemax>3.98109</valuemax>
															<value>1</value>
														</parameter>
													</effect>
												</filter>
												<filter>
													<effect>
														<name>Audio Pan</name>
														<effectid>audiopan</effectid>
														<effectcategory>audiopan</effectcategory>
														<effecttype>audiopan</effecttype>
														<mediatype>audio</mediatype>
														<parameter>
															<name>Pan</name>
															<parameterid>pan</parameterid>
															<valuemin>-1</valuemin>
															<valuemax>1</valuemax>
															<value>0</value>
														</parameter>
													</effect>
												</filter>
												<sourcetrack>
													<mediatype>audio</mediatype>
													<trackindex>1</trackindex>
												</sourcetrack>
												<link>
													<linkclipref>AA0053_01 2</linkclipref>
													<mediatype>video</mediatype>
													<trackindex>1</trackindex>
													<clipindex>1</clipindex>
												</link>
												<link>
													<linkclipref>AA0053_01 4</linkclipref>
													<mediatype>audio</mediatype>
													<trackindex>1</trackindex>
													<clipindex>1</clipindex>
												</link>
												<link>
													<linkclipref>AA0053_01 5</linkclipref>
													<mediatype>audio</mediatype>
													<trackindex>2</trackindex>
													<clipindex>1</clipindex>
												</link>
												<mediadelay>550033</mediadelay>
												<itemhistory>
													<uuid>22076E1A-F1BC-4914-93F0-A6112BDBACD5</uuid>
												</itemhistory>
											</clipitem>
											<enabled>TRUE</enabled>
											<locked>FALSE</locked>
										</track>
										<track>
											<clipitem id="AA0053_01 5">
												<name>AA0053_01</name>
												<duration>578989</duration>
												<rate>
													<ntsc>TRUE</ntsc>
													<timebase>24</timebase>
												</rate>
												<in>0</in>
												<out>578989</out>
												<start>0</start>
												<end>578989</end>
												<subframeoffset>0</subframeoffset>
												<anamorphic>FALSE</anamorphic>
												<masterclipid>AA0053_01 1</masterclipid>
												<syncoffset>0</syncoffset>
												<logginginfo>
													<scene/>
													<shottake/>
													<lognote/>
													<good>FALSE</good>
												</logginginfo>
												<labels>
													<label>Alternate Shots</label>
													<label2/>
												</labels>
												<comments>
													<mastercomment1/>
													<mastercomment2/>
													<mastercomment3/>
													<mastercomment4/>
												</comments>
												<file id="AA0053_01 3"/>
												<filter>
													<effect>
														<name>Audio Levels</name>
														<effectid>audiolevels</effectid>
														<effectcategory>audiolevels</effectcategory>
														<effecttype>audiolevels</effecttype>
														<mediatype>audio</mediatype>
														<parameter>
															<name>Level</name>
															<parameterid>level</parameterid>
															<valuemin>0</valuemin>
															<valuemax>3.98109</valuemax>
															<value>1</value>
														</parameter>
													</effect>
												</filter>
												<filter>
													<effect>
														<name>Audio Pan</name>
														<effectid>audiopan</effectid>
														<effectcategory>audiopan</effectcategory>
														<effecttype>audiopan</effecttype>
														<mediatype>audio</mediatype>
														<parameter>
															<name>Pan</name>
															<parameterid>pan</parameterid>
															<valuemin>-1</valuemin>
															<valuemax>1</valuemax>
															<value>0</value>
														</parameter>
													</effect>
												</filter>
												<sourcetrack>
													<mediatype>audio</mediatype>
													<trackindex>2</trackindex>
												</sourcetrack>
												<link>
													<linkclipref>AA0053_01 2</linkclipref>
													<mediatype>video</mediatype>
													<trackindex>1</trackindex>
													<clipindex>1</clipindex>
												</link>
												<link>
													<linkclipref>AA0053_01 4</linkclipref>
													<mediatype>audio</mediatype>
													<trackindex>1</trackindex>
													<clipindex>1</clipindex>
												</link>
												<link>
													<linkclipref>AA0053_01 5</linkclipref>
													<mediatype>audio</mediatype>
													<trackindex>2</trackindex>
													<clipindex>1</clipindex>
												</link>
												<mediadelay>550033</mediadelay>
												<itemhistory>
													<uuid>6E560845-B2E1-4163-8550-42F95FE119F6</uuid>
												</itemhistory>
											</clipitem>
											<enabled>TRUE</enabled>
											<locked>FALSE</locked>
										</track>
										<filter>
											<effect>
												<name>Audio Levels</name>
												<effectid>audiolevels</effectid>
												<effectcategory>audiolevels</effectcategory>
												<effecttype>audiolevels</effecttype>
												<mediatype>audio</mediatype>
												<parameter>
													<name>Level</name>
													<parameterid>level</parameterid>
													<valuemin>0</valuemin>
													<valuemax>3.98109</valuemax>
													<value>1</value>
												</parameter>
											</effect>
										</filter>
									</audio>
								</media>
							</clip>
						</angle>
						<angle>
							<clip id="AA0054_01 ">
								<uuid>2C3F6568-266C-43B3-9BDD-9B5540662FB1</uuid>
								<updatebehavior>add</updatebehavior>
								<name>AA0054_01</name>
								<duration>578989</duration>
								<rate>
									<ntsc>TRUE</ntsc>
									<timebase>24</timebase>
								</rate>
								<in>-1</in>
								<out>-1</out>
								<anamorphic>FALSE</anamorphic>
								<masterclipid>AA0054_01 1</masterclipid>
								<ismasterclip>FALSE</ismasterclip>
								<logginginfo>
									<scene/>
									<shottake/>
									<lognote/>
									<good>FALSE</good>
								</logginginfo>
								<labels>
									<label>Alternate Shots</label>
									<label2/>
								</labels>
								<comments>
									<mastercomment1/>
									<mastercomment2/>
									<mastercomment3/>
									<mastercomment4/>
								</comments>
								<media>
									<video>
										<track>
											<clipitem id="AA0054_01 2">
												<name>AA0054_01</name>
												<duration>578989</duration>
												<rate>
													<ntsc>TRUE</ntsc>
													<timebase>24</timebase>
												</rate>
												<in>0</in>
												<out>578989</out>
												<start>0</start>
												<end>578989</end>
												<pixelaspectratio>Square</pixelaspectratio>
												<anamorphic>FALSE</anamorphic>
												<alphatype>none</alphatype>
												<masterclipid>AA0054_01 1</masterclipid>
												<syncoffset>0</syncoffset>
												<logginginfo>
													<scene/>
													<shottake/>
													<lognote/>
													<good>FALSE</good>
												</logginginfo>
												<labels>
													<label>Alternate Shots</label>
													<label2/>
												</labels>
												<comments>
													<mastercomment1/>
													<mastercomment2/>
													<mastercomment3/>
													<mastercomment4/>
												</comments>
												<file id="AA0054_01 3">
													<name>AA0054_01.mov</name>
													<pathurl>file://localhost/Volumes/Share/Edit%20Share/00%20BREW%20DOGS%20S1/BD_00_San_Diego/052413/01_Video/C300/AA0054_01.mov</pathurl>
													<rate>
														<timebase>24</timebase>
														<ntsc>TRUE</ntsc>
													</rate>
													<duration>1704</duration>
													<metadata>
														<storage>QuickTime</storage>
														<key>com.apple.quicktime.creationdate</key>
														<size>24</size>
														<type>UTF8</type>
														<value>2013-05-24T17:58:05-0700</value>
													</metadata>
													<metadata>
														<storage>QuickTime</storage>
														<key>com.apple.finalcutstudio.media.history.uuid</key>
														<size>36</size>
														<type>UTF8</type>
														<value>3B4D560A-B8FD-4231-B6E6-8DA6B079A3E7</value>
													</metadata>
													<metadata>
														<storage>QuickTime</storage>
														<key>com.apple.finalcutstudio.media.uuid</key>
														<size>36</size>
														<type>UTF8</type>
														<value>8A806D51-AB5E-4248-B25D-24B38FC0692A</value>
													</metadata>
													<metadata>
														<storage>QuickTime</storage>
														<key>com.apple.proapps.reel</key>
														<size>12</size>
														<type>UTF8</type>
														<value>A03_verified</value>
													</metadata>
													<metadata>
														<storage>QuickTime</storage>
														<key>com.apple.proapps.isGood</key>
														<size>4</size>
														<type>unsigned</type>
														<value>0</value>
													</metadata>
													<metadata>
														<storage>QuickTime</storage>
														<key>com.apple.proapps.clipID</key>
														<size>36</size>
														<type>UTF8</type>
														<value>0D4BB34C-3664-0580-0000-8500025A0F55</value>
													</metadata>
													<metadata>
														<storage>QuickTime</storage>
														<key>com.apple.proapps.originalFormat</key>
														<size>14</size>
														<type>UTF8</type>
														<value>Canon XF MPEG2</value>
													</metadata>
													<timecode>
														<rate>
															<timebase>24</timebase>
														</rate>
														<string>17:58:19:01</string>
														<frame>1552777</frame>
														<displayformat>NDF</displayformat>
														<source>source</source>
														<reel>
															<name>A03_verified</name>
														</reel>
													</timecode>
													<media>
														<video>
															<duration>1704</duration>
															<samplecharacteristics>
																<width>1920</width>
																<height>1080</height>
															</samplecharacteristics>
														</video>
														<audio>
															<samplecharacteristics>
																<samplerate>48000</samplerate>
																<depth>16</depth>
															</samplecharacteristics>
															<channelcount>1</channelcount>
															<layout>mono</layout>
															<audiochannel>
																<sourcechannel>1</sourcechannel>
																<channellabel>discrete</channellabel>
															</audiochannel>
														</audio>
														<audio>
															<samplecharacteristics>
																<samplerate>48000</samplerate>
																<depth>16</depth>
															</samplecharacteristics>
															<channelcount>1</channelcount>
															<layout>mono</layout>
															<audiochannel>
																<sourcechannel>2</sourcechannel>
																<channellabel>discrete</channellabel>
															</audiochannel>
														</audio>
													</media>
												</file>
												<sourcetrack>
													<mediatype>video</mediatype>
												</sourcetrack>
												<link>
													<linkclipref>AA0054_01 2</linkclipref>
													<mediatype>video</mediatype>
													<trackindex>1</trackindex>
													<clipindex>1</clipindex>
												</link>
												<link>
													<linkclipref>AA0054_01 4</linkclipref>
													<mediatype>audio</mediatype>
													<trackindex>1</trackindex>
													<clipindex>1</clipindex>
												</link>
												<link>
													<linkclipref>AA0054_01 5</linkclipref>
													<mediatype>audio</mediatype>
													<trackindex>2</trackindex>
													<clipindex>1</clipindex>
												</link>
												<fielddominance>none</fielddominance>
												<mediadelay>566485</mediadelay>
												<itemhistory>
													<uuid>EE57D3D7-A527-41E4-96B4-9293662E9CC3</uuid>
												</itemhistory>
											</clipitem>
											<enabled>TRUE</enabled>
											<locked>FALSE</locked>
										</track>
									</video>
									<audio>
										<outputs>
											<group>
												<index>1</index>
												<numchannels>2</numchannels>
												<downmix>0</downmix>
												<channel>
													<index>1</index>
												</channel>
												<channel>
													<index>2</index>
												</channel>
											</group>
										</outputs>
										<in>-1</in>
										<out>-1</out>
										<track>
											<clipitem id="AA0054_01 4">
												<name>AA0054_01</name>
												<duration>578989</duration>
												<rate>
													<ntsc>TRUE</ntsc>
													<timebase>24</timebase>
												</rate>
												<in>0</in>
												<out>578989</out>
												<start>0</start>
												<end>578989</end>
												<subframeoffset>0</subframeoffset>
												<anamorphic>FALSE</anamorphic>
												<masterclipid>AA0054_01 1</masterclipid>
												<syncoffset>0</syncoffset>
												<logginginfo>
													<scene/>
													<shottake/>
													<lognote/>
													<good>FALSE</good>
												</logginginfo>
												<labels>
													<label>Alternate Shots</label>
													<label2/>
												</labels>
												<comments>
													<mastercomment1/>
													<mastercomment2/>
													<mastercomment3/>
													<mastercomment4/>
												</comments>
												<file id="AA0054_01 3"/>
												<filter>
													<effect>
														<name>Audio Levels</name>
														<effectid>audiolevels</effectid>
														<effectcategory>audiolevels</effectcategory>
														<effecttype>audiolevels</effecttype>
														<mediatype>audio</mediatype>
														<parameter>
															<name>Level</name>
															<parameterid>level</parameterid>
															<valuemin>0</valuemin>
															<valuemax>3.98109</valuemax>
															<value>1</value>
														</parameter>
													</effect>
												</filter>
												<filter>
													<effect>
														<name>Audio Pan</name>
														<effectid>audiopan</effectid>
														<effectcategory>audiopan</effectcategory>
														<effecttype>audiopan</effecttype>
														<mediatype>audio</mediatype>
														<parameter>
															<name>Pan</name>
															<parameterid>pan</parameterid>
															<valuemin>-1</valuemin>
															<valuemax>1</valuemax>
															<value>0</value>
														</parameter>
													</effect>
												</filter>
												<sourcetrack>
													<mediatype>audio</mediatype>
													<trackindex>1</trackindex>
												</sourcetrack>
												<link>
													<linkclipref>AA0054_01 2</linkclipref>
													<mediatype>video</mediatype>
													<trackindex>1</trackindex>
													<clipindex>1</clipindex>
												</link>
												<link>
													<linkclipref>AA0054_01 4</linkclipref>
													<mediatype>audio</mediatype>
													<trackindex>1</trackindex>
													<clipindex>1</clipindex>
												</link>
												<link>
													<linkclipref>AA0054_01 5</linkclipref>
													<mediatype>audio</mediatype>
													<trackindex>2</trackindex>
													<clipindex>1</clipindex>
												</link>
												<mediadelay>566485</mediadelay>
												<itemhistory>
													<uuid>B7D14F38-8861-4FB6-ADFC-3897A806B349</uuid>
												</itemhistory>
											</clipitem>
											<enabled>TRUE</enabled>
											<locked>FALSE</locked>
										</track>
										<track>
											<clipitem id="AA0054_01 5">
												<name>AA0054_01</name>
												<duration>578989</duration>
												<rate>
													<ntsc>TRUE</ntsc>
													<timebase>24</timebase>
												</rate>
												<in>0</in>
												<out>578989</out>
												<start>0</start>
												<end>578989</end>
												<subframeoffset>0</subframeoffset>
												<anamorphic>FALSE</anamorphic>
												<masterclipid>AA0054_01 1</masterclipid>
												<syncoffset>0</syncoffset>
												<logginginfo>
													<scene/>
													<shottake/>
													<lognote/>
													<good>FALSE</good>
												</logginginfo>
												<labels>
													<label>Alternate Shots</label>
													<label2/>
												</labels>
												<comments>
													<mastercomment1/>
													<mastercomment2/>
													<mastercomment3/>
													<mastercomment4/>
												</comments>
												<file id="AA0054_01 3"/>
												<filter>
													<effect>
														<name>Audio Levels</name>
														<effectid>audiolevels</effectid>
														<effectcategory>audiolevels</effectcategory>
														<effecttype>audiolevels</effecttype>
														<mediatype>audio</mediatype>
														<parameter>
															<name>Level</name>
															<parameterid>level</parameterid>
															<valuemin>0</valuemin>
															<valuemax>3.98109</valuemax>
															<value>1</value>
														</parameter>
													</effect>
												</filter>
												<filter>
													<effect>
														<name>Audio Pan</name>
														<effectid>audiopan</effectid>
														<effectcategory>audiopan</effectcategory>
														<effecttype>audiopan</effecttype>
														<mediatype>audio</mediatype>
														<parameter>
															<name>Pan</name>
															<parameterid>pan</parameterid>
															<valuemin>-1</valuemin>
															<valuemax>1</valuemax>
															<value>0</value>
														</parameter>
													</effect>
												</filter>
												<sourcetrack>
													<mediatype>audio</mediatype>
													<trackindex>2</trackindex>
												</sourcetrack>
												<link>
													<linkclipref>AA0054_01 2</linkclipref>
													<mediatype>video</mediatype>
													<trackindex>1</trackindex>
													<clipindex>1</clipindex>
												</link>
												<link>
													<linkclipref>AA0054_01 4</linkclipref>
													<mediatype>audio</mediatype>
													<trackindex>1</trackindex>
													<clipindex>1</clipindex>
												</link>
												<link>
													<linkclipref>AA0054_01 5</linkclipref>
													<mediatype>audio</mediatype>
													<trackindex>2</trackindex>
													<clipindex>1</clipindex>
												</link>
												<mediadelay>566485</mediadelay>
												<itemhistory>
													<uuid>06C5C8E5-E60C-4407-8931-AC3F60E2BA66</uuid>
												</itemhistory>
											</clipitem>
											<enabled>TRUE</enabled>
											<locked>FALSE</locked>
										</track>
										<filter>
											<effect>
												<name>Audio Levels</name>
												<effectid>audiolevels</effectid>
												<effectcategory>audiolevels</effectcategory>
												<effecttype>audiolevels</effecttype>
												<mediatype>audio</mediatype>
												<parameter>
													<name>Level</name>
													<parameterid>level</parameterid>
													<valuemin>0</valuemin>
													<valuemax>3.98109</valuemax>
													<value>1</value>
												</parameter>
											</effect>
										</filter>
									</audio>
								</media>
							</clip>
						</angle>
						<angle>
							<clip id="AA0055_01 ">
								<uuid>B4A696FC-0F2F-47B5-806A-CC00F334E4C7</uuid>
								<updatebehavior>add</updatebehavior>
								<name>AA0055_01</name>
								<duration>578989</duration>
								<rate>
									<ntsc>TRUE</ntsc>
									<timebase>24</timebase>
								</rate>
								<in>-1</in>
								<out>-1</out>
								<anamorphic>FALSE</anamorphic>
								<masterclipid>AA0055_01 1</masterclipid>
								<ismasterclip>FALSE</ismasterclip>
								<logginginfo>
									<scene/>
									<shottake/>
									<lognote/>
									<good>FALSE</good>
								</logginginfo>
								<labels>
									<label>Alternate Shots</label>
									<label2/>
								</labels>
								<comments>
									<mastercomment1/>
									<mastercomment2/>
									<mastercomment3/>
									<mastercomment4/>
								</comments>
								<media>
									<video>
										<track>
											<clipitem id="AA0055_01 2">
												<name>AA0055_01</name>
												<duration>578989</duration>
												<rate>
													<ntsc>TRUE</ntsc>
													<timebase>24</timebase>
												</rate>
												<in>0</in>
												<out>578989</out>
												<start>0</start>
												<end>578989</end>
												<pixelaspectratio>Square</pixelaspectratio>
												<anamorphic>FALSE</anamorphic>
												<alphatype>none</alphatype>
												<masterclipid>AA0055_01 1</masterclipid>
												<syncoffset>0</syncoffset>
												<logginginfo>
													<scene/>
													<shottake/>
													<lognote/>
													<good>FALSE</good>
												</logginginfo>
												<labels>
													<label>Alternate Shots</label>
													<label2/>
												</labels>
												<comments>
													<mastercomment1/>
													<mastercomment2/>
													<mastercomment3/>
													<mastercomment4/>
												</comments>
												<file id="AA0055_01 3">
													<name>AA0055_01.mov</name>
													<pathurl>file://localhost/Volumes/Share/Edit%20Share/00%20BREW%20DOGS%20S1/BD_00_San_Diego/052413/01_Video/C300/AA0055_01.mov</pathurl>
													<rate>
														<timebase>24</timebase>
														<ntsc>TRUE</ntsc>
													</rate>
													<duration>7332</duration>
													<metadata>
														<storage>QuickTime</storage>
														<key>com.apple.quicktime.creationdate</key>
														<size>24</size>
														<type>UTF8</type>
														<value>2013-05-24T18:01:41-0700</value>
													</metadata>
													<metadata>
														<storage>QuickTime</storage>
														<key>com.apple.finalcutstudio.media.history.uuid</key>
														<size>36</size>
														<type>UTF8</type>
														<value>43669182-3AB4-4337-BD0C-B6EF5BC041E4</value>
													</metadata>
													<metadata>
														<storage>QuickTime</storage>
														<key>com.apple.finalcutstudio.media.uuid</key>
														<size>36</size>
														<type>UTF8</type>
														<value>0B15E7DD-B5B4-413C-9A47-0D62A281E1A6</value>
													</metadata>
													<metadata>
														<storage>QuickTime</storage>
														<key>com.apple.proapps.reel</key>
														<size>12</size>
														<type>UTF8</type>
														<value>A03_verified</value>
													</metadata>
													<metadata>
														<storage>QuickTime</storage>
														<key>com.apple.proapps.isGood</key>
														<size>4</size>
														<type>unsigned</type>
														<value>0</value>
													</metadata>
													<metadata>
														<storage>QuickTime</storage>
														<key>com.apple.proapps.clipID</key>
														<size>36</size>
														<type>UTF8</type>
														<value>0D4BE5EC-3664-0580-0000-8500025A0F55</value>
													</metadata>
													<metadata>
														<storage>QuickTime</storage>
														<key>com.apple.proapps.originalFormat</key>
														<size>14</size>
														<type>UTF8</type>
														<value>Canon XF MPEG2</value>
													</metadata>
													<timecode>
														<rate>
															<timebase>24</timebase>
														</rate>
														<string>18:01:54:13</string>
														<frame>1557949</frame>
														<displayformat>NDF</displayformat>
														<source>source</source>
														<reel>
															<name>A03_verified</name>
														</reel>
													</timecode>
													<media>
														<video>
															<duration>7332</duration>
															<samplecharacteristics>
																<width>1920</width>
																<height>1080</height>
															</samplecharacteristics>
														</video>
														<audio>
															<samplecharacteristics>
																<samplerate>48000</samplerate>
																<depth>16</depth>
															</samplecharacteristics>
															<channelcount>1</channelcount>
															<layout>mono</layout>
															<audiochannel>
																<sourcechannel>1</sourcechannel>
																<channellabel>discrete</channellabel>
															</audiochannel>
														</audio>
														<audio>
															<samplecharacteristics>
																<samplerate>48000</samplerate>
																<depth>16</depth>
															</samplecharacteristics>
															<channelcount>1</channelcount>
															<layout>mono</layout>
															<audiochannel>
																<sourcechannel>2</sourcechannel>
																<channellabel>discrete</channellabel>
															</audiochannel>
														</audio>
													</media>
												</file>
												<sourcetrack>
													<mediatype>video</mediatype>
												</sourcetrack>
												<link>
													<linkclipref>AA0055_01 2</linkclipref>
													<mediatype>video</mediatype>
													<trackindex>1</trackindex>
													<clipindex>1</clipindex>
												</link>
												<link>
													<linkclipref>AA0055_01 4</linkclipref>
													<mediatype>audio</mediatype>
													<trackindex>1</trackindex>
													<clipindex>1</clipindex>
												</link>
												<link>
													<linkclipref>AA0055_01 5</linkclipref>
													<mediatype>audio</mediatype>
													<trackindex>2</trackindex>
													<clipindex>1</clipindex>
												</link>
												<fielddominance>none</fielddominance>
												<mediadelay>571657</mediadelay>
												<itemhistory>
													<uuid>68285E1F-E998-4B3E-9859-3395E539156E</uuid>
												</itemhistory>
											</clipitem>
											<enabled>TRUE</enabled>
											<locked>FALSE</locked>
										</track>
									</video>
									<audio>
										<outputs>
											<group>
												<index>1</index>
												<numchannels>2</numchannels>
												<downmix>0</downmix>
												<channel>
													<index>1</index>
												</channel>
												<channel>
													<index>2</index>
												</channel>
											</group>
										</outputs>
										<in>-1</in>
										<out>-1</out>
										<track>
											<clipitem id="AA0055_01 4">
												<name>AA0055_01</name>
												<duration>578989</duration>
												<rate>
													<ntsc>TRUE</ntsc>
													<timebase>24</timebase>
												</rate>
												<in>0</in>
												<out>578989</out>
												<start>0</start>
												<end>578989</end>
												<subframeoffset>0</subframeoffset>
												<anamorphic>FALSE</anamorphic>
												<masterclipid>AA0055_01 1</masterclipid>
												<syncoffset>0</syncoffset>
												<logginginfo>
													<scene/>
													<shottake/>
													<lognote/>
													<good>FALSE</good>
												</logginginfo>
												<labels>
													<label>Alternate Shots</label>
													<label2/>
												</labels>
												<comments>
													<mastercomment1/>
													<mastercomment2/>
													<mastercomment3/>
													<mastercomment4/>
												</comments>
												<file id="AA0055_01 3"/>
												<filter>
													<effect>
														<name>Audio Levels</name>
														<effectid>audiolevels</effectid>
														<effectcategory>audiolevels</effectcategory>
														<effecttype>audiolevels</effecttype>
														<mediatype>audio</mediatype>
														<parameter>
															<name>Level</name>
															<parameterid>level</parameterid>
															<valuemin>0</valuemin>
															<valuemax>3.98109</valuemax>
															<value>1</value>
														</parameter>
													</effect>
												</filter>
												<filter>
													<effect>
														<name>Audio Pan</name>
														<effectid>audiopan</effectid>
														<effectcategory>audiopan</effectcategory>
														<effecttype>audiopan</effecttype>
														<mediatype>audio</mediatype>
														<parameter>
															<name>Pan</name>
															<parameterid>pan</parameterid>
															<valuemin>-1</valuemin>
															<valuemax>1</valuemax>
															<value>0</value>
														</parameter>
													</effect>
												</filter>
												<sourcetrack>
													<mediatype>audio</mediatype>
													<trackindex>1</trackindex>
												</sourcetrack>
												<link>
													<linkclipref>AA0055_01 2</linkclipref>
													<mediatype>video</mediatype>
													<trackindex>1</trackindex>
													<clipindex>1</clipindex>
												</link>
												<link>
													<linkclipref>AA0055_01 4</linkclipref>
													<mediatype>audio</mediatype>
													<trackindex>1</trackindex>
													<clipindex>1</clipindex>
												</link>
												<link>
													<linkclipref>AA0055_01 5</linkclipref>
													<mediatype>audio</mediatype>
													<trackindex>2</trackindex>
													<clipindex>1</clipindex>
												</link>
												<mediadelay>571657</mediadelay>
												<itemhistory>
													<uuid>6E069825-71B1-43E6-88C9-B4A11B01A02E</uuid>
												</itemhistory>
											</clipitem>
											<enabled>TRUE</enabled>
											<locked>FALSE</locked>
										</track>
										<track>
											<clipitem id="AA0055_01 5">
												<name>AA0055_01</name>
												<duration>578989</duration>
												<rate>
													<ntsc>TRUE</ntsc>
													<timebase>24</timebase>
												</rate>
												<in>0</in>
												<out>578989</out>
												<start>0</start>
												<end>578989</end>
												<subframeoffset>0</subframeoffset>
												<anamorphic>FALSE</anamorphic>
												<masterclipid>AA0055_01 1</masterclipid>
												<syncoffset>0</syncoffset>
												<logginginfo>
													<scene/>
													<shottake/>
													<lognote/>
													<good>FALSE</good>
												</logginginfo>
												<labels>
													<label>Alternate Shots</label>
													<label2/>
												</labels>
												<comments>
													<mastercomment1/>
													<mastercomment2/>
													<mastercomment3/>
													<mastercomment4/>
												</comments>
												<file id="AA0055_01 3"/>
												<filter>
													<effect>
														<name>Audio Levels</name>
														<effectid>audiolevels</effectid>
														<effectcategory>audiolevels</effectcategory>
														<effecttype>audiolevels</effecttype>
														<mediatype>audio</mediatype>
														<parameter>
															<name>Level</name>
															<parameterid>level</parameterid>
															<valuemin>0</valuemin>
															<valuemax>3.98109</valuemax>
															<value>1</value>
														</parameter>
													</effect>
												</filter>
												<filter>
													<effect>
														<name>Audio Pan</name>
														<effectid>audiopan</effectid>
														<effectcategory>audiopan</effectcategory>
														<effecttype>audiopan</effecttype>
														<mediatype>audio</mediatype>
														<parameter>
															<name>Pan</name>
															<parameterid>pan</parameterid>
															<valuemin>-1</valuemin>
															<valuemax>1</valuemax>
															<value>0</value>
														</parameter>
													</effect>
												</filter>
												<sourcetrack>
													<mediatype>audio</mediatype>
													<trackindex>2</trackindex>
												</sourcetrack>
												<link>
													<linkclipref>AA0055_01 2</linkclipref>
													<mediatype>video</mediatype>
													<trackindex>1</trackindex>
													<clipindex>1</clipindex>
												</link>
												<link>
													<linkclipref>AA0055_01 4</linkclipref>
													<mediatype>audio</mediatype>
													<trackindex>1</trackindex>
													<clipindex>1</clipindex>
												</link>
												<link>
													<linkclipref>AA0055_01 5</linkclipref>
													<mediatype>audio</mediatype>
													<trackindex>2</trackindex>
													<clipindex>1</clipindex>
												</link>
												<mediadelay>571657</mediadelay>
												<itemhistory>
													<uuid>73ED19C5-2F30-41EA-82B8-F82098150EC9</uuid>
												</itemhistory>
											</clipitem>
											<enabled>TRUE</enabled>
											<locked>FALSE</locked>
										</track>
										<filter>
											<effect>
												<name>Audio Levels</name>
												<effectid>audiolevels</effectid>
												<effectcategory>audiolevels</effectcategory>
												<effecttype>audiolevels</effecttype>
												<mediatype>audio</mediatype>
												<parameter>
													<name>Level</name>
													<parameterid>level</parameterid>
													<valuemin>0</valuemin>
													<valuemax>3.98109</valuemax>
													<value>1</value>
												</parameter>
											</effect>
										</filter>
									</audio>
								</media>
							</clip>
						</angle>
						<masterclipid>AA0026_01 6</masterclipid>
					</multiclip>
					<mediadelay>186865</mediadelay>
					<itemhistory>
						<uuid>4C7DB6E2-C6F7-4D19-9AF6-C3E89349D67D</uuid>
					</itemhistory>
				</clipitem>
				<enabled>TRUE</enabled>
				<locked>FALSE</locked>
			</track>
			<track>
				<clipitem id="BB0019_01 ">
					<name>BB0019_01</name>
					<duration>576865</duration>
					<rate>
						<ntsc>TRUE</ntsc>
						<timebase>24</timebase>
					</rate>
					<in>235758</in>
					<out>242957</out>
					<start>0</start>
					<end>7199</end>
					<pixelaspectratio>Square</pixelaspectratio>
					<anamorphic>FALSE</anamorphic>
					<alphatype>none</alphatype>
					<masterclipid>BB0019_01 1</masterclipid>
					<syncoffset>0</syncoffset>
					<logginginfo>
						<scene/>
						<shottake/>
						<lognote/>
						<good>FALSE</good>
					</logginginfo>
					<labels>
						<label>Best Take</label>
						<label2/>
					</labels>
					<comments>
						<mastercomment1/>
						<mastercomment2/>
						<mastercomment3/>
						<mastercomment4/>
					</comments>
					<file id="BB0019_01 2">
						<name>BB0019_01.mov</name>
						<pathurl>file://localhost/Volumes/Share/Edit%20Share/00%20BREW%20DOGS%20S1/BD_00_San_Diego/052413/01_Video/C300/BB0019_01.mov</pathurl>
						<rate>
							<timebase>24</timebase>
							<ntsc>TRUE</ntsc>
						</rate>
						<duration>7200</duration>
						<metadata>
							<storage>QuickTime</storage>
							<key>com.apple.quicktime.creationdate</key>
							<size>24</size>
							<type>UTF8</type>
							<value>2013-05-24T13:33:53-0700</value>
						</metadata>
						<metadata>
							<storage>QuickTime</storage>
							<key>com.apple.finalcutstudio.media.history.uuid</key>
							<size>36</size>
							<type>UTF8</type>
							<value>1471C0E4-0E34-4707-9ECA-52C375BCFD00</value>
						</metadata>
						<metadata>
							<storage>QuickTime</storage>
							<key>com.apple.finalcutstudio.media.uuid</key>
							<size>36</size>
							<type>UTF8</type>
							<value>C79BC1DA-AC5D-4480-82F1-B088266CBAA9</value>
						</metadata>
						<metadata>
							<storage>QuickTime</storage>
							<key>com.apple.proapps.reel</key>
							<size>12</size>
							<type>UTF8</type>
							<value>B02_verified</value>
						</metadata>
						<metadata>
							<storage>QuickTime</storage>
							<key>com.apple.proapps.isGood</key>
							<size>4</size>
							<type>unsigned</type>
							<value>0</value>
						</metadata>
						<metadata>
							<storage>QuickTime</storage>
							<key>com.apple.proapps.clipID</key>
							<size>36</size>
							<type>UTF8</type>
							<value>0D3D2FFC-3664-0580-0000-8500025A0AE7</value>
						</metadata>
						<metadata>
							<storage>QuickTime</storage>
							<key>com.apple.proapps.originalFormat</key>
							<size>14</size>
							<type>UTF8</type>
							<value>Canon XF MPEG2</value>
						</metadata>
						<timecode>
							<rate>
								<timebase>24</timebase>
							</rate>
							<string>13:35:03:04</string>
							<frame>1173676</frame>
							<displayformat>NDF</displayformat>
							<source>source</source>
							<reel>
								<name>B02_verified</name>
							</reel>
						</timecode>
						<media>
							<video>
								<duration>7200</duration>
								<samplecharacteristics>
									<width>1920</width>
									<height>1080</height>
								</samplecharacteristics>
							</video>
							<audio>
								<samplecharacteristics>
									<samplerate>48000</samplerate>
									<depth>16</depth>
								</samplecharacteristics>
								<channelcount>1</channelcount>
								<layout>mono</layout>
								<audiochannel>
									<sourcechannel>1</sourcechannel>
									<channellabel>discrete</channellabel>
								</audiochannel>
							</audio>
							<audio>
								<samplecharacteristics>
									<samplerate>48000</samplerate>
									<depth>16</depth>
								</samplecharacteristics>
								<channelcount>1</channelcount>
								<layout>mono</layout>
								<audiochannel>
									<sourcechannel>2</sourcechannel>
									<channellabel>discrete</channellabel>
								</audiochannel>
							</audio>
						</media>
					</file>
					<filter>
						<effect>
							<name>Basic Motion</name>
							<effectid>basic</effectid>
							<effectcategory>motion</effectcategory>
							<effecttype>motion</effecttype>
							<mediatype>video</mediatype>
							<parameter>
								<parameterid>scale</parameterid>
								<name>Scale</name>
								<valuemin>0</valuemin>
								<valuemax>1000</valuemax>
								<value>49</value>
							</parameter>
							<parameter>
								<parameterid>rotation</parameterid>
								<name>Rotation</name>
								<valuemin>-8640</valuemin>
								<valuemax>8640</valuemax>
								<value>0</value>
							</parameter>
							<parameter>
								<parameterid>center</parameterid>
								<name>Center</name>
								<value>
									<horiz>0.247917</horiz>
									<vert>-0.25</vert>
								</value>
							</parameter>
							<parameter>
								<parameterid>centerOffset</parameterid>
								<name>Anchor Point</name>
								<value>
									<horiz>0</horiz>
									<vert>0</vert>
								</value>
							</parameter>
						</effect>
					</filter>
					<sourcetrack>
						<mediatype>video</mediatype>
					</sourcetrack>
					<link>
						<linkclipref>BB0019_01 </linkclipref>
						<mediatype>video</mediatype>
						<trackindex>2</trackindex>
						<clipindex>1</clipindex>
					</link>
					<link>
						<linkclipref>BB0019_01 3</linkclipref>
						<mediatype>audio</mediatype>
						<trackindex>3</trackindex>
						<clipindex>1</clipindex>
					</link>
					<link>
						<linkclipref>BB0019_01 4</linkclipref>
						<mediatype>audio</mediatype>
						<trackindex>4</trackindex>
						<clipindex>1</clipindex>
					</link>
					<fielddominance>none</fielddominance>
					<multiclip id="Multiclip 3 ">
						<name>Multiclip 3</name>
						<collapsed>TRUE</collapsed>
						<synctype>3</synctype>
						<angle>
							<clip id="BB0002_01 ">
								<uuid>DE1B154F-61ED-4244-ADE8-F44011AF4145</uuid>
								<updatebehavior>add</updatebehavior>
								<name>BB0002_01</name>
								<duration>576865</duration>
								<rate>
									<ntsc>TRUE</ntsc>
									<timebase>24</timebase>
								</rate>
								<in>-1</in>
								<out>-1</out>
								<anamorphic>FALSE</anamorphic>
								<masterclipid>BB0002_01 1</masterclipid>
								<ismasterclip>FALSE</ismasterclip>
								<logginginfo>
									<scene/>
									<shottake/>
									<lognote/>
									<good>FALSE</good>
								</logginginfo>
								<labels>
									<label>Best Take</label>
									<label2/>
								</labels>
								<comments>
									<mastercomment1/>
									<mastercomment2/>
									<mastercomment3/>
									<mastercomment4/>
								</comments>
								<media>
									<video>
										<track>
											<clipitem id="BB0002_01 2">
												<name>BB0002_01</name>
												<duration>576865</duration>
												<rate>
													<ntsc>TRUE</ntsc>
													<timebase>24</timebase>
												</rate>
												<in>0</in>
												<out>576865</out>
												<start>0</start>
												<end>576865</end>
												<pixelaspectratio>Square</pixelaspectratio>
												<anamorphic>FALSE</anamorphic>
												<alphatype>none</alphatype>
												<masterclipid>BB0002_01 1</masterclipid>
												<syncoffset>0</syncoffset>
												<logginginfo>
													<scene/>
													<shottake/>
													<lognote/>
													<good>FALSE</good>
												</logginginfo>
												<labels>
													<label>Best Take</label>
													<label2/>
												</labels>
												<comments>
													<mastercomment1/>
													<mastercomment2/>
													<mastercomment3/>
													<mastercomment4/>
												</comments>
												<file id="BB0002_01 3">
													<name>BB0002_01.mov</name>
													<pathurl>file://localhost/Volumes/Share/Edit%20Share/00%20BREW%20DOGS%20S1/BD_00_San_Diego/052413/01_Video/C300/BB0002_01.mov</pathurl>
													<rate>
														<timebase>24</timebase>
														<ntsc>TRUE</ntsc>
													</rate>
													<duration>8652</duration>
													<metadata>
														<storage>QuickTime</storage>
														<key>com.apple.quicktime.creationdate</key>
														<size>24</size>
														<type>UTF8</type>
														<value>2013-05-24T10:50:00-0700</value>
													</metadata>
													<metadata>
														<storage>QuickTime</storage>
														<key>com.apple.finalcutstudio.media.history.uuid</key>
														<size>36</size>
														<type>UTF8</type>
														<value>876D35C1-23B3-4653-8556-105C721D09EA</value>
													</metadata>
													<metadata>
														<storage>QuickTime</storage>
														<key>com.apple.finalcutstudio.media.uuid</key>
														<size>36</size>
														<type>UTF8</type>
														<value>66474AFF-AB70-42BF-9593-D1727D527412</value>
													</metadata>
													<metadata>
														<storage>QuickTime</storage>
														<key>com.apple.proapps.reel</key>
														<size>12</size>
														<type>UTF8</type>
														<value>B01_verified</value>
													</metadata>
													<metadata>
														<storage>QuickTime</storage>
														<key>com.apple.proapps.isGood</key>
														<size>4</size>
														<type>unsigned</type>
														<value>0</value>
													</metadata>
													<metadata>
														<storage>QuickTime</storage>
														<key>com.apple.proapps.clipID</key>
														<size>36</size>
														<type>UTF8</type>
														<value>0D342F60-3664-0580-0000-8500025A0AE7</value>
													</metadata>
													<metadata>
														<storage>QuickTime</storage>
														<key>com.apple.proapps.originalFormat</key>
														<size>14</size>
														<type>UTF8</type>
														<value>Canon XF MPEG2</value>
													</metadata>
													<timecode>
														<rate>
															<timebase>24</timebase>
														</rate>
														<string>10:51:19:22</string>
														<frame>937918</frame>
														<displayformat>NDF</displayformat>
														<source>source</source>
														<reel>
															<name>B01_verified</name>
														</reel>
													</timecode>
													<media>
														<video>
															<duration>8652</duration>
															<samplecharacteristics>
																<width>1920</width>
																<height>1080</height>
															</samplecharacteristics>
														</video>
														<audio>
															<samplecharacteristics>
																<samplerate>48000</samplerate>
																<depth>16</depth>
															</samplecharacteristics>
															<channelcount>1</channelcount>
															<layout>mono</layout>
															<audiochannel>
																<sourcechannel>1</sourcechannel>
																<channellabel>discrete</channellabel>
															</audiochannel>
														</audio>
														<audio>
															<samplecharacteristics>
																<samplerate>48000</samplerate>
																<depth>16</depth>
															</samplecharacteristics>
															<channelcount>1</channelcount>
															<layout>mono</layout>
															<audiochannel>
																<sourcechannel>2</sourcechannel>
																<channellabel>discrete</channellabel>
															</audiochannel>
														</audio>
													</media>
												</file>
												<sourcetrack>
													<mediatype>video</mediatype>
												</sourcetrack>
												<link>
													<linkclipref>BB0002_01 2</linkclipref>
													<mediatype>video</mediatype>
													<trackindex>1</trackindex>
													<clipindex>1</clipindex>
												</link>
												<link>
													<linkclipref>BB0002_01 4</linkclipref>
													<mediatype>audio</mediatype>
													<trackindex>1</trackindex>
													<clipindex>1</clipindex>
												</link>
												<link>
													<linkclipref>BB0002_01 5</linkclipref>
													<mediatype>audio</mediatype>
													<trackindex>2</trackindex>
													<clipindex>1</clipindex>
												</link>
												<fielddominance>none</fielddominance>
												<itemhistory>
													<uuid>FE6EC79E-45D2-4638-884D-37A18BE9E44D</uuid>
												</itemhistory>
											</clipitem>
											<enabled>TRUE</enabled>
											<locked>FALSE</locked>
										</track>
									</video>
									<audio>
										<outputs>
											<group>
												<index>1</index>
												<numchannels>2</numchannels>
												<downmix>0</downmix>
												<channel>
													<index>1</index>
												</channel>
												<channel>
													<index>2</index>
												</channel>
											</group>
										</outputs>
										<in>-1</in>
										<out>-1</out>
										<track>
											<clipitem id="BB0002_01 4">
												<name>BB0002_01</name>
												<duration>576865</duration>
												<rate>
													<ntsc>TRUE</ntsc>
													<timebase>24</timebase>
												</rate>
												<in>0</in>
												<out>576865</out>
												<start>0</start>
												<end>576865</end>
												<subframeoffset>0</subframeoffset>
												<anamorphic>FALSE</anamorphic>
												<masterclipid>BB0002_01 1</masterclipid>
												<syncoffset>0</syncoffset>
												<logginginfo>
													<scene/>
													<shottake/>
													<lognote/>
													<good>FALSE</good>
												</logginginfo>
												<labels>
													<label>Best Take</label>
													<label2/>
												</labels>
												<comments>
													<mastercomment1/>
													<mastercomment2/>
													<mastercomment3/>
													<mastercomment4/>
												</comments>
												<file id="BB0002_01 3"/>
												<filter>
													<effect>
														<name>Audio Levels</name>
														<effectid>audiolevels</effectid>
														<effectcategory>audiolevels</effectcategory>
														<effecttype>audiolevels</effecttype>
														<mediatype>audio</mediatype>
														<parameter>
															<name>Level</name>
															<parameterid>level</parameterid>
															<valuemin>0</valuemin>
															<valuemax>3.98109</valuemax>
															<value>1</value>
														</parameter>
													</effect>
												</filter>
												<filter>
													<effect>
														<name>Audio Pan</name>
														<effectid>audiopan</effectid>
														<effectcategory>audiopan</effectcategory>
														<effecttype>audiopan</effecttype>
														<mediatype>audio</mediatype>
														<parameter>
															<name>Pan</name>
															<parameterid>pan</parameterid>
															<valuemin>-1</valuemin>
															<valuemax>1</valuemax>
															<value>0</value>
														</parameter>
													</effect>
												</filter>
												<sourcetrack>
													<mediatype>audio</mediatype>
													<trackindex>1</trackindex>
												</sourcetrack>
												<link>
													<linkclipref>BB0002_01 2</linkclipref>
													<mediatype>video</mediatype>
													<trackindex>1</trackindex>
													<clipindex>1</clipindex>
												</link>
												<link>
													<linkclipref>BB0002_01 4</linkclipref>
													<mediatype>audio</mediatype>
													<trackindex>1</trackindex>
													<clipindex>1</clipindex>
												</link>
												<link>
													<linkclipref>BB0002_01 5</linkclipref>
													<mediatype>audio</mediatype>
													<trackindex>2</trackindex>
													<clipindex>1</clipindex>
												</link>
												<itemhistory>
													<uuid>1CB07C7B-400B-4B73-99C5-0E8F21AB641D</uuid>
												</itemhistory>
											</clipitem>
											<enabled>TRUE</enabled>
											<locked>FALSE</locked>
										</track>
										<track>
											<clipitem id="BB0002_01 5">
												<name>BB0002_01</name>
												<duration>576865</duration>
												<rate>
													<ntsc>TRUE</ntsc>
													<timebase>24</timebase>
												</rate>
												<in>0</in>
												<out>576865</out>
												<start>0</start>
												<end>576865</end>
												<subframeoffset>0</subframeoffset>
												<anamorphic>FALSE</anamorphic>
												<masterclipid>BB0002_01 1</masterclipid>
												<syncoffset>0</syncoffset>
												<logginginfo>
													<scene/>
													<shottake/>
													<lognote/>
													<good>FALSE</good>
												</logginginfo>
												<labels>
													<label>Best Take</label>
													<label2/>
												</labels>
												<comments>
													<mastercomment1/>
													<mastercomment2/>
													<mastercomment3/>
													<mastercomment4/>
												</comments>
												<file id="BB0002_01 3"/>
												<filter>
													<effect>
														<name>Audio Levels</name>
														<effectid>audiolevels</effectid>
														<effectcategory>audiolevels</effectcategory>
														<effecttype>audiolevels</effecttype>
														<mediatype>audio</mediatype>
														<parameter>
															<name>Level</name>
															<parameterid>level</parameterid>
															<valuemin>0</valuemin>
															<valuemax>3.98109</valuemax>
															<value>1</value>
														</parameter>
													</effect>
												</filter>
												<filter>
													<effect>
														<name>Audio Pan</name>
														<effectid>audiopan</effectid>
														<effectcategory>audiopan</effectcategory>
														<effecttype>audiopan</effecttype>
														<mediatype>audio</mediatype>
														<parameter>
															<name>Pan</name>
															<parameterid>pan</parameterid>
															<valuemin>-1</valuemin>
															<valuemax>1</valuemax>
															<value>0</value>
														</parameter>
													</effect>
												</filter>
												<sourcetrack>
													<mediatype>audio</mediatype>
													<trackindex>2</trackindex>
												</sourcetrack>
												<link>
													<linkclipref>BB0002_01 2</linkclipref>
													<mediatype>video</mediatype>
													<trackindex>1</trackindex>
													<clipindex>1</clipindex>
												</link>
												<link>
													<linkclipref>BB0002_01 4</linkclipref>
													<mediatype>audio</mediatype>
													<trackindex>1</trackindex>
													<clipindex>1</clipindex>
												</link>
												<link>
													<linkclipref>BB0002_01 5</linkclipref>
													<mediatype>audio</mediatype>
													<trackindex>2</trackindex>
													<clipindex>1</clipindex>
												</link>
												<itemhistory>
													<uuid>D58AB34D-1E9C-4368-A712-ED831E4BF991</uuid>
												</itemhistory>
											</clipitem>
											<enabled>TRUE</enabled>
											<locked>FALSE</locked>
										</track>
										<filter>
											<effect>
												<name>Audio Levels</name>
												<effectid>audiolevels</effectid>
												<effectcategory>audiolevels</effectcategory>
												<effecttype>audiolevels</effecttype>
												<mediatype>audio</mediatype>
												<parameter>
													<name>Level</name>
													<parameterid>level</parameterid>
													<valuemin>0</valuemin>
													<valuemax>3.98109</valuemax>
													<value>1</value>
												</parameter>
											</effect>
										</filter>
									</audio>
								</media>
							</clip>
						</angle>
						<angle>
							<clip id="BB0003_01 ">
								<uuid>A4457D0E-4379-4E13-82B0-0149C9674159</uuid>
								<updatebehavior>add</updatebehavior>
								<name>BB0003_01</name>
								<duration>576865</duration>
								<rate>
									<ntsc>TRUE</ntsc>
									<timebase>24</timebase>
								</rate>
								<in>-1</in>
								<out>-1</out>
								<anamorphic>FALSE</anamorphic>
								<masterclipid>BB0003_01 1</masterclipid>
								<ismasterclip>FALSE</ismasterclip>
								<logginginfo>
									<scene/>
									<shottake/>
									<lognote/>
									<good>FALSE</good>
								</logginginfo>
								<labels>
									<label>Best Take</label>
									<label2/>
								</labels>
								<comments>
									<mastercomment1/>
									<mastercomment2/>
									<mastercomment3/>
									<mastercomment4/>
								</comments>
								<media>
									<video>
										<track>
											<clipitem id="BB0003_01 2">
												<name>BB0003_01</name>
												<duration>576865</duration>
												<rate>
													<ntsc>TRUE</ntsc>
													<timebase>24</timebase>
												</rate>
												<in>0</in>
												<out>576865</out>
												<start>0</start>
												<end>576865</end>
												<pixelaspectratio>Square</pixelaspectratio>
												<anamorphic>FALSE</anamorphic>
												<alphatype>none</alphatype>
												<masterclipid>BB0003_01 1</masterclipid>
												<syncoffset>0</syncoffset>
												<logginginfo>
													<scene/>
													<shottake/>
													<lognote/>
													<good>FALSE</good>
												</logginginfo>
												<labels>
													<label>Best Take</label>
													<label2/>
												</labels>
												<comments>
													<mastercomment1/>
													<mastercomment2/>
													<mastercomment3/>
													<mastercomment4/>
												</comments>
												<file id="BB0003_01 3">
													<name>BB0003_01.mov</name>
													<pathurl>file://localhost/Volumes/Share/Edit%20Share/00%20BREW%20DOGS%20S1/BD_00_San_Diego/052413/01_Video/C300/BB0003_01.mov</pathurl>
													<rate>
														<timebase>24</timebase>
														<ntsc>TRUE</ntsc>
													</rate>
													<duration>84</duration>
													<metadata>
														<storage>QuickTime</storage>
														<key>com.apple.quicktime.creationdate</key>
														<size>24</size>
														<type>UTF8</type>
														<value>2013-05-24T10:56:47-0700</value>
													</metadata>
													<metadata>
														<storage>QuickTime</storage>
														<key>com.apple.finalcutstudio.media.history.uuid</key>
														<size>36</size>
														<type>UTF8</type>
														<value>0D2DF7DA-751C-472C-860A-CDE4C8FDD68B</value>
													</metadata>
													<metadata>
														<storage>QuickTime</storage>
														<key>com.apple.finalcutstudio.media.uuid</key>
														<size>36</size>
														<type>UTF8</type>
														<value>AC7AFFFD-CEB2-4C2C-9A04-8340088159FA</value>
													</metadata>
													<metadata>
														<storage>QuickTime</storage>
														<key>com.apple.proapps.reel</key>
														<size>12</size>
														<type>UTF8</type>
														<value>B01_verified</value>
													</metadata>
													<metadata>
														<storage>QuickTime</storage>
														<key>com.apple.proapps.isGood</key>
														<size>4</size>
														<type>unsigned</type>
														<value>0</value>
													</metadata>
													<metadata>
														<storage>QuickTime</storage>
														<key>com.apple.proapps.clipID</key>
														<size>36</size>
														<type>UTF8</type>
														<value>0D348EC4-3664-0580-0000-8500025A0AE7</value>
													</metadata>
													<metadata>
														<storage>QuickTime</storage>
														<key>com.apple.proapps.originalFormat</key>
														<size>14</size>
														<type>UTF8</type>
														<value>Canon XF MPEG2</value>
													</metadata>
													<timecode>
														<rate>
															<timebase>24</timebase>
														</rate>
														<string>10:58:06:18</string>
														<frame>947682</frame>
														<displayformat>NDF</displayformat>
														<source>source</source>
														<reel>
															<name>B01_verified</name>
														</reel>
													</timecode>
													<media>
														<video>
															<duration>84</duration>
															<samplecharacteristics>
																<width>1920</width>
																<height>1080</height>
															</samplecharacteristics>
														</video>
														<audio>
															<samplecharacteristics>
																<samplerate>48000</samplerate>
																<depth>16</depth>
															</samplecharacteristics>
															<channelcount>1</channelcount>
															<layout>mono</layout>
															<audiochannel>
																<sourcechannel>1</sourcechannel>
																<channellabel>discrete</channellabel>
															</audiochannel>
														</audio>
														<audio>
															<samplecharacteristics>
																<samplerate>48000</samplerate>
																<depth>16</depth>
															</samplecharacteristics>
															<channelcount>1</channelcount>
															<layout>mono</layout>
															<audiochannel>
																<sourcechannel>2</sourcechannel>
																<channellabel>discrete</channellabel>
															</audiochannel>
														</audio>
													</media>
												</file>
												<sourcetrack>
													<mediatype>video</mediatype>
												</sourcetrack>
												<link>
													<linkclipref>BB0003_01 2</linkclipref>
													<mediatype>video</mediatype>
													<trackindex>1</trackindex>
													<clipindex>1</clipindex>
												</link>
												<link>
													<linkclipref>BB0003_01 4</linkclipref>
													<mediatype>audio</mediatype>
													<trackindex>1</trackindex>
													<clipindex>1</clipindex>
												</link>
												<link>
													<linkclipref>BB0003_01 5</linkclipref>
													<mediatype>audio</mediatype>
													<trackindex>2</trackindex>
													<clipindex>1</clipindex>
												</link>
												<fielddominance>none</fielddominance>
												<mediadelay>9764</mediadelay>
												<itemhistory>
													<uuid>22F75960-1295-4860-A9DE-ADB88DB7ABE2</uuid>
												</itemhistory>
											</clipitem>
											<enabled>TRUE</enabled>
											<locked>FALSE</locked>
										</track>
									</video>
									<audio>
										<outputs>
											<group>
												<index>1</index>
												<numchannels>2</numchannels>
												<downmix>0</downmix>
												<channel>
													<index>1</index>
												</channel>
												<channel>
													<index>2</index>
												</channel>
											</group>
										</outputs>
										<in>-1</in>
										<out>-1</out>
										<track>
											<clipitem id="BB0003_01 4">
												<name>BB0003_01</name>
												<duration>576865</duration>
												<rate>
													<ntsc>TRUE</ntsc>
													<timebase>24</timebase>
												</rate>
												<in>0</in>
												<out>576865</out>
												<start>0</start>
												<end>576865</end>
												<subframeoffset>0</subframeoffset>
												<anamorphic>FALSE</anamorphic>
												<masterclipid>BB0003_01 1</masterclipid>
												<syncoffset>0</syncoffset>
												<logginginfo>
													<scene/>
													<shottake/>
													<lognote/>
													<good>FALSE</good>
												</logginginfo>
												<labels>
													<label>Best Take</label>
													<label2/>
												</labels>
												<comments>
													<mastercomment1/>
													<mastercomment2/>
													<mastercomment3/>
													<mastercomment4/>
												</comments>
												<file id="BB0003_01 3"/>
												<filter>
													<effect>
														<name>Audio Levels</name>
														<effectid>audiolevels</effectid>
														<effectcategory>audiolevels</effectcategory>
														<effecttype>audiolevels</effecttype>
														<mediatype>audio</mediatype>
														<parameter>
															<name>Level</name>
															<parameterid>level</parameterid>
															<valuemin>0</valuemin>
															<valuemax>3.98109</valuemax>
															<value>1</value>
														</parameter>
													</effect>
												</filter>
												<filter>
													<effect>
														<name>Audio Pan</name>
														<effectid>audiopan</effectid>
														<effectcategory>audiopan</effectcategory>
														<effecttype>audiopan</effecttype>
														<mediatype>audio</mediatype>
														<parameter>
															<name>Pan</name>
															<parameterid>pan</parameterid>
															<valuemin>-1</valuemin>
															<valuemax>1</valuemax>
															<value>0</value>
														</parameter>
													</effect>
												</filter>
												<sourcetrack>
													<mediatype>audio</mediatype>
													<trackindex>1</trackindex>
												</sourcetrack>
												<link>
													<linkclipref>BB0003_01 2</linkclipref>
													<mediatype>video</mediatype>
													<trackindex>1</trackindex>
													<clipindex>1</clipindex>
												</link>
												<link>
													<linkclipref>BB0003_01 4</linkclipref>
													<mediatype>audio</mediatype>
													<trackindex>1</trackindex>
													<clipindex>1</clipindex>
												</link>
												<link>
													<linkclipref>BB0003_01 5</linkclipref>
													<mediatype>audio</mediatype>
													<trackindex>2</trackindex>
													<clipindex>1</clipindex>
												</link>
												<mediadelay>9764</mediadelay>
												<itemhistory>
													<uuid>63359B46-E026-41C3-862D-3ABFA0EEDA83</uuid>
												</itemhistory>
											</clipitem>
											<enabled>TRUE</enabled>
											<locked>FALSE</locked>
										</track>
										<track>
											<clipitem id="BB0003_01 5">
												<name>BB0003_01</name>
												<duration>576865</duration>
												<rate>
													<ntsc>TRUE</ntsc>
													<timebase>24</timebase>
												</rate>
												<in>0</in>
												<out>576865</out>
												<start>0</start>
												<end>576865</end>
												<subframeoffset>0</subframeoffset>
												<anamorphic>FALSE</anamorphic>
												<masterclipid>BB0003_01 1</masterclipid>
												<syncoffset>0</syncoffset>
												<logginginfo>
													<scene/>
													<shottake/>
													<lognote/>
													<good>FALSE</good>
												</logginginfo>
												<labels>
													<label>Best Take</label>
													<label2/>
												</labels>
												<comments>
													<mastercomment1/>
													<mastercomment2/>
													<mastercomment3/>
													<mastercomment4/>
												</comments>
												<file id="BB0003_01 3"/>
												<filter>
													<effect>
														<name>Audio Levels</name>
														<effectid>audiolevels</effectid>
														<effectcategory>audiolevels</effectcategory>
														<effecttype>audiolevels</effecttype>
														<mediatype>audio</mediatype>
														<parameter>
															<name>Level</name>
															<parameterid>level</parameterid>
															<valuemin>0</valuemin>
															<valuemax>3.98109</valuemax>
															<value>1</value>
														</parameter>
													</effect>
												</filter>
												<filter>
													<effect>
														<name>Audio Pan</name>
														<effectid>audiopan</effectid>
														<effectcategory>audiopan</effectcategory>
														<effecttype>audiopan</effecttype>
														<mediatype>audio</mediatype>
														<parameter>
															<name>Pan</name>
															<parameterid>pan</parameterid>
															<valuemin>-1</valuemin>
															<valuemax>1</valuemax>
															<value>0</value>
														</parameter>
													</effect>
												</filter>
												<sourcetrack>
													<mediatype>audio</mediatype>
													<trackindex>2</trackindex>
												</sourcetrack>
												<link>
													<linkclipref>BB0003_01 2</linkclipref>
													<mediatype>video</mediatype>
													<trackindex>1</trackindex>
													<clipindex>1</clipindex>
												</link>
												<link>
													<linkclipref>BB0003_01 4</linkclipref>
													<mediatype>audio</mediatype>
													<trackindex>1</trackindex>
													<clipindex>1</clipindex>
												</link>
												<link>
													<linkclipref>BB0003_01 5</linkclipref>
													<mediatype>audio</mediatype>
													<trackindex>2</trackindex>
													<clipindex>1</clipindex>
												</link>
												<mediadelay>9764</mediadelay>
												<itemhistory>
													<uuid>6A46276A-D787-4B4C-88F7-D9657CF80FB4</uuid>
												</itemhistory>
											</clipitem>
											<enabled>TRUE</enabled>
											<locked>FALSE</locked>
										</track>
										<filter>
											<effect>
												<name>Audio Levels</name>
												<effectid>audiolevels</effectid>
												<effectcategory>audiolevels</effectcategory>
												<effecttype>audiolevels</effecttype>
												<mediatype>audio</mediatype>
												<parameter>
													<name>Level</name>
													<parameterid>level</parameterid>
													<valuemin>0</valuemin>
													<valuemax>3.98109</valuemax>
													<value>1</value>
												</parameter>
											</effect>
										</filter>
									</audio>
								</media>
							</clip>
						</angle>
						<angle>
							<clip id="BB0004_01 ">
								<uuid>5C97BC2B-04F0-47E2-8350-01A4C4629852</uuid>
								<updatebehavior>add</updatebehavior>
								<name>BB0004_01</name>
								<duration>576865</duration>
								<rate>
									<ntsc>TRUE</ntsc>
									<timebase>24</timebase>
								</rate>
								<in>-1</in>
								<out>-1</out>
								<anamorphic>FALSE</anamorphic>
								<masterclipid>BB0004_01 1</masterclipid>
								<ismasterclip>FALSE</ismasterclip>
								<logginginfo>
									<scene/>
									<shottake/>
									<lognote/>
									<good>FALSE</good>
								</logginginfo>
								<labels>
									<label>Best Take</label>
									<label2/>
								</labels>
								<comments>
									<mastercomment1/>
									<mastercomment2/>
									<mastercomment3/>
									<mastercomment4/>
								</comments>
								<media>
									<video>
										<track>
											<clipitem id="BB0004_01 2">
												<name>BB0004_01</name>
												<duration>576865</duration>
												<rate>
													<ntsc>TRUE</ntsc>
													<timebase>24</timebase>
												</rate>
												<in>0</in>
												<out>576865</out>
												<start>0</start>
												<end>576865</end>
												<pixelaspectratio>Square</pixelaspectratio>
												<anamorphic>FALSE</anamorphic>
												<alphatype>none</alphatype>
												<masterclipid>BB0004_01 1</masterclipid>
												<syncoffset>0</syncoffset>
												<logginginfo>
													<scene/>
													<shottake/>
													<lognote/>
													<good>FALSE</good>
												</logginginfo>
												<labels>
													<label>Best Take</label>
													<label2/>
												</labels>
												<comments>
													<mastercomment1/>
													<mastercomment2/>
													<mastercomment3/>
													<mastercomment4/>
												</comments>
												<file id="BB0004_01 3">
													<name>BB0004_01.mov</name>
													<pathurl>file://localhost/Volumes/Share/Edit%20Share/00%20BREW%20DOGS%20S1/BD_00_San_Diego/052413/01_Video/C300/BB0004_01.mov</pathurl>
													<rate>
														<timebase>24</timebase>
														<ntsc>TRUE</ntsc>
													</rate>
													<duration>4704</duration>
													<metadata>
														<storage>QuickTime</storage>
														<key>com.apple.quicktime.creationdate</key>
														<size>24</size>
														<type>UTF8</type>
														<value>2013-05-24T10:56:55-0700</value>
													</metadata>
													<metadata>
														<storage>QuickTime</storage>
														<key>com.apple.finalcutstudio.media.history.uuid</key>
														<size>36</size>
														<type>UTF8</type>
														<value>0115405C-99F5-4154-9581-5C5CC2498082</value>
													</metadata>
													<metadata>
														<storage>QuickTime</storage>
														<key>com.apple.finalcutstudio.media.uuid</key>
														<size>36</size>
														<type>UTF8</type>
														<value>CFD86E5B-0003-4BDE-BA5C-B8ADE9E3E4B4</value>
													</metadata>
													<metadata>
														<storage>QuickTime</storage>
														<key>com.apple.proapps.reel</key>
														<size>12</size>
														<type>UTF8</type>
														<value>B01_verified</value>
													</metadata>
													<metadata>
														<storage>QuickTime</storage>
														<key>com.apple.proapps.isGood</key>
														<size>4</size>
														<type>unsigned</type>
														<value>0</value>
													</metadata>
													<metadata>
														<storage>QuickTime</storage>
														<key>com.apple.proapps.clipID</key>
														<size>36</size>
														<type>UTF8</type>
														<value>0D3490A4-3664-0580-0000-8500025A0AE7</value>
													</metadata>
													<metadata>
														<storage>QuickTime</storage>
														<key>com.apple.proapps.originalFormat</key>
														<size>14</size>
														<type>UTF8</type>
														<value>Canon XF MPEG2</value>
													</metadata>
													<timecode>
														<rate>
															<timebase>24</timebase>
														</rate>
														<string>10:58:14:22</string>
														<frame>947878</frame>
														<displayformat>NDF</displayformat>
														<source>source</source>
														<reel>
															<name>B01_verified</name>
														</reel>
													</timecode>
													<media>
														<video>
															<duration>4704</duration>
															<samplecharacteristics>
																<width>1920</width>
																<height>1080</height>
															</samplecharacteristics>
														</video>
														<audio>
															<samplecharacteristics>
																<samplerate>48000</samplerate>
																<depth>16</depth>
															</samplecharacteristics>
															<channelcount>1</channelcount>
															<layout>mono</layout>
															<audiochannel>
																<sourcechannel>1</sourcechannel>
																<channellabel>discrete</channellabel>
															</audiochannel>
														</audio>
														<audio>
															<samplecharacteristics>
																<samplerate>48000</samplerate>
																<depth>16</depth>
															</samplecharacteristics>
															<channelcount>1</channelcount>
															<layout>mono</layout>
															<audiochannel>
																<sourcechannel>2</sourcechannel>
																<channellabel>discrete</channellabel>
															</audiochannel>
														</audio>
													</media>
												</file>
												<sourcetrack>
													<mediatype>video</mediatype>
												</sourcetrack>
												<link>
													<linkclipref>BB0004_01 2</linkclipref>
													<mediatype>video</mediatype>
													<trackindex>1</trackindex>
													<clipindex>1</clipindex>
												</link>
												<link>
													<linkclipref>BB0004_01 4</linkclipref>
													<mediatype>audio</mediatype>
													<trackindex>1</trackindex>
													<clipindex>1</clipindex>
												</link>
												<link>
													<linkclipref>BB0004_01 5</linkclipref>
													<mediatype>audio</mediatype>
													<trackindex>2</trackindex>
													<clipindex>1</clipindex>
												</link>
												<fielddominance>none</fielddominance>
												<mediadelay>9960</mediadelay>
												<itemhistory>
													<uuid>A9C086A0-0A86-4A00-AB0E-1F806E967846</uuid>
												</itemhistory>
											</clipitem>
											<enabled>TRUE</enabled>
											<locked>FALSE</locked>
										</track>
									</video>
									<audio>
										<outputs>
											<group>
												<index>1</index>
												<numchannels>2</numchannels>
												<downmix>0</downmix>
												<channel>
													<index>1</index>
												</channel>
												<channel>
													<index>2</index>
												</channel>
											</group>
										</outputs>
										<in>-1</in>
										<out>-1</out>
										<track>
											<clipitem id="BB0004_01 4">
												<name>BB0004_01</name>
												<duration>576865</duration>
												<rate>
													<ntsc>TRUE</ntsc>
													<timebase>24</timebase>
												</rate>
												<in>0</in>
												<out>576865</out>
												<start>0</start>
												<end>576865</end>
												<subframeoffset>0</subframeoffset>
												<anamorphic>FALSE</anamorphic>
												<masterclipid>BB0004_01 1</masterclipid>
												<syncoffset>0</syncoffset>
												<logginginfo>
													<scene/>
													<shottake/>
													<lognote/>
													<good>FALSE</good>
												</logginginfo>
												<labels>
													<label>Best Take</label>
													<label2/>
												</labels>
												<comments>
													<mastercomment1/>
													<mastercomment2/>
													<mastercomment3/>
													<mastercomment4/>
												</comments>
												<file id="BB0004_01 3"/>
												<filter>
													<effect>
														<name>Audio Levels</name>
														<effectid>audiolevels</effectid>
														<effectcategory>audiolevels</effectcategory>
														<effecttype>audiolevels</effecttype>
														<mediatype>audio</mediatype>
														<parameter>
															<name>Level</name>
															<parameterid>level</parameterid>
															<valuemin>0</valuemin>
															<valuemax>3.98109</valuemax>
															<value>1</value>
														</parameter>
													</effect>
												</filter>
												<filter>
													<effect>
														<name>Audio Pan</name>
														<effectid>audiopan</effectid>
														<effectcategory>audiopan</effectcategory>
														<effecttype>audiopan</effecttype>
														<mediatype>audio</mediatype>
														<parameter>
															<name>Pan</name>
															<parameterid>pan</parameterid>
															<valuemin>-1</valuemin>
															<valuemax>1</valuemax>
															<value>0</value>
														</parameter>
													</effect>
												</filter>
												<sourcetrack>
													<mediatype>audio</mediatype>
													<trackindex>1</trackindex>
												</sourcetrack>
												<link>
													<linkclipref>BB0004_01 2</linkclipref>
													<mediatype>video</mediatype>
													<trackindex>1</trackindex>
													<clipindex>1</clipindex>
												</link>
												<link>
													<linkclipref>BB0004_01 4</linkclipref>
													<mediatype>audio</mediatype>
													<trackindex>1</trackindex>
													<clipindex>1</clipindex>
												</link>
												<link>
													<linkclipref>BB0004_01 5</linkclipref>
													<mediatype>audio</mediatype>
													<trackindex>2</trackindex>
													<clipindex>1</clipindex>
												</link>
												<mediadelay>9960</mediadelay>
												<itemhistory>
													<uuid>F9BAF403-7557-439F-A92A-8EB59B770352</uuid>
												</itemhistory>
											</clipitem>
											<enabled>TRUE</enabled>
											<locked>FALSE</locked>
										</track>
										<track>
											<clipitem id="BB0004_01 5">
												<name>BB0004_01</name>
												<duration>576865</duration>
												<rate>
													<ntsc>TRUE</ntsc>
													<timebase>24</timebase>
												</rate>
												<in>0</in>
												<out>576865</out>
												<start>0</start>
												<end>576865</end>
												<subframeoffset>0</subframeoffset>
												<anamorphic>FALSE</anamorphic>
												<masterclipid>BB0004_01 1</masterclipid>
												<syncoffset>0</syncoffset>
												<logginginfo>
													<scene/>
													<shottake/>
													<lognote/>
													<good>FALSE</good>
												</logginginfo>
												<labels>
													<label>Best Take</label>
													<label2/>
												</labels>
												<comments>
													<mastercomment1/>
													<mastercomment2/>
													<mastercomment3/>
													<mastercomment4/>
												</comments>
												<file id="BB0004_01 3"/>
												<filter>
													<effect>
														<name>Audio Levels</name>
														<effectid>audiolevels</effectid>
														<effectcategory>audiolevels</effectcategory>
														<effecttype>audiolevels</effecttype>
														<mediatype>audio</mediatype>
														<parameter>
															<name>Level</name>
															<parameterid>level</parameterid>
															<valuemin>0</valuemin>
															<valuemax>3.98109</valuemax>
															<value>1</value>
														</parameter>
													</effect>
												</filter>
												<filter>
													<effect>
														<name>Audio Pan</name>
														<effectid>audiopan</effectid>
														<effectcategory>audiopan</effectcategory>
														<effecttype>audiopan</effecttype>
														<mediatype>audio</mediatype>
														<parameter>
															<name>Pan</name>
															<parameterid>pan</parameterid>
															<valuemin>-1</valuemin>
															<valuemax>1</valuemax>
															<value>0</value>
														</parameter>
													</effect>
												</filter>
												<sourcetrack>
													<mediatype>audio</mediatype>
													<trackindex>2</trackindex>
												</sourcetrack>
												<link>
													<linkclipref>BB0004_01 2</linkclipref>
													<mediatype>video</mediatype>
													<trackindex>1</trackindex>
													<clipindex>1</clipindex>
												</link>
												<link>
													<linkclipref>BB0004_01 4</linkclipref>
													<mediatype>audio</mediatype>
													<trackindex>1</trackindex>
													<clipindex>1</clipindex>
												</link>
												<link>
													<linkclipref>BB0004_01 5</linkclipref>
													<mediatype>audio</mediatype>
													<trackindex>2</trackindex>
													<clipindex>1</clipindex>
												</link>
												<mediadelay>9960</mediadelay>
												<itemhistory>
													<uuid>77777AB1-93F7-4DED-84C3-E09F87737881</uuid>
												</itemhistory>
											</clipitem>
											<enabled>TRUE</enabled>
											<locked>FALSE</locked>
										</track>
										<filter>
											<effect>
												<name>Audio Levels</name>
												<effectid>audiolevels</effectid>
												<effectcategory>audiolevels</effectcategory>
												<effecttype>audiolevels</effecttype>
												<mediatype>audio</mediatype>
												<parameter>
													<name>Level</name>
													<parameterid>level</parameterid>
													<valuemin>0</valuemin>
													<valuemax>3.98109</valuemax>
													<value>1</value>
												</parameter>
											</effect>
										</filter>
									</audio>
								</media>
							</clip>
						</angle>
						<angle>
							<clip id="BB0008_01 ">
								<uuid>EE87D28F-B922-4FD8-B1BA-90D3DDDE89BA</uuid>
								<updatebehavior>add</updatebehavior>
								<name>BB0008_01</name>
								<duration>576865</duration>
								<rate>
									<ntsc>TRUE</ntsc>
									<timebase>24</timebase>
								</rate>
								<in>-1</in>
								<out>-1</out>
								<anamorphic>FALSE</anamorphic>
								<masterclipid>BB0008_01 1</masterclipid>
								<ismasterclip>FALSE</ismasterclip>
								<logginginfo>
									<scene/>
									<shottake/>
									<lognote/>
									<good>FALSE</good>
								</logginginfo>
								<labels>
									<label>Best Take</label>
									<label2/>
								</labels>
								<comments>
									<mastercomment1/>
									<mastercomment2/>
									<mastercomment3/>
									<mastercomment4/>
								</comments>
								<media>
									<video>
										<track>
											<clipitem id="BB0008_01 2">
												<name>BB0008_01</name>
												<duration>576865</duration>
												<rate>
													<ntsc>TRUE</ntsc>
													<timebase>24</timebase>
												</rate>
												<in>0</in>
												<out>576865</out>
												<start>0</start>
												<end>576865</end>
												<pixelaspectratio>Square</pixelaspectratio>
												<anamorphic>FALSE</anamorphic>
												<alphatype>none</alphatype>
												<masterclipid>BB0008_01 1</masterclipid>
												<syncoffset>0</syncoffset>
												<logginginfo>
													<scene/>
													<shottake/>
													<lognote/>
													<good>FALSE</good>
												</logginginfo>
												<labels>
													<label>Best Take</label>
													<label2/>
												</labels>
												<comments>
													<mastercomment1/>
													<mastercomment2/>
													<mastercomment3/>
													<mastercomment4/>
												</comments>
												<file id="BB0008_01 3">
													<name>BB0008_01.mov</name>
													<pathurl>file://localhost/Volumes/Share/Edit%20Share/00%20BREW%20DOGS%20S1/BD_00_San_Diego/052413/01_Video/C300/BB0008_01.mov</pathurl>
													<rate>
														<timebase>24</timebase>
														<ntsc>TRUE</ntsc>
													</rate>
													<duration>4908</duration>
													<metadata>
														<storage>QuickTime</storage>
														<key>com.apple.quicktime.creationdate</key>
														<size>24</size>
														<type>UTF8</type>
														<value>2013-05-24T11:23:35-0700</value>
													</metadata>
													<metadata>
														<storage>QuickTime</storage>
														<key>com.apple.finalcutstudio.media.history.uuid</key>
														<size>36</size>
														<type>UTF8</type>
														<value>50DF0174-D889-4487-A3C1-58903D4F209E</value>
													</metadata>
													<metadata>
														<storage>QuickTime</storage>
														<key>com.apple.finalcutstudio.media.uuid</key>
														<size>36</size>
														<type>UTF8</type>
														<value>B4B3EBDB-E171-41EA-9933-8A8A32ACBAF3</value>
													</metadata>
													<metadata>
														<storage>QuickTime</storage>
														<key>com.apple.proapps.reel</key>
														<size>12</size>
														<type>UTF8</type>
														<value>B01_verified</value>
													</metadata>
													<metadata>
														<storage>QuickTime</storage>
														<key>com.apple.proapps.isGood</key>
														<size>4</size>
														<type>unsigned</type>
														<value>0</value>
													</metadata>
													<metadata>
														<storage>QuickTime</storage>
														<key>com.apple.proapps.clipID</key>
														<size>36</size>
														<type>UTF8</type>
														<value>0D3607A4-3664-0580-0000-8500025A0AE7</value>
													</metadata>
													<metadata>
														<storage>QuickTime</storage>
														<key>com.apple.proapps.originalFormat</key>
														<size>14</size>
														<type>UTF8</type>
														<value>Canon XF MPEG2</value>
													</metadata>
													<timecode>
														<rate>
															<timebase>24</timebase>
														</rate>
														<string>11:24:53:10</string>
														<frame>986242</frame>
														<displayformat>NDF</displayformat>
														<source>source</source>
														<reel>
															<name>B01_verified</name>
														</reel>
													</timecode>
													<media>
														<video>
															<duration>4908</duration>
															<samplecharacteristics>
																<width>1920</width>
																<height>1080</height>
															</samplecharacteristics>
														</video>
														<audio>
															<samplecharacteristics>
																<samplerate>48000</samplerate>
																<depth>16</depth>
															</samplecharacteristics>
															<channelcount>1</channelcount>
															<layout>mono</layout>
															<audiochannel>
																<sourcechannel>1</sourcechannel>
																<channellabel>discrete</channellabel>
															</audiochannel>
														</audio>
														<audio>
															<samplecharacteristics>
																<samplerate>48000</samplerate>
																<depth>16</depth>
															</samplecharacteristics>
															<channelcount>1</channelcount>
															<layout>mono</layout>
															<audiochannel>
																<sourcechannel>2</sourcechannel>
																<channellabel>discrete</channellabel>
															</audiochannel>
														</audio>
													</media>
												</file>
												<sourcetrack>
													<mediatype>video</mediatype>
												</sourcetrack>
												<link>
													<linkclipref>BB0008_01 2</linkclipref>
													<mediatype>video</mediatype>
													<trackindex>1</trackindex>
													<clipindex>1</clipindex>
												</link>
												<link>
													<linkclipref>BB0008_01 4</linkclipref>
													<mediatype>audio</mediatype>
													<trackindex>1</trackindex>
													<clipindex>1</clipindex>
												</link>
												<link>
													<linkclipref>BB0008_01 5</linkclipref>
													<mediatype>audio</mediatype>
													<trackindex>2</trackindex>
													<clipindex>1</clipindex>
												</link>
												<fielddominance>none</fielddominance>
												<mediadelay>48324</mediadelay>
												<itemhistory>
													<uuid>7AD446B8-AEA0-4708-BED0-2DE66107F987</uuid>
												</itemhistory>
											</clipitem>
											<enabled>TRUE</enabled>
											<locked>FALSE</locked>
										</track>
									</video>
									<audio>
										<outputs>
											<group>
												<index>1</index>
												<numchannels>2</numchannels>
												<downmix>0</downmix>
												<channel>
													<index>1</index>
												</channel>
												<channel>
													<index>2</index>
												</channel>
											</group>
										</outputs>
										<in>-1</in>
										<out>-1</out>
										<track>
											<clipitem id="BB0008_01 4">
												<name>BB0008_01</name>
												<duration>576865</duration>
												<rate>
													<ntsc>TRUE</ntsc>
													<timebase>24</timebase>
												</rate>
												<in>0</in>
												<out>576865</out>
												<start>0</start>
												<end>576865</end>
												<subframeoffset>0</subframeoffset>
												<anamorphic>FALSE</anamorphic>
												<masterclipid>BB0008_01 1</masterclipid>
												<syncoffset>0</syncoffset>
												<logginginfo>
													<scene/>
													<shottake/>
													<lognote/>
													<good>FALSE</good>
												</logginginfo>
												<labels>
													<label>Best Take</label>
													<label2/>
												</labels>
												<comments>
													<mastercomment1/>
													<mastercomment2/>
													<mastercomment3/>
													<mastercomment4/>
												</comments>
												<file id="BB0008_01 3"/>
												<filter>
													<effect>
														<name>Audio Levels</name>
														<effectid>audiolevels</effectid>
														<effectcategory>audiolevels</effectcategory>
														<effecttype>audiolevels</effecttype>
														<mediatype>audio</mediatype>
														<parameter>
															<name>Level</name>
															<parameterid>level</parameterid>
															<valuemin>0</valuemin>
															<valuemax>3.98109</valuemax>
															<value>1</value>
														</parameter>
													</effect>
												</filter>
												<filter>
													<effect>
														<name>Audio Pan</name>
														<effectid>audiopan</effectid>
														<effectcategory>audiopan</effectcategory>
														<effecttype>audiopan</effecttype>
														<mediatype>audio</mediatype>
														<parameter>
															<name>Pan</name>
															<parameterid>pan</parameterid>
															<valuemin>-1</valuemin>
															<valuemax>1</valuemax>
															<value>0</value>
														</parameter>
													</effect>
												</filter>
												<sourcetrack>
													<mediatype>audio</mediatype>
													<trackindex>1</trackindex>
												</sourcetrack>
												<link>
													<linkclipref>BB0008_01 2</linkclipref>
													<mediatype>video</mediatype>
													<trackindex>1</trackindex>
													<clipindex>1</clipindex>
												</link>
												<link>
													<linkclipref>BB0008_01 4</linkclipref>
													<mediatype>audio</mediatype>
													<trackindex>1</trackindex>
													<clipindex>1</clipindex>
												</link>
												<link>
													<linkclipref>BB0008_01 5</linkclipref>
													<mediatype>audio</mediatype>
													<trackindex>2</trackindex>
													<clipindex>1</clipindex>
												</link>
												<mediadelay>48324</mediadelay>
												<itemhistory>
													<uuid>C780CB26-8C4B-44AF-9984-03B6A82BA6E2</uuid>
												</itemhistory>
											</clipitem>
											<enabled>TRUE</enabled>
											<locked>FALSE</locked>
										</track>
										<track>
											<clipitem id="BB0008_01 5">
												<name>BB0008_01</name>
												<duration>576865</duration>
												<rate>
													<ntsc>TRUE</ntsc>
													<timebase>24</timebase>
												</rate>
												<in>0</in>
												<out>576865</out>
												<start>0</start>
												<end>576865</end>
												<subframeoffset>0</subframeoffset>
												<anamorphic>FALSE</anamorphic>
												<masterclipid>BB0008_01 1</masterclipid>
												<syncoffset>0</syncoffset>
												<logginginfo>
													<scene/>
													<shottake/>
													<lognote/>
													<good>FALSE</good>
												</logginginfo>
												<labels>
													<label>Best Take</label>
													<label2/>
												</labels>
												<comments>
													<mastercomment1/>
													<mastercomment2/>
													<mastercomment3/>
													<mastercomment4/>
												</comments>
												<file id="BB0008_01 3"/>
												<filter>
													<effect>
														<name>Audio Levels</name>
														<effectid>audiolevels</effectid>
														<effectcategory>audiolevels</effectcategory>
														<effecttype>audiolevels</effecttype>
														<mediatype>audio</mediatype>
														<parameter>
															<name>Level</name>
															<parameterid>level</parameterid>
															<valuemin>0</valuemin>
															<valuemax>3.98109</valuemax>
															<value>1</value>
														</parameter>
													</effect>
												</filter>
												<filter>
													<effect>
														<name>Audio Pan</name>
														<effectid>audiopan</effectid>
														<effectcategory>audiopan</effectcategory>
														<effecttype>audiopan</effecttype>
														<mediatype>audio</mediatype>
														<parameter>
															<name>Pan</name>
															<parameterid>pan</parameterid>
															<valuemin>-1</valuemin>
															<valuemax>1</valuemax>
															<value>0</value>
														</parameter>
													</effect>
												</filter>
												<sourcetrack>
													<mediatype>audio</mediatype>
													<trackindex>2</trackindex>
												</sourcetrack>
												<link>
													<linkclipref>BB0008_01 2</linkclipref>
													<mediatype>video</mediatype>
													<trackindex>1</trackindex>
													<clipindex>1</clipindex>
												</link>
												<link>
													<linkclipref>BB0008_01 4</linkclipref>
													<mediatype>audio</mediatype>
													<trackindex>1</trackindex>
													<clipindex>1</clipindex>
												</link>
												<link>
													<linkclipref>BB0008_01 5</linkclipref>
													<mediatype>audio</mediatype>
													<trackindex>2</trackindex>
													<clipindex>1</clipindex>
												</link>
												<mediadelay>48324</mediadelay>
												<itemhistory>
													<uuid>D398B879-E776-45B7-BE2D-DD5128DE35C4</uuid>
												</itemhistory>
											</clipitem>
											<enabled>TRUE</enabled>
											<locked>FALSE</locked>
										</track>
										<filter>
											<effect>
												<name>Audio Levels</name>
												<effectid>audiolevels</effectid>
												<effectcategory>audiolevels</effectcategory>
												<effecttype>audiolevels</effecttype>
												<mediatype>audio</mediatype>
												<parameter>
													<name>Level</name>
													<parameterid>level</parameterid>
													<valuemin>0</valuemin>
													<valuemax>3.98109</valuemax>
													<value>1</value>
												</parameter>
											</effect>
										</filter>
									</audio>
								</media>
							</clip>
						</angle>
						<angle>
							<clip id="BB0009_01 ">
								<uuid>24A762E0-D5BE-43B8-A670-198AFBA01EC2</uuid>
								<updatebehavior>add</updatebehavior>
								<name>BB0009_01</name>
								<duration>576865</duration>
								<rate>
									<ntsc>TRUE</ntsc>
									<timebase>24</timebase>
								</rate>
								<in>-1</in>
								<out>-1</out>
								<anamorphic>FALSE</anamorphic>
								<masterclipid>BB0009_01 1</masterclipid>
								<ismasterclip>FALSE</ismasterclip>
								<logginginfo>
									<scene/>
									<shottake/>
									<lognote/>
									<good>FALSE</good>
								</logginginfo>
								<labels>
									<label>Best Take</label>
									<label2/>
								</labels>
								<comments>
									<mastercomment1/>
									<mastercomment2/>
									<mastercomment3/>
									<mastercomment4/>
								</comments>
								<media>
									<video>
										<track>
											<clipitem id="BB0009_01 2">
												<name>BB0009_01</name>
												<duration>576865</duration>
												<rate>
													<ntsc>TRUE</ntsc>
													<timebase>24</timebase>
												</rate>
												<in>0</in>
												<out>576865</out>
												<start>0</start>
												<end>576865</end>
												<pixelaspectratio>Square</pixelaspectratio>
												<anamorphic>FALSE</anamorphic>
												<alphatype>none</alphatype>
												<masterclipid>BB0009_01 1</masterclipid>
												<syncoffset>0</syncoffset>
												<logginginfo>
													<scene/>
													<shottake/>
													<lognote/>
													<good>FALSE</good>
												</logginginfo>
												<labels>
													<label>Best Take</label>
													<label2/>
												</labels>
												<comments>
													<mastercomment1/>
													<mastercomment2/>
													<mastercomment3/>
													<mastercomment4/>
												</comments>
												<file id="BB0009_01 3">
													<name>BB0009_01.mov</name>
													<pathurl>file://localhost/Volumes/Share/Edit%20Share/00%20BREW%20DOGS%20S1/BD_00_San_Diego/052413/01_Video/C300/BB0009_01.mov</pathurl>
													<rate>
														<timebase>24</timebase>
														<ntsc>TRUE</ntsc>
													</rate>
													<duration>648</duration>
													<metadata>
														<storage>QuickTime</storage>
														<key>com.apple.quicktime.creationdate</key>
														<size>24</size>
														<type>UTF8</type>
														<value>2013-05-24T11:28:04-0700</value>
													</metadata>
													<metadata>
														<storage>QuickTime</storage>
														<key>com.apple.finalcutstudio.media.history.uuid</key>
														<size>36</size>
														<type>UTF8</type>
														<value>60165E28-0DCB-4E03-8A35-4315C91CD3BB</value>
													</metadata>
													<metadata>
														<storage>QuickTime</storage>
														<key>com.apple.finalcutstudio.media.uuid</key>
														<size>36</size>
														<type>UTF8</type>
														<value>CCFBA3D2-D3EF-446B-8068-63297AF46D33</value>
													</metadata>
													<metadata>
														<storage>QuickTime</storage>
														<key>com.apple.proapps.reel</key>
														<size>12</size>
														<type>UTF8</type>
														<value>B01_verified</value>
													</metadata>
													<metadata>
														<storage>QuickTime</storage>
														<key>com.apple.proapps.isGood</key>
														<size>4</size>
														<type>unsigned</type>
														<value>0</value>
													</metadata>
													<metadata>
														<storage>QuickTime</storage>
														<key>com.apple.proapps.clipID</key>
														<size>36</size>
														<type>UTF8</type>
														<value>0D3646B0-3664-0580-0000-8500025A0AE7</value>
													</metadata>
													<metadata>
														<storage>QuickTime</storage>
														<key>com.apple.proapps.originalFormat</key>
														<size>14</size>
														<type>UTF8</type>
														<value>Canon XF MPEG2</value>
													</metadata>
													<timecode>
														<rate>
															<timebase>24</timebase>
														</rate>
														<string>11:29:21:14</string>
														<frame>992678</frame>
														<displayformat>NDF</displayformat>
														<source>source</source>
														<reel>
															<name>B01_verified</name>
														</reel>
													</timecode>
													<media>
														<video>
															<duration>648</duration>
															<samplecharacteristics>
																<width>1920</width>
																<height>1080</height>
															</samplecharacteristics>
														</video>
														<audio>
															<samplecharacteristics>
																<samplerate>48000</samplerate>
																<depth>16</depth>
															</samplecharacteristics>
															<channelcount>1</channelcount>
															<layout>mono</layout>
															<audiochannel>
																<sourcechannel>1</sourcechannel>
																<channellabel>discrete</channellabel>
															</audiochannel>
														</audio>
														<audio>
															<samplecharacteristics>
																<samplerate>48000</samplerate>
																<depth>16</depth>
															</samplecharacteristics>
															<channelcount>1</channelcount>
															<layout>mono</layout>
															<audiochannel>
																<sourcechannel>2</sourcechannel>
																<channellabel>discrete</channellabel>
															</audiochannel>
														</audio>
													</media>
												</file>
												<sourcetrack>
													<mediatype>video</mediatype>
												</sourcetrack>
												<link>
													<linkclipref>BB0009_01 2</linkclipref>
													<mediatype>video</mediatype>
													<trackindex>1</trackindex>
													<clipindex>1</clipindex>
												</link>
												<link>
													<linkclipref>BB0009_01 4</linkclipref>
													<mediatype>audio</mediatype>
													<trackindex>1</trackindex>
													<clipindex>1</clipindex>
												</link>
												<link>
													<linkclipref>BB0009_01 5</linkclipref>
													<mediatype>audio</mediatype>
													<trackindex>2</trackindex>
													<clipindex>1</clipindex>
												</link>
												<fielddominance>none</fielddominance>
												<mediadelay>54760</mediadelay>
												<itemhistory>
													<uuid>5D45B98A-C433-42B5-8446-29DB7C4FC788</uuid>
												</itemhistory>
											</clipitem>
											<enabled>TRUE</enabled>
											<locked>FALSE</locked>
										</track>
									</video>
									<audio>
										<outputs>
											<group>
												<index>1</index>
												<numchannels>2</numchannels>
												<downmix>0</downmix>
												<channel>
													<index>1</index>
												</channel>
												<channel>
													<index>2</index>
												</channel>
											</group>
										</outputs>
										<in>-1</in>
										<out>-1</out>
										<track>
											<clipitem id="BB0009_01 4">
												<name>BB0009_01</name>
												<duration>576865</duration>
												<rate>
													<ntsc>TRUE</ntsc>
													<timebase>24</timebase>
												</rate>
												<in>0</in>
												<out>576865</out>
												<start>0</start>
												<end>576865</end>
												<subframeoffset>0</subframeoffset>
												<anamorphic>FALSE</anamorphic>
												<masterclipid>BB0009_01 1</masterclipid>
												<syncoffset>0</syncoffset>
												<logginginfo>
													<scene/>
													<shottake/>
													<lognote/>
													<good>FALSE</good>
												</logginginfo>
												<labels>
													<label>Best Take</label>
													<label2/>
												</labels>
												<comments>
													<mastercomment1/>
													<mastercomment2/>
													<mastercomment3/>
													<mastercomment4/>
												</comments>
												<file id="BB0009_01 3"/>
												<filter>
													<effect>
														<name>Audio Levels</name>
														<effectid>audiolevels</effectid>
														<effectcategory>audiolevels</effectcategory>
														<effecttype>audiolevels</effecttype>
														<mediatype>audio</mediatype>
														<parameter>
															<name>Level</name>
															<parameterid>level</parameterid>
															<valuemin>0</valuemin>
															<valuemax>3.98109</valuemax>
															<value>1</value>
														</parameter>
													</effect>
												</filter>
												<filter>
													<effect>
														<name>Audio Pan</name>
														<effectid>audiopan</effectid>
														<effectcategory>audiopan</effectcategory>
														<effecttype>audiopan</effecttype>
														<mediatype>audio</mediatype>
														<parameter>
															<name>Pan</name>
															<parameterid>pan</parameterid>
															<valuemin>-1</valuemin>
															<valuemax>1</valuemax>
															<value>0</value>
														</parameter>
													</effect>
												</filter>
												<sourcetrack>
													<mediatype>audio</mediatype>
													<trackindex>1</trackindex>
												</sourcetrack>
												<link>
													<linkclipref>BB0009_01 2</linkclipref>
													<mediatype>video</mediatype>
													<trackindex>1</trackindex>
													<clipindex>1</clipindex>
												</link>
												<link>
													<linkclipref>BB0009_01 4</linkclipref>
													<mediatype>audio</mediatype>
													<trackindex>1</trackindex>
													<clipindex>1</clipindex>
												</link>
												<link>
													<linkclipref>BB0009_01 5</linkclipref>
													<mediatype>audio</mediatype>
													<trackindex>2</trackindex>
													<clipindex>1</clipindex>
												</link>
												<mediadelay>54760</mediadelay>
												<itemhistory>
													<uuid>6D5A35C3-6ECD-48B2-BC52-15B8D1CD836C</uuid>
												</itemhistory>
											</clipitem>
											<enabled>TRUE</enabled>
											<locked>FALSE</locked>
										</track>
										<track>
											<clipitem id="BB0009_01 5">
												<name>BB0009_01</name>
												<duration>576865</duration>
												<rate>
													<ntsc>TRUE</ntsc>
													<timebase>24</timebase>
												</rate>
												<in>0</in>
												<out>576865</out>
												<start>0</start>
												<end>576865</end>
												<subframeoffset>0</subframeoffset>
												<anamorphic>FALSE</anamorphic>
												<masterclipid>BB0009_01 1</masterclipid>
												<syncoffset>0</syncoffset>
												<logginginfo>
													<scene/>
													<shottake/>
													<lognote/>
													<good>FALSE</good>
												</logginginfo>
												<labels>
													<label>Best Take</label>
													<label2/>
												</labels>
												<comments>
													<mastercomment1/>
													<mastercomment2/>
													<mastercomment3/>
													<mastercomment4/>
												</comments>
												<file id="BB0009_01 3"/>
												<filter>
													<effect>
														<name>Audio Levels</name>
														<effectid>audiolevels</effectid>
														<effectcategory>audiolevels</effectcategory>
														<effecttype>audiolevels</effecttype>
														<mediatype>audio</mediatype>
														<parameter>
															<name>Level</name>
															<parameterid>level</parameterid>
															<valuemin>0</valuemin>
															<valuemax>3.98109</valuemax>
															<value>1</value>
														</parameter>
													</effect>
												</filter>
												<filter>
													<effect>
														<name>Audio Pan</name>
														<effectid>audiopan</effectid>
														<effectcategory>audiopan</effectcategory>
														<effecttype>audiopan</effecttype>
														<mediatype>audio</mediatype>
														<parameter>
															<name>Pan</name>
															<parameterid>pan</parameterid>
															<valuemin>-1</valuemin>
															<valuemax>1</valuemax>
															<value>0</value>
														</parameter>
													</effect>
												</filter>
												<sourcetrack>
													<mediatype>audio</mediatype>
													<trackindex>2</trackindex>
												</sourcetrack>
												<link>
													<linkclipref>BB0009_01 2</linkclipref>
													<mediatype>video</mediatype>
													<trackindex>1</trackindex>
													<clipindex>1</clipindex>
												</link>
												<link>
													<linkclipref>BB0009_01 4</linkclipref>
													<mediatype>audio</mediatype>
													<trackindex>1</trackindex>
													<clipindex>1</clipindex>
												</link>
												<link>
													<linkclipref>BB0009_01 5</linkclipref>
													<mediatype>audio</mediatype>
													<trackindex>2</trackindex>
													<clipindex>1</clipindex>
												</link>
												<mediadelay>54760</mediadelay>
												<itemhistory>
													<uuid>1D6754FA-0D85-4F50-B994-5445273B0EEF</uuid>
												</itemhistory>
											</clipitem>
											<enabled>TRUE</enabled>
											<locked>FALSE</locked>
										</track>
										<filter>
											<effect>
												<name>Audio Levels</name>
												<effectid>audiolevels</effectid>
												<effectcategory>audiolevels</effectcategory>
												<effecttype>audiolevels</effecttype>
												<mediatype>audio</mediatype>
												<parameter>
													<name>Level</name>
													<parameterid>level</parameterid>
													<valuemin>0</valuemin>
													<valuemax>3.98109</valuemax>
													<value>1</value>
												</parameter>
											</effect>
										</filter>
									</audio>
								</media>
							</clip>
						</angle>
						<angle>
							<clip id="BB0010_01 ">
								<uuid>48C980C3-BFEF-459B-8C93-06CEC2891FC1</uuid>
								<updatebehavior>add</updatebehavior>
								<name>BB0010_01</name>
								<duration>576865</duration>
								<rate>
									<ntsc>TRUE</ntsc>
									<timebase>24</timebase>
								</rate>
								<in>-1</in>
								<out>-1</out>
								<anamorphic>FALSE</anamorphic>
								<masterclipid>BB0010_01 1</masterclipid>
								<ismasterclip>FALSE</ismasterclip>
								<logginginfo>
									<scene/>
									<shottake/>
									<lognote/>
									<good>FALSE</good>
								</logginginfo>
								<labels>
									<label>Best Take</label>
									<label2/>
								</labels>
								<comments>
									<mastercomment1/>
									<mastercomment2/>
									<mastercomment3/>
									<mastercomment4/>
								</comments>
								<media>
									<video>
										<track>
											<clipitem id="BB0010_01 2">
												<name>BB0010_01</name>
												<duration>576865</duration>
												<rate>
													<ntsc>TRUE</ntsc>
													<timebase>24</timebase>
												</rate>
												<in>0</in>
												<out>576865</out>
												<start>0</start>
												<end>576865</end>
												<pixelaspectratio>Square</pixelaspectratio>
												<anamorphic>FALSE</anamorphic>
												<alphatype>none</alphatype>
												<masterclipid>BB0010_01 1</masterclipid>
												<syncoffset>0</syncoffset>
												<logginginfo>
													<scene/>
													<shottake/>
													<lognote/>
													<good>FALSE</good>
												</logginginfo>
												<labels>
													<label>Best Take</label>
													<label2/>
												</labels>
												<comments>
													<mastercomment1/>
													<mastercomment2/>
													<mastercomment3/>
													<mastercomment4/>
												</comments>
												<file id="BB0010_01 3">
													<name>BB0010_01.mov</name>
													<pathurl>file://localhost/Volumes/Share/Edit%20Share/00%20BREW%20DOGS%20S1/BD_00_San_Diego/052413/01_Video/C300/BB0010_01.mov</pathurl>
													<rate>
														<timebase>24</timebase>
														<ntsc>TRUE</ntsc>
													</rate>
													<duration>11460</duration>
													<metadata>
														<storage>QuickTime</storage>
														<key>com.apple.quicktime.creationdate</key>
														<size>24</size>
														<type>UTF8</type>
														<value>2013-05-24T11:28:37-0700</value>
													</metadata>
													<metadata>
														<storage>QuickTime</storage>
														<key>com.apple.finalcutstudio.media.history.uuid</key>
														<size>36</size>
														<type>UTF8</type>
														<value>4CFDA1DF-D4C7-484D-B9AB-8B7FEBBFC2C2</value>
													</metadata>
													<metadata>
														<storage>QuickTime</storage>
														<key>com.apple.finalcutstudio.media.uuid</key>
														<size>36</size>
														<type>UTF8</type>
														<value>A3CAC6DC-975A-4F33-99C4-F79CD9CFFAA9</value>
													</metadata>
													<metadata>
														<storage>QuickTime</storage>
														<key>com.apple.proapps.reel</key>
														<size>12</size>
														<type>UTF8</type>
														<value>B01_verified</value>
													</metadata>
													<metadata>
														<storage>QuickTime</storage>
														<key>com.apple.proapps.isGood</key>
														<size>4</size>
														<type>unsigned</type>
														<value>0</value>
													</metadata>
													<metadata>
														<storage>QuickTime</storage>
														<key>com.apple.proapps.clipID</key>
														<size>36</size>
														<type>UTF8</type>
														<value>0D364E6C-3664-0580-0000-8500025A0AE7</value>
													</metadata>
													<metadata>
														<storage>QuickTime</storage>
														<key>com.apple.proapps.originalFormat</key>
														<size>14</size>
														<type>UTF8</type>
														<value>Canon XF MPEG2</value>
													</metadata>
													<timecode>
														<rate>
															<timebase>24</timebase>
														</rate>
														<string>11:29:54:14</string>
														<frame>993470</frame>
														<displayformat>NDF</displayformat>
														<source>source</source>
														<reel>
															<name>B01_verified</name>
														</reel>
													</timecode>
													<media>
														<video>
															<duration>11460</duration>
															<samplecharacteristics>
																<width>1920</width>
																<height>1080</height>
															</samplecharacteristics>
														</video>
														<audio>
															<samplecharacteristics>
																<samplerate>48000</samplerate>
																<depth>16</depth>
															</samplecharacteristics>
															<channelcount>1</channelcount>
															<layout>mono</layout>
															<audiochannel>
																<sourcechannel>1</sourcechannel>
																<channellabel>discrete</channellabel>
															</audiochannel>
														</audio>
														<audio>
															<samplecharacteristics>
																<samplerate>48000</samplerate>
																<depth>16</depth>
															</samplecharacteristics>
															<channelcount>1</channelcount>
															<layout>mono</layout>
															<audiochannel>
																<sourcechannel>2</sourcechannel>
																<channellabel>discrete</channellabel>
															</audiochannel>
														</audio>
													</media>
												</file>
												<sourcetrack>
													<mediatype>video</mediatype>
												</sourcetrack>
												<link>
													<linkclipref>BB0010_01 2</linkclipref>
													<mediatype>video</mediatype>
													<trackindex>1</trackindex>
													<clipindex>1</clipindex>
												</link>
												<link>
													<linkclipref>BB0010_01 4</linkclipref>
													<mediatype>audio</mediatype>
													<trackindex>1</trackindex>
													<clipindex>1</clipindex>
												</link>
												<link>
													<linkclipref>BB0010_01 5</linkclipref>
													<mediatype>audio</mediatype>
													<trackindex>2</trackindex>
													<clipindex>1</clipindex>
												</link>
												<fielddominance>none</fielddominance>
												<mediadelay>55552</mediadelay>
												<itemhistory>
													<uuid>D13D72CE-7486-48ED-BC49-B05A708D2ADD</uuid>
												</itemhistory>
											</clipitem>
											<enabled>TRUE</enabled>
											<locked>FALSE</locked>
										</track>
									</video>
									<audio>
										<outputs>
											<group>
												<index>1</index>
												<numchannels>2</numchannels>
												<downmix>0</downmix>
												<channel>
													<index>1</index>
												</channel>
												<channel>
													<index>2</index>
												</channel>
											</group>
										</outputs>
										<in>-1</in>
										<out>-1</out>
										<track>
											<clipitem id="BB0010_01 4">
												<name>BB0010_01</name>
												<duration>576865</duration>
												<rate>
													<ntsc>TRUE</ntsc>
													<timebase>24</timebase>
												</rate>
												<in>0</in>
												<out>576865</out>
												<start>0</start>
												<end>576865</end>
												<subframeoffset>0</subframeoffset>
												<anamorphic>FALSE</anamorphic>
												<masterclipid>BB0010_01 1</masterclipid>
												<syncoffset>0</syncoffset>
												<logginginfo>
													<scene/>
													<shottake/>
													<lognote/>
													<good>FALSE</good>
												</logginginfo>
												<labels>
													<label>Best Take</label>
													<label2/>
												</labels>
												<comments>
													<mastercomment1/>
													<mastercomment2/>
													<mastercomment3/>
													<mastercomment4/>
												</comments>
												<file id="BB0010_01 3"/>
												<filter>
													<effect>
														<name>Audio Levels</name>
														<effectid>audiolevels</effectid>
														<effectcategory>audiolevels</effectcategory>
														<effecttype>audiolevels</effecttype>
														<mediatype>audio</mediatype>
														<parameter>
															<name>Level</name>
															<parameterid>level</parameterid>
															<valuemin>0</valuemin>
															<valuemax>3.98109</valuemax>
															<value>1</value>
														</parameter>
													</effect>
												</filter>
												<filter>
													<effect>
														<name>Audio Pan</name>
														<effectid>audiopan</effectid>
														<effectcategory>audiopan</effectcategory>
														<effecttype>audiopan</effecttype>
														<mediatype>audio</mediatype>
														<parameter>
															<name>Pan</name>
															<parameterid>pan</parameterid>
															<valuemin>-1</valuemin>
															<valuemax>1</valuemax>
															<value>0</value>
														</parameter>
													</effect>
												</filter>
												<sourcetrack>
													<mediatype>audio</mediatype>
													<trackindex>1</trackindex>
												</sourcetrack>
												<link>
													<linkclipref>BB0010_01 2</linkclipref>
													<mediatype>video</mediatype>
													<trackindex>1</trackindex>
													<clipindex>1</clipindex>
												</link>
												<link>
													<linkclipref>BB0010_01 4</linkclipref>
													<mediatype>audio</mediatype>
													<trackindex>1</trackindex>
													<clipindex>1</clipindex>
												</link>
												<link>
													<linkclipref>BB0010_01 5</linkclipref>
													<mediatype>audio</mediatype>
													<trackindex>2</trackindex>
													<clipindex>1</clipindex>
												</link>
												<mediadelay>55552</mediadelay>
												<itemhistory>
													<uuid>609CD0A0-E46D-42EF-94AF-A50CBBA90534</uuid>
												</itemhistory>
											</clipitem>
											<enabled>TRUE</enabled>
											<locked>FALSE</locked>
										</track>
										<track>
											<clipitem id="BB0010_01 5">
												<name>BB0010_01</name>
												<duration>576865</duration>
												<rate>
													<ntsc>TRUE</ntsc>
													<timebase>24</timebase>
												</rate>
												<in>0</in>
												<out>576865</out>
												<start>0</start>
												<end>576865</end>
												<subframeoffset>0</subframeoffset>
												<anamorphic>FALSE</anamorphic>
												<masterclipid>BB0010_01 1</masterclipid>
												<syncoffset>0</syncoffset>
												<logginginfo>
													<scene/>
													<shottake/>
													<lognote/>
													<good>FALSE</good>
												</logginginfo>
												<labels>
													<label>Best Take</label>
													<label2/>
												</labels>
												<comments>
													<mastercomment1/>
													<mastercomment2/>
													<mastercomment3/>
													<mastercomment4/>
												</comments>
												<file id="BB0010_01 3"/>
												<filter>
													<effect>
														<name>Audio Levels</name>
														<effectid>audiolevels</effectid>
														<effectcategory>audiolevels</effectcategory>
														<effecttype>audiolevels</effecttype>
														<mediatype>audio</mediatype>
														<parameter>
															<name>Level</name>
															<parameterid>level</parameterid>
															<valuemin>0</valuemin>
															<valuemax>3.98109</valuemax>
															<value>1</value>
														</parameter>
													</effect>
												</filter>
												<filter>
													<effect>
														<name>Audio Pan</name>
														<effectid>audiopan</effectid>
														<effectcategory>audiopan</effectcategory>
														<effecttype>audiopan</effecttype>
														<mediatype>audio</mediatype>
														<parameter>
															<name>Pan</name>
															<parameterid>pan</parameterid>
															<valuemin>-1</valuemin>
															<valuemax>1</valuemax>
															<value>0</value>
														</parameter>
													</effect>
												</filter>
												<sourcetrack>
													<mediatype>audio</mediatype>
													<trackindex>2</trackindex>
												</sourcetrack>
												<link>
													<linkclipref>BB0010_01 2</linkclipref>
													<mediatype>video</mediatype>
													<trackindex>1</trackindex>
													<clipindex>1</clipindex>
												</link>
												<link>
													<linkclipref>BB0010_01 4</linkclipref>
													<mediatype>audio</mediatype>
													<trackindex>1</trackindex>
													<clipindex>1</clipindex>
												</link>
												<link>
													<linkclipref>BB0010_01 5</linkclipref>
													<mediatype>audio</mediatype>
													<trackindex>2</trackindex>
													<clipindex>1</clipindex>
												</link>
												<mediadelay>55552</mediadelay>
												<itemhistory>
													<uuid>F44B2DA0-ADF4-47E1-BDC8-0853DBB7C009</uuid>
												</itemhistory>
											</clipitem>
											<enabled>TRUE</enabled>
											<locked>FALSE</locked>
										</track>
										<filter>
											<effect>
												<name>Audio Levels</name>
												<effectid>audiolevels</effectid>
												<effectcategory>audiolevels</effectcategory>
												<effecttype>audiolevels</effecttype>
												<mediatype>audio</mediatype>
												<parameter>
													<name>Level</name>
													<parameterid>level</parameterid>
													<valuemin>0</valuemin>
													<valuemax>3.98109</valuemax>
													<value>1</value>
												</parameter>
											</effect>
										</filter>
									</audio>
								</media>
							</clip>
						</angle>
						<angle>
							<clip id="BB0011_01 ">
								<uuid>D3751386-02B2-4E77-B9D2-51F95E61850F</uuid>
								<updatebehavior>add</updatebehavior>
								<name>BB0011_01</name>
								<duration>576865</duration>
								<rate>
									<ntsc>TRUE</ntsc>
									<timebase>24</timebase>
								</rate>
								<in>-1</in>
								<out>-1</out>
								<anamorphic>FALSE</anamorphic>
								<masterclipid>BB0011_01 1</masterclipid>
								<ismasterclip>FALSE</ismasterclip>
								<logginginfo>
									<scene/>
									<shottake/>
									<lognote/>
									<good>FALSE</good>
								</logginginfo>
								<labels>
									<label>Best Take</label>
									<label2/>
								</labels>
								<comments>
									<mastercomment1/>
									<mastercomment2/>
									<mastercomment3/>
									<mastercomment4/>
								</comments>
								<media>
									<video>
										<track>
											<clipitem id="BB0011_01 2">
												<name>BB0011_01</name>
												<duration>576865</duration>
												<rate>
													<ntsc>TRUE</ntsc>
													<timebase>24</timebase>
												</rate>
												<in>0</in>
												<out>576865</out>
												<start>0</start>
												<end>576865</end>
												<pixelaspectratio>Square</pixelaspectratio>
												<anamorphic>FALSE</anamorphic>
												<alphatype>none</alphatype>
												<masterclipid>BB0011_01 1</masterclipid>
												<syncoffset>0</syncoffset>
												<logginginfo>
													<scene/>
													<shottake/>
													<lognote/>
													<good>FALSE</good>
												</logginginfo>
												<labels>
													<label>Best Take</label>
													<label2/>
												</labels>
												<comments>
													<mastercomment1/>
													<mastercomment2/>
													<mastercomment3/>
													<mastercomment4/>
												</comments>
												<file id="BB0011_01 3">
													<name>BB0011_01.mov</name>
													<pathurl>file://localhost/Volumes/Share/Edit%20Share/00%20BREW%20DOGS%20S1/BD_00_San_Diego/052413/01_Video/C300/BB0011_01.mov</pathurl>
													<rate>
														<timebase>24</timebase>
														<ntsc>TRUE</ntsc>
													</rate>
													<duration>10956</duration>
													<metadata>
														<storage>QuickTime</storage>
														<key>com.apple.quicktime.creationdate</key>
														<size>24</size>
														<type>UTF8</type>
														<value>2013-05-24T11:45:52-0700</value>
													</metadata>
													<metadata>
														<storage>QuickTime</storage>
														<key>com.apple.finalcutstudio.media.history.uuid</key>
														<size>36</size>
														<type>UTF8</type>
														<value>FACB59F6-AB63-4871-B6D4-23872E8341AE</value>
													</metadata>
													<metadata>
														<storage>QuickTime</storage>
														<key>com.apple.finalcutstudio.media.uuid</key>
														<size>36</size>
														<type>UTF8</type>
														<value>547C08EB-BD0F-49CB-94E5-C7C9F33433C8</value>
													</metadata>
													<metadata>
														<storage>QuickTime</storage>
														<key>com.apple.proapps.reel</key>
														<size>12</size>
														<type>UTF8</type>
														<value>B01_verified</value>
													</metadata>
													<metadata>
														<storage>QuickTime</storage>
														<key>com.apple.proapps.isGood</key>
														<size>4</size>
														<type>unsigned</type>
														<value>0</value>
													</metadata>
													<metadata>
														<storage>QuickTime</storage>
														<key>com.apple.proapps.clipID</key>
														<size>36</size>
														<type>UTF8</type>
														<value>0D374100-3664-0580-0000-8500025A0AE7</value>
													</metadata>
													<metadata>
														<storage>QuickTime</storage>
														<key>com.apple.proapps.originalFormat</key>
														<size>14</size>
														<type>UTF8</type>
														<value>Canon XF MPEG2</value>
													</metadata>
													<timecode>
														<rate>
															<timebase>24</timebase>
														</rate>
														<string>11:47:09:10</string>
														<frame>1018306</frame>
														<displayformat>NDF</displayformat>
														<source>source</source>
														<reel>
															<name>B01_verified</name>
														</reel>
													</timecode>
													<media>
														<video>
															<duration>10956</duration>
															<samplecharacteristics>
																<width>1920</width>
																<height>1080</height>
															</samplecharacteristics>
														</video>
														<audio>
															<samplecharacteristics>
																<samplerate>48000</samplerate>
																<depth>16</depth>
															</samplecharacteristics>
															<channelcount>1</channelcount>
															<layout>mono</layout>
															<audiochannel>
																<sourcechannel>1</sourcechannel>
																<channellabel>discrete</channellabel>
															</audiochannel>
														</audio>
														<audio>
															<samplecharacteristics>
																<samplerate>48000</samplerate>
																<depth>16</depth>
															</samplecharacteristics>
															<channelcount>1</channelcount>
															<layout>mono</layout>
															<audiochannel>
																<sourcechannel>2</sourcechannel>
																<channellabel>discrete</channellabel>
															</audiochannel>
														</audio>
													</media>
												</file>
												<sourcetrack>
													<mediatype>video</mediatype>
												</sourcetrack>
												<link>
													<linkclipref>BB0011_01 2</linkclipref>
													<mediatype>video</mediatype>
													<trackindex>1</trackindex>
													<clipindex>1</clipindex>
												</link>
												<link>
													<linkclipref>BB0011_01 4</linkclipref>
													<mediatype>audio</mediatype>
													<trackindex>1</trackindex>
													<clipindex>1</clipindex>
												</link>
												<link>
													<linkclipref>BB0011_01 5</linkclipref>
													<mediatype>audio</mediatype>
													<trackindex>2</trackindex>
													<clipindex>1</clipindex>
												</link>
												<fielddominance>none</fielddominance>
												<mediadelay>80388</mediadelay>
												<itemhistory>
													<uuid>8948800A-6166-4ADE-BC33-AEA0FABCFBE9</uuid>
												</itemhistory>
											</clipitem>
											<enabled>TRUE</enabled>
											<locked>FALSE</locked>
										</track>
									</video>
									<audio>
										<outputs>
											<group>
												<index>1</index>
												<numchannels>2</numchannels>
												<downmix>0</downmix>
												<channel>
													<index>1</index>
												</channel>
												<channel>
													<index>2</index>
												</channel>
											</group>
										</outputs>
										<in>-1</in>
										<out>-1</out>
										<track>
											<clipitem id="BB0011_01 4">
												<name>BB0011_01</name>
												<duration>576865</duration>
												<rate>
													<ntsc>TRUE</ntsc>
													<timebase>24</timebase>
												</rate>
												<in>0</in>
												<out>576865</out>
												<start>0</start>
												<end>576865</end>
												<subframeoffset>0</subframeoffset>
												<anamorphic>FALSE</anamorphic>
												<masterclipid>BB0011_01 1</masterclipid>
												<syncoffset>0</syncoffset>
												<logginginfo>
													<scene/>
													<shottake/>
													<lognote/>
													<good>FALSE</good>
												</logginginfo>
												<labels>
													<label>Best Take</label>
													<label2/>
												</labels>
												<comments>
													<mastercomment1/>
													<mastercomment2/>
													<mastercomment3/>
													<mastercomment4/>
												</comments>
												<file id="BB0011_01 3"/>
												<filter>
													<effect>
														<name>Audio Levels</name>
														<effectid>audiolevels</effectid>
														<effectcategory>audiolevels</effectcategory>
														<effecttype>audiolevels</effecttype>
														<mediatype>audio</mediatype>
														<parameter>
															<name>Level</name>
															<parameterid>level</parameterid>
															<valuemin>0</valuemin>
															<valuemax>3.98109</valuemax>
															<value>1</value>
														</parameter>
													</effect>
												</filter>
												<filter>
													<effect>
														<name>Audio Pan</name>
														<effectid>audiopan</effectid>
														<effectcategory>audiopan</effectcategory>
														<effecttype>audiopan</effecttype>
														<mediatype>audio</mediatype>
														<parameter>
															<name>Pan</name>
															<parameterid>pan</parameterid>
															<valuemin>-1</valuemin>
															<valuemax>1</valuemax>
															<value>0</value>
														</parameter>
													</effect>
												</filter>
												<sourcetrack>
													<mediatype>audio</mediatype>
													<trackindex>1</trackindex>
												</sourcetrack>
												<link>
													<linkclipref>BB0011_01 2</linkclipref>
													<mediatype>video</mediatype>
													<trackindex>1</trackindex>
													<clipindex>1</clipindex>
												</link>
												<link>
													<linkclipref>BB0011_01 4</linkclipref>
													<mediatype>audio</mediatype>
													<trackindex>1</trackindex>
													<clipindex>1</clipindex>
												</link>
												<link>
													<linkclipref>BB0011_01 5</linkclipref>
													<mediatype>audio</mediatype>
													<trackindex>2</trackindex>
													<clipindex>1</clipindex>
												</link>
												<mediadelay>80388</mediadelay>
												<itemhistory>
													<uuid>501F968C-FCCF-447F-8F44-0C4BE1886778</uuid>
												</itemhistory>
											</clipitem>
											<enabled>TRUE</enabled>
											<locked>FALSE</locked>
										</track>
										<track>
											<clipitem id="BB0011_01 5">
												<name>BB0011_01</name>
												<duration>576865</duration>
												<rate>
													<ntsc>TRUE</ntsc>
													<timebase>24</timebase>
												</rate>
												<in>0</in>
												<out>576865</out>
												<start>0</start>
												<end>576865</end>
												<subframeoffset>0</subframeoffset>
												<anamorphic>FALSE</anamorphic>
												<masterclipid>BB0011_01 1</masterclipid>
												<syncoffset>0</syncoffset>
												<logginginfo>
													<scene/>
													<shottake/>
													<lognote/>
													<good>FALSE</good>
												</logginginfo>
												<labels>
													<label>Best Take</label>
													<label2/>
												</labels>
												<comments>
													<mastercomment1/>
													<mastercomment2/>
													<mastercomment3/>
													<mastercomment4/>
												</comments>
												<file id="BB0011_01 3"/>
												<filter>
													<effect>
														<name>Audio Levels</name>
														<effectid>audiolevels</effectid>
														<effectcategory>audiolevels</effectcategory>
														<effecttype>audiolevels</effecttype>
														<mediatype>audio</mediatype>
														<parameter>
															<name>Level</name>
															<parameterid>level</parameterid>
															<valuemin>0</valuemin>
															<valuemax>3.98109</valuemax>
															<value>1</value>
														</parameter>
													</effect>
												</filter>
												<filter>
													<effect>
														<name>Audio Pan</name>
														<effectid>audiopan</effectid>
														<effectcategory>audiopan</effectcategory>
														<effecttype>audiopan</effecttype>
														<mediatype>audio</mediatype>
														<parameter>
															<name>Pan</name>
															<parameterid>pan</parameterid>
															<valuemin>-1</valuemin>
															<valuemax>1</valuemax>
															<value>0</value>
														</parameter>
													</effect>
												</filter>
												<sourcetrack>
													<mediatype>audio</mediatype>
													<trackindex>2</trackindex>
												</sourcetrack>
												<link>
													<linkclipref>BB0011_01 2</linkclipref>
													<mediatype>video</mediatype>
													<trackindex>1</trackindex>
													<clipindex>1</clipindex>
												</link>
												<link>
													<linkclipref>BB0011_01 4</linkclipref>
													<mediatype>audio</mediatype>
													<trackindex>1</trackindex>
													<clipindex>1</clipindex>
												</link>
												<link>
													<linkclipref>BB0011_01 5</linkclipref>
													<mediatype>audio</mediatype>
													<trackindex>2</trackindex>
													<clipindex>1</clipindex>
												</link>
												<mediadelay>80388</mediadelay>
												<itemhistory>
													<uuid>E4727783-782C-4BE5-BE02-C9CD04E9F633</uuid>
												</itemhistory>
											</clipitem>
											<enabled>TRUE</enabled>
											<locked>FALSE</locked>
										</track>
										<filter>
											<effect>
												<name>Audio Levels</name>
												<effectid>audiolevels</effectid>
												<effectcategory>audiolevels</effectcategory>
												<effecttype>audiolevels</effecttype>
												<mediatype>audio</mediatype>
												<parameter>
													<name>Level</name>
													<parameterid>level</parameterid>
													<valuemin>0</valuemin>
													<valuemax>3.98109</valuemax>
													<value>1</value>
												</parameter>
											</effect>
										</filter>
									</audio>
								</media>
							</clip>
						</angle>
						<angle>
							<clip id="BB0012_01 ">
								<uuid>1D5FA4EB-6DF6-490C-9984-5A58BB6794DA</uuid>
								<updatebehavior>add</updatebehavior>
								<name>BB0012_01</name>
								<duration>576865</duration>
								<rate>
									<ntsc>TRUE</ntsc>
									<timebase>24</timebase>
								</rate>
								<in>-1</in>
								<out>-1</out>
								<anamorphic>FALSE</anamorphic>
								<masterclipid>BB0012_01 1</masterclipid>
								<ismasterclip>FALSE</ismasterclip>
								<logginginfo>
									<scene/>
									<shottake/>
									<lognote/>
									<good>FALSE</good>
								</logginginfo>
								<labels>
									<label>Best Take</label>
									<label2/>
								</labels>
								<comments>
									<mastercomment1/>
									<mastercomment2/>
									<mastercomment3/>
									<mastercomment4/>
								</comments>
								<media>
									<video>
										<track>
											<clipitem id="BB0012_01 2">
												<name>BB0012_01</name>
												<duration>576865</duration>
												<rate>
													<ntsc>TRUE</ntsc>
													<timebase>24</timebase>
												</rate>
												<in>0</in>
												<out>576865</out>
												<start>0</start>
												<end>576865</end>
												<pixelaspectratio>Square</pixelaspectratio>
												<anamorphic>FALSE</anamorphic>
												<alphatype>none</alphatype>
												<masterclipid>BB0012_01 1</masterclipid>
												<syncoffset>0</syncoffset>
												<logginginfo>
													<scene/>
													<shottake/>
													<lognote/>
													<good>FALSE</good>
												</logginginfo>
												<labels>
													<label>Best Take</label>
													<label2/>
												</labels>
												<comments>
													<mastercomment1/>
													<mastercomment2/>
													<mastercomment3/>
													<mastercomment4/>
												</comments>
												<file id="BB0012_01 3">
													<name>BB0012_01.mov</name>
													<pathurl>file://localhost/Volumes/Share/Edit%20Share/00%20BREW%20DOGS%20S1/BD_00_San_Diego/052413/01_Video/C300/BB0012_01.mov</pathurl>
													<rate>
														<timebase>24</timebase>
														<ntsc>TRUE</ntsc>
													</rate>
													<duration>8556</duration>
													<metadata>
														<storage>QuickTime</storage>
														<key>com.apple.quicktime.creationdate</key>
														<size>24</size>
														<type>UTF8</type>
														<value>2013-05-24T11:54:15-0700</value>
													</metadata>
													<metadata>
														<storage>QuickTime</storage>
														<key>com.apple.finalcutstudio.media.history.uuid</key>
														<size>36</size>
														<type>UTF8</type>
														<value>A769B97A-1131-43AC-8121-1A3E41C280B3</value>
													</metadata>
													<metadata>
														<storage>QuickTime</storage>
														<key>com.apple.finalcutstudio.media.uuid</key>
														<size>36</size>
														<type>UTF8</type>
														<value>A9E7B0C3-EE95-46D7-A62C-5FCB02B802FF</value>
													</metadata>
													<metadata>
														<storage>QuickTime</storage>
														<key>com.apple.proapps.reel</key>
														<size>12</size>
														<type>UTF8</type>
														<value>B01_verified</value>
													</metadata>
													<metadata>
														<storage>QuickTime</storage>
														<key>com.apple.proapps.isGood</key>
														<size>4</size>
														<type>unsigned</type>
														<value>0</value>
													</metadata>
													<metadata>
														<storage>QuickTime</storage>
														<key>com.apple.proapps.clipID</key>
														<size>36</size>
														<type>UTF8</type>
														<value>0D37B6E4-3664-0580-0000-8500025A0AE7</value>
													</metadata>
													<metadata>
														<storage>QuickTime</storage>
														<key>com.apple.proapps.originalFormat</key>
														<size>14</size>
														<type>UTF8</type>
														<value>Canon XF MPEG2</value>
													</metadata>
													<timecode>
														<rate>
															<timebase>24</timebase>
														</rate>
														<string>11:55:31:10</string>
														<frame>1030354</frame>
														<displayformat>NDF</displayformat>
														<source>source</source>
														<reel>
															<name>B01_verified</name>
														</reel>
													</timecode>
													<media>
														<video>
															<duration>8556</duration>
															<samplecharacteristics>
																<width>1920</width>
																<height>1080</height>
															</samplecharacteristics>
														</video>
														<audio>
															<samplecharacteristics>
																<samplerate>48000</samplerate>
																<depth>16</depth>
															</samplecharacteristics>
															<channelcount>1</channelcount>
															<layout>mono</layout>
															<audiochannel>
																<sourcechannel>1</sourcechannel>
																<channellabel>discrete</channellabel>
															</audiochannel>
														</audio>
														<audio>
															<samplecharacteristics>
																<samplerate>48000</samplerate>
																<depth>16</depth>
															</samplecharacteristics>
															<channelcount>1</channelcount>
															<layout>mono</layout>
															<audiochannel>
																<sourcechannel>2</sourcechannel>
																<channellabel>discrete</channellabel>
															</audiochannel>
														</audio>
													</media>
												</file>
												<sourcetrack>
													<mediatype>video</mediatype>
												</sourcetrack>
												<link>
													<linkclipref>BB0012_01 2</linkclipref>
													<mediatype>video</mediatype>
													<trackindex>1</trackindex>
													<clipindex>1</clipindex>
												</link>
												<link>
													<linkclipref>BB0012_01 4</linkclipref>
													<mediatype>audio</mediatype>
													<trackindex>1</trackindex>
													<clipindex>1</clipindex>
												</link>
												<link>
													<linkclipref>BB0012_01 5</linkclipref>
													<mediatype>audio</mediatype>
													<trackindex>2</trackindex>
													<clipindex>1</clipindex>
												</link>
												<fielddominance>none</fielddominance>
												<mediadelay>92436</mediadelay>
												<itemhistory>
													<uuid>D03CCDC8-5E33-49F4-B35A-BB2C33C5AC16</uuid>
												</itemhistory>
											</clipitem>
											<enabled>TRUE</enabled>
											<locked>FALSE</locked>
										</track>
									</video>
									<audio>
										<outputs>
											<group>
												<index>1</index>
												<numchannels>2</numchannels>
												<downmix>0</downmix>
												<channel>
													<index>1</index>
												</channel>
												<channel>
													<index>2</index>
												</channel>
											</group>
										</outputs>
										<in>-1</in>
										<out>-1</out>
										<track>
											<clipitem id="BB0012_01 4">
												<name>BB0012_01</name>
												<duration>576865</duration>
												<rate>
													<ntsc>TRUE</ntsc>
													<timebase>24</timebase>
												</rate>
												<in>0</in>
												<out>576865</out>
												<start>0</start>
												<end>576865</end>
												<subframeoffset>0</subframeoffset>
												<anamorphic>FALSE</anamorphic>
												<masterclipid>BB0012_01 1</masterclipid>
												<syncoffset>0</syncoffset>
												<logginginfo>
													<scene/>
													<shottake/>
													<lognote/>
													<good>FALSE</good>
												</logginginfo>
												<labels>
													<label>Best Take</label>
													<label2/>
												</labels>
												<comments>
													<mastercomment1/>
													<mastercomment2/>
													<mastercomment3/>
													<mastercomment4/>
												</comments>
												<file id="BB0012_01 3"/>
												<filter>
													<effect>
														<name>Audio Levels</name>
														<effectid>audiolevels</effectid>
														<effectcategory>audiolevels</effectcategory>
														<effecttype>audiolevels</effecttype>
														<mediatype>audio</mediatype>
														<parameter>
															<name>Level</name>
															<parameterid>level</parameterid>
															<valuemin>0</valuemin>
															<valuemax>3.98109</valuemax>
															<value>1</value>
														</parameter>
													</effect>
												</filter>
												<filter>
													<effect>
														<name>Audio Pan</name>
														<effectid>audiopan</effectid>
														<effectcategory>audiopan</effectcategory>
														<effecttype>audiopan</effecttype>
														<mediatype>audio</mediatype>
														<parameter>
															<name>Pan</name>
															<parameterid>pan</parameterid>
															<valuemin>-1</valuemin>
															<valuemax>1</valuemax>
															<value>0</value>
														</parameter>
													</effect>
												</filter>
												<sourcetrack>
													<mediatype>audio</mediatype>
													<trackindex>1</trackindex>
												</sourcetrack>
												<link>
													<linkclipref>BB0012_01 2</linkclipref>
													<mediatype>video</mediatype>
													<trackindex>1</trackindex>
													<clipindex>1</clipindex>
												</link>
												<link>
													<linkclipref>BB0012_01 4</linkclipref>
													<mediatype>audio</mediatype>
													<trackindex>1</trackindex>
													<clipindex>1</clipindex>
												</link>
												<link>
													<linkclipref>BB0012_01 5</linkclipref>
													<mediatype>audio</mediatype>
													<trackindex>2</trackindex>
													<clipindex>1</clipindex>
												</link>
												<mediadelay>92436</mediadelay>
												<itemhistory>
													<uuid>AA2CB72E-B16C-4439-B16C-8F33811FF2F9</uuid>
												</itemhistory>
											</clipitem>
											<enabled>TRUE</enabled>
											<locked>FALSE</locked>
										</track>
										<track>
											<clipitem id="BB0012_01 5">
												<name>BB0012_01</name>
												<duration>576865</duration>
												<rate>
													<ntsc>TRUE</ntsc>
													<timebase>24</timebase>
												</rate>
												<in>0</in>
												<out>576865</out>
												<start>0</start>
												<end>576865</end>
												<subframeoffset>0</subframeoffset>
												<anamorphic>FALSE</anamorphic>
												<masterclipid>BB0012_01 1</masterclipid>
												<syncoffset>0</syncoffset>
												<logginginfo>
													<scene/>
													<shottake/>
													<lognote/>
													<good>FALSE</good>
												</logginginfo>
												<labels>
													<label>Best Take</label>
													<label2/>
												</labels>
												<comments>
													<mastercomment1/>
													<mastercomment2/>
													<mastercomment3/>
													<mastercomment4/>
												</comments>
												<file id="BB0012_01 3"/>
												<filter>
													<effect>
														<name>Audio Levels</name>
														<effectid>audiolevels</effectid>
														<effectcategory>audiolevels</effectcategory>
														<effecttype>audiolevels</effecttype>
														<mediatype>audio</mediatype>
														<parameter>
															<name>Level</name>
															<parameterid>level</parameterid>
															<valuemin>0</valuemin>
															<valuemax>3.98109</valuemax>
															<value>1</value>
														</parameter>
													</effect>
												</filter>
												<filter>
													<effect>
														<name>Audio Pan</name>
														<effectid>audiopan</effectid>
														<effectcategory>audiopan</effectcategory>
														<effecttype>audiopan</effecttype>
														<mediatype>audio</mediatype>
														<parameter>
															<name>Pan</name>
															<parameterid>pan</parameterid>
															<valuemin>-1</valuemin>
															<valuemax>1</valuemax>
															<value>0</value>
														</parameter>
													</effect>
												</filter>
												<sourcetrack>
													<mediatype>audio</mediatype>
													<trackindex>2</trackindex>
												</sourcetrack>
												<link>
													<linkclipref>BB0012_01 2</linkclipref>
													<mediatype>video</mediatype>
													<trackindex>1</trackindex>
													<clipindex>1</clipindex>
												</link>
												<link>
													<linkclipref>BB0012_01 4</linkclipref>
													<mediatype>audio</mediatype>
													<trackindex>1</trackindex>
													<clipindex>1</clipindex>
												</link>
												<link>
													<linkclipref>BB0012_01 5</linkclipref>
													<mediatype>audio</mediatype>
													<trackindex>2</trackindex>
													<clipindex>1</clipindex>
												</link>
												<mediadelay>92436</mediadelay>
												<itemhistory>
													<uuid>BA12875B-C8D3-4DF4-BCCB-D0830B474568</uuid>
												</itemhistory>
											</clipitem>
											<enabled>TRUE</enabled>
											<locked>FALSE</locked>
										</track>
										<filter>
											<effect>
												<name>Audio Levels</name>
												<effectid>audiolevels</effectid>
												<effectcategory>audiolevels</effectcategory>
												<effecttype>audiolevels</effecttype>
												<mediatype>audio</mediatype>
												<parameter>
													<name>Level</name>
													<parameterid>level</parameterid>
													<valuemin>0</valuemin>
													<valuemax>3.98109</valuemax>
													<value>1</value>
												</parameter>
											</effect>
										</filter>
									</audio>
								</media>
							</clip>
						</angle>
						<angle>
							<clip id="BB0018_01 ">
								<uuid>2E33F280-ECB0-4B62-8476-C9FE9AA87CA0</uuid>
								<updatebehavior>add</updatebehavior>
								<name>BB0018_01</name>
								<duration>576865</duration>
								<rate>
									<ntsc>TRUE</ntsc>
									<timebase>24</timebase>
								</rate>
								<in>-1</in>
								<out>-1</out>
								<anamorphic>FALSE</anamorphic>
								<masterclipid>BB0018_01 1</masterclipid>
								<ismasterclip>FALSE</ismasterclip>
								<logginginfo>
									<scene/>
									<shottake/>
									<lognote/>
									<good>FALSE</good>
								</logginginfo>
								<labels>
									<label>Best Take</label>
									<label2/>
								</labels>
								<comments>
									<mastercomment1/>
									<mastercomment2/>
									<mastercomment3/>
									<mastercomment4/>
								</comments>
								<media>
									<video>
										<track>
											<clipitem id="BB0018_01 2">
												<name>BB0018_01</name>
												<duration>576865</duration>
												<rate>
													<ntsc>TRUE</ntsc>
													<timebase>24</timebase>
												</rate>
												<in>0</in>
												<out>576865</out>
												<start>0</start>
												<end>576865</end>
												<pixelaspectratio>Square</pixelaspectratio>
												<anamorphic>FALSE</anamorphic>
												<alphatype>none</alphatype>
												<masterclipid>BB0018_01 1</masterclipid>
												<syncoffset>0</syncoffset>
												<logginginfo>
													<scene/>
													<shottake/>
													<lognote/>
													<good>FALSE</good>
												</logginginfo>
												<labels>
													<label>Best Take</label>
													<label2/>
												</labels>
												<comments>
													<mastercomment1/>
													<mastercomment2/>
													<mastercomment3/>
													<mastercomment4/>
												</comments>
												<file id="BB0018_01 3">
													<name>BB0018_01.mov</name>
													<pathurl>file://localhost/Volumes/Share/Edit%20Share/00%20BREW%20DOGS%20S1/BD_00_San_Diego/052413/01_Video/C300/BB0018_01.mov</pathurl>
													<rate>
														<timebase>24</timebase>
														<ntsc>TRUE</ntsc>
													</rate>
													<duration>12600</duration>
													<metadata>
														<storage>QuickTime</storage>
														<key>com.apple.quicktime.creationdate</key>
														<size>24</size>
														<type>UTF8</type>
														<value>2013-05-24T13:24:54-0700</value>
													</metadata>
													<metadata>
														<storage>QuickTime</storage>
														<key>com.apple.finalcutstudio.media.history.uuid</key>
														<size>36</size>
														<type>UTF8</type>
														<value>130E58BA-447B-4461-9F7F-EDA4B7117B26</value>
													</metadata>
													<metadata>
														<storage>QuickTime</storage>
														<key>com.apple.finalcutstudio.media.uuid</key>
														<size>36</size>
														<type>UTF8</type>
														<value>568F73B3-A855-4E52-9540-6A07BF68357E</value>
													</metadata>
													<metadata>
														<storage>QuickTime</storage>
														<key>com.apple.proapps.reel</key>
														<size>12</size>
														<type>UTF8</type>
														<value>B02_verified</value>
													</metadata>
													<metadata>
														<storage>QuickTime</storage>
														<key>com.apple.proapps.isGood</key>
														<size>4</size>
														<type>unsigned</type>
														<value>0</value>
													</metadata>
													<metadata>
														<storage>QuickTime</storage>
														<key>com.apple.proapps.clipID</key>
														<size>36</size>
														<type>UTF8</type>
														<value>0D3CB1A8-3664-0580-0000-8500025A0AE7</value>
													</metadata>
													<metadata>
														<storage>QuickTime</storage>
														<key>com.apple.proapps.originalFormat</key>
														<size>14</size>
														<type>UTF8</type>
														<value>Canon XF MPEG2</value>
													</metadata>
													<timecode>
														<rate>
															<timebase>24</timebase>
														</rate>
														<string>13:26:05:00</string>
														<frame>1160760</frame>
														<displayformat>NDF</displayformat>
														<source>source</source>
														<reel>
															<name>B02_verified</name>
														</reel>
													</timecode>
													<media>
														<video>
															<duration>12600</duration>
															<samplecharacteristics>
																<width>1920</width>
																<height>1080</height>
															</samplecharacteristics>
														</video>
														<audio>
															<samplecharacteristics>
																<samplerate>48000</samplerate>
																<depth>16</depth>
															</samplecharacteristics>
															<channelcount>1</channelcount>
															<layout>mono</layout>
															<audiochannel>
																<sourcechannel>1</sourcechannel>
																<channellabel>discrete</channellabel>
															</audiochannel>
														</audio>
														<audio>
															<samplecharacteristics>
																<samplerate>48000</samplerate>
																<depth>16</depth>
															</samplecharacteristics>
															<channelcount>1</channelcount>
															<layout>mono</layout>
															<audiochannel>
																<sourcechannel>2</sourcechannel>
																<channellabel>discrete</channellabel>
															</audiochannel>
														</audio>
													</media>
												</file>
												<sourcetrack>
													<mediatype>video</mediatype>
												</sourcetrack>
												<link>
													<linkclipref>BB0018_01 2</linkclipref>
													<mediatype>video</mediatype>
													<trackindex>1</trackindex>
													<clipindex>1</clipindex>
												</link>
												<link>
													<linkclipref>BB0018_01 4</linkclipref>
													<mediatype>audio</mediatype>
													<trackindex>1</trackindex>
													<clipindex>1</clipindex>
												</link>
												<link>
													<linkclipref>BB0018_01 5</linkclipref>
													<mediatype>audio</mediatype>
													<trackindex>2</trackindex>
													<clipindex>1</clipindex>
												</link>
												<fielddominance>none</fielddominance>
												<mediadelay>222842</mediadelay>
												<itemhistory>
													<uuid>CB14F642-FADF-46ED-8C24-4748FAFAE59A</uuid>
												</itemhistory>
											</clipitem>
											<enabled>TRUE</enabled>
											<locked>FALSE</locked>
										</track>
									</video>
									<audio>
										<outputs>
											<group>
												<index>1</index>
												<numchannels>2</numchannels>
												<downmix>0</downmix>
												<channel>
													<index>1</index>
												</channel>
												<channel>
													<index>2</index>
												</channel>
											</group>
										</outputs>
										<in>-1</in>
										<out>-1</out>
										<track>
											<clipitem id="BB0018_01 4">
												<name>BB0018_01</name>
												<duration>576865</duration>
												<rate>
													<ntsc>TRUE</ntsc>
													<timebase>24</timebase>
												</rate>
												<in>0</in>
												<out>576865</out>
												<start>0</start>
												<end>576865</end>
												<subframeoffset>0</subframeoffset>
												<anamorphic>FALSE</anamorphic>
												<masterclipid>BB0018_01 1</masterclipid>
												<syncoffset>0</syncoffset>
												<logginginfo>
													<scene/>
													<shottake/>
													<lognote/>
													<good>FALSE</good>
												</logginginfo>
												<labels>
													<label>Best Take</label>
													<label2/>
												</labels>
												<comments>
													<mastercomment1/>
													<mastercomment2/>
													<mastercomment3/>
													<mastercomment4/>
												</comments>
												<file id="BB0018_01 3"/>
												<filter>
													<effect>
														<name>Audio Levels</name>
														<effectid>audiolevels</effectid>
														<effectcategory>audiolevels</effectcategory>
														<effecttype>audiolevels</effecttype>
														<mediatype>audio</mediatype>
														<parameter>
															<name>Level</name>
															<parameterid>level</parameterid>
															<valuemin>0</valuemin>
															<valuemax>3.98109</valuemax>
															<value>1</value>
														</parameter>
													</effect>
												</filter>
												<filter>
													<effect>
														<name>Audio Pan</name>
														<effectid>audiopan</effectid>
														<effectcategory>audiopan</effectcategory>
														<effecttype>audiopan</effecttype>
														<mediatype>audio</mediatype>
														<parameter>
															<name>Pan</name>
															<parameterid>pan</parameterid>
															<valuemin>-1</valuemin>
															<valuemax>1</valuemax>
															<value>0</value>
														</parameter>
													</effect>
												</filter>
												<sourcetrack>
													<mediatype>audio</mediatype>
													<trackindex>1</trackindex>
												</sourcetrack>
												<link>
													<linkclipref>BB0018_01 2</linkclipref>
													<mediatype>video</mediatype>
													<trackindex>1</trackindex>
													<clipindex>1</clipindex>
												</link>
												<link>
													<linkclipref>BB0018_01 4</linkclipref>
													<mediatype>audio</mediatype>
													<trackindex>1</trackindex>
													<clipindex>1</clipindex>
												</link>
												<link>
													<linkclipref>BB0018_01 5</linkclipref>
													<mediatype>audio</mediatype>
													<trackindex>2</trackindex>
													<clipindex>1</clipindex>
												</link>
												<mediadelay>222842</mediadelay>
												<itemhistory>
													<uuid>FFFED0D6-F6D6-4EC6-95C7-0FAE53ABD464</uuid>
												</itemhistory>
											</clipitem>
											<enabled>TRUE</enabled>
											<locked>FALSE</locked>
										</track>
										<track>
											<clipitem id="BB0018_01 5">
												<name>BB0018_01</name>
												<duration>576865</duration>
												<rate>
													<ntsc>TRUE</ntsc>
													<timebase>24</timebase>
												</rate>
												<in>0</in>
												<out>576865</out>
												<start>0</start>
												<end>576865</end>
												<subframeoffset>0</subframeoffset>
												<anamorphic>FALSE</anamorphic>
												<masterclipid>BB0018_01 1</masterclipid>
												<syncoffset>0</syncoffset>
												<logginginfo>
													<scene/>
													<shottake/>
													<lognote/>
													<good>FALSE</good>
												</logginginfo>
												<labels>
													<label>Best Take</label>
													<label2/>
												</labels>
												<comments>
													<mastercomment1/>
													<mastercomment2/>
													<mastercomment3/>
													<mastercomment4/>
												</comments>
												<file id="BB0018_01 3"/>
												<filter>
													<effect>
														<name>Audio Levels</name>
														<effectid>audiolevels</effectid>
														<effectcategory>audiolevels</effectcategory>
														<effecttype>audiolevels</effecttype>
														<mediatype>audio</mediatype>
														<parameter>
															<name>Level</name>
															<parameterid>level</parameterid>
															<valuemin>0</valuemin>
															<valuemax>3.98109</valuemax>
															<value>1</value>
														</parameter>
													</effect>
												</filter>
												<filter>
													<effect>
														<name>Audio Pan</name>
														<effectid>audiopan</effectid>
														<effectcategory>audiopan</effectcategory>
														<effecttype>audiopan</effecttype>
														<mediatype>audio</mediatype>
														<parameter>
															<name>Pan</name>
															<parameterid>pan</parameterid>
															<valuemin>-1</valuemin>
															<valuemax>1</valuemax>
															<value>0</value>
														</parameter>
													</effect>
												</filter>
												<sourcetrack>
													<mediatype>audio</mediatype>
													<trackindex>2</trackindex>
												</sourcetrack>
												<link>
													<linkclipref>BB0018_01 2</linkclipref>
													<mediatype>video</mediatype>
													<trackindex>1</trackindex>
													<clipindex>1</clipindex>
												</link>
												<link>
													<linkclipref>BB0018_01 4</linkclipref>
													<mediatype>audio</mediatype>
													<trackindex>1</trackindex>
													<clipindex>1</clipindex>
												</link>
												<link>
													<linkclipref>BB0018_01 5</linkclipref>
													<mediatype>audio</mediatype>
													<trackindex>2</trackindex>
													<clipindex>1</clipindex>
												</link>
												<mediadelay>222842</mediadelay>
												<itemhistory>
													<uuid>68B9CC63-E546-4CB8-A0FA-9FCDD7BA47DA</uuid>
												</itemhistory>
											</clipitem>
											<enabled>TRUE</enabled>
											<locked>FALSE</locked>
										</track>
										<filter>
											<effect>
												<name>Audio Levels</name>
												<effectid>audiolevels</effectid>
												<effectcategory>audiolevels</effectcategory>
												<effecttype>audiolevels</effecttype>
												<mediatype>audio</mediatype>
												<parameter>
													<name>Level</name>
													<parameterid>level</parameterid>
													<valuemin>0</valuemin>
													<valuemax>3.98109</valuemax>
													<value>1</value>
												</parameter>
											</effect>
										</filter>
									</audio>
								</media>
							</clip>
						</angle>
						<angle>
							<activevideoangle>TRUE</activevideoangle>
							<activeaudioangle>TRUE</activeaudioangle>
							<clip id="BB0019_01 5">
								<uuid>D92086DD-39C4-47D5-9262-755269ED1FFF</uuid>
								<updatebehavior>add</updatebehavior>
								<name>BB0019_01</name>
								<duration>576865</duration>
								<rate>
									<ntsc>TRUE</ntsc>
									<timebase>24</timebase>
								</rate>
								<in>-1</in>
								<out>-1</out>
								<anamorphic>FALSE</anamorphic>
								<masterclipid>BB0019_01 1</masterclipid>
								<ismasterclip>FALSE</ismasterclip>
								<logginginfo>
									<scene/>
									<shottake/>
									<lognote/>
									<good>FALSE</good>
								</logginginfo>
								<labels>
									<label>Best Take</label>
									<label2/>
								</labels>
								<comments>
									<mastercomment1/>
									<mastercomment2/>
									<mastercomment3/>
									<mastercomment4/>
								</comments>
								<media>
									<video>
										<track>
											<clipitem id="BB0019_01 6">
												<name>BB0019_01</name>
												<duration>576865</duration>
												<rate>
													<ntsc>TRUE</ntsc>
													<timebase>24</timebase>
												</rate>
												<in>0</in>
												<out>576865</out>
												<start>0</start>
												<end>576865</end>
												<pixelaspectratio>Square</pixelaspectratio>
												<anamorphic>FALSE</anamorphic>
												<alphatype>none</alphatype>
												<masterclipid>BB0019_01 1</masterclipid>
												<syncoffset>0</syncoffset>
												<logginginfo>
													<scene/>
													<shottake/>
													<lognote/>
													<good>FALSE</good>
												</logginginfo>
												<labels>
													<label>Best Take</label>
													<label2/>
												</labels>
												<comments>
													<mastercomment1/>
													<mastercomment2/>
													<mastercomment3/>
													<mastercomment4/>
												</comments>
												<file id="BB0019_01 2"/>
												<sourcetrack>
													<mediatype>video</mediatype>
												</sourcetrack>
												<link>
													<linkclipref>BB0019_01 6</linkclipref>
													<mediatype>video</mediatype>
													<trackindex>1</trackindex>
													<clipindex>1</clipindex>
												</link>
												<link>
													<linkclipref>BB0019_01 7</linkclipref>
													<mediatype>audio</mediatype>
													<trackindex>1</trackindex>
													<clipindex>1</clipindex>
												</link>
												<link>
													<linkclipref>BB0019_01 8</linkclipref>
													<mediatype>audio</mediatype>
													<trackindex>2</trackindex>
													<clipindex>1</clipindex>
												</link>
												<fielddominance>none</fielddominance>
												<mediadelay>235758</mediadelay>
												<itemhistory>
													<uuid>ABCDCADD-E769-4CF5-B9CD-6D840C2E9069</uuid>
												</itemhistory>
											</clipitem>
											<enabled>TRUE</enabled>
											<locked>FALSE</locked>
										</track>
									</video>
									<audio>
										<outputs>
											<group>
												<index>1</index>
												<numchannels>2</numchannels>
												<downmix>0</downmix>
												<channel>
													<index>1</index>
												</channel>
												<channel>
													<index>2</index>
												</channel>
											</group>
										</outputs>
										<in>-1</in>
										<out>-1</out>
										<track>
											<clipitem id="BB0019_01 7">
												<name>BB0019_01</name>
												<duration>576865</duration>
												<rate>
													<ntsc>TRUE</ntsc>
													<timebase>24</timebase>
												</rate>
												<in>0</in>
												<out>576865</out>
												<start>0</start>
												<end>576865</end>
												<subframeoffset>0</subframeoffset>
												<anamorphic>FALSE</anamorphic>
												<masterclipid>BB0019_01 1</masterclipid>
												<syncoffset>0</syncoffset>
												<logginginfo>
													<scene/>
													<shottake/>
													<lognote/>
													<good>FALSE</good>
												</logginginfo>
												<labels>
													<label>Best Take</label>
													<label2/>
												</labels>
												<comments>
													<mastercomment1/>
													<mastercomment2/>
													<mastercomment3/>
													<mastercomment4/>
												</comments>
												<file id="BB0019_01 2"/>
												<filter>
													<effect>
														<name>Audio Levels</name>
														<effectid>audiolevels</effectid>
														<effectcategory>audiolevels</effectcategory>
														<effecttype>audiolevels</effecttype>
														<mediatype>audio</mediatype>
														<parameter>
															<name>Level</name>
															<parameterid>level</parameterid>
															<valuemin>0</valuemin>
															<valuemax>3.98109</valuemax>
															<value>1</value>
														</parameter>
													</effect>
												</filter>
												<filter>
													<effect>
														<name>Audio Pan</name>
														<effectid>audiopan</effectid>
														<effectcategory>audiopan</effectcategory>
														<effecttype>audiopan</effecttype>
														<mediatype>audio</mediatype>
														<parameter>
															<name>Pan</name>
															<parameterid>pan</parameterid>
															<valuemin>-1</valuemin>
															<valuemax>1</valuemax>
															<value>0</value>
														</parameter>
													</effect>
												</filter>
												<sourcetrack>
													<mediatype>audio</mediatype>
													<trackindex>1</trackindex>
												</sourcetrack>
												<link>
													<linkclipref>BB0019_01 6</linkclipref>
													<mediatype>video</mediatype>
													<trackindex>1</trackindex>
													<clipindex>1</clipindex>
												</link>
												<link>
													<linkclipref>BB0019_01 7</linkclipref>
													<mediatype>audio</mediatype>
													<trackindex>1</trackindex>
													<clipindex>1</clipindex>
												</link>
												<link>
													<linkclipref>BB0019_01 8</linkclipref>
													<mediatype>audio</mediatype>
													<trackindex>2</trackindex>
													<clipindex>1</clipindex>
												</link>
												<mediadelay>235758</mediadelay>
												<itemhistory>
													<uuid>A8C8295D-7BD5-4A64-8D63-3E074A30A43D</uuid>
												</itemhistory>
											</clipitem>
											<enabled>TRUE</enabled>
											<locked>FALSE</locked>
										</track>
										<track>
											<clipitem id="BB0019_01 8">
												<name>BB0019_01</name>
												<duration>576865</duration>
												<rate>
													<ntsc>TRUE</ntsc>
													<timebase>24</timebase>
												</rate>
												<in>0</in>
												<out>576865</out>
												<start>0</start>
												<end>576865</end>
												<subframeoffset>0</subframeoffset>
												<anamorphic>FALSE</anamorphic>
												<masterclipid>BB0019_01 1</masterclipid>
												<syncoffset>0</syncoffset>
												<logginginfo>
													<scene/>
													<shottake/>
													<lognote/>
													<good>FALSE</good>
												</logginginfo>
												<labels>
													<label>Best Take</label>
													<label2/>
												</labels>
												<comments>
													<mastercomment1/>
													<mastercomment2/>
													<mastercomment3/>
													<mastercomment4/>
												</comments>
												<file id="BB0019_01 2"/>
												<filter>
													<effect>
														<name>Audio Levels</name>
														<effectid>audiolevels</effectid>
														<effectcategory>audiolevels</effectcategory>
														<effecttype>audiolevels</effecttype>
														<mediatype>audio</mediatype>
														<parameter>
															<name>Level</name>
															<parameterid>level</parameterid>
															<valuemin>0</valuemin>
															<valuemax>3.98109</valuemax>
															<value>1</value>
														</parameter>
													</effect>
												</filter>
												<filter>
													<effect>
														<name>Audio Pan</name>
														<effectid>audiopan</effectid>
														<effectcategory>audiopan</effectcategory>
														<effecttype>audiopan</effecttype>
														<mediatype>audio</mediatype>
														<parameter>
															<name>Pan</name>
															<parameterid>pan</parameterid>
															<valuemin>-1</valuemin>
															<valuemax>1</valuemax>
															<value>0</value>
														</parameter>
													</effect>
												</filter>
												<sourcetrack>
													<mediatype>audio</mediatype>
													<trackindex>2</trackindex>
												</sourcetrack>
												<link>
													<linkclipref>BB0019_01 6</linkclipref>
													<mediatype>video</mediatype>
													<trackindex>1</trackindex>
													<clipindex>1</clipindex>
												</link>
												<link>
													<linkclipref>BB0019_01 7</linkclipref>
													<mediatype>audio</mediatype>
													<trackindex>1</trackindex>
													<clipindex>1</clipindex>
												</link>
												<link>
													<linkclipref>BB0019_01 8</linkclipref>
													<mediatype>audio</mediatype>
													<trackindex>2</trackindex>
													<clipindex>1</clipindex>
												</link>
												<mediadelay>235758</mediadelay>
												<itemhistory>
													<uuid>9CD849E0-2E64-4744-BEF6-2EEE864E0B17</uuid>
												</itemhistory>
											</clipitem>
											<enabled>TRUE</enabled>
											<locked>FALSE</locked>
										</track>
										<filter>
											<effect>
												<name>Audio Levels</name>
												<effectid>audiolevels</effectid>
												<effectcategory>audiolevels</effectcategory>
												<effecttype>audiolevels</effecttype>
												<mediatype>audio</mediatype>
												<parameter>
													<name>Level</name>
													<parameterid>level</parameterid>
													<valuemin>0</valuemin>
													<valuemax>3.98109</valuemax>
													<value>1</value>
												</parameter>
											</effect>
										</filter>
									</audio>
								</media>
							</clip>
						</angle>
						<angle>
							<clip id="BB0020_01 ">
								<uuid>65FC026D-BEA3-49F5-806C-98BAD7DB9C62</uuid>
								<updatebehavior>add</updatebehavior>
								<name>BB0020_01</name>
								<duration>576865</duration>
								<rate>
									<ntsc>TRUE</ntsc>
									<timebase>24</timebase>
								</rate>
								<in>-1</in>
								<out>-1</out>
								<anamorphic>FALSE</anamorphic>
								<masterclipid>BB0020_01 1</masterclipid>
								<ismasterclip>FALSE</ismasterclip>
								<logginginfo>
									<scene/>
									<shottake/>
									<lognote/>
									<good>FALSE</good>
								</logginginfo>
								<labels>
									<label>Best Take</label>
									<label2/>
								</labels>
								<comments>
									<mastercomment1/>
									<mastercomment2/>
									<mastercomment3/>
									<mastercomment4/>
								</comments>
								<media>
									<video>
										<track>
											<clipitem id="BB0020_01 2">
												<name>BB0020_01</name>
												<duration>576865</duration>
												<rate>
													<ntsc>TRUE</ntsc>
													<timebase>24</timebase>
												</rate>
												<in>0</in>
												<out>576865</out>
												<start>0</start>
												<end>576865</end>
												<pixelaspectratio>Square</pixelaspectratio>
												<anamorphic>FALSE</anamorphic>
												<alphatype>none</alphatype>
												<masterclipid>BB0020_01 1</masterclipid>
												<syncoffset>0</syncoffset>
												<logginginfo>
													<scene/>
													<shottake/>
													<lognote/>
													<good>FALSE</good>
												</logginginfo>
												<labels>
													<label>Best Take</label>
													<label2/>
												</labels>
												<comments>
													<mastercomment1/>
													<mastercomment2/>
													<mastercomment3/>
													<mastercomment4/>
												</comments>
												<file id="BB0020_01 3">
													<name>BB0020_01.mov</name>
													<pathurl>file://localhost/Volumes/Share/Edit%20Share/00%20BREW%20DOGS%20S1/BD_00_San_Diego/052413/01_Video/C300/BB0020_01.mov</pathurl>
													<rate>
														<timebase>24</timebase>
														<ntsc>TRUE</ntsc>
													</rate>
													<duration>3480</duration>
													<metadata>
														<storage>QuickTime</storage>
														<key>com.apple.quicktime.creationdate</key>
														<size>24</size>
														<type>UTF8</type>
														<value>2013-05-24T13:39:03-0700</value>
													</metadata>
													<metadata>
														<storage>QuickTime</storage>
														<key>com.apple.finalcutstudio.media.history.uuid</key>
														<size>36</size>
														<type>UTF8</type>
														<value>64D4A020-7E62-4A5D-8B28-3FEC1A579736</value>
													</metadata>
													<metadata>
														<storage>QuickTime</storage>
														<key>com.apple.finalcutstudio.media.uuid</key>
														<size>36</size>
														<type>UTF8</type>
														<value>F6B7B75C-3F86-439F-AF6B-7BCD10E87F40</value>
													</metadata>
													<metadata>
														<storage>QuickTime</storage>
														<key>com.apple.proapps.reel</key>
														<size>12</size>
														<type>UTF8</type>
														<value>B02_verified</value>
													</metadata>
													<metadata>
														<storage>QuickTime</storage>
														<key>com.apple.proapps.isGood</key>
														<size>4</size>
														<type>unsigned</type>
														<value>0</value>
													</metadata>
													<metadata>
														<storage>QuickTime</storage>
														<key>com.apple.proapps.clipID</key>
														<size>36</size>
														<type>UTF8</type>
														<value>0D3D78A4-3664-0580-0000-8500025A0AE7</value>
													</metadata>
													<metadata>
														<storage>QuickTime</storage>
														<key>com.apple.proapps.originalFormat</key>
														<size>14</size>
														<type>UTF8</type>
														<value>Canon XF MPEG2</value>
													</metadata>
													<timecode>
														<rate>
															<timebase>24</timebase>
														</rate>
														<string>13:40:13:12</string>
														<frame>1181124</frame>
														<displayformat>NDF</displayformat>
														<source>source</source>
														<reel>
															<name>B02_verified</name>
														</reel>
													</timecode>
													<media>
														<video>
															<duration>3480</duration>
															<samplecharacteristics>
																<width>1920</width>
																<height>1080</height>
															</samplecharacteristics>
														</video>
														<audio>
															<samplecharacteristics>
																<samplerate>48000</samplerate>
																<depth>16</depth>
															</samplecharacteristics>
															<channelcount>1</channelcount>
															<layout>mono</layout>
															<audiochannel>
																<sourcechannel>1</sourcechannel>
																<channellabel>discrete</channellabel>
															</audiochannel>
														</audio>
														<audio>
															<samplecharacteristics>
																<samplerate>48000</samplerate>
																<depth>16</depth>
															</samplecharacteristics>
															<channelcount>1</channelcount>
															<layout>mono</layout>
															<audiochannel>
																<sourcechannel>2</sourcechannel>
																<channellabel>discrete</channellabel>
															</audiochannel>
														</audio>
													</media>
												</file>
												<sourcetrack>
													<mediatype>video</mediatype>
												</sourcetrack>
												<link>
													<linkclipref>BB0020_01 2</linkclipref>
													<mediatype>video</mediatype>
													<trackindex>1</trackindex>
													<clipindex>1</clipindex>
												</link>
												<link>
													<linkclipref>BB0020_01 4</linkclipref>
													<mediatype>audio</mediatype>
													<trackindex>1</trackindex>
													<clipindex>1</clipindex>
												</link>
												<link>
													<linkclipref>BB0020_01 5</linkclipref>
													<mediatype>audio</mediatype>
													<trackindex>2</trackindex>
													<clipindex>1</clipindex>
												</link>
												<fielddominance>none</fielddominance>
												<mediadelay>243206</mediadelay>
												<itemhistory>
													<uuid>CE05CF85-EC3D-4C11-AB8D-28B9A1D23059</uuid>
												</itemhistory>
											</clipitem>
											<enabled>TRUE</enabled>
											<locked>FALSE</locked>
										</track>
									</video>
									<audio>
										<outputs>
											<group>
												<index>1</index>
												<numchannels>2</numchannels>
												<downmix>0</downmix>
												<channel>
													<index>1</index>
												</channel>
												<channel>
													<index>2</index>
												</channel>
											</group>
										</outputs>
										<in>-1</in>
										<out>-1</out>
										<track>
											<clipitem id="BB0020_01 4">
												<name>BB0020_01</name>
												<duration>576865</duration>
												<rate>
													<ntsc>TRUE</ntsc>
													<timebase>24</timebase>
												</rate>
												<in>0</in>
												<out>576865</out>
												<start>0</start>
												<end>576865</end>
												<subframeoffset>0</subframeoffset>
												<anamorphic>FALSE</anamorphic>
												<masterclipid>BB0020_01 1</masterclipid>
												<syncoffset>0</syncoffset>
												<logginginfo>
													<scene/>
													<shottake/>
													<lognote/>
													<good>FALSE</good>
												</logginginfo>
												<labels>
													<label>Best Take</label>
													<label2/>
												</labels>
												<comments>
													<mastercomment1/>
													<mastercomment2/>
													<mastercomment3/>
													<mastercomment4/>
												</comments>
												<file id="BB0020_01 3"/>
												<filter>
													<effect>
														<name>Audio Levels</name>
														<effectid>audiolevels</effectid>
														<effectcategory>audiolevels</effectcategory>
														<effecttype>audiolevels</effecttype>
														<mediatype>audio</mediatype>
														<parameter>
															<name>Level</name>
															<parameterid>level</parameterid>
															<valuemin>0</valuemin>
															<valuemax>3.98109</valuemax>
															<value>1</value>
														</parameter>
													</effect>
												</filter>
												<filter>
													<effect>
														<name>Audio Pan</name>
														<effectid>audiopan</effectid>
														<effectcategory>audiopan</effectcategory>
														<effecttype>audiopan</effecttype>
														<mediatype>audio</mediatype>
														<parameter>
															<name>Pan</name>
															<parameterid>pan</parameterid>
															<valuemin>-1</valuemin>
															<valuemax>1</valuemax>
															<value>0</value>
														</parameter>
													</effect>
												</filter>
												<sourcetrack>
													<mediatype>audio</mediatype>
													<trackindex>1</trackindex>
												</sourcetrack>
												<link>
													<linkclipref>BB0020_01 2</linkclipref>
													<mediatype>video</mediatype>
													<trackindex>1</trackindex>
													<clipindex>1</clipindex>
												</link>
												<link>
													<linkclipref>BB0020_01 4</linkclipref>
													<mediatype>audio</mediatype>
													<trackindex>1</trackindex>
													<clipindex>1</clipindex>
												</link>
												<link>
													<linkclipref>BB0020_01 5</linkclipref>
													<mediatype>audio</mediatype>
													<trackindex>2</trackindex>
													<clipindex>1</clipindex>
												</link>
												<mediadelay>243206</mediadelay>
												<itemhistory>
													<uuid>AF03B5C7-F83E-4D15-B182-CB1EEB167739</uuid>
												</itemhistory>
											</clipitem>
											<enabled>TRUE</enabled>
											<locked>FALSE</locked>
										</track>
										<track>
											<clipitem id="BB0020_01 5">
												<name>BB0020_01</name>
												<duration>576865</duration>
												<rate>
													<ntsc>TRUE</ntsc>
													<timebase>24</timebase>
												</rate>
												<in>0</in>
												<out>576865</out>
												<start>0</start>
												<end>576865</end>
												<subframeoffset>0</subframeoffset>
												<anamorphic>FALSE</anamorphic>
												<masterclipid>BB0020_01 1</masterclipid>
												<syncoffset>0</syncoffset>
												<logginginfo>
													<scene/>
													<shottake/>
													<lognote/>
													<good>FALSE</good>
												</logginginfo>
												<labels>
													<label>Best Take</label>
													<label2/>
												</labels>
												<comments>
													<mastercomment1/>
													<mastercomment2/>
													<mastercomment3/>
													<mastercomment4/>
												</comments>
												<file id="BB0020_01 3"/>
												<filter>
													<effect>
														<name>Audio Levels</name>
														<effectid>audiolevels</effectid>
														<effectcategory>audiolevels</effectcategory>
														<effecttype>audiolevels</effecttype>
														<mediatype>audio</mediatype>
														<parameter>
															<name>Level</name>
															<parameterid>level</parameterid>
															<valuemin>0</valuemin>
															<valuemax>3.98109</valuemax>
															<value>1</value>
														</parameter>
													</effect>
												</filter>
												<filter>
													<effect>
														<name>Audio Pan</name>
														<effectid>audiopan</effectid>
														<effectcategory>audiopan</effectcategory>
														<effecttype>audiopan</effecttype>
														<mediatype>audio</mediatype>
														<parameter>
															<name>Pan</name>
															<parameterid>pan</parameterid>
															<valuemin>-1</valuemin>
															<valuemax>1</valuemax>
															<value>0</value>
														</parameter>
													</effect>
												</filter>
												<sourcetrack>
													<mediatype>audio</mediatype>
													<trackindex>2</trackindex>
												</sourcetrack>
												<link>
													<linkclipref>BB0020_01 2</linkclipref>
													<mediatype>video</mediatype>
													<trackindex>1</trackindex>
													<clipindex>1</clipindex>
												</link>
												<link>
													<linkclipref>BB0020_01 4</linkclipref>
													<mediatype>audio</mediatype>
													<trackindex>1</trackindex>
													<clipindex>1</clipindex>
												</link>
												<link>
													<linkclipref>BB0020_01 5</linkclipref>
													<mediatype>audio</mediatype>
													<trackindex>2</trackindex>
													<clipindex>1</clipindex>
												</link>
												<mediadelay>243206</mediadelay>
												<itemhistory>
													<uuid>5CE96F9A-FBB9-433E-84DD-8F5E12958A99</uuid>
												</itemhistory>
											</clipitem>
											<enabled>TRUE</enabled>
											<locked>FALSE</locked>
										</track>
										<filter>
											<effect>
												<name>Audio Levels</name>
												<effectid>audiolevels</effectid>
												<effectcategory>audiolevels</effectcategory>
												<effecttype>audiolevels</effecttype>
												<mediatype>audio</mediatype>
												<parameter>
													<name>Level</name>
													<parameterid>level</parameterid>
													<valuemin>0</valuemin>
													<valuemax>3.98109</valuemax>
													<value>1</value>
												</parameter>
											</effect>
										</filter>
									</audio>
								</media>
							</clip>
						</angle>
						<angle>
							<clip id="BB0021_01 ">
								<uuid>72E3AFAF-4B4C-4405-A4C0-5107396863EE</uuid>
								<updatebehavior>add</updatebehavior>
								<name>BB0021_01</name>
								<duration>576865</duration>
								<rate>
									<ntsc>TRUE</ntsc>
									<timebase>24</timebase>
								</rate>
								<in>-1</in>
								<out>-1</out>
								<anamorphic>FALSE</anamorphic>
								<masterclipid>BB0021_01 1</masterclipid>
								<ismasterclip>FALSE</ismasterclip>
								<logginginfo>
									<scene/>
									<shottake/>
									<lognote/>
									<good>FALSE</good>
								</logginginfo>
								<labels>
									<label>Best Take</label>
									<label2/>
								</labels>
								<comments>
									<mastercomment1/>
									<mastercomment2/>
									<mastercomment3/>
									<mastercomment4/>
								</comments>
								<media>
									<video>
										<track>
											<clipitem id="BB0021_01 2">
												<name>BB0021_01</name>
												<duration>576865</duration>
												<rate>
													<ntsc>TRUE</ntsc>
													<timebase>24</timebase>
												</rate>
												<in>0</in>
												<out>576865</out>
												<start>0</start>
												<end>576865</end>
												<pixelaspectratio>Square</pixelaspectratio>
												<anamorphic>FALSE</anamorphic>
												<alphatype>none</alphatype>
												<masterclipid>BB0021_01 1</masterclipid>
												<syncoffset>0</syncoffset>
												<logginginfo>
													<scene/>
													<shottake/>
													<lognote/>
													<good>FALSE</good>
												</logginginfo>
												<labels>
													<label>Best Take</label>
													<label2/>
												</labels>
												<comments>
													<mastercomment1/>
													<mastercomment2/>
													<mastercomment3/>
													<mastercomment4/>
												</comments>
												<file id="BB0021_01 3">
													<name>BB0021_01.mov</name>
													<pathurl>file://localhost/Volumes/Share/Edit%20Share/00%20BREW%20DOGS%20S1/BD_00_San_Diego/052413/01_Video/C300/BB0021_01.mov</pathurl>
													<rate>
														<timebase>24</timebase>
														<ntsc>TRUE</ntsc>
													</rate>
													<duration>9756</duration>
													<metadata>
														<storage>QuickTime</storage>
														<key>com.apple.quicktime.creationdate</key>
														<size>24</size>
														<type>UTF8</type>
														<value>2013-05-24T13:54:32-0700</value>
													</metadata>
													<metadata>
														<storage>QuickTime</storage>
														<key>com.apple.finalcutstudio.media.history.uuid</key>
														<size>36</size>
														<type>UTF8</type>
														<value>3FEDE16B-5759-47B7-AB1F-6A3839DA420C</value>
													</metadata>
													<metadata>
														<storage>QuickTime</storage>
														<key>com.apple.finalcutstudio.media.uuid</key>
														<size>36</size>
														<type>UTF8</type>
														<value>4F271A49-F4F9-41FA-B5D1-7AC0834B8A6F</value>
													</metadata>
													<metadata>
														<storage>QuickTime</storage>
														<key>com.apple.proapps.reel</key>
														<size>12</size>
														<type>UTF8</type>
														<value>B02_verified</value>
													</metadata>
													<metadata>
														<storage>QuickTime</storage>
														<key>com.apple.proapps.isGood</key>
														<size>4</size>
														<type>unsigned</type>
														<value>0</value>
													</metadata>
													<metadata>
														<storage>QuickTime</storage>
														<key>com.apple.proapps.clipID</key>
														<size>36</size>
														<type>UTF8</type>
														<value>0D3E5260-3664-0580-0000-8500025A0AE7</value>
													</metadata>
													<metadata>
														<storage>QuickTime</storage>
														<key>com.apple.proapps.originalFormat</key>
														<size>14</size>
														<type>UTF8</type>
														<value>Canon XF MPEG2</value>
													</metadata>
													<timecode>
														<rate>
															<timebase>24</timebase>
														</rate>
														<string>13:55:41:00</string>
														<frame>1203384</frame>
														<displayformat>NDF</displayformat>
														<source>source</source>
														<reel>
															<name>B02_verified</name>
														</reel>
													</timecode>
													<media>
														<video>
															<duration>9756</duration>
															<samplecharacteristics>
																<width>1920</width>
																<height>1080</height>
															</samplecharacteristics>
														</video>
														<audio>
															<samplecharacteristics>
																<samplerate>48000</samplerate>
																<depth>16</depth>
															</samplecharacteristics>
															<channelcount>1</channelcount>
															<layout>mono</layout>
															<audiochannel>
																<sourcechannel>1</sourcechannel>
																<channellabel>discrete</channellabel>
															</audiochannel>
														</audio>
														<audio>
															<samplecharacteristics>
																<samplerate>48000</samplerate>
																<depth>16</depth>
															</samplecharacteristics>
															<channelcount>1</channelcount>
															<layout>mono</layout>
															<audiochannel>
																<sourcechannel>2</sourcechannel>
																<channellabel>discrete</channellabel>
															</audiochannel>
														</audio>
													</media>
												</file>
												<sourcetrack>
													<mediatype>video</mediatype>
												</sourcetrack>
												<link>
													<linkclipref>BB0021_01 2</linkclipref>
													<mediatype>video</mediatype>
													<trackindex>1</trackindex>
													<clipindex>1</clipindex>
												</link>
												<link>
													<linkclipref>BB0021_01 4</linkclipref>
													<mediatype>audio</mediatype>
													<trackindex>1</trackindex>
													<clipindex>1</clipindex>
												</link>
												<link>
													<linkclipref>BB0021_01 5</linkclipref>
													<mediatype>audio</mediatype>
													<trackindex>2</trackindex>
													<clipindex>1</clipindex>
												</link>
												<fielddominance>none</fielddominance>
												<mediadelay>265466</mediadelay>
												<itemhistory>
													<uuid>2A353C11-8BC1-4D02-9F1D-446DFBFBEF43</uuid>
												</itemhistory>
											</clipitem>
											<enabled>TRUE</enabled>
											<locked>FALSE</locked>
										</track>
									</video>
									<audio>
										<outputs>
											<group>
												<index>1</index>
												<numchannels>2</numchannels>
												<downmix>0</downmix>
												<channel>
													<index>1</index>
												</channel>
												<channel>
													<index>2</index>
												</channel>
											</group>
										</outputs>
										<in>-1</in>
										<out>-1</out>
										<track>
											<clipitem id="BB0021_01 4">
												<name>BB0021_01</name>
												<duration>576865</duration>
												<rate>
													<ntsc>TRUE</ntsc>
													<timebase>24</timebase>
												</rate>
												<in>0</in>
												<out>576865</out>
												<start>0</start>
												<end>576865</end>
												<subframeoffset>0</subframeoffset>
												<anamorphic>FALSE</anamorphic>
												<masterclipid>BB0021_01 1</masterclipid>
												<syncoffset>0</syncoffset>
												<logginginfo>
													<scene/>
													<shottake/>
													<lognote/>
													<good>FALSE</good>
												</logginginfo>
												<labels>
													<label>Best Take</label>
													<label2/>
												</labels>
												<comments>
													<mastercomment1/>
													<mastercomment2/>
													<mastercomment3/>
													<mastercomment4/>
												</comments>
												<file id="BB0021_01 3"/>
												<filter>
													<effect>
														<name>Audio Levels</name>
														<effectid>audiolevels</effectid>
														<effectcategory>audiolevels</effectcategory>
														<effecttype>audiolevels</effecttype>
														<mediatype>audio</mediatype>
														<parameter>
															<name>Level</name>
															<parameterid>level</parameterid>
															<valuemin>0</valuemin>
															<valuemax>3.98109</valuemax>
															<value>1</value>
														</parameter>
													</effect>
												</filter>
												<filter>
													<effect>
														<name>Audio Pan</name>
														<effectid>audiopan</effectid>
														<effectcategory>audiopan</effectcategory>
														<effecttype>audiopan</effecttype>
														<mediatype>audio</mediatype>
														<parameter>
															<name>Pan</name>
															<parameterid>pan</parameterid>
															<valuemin>-1</valuemin>
															<valuemax>1</valuemax>
															<value>0</value>
														</parameter>
													</effect>
												</filter>
												<sourcetrack>
													<mediatype>audio</mediatype>
													<trackindex>1</trackindex>
												</sourcetrack>
												<link>
													<linkclipref>BB0021_01 2</linkclipref>
													<mediatype>video</mediatype>
													<trackindex>1</trackindex>
													<clipindex>1</clipindex>
												</link>
												<link>
													<linkclipref>BB0021_01 4</linkclipref>
													<mediatype>audio</mediatype>
													<trackindex>1</trackindex>
													<clipindex>1</clipindex>
												</link>
												<link>
													<linkclipref>BB0021_01 5</linkclipref>
													<mediatype>audio</mediatype>
													<trackindex>2</trackindex>
													<clipindex>1</clipindex>
												</link>
												<mediadelay>265466</mediadelay>
												<itemhistory>
													<uuid>E0870A0A-B263-4C3D-AC62-52E48EDF68C3</uuid>
												</itemhistory>
											</clipitem>
											<enabled>TRUE</enabled>
											<locked>FALSE</locked>
										</track>
										<track>
											<clipitem id="BB0021_01 5">
												<name>BB0021_01</name>
												<duration>576865</duration>
												<rate>
													<ntsc>TRUE</ntsc>
													<timebase>24</timebase>
												</rate>
												<in>0</in>
												<out>576865</out>
												<start>0</start>
												<end>576865</end>
												<subframeoffset>0</subframeoffset>
												<anamorphic>FALSE</anamorphic>
												<masterclipid>BB0021_01 1</masterclipid>
												<syncoffset>0</syncoffset>
												<logginginfo>
													<scene/>
													<shottake/>
													<lognote/>
													<good>FALSE</good>
												</logginginfo>
												<labels>
													<label>Best Take</label>
													<label2/>
												</labels>
												<comments>
													<mastercomment1/>
													<mastercomment2/>
													<mastercomment3/>
													<mastercomment4/>
												</comments>
												<file id="BB0021_01 3"/>
												<filter>
													<effect>
														<name>Audio Levels</name>
														<effectid>audiolevels</effectid>
														<effectcategory>audiolevels</effectcategory>
														<effecttype>audiolevels</effecttype>
														<mediatype>audio</mediatype>
														<parameter>
															<name>Level</name>
															<parameterid>level</parameterid>
															<valuemin>0</valuemin>
															<valuemax>3.98109</valuemax>
															<value>1</value>
														</parameter>
													</effect>
												</filter>
												<filter>
													<effect>
														<name>Audio Pan</name>
														<effectid>audiopan</effectid>
														<effectcategory>audiopan</effectcategory>
														<effecttype>audiopan</effecttype>
														<mediatype>audio</mediatype>
														<parameter>
															<name>Pan</name>
															<parameterid>pan</parameterid>
															<valuemin>-1</valuemin>
															<valuemax>1</valuemax>
															<value>0</value>
														</parameter>
													</effect>
												</filter>
												<sourcetrack>
													<mediatype>audio</mediatype>
													<trackindex>2</trackindex>
												</sourcetrack>
												<link>
													<linkclipref>BB0021_01 2</linkclipref>
													<mediatype>video</mediatype>
													<trackindex>1</trackindex>
													<clipindex>1</clipindex>
												</link>
												<link>
													<linkclipref>BB0021_01 4</linkclipref>
													<mediatype>audio</mediatype>
													<trackindex>1</trackindex>
													<clipindex>1</clipindex>
												</link>
												<link>
													<linkclipref>BB0021_01 5</linkclipref>
													<mediatype>audio</mediatype>
													<trackindex>2</trackindex>
													<clipindex>1</clipindex>
												</link>
												<mediadelay>265466</mediadelay>
												<itemhistory>
													<uuid>118FAB3F-5795-4D65-82D8-4B36CF4EA681</uuid>
												</itemhistory>
											</clipitem>
											<enabled>TRUE</enabled>
											<locked>FALSE</locked>
										</track>
										<filter>
											<effect>
												<name>Audio Levels</name>
												<effectid>audiolevels</effectid>
												<effectcategory>audiolevels</effectcategory>
												<effecttype>audiolevels</effecttype>
												<mediatype>audio</mediatype>
												<parameter>
													<name>Level</name>
													<parameterid>level</parameterid>
													<valuemin>0</valuemin>
													<valuemax>3.98109</valuemax>
													<value>1</value>
												</parameter>
											</effect>
										</filter>
									</audio>
								</media>
							</clip>
						</angle>
						<angle>
							<clip id="BB0022_01 ">
								<uuid>D0EAAC21-EA1C-44B2-97D1-FC2899668D89</uuid>
								<updatebehavior>add</updatebehavior>
								<name>BB0022_01</name>
								<duration>576865</duration>
								<rate>
									<ntsc>TRUE</ntsc>
									<timebase>24</timebase>
								</rate>
								<in>-1</in>
								<out>-1</out>
								<anamorphic>FALSE</anamorphic>
								<masterclipid>BB0022_01 1</masterclipid>
								<ismasterclip>FALSE</ismasterclip>
								<logginginfo>
									<scene/>
									<shottake/>
									<lognote/>
									<good>FALSE</good>
								</logginginfo>
								<labels>
									<label>Best Take</label>
									<label2/>
								</labels>
								<comments>
									<mastercomment1/>
									<mastercomment2/>
									<mastercomment3/>
									<mastercomment4/>
								</comments>
								<media>
									<video>
										<track>
											<clipitem id="BB0022_01 2">
												<name>BB0022_01</name>
												<duration>576865</duration>
												<rate>
													<ntsc>TRUE</ntsc>
													<timebase>24</timebase>
												</rate>
												<in>0</in>
												<out>576865</out>
												<start>0</start>
												<end>576865</end>
												<pixelaspectratio>Square</pixelaspectratio>
												<anamorphic>FALSE</anamorphic>
												<alphatype>none</alphatype>
												<masterclipid>BB0022_01 1</masterclipid>
												<syncoffset>0</syncoffset>
												<logginginfo>
													<scene/>
													<shottake/>
													<lognote/>
													<good>FALSE</good>
												</logginginfo>
												<labels>
													<label>Best Take</label>
													<label2/>
												</labels>
												<comments>
													<mastercomment1/>
													<mastercomment2/>
													<mastercomment3/>
													<mastercomment4/>
												</comments>
												<file id="BB0022_01 3">
													<name>BB0022_01.mov</name>
													<pathurl>file://localhost/Volumes/Share/Edit%20Share/00%20BREW%20DOGS%20S1/BD_00_San_Diego/052413/01_Video/C300/BB0022_01.mov</pathurl>
													<rate>
														<timebase>24</timebase>
														<ntsc>TRUE</ntsc>
													</rate>
													<duration>2976</duration>
													<metadata>
														<storage>QuickTime</storage>
														<key>com.apple.quicktime.creationdate</key>
														<size>24</size>
														<type>UTF8</type>
														<value>2013-05-24T14:02:45-0700</value>
													</metadata>
													<metadata>
														<storage>QuickTime</storage>
														<key>com.apple.finalcutstudio.media.history.uuid</key>
														<size>36</size>
														<type>UTF8</type>
														<value>F372A190-EE23-4631-B4EF-A8501CF1B51C</value>
													</metadata>
													<metadata>
														<storage>QuickTime</storage>
														<key>com.apple.finalcutstudio.media.uuid</key>
														<size>36</size>
														<type>UTF8</type>
														<value>284EF4EE-F372-42D8-BE6D-0AA5FA7F8989</value>
													</metadata>
													<metadata>
														<storage>QuickTime</storage>
														<key>com.apple.proapps.reel</key>
														<size>12</size>
														<type>UTF8</type>
														<value>B02_verified</value>
													</metadata>
													<metadata>
														<storage>QuickTime</storage>
														<key>com.apple.proapps.isGood</key>
														<size>4</size>
														<type>unsigned</type>
														<value>0</value>
													</metadata>
													<metadata>
														<storage>QuickTime</storage>
														<key>com.apple.proapps.clipID</key>
														<size>36</size>
														<type>UTF8</type>
														<value>0D3EC5EC-3664-0580-0000-8500025A0AE7</value>
													</metadata>
													<metadata>
														<storage>QuickTime</storage>
														<key>com.apple.proapps.originalFormat</key>
														<size>14</size>
														<type>UTF8</type>
														<value>Canon XF MPEG2</value>
													</metadata>
													<timecode>
														<rate>
															<timebase>24</timebase>
														</rate>
														<string>14:03:53:20</string>
														<frame>1215212</frame>
														<displayformat>NDF</displayformat>
														<source>source</source>
														<reel>
															<name>B02_verified</name>
														</reel>
													</timecode>
													<media>
														<video>
															<duration>2976</duration>
															<samplecharacteristics>
																<width>1920</width>
																<height>1080</height>
															</samplecharacteristics>
														</video>
														<audio>
															<samplecharacteristics>
																<samplerate>48000</samplerate>
																<depth>16</depth>
															</samplecharacteristics>
															<channelcount>1</channelcount>
															<layout>mono</layout>
															<audiochannel>
																<sourcechannel>1</sourcechannel>
																<channellabel>discrete</channellabel>
															</audiochannel>
														</audio>
														<audio>
															<samplecharacteristics>
																<samplerate>48000</samplerate>
																<depth>16</depth>
															</samplecharacteristics>
															<channelcount>1</channelcount>
															<layout>mono</layout>
															<audiochannel>
																<sourcechannel>2</sourcechannel>
																<channellabel>discrete</channellabel>
															</audiochannel>
														</audio>
													</media>
												</file>
												<sourcetrack>
													<mediatype>video</mediatype>
												</sourcetrack>
												<link>
													<linkclipref>BB0022_01 2</linkclipref>
													<mediatype>video</mediatype>
													<trackindex>1</trackindex>
													<clipindex>1</clipindex>
												</link>
												<link>
													<linkclipref>BB0022_01 4</linkclipref>
													<mediatype>audio</mediatype>
													<trackindex>1</trackindex>
													<clipindex>1</clipindex>
												</link>
												<link>
													<linkclipref>BB0022_01 5</linkclipref>
													<mediatype>audio</mediatype>
													<trackindex>2</trackindex>
													<clipindex>1</clipindex>
												</link>
												<fielddominance>none</fielddominance>
												<mediadelay>277294</mediadelay>
												<itemhistory>
													<uuid>A3A94DB2-3B55-4320-999B-29236C08DAF4</uuid>
												</itemhistory>
											</clipitem>
											<enabled>TRUE</enabled>
											<locked>FALSE</locked>
										</track>
									</video>
									<audio>
										<outputs>
											<group>
												<index>1</index>
												<numchannels>2</numchannels>
												<downmix>0</downmix>
												<channel>
													<index>1</index>
												</channel>
												<channel>
													<index>2</index>
												</channel>
											</group>
										</outputs>
										<in>-1</in>
										<out>-1</out>
										<track>
											<clipitem id="BB0022_01 4">
												<name>BB0022_01</name>
												<duration>576865</duration>
												<rate>
													<ntsc>TRUE</ntsc>
													<timebase>24</timebase>
												</rate>
												<in>0</in>
												<out>576865</out>
												<start>0</start>
												<end>576865</end>
												<subframeoffset>0</subframeoffset>
												<anamorphic>FALSE</anamorphic>
												<masterclipid>BB0022_01 1</masterclipid>
												<syncoffset>0</syncoffset>
												<logginginfo>
													<scene/>
													<shottake/>
													<lognote/>
													<good>FALSE</good>
												</logginginfo>
												<labels>
													<label>Best Take</label>
													<label2/>
												</labels>
												<comments>
													<mastercomment1/>
													<mastercomment2/>
													<mastercomment3/>
													<mastercomment4/>
												</comments>
												<file id="BB0022_01 3"/>
												<filter>
													<effect>
														<name>Audio Levels</name>
														<effectid>audiolevels</effectid>
														<effectcategory>audiolevels</effectcategory>
														<effecttype>audiolevels</effecttype>
														<mediatype>audio</mediatype>
														<parameter>
															<name>Level</name>
															<parameterid>level</parameterid>
															<valuemin>0</valuemin>
															<valuemax>3.98109</valuemax>
															<value>1</value>
														</parameter>
													</effect>
												</filter>
												<filter>
													<effect>
														<name>Audio Pan</name>
														<effectid>audiopan</effectid>
														<effectcategory>audiopan</effectcategory>
														<effecttype>audiopan</effecttype>
														<mediatype>audio</mediatype>
														<parameter>
															<name>Pan</name>
															<parameterid>pan</parameterid>
															<valuemin>-1</valuemin>
															<valuemax>1</valuemax>
															<value>0</value>
														</parameter>
													</effect>
												</filter>
												<sourcetrack>
													<mediatype>audio</mediatype>
													<trackindex>1</trackindex>
												</sourcetrack>
												<link>
													<linkclipref>BB0022_01 2</linkclipref>
													<mediatype>video</mediatype>
													<trackindex>1</trackindex>
													<clipindex>1</clipindex>
												</link>
												<link>
													<linkclipref>BB0022_01 4</linkclipref>
													<mediatype>audio</mediatype>
													<trackindex>1</trackindex>
													<clipindex>1</clipindex>
												</link>
												<link>
													<linkclipref>BB0022_01 5</linkclipref>
													<mediatype>audio</mediatype>
													<trackindex>2</trackindex>
													<clipindex>1</clipindex>
												</link>
												<mediadelay>277294</mediadelay>
												<itemhistory>
													<uuid>59ED461B-80C7-4925-9CED-0B75DDF42523</uuid>
												</itemhistory>
											</clipitem>
											<enabled>TRUE</enabled>
											<locked>FALSE</locked>
										</track>
										<track>
											<clipitem id="BB0022_01 5">
												<name>BB0022_01</name>
												<duration>576865</duration>
												<rate>
													<ntsc>TRUE</ntsc>
													<timebase>24</timebase>
												</rate>
												<in>0</in>
												<out>576865</out>
												<start>0</start>
												<end>576865</end>
												<subframeoffset>0</subframeoffset>
												<anamorphic>FALSE</anamorphic>
												<masterclipid>BB0022_01 1</masterclipid>
												<syncoffset>0</syncoffset>
												<logginginfo>
													<scene/>
													<shottake/>
													<lognote/>
													<good>FALSE</good>
												</logginginfo>
												<labels>
													<label>Best Take</label>
													<label2/>
												</labels>
												<comments>
													<mastercomment1/>
													<mastercomment2/>
													<mastercomment3/>
													<mastercomment4/>
												</comments>
												<file id="BB0022_01 3"/>
												<filter>
													<effect>
														<name>Audio Levels</name>
														<effectid>audiolevels</effectid>
														<effectcategory>audiolevels</effectcategory>
														<effecttype>audiolevels</effecttype>
														<mediatype>audio</mediatype>
														<parameter>
															<name>Level</name>
															<parameterid>level</parameterid>
															<valuemin>0</valuemin>
															<valuemax>3.98109</valuemax>
															<value>1</value>
														</parameter>
													</effect>
												</filter>
												<filter>
													<effect>
														<name>Audio Pan</name>
														<effectid>audiopan</effectid>
														<effectcategory>audiopan</effectcategory>
														<effecttype>audiopan</effecttype>
														<mediatype>audio</mediatype>
														<parameter>
															<name>Pan</name>
															<parameterid>pan</parameterid>
															<valuemin>-1</valuemin>
															<valuemax>1</valuemax>
															<value>0</value>
														</parameter>
													</effect>
												</filter>
												<sourcetrack>
													<mediatype>audio</mediatype>
													<trackindex>2</trackindex>
												</sourcetrack>
												<link>
													<linkclipref>BB0022_01 2</linkclipref>
													<mediatype>video</mediatype>
													<trackindex>1</trackindex>
													<clipindex>1</clipindex>
												</link>
												<link>
													<linkclipref>BB0022_01 4</linkclipref>
													<mediatype>audio</mediatype>
													<trackindex>1</trackindex>
													<clipindex>1</clipindex>
												</link>
												<link>
													<linkclipref>BB0022_01 5</linkclipref>
													<mediatype>audio</mediatype>
													<trackindex>2</trackindex>
													<clipindex>1</clipindex>
												</link>
												<mediadelay>277294</mediadelay>
												<itemhistory>
													<uuid>24DF49D3-D989-4E7C-BEB6-11227DFC8A1E</uuid>
												</itemhistory>
											</clipitem>
											<enabled>TRUE</enabled>
											<locked>FALSE</locked>
										</track>
										<filter>
											<effect>
												<name>Audio Levels</name>
												<effectid>audiolevels</effectid>
												<effectcategory>audiolevels</effectcategory>
												<effecttype>audiolevels</effecttype>
												<mediatype>audio</mediatype>
												<parameter>
													<name>Level</name>
													<parameterid>level</parameterid>
													<valuemin>0</valuemin>
													<valuemax>3.98109</valuemax>
													<value>1</value>
												</parameter>
											</effect>
										</filter>
									</audio>
								</media>
							</clip>
						</angle>
						<angle>
							<clip id="BB0023_01 ">
								<uuid>D5CB6E1A-C922-489D-8174-0BCBBAFB5EE5</uuid>
								<updatebehavior>add</updatebehavior>
								<name>BB0023_01</name>
								<duration>576865</duration>
								<rate>
									<ntsc>TRUE</ntsc>
									<timebase>24</timebase>
								</rate>
								<in>-1</in>
								<out>-1</out>
								<anamorphic>FALSE</anamorphic>
								<masterclipid>BB0023_01 1</masterclipid>
								<ismasterclip>FALSE</ismasterclip>
								<logginginfo>
									<scene/>
									<shottake/>
									<lognote/>
									<good>FALSE</good>
								</logginginfo>
								<labels>
									<label>Best Take</label>
									<label2/>
								</labels>
								<comments>
									<mastercomment1/>
									<mastercomment2/>
									<mastercomment3/>
									<mastercomment4/>
								</comments>
								<media>
									<video>
										<track>
											<clipitem id="BB0023_01 2">
												<name>BB0023_01</name>
												<duration>576865</duration>
												<rate>
													<ntsc>TRUE</ntsc>
													<timebase>24</timebase>
												</rate>
												<in>0</in>
												<out>576865</out>
												<start>0</start>
												<end>576865</end>
												<pixelaspectratio>Square</pixelaspectratio>
												<anamorphic>FALSE</anamorphic>
												<alphatype>none</alphatype>
												<masterclipid>BB0023_01 1</masterclipid>
												<syncoffset>0</syncoffset>
												<logginginfo>
													<scene/>
													<shottake/>
													<lognote/>
													<good>FALSE</good>
												</logginginfo>
												<labels>
													<label>Best Take</label>
													<label2/>
												</labels>
												<comments>
													<mastercomment1/>
													<mastercomment2/>
													<mastercomment3/>
													<mastercomment4/>
												</comments>
												<file id="BB0023_01 3">
													<name>BB0023_01.mov</name>
													<pathurl>file://localhost/Volumes/Share/Edit%20Share/00%20BREW%20DOGS%20S1/BD_00_San_Diego/052413/01_Video/C300/BB0023_01.mov</pathurl>
													<rate>
														<timebase>24</timebase>
														<ntsc>TRUE</ntsc>
													</rate>
													<duration>3228</duration>
													<metadata>
														<storage>QuickTime</storage>
														<key>com.apple.quicktime.creationdate</key>
														<size>24</size>
														<type>UTF8</type>
														<value>2013-05-24T14:09:32-0700</value>
													</metadata>
													<metadata>
														<storage>QuickTime</storage>
														<key>com.apple.finalcutstudio.media.history.uuid</key>
														<size>36</size>
														<type>UTF8</type>
														<value>551CA6E6-F2E0-4C21-A991-A5AD9B826677</value>
													</metadata>
													<metadata>
														<storage>QuickTime</storage>
														<key>com.apple.finalcutstudio.media.uuid</key>
														<size>36</size>
														<type>UTF8</type>
														<value>43D0DF5C-F9ED-434B-A730-6A98A11E0A08</value>
													</metadata>
													<metadata>
														<storage>QuickTime</storage>
														<key>com.apple.proapps.reel</key>
														<size>12</size>
														<type>UTF8</type>
														<value>B02_verified</value>
													</metadata>
													<metadata>
														<storage>QuickTime</storage>
														<key>com.apple.proapps.isGood</key>
														<size>4</size>
														<type>unsigned</type>
														<value>0</value>
													</metadata>
													<metadata>
														<storage>QuickTime</storage>
														<key>com.apple.proapps.clipID</key>
														<size>36</size>
														<type>UTF8</type>
														<value>0D3F2550-3664-0580-0000-8500025A0AE7</value>
													</metadata>
													<metadata>
														<storage>QuickTime</storage>
														<key>com.apple.proapps.originalFormat</key>
														<size>14</size>
														<type>UTF8</type>
														<value>Canon XF MPEG2</value>
													</metadata>
													<timecode>
														<rate>
															<timebase>24</timebase>
														</rate>
														<string>14:10:40:12</string>
														<frame>1224972</frame>
														<displayformat>NDF</displayformat>
														<source>source</source>
														<reel>
															<name>B02_verified</name>
														</reel>
													</timecode>
													<media>
														<video>
															<duration>3228</duration>
															<samplecharacteristics>
																<width>1920</width>
																<height>1080</height>
															</samplecharacteristics>
														</video>
														<audio>
															<samplecharacteristics>
																<samplerate>48000</samplerate>
																<depth>16</depth>
															</samplecharacteristics>
															<channelcount>1</channelcount>
															<layout>mono</layout>
															<audiochannel>
																<sourcechannel>1</sourcechannel>
																<channellabel>discrete</channellabel>
															</audiochannel>
														</audio>
														<audio>
															<samplecharacteristics>
																<samplerate>48000</samplerate>
																<depth>16</depth>
															</samplecharacteristics>
															<channelcount>1</channelcount>
															<layout>mono</layout>
															<audiochannel>
																<sourcechannel>2</sourcechannel>
																<channellabel>discrete</channellabel>
															</audiochannel>
														</audio>
													</media>
												</file>
												<sourcetrack>
													<mediatype>video</mediatype>
												</sourcetrack>
												<link>
													<linkclipref>BB0023_01 2</linkclipref>
													<mediatype>video</mediatype>
													<trackindex>1</trackindex>
													<clipindex>1</clipindex>
												</link>
												<link>
													<linkclipref>BB0023_01 4</linkclipref>
													<mediatype>audio</mediatype>
													<trackindex>1</trackindex>
													<clipindex>1</clipindex>
												</link>
												<link>
													<linkclipref>BB0023_01 5</linkclipref>
													<mediatype>audio</mediatype>
													<trackindex>2</trackindex>
													<clipindex>1</clipindex>
												</link>
												<fielddominance>none</fielddominance>
												<mediadelay>287054</mediadelay>
												<itemhistory>
													<uuid>66D27DF5-442D-48DB-91FF-FCF63ACF7870</uuid>
												</itemhistory>
											</clipitem>
											<enabled>TRUE</enabled>
											<locked>FALSE</locked>
										</track>
									</video>
									<audio>
										<outputs>
											<group>
												<index>1</index>
												<numchannels>2</numchannels>
												<downmix>0</downmix>
												<channel>
													<index>1</index>
												</channel>
												<channel>
													<index>2</index>
												</channel>
											</group>
										</outputs>
										<in>-1</in>
										<out>-1</out>
										<track>
											<clipitem id="BB0023_01 4">
												<name>BB0023_01</name>
												<duration>576865</duration>
												<rate>
													<ntsc>TRUE</ntsc>
													<timebase>24</timebase>
												</rate>
												<in>0</in>
												<out>576865</out>
												<start>0</start>
												<end>576865</end>
												<subframeoffset>0</subframeoffset>
												<anamorphic>FALSE</anamorphic>
												<masterclipid>BB0023_01 1</masterclipid>
												<syncoffset>0</syncoffset>
												<logginginfo>
													<scene/>
													<shottake/>
													<lognote/>
													<good>FALSE</good>
												</logginginfo>
												<labels>
													<label>Best Take</label>
													<label2/>
												</labels>
												<comments>
													<mastercomment1/>
													<mastercomment2/>
													<mastercomment3/>
													<mastercomment4/>
												</comments>
												<file id="BB0023_01 3"/>
												<filter>
													<effect>
														<name>Audio Levels</name>
														<effectid>audiolevels</effectid>
														<effectcategory>audiolevels</effectcategory>
														<effecttype>audiolevels</effecttype>
														<mediatype>audio</mediatype>
														<parameter>
															<name>Level</name>
															<parameterid>level</parameterid>
															<valuemin>0</valuemin>
															<valuemax>3.98109</valuemax>
															<value>1</value>
														</parameter>
													</effect>
												</filter>
												<filter>
													<effect>
														<name>Audio Pan</name>
														<effectid>audiopan</effectid>
														<effectcategory>audiopan</effectcategory>
														<effecttype>audiopan</effecttype>
														<mediatype>audio</mediatype>
														<parameter>
															<name>Pan</name>
															<parameterid>pan</parameterid>
															<valuemin>-1</valuemin>
															<valuemax>1</valuemax>
															<value>0</value>
														</parameter>
													</effect>
												</filter>
												<sourcetrack>
													<mediatype>audio</mediatype>
													<trackindex>1</trackindex>
												</sourcetrack>
												<link>
													<linkclipref>BB0023_01 2</linkclipref>
													<mediatype>video</mediatype>
													<trackindex>1</trackindex>
													<clipindex>1</clipindex>
												</link>
												<link>
													<linkclipref>BB0023_01 4</linkclipref>
													<mediatype>audio</mediatype>
													<trackindex>1</trackindex>
													<clipindex>1</clipindex>
												</link>
												<link>
													<linkclipref>BB0023_01 5</linkclipref>
													<mediatype>audio</mediatype>
													<trackindex>2</trackindex>
													<clipindex>1</clipindex>
												</link>
												<mediadelay>287054</mediadelay>
												<itemhistory>
													<uuid>11EEF950-FC32-437F-A4DD-29B7DC001475</uuid>
												</itemhistory>
											</clipitem>
											<enabled>TRUE</enabled>
											<locked>FALSE</locked>
										</track>
										<track>
											<clipitem id="BB0023_01 5">
												<name>BB0023_01</name>
												<duration>576865</duration>
												<rate>
													<ntsc>TRUE</ntsc>
													<timebase>24</timebase>
												</rate>
												<in>0</in>
												<out>576865</out>
												<start>0</start>
												<end>576865</end>
												<subframeoffset>0</subframeoffset>
												<anamorphic>FALSE</anamorphic>
												<masterclipid>BB0023_01 1</masterclipid>
												<syncoffset>0</syncoffset>
												<logginginfo>
													<scene/>
													<shottake/>
													<lognote/>
													<good>FALSE</good>
												</logginginfo>
												<labels>
													<label>Best Take</label>
													<label2/>
												</labels>
												<comments>
													<mastercomment1/>
													<mastercomment2/>
													<mastercomment3/>
													<mastercomment4/>
												</comments>
												<file id="BB0023_01 3"/>
												<filter>
													<effect>
														<name>Audio Levels</name>
														<effectid>audiolevels</effectid>
														<effectcategory>audiolevels</effectcategory>
														<effecttype>audiolevels</effecttype>
														<mediatype>audio</mediatype>
														<parameter>
															<name>Level</name>
															<parameterid>level</parameterid>
															<valuemin>0</valuemin>
															<valuemax>3.98109</valuemax>
															<value>1</value>
														</parameter>
													</effect>
												</filter>
												<filter>
													<effect>
														<name>Audio Pan</name>
														<effectid>audiopan</effectid>
														<effectcategory>audiopan</effectcategory>
														<effecttype>audiopan</effecttype>
														<mediatype>audio</mediatype>
														<parameter>
															<name>Pan</name>
															<parameterid>pan</parameterid>
															<valuemin>-1</valuemin>
															<valuemax>1</valuemax>
															<value>0</value>
														</parameter>
													</effect>
												</filter>
												<sourcetrack>
													<mediatype>audio</mediatype>
													<trackindex>2</trackindex>
												</sourcetrack>
												<link>
													<linkclipref>BB0023_01 2</linkclipref>
													<mediatype>video</mediatype>
													<trackindex>1</trackindex>
													<clipindex>1</clipindex>
												</link>
												<link>
													<linkclipref>BB0023_01 4</linkclipref>
													<mediatype>audio</mediatype>
													<trackindex>1</trackindex>
													<clipindex>1</clipindex>
												</link>
												<link>
													<linkclipref>BB0023_01 5</linkclipref>
													<mediatype>audio</mediatype>
													<trackindex>2</trackindex>
													<clipindex>1</clipindex>
												</link>
												<mediadelay>287054</mediadelay>
												<itemhistory>
													<uuid>63CB1FEA-2CA5-4EE2-BE2B-DEBD10BF7B92</uuid>
												</itemhistory>
											</clipitem>
											<enabled>TRUE</enabled>
											<locked>FALSE</locked>
										</track>
										<filter>
											<effect>
												<name>Audio Levels</name>
												<effectid>audiolevels</effectid>
												<effectcategory>audiolevels</effectcategory>
												<effecttype>audiolevels</effecttype>
												<mediatype>audio</mediatype>
												<parameter>
													<name>Level</name>
													<parameterid>level</parameterid>
													<valuemin>0</valuemin>
													<valuemax>3.98109</valuemax>
													<value>1</value>
												</parameter>
											</effect>
										</filter>
									</audio>
								</media>
							</clip>
						</angle>
						<angle>
							<clip id="BB0024_01 ">
								<uuid>85452538-1F4B-491B-B103-BACF2C27129A</uuid>
								<updatebehavior>add</updatebehavior>
								<name>BB0024_01</name>
								<duration>576865</duration>
								<rate>
									<ntsc>TRUE</ntsc>
									<timebase>24</timebase>
								</rate>
								<in>-1</in>
								<out>-1</out>
								<anamorphic>FALSE</anamorphic>
								<masterclipid>BB0024_01 1</masterclipid>
								<ismasterclip>FALSE</ismasterclip>
								<logginginfo>
									<scene/>
									<shottake/>
									<lognote/>
									<good>FALSE</good>
								</logginginfo>
								<labels>
									<label>Best Take</label>
									<label2/>
								</labels>
								<comments>
									<mastercomment1/>
									<mastercomment2/>
									<mastercomment3/>
									<mastercomment4/>
								</comments>
								<media>
									<video>
										<track>
											<clipitem id="BB0024_01 2">
												<name>BB0024_01</name>
												<duration>576865</duration>
												<rate>
													<ntsc>TRUE</ntsc>
													<timebase>24</timebase>
												</rate>
												<in>0</in>
												<out>576865</out>
												<start>0</start>
												<end>576865</end>
												<pixelaspectratio>Square</pixelaspectratio>
												<anamorphic>FALSE</anamorphic>
												<alphatype>none</alphatype>
												<masterclipid>BB0024_01 1</masterclipid>
												<syncoffset>0</syncoffset>
												<logginginfo>
													<scene/>
													<shottake/>
													<lognote/>
													<good>FALSE</good>
												</logginginfo>
												<labels>
													<label>Best Take</label>
													<label2/>
												</labels>
												<comments>
													<mastercomment1/>
													<mastercomment2/>
													<mastercomment3/>
													<mastercomment4/>
												</comments>
												<file id="BB0024_01 3">
													<name>BB0024_01.mov</name>
													<pathurl>file://localhost/Volumes/Share/Edit%20Share/00%20BREW%20DOGS%20S1/BD_00_San_Diego/052413/01_Video/C300/BB0024_01.mov</pathurl>
													<rate>
														<timebase>24</timebase>
														<ntsc>TRUE</ntsc>
													</rate>
													<duration>2460</duration>
													<metadata>
														<storage>QuickTime</storage>
														<key>com.apple.quicktime.creationdate</key>
														<size>24</size>
														<type>UTF8</type>
														<value>2013-05-24T14:14:48-0700</value>
													</metadata>
													<metadata>
														<storage>QuickTime</storage>
														<key>com.apple.finalcutstudio.media.history.uuid</key>
														<size>36</size>
														<type>UTF8</type>
														<value>89FB2733-9040-4AA0-A0AF-A45A7062F9CB</value>
													</metadata>
													<metadata>
														<storage>QuickTime</storage>
														<key>com.apple.finalcutstudio.media.uuid</key>
														<size>36</size>
														<type>UTF8</type>
														<value>8312602B-B9AC-47FC-A79F-5E63E9A5577D</value>
													</metadata>
													<metadata>
														<storage>QuickTime</storage>
														<key>com.apple.proapps.reel</key>
														<size>12</size>
														<type>UTF8</type>
														<value>B02_verified</value>
													</metadata>
													<metadata>
														<storage>QuickTime</storage>
														<key>com.apple.proapps.isGood</key>
														<size>4</size>
														<type>unsigned</type>
														<value>0</value>
													</metadata>
													<metadata>
														<storage>QuickTime</storage>
														<key>com.apple.proapps.clipID</key>
														<size>36</size>
														<type>UTF8</type>
														<value>0D3F6F60-3664-0580-0000-8500025A0AE7</value>
													</metadata>
													<metadata>
														<storage>QuickTime</storage>
														<key>com.apple.proapps.originalFormat</key>
														<size>14</size>
														<type>UTF8</type>
														<value>Canon XF MPEG2</value>
													</metadata>
													<timecode>
														<rate>
															<timebase>24</timebase>
														</rate>
														<string>14:15:55:20</string>
														<frame>1232540</frame>
														<displayformat>NDF</displayformat>
														<source>source</source>
														<reel>
															<name>B02_verified</name>
														</reel>
													</timecode>
													<media>
														<video>
															<duration>2460</duration>
															<samplecharacteristics>
																<width>1920</width>
																<height>1080</height>
															</samplecharacteristics>
														</video>
														<audio>
															<samplecharacteristics>
																<samplerate>48000</samplerate>
																<depth>16</depth>
															</samplecharacteristics>
															<channelcount>1</channelcount>
															<layout>mono</layout>
															<audiochannel>
																<sourcechannel>1</sourcechannel>
																<channellabel>discrete</channellabel>
															</audiochannel>
														</audio>
														<audio>
															<samplecharacteristics>
																<samplerate>48000</samplerate>
																<depth>16</depth>
															</samplecharacteristics>
															<channelcount>1</channelcount>
															<layout>mono</layout>
															<audiochannel>
																<sourcechannel>2</sourcechannel>
																<channellabel>discrete</channellabel>
															</audiochannel>
														</audio>
													</media>
												</file>
												<sourcetrack>
													<mediatype>video</mediatype>
												</sourcetrack>
												<link>
													<linkclipref>BB0024_01 2</linkclipref>
													<mediatype>video</mediatype>
													<trackindex>1</trackindex>
													<clipindex>1</clipindex>
												</link>
												<link>
													<linkclipref>BB0024_01 4</linkclipref>
													<mediatype>audio</mediatype>
													<trackindex>1</trackindex>
													<clipindex>1</clipindex>
												</link>
												<link>
													<linkclipref>BB0024_01 5</linkclipref>
													<mediatype>audio</mediatype>
													<trackindex>2</trackindex>
													<clipindex>1</clipindex>
												</link>
												<fielddominance>none</fielddominance>
												<mediadelay>294622</mediadelay>
												<itemhistory>
													<uuid>3DEBAC28-41B6-4951-9F2C-B2C6AE7CC374</uuid>
												</itemhistory>
											</clipitem>
											<enabled>TRUE</enabled>
											<locked>FALSE</locked>
										</track>
									</video>
									<audio>
										<outputs>
											<group>
												<index>1</index>
												<numchannels>2</numchannels>
												<downmix>0</downmix>
												<channel>
													<index>1</index>
												</channel>
												<channel>
													<index>2</index>
												</channel>
											</group>
										</outputs>
										<in>-1</in>
										<out>-1</out>
										<track>
											<clipitem id="BB0024_01 4">
												<name>BB0024_01</name>
												<duration>576865</duration>
												<rate>
													<ntsc>TRUE</ntsc>
													<timebase>24</timebase>
												</rate>
												<in>0</in>
												<out>576865</out>
												<start>0</start>
												<end>576865</end>
												<subframeoffset>0</subframeoffset>
												<anamorphic>FALSE</anamorphic>
												<masterclipid>BB0024_01 1</masterclipid>
												<syncoffset>0</syncoffset>
												<logginginfo>
													<scene/>
													<shottake/>
													<lognote/>
													<good>FALSE</good>
												</logginginfo>
												<labels>
													<label>Best Take</label>
													<label2/>
												</labels>
												<comments>
													<mastercomment1/>
													<mastercomment2/>
													<mastercomment3/>
													<mastercomment4/>
												</comments>
												<file id="BB0024_01 3"/>
												<filter>
													<effect>
														<name>Audio Levels</name>
														<effectid>audiolevels</effectid>
														<effectcategory>audiolevels</effectcategory>
														<effecttype>audiolevels</effecttype>
														<mediatype>audio</mediatype>
														<parameter>
															<name>Level</name>
															<parameterid>level</parameterid>
															<valuemin>0</valuemin>
															<valuemax>3.98109</valuemax>
															<value>1</value>
														</parameter>
													</effect>
												</filter>
												<filter>
													<effect>
														<name>Audio Pan</name>
														<effectid>audiopan</effectid>
														<effectcategory>audiopan</effectcategory>
														<effecttype>audiopan</effecttype>
														<mediatype>audio</mediatype>
														<parameter>
															<name>Pan</name>
															<parameterid>pan</parameterid>
															<valuemin>-1</valuemin>
															<valuemax>1</valuemax>
															<value>0</value>
														</parameter>
													</effect>
												</filter>
												<sourcetrack>
													<mediatype>audio</mediatype>
													<trackindex>1</trackindex>
												</sourcetrack>
												<link>
													<linkclipref>BB0024_01 2</linkclipref>
													<mediatype>video</mediatype>
													<trackindex>1</trackindex>
													<clipindex>1</clipindex>
												</link>
												<link>
													<linkclipref>BB0024_01 4</linkclipref>
													<mediatype>audio</mediatype>
													<trackindex>1</trackindex>
													<clipindex>1</clipindex>
												</link>
												<link>
													<linkclipref>BB0024_01 5</linkclipref>
													<mediatype>audio</mediatype>
													<trackindex>2</trackindex>
													<clipindex>1</clipindex>
												</link>
												<mediadelay>294622</mediadelay>
												<itemhistory>
													<uuid>68FAB7D9-3923-48F4-848F-2CE73491D701</uuid>
												</itemhistory>
											</clipitem>
											<enabled>TRUE</enabled>
											<locked>FALSE</locked>
										</track>
										<track>
											<clipitem id="BB0024_01 5">
												<name>BB0024_01</name>
												<duration>576865</duration>
												<rate>
													<ntsc>TRUE</ntsc>
													<timebase>24</timebase>
												</rate>
												<in>0</in>
												<out>576865</out>
												<start>0</start>
												<end>576865</end>
												<subframeoffset>0</subframeoffset>
												<anamorphic>FALSE</anamorphic>
												<masterclipid>BB0024_01 1</masterclipid>
												<syncoffset>0</syncoffset>
												<logginginfo>
													<scene/>
													<shottake/>
													<lognote/>
													<good>FALSE</good>
												</logginginfo>
												<labels>
													<label>Best Take</label>
													<label2/>
												</labels>
												<comments>
													<mastercomment1/>
													<mastercomment2/>
													<mastercomment3/>
													<mastercomment4/>
												</comments>
												<file id="BB0024_01 3"/>
												<filter>
													<effect>
														<name>Audio Levels</name>
														<effectid>audiolevels</effectid>
														<effectcategory>audiolevels</effectcategory>
														<effecttype>audiolevels</effecttype>
														<mediatype>audio</mediatype>
														<parameter>
															<name>Level</name>
															<parameterid>level</parameterid>
															<valuemin>0</valuemin>
															<valuemax>3.98109</valuemax>
															<value>1</value>
														</parameter>
													</effect>
												</filter>
												<filter>
													<effect>
														<name>Audio Pan</name>
														<effectid>audiopan</effectid>
														<effectcategory>audiopan</effectcategory>
														<effecttype>audiopan</effecttype>
														<mediatype>audio</mediatype>
														<parameter>
															<name>Pan</name>
															<parameterid>pan</parameterid>
															<valuemin>-1</valuemin>
															<valuemax>1</valuemax>
															<value>0</value>
														</parameter>
													</effect>
												</filter>
												<sourcetrack>
													<mediatype>audio</mediatype>
													<trackindex>2</trackindex>
												</sourcetrack>
												<link>
													<linkclipref>BB0024_01 2</linkclipref>
													<mediatype>video</mediatype>
													<trackindex>1</trackindex>
													<clipindex>1</clipindex>
												</link>
												<link>
													<linkclipref>BB0024_01 4</linkclipref>
													<mediatype>audio</mediatype>
													<trackindex>1</trackindex>
													<clipindex>1</clipindex>
												</link>
												<link>
													<linkclipref>BB0024_01 5</linkclipref>
													<mediatype>audio</mediatype>
													<trackindex>2</trackindex>
													<clipindex>1</clipindex>
												</link>
												<mediadelay>294622</mediadelay>
												<itemhistory>
													<uuid>7DB16D94-984B-435D-A94A-25C351031413</uuid>
												</itemhistory>
											</clipitem>
											<enabled>TRUE</enabled>
											<locked>FALSE</locked>
										</track>
										<filter>
											<effect>
												<name>Audio Levels</name>
												<effectid>audiolevels</effectid>
												<effectcategory>audiolevels</effectcategory>
												<effecttype>audiolevels</effecttype>
												<mediatype>audio</mediatype>
												<parameter>
													<name>Level</name>
													<parameterid>level</parameterid>
													<valuemin>0</valuemin>
													<valuemax>3.98109</valuemax>
													<value>1</value>
												</parameter>
											</effect>
										</filter>
									</audio>
								</media>
							</clip>
						</angle>
						<angle>
							<clip id="BB0025_01 ">
								<uuid>E6966ED4-A9F9-4831-97E4-7929C4156475</uuid>
								<updatebehavior>add</updatebehavior>
								<name>BB0025_01</name>
								<duration>576865</duration>
								<rate>
									<ntsc>TRUE</ntsc>
									<timebase>24</timebase>
								</rate>
								<in>-1</in>
								<out>-1</out>
								<anamorphic>FALSE</anamorphic>
								<masterclipid>BB0025_01 1</masterclipid>
								<ismasterclip>FALSE</ismasterclip>
								<logginginfo>
									<scene/>
									<shottake/>
									<lognote/>
									<good>FALSE</good>
								</logginginfo>
								<labels>
									<label>Best Take</label>
									<label2/>
								</labels>
								<comments>
									<mastercomment1/>
									<mastercomment2/>
									<mastercomment3/>
									<mastercomment4/>
								</comments>
								<media>
									<video>
										<track>
											<clipitem id="BB0025_01 2">
												<name>BB0025_01</name>
												<duration>576865</duration>
												<rate>
													<ntsc>TRUE</ntsc>
													<timebase>24</timebase>
												</rate>
												<in>0</in>
												<out>576865</out>
												<start>0</start>
												<end>576865</end>
												<pixelaspectratio>Square</pixelaspectratio>
												<anamorphic>FALSE</anamorphic>
												<alphatype>none</alphatype>
												<masterclipid>BB0025_01 1</masterclipid>
												<syncoffset>0</syncoffset>
												<logginginfo>
													<scene/>
													<shottake/>
													<lognote/>
													<good>FALSE</good>
												</logginginfo>
												<labels>
													<label>Best Take</label>
													<label2/>
												</labels>
												<comments>
													<mastercomment1/>
													<mastercomment2/>
													<mastercomment3/>
													<mastercomment4/>
												</comments>
												<file id="BB0025_01 3">
													<name>BB0025_01.mov</name>
													<pathurl>file://localhost/Volumes/Share/Edit%20Share/00%20BREW%20DOGS%20S1/BD_00_San_Diego/052413/01_Video/C300/BB0025_01.mov</pathurl>
													<rate>
														<timebase>24</timebase>
														<ntsc>TRUE</ntsc>
													</rate>
													<duration>120</duration>
													<metadata>
														<storage>QuickTime</storage>
														<key>com.apple.quicktime.creationdate</key>
														<size>24</size>
														<type>UTF8</type>
														<value>2013-05-24T17:02:26-0700</value>
													</metadata>
													<metadata>
														<storage>QuickTime</storage>
														<key>com.apple.finalcutstudio.media.history.uuid</key>
														<size>36</size>
														<type>UTF8</type>
														<value>81F2846E-A16B-47FE-B64A-9FB56D4BD12F</value>
													</metadata>
													<metadata>
														<storage>QuickTime</storage>
														<key>com.apple.finalcutstudio.media.uuid</key>
														<size>36</size>
														<type>UTF8</type>
														<value>C8C689B0-CD4F-4014-95AD-11B87A1AD420</value>
													</metadata>
													<metadata>
														<storage>QuickTime</storage>
														<key>com.apple.proapps.reel</key>
														<size>12</size>
														<type>UTF8</type>
														<value>B02_verified</value>
													</metadata>
													<metadata>
														<storage>QuickTime</storage>
														<key>com.apple.proapps.isGood</key>
														<size>4</size>
														<type>unsigned</type>
														<value>0</value>
													</metadata>
													<metadata>
														<storage>QuickTime</storage>
														<key>com.apple.proapps.clipID</key>
														<size>36</size>
														<type>UTF8</type>
														<value>0D48A4B8-3664-0580-0000-8500025A0AE7</value>
													</metadata>
													<metadata>
														<storage>QuickTime</storage>
														<key>com.apple.proapps.originalFormat</key>
														<size>14</size>
														<type>UTF8</type>
														<value>Canon XF MPEG2</value>
													</metadata>
													<timecode>
														<rate>
															<timebase>24</timebase>
														</rate>
														<string>17:03:24:11</string>
														<frame>1473707</frame>
														<displayformat>NDF</displayformat>
														<source>source</source>
														<reel>
															<name>B02_verified</name>
														</reel>
													</timecode>
													<media>
														<video>
															<duration>120</duration>
															<samplecharacteristics>
																<width>1920</width>
																<height>1080</height>
															</samplecharacteristics>
														</video>
														<audio>
															<samplecharacteristics>
																<samplerate>48000</samplerate>
																<depth>16</depth>
															</samplecharacteristics>
															<channelcount>1</channelcount>
															<layout>mono</layout>
															<audiochannel>
																<sourcechannel>1</sourcechannel>
																<channellabel>discrete</channellabel>
															</audiochannel>
														</audio>
														<audio>
															<samplecharacteristics>
																<samplerate>48000</samplerate>
																<depth>16</depth>
															</samplecharacteristics>
															<channelcount>1</channelcount>
															<layout>mono</layout>
															<audiochannel>
																<sourcechannel>2</sourcechannel>
																<channellabel>discrete</channellabel>
															</audiochannel>
														</audio>
													</media>
												</file>
												<sourcetrack>
													<mediatype>video</mediatype>
												</sourcetrack>
												<link>
													<linkclipref>BB0025_01 2</linkclipref>
													<mediatype>video</mediatype>
													<trackindex>1</trackindex>
													<clipindex>1</clipindex>
												</link>
												<link>
													<linkclipref>BB0025_01 4</linkclipref>
													<mediatype>audio</mediatype>
													<trackindex>1</trackindex>
													<clipindex>1</clipindex>
												</link>
												<link>
													<linkclipref>BB0025_01 5</linkclipref>
													<mediatype>audio</mediatype>
													<trackindex>2</trackindex>
													<clipindex>1</clipindex>
												</link>
												<fielddominance>none</fielddominance>
												<mediadelay>535789</mediadelay>
												<itemhistory>
													<uuid>77AAC29E-542C-4A81-93E5-2F6FA6EF7A2A</uuid>
												</itemhistory>
											</clipitem>
											<enabled>TRUE</enabled>
											<locked>FALSE</locked>
										</track>
									</video>
									<audio>
										<outputs>
											<group>
												<index>1</index>
												<numchannels>2</numchannels>
												<downmix>0</downmix>
												<channel>
													<index>1</index>
												</channel>
												<channel>
													<index>2</index>
												</channel>
											</group>
										</outputs>
										<in>-1</in>
										<out>-1</out>
										<track>
											<clipitem id="BB0025_01 4">
												<name>BB0025_01</name>
												<duration>576865</duration>
												<rate>
													<ntsc>TRUE</ntsc>
													<timebase>24</timebase>
												</rate>
												<in>0</in>
												<out>576865</out>
												<start>0</start>
												<end>576865</end>
												<subframeoffset>0</subframeoffset>
												<anamorphic>FALSE</anamorphic>
												<masterclipid>BB0025_01 1</masterclipid>
												<syncoffset>0</syncoffset>
												<logginginfo>
													<scene/>
													<shottake/>
													<lognote/>
													<good>FALSE</good>
												</logginginfo>
												<labels>
													<label>Best Take</label>
													<label2/>
												</labels>
												<comments>
													<mastercomment1/>
													<mastercomment2/>
													<mastercomment3/>
													<mastercomment4/>
												</comments>
												<file id="BB0025_01 3"/>
												<filter>
													<effect>
														<name>Audio Levels</name>
														<effectid>audiolevels</effectid>
														<effectcategory>audiolevels</effectcategory>
														<effecttype>audiolevels</effecttype>
														<mediatype>audio</mediatype>
														<parameter>
															<name>Level</name>
															<parameterid>level</parameterid>
															<valuemin>0</valuemin>
															<valuemax>3.98109</valuemax>
															<value>1</value>
														</parameter>
													</effect>
												</filter>
												<filter>
													<effect>
														<name>Audio Pan</name>
														<effectid>audiopan</effectid>
														<effectcategory>audiopan</effectcategory>
														<effecttype>audiopan</effecttype>
														<mediatype>audio</mediatype>
														<parameter>
															<name>Pan</name>
															<parameterid>pan</parameterid>
															<valuemin>-1</valuemin>
															<valuemax>1</valuemax>
															<value>0</value>
														</parameter>
													</effect>
												</filter>
												<sourcetrack>
													<mediatype>audio</mediatype>
													<trackindex>1</trackindex>
												</sourcetrack>
												<link>
													<linkclipref>BB0025_01 2</linkclipref>
													<mediatype>video</mediatype>
													<trackindex>1</trackindex>
													<clipindex>1</clipindex>
												</link>
												<link>
													<linkclipref>BB0025_01 4</linkclipref>
													<mediatype>audio</mediatype>
													<trackindex>1</trackindex>
													<clipindex>1</clipindex>
												</link>
												<link>
													<linkclipref>BB0025_01 5</linkclipref>
													<mediatype>audio</mediatype>
													<trackindex>2</trackindex>
													<clipindex>1</clipindex>
												</link>
												<mediadelay>535789</mediadelay>
												<itemhistory>
													<uuid>92A80D2C-3C71-4A2C-9A7A-09641D50335C</uuid>
												</itemhistory>
											</clipitem>
											<enabled>TRUE</enabled>
											<locked>FALSE</locked>
										</track>
										<track>
											<clipitem id="BB0025_01 5">
												<name>BB0025_01</name>
												<duration>576865</duration>
												<rate>
													<ntsc>TRUE</ntsc>
													<timebase>24</timebase>
												</rate>
												<in>0</in>
												<out>576865</out>
												<start>0</start>
												<end>576865</end>
												<subframeoffset>0</subframeoffset>
												<anamorphic>FALSE</anamorphic>
												<masterclipid>BB0025_01 1</masterclipid>
												<syncoffset>0</syncoffset>
												<logginginfo>
													<scene/>
													<shottake/>
													<lognote/>
													<good>FALSE</good>
												</logginginfo>
												<labels>
													<label>Best Take</label>
													<label2/>
												</labels>
												<comments>
													<mastercomment1/>
													<mastercomment2/>
													<mastercomment3/>
													<mastercomment4/>
												</comments>
												<file id="BB0025_01 3"/>
												<filter>
													<effect>
														<name>Audio Levels</name>
														<effectid>audiolevels</effectid>
														<effectcategory>audiolevels</effectcategory>
														<effecttype>audiolevels</effecttype>
														<mediatype>audio</mediatype>
														<parameter>
															<name>Level</name>
															<parameterid>level</parameterid>
															<valuemin>0</valuemin>
															<valuemax>3.98109</valuemax>
															<value>1</value>
														</parameter>
													</effect>
												</filter>
												<filter>
													<effect>
														<name>Audio Pan</name>
														<effectid>audiopan</effectid>
														<effectcategory>audiopan</effectcategory>
														<effecttype>audiopan</effecttype>
														<mediatype>audio</mediatype>
														<parameter>
															<name>Pan</name>
															<parameterid>pan</parameterid>
															<valuemin>-1</valuemin>
															<valuemax>1</valuemax>
															<value>0</value>
														</parameter>
													</effect>
												</filter>
												<sourcetrack>
													<mediatype>audio</mediatype>
													<trackindex>2</trackindex>
												</sourcetrack>
												<link>
													<linkclipref>BB0025_01 2</linkclipref>
													<mediatype>video</mediatype>
													<trackindex>1</trackindex>
													<clipindex>1</clipindex>
												</link>
												<link>
													<linkclipref>BB0025_01 4</linkclipref>
													<mediatype>audio</mediatype>
													<trackindex>1</trackindex>
													<clipindex>1</clipindex>
												</link>
												<link>
													<linkclipref>BB0025_01 5</linkclipref>
													<mediatype>audio</mediatype>
													<trackindex>2</trackindex>
													<clipindex>1</clipindex>
												</link>
												<mediadelay>535789</mediadelay>
												<itemhistory>
													<uuid>CD1AAB4E-DCA4-4D76-B9E2-958A8DDF5F8E</uuid>
												</itemhistory>
											</clipitem>
											<enabled>TRUE</enabled>
											<locked>FALSE</locked>
										</track>
										<filter>
											<effect>
												<name>Audio Levels</name>
												<effectid>audiolevels</effectid>
												<effectcategory>audiolevels</effectcategory>
												<effecttype>audiolevels</effecttype>
												<mediatype>audio</mediatype>
												<parameter>
													<name>Level</name>
													<parameterid>level</parameterid>
													<valuemin>0</valuemin>
													<valuemax>3.98109</valuemax>
													<value>1</value>
												</parameter>
											</effect>
										</filter>
									</audio>
								</media>
							</clip>
						</angle>
						<angle>
							<clip id="BB0026_01 ">
								<uuid>AED3B08A-7484-4E20-A781-3880F979B444</uuid>
								<updatebehavior>add</updatebehavior>
								<name>BB0026_01</name>
								<duration>576865</duration>
								<rate>
									<ntsc>TRUE</ntsc>
									<timebase>24</timebase>
								</rate>
								<in>-1</in>
								<out>-1</out>
								<anamorphic>FALSE</anamorphic>
								<masterclipid>BB0026_01 1</masterclipid>
								<ismasterclip>FALSE</ismasterclip>
								<logginginfo>
									<scene/>
									<shottake/>
									<lognote/>
									<good>FALSE</good>
								</logginginfo>
								<labels>
									<label>Best Take</label>
									<label2/>
								</labels>
								<comments>
									<mastercomment1/>
									<mastercomment2/>
									<mastercomment3/>
									<mastercomment4/>
								</comments>
								<media>
									<video>
										<track>
											<clipitem id="BB0026_01 2">
												<name>BB0026_01</name>
												<duration>576865</duration>
												<rate>
													<ntsc>TRUE</ntsc>
													<timebase>24</timebase>
												</rate>
												<in>0</in>
												<out>576865</out>
												<start>0</start>
												<end>576865</end>
												<pixelaspectratio>Square</pixelaspectratio>
												<anamorphic>FALSE</anamorphic>
												<alphatype>none</alphatype>
												<masterclipid>BB0026_01 1</masterclipid>
												<syncoffset>0</syncoffset>
												<logginginfo>
													<scene/>
													<shottake/>
													<lognote/>
													<good>FALSE</good>
												</logginginfo>
												<labels>
													<label>Best Take</label>
													<label2/>
												</labels>
												<comments>
													<mastercomment1/>
													<mastercomment2/>
													<mastercomment3/>
													<mastercomment4/>
												</comments>
												<file id="BB0026_01 3">
													<name>BB0026_01.mov</name>
													<pathurl>file://localhost/Volumes/Share/Edit%20Share/00%20BREW%20DOGS%20S1/BD_00_San_Diego/052413/01_Video/C300/BB0026_01.mov</pathurl>
													<rate>
														<timebase>24</timebase>
														<ntsc>TRUE</ntsc>
													</rate>
													<duration>192</duration>
													<metadata>
														<storage>QuickTime</storage>
														<key>com.apple.quicktime.creationdate</key>
														<size>24</size>
														<type>UTF8</type>
														<value>2013-05-24T17:06:47-0700</value>
													</metadata>
													<metadata>
														<storage>QuickTime</storage>
														<key>com.apple.finalcutstudio.media.history.uuid</key>
														<size>36</size>
														<type>UTF8</type>
														<value>3C6E3F60-265E-418E-85FE-60607A1B33D0</value>
													</metadata>
													<metadata>
														<storage>QuickTime</storage>
														<key>com.apple.finalcutstudio.media.uuid</key>
														<size>36</size>
														<type>UTF8</type>
														<value>7EF29D2C-1EB5-4FCF-AB78-B4FBAAF476D7</value>
													</metadata>
													<metadata>
														<storage>QuickTime</storage>
														<key>com.apple.proapps.reel</key>
														<size>12</size>
														<type>UTF8</type>
														<value>B02_verified</value>
													</metadata>
													<metadata>
														<storage>QuickTime</storage>
														<key>com.apple.proapps.isGood</key>
														<size>4</size>
														<type>unsigned</type>
														<value>0</value>
													</metadata>
													<metadata>
														<storage>QuickTime</storage>
														<key>com.apple.proapps.clipID</key>
														<size>36</size>
														<type>UTF8</type>
														<value>0D48E1E4-3664-0580-0000-8500025A0AE7</value>
													</metadata>
													<metadata>
														<storage>QuickTime</storage>
														<key>com.apple.proapps.originalFormat</key>
														<size>14</size>
														<type>UTF8</type>
														<value>Canon XF MPEG2</value>
													</metadata>
													<timecode>
														<rate>
															<timebase>24</timebase>
														</rate>
														<string>17:07:44:15</string>
														<frame>1479951</frame>
														<displayformat>NDF</displayformat>
														<source>source</source>
														<reel>
															<name>B02_verified</name>
														</reel>
													</timecode>
													<media>
														<video>
															<duration>192</duration>
															<samplecharacteristics>
																<width>1920</width>
																<height>1080</height>
															</samplecharacteristics>
														</video>
														<audio>
															<samplecharacteristics>
																<samplerate>48000</samplerate>
																<depth>16</depth>
															</samplecharacteristics>
															<channelcount>1</channelcount>
															<layout>mono</layout>
															<audiochannel>
																<sourcechannel>1</sourcechannel>
																<channellabel>discrete</channellabel>
															</audiochannel>
														</audio>
														<audio>
															<samplecharacteristics>
																<samplerate>48000</samplerate>
																<depth>16</depth>
															</samplecharacteristics>
															<channelcount>1</channelcount>
															<layout>mono</layout>
															<audiochannel>
																<sourcechannel>2</sourcechannel>
																<channellabel>discrete</channellabel>
															</audiochannel>
														</audio>
													</media>
												</file>
												<sourcetrack>
													<mediatype>video</mediatype>
												</sourcetrack>
												<link>
													<linkclipref>BB0026_01 2</linkclipref>
													<mediatype>video</mediatype>
													<trackindex>1</trackindex>
													<clipindex>1</clipindex>
												</link>
												<link>
													<linkclipref>BB0026_01 4</linkclipref>
													<mediatype>audio</mediatype>
													<trackindex>1</trackindex>
													<clipindex>1</clipindex>
												</link>
												<link>
													<linkclipref>BB0026_01 5</linkclipref>
													<mediatype>audio</mediatype>
													<trackindex>2</trackindex>
													<clipindex>1</clipindex>
												</link>
												<fielddominance>none</fielddominance>
												<mediadelay>542033</mediadelay>
												<itemhistory>
													<uuid>0DDA6EA2-C0D1-4FCB-A0EE-63C6B887BE6A</uuid>
												</itemhistory>
											</clipitem>
											<enabled>TRUE</enabled>
											<locked>FALSE</locked>
										</track>
									</video>
									<audio>
										<outputs>
											<group>
												<index>1</index>
												<numchannels>2</numchannels>
												<downmix>0</downmix>
												<channel>
													<index>1</index>
												</channel>
												<channel>
													<index>2</index>
												</channel>
											</group>
										</outputs>
										<in>-1</in>
										<out>-1</out>
										<track>
											<clipitem id="BB0026_01 4">
												<name>BB0026_01</name>
												<duration>576865</duration>
												<rate>
													<ntsc>TRUE</ntsc>
													<timebase>24</timebase>
												</rate>
												<in>0</in>
												<out>576865</out>
												<start>0</start>
												<end>576865</end>
												<subframeoffset>0</subframeoffset>
												<anamorphic>FALSE</anamorphic>
												<masterclipid>BB0026_01 1</masterclipid>
												<syncoffset>0</syncoffset>
												<logginginfo>
													<scene/>
													<shottake/>
													<lognote/>
													<good>FALSE</good>
												</logginginfo>
												<labels>
													<label>Best Take</label>
													<label2/>
												</labels>
												<comments>
													<mastercomment1/>
													<mastercomment2/>
													<mastercomment3/>
													<mastercomment4/>
												</comments>
												<file id="BB0026_01 3"/>
												<filter>
													<effect>
														<name>Audio Levels</name>
														<effectid>audiolevels</effectid>
														<effectcategory>audiolevels</effectcategory>
														<effecttype>audiolevels</effecttype>
														<mediatype>audio</mediatype>
														<parameter>
															<name>Level</name>
															<parameterid>level</parameterid>
															<valuemin>0</valuemin>
															<valuemax>3.98109</valuemax>
															<value>1</value>
														</parameter>
													</effect>
												</filter>
												<filter>
													<effect>
														<name>Audio Pan</name>
														<effectid>audiopan</effectid>
														<effectcategory>audiopan</effectcategory>
														<effecttype>audiopan</effecttype>
														<mediatype>audio</mediatype>
														<parameter>
															<name>Pan</name>
															<parameterid>pan</parameterid>
															<valuemin>-1</valuemin>
															<valuemax>1</valuemax>
															<value>0</value>
														</parameter>
													</effect>
												</filter>
												<sourcetrack>
													<mediatype>audio</mediatype>
													<trackindex>1</trackindex>
												</sourcetrack>
												<link>
													<linkclipref>BB0026_01 2</linkclipref>
													<mediatype>video</mediatype>
													<trackindex>1</trackindex>
													<clipindex>1</clipindex>
												</link>
												<link>
													<linkclipref>BB0026_01 4</linkclipref>
													<mediatype>audio</mediatype>
													<trackindex>1</trackindex>
													<clipindex>1</clipindex>
												</link>
												<link>
													<linkclipref>BB0026_01 5</linkclipref>
													<mediatype>audio</mediatype>
													<trackindex>2</trackindex>
													<clipindex>1</clipindex>
												</link>
												<mediadelay>542033</mediadelay>
												<itemhistory>
													<uuid>10B082C3-7FDE-4B26-8B59-1CB3097AF4A1</uuid>
												</itemhistory>
											</clipitem>
											<enabled>TRUE</enabled>
											<locked>FALSE</locked>
										</track>
										<track>
											<clipitem id="BB0026_01 5">
												<name>BB0026_01</name>
												<duration>576865</duration>
												<rate>
													<ntsc>TRUE</ntsc>
													<timebase>24</timebase>
												</rate>
												<in>0</in>
												<out>576865</out>
												<start>0</start>
												<end>576865</end>
												<subframeoffset>0</subframeoffset>
												<anamorphic>FALSE</anamorphic>
												<masterclipid>BB0026_01 1</masterclipid>
												<syncoffset>0</syncoffset>
												<logginginfo>
													<scene/>
													<shottake/>
													<lognote/>
													<good>FALSE</good>
												</logginginfo>
												<labels>
													<label>Best Take</label>
													<label2/>
												</labels>
												<comments>
													<mastercomment1/>
													<mastercomment2/>
													<mastercomment3/>
													<mastercomment4/>
												</comments>
												<file id="BB0026_01 3"/>
												<filter>
													<effect>
														<name>Audio Levels</name>
														<effectid>audiolevels</effectid>
														<effectcategory>audiolevels</effectcategory>
														<effecttype>audiolevels</effecttype>
														<mediatype>audio</mediatype>
														<parameter>
															<name>Level</name>
															<parameterid>level</parameterid>
															<valuemin>0</valuemin>
															<valuemax>3.98109</valuemax>
															<value>1</value>
														</parameter>
													</effect>
												</filter>
												<filter>
													<effect>
														<name>Audio Pan</name>
														<effectid>audiopan</effectid>
														<effectcategory>audiopan</effectcategory>
														<effecttype>audiopan</effecttype>
														<mediatype>audio</mediatype>
														<parameter>
															<name>Pan</name>
															<parameterid>pan</parameterid>
															<valuemin>-1</valuemin>
															<valuemax>1</valuemax>
															<value>0</value>
														</parameter>
													</effect>
												</filter>
												<sourcetrack>
													<mediatype>audio</mediatype>
													<trackindex>2</trackindex>
												</sourcetrack>
												<link>
													<linkclipref>BB0026_01 2</linkclipref>
													<mediatype>video</mediatype>
													<trackindex>1</trackindex>
													<clipindex>1</clipindex>
												</link>
												<link>
													<linkclipref>BB0026_01 4</linkclipref>
													<mediatype>audio</mediatype>
													<trackindex>1</trackindex>
													<clipindex>1</clipindex>
												</link>
												<link>
													<linkclipref>BB0026_01 5</linkclipref>
													<mediatype>audio</mediatype>
													<trackindex>2</trackindex>
													<clipindex>1</clipindex>
												</link>
												<mediadelay>542033</mediadelay>
												<itemhistory>
													<uuid>35DDD575-394B-457A-997F-FE16B7387271</uuid>
												</itemhistory>
											</clipitem>
											<enabled>TRUE</enabled>
											<locked>FALSE</locked>
										</track>
										<filter>
											<effect>
												<name>Audio Levels</name>
												<effectid>audiolevels</effectid>
												<effectcategory>audiolevels</effectcategory>
												<effecttype>audiolevels</effecttype>
												<mediatype>audio</mediatype>
												<parameter>
													<name>Level</name>
													<parameterid>level</parameterid>
													<valuemin>0</valuemin>
													<valuemax>3.98109</valuemax>
													<value>1</value>
												</parameter>
											</effect>
										</filter>
									</audio>
								</media>
							</clip>
						</angle>
						<angle>
							<clip id="BB0027_01 ">
								<uuid>363B860B-0B9C-495F-B120-737AEC2A035A</uuid>
								<updatebehavior>add</updatebehavior>
								<name>BB0027_01</name>
								<duration>576865</duration>
								<rate>
									<ntsc>TRUE</ntsc>
									<timebase>24</timebase>
								</rate>
								<in>-1</in>
								<out>-1</out>
								<anamorphic>FALSE</anamorphic>
								<masterclipid>BB0027_01 1</masterclipid>
								<ismasterclip>FALSE</ismasterclip>
								<logginginfo>
									<scene/>
									<shottake/>
									<lognote/>
									<good>FALSE</good>
								</logginginfo>
								<labels>
									<label>Best Take</label>
									<label2/>
								</labels>
								<comments>
									<mastercomment1/>
									<mastercomment2/>
									<mastercomment3/>
									<mastercomment4/>
								</comments>
								<media>
									<video>
										<track>
											<clipitem id="BB0027_01 2">
												<name>BB0027_01</name>
												<duration>576865</duration>
												<rate>
													<ntsc>TRUE</ntsc>
													<timebase>24</timebase>
												</rate>
												<in>0</in>
												<out>576865</out>
												<start>0</start>
												<end>576865</end>
												<pixelaspectratio>Square</pixelaspectratio>
												<anamorphic>FALSE</anamorphic>
												<alphatype>none</alphatype>
												<masterclipid>BB0027_01 1</masterclipid>
												<syncoffset>0</syncoffset>
												<logginginfo>
													<scene/>
													<shottake/>
													<lognote/>
													<good>FALSE</good>
												</logginginfo>
												<labels>
													<label>Best Take</label>
													<label2/>
												</labels>
												<comments>
													<mastercomment1/>
													<mastercomment2/>
													<mastercomment3/>
													<mastercomment4/>
												</comments>
												<file id="BB0027_01 3">
													<name>BB0027_01.mov</name>
													<pathurl>file://localhost/Volumes/Share/Edit%20Share/00%20BREW%20DOGS%20S1/BD_00_San_Diego/052413/01_Video/C300/BB0027_01.mov</pathurl>
													<rate>
														<timebase>24</timebase>
														<ntsc>TRUE</ntsc>
													</rate>
													<duration>16068</duration>
													<metadata>
														<storage>QuickTime</storage>
														<key>com.apple.quicktime.creationdate</key>
														<size>24</size>
														<type>UTF8</type>
														<value>2013-05-24T17:07:19-0700</value>
													</metadata>
													<metadata>
														<storage>QuickTime</storage>
														<key>com.apple.finalcutstudio.media.history.uuid</key>
														<size>36</size>
														<type>UTF8</type>
														<value>A8CE1047-36F0-45E9-98F8-B62AF1A5C3A3</value>
													</metadata>
													<metadata>
														<storage>QuickTime</storage>
														<key>com.apple.finalcutstudio.media.uuid</key>
														<size>36</size>
														<type>UTF8</type>
														<value>56509106-D68E-4010-9589-E06767B1C833</value>
													</metadata>
													<metadata>
														<storage>QuickTime</storage>
														<key>com.apple.proapps.reel</key>
														<size>12</size>
														<type>UTF8</type>
														<value>B02_verified</value>
													</metadata>
													<metadata>
														<storage>QuickTime</storage>
														<key>com.apple.proapps.isGood</key>
														<size>4</size>
														<type>unsigned</type>
														<value>0</value>
													</metadata>
													<metadata>
														<storage>QuickTime</storage>
														<key>com.apple.proapps.clipID</key>
														<size>36</size>
														<type>UTF8</type>
														<value>0D48E964-3664-0580-0000-8500025A0AE7</value>
													</metadata>
													<metadata>
														<storage>QuickTime</storage>
														<key>com.apple.proapps.originalFormat</key>
														<size>14</size>
														<type>UTF8</type>
														<value>Canon XF MPEG2</value>
													</metadata>
													<timecode>
														<rate>
															<timebase>24</timebase>
														</rate>
														<string>17:08:17:03</string>
														<frame>1480731</frame>
														<displayformat>NDF</displayformat>
														<source>source</source>
														<reel>
															<name>B02_verified</name>
														</reel>
													</timecode>
													<media>
														<video>
															<duration>16068</duration>
															<samplecharacteristics>
																<width>1920</width>
																<height>1080</height>
															</samplecharacteristics>
														</video>
														<audio>
															<samplecharacteristics>
																<samplerate>48000</samplerate>
																<depth>16</depth>
															</samplecharacteristics>
															<channelcount>1</channelcount>
															<layout>mono</layout>
															<audiochannel>
																<sourcechannel>1</sourcechannel>
																<channellabel>discrete</channellabel>
															</audiochannel>
														</audio>
														<audio>
															<samplecharacteristics>
																<samplerate>48000</samplerate>
																<depth>16</depth>
															</samplecharacteristics>
															<channelcount>1</channelcount>
															<layout>mono</layout>
															<audiochannel>
																<sourcechannel>2</sourcechannel>
																<channellabel>discrete</channellabel>
															</audiochannel>
														</audio>
													</media>
												</file>
												<sourcetrack>
													<mediatype>video</mediatype>
												</sourcetrack>
												<link>
													<linkclipref>BB0027_01 2</linkclipref>
													<mediatype>video</mediatype>
													<trackindex>1</trackindex>
													<clipindex>1</clipindex>
												</link>
												<link>
													<linkclipref>BB0027_01 4</linkclipref>
													<mediatype>audio</mediatype>
													<trackindex>1</trackindex>
													<clipindex>1</clipindex>
												</link>
												<link>
													<linkclipref>BB0027_01 5</linkclipref>
													<mediatype>audio</mediatype>
													<trackindex>2</trackindex>
													<clipindex>1</clipindex>
												</link>
												<fielddominance>none</fielddominance>
												<mediadelay>542813</mediadelay>
												<itemhistory>
													<uuid>95C81787-3B93-48DE-984C-AB7D2EBA3A24</uuid>
												</itemhistory>
											</clipitem>
											<enabled>TRUE</enabled>
											<locked>FALSE</locked>
										</track>
									</video>
									<audio>
										<outputs>
											<group>
												<index>1</index>
												<numchannels>2</numchannels>
												<downmix>0</downmix>
												<channel>
													<index>1</index>
												</channel>
												<channel>
													<index>2</index>
												</channel>
											</group>
										</outputs>
										<in>-1</in>
										<out>-1</out>
										<track>
											<clipitem id="BB0027_01 4">
												<name>BB0027_01</name>
												<duration>576865</duration>
												<rate>
													<ntsc>TRUE</ntsc>
													<timebase>24</timebase>
												</rate>
												<in>0</in>
												<out>576865</out>
												<start>0</start>
												<end>576865</end>
												<subframeoffset>0</subframeoffset>
												<anamorphic>FALSE</anamorphic>
												<masterclipid>BB0027_01 1</masterclipid>
												<syncoffset>0</syncoffset>
												<logginginfo>
													<scene/>
													<shottake/>
													<lognote/>
													<good>FALSE</good>
												</logginginfo>
												<labels>
													<label>Best Take</label>
													<label2/>
												</labels>
												<comments>
													<mastercomment1/>
													<mastercomment2/>
													<mastercomment3/>
													<mastercomment4/>
												</comments>
												<file id="BB0027_01 3"/>
												<filter>
													<effect>
														<name>Audio Levels</name>
														<effectid>audiolevels</effectid>
														<effectcategory>audiolevels</effectcategory>
														<effecttype>audiolevels</effecttype>
														<mediatype>audio</mediatype>
														<parameter>
															<name>Level</name>
															<parameterid>level</parameterid>
															<valuemin>0</valuemin>
															<valuemax>3.98109</valuemax>
															<value>1</value>
														</parameter>
													</effect>
												</filter>
												<filter>
													<effect>
														<name>Audio Pan</name>
														<effectid>audiopan</effectid>
														<effectcategory>audiopan</effectcategory>
														<effecttype>audiopan</effecttype>
														<mediatype>audio</mediatype>
														<parameter>
															<name>Pan</name>
															<parameterid>pan</parameterid>
															<valuemin>-1</valuemin>
															<valuemax>1</valuemax>
															<value>0</value>
														</parameter>
													</effect>
												</filter>
												<sourcetrack>
													<mediatype>audio</mediatype>
													<trackindex>1</trackindex>
												</sourcetrack>
												<link>
													<linkclipref>BB0027_01 2</linkclipref>
													<mediatype>video</mediatype>
													<trackindex>1</trackindex>
													<clipindex>1</clipindex>
												</link>
												<link>
													<linkclipref>BB0027_01 4</linkclipref>
													<mediatype>audio</mediatype>
													<trackindex>1</trackindex>
													<clipindex>1</clipindex>
												</link>
												<link>
													<linkclipref>BB0027_01 5</linkclipref>
													<mediatype>audio</mediatype>
													<trackindex>2</trackindex>
													<clipindex>1</clipindex>
												</link>
												<mediadelay>542813</mediadelay>
												<itemhistory>
													<uuid>824BF8FD-7227-4903-9CE3-316F8FC2F957</uuid>
												</itemhistory>
											</clipitem>
											<enabled>TRUE</enabled>
											<locked>FALSE</locked>
										</track>
										<track>
											<clipitem id="BB0027_01 5">
												<name>BB0027_01</name>
												<duration>576865</duration>
												<rate>
													<ntsc>TRUE</ntsc>
													<timebase>24</timebase>
												</rate>
												<in>0</in>
												<out>576865</out>
												<start>0</start>
												<end>576865</end>
												<subframeoffset>0</subframeoffset>
												<anamorphic>FALSE</anamorphic>
												<masterclipid>BB0027_01 1</masterclipid>
												<syncoffset>0</syncoffset>
												<logginginfo>
													<scene/>
													<shottake/>
													<lognote/>
													<good>FALSE</good>
												</logginginfo>
												<labels>
													<label>Best Take</label>
													<label2/>
												</labels>
												<comments>
													<mastercomment1/>
													<mastercomment2/>
													<mastercomment3/>
													<mastercomment4/>
												</comments>
												<file id="BB0027_01 3"/>
												<filter>
													<effect>
														<name>Audio Levels</name>
														<effectid>audiolevels</effectid>
														<effectcategory>audiolevels</effectcategory>
														<effecttype>audiolevels</effecttype>
														<mediatype>audio</mediatype>
														<parameter>
															<name>Level</name>
															<parameterid>level</parameterid>
															<valuemin>0</valuemin>
															<valuemax>3.98109</valuemax>
															<value>1</value>
														</parameter>
													</effect>
												</filter>
												<filter>
													<effect>
														<name>Audio Pan</name>
														<effectid>audiopan</effectid>
														<effectcategory>audiopan</effectcategory>
														<effecttype>audiopan</effecttype>
														<mediatype>audio</mediatype>
														<parameter>
															<name>Pan</name>
															<parameterid>pan</parameterid>
															<valuemin>-1</valuemin>
															<valuemax>1</valuemax>
															<value>0</value>
														</parameter>
													</effect>
												</filter>
												<sourcetrack>
													<mediatype>audio</mediatype>
													<trackindex>2</trackindex>
												</sourcetrack>
												<link>
													<linkclipref>BB0027_01 2</linkclipref>
													<mediatype>video</mediatype>
													<trackindex>1</trackindex>
													<clipindex>1</clipindex>
												</link>
												<link>
													<linkclipref>BB0027_01 4</linkclipref>
													<mediatype>audio</mediatype>
													<trackindex>1</trackindex>
													<clipindex>1</clipindex>
												</link>
												<link>
													<linkclipref>BB0027_01 5</linkclipref>
													<mediatype>audio</mediatype>
													<trackindex>2</trackindex>
													<clipindex>1</clipindex>
												</link>
												<mediadelay>542813</mediadelay>
												<itemhistory>
													<uuid>BD91B001-92C9-4931-B4B9-D19474461280</uuid>
												</itemhistory>
											</clipitem>
											<enabled>TRUE</enabled>
											<locked>FALSE</locked>
										</track>
										<filter>
											<effect>
												<name>Audio Levels</name>
												<effectid>audiolevels</effectid>
												<effectcategory>audiolevels</effectcategory>
												<effecttype>audiolevels</effecttype>
												<mediatype>audio</mediatype>
												<parameter>
													<name>Level</name>
													<parameterid>level</parameterid>
													<valuemin>0</valuemin>
													<valuemax>3.98109</valuemax>
													<value>1</value>
												</parameter>
											</effect>
										</filter>
									</audio>
								</media>
							</clip>
						</angle>
						<angle>
							<clip id="BB0028_01 ">
								<uuid>91C0C182-E06C-40B7-B4CA-F0FD230EB4C5</uuid>
								<updatebehavior>add</updatebehavior>
								<name>BB0028_01</name>
								<duration>576865</duration>
								<rate>
									<ntsc>TRUE</ntsc>
									<timebase>24</timebase>
								</rate>
								<in>-1</in>
								<out>-1</out>
								<anamorphic>FALSE</anamorphic>
								<masterclipid>BB0028_01 1</masterclipid>
								<ismasterclip>FALSE</ismasterclip>
								<logginginfo>
									<scene/>
									<shottake/>
									<lognote/>
									<good>FALSE</good>
								</logginginfo>
								<labels>
									<label>Best Take</label>
									<label2/>
								</labels>
								<comments>
									<mastercomment1/>
									<mastercomment2/>
									<mastercomment3/>
									<mastercomment4/>
								</comments>
								<media>
									<video>
										<track>
											<clipitem id="BB0028_01 2">
												<name>BB0028_01</name>
												<duration>576865</duration>
												<rate>
													<ntsc>TRUE</ntsc>
													<timebase>24</timebase>
												</rate>
												<in>0</in>
												<out>576865</out>
												<start>0</start>
												<end>576865</end>
												<pixelaspectratio>Square</pixelaspectratio>
												<anamorphic>FALSE</anamorphic>
												<alphatype>none</alphatype>
												<masterclipid>BB0028_01 1</masterclipid>
												<syncoffset>0</syncoffset>
												<logginginfo>
													<scene/>
													<shottake/>
													<lognote/>
													<good>FALSE</good>
												</logginginfo>
												<labels>
													<label>Best Take</label>
													<label2/>
												</labels>
												<comments>
													<mastercomment1/>
													<mastercomment2/>
													<mastercomment3/>
													<mastercomment4/>
												</comments>
												<file id="BB0028_01 3">
													<name>BB0028_01.mov</name>
													<pathurl>file://localhost/Volumes/Share/Edit%20Share/00%20BREW%20DOGS%20S1/BD_00_San_Diego/052413/01_Video/C300/BB0028_01.mov</pathurl>
													<rate>
														<timebase>24</timebase>
														<ntsc>TRUE</ntsc>
													</rate>
													<duration>396</duration>
													<metadata>
														<storage>QuickTime</storage>
														<key>com.apple.quicktime.creationdate</key>
														<size>24</size>
														<type>UTF8</type>
														<value>2013-05-24T17:22:12-0700</value>
													</metadata>
													<metadata>
														<storage>QuickTime</storage>
														<key>com.apple.finalcutstudio.media.history.uuid</key>
														<size>36</size>
														<type>UTF8</type>
														<value>3766D29C-722D-4A74-BF0C-CBFB9F5D2FE3</value>
													</metadata>
													<metadata>
														<storage>QuickTime</storage>
														<key>com.apple.finalcutstudio.media.uuid</key>
														<size>36</size>
														<type>UTF8</type>
														<value>85F1C874-D457-481C-B696-5EF8A23C8141</value>
													</metadata>
													<metadata>
														<storage>QuickTime</storage>
														<key>com.apple.proapps.reel</key>
														<size>12</size>
														<type>UTF8</type>
														<value>B02_verified</value>
													</metadata>
													<metadata>
														<storage>QuickTime</storage>
														<key>com.apple.proapps.isGood</key>
														<size>4</size>
														<type>unsigned</type>
														<value>0</value>
													</metadata>
													<metadata>
														<storage>QuickTime</storage>
														<key>com.apple.proapps.clipID</key>
														<size>36</size>
														<type>UTF8</type>
														<value>0D49BAB0-3664-0580-0000-8500025A0AE7</value>
													</metadata>
													<metadata>
														<storage>QuickTime</storage>
														<key>com.apple.proapps.originalFormat</key>
														<size>14</size>
														<type>UTF8</type>
														<value>Canon XF MPEG2</value>
													</metadata>
													<timecode>
														<rate>
															<timebase>24</timebase>
														</rate>
														<string>17:23:08:19</string>
														<frame>1502131</frame>
														<displayformat>NDF</displayformat>
														<source>source</source>
														<reel>
															<name>B02_verified</name>
														</reel>
													</timecode>
													<media>
														<video>
															<duration>396</duration>
															<samplecharacteristics>
																<width>1920</width>
																<height>1080</height>
															</samplecharacteristics>
														</video>
														<audio>
															<samplecharacteristics>
																<samplerate>48000</samplerate>
																<depth>16</depth>
															</samplecharacteristics>
															<channelcount>1</channelcount>
															<layout>mono</layout>
															<audiochannel>
																<sourcechannel>1</sourcechannel>
																<channellabel>discrete</channellabel>
															</audiochannel>
														</audio>
														<audio>
															<samplecharacteristics>
																<samplerate>48000</samplerate>
																<depth>16</depth>
															</samplecharacteristics>
															<channelcount>1</channelcount>
															<layout>mono</layout>
															<audiochannel>
																<sourcechannel>2</sourcechannel>
																<channellabel>discrete</channellabel>
															</audiochannel>
														</audio>
													</media>
												</file>
												<sourcetrack>
													<mediatype>video</mediatype>
												</sourcetrack>
												<link>
													<linkclipref>BB0028_01 2</linkclipref>
													<mediatype>video</mediatype>
													<trackindex>1</trackindex>
													<clipindex>1</clipindex>
												</link>
												<link>
													<linkclipref>BB0028_01 4</linkclipref>
													<mediatype>audio</mediatype>
													<trackindex>1</trackindex>
													<clipindex>1</clipindex>
												</link>
												<link>
													<linkclipref>BB0028_01 5</linkclipref>
													<mediatype>audio</mediatype>
													<trackindex>2</trackindex>
													<clipindex>1</clipindex>
												</link>
												<fielddominance>none</fielddominance>
												<mediadelay>564213</mediadelay>
												<itemhistory>
													<uuid>CB6CF46A-89B2-4175-8C8E-61A5DB76CC49</uuid>
												</itemhistory>
											</clipitem>
											<enabled>TRUE</enabled>
											<locked>FALSE</locked>
										</track>
									</video>
									<audio>
										<outputs>
											<group>
												<index>1</index>
												<numchannels>2</numchannels>
												<downmix>0</downmix>
												<channel>
													<index>1</index>
												</channel>
												<channel>
													<index>2</index>
												</channel>
											</group>
										</outputs>
										<in>-1</in>
										<out>-1</out>
										<track>
											<clipitem id="BB0028_01 4">
												<name>BB0028_01</name>
												<duration>576865</duration>
												<rate>
													<ntsc>TRUE</ntsc>
													<timebase>24</timebase>
												</rate>
												<in>0</in>
												<out>576865</out>
												<start>0</start>
												<end>576865</end>
												<subframeoffset>0</subframeoffset>
												<anamorphic>FALSE</anamorphic>
												<masterclipid>BB0028_01 1</masterclipid>
												<syncoffset>0</syncoffset>
												<logginginfo>
													<scene/>
													<shottake/>
													<lognote/>
													<good>FALSE</good>
												</logginginfo>
												<labels>
													<label>Best Take</label>
													<label2/>
												</labels>
												<comments>
													<mastercomment1/>
													<mastercomment2/>
													<mastercomment3/>
													<mastercomment4/>
												</comments>
												<file id="BB0028_01 3"/>
												<filter>
													<effect>
														<name>Audio Levels</name>
														<effectid>audiolevels</effectid>
														<effectcategory>audiolevels</effectcategory>
														<effecttype>audiolevels</effecttype>
														<mediatype>audio</mediatype>
														<parameter>
															<name>Level</name>
															<parameterid>level</parameterid>
															<valuemin>0</valuemin>
															<valuemax>3.98109</valuemax>
															<value>1</value>
														</parameter>
													</effect>
												</filter>
												<filter>
													<effect>
														<name>Audio Pan</name>
														<effectid>audiopan</effectid>
														<effectcategory>audiopan</effectcategory>
														<effecttype>audiopan</effecttype>
														<mediatype>audio</mediatype>
														<parameter>
															<name>Pan</name>
															<parameterid>pan</parameterid>
															<valuemin>-1</valuemin>
															<valuemax>1</valuemax>
															<value>0</value>
														</parameter>
													</effect>
												</filter>
												<sourcetrack>
													<mediatype>audio</mediatype>
													<trackindex>1</trackindex>
												</sourcetrack>
												<link>
													<linkclipref>BB0028_01 2</linkclipref>
													<mediatype>video</mediatype>
													<trackindex>1</trackindex>
													<clipindex>1</clipindex>
												</link>
												<link>
													<linkclipref>BB0028_01 4</linkclipref>
													<mediatype>audio</mediatype>
													<trackindex>1</trackindex>
													<clipindex>1</clipindex>
												</link>
												<link>
													<linkclipref>BB0028_01 5</linkclipref>
													<mediatype>audio</mediatype>
													<trackindex>2</trackindex>
													<clipindex>1</clipindex>
												</link>
												<mediadelay>564213</mediadelay>
												<itemhistory>
													<uuid>06430434-02B4-478E-BFAA-33251AAE74DC</uuid>
												</itemhistory>
											</clipitem>
											<enabled>TRUE</enabled>
											<locked>FALSE</locked>
										</track>
										<track>
											<clipitem id="BB0028_01 5">
												<name>BB0028_01</name>
												<duration>576865</duration>
												<rate>
													<ntsc>TRUE</ntsc>
													<timebase>24</timebase>
												</rate>
												<in>0</in>
												<out>576865</out>
												<start>0</start>
												<end>576865</end>
												<subframeoffset>0</subframeoffset>
												<anamorphic>FALSE</anamorphic>
												<masterclipid>BB0028_01 1</masterclipid>
												<syncoffset>0</syncoffset>
												<logginginfo>
													<scene/>
													<shottake/>
													<lognote/>
													<good>FALSE</good>
												</logginginfo>
												<labels>
													<label>Best Take</label>
													<label2/>
												</labels>
												<comments>
													<mastercomment1/>
													<mastercomment2/>
													<mastercomment3/>
													<mastercomment4/>
												</comments>
												<file id="BB0028_01 3"/>
												<filter>
													<effect>
														<name>Audio Levels</name>
														<effectid>audiolevels</effectid>
														<effectcategory>audiolevels</effectcategory>
														<effecttype>audiolevels</effecttype>
														<mediatype>audio</mediatype>
														<parameter>
															<name>Level</name>
															<parameterid>level</parameterid>
															<valuemin>0</valuemin>
															<valuemax>3.98109</valuemax>
															<value>1</value>
														</parameter>
													</effect>
												</filter>
												<filter>
													<effect>
														<name>Audio Pan</name>
														<effectid>audiopan</effectid>
														<effectcategory>audiopan</effectcategory>
														<effecttype>audiopan</effecttype>
														<mediatype>audio</mediatype>
														<parameter>
															<name>Pan</name>
															<parameterid>pan</parameterid>
															<valuemin>-1</valuemin>
															<valuemax>1</valuemax>
															<value>0</value>
														</parameter>
													</effect>
												</filter>
												<sourcetrack>
													<mediatype>audio</mediatype>
													<trackindex>2</trackindex>
												</sourcetrack>
												<link>
													<linkclipref>BB0028_01 2</linkclipref>
													<mediatype>video</mediatype>
													<trackindex>1</trackindex>
													<clipindex>1</clipindex>
												</link>
												<link>
													<linkclipref>BB0028_01 4</linkclipref>
													<mediatype>audio</mediatype>
													<trackindex>1</trackindex>
													<clipindex>1</clipindex>
												</link>
												<link>
													<linkclipref>BB0028_01 5</linkclipref>
													<mediatype>audio</mediatype>
													<trackindex>2</trackindex>
													<clipindex>1</clipindex>
												</link>
												<mediadelay>564213</mediadelay>
												<itemhistory>
													<uuid>239C0A9D-9FA7-4CF2-B6B0-EB7EDC4D0A2E</uuid>
												</itemhistory>
											</clipitem>
											<enabled>TRUE</enabled>
											<locked>FALSE</locked>
										</track>
										<filter>
											<effect>
												<name>Audio Levels</name>
												<effectid>audiolevels</effectid>
												<effectcategory>audiolevels</effectcategory>
												<effecttype>audiolevels</effecttype>
												<mediatype>audio</mediatype>
												<parameter>
													<name>Level</name>
													<parameterid>level</parameterid>
													<valuemin>0</valuemin>
													<valuemax>3.98109</valuemax>
													<value>1</value>
												</parameter>
											</effect>
										</filter>
									</audio>
								</media>
							</clip>
						</angle>
						<angle>
							<clip id="BB0029_01 ">
								<uuid>859CFB0A-CBDD-4788-B499-A97AF37C5892</uuid>
								<updatebehavior>add</updatebehavior>
								<name>BB0029_01</name>
								<duration>576865</duration>
								<rate>
									<ntsc>TRUE</ntsc>
									<timebase>24</timebase>
								</rate>
								<in>-1</in>
								<out>-1</out>
								<anamorphic>FALSE</anamorphic>
								<masterclipid>BB0029_01 1</masterclipid>
								<ismasterclip>FALSE</ismasterclip>
								<logginginfo>
									<scene/>
									<shottake/>
									<lognote/>
									<good>FALSE</good>
								</logginginfo>
								<labels>
									<label>Best Take</label>
									<label2/>
								</labels>
								<comments>
									<mastercomment1/>
									<mastercomment2/>
									<mastercomment3/>
									<mastercomment4/>
								</comments>
								<media>
									<video>
										<track>
											<clipitem id="BB0029_01 2">
												<name>BB0029_01</name>
												<duration>576865</duration>
												<rate>
													<ntsc>TRUE</ntsc>
													<timebase>24</timebase>
												</rate>
												<in>0</in>
												<out>576865</out>
												<start>0</start>
												<end>576865</end>
												<pixelaspectratio>Square</pixelaspectratio>
												<anamorphic>FALSE</anamorphic>
												<alphatype>none</alphatype>
												<masterclipid>BB0029_01 1</masterclipid>
												<syncoffset>0</syncoffset>
												<logginginfo>
													<scene/>
													<shottake/>
													<lognote/>
													<good>FALSE</good>
												</logginginfo>
												<labels>
													<label>Best Take</label>
													<label2/>
												</labels>
												<comments>
													<mastercomment1/>
													<mastercomment2/>
													<mastercomment3/>
													<mastercomment4/>
												</comments>
												<file id="BB0029_01 3">
													<name>BB0029_01.mov</name>
													<pathurl>file://localhost/Volumes/Share/Edit%20Share/00%20BREW%20DOGS%20S1/BD_00_San_Diego/052413/01_Video/C300/BB0029_01.mov</pathurl>
													<rate>
														<timebase>24</timebase>
														<ntsc>TRUE</ntsc>
													</rate>
													<duration>7116</duration>
													<metadata>
														<storage>QuickTime</storage>
														<key>com.apple.quicktime.creationdate</key>
														<size>24</size>
														<type>UTF8</type>
														<value>2013-05-24T17:26:03-0700</value>
													</metadata>
													<metadata>
														<storage>QuickTime</storage>
														<key>com.apple.finalcutstudio.media.history.uuid</key>
														<size>36</size>
														<type>UTF8</type>
														<value>5CE7D867-C299-456C-9C4C-3600DD2721EC</value>
													</metadata>
													<metadata>
														<storage>QuickTime</storage>
														<key>com.apple.finalcutstudio.media.uuid</key>
														<size>36</size>
														<type>UTF8</type>
														<value>A1DE472C-CCA0-44B6-AA62-561B54800676</value>
													</metadata>
													<metadata>
														<storage>QuickTime</storage>
														<key>com.apple.proapps.reel</key>
														<size>12</size>
														<type>UTF8</type>
														<value>B02_verified</value>
													</metadata>
													<metadata>
														<storage>QuickTime</storage>
														<key>com.apple.proapps.isGood</key>
														<size>4</size>
														<type>unsigned</type>
														<value>0</value>
													</metadata>
													<metadata>
														<storage>QuickTime</storage>
														<key>com.apple.proapps.clipID</key>
														<size>36</size>
														<type>UTF8</type>
														<value>0D49F0D4-3664-0580-0000-8500025A0AE7</value>
													</metadata>
													<metadata>
														<storage>QuickTime</storage>
														<key>com.apple.proapps.originalFormat</key>
														<size>14</size>
														<type>UTF8</type>
														<value>Canon XF MPEG2</value>
													</metadata>
													<timecode>
														<rate>
															<timebase>24</timebase>
														</rate>
														<string>17:26:59:11</string>
														<frame>1507667</frame>
														<displayformat>NDF</displayformat>
														<source>source</source>
														<reel>
															<name>B02_verified</name>
														</reel>
													</timecode>
													<media>
														<video>
															<duration>7116</duration>
															<samplecharacteristics>
																<width>1920</width>
																<height>1080</height>
															</samplecharacteristics>
														</video>
														<audio>
															<samplecharacteristics>
																<samplerate>48000</samplerate>
																<depth>16</depth>
															</samplecharacteristics>
															<channelcount>1</channelcount>
															<layout>mono</layout>
															<audiochannel>
																<sourcechannel>1</sourcechannel>
																<channellabel>discrete</channellabel>
															</audiochannel>
														</audio>
														<audio>
															<samplecharacteristics>
																<samplerate>48000</samplerate>
																<depth>16</depth>
															</samplecharacteristics>
															<channelcount>1</channelcount>
															<layout>mono</layout>
															<audiochannel>
																<sourcechannel>2</sourcechannel>
																<channellabel>discrete</channellabel>
															</audiochannel>
														</audio>
													</media>
												</file>
												<sourcetrack>
													<mediatype>video</mediatype>
												</sourcetrack>
												<link>
													<linkclipref>BB0029_01 2</linkclipref>
													<mediatype>video</mediatype>
													<trackindex>1</trackindex>
													<clipindex>1</clipindex>
												</link>
												<link>
													<linkclipref>BB0029_01 4</linkclipref>
													<mediatype>audio</mediatype>
													<trackindex>1</trackindex>
													<clipindex>1</clipindex>
												</link>
												<link>
													<linkclipref>BB0029_01 5</linkclipref>
													<mediatype>audio</mediatype>
													<trackindex>2</trackindex>
													<clipindex>1</clipindex>
												</link>
												<fielddominance>none</fielddominance>
												<mediadelay>569749</mediadelay>
												<itemhistory>
													<uuid>2D4E9C77-B6B0-425B-99AA-7136DD620697</uuid>
												</itemhistory>
											</clipitem>
											<enabled>TRUE</enabled>
											<locked>FALSE</locked>
										</track>
									</video>
									<audio>
										<outputs>
											<group>
												<index>1</index>
												<numchannels>2</numchannels>
												<downmix>0</downmix>
												<channel>
													<index>1</index>
												</channel>
												<channel>
													<index>2</index>
												</channel>
											</group>
										</outputs>
										<in>-1</in>
										<out>-1</out>
										<track>
											<clipitem id="BB0029_01 4">
												<name>BB0029_01</name>
												<duration>576865</duration>
												<rate>
													<ntsc>TRUE</ntsc>
													<timebase>24</timebase>
												</rate>
												<in>0</in>
												<out>576865</out>
												<start>0</start>
												<end>576865</end>
												<subframeoffset>0</subframeoffset>
												<anamorphic>FALSE</anamorphic>
												<masterclipid>BB0029_01 1</masterclipid>
												<syncoffset>0</syncoffset>
												<logginginfo>
													<scene/>
													<shottake/>
													<lognote/>
													<good>FALSE</good>
												</logginginfo>
												<labels>
													<label>Best Take</label>
													<label2/>
												</labels>
												<comments>
													<mastercomment1/>
													<mastercomment2/>
													<mastercomment3/>
													<mastercomment4/>
												</comments>
												<file id="BB0029_01 3"/>
												<filter>
													<effect>
														<name>Audio Levels</name>
														<effectid>audiolevels</effectid>
														<effectcategory>audiolevels</effectcategory>
														<effecttype>audiolevels</effecttype>
														<mediatype>audio</mediatype>
														<parameter>
															<name>Level</name>
															<parameterid>level</parameterid>
															<valuemin>0</valuemin>
															<valuemax>3.98109</valuemax>
															<value>1</value>
														</parameter>
													</effect>
												</filter>
												<filter>
													<effect>
														<name>Audio Pan</name>
														<effectid>audiopan</effectid>
														<effectcategory>audiopan</effectcategory>
														<effecttype>audiopan</effecttype>
														<mediatype>audio</mediatype>
														<parameter>
															<name>Pan</name>
															<parameterid>pan</parameterid>
															<valuemin>-1</valuemin>
															<valuemax>1</valuemax>
															<value>0</value>
														</parameter>
													</effect>
												</filter>
												<sourcetrack>
													<mediatype>audio</mediatype>
													<trackindex>1</trackindex>
												</sourcetrack>
												<link>
													<linkclipref>BB0029_01 2</linkclipref>
													<mediatype>video</mediatype>
													<trackindex>1</trackindex>
													<clipindex>1</clipindex>
												</link>
												<link>
													<linkclipref>BB0029_01 4</linkclipref>
													<mediatype>audio</mediatype>
													<trackindex>1</trackindex>
													<clipindex>1</clipindex>
												</link>
												<link>
													<linkclipref>BB0029_01 5</linkclipref>
													<mediatype>audio</mediatype>
													<trackindex>2</trackindex>
													<clipindex>1</clipindex>
												</link>
												<mediadelay>569749</mediadelay>
												<itemhistory>
													<uuid>7E5CB7A1-3F56-4796-B432-4EF981EA98F1</uuid>
												</itemhistory>
											</clipitem>
											<enabled>TRUE</enabled>
											<locked>FALSE</locked>
										</track>
										<track>
											<clipitem id="BB0029_01 5">
												<name>BB0029_01</name>
												<duration>576865</duration>
												<rate>
													<ntsc>TRUE</ntsc>
													<timebase>24</timebase>
												</rate>
												<in>0</in>
												<out>576865</out>
												<start>0</start>
												<end>576865</end>
												<subframeoffset>0</subframeoffset>
												<anamorphic>FALSE</anamorphic>
												<masterclipid>BB0029_01 1</masterclipid>
												<syncoffset>0</syncoffset>
												<logginginfo>
													<scene/>
													<shottake/>
													<lognote/>
													<good>FALSE</good>
												</logginginfo>
												<labels>
													<label>Best Take</label>
													<label2/>
												</labels>
												<comments>
													<mastercomment1/>
													<mastercomment2/>
													<mastercomment3/>
													<mastercomment4/>
												</comments>
												<file id="BB0029_01 3"/>
												<filter>
													<effect>
														<name>Audio Levels</name>
														<effectid>audiolevels</effectid>
														<effectcategory>audiolevels</effectcategory>
														<effecttype>audiolevels</effecttype>
														<mediatype>audio</mediatype>
														<parameter>
															<name>Level</name>
															<parameterid>level</parameterid>
															<valuemin>0</valuemin>
															<valuemax>3.98109</valuemax>
															<value>1</value>
														</parameter>
													</effect>
												</filter>
												<filter>
													<effect>
														<name>Audio Pan</name>
														<effectid>audiopan</effectid>
														<effectcategory>audiopan</effectcategory>
														<effecttype>audiopan</effecttype>
														<mediatype>audio</mediatype>
														<parameter>
															<name>Pan</name>
															<parameterid>pan</parameterid>
															<valuemin>-1</valuemin>
															<valuemax>1</valuemax>
															<value>0</value>
														</parameter>
													</effect>
												</filter>
												<sourcetrack>
													<mediatype>audio</mediatype>
													<trackindex>2</trackindex>
												</sourcetrack>
												<link>
													<linkclipref>BB0029_01 2</linkclipref>
													<mediatype>video</mediatype>
													<trackindex>1</trackindex>
													<clipindex>1</clipindex>
												</link>
												<link>
													<linkclipref>BB0029_01 4</linkclipref>
													<mediatype>audio</mediatype>
													<trackindex>1</trackindex>
													<clipindex>1</clipindex>
												</link>
												<link>
													<linkclipref>BB0029_01 5</linkclipref>
													<mediatype>audio</mediatype>
													<trackindex>2</trackindex>
													<clipindex>1</clipindex>
												</link>
												<mediadelay>569749</mediadelay>
												<itemhistory>
													<uuid>D6CA2A07-85A3-4657-B034-A8386CF2EEF0</uuid>
												</itemhistory>
											</clipitem>
											<enabled>TRUE</enabled>
											<locked>FALSE</locked>
										</track>
										<filter>
											<effect>
												<name>Audio Levels</name>
												<effectid>audiolevels</effectid>
												<effectcategory>audiolevels</effectcategory>
												<effecttype>audiolevels</effecttype>
												<mediatype>audio</mediatype>
												<parameter>
													<name>Level</name>
													<parameterid>level</parameterid>
													<valuemin>0</valuemin>
													<valuemax>3.98109</valuemax>
													<value>1</value>
												</parameter>
											</effect>
										</filter>
									</audio>
								</media>
							</clip>
						</angle>
						<masterclipid>BB0002_01 6</masterclipid>
					</multiclip>
					<mediadelay>235758</mediadelay>
					<itemhistory>
						<uuid>DD7CA4EF-0088-4CE0-B29C-CB52A1765CF7</uuid>
					</itemhistory>
				</clipitem>
				<enabled>TRUE</enabled>
				<locked>FALSE</locked>
			</track>
			<track>
				<clipitem id="CC0011_01 ">
					<name>CC0011_01</name>
					<duration>478461</duration>
					<rate>
						<ntsc>TRUE</ntsc>
						<timebase>24</timebase>
					</rate>
					<in>155264</in>
					<out>162463</out>
					<start>9956</start>
					<end>17155</end>
					<pixelaspectratio>Square</pixelaspectratio>
					<anamorphic>FALSE</anamorphic>
					<alphatype>none</alphatype>
					<masterclipid>CC0011_01 1</masterclipid>
					<syncoffset>0</syncoffset>
					<logginginfo>
						<scene/>
						<shottake/>
						<lognote/>
						<good>FALSE</good>
					</logginginfo>
					<labels>
						<label>Good Take</label>
						<label2/>
					</labels>
					<comments>
						<mastercomment1/>
						<mastercomment2/>
						<mastercomment3/>
						<mastercomment4/>
					</comments>
					<file id="CC0011_01 2">
						<name>CC0011_01.mov</name>
						<pathurl>file://localhost/Volumes/Share/Edit%20Share/00%20BREW%20DOGS%20S1/BD_00_San_Diego/052413/01_Video/C300/CC0011_01.mov</pathurl>
						<rate>
							<timebase>24</timebase>
							<ntsc>TRUE</ntsc>
						</rate>
						<duration>7200</duration>
						<metadata>
							<storage>QuickTime</storage>
							<key>com.apple.quicktime.creationdate</key>
							<size>24</size>
							<type>UTF8</type>
							<value>2013-05-24T13:35:03-0700</value>
						</metadata>
						<metadata>
							<storage>QuickTime</storage>
							<key>com.apple.finalcutstudio.media.history.uuid</key>
							<size>36</size>
							<type>UTF8</type>
							<value>325F9345-5324-4514-B198-7504B6890B6F</value>
						</metadata>
						<metadata>
							<storage>QuickTime</storage>
							<key>com.apple.finalcutstudio.media.uuid</key>
							<size>36</size>
							<type>UTF8</type>
							<value>D0E52157-B560-424B-8259-1025BD799E3B</value>
						</metadata>
						<metadata>
							<storage>QuickTime</storage>
							<key>com.apple.proapps.reel</key>
							<size>12</size>
							<type>UTF8</type>
							<value>C01_verified</value>
						</metadata>
						<metadata>
							<storage>QuickTime</storage>
							<key>com.apple.proapps.isGood</key>
							<size>4</size>
							<type>unsigned</type>
							<value>0</value>
						</metadata>
						<metadata>
							<storage>QuickTime</storage>
							<key>com.apple.proapps.clipID</key>
							<size>36</size>
							<type>UTF8</type>
							<value>0D3D4064-3664-0580-0000-8500025A0A95</value>
						</metadata>
						<metadata>
							<storage>QuickTime</storage>
							<key>com.apple.proapps.originalFormat</key>
							<size>14</size>
							<type>UTF8</type>
							<value>Canon XF MPEG2</value>
						</metadata>
						<timecode>
							<rate>
								<timebase>24</timebase>
							</rate>
							<string>13:35:00:19</string>
							<frame>1173619</frame>
							<displayformat>NDF</displayformat>
							<source>source</source>
							<reel>
								<name>C01_verified</name>
							</reel>
						</timecode>
						<media>
							<video>
								<duration>7200</duration>
								<samplecharacteristics>
									<width>1920</width>
									<height>1080</height>
								</samplecharacteristics>
							</video>
							<audio>
								<samplecharacteristics>
									<samplerate>48000</samplerate>
									<depth>16</depth>
								</samplecharacteristics>
								<channelcount>1</channelcount>
								<layout>mono</layout>
								<audiochannel>
									<sourcechannel>1</sourcechannel>
									<channellabel>discrete</channellabel>
								</audiochannel>
							</audio>
							<audio>
								<samplecharacteristics>
									<samplerate>48000</samplerate>
									<depth>16</depth>
								</samplecharacteristics>
								<channelcount>1</channelcount>
								<layout>mono</layout>
								<audiochannel>
									<sourcechannel>2</sourcechannel>
									<channellabel>discrete</channellabel>
								</audiochannel>
							</audio>
						</media>
					</file>
					<filter>
						<effect>
							<name>Basic Motion</name>
							<effectid>basic</effectid>
							<effectcategory>motion</effectcategory>
							<effecttype>motion</effecttype>
							<mediatype>video</mediatype>
							<parameter>
								<parameterid>scale</parameterid>
								<name>Scale</name>
								<valuemin>0</valuemin>
								<valuemax>1000</valuemax>
								<value>49</value>
							</parameter>
							<parameter>
								<parameterid>rotation</parameterid>
								<name>Rotation</name>
								<valuemin>-8640</valuemin>
								<valuemax>8640</valuemax>
								<value>0</value>
							</parameter>
							<parameter>
								<parameterid>center</parameterid>
								<name>Center</name>
								<value>
									<horiz>0</horiz>
									<vert>0.248148</vert>
								</value>
							</parameter>
							<parameter>
								<parameterid>centerOffset</parameterid>
								<name>Anchor Point</name>
								<value>
									<horiz>0</horiz>
									<vert>0</vert>
								</value>
							</parameter>
						</effect>
					</filter>
					<sourcetrack>
						<mediatype>video</mediatype>
					</sourcetrack>
					<link>
						<linkclipref>CC0011_01 </linkclipref>
						<mediatype>video</mediatype>
						<trackindex>3</trackindex>
						<clipindex>1</clipindex>
					</link>
					<link>
						<linkclipref>CC0011_01 3</linkclipref>
						<mediatype>audio</mediatype>
						<trackindex>5</trackindex>
						<clipindex>1</clipindex>
					</link>
					<link>
						<linkclipref>CC0011_01 4</linkclipref>
						<mediatype>audio</mediatype>
						<trackindex>6</trackindex>
						<clipindex>1</clipindex>
					</link>
					<fielddominance>none</fielddominance>
					<multiclip id="Multiclip 4 ">
						<name>Multiclip 4</name>
						<collapsed>TRUE</collapsed>
						<synctype>3</synctype>
						<angle>
							<clip id="CC0001_01 ">
								<uuid>E44AF4B5-150F-43AF-B5CC-4C6D110581CD</uuid>
								<updatebehavior>add</updatebehavior>
								<name>CC0001_01</name>
								<duration>478461</duration>
								<rate>
									<ntsc>TRUE</ntsc>
									<timebase>24</timebase>
								</rate>
								<in>-1</in>
								<out>-1</out>
								<anamorphic>FALSE</anamorphic>
								<masterclipid>CC0001_01 1</masterclipid>
								<ismasterclip>FALSE</ismasterclip>
								<logginginfo>
									<scene/>
									<shottake/>
									<lognote/>
									<good>FALSE</good>
								</logginginfo>
								<labels>
									<label>Good Take</label>
									<label2/>
								</labels>
								<comments>
									<mastercomment1/>
									<mastercomment2/>
									<mastercomment3/>
									<mastercomment4/>
								</comments>
								<media>
									<video>
										<track>
											<clipitem id="CC0001_01 2">
												<name>CC0001_01</name>
												<duration>478461</duration>
												<rate>
													<ntsc>TRUE</ntsc>
													<timebase>24</timebase>
												</rate>
												<in>0</in>
												<out>478461</out>
												<start>0</start>
												<end>478461</end>
												<pixelaspectratio>Square</pixelaspectratio>
												<anamorphic>FALSE</anamorphic>
												<alphatype>none</alphatype>
												<masterclipid>CC0001_01 1</masterclipid>
												<syncoffset>0</syncoffset>
												<logginginfo>
													<scene/>
													<shottake/>
													<lognote/>
													<good>FALSE</good>
												</logginginfo>
												<labels>
													<label>Good Take</label>
													<label2/>
												</labels>
												<comments>
													<mastercomment1/>
													<mastercomment2/>
													<mastercomment3/>
													<mastercomment4/>
												</comments>
												<file id="CC0001_01 3">
													<name>CC0001_01.mov</name>
													<pathurl>file://localhost/Volumes/Share/Edit%20Share/00%20BREW%20DOGS%20S1/BD_00_San_Diego/052413/01_Video/C300/CC0001_01.mov</pathurl>
													<rate>
														<timebase>24</timebase>
														<ntsc>TRUE</ntsc>
													</rate>
													<duration>10896</duration>
													<metadata>
														<storage>QuickTime</storage>
														<key>com.apple.quicktime.creationdate</key>
														<size>24</size>
														<type>UTF8</type>
														<value>2013-05-24T11:47:08-0700</value>
													</metadata>
													<metadata>
														<storage>QuickTime</storage>
														<key>com.apple.finalcutstudio.media.history.uuid</key>
														<size>36</size>
														<type>UTF8</type>
														<value>EA0B4772-0557-4D7A-B344-93B7A4756121</value>
													</metadata>
													<metadata>
														<storage>QuickTime</storage>
														<key>com.apple.finalcutstudio.media.uuid</key>
														<size>36</size>
														<type>UTF8</type>
														<value>F039E996-219C-4B6F-8109-867B79DCE552</value>
													</metadata>
													<metadata>
														<storage>QuickTime</storage>
														<key>com.apple.proapps.reel</key>
														<size>12</size>
														<type>UTF8</type>
														<value>C01_verified</value>
													</metadata>
													<metadata>
														<storage>QuickTime</storage>
														<key>com.apple.proapps.isGood</key>
														<size>4</size>
														<type>unsigned</type>
														<value>0</value>
													</metadata>
													<metadata>
														<storage>QuickTime</storage>
														<key>com.apple.proapps.clipID</key>
														<size>36</size>
														<type>UTF8</type>
														<value>0D3752D0-3664-0580-0000-8500025A0A95</value>
													</metadata>
													<metadata>
														<storage>QuickTime</storage>
														<key>com.apple.proapps.originalFormat</key>
														<size>14</size>
														<type>UTF8</type>
														<value>Canon XF MPEG2</value>
													</metadata>
													<timecode>
														<rate>
															<timebase>24</timebase>
														</rate>
														<string>11:47:11:11</string>
														<frame>1018355</frame>
														<displayformat>NDF</displayformat>
														<source>source</source>
														<reel>
															<name>C01_verified</name>
														</reel>
													</timecode>
													<media>
														<video>
															<duration>10896</duration>
															<samplecharacteristics>
																<width>1920</width>
																<height>1080</height>
															</samplecharacteristics>
														</video>
														<audio>
															<samplecharacteristics>
																<samplerate>48000</samplerate>
																<depth>16</depth>
															</samplecharacteristics>
															<channelcount>1</channelcount>
															<layout>mono</layout>
															<audiochannel>
																<sourcechannel>1</sourcechannel>
																<channellabel>discrete</channellabel>
															</audiochannel>
														</audio>
														<audio>
															<samplecharacteristics>
																<samplerate>48000</samplerate>
																<depth>16</depth>
															</samplecharacteristics>
															<channelcount>1</channelcount>
															<layout>mono</layout>
															<audiochannel>
																<sourcechannel>2</sourcechannel>
																<channellabel>discrete</channellabel>
															</audiochannel>
														</audio>
													</media>
												</file>
												<sourcetrack>
													<mediatype>video</mediatype>
												</sourcetrack>
												<link>
													<linkclipref>CC0001_01 2</linkclipref>
													<mediatype>video</mediatype>
													<trackindex>1</trackindex>
													<clipindex>1</clipindex>
												</link>
												<link>
													<linkclipref>CC0001_01 4</linkclipref>
													<mediatype>audio</mediatype>
													<trackindex>1</trackindex>
													<clipindex>1</clipindex>
												</link>
												<link>
													<linkclipref>CC0001_01 5</linkclipref>
													<mediatype>audio</mediatype>
													<trackindex>2</trackindex>
													<clipindex>1</clipindex>
												</link>
												<fielddominance>none</fielddominance>
												<itemhistory>
													<uuid>35D2148F-397F-4136-AB98-B30FBC6E3F91</uuid>
												</itemhistory>
											</clipitem>
											<enabled>TRUE</enabled>
											<locked>FALSE</locked>
										</track>
									</video>
									<audio>
										<outputs>
											<group>
												<index>1</index>
												<numchannels>2</numchannels>
												<downmix>0</downmix>
												<channel>
													<index>1</index>
												</channel>
												<channel>
													<index>2</index>
												</channel>
											</group>
										</outputs>
										<in>-1</in>
										<out>-1</out>
										<track>
											<clipitem id="CC0001_01 4">
												<name>CC0001_01</name>
												<duration>478461</duration>
												<rate>
													<ntsc>TRUE</ntsc>
													<timebase>24</timebase>
												</rate>
												<in>0</in>
												<out>478461</out>
												<start>0</start>
												<end>478461</end>
												<subframeoffset>0</subframeoffset>
												<anamorphic>FALSE</anamorphic>
												<masterclipid>CC0001_01 1</masterclipid>
												<syncoffset>0</syncoffset>
												<logginginfo>
													<scene/>
													<shottake/>
													<lognote/>
													<good>FALSE</good>
												</logginginfo>
												<labels>
													<label>Good Take</label>
													<label2/>
												</labels>
												<comments>
													<mastercomment1/>
													<mastercomment2/>
													<mastercomment3/>
													<mastercomment4/>
												</comments>
												<file id="CC0001_01 3"/>
												<filter>
													<effect>
														<name>Audio Levels</name>
														<effectid>audiolevels</effectid>
														<effectcategory>audiolevels</effectcategory>
														<effecttype>audiolevels</effecttype>
														<mediatype>audio</mediatype>
														<parameter>
															<name>Level</name>
															<parameterid>level</parameterid>
															<valuemin>0</valuemin>
															<valuemax>3.98109</valuemax>
															<value>1</value>
														</parameter>
													</effect>
												</filter>
												<filter>
													<effect>
														<name>Audio Pan</name>
														<effectid>audiopan</effectid>
														<effectcategory>audiopan</effectcategory>
														<effecttype>audiopan</effecttype>
														<mediatype>audio</mediatype>
														<parameter>
															<name>Pan</name>
															<parameterid>pan</parameterid>
															<valuemin>-1</valuemin>
															<valuemax>1</valuemax>
															<value>0</value>
														</parameter>
													</effect>
												</filter>
												<sourcetrack>
													<mediatype>audio</mediatype>
													<trackindex>1</trackindex>
												</sourcetrack>
												<link>
													<linkclipref>CC0001_01 2</linkclipref>
													<mediatype>video</mediatype>
													<trackindex>1</trackindex>
													<clipindex>1</clipindex>
												</link>
												<link>
													<linkclipref>CC0001_01 4</linkclipref>
													<mediatype>audio</mediatype>
													<trackindex>1</trackindex>
													<clipindex>1</clipindex>
												</link>
												<link>
													<linkclipref>CC0001_01 5</linkclipref>
													<mediatype>audio</mediatype>
													<trackindex>2</trackindex>
													<clipindex>1</clipindex>
												</link>
												<itemhistory>
													<uuid>74273ED1-3434-4A9C-9D5F-9198A8852084</uuid>
												</itemhistory>
											</clipitem>
											<enabled>TRUE</enabled>
											<locked>FALSE</locked>
										</track>
										<track>
											<clipitem id="CC0001_01 5">
												<name>CC0001_01</name>
												<duration>478461</duration>
												<rate>
													<ntsc>TRUE</ntsc>
													<timebase>24</timebase>
												</rate>
												<in>0</in>
												<out>478461</out>
												<start>0</start>
												<end>478461</end>
												<subframeoffset>0</subframeoffset>
												<anamorphic>FALSE</anamorphic>
												<masterclipid>CC0001_01 1</masterclipid>
												<syncoffset>0</syncoffset>
												<logginginfo>
													<scene/>
													<shottake/>
													<lognote/>
													<good>FALSE</good>
												</logginginfo>
												<labels>
													<label>Good Take</label>
													<label2/>
												</labels>
												<comments>
													<mastercomment1/>
													<mastercomment2/>
													<mastercomment3/>
													<mastercomment4/>
												</comments>
												<file id="CC0001_01 3"/>
												<filter>
													<effect>
														<name>Audio Levels</name>
														<effectid>audiolevels</effectid>
														<effectcategory>audiolevels</effectcategory>
														<effecttype>audiolevels</effecttype>
														<mediatype>audio</mediatype>
														<parameter>
															<name>Level</name>
															<parameterid>level</parameterid>
															<valuemin>0</valuemin>
															<valuemax>3.98109</valuemax>
															<value>1</value>
														</parameter>
													</effect>
												</filter>
												<filter>
													<effect>
														<name>Audio Pan</name>
														<effectid>audiopan</effectid>
														<effectcategory>audiopan</effectcategory>
														<effecttype>audiopan</effecttype>
														<mediatype>audio</mediatype>
														<parameter>
															<name>Pan</name>
															<parameterid>pan</parameterid>
															<valuemin>-1</valuemin>
															<valuemax>1</valuemax>
															<value>0</value>
														</parameter>
													</effect>
												</filter>
												<sourcetrack>
													<mediatype>audio</mediatype>
													<trackindex>2</trackindex>
												</sourcetrack>
												<link>
													<linkclipref>CC0001_01 2</linkclipref>
													<mediatype>video</mediatype>
													<trackindex>1</trackindex>
													<clipindex>1</clipindex>
												</link>
												<link>
													<linkclipref>CC0001_01 4</linkclipref>
													<mediatype>audio</mediatype>
													<trackindex>1</trackindex>
													<clipindex>1</clipindex>
												</link>
												<link>
													<linkclipref>CC0001_01 5</linkclipref>
													<mediatype>audio</mediatype>
													<trackindex>2</trackindex>
													<clipindex>1</clipindex>
												</link>
												<itemhistory>
													<uuid>73E18BC1-6DFE-4504-935E-7E649C961BFA</uuid>
												</itemhistory>
											</clipitem>
											<enabled>TRUE</enabled>
											<locked>FALSE</locked>
										</track>
										<filter>
											<effect>
												<name>Audio Levels</name>
												<effectid>audiolevels</effectid>
												<effectcategory>audiolevels</effectcategory>
												<effecttype>audiolevels</effecttype>
												<mediatype>audio</mediatype>
												<parameter>
													<name>Level</name>
													<parameterid>level</parameterid>
													<valuemin>0</valuemin>
													<valuemax>3.98109</valuemax>
													<value>1</value>
												</parameter>
											</effect>
										</filter>
									</audio>
								</media>
							</clip>
						</angle>
						<angle>
							<clip id="CC0002_01 ">
								<uuid>DADFD7CD-969B-4AF2-890A-904667F4C6C6</uuid>
								<updatebehavior>add</updatebehavior>
								<name>CC0002_01</name>
								<duration>478461</duration>
								<rate>
									<ntsc>TRUE</ntsc>
									<timebase>24</timebase>
								</rate>
								<in>-1</in>
								<out>-1</out>
								<anamorphic>FALSE</anamorphic>
								<masterclipid>CC0002_01 1</masterclipid>
								<ismasterclip>FALSE</ismasterclip>
								<logginginfo>
									<scene/>
									<shottake/>
									<lognote/>
									<good>FALSE</good>
								</logginginfo>
								<labels>
									<label>Good Take</label>
									<label2/>
								</labels>
								<comments>
									<mastercomment1/>
									<mastercomment2/>
									<mastercomment3/>
									<mastercomment4/>
								</comments>
								<media>
									<video>
										<track>
											<clipitem id="CC0002_01 2">
												<name>CC0002_01</name>
												<duration>478461</duration>
												<rate>
													<ntsc>TRUE</ntsc>
													<timebase>24</timebase>
												</rate>
												<in>0</in>
												<out>478461</out>
												<start>0</start>
												<end>478461</end>
												<pixelaspectratio>Square</pixelaspectratio>
												<anamorphic>FALSE</anamorphic>
												<alphatype>none</alphatype>
												<masterclipid>CC0002_01 1</masterclipid>
												<syncoffset>0</syncoffset>
												<logginginfo>
													<scene/>
													<shottake/>
													<lognote/>
													<good>FALSE</good>
												</logginginfo>
												<labels>
													<label>Good Take</label>
													<label2/>
												</labels>
												<comments>
													<mastercomment1/>
													<mastercomment2/>
													<mastercomment3/>
													<mastercomment4/>
												</comments>
												<file id="CC0002_01 3">
													<name>CC0002_01.mov</name>
													<pathurl>file://localhost/Volumes/Share/Edit%20Share/00%20BREW%20DOGS%20S1/BD_00_San_Diego/052413/01_Video/C300/CC0002_01.mov</pathurl>
													<rate>
														<timebase>24</timebase>
														<ntsc>TRUE</ntsc>
													</rate>
													<duration>8016</duration>
													<metadata>
														<storage>QuickTime</storage>
														<key>com.apple.quicktime.creationdate</key>
														<size>24</size>
														<type>UTF8</type>
														<value>2013-05-24T11:55:02-0700</value>
													</metadata>
													<metadata>
														<storage>QuickTime</storage>
														<key>com.apple.finalcutstudio.media.history.uuid</key>
														<size>36</size>
														<type>UTF8</type>
														<value>DEF5D519-1D5A-4789-88E1-E468754CE083</value>
													</metadata>
													<metadata>
														<storage>QuickTime</storage>
														<key>com.apple.finalcutstudio.media.uuid</key>
														<size>36</size>
														<type>UTF8</type>
														<value>1F8DEB9C-2DAB-44EB-8713-7CB900DE7739</value>
													</metadata>
													<metadata>
														<storage>QuickTime</storage>
														<key>com.apple.proapps.reel</key>
														<size>12</size>
														<type>UTF8</type>
														<value>C01_verified</value>
													</metadata>
													<metadata>
														<storage>QuickTime</storage>
														<key>com.apple.proapps.isGood</key>
														<size>4</size>
														<type>unsigned</type>
														<value>0</value>
													</metadata>
													<metadata>
														<storage>QuickTime</storage>
														<key>com.apple.proapps.clipID</key>
														<size>36</size>
														<type>UTF8</type>
														<value>0D37C1E8-3664-0580-0000-8500025A0A95</value>
													</metadata>
													<metadata>
														<storage>QuickTime</storage>
														<key>com.apple.proapps.originalFormat</key>
														<size>14</size>
														<type>UTF8</type>
														<value>Canon XF MPEG2</value>
													</metadata>
													<timecode>
														<rate>
															<timebase>24</timebase>
														</rate>
														<string>11:55:04:23</string>
														<frame>1029719</frame>
														<displayformat>NDF</displayformat>
														<source>source</source>
														<reel>
															<name>C01_verified</name>
														</reel>
													</timecode>
													<media>
														<video>
															<duration>8016</duration>
															<samplecharacteristics>
																<width>1920</width>
																<height>1080</height>
															</samplecharacteristics>
														</video>
														<audio>
															<samplecharacteristics>
																<samplerate>48000</samplerate>
																<depth>16</depth>
															</samplecharacteristics>
															<channelcount>1</channelcount>
															<layout>mono</layout>
															<audiochannel>
																<sourcechannel>1</sourcechannel>
																<channellabel>discrete</channellabel>
															</audiochannel>
														</audio>
														<audio>
															<samplecharacteristics>
																<samplerate>48000</samplerate>
																<depth>16</depth>
															</samplecharacteristics>
															<channelcount>1</channelcount>
															<layout>mono</layout>
															<audiochannel>
																<sourcechannel>2</sourcechannel>
																<channellabel>discrete</channellabel>
															</audiochannel>
														</audio>
													</media>
												</file>
												<sourcetrack>
													<mediatype>video</mediatype>
												</sourcetrack>
												<link>
													<linkclipref>CC0002_01 2</linkclipref>
													<mediatype>video</mediatype>
													<trackindex>1</trackindex>
													<clipindex>1</clipindex>
												</link>
												<link>
													<linkclipref>CC0002_01 4</linkclipref>
													<mediatype>audio</mediatype>
													<trackindex>1</trackindex>
													<clipindex>1</clipindex>
												</link>
												<link>
													<linkclipref>CC0002_01 5</linkclipref>
													<mediatype>audio</mediatype>
													<trackindex>2</trackindex>
													<clipindex>1</clipindex>
												</link>
												<fielddominance>none</fielddominance>
												<mediadelay>11364</mediadelay>
												<itemhistory>
													<uuid>29387DF6-ADB5-4C7C-B652-0B3B4FC6E503</uuid>
												</itemhistory>
											</clipitem>
											<enabled>TRUE</enabled>
											<locked>FALSE</locked>
										</track>
									</video>
									<audio>
										<outputs>
											<group>
												<index>1</index>
												<numchannels>2</numchannels>
												<downmix>0</downmix>
												<channel>
													<index>1</index>
												</channel>
												<channel>
													<index>2</index>
												</channel>
											</group>
										</outputs>
										<in>-1</in>
										<out>-1</out>
										<track>
											<clipitem id="CC0002_01 4">
												<name>CC0002_01</name>
												<duration>478461</duration>
												<rate>
													<ntsc>TRUE</ntsc>
													<timebase>24</timebase>
												</rate>
												<in>0</in>
												<out>478461</out>
												<start>0</start>
												<end>478461</end>
												<subframeoffset>0</subframeoffset>
												<anamorphic>FALSE</anamorphic>
												<masterclipid>CC0002_01 1</masterclipid>
												<syncoffset>0</syncoffset>
												<logginginfo>
													<scene/>
													<shottake/>
													<lognote/>
													<good>FALSE</good>
												</logginginfo>
												<labels>
													<label>Good Take</label>
													<label2/>
												</labels>
												<comments>
													<mastercomment1/>
													<mastercomment2/>
													<mastercomment3/>
													<mastercomment4/>
												</comments>
												<file id="CC0002_01 3"/>
												<filter>
													<effect>
														<name>Audio Levels</name>
														<effectid>audiolevels</effectid>
														<effectcategory>audiolevels</effectcategory>
														<effecttype>audiolevels</effecttype>
														<mediatype>audio</mediatype>
														<parameter>
															<name>Level</name>
															<parameterid>level</parameterid>
															<valuemin>0</valuemin>
															<valuemax>3.98109</valuemax>
															<value>1</value>
														</parameter>
													</effect>
												</filter>
												<filter>
													<effect>
														<name>Audio Pan</name>
														<effectid>audiopan</effectid>
														<effectcategory>audiopan</effectcategory>
														<effecttype>audiopan</effecttype>
														<mediatype>audio</mediatype>
														<parameter>
															<name>Pan</name>
															<parameterid>pan</parameterid>
															<valuemin>-1</valuemin>
															<valuemax>1</valuemax>
															<value>0</value>
														</parameter>
													</effect>
												</filter>
												<sourcetrack>
													<mediatype>audio</mediatype>
													<trackindex>1</trackindex>
												</sourcetrack>
												<link>
													<linkclipref>CC0002_01 2</linkclipref>
													<mediatype>video</mediatype>
													<trackindex>1</trackindex>
													<clipindex>1</clipindex>
												</link>
												<link>
													<linkclipref>CC0002_01 4</linkclipref>
													<mediatype>audio</mediatype>
													<trackindex>1</trackindex>
													<clipindex>1</clipindex>
												</link>
												<link>
													<linkclipref>CC0002_01 5</linkclipref>
													<mediatype>audio</mediatype>
													<trackindex>2</trackindex>
													<clipindex>1</clipindex>
												</link>
												<mediadelay>11364</mediadelay>
												<itemhistory>
													<uuid>D4DC7D54-CE6D-43E3-A3E4-56B6BFCE5902</uuid>
												</itemhistory>
											</clipitem>
											<enabled>TRUE</enabled>
											<locked>FALSE</locked>
										</track>
										<track>
											<clipitem id="CC0002_01 5">
												<name>CC0002_01</name>
												<duration>478461</duration>
												<rate>
													<ntsc>TRUE</ntsc>
													<timebase>24</timebase>
												</rate>
												<in>0</in>
												<out>478461</out>
												<start>0</start>
												<end>478461</end>
												<subframeoffset>0</subframeoffset>
												<anamorphic>FALSE</anamorphic>
												<masterclipid>CC0002_01 1</masterclipid>
												<syncoffset>0</syncoffset>
												<logginginfo>
													<scene/>
													<shottake/>
													<lognote/>
													<good>FALSE</good>
												</logginginfo>
												<labels>
													<label>Good Take</label>
													<label2/>
												</labels>
												<comments>
													<mastercomment1/>
													<mastercomment2/>
													<mastercomment3/>
													<mastercomment4/>
												</comments>
												<file id="CC0002_01 3"/>
												<filter>
													<effect>
														<name>Audio Levels</name>
														<effectid>audiolevels</effectid>
														<effectcategory>audiolevels</effectcategory>
														<effecttype>audiolevels</effecttype>
														<mediatype>audio</mediatype>
														<parameter>
															<name>Level</name>
															<parameterid>level</parameterid>
															<valuemin>0</valuemin>
															<valuemax>3.98109</valuemax>
															<value>1</value>
														</parameter>
													</effect>
												</filter>
												<filter>
													<effect>
														<name>Audio Pan</name>
														<effectid>audiopan</effectid>
														<effectcategory>audiopan</effectcategory>
														<effecttype>audiopan</effecttype>
														<mediatype>audio</mediatype>
														<parameter>
															<name>Pan</name>
															<parameterid>pan</parameterid>
															<valuemin>-1</valuemin>
															<valuemax>1</valuemax>
															<value>0</value>
														</parameter>
													</effect>
												</filter>
												<sourcetrack>
													<mediatype>audio</mediatype>
													<trackindex>2</trackindex>
												</sourcetrack>
												<link>
													<linkclipref>CC0002_01 2</linkclipref>
													<mediatype>video</mediatype>
													<trackindex>1</trackindex>
													<clipindex>1</clipindex>
												</link>
												<link>
													<linkclipref>CC0002_01 4</linkclipref>
													<mediatype>audio</mediatype>
													<trackindex>1</trackindex>
													<clipindex>1</clipindex>
												</link>
												<link>
													<linkclipref>CC0002_01 5</linkclipref>
													<mediatype>audio</mediatype>
													<trackindex>2</trackindex>
													<clipindex>1</clipindex>
												</link>
												<mediadelay>11364</mediadelay>
												<itemhistory>
													<uuid>3E0B672F-64FC-40DF-8910-DB1EB8149A47</uuid>
												</itemhistory>
											</clipitem>
											<enabled>TRUE</enabled>
											<locked>FALSE</locked>
										</track>
										<filter>
											<effect>
												<name>Audio Levels</name>
												<effectid>audiolevels</effectid>
												<effectcategory>audiolevels</effectcategory>
												<effecttype>audiolevels</effecttype>
												<mediatype>audio</mediatype>
												<parameter>
													<name>Level</name>
													<parameterid>level</parameterid>
													<valuemin>0</valuemin>
													<valuemax>3.98109</valuemax>
													<value>1</value>
												</parameter>
											</effect>
										</filter>
									</audio>
								</media>
							</clip>
						</angle>
						<angle>
							<clip id="CC0003_01 ">
								<uuid>F794D000-D2BA-4976-91B4-CDCC3E3CA754</uuid>
								<updatebehavior>add</updatebehavior>
								<name>CC0003_01</name>
								<duration>478461</duration>
								<rate>
									<ntsc>TRUE</ntsc>
									<timebase>24</timebase>
								</rate>
								<in>-1</in>
								<out>-1</out>
								<anamorphic>FALSE</anamorphic>
								<masterclipid>CC0003_01 1</masterclipid>
								<ismasterclip>FALSE</ismasterclip>
								<logginginfo>
									<scene/>
									<shottake/>
									<lognote/>
									<good>FALSE</good>
								</logginginfo>
								<labels>
									<label>Good Take</label>
									<label2/>
								</labels>
								<comments>
									<mastercomment1/>
									<mastercomment2/>
									<mastercomment3/>
									<mastercomment4/>
								</comments>
								<media>
									<video>
										<track>
											<clipitem id="CC0003_01 2">
												<name>CC0003_01</name>
												<duration>478461</duration>
												<rate>
													<ntsc>TRUE</ntsc>
													<timebase>24</timebase>
												</rate>
												<in>0</in>
												<out>478461</out>
												<start>0</start>
												<end>478461</end>
												<pixelaspectratio>Square</pixelaspectratio>
												<anamorphic>FALSE</anamorphic>
												<alphatype>none</alphatype>
												<masterclipid>CC0003_01 1</masterclipid>
												<syncoffset>0</syncoffset>
												<logginginfo>
													<scene/>
													<shottake/>
													<lognote/>
													<good>FALSE</good>
												</logginginfo>
												<labels>
													<label>Good Take</label>
													<label2/>
												</labels>
												<comments>
													<mastercomment1/>
													<mastercomment2/>
													<mastercomment3/>
													<mastercomment4/>
												</comments>
												<file id="CC0003_01 3">
													<name>CC0003_01.mov</name>
													<pathurl>file://localhost/Volumes/Share/Edit%20Share/00%20BREW%20DOGS%20S1/BD_00_San_Diego/052413/01_Video/C300/CC0003_01.mov</pathurl>
													<rate>
														<timebase>24</timebase>
														<ntsc>TRUE</ntsc>
													</rate>
													<duration>22944</duration>
													<metadata>
														<storage>QuickTime</storage>
														<key>com.apple.quicktime.creationdate</key>
														<size>24</size>
														<type>UTF8</type>
														<value>2013-05-24T12:13:45-0700</value>
													</metadata>
													<metadata>
														<storage>QuickTime</storage>
														<key>com.apple.finalcutstudio.media.history.uuid</key>
														<size>36</size>
														<type>UTF8</type>
														<value>2BAB5169-3091-4A25-9B5A-1E132FB4DB5F</value>
													</metadata>
													<metadata>
														<storage>QuickTime</storage>
														<key>com.apple.finalcutstudio.media.uuid</key>
														<size>36</size>
														<type>UTF8</type>
														<value>19A4DD0F-5B34-4761-B644-978581E3968A</value>
													</metadata>
													<metadata>
														<storage>QuickTime</storage>
														<key>com.apple.proapps.reel</key>
														<size>12</size>
														<type>UTF8</type>
														<value>C01_verified</value>
													</metadata>
													<metadata>
														<storage>QuickTime</storage>
														<key>com.apple.proapps.isGood</key>
														<size>4</size>
														<type>unsigned</type>
														<value>0</value>
													</metadata>
													<metadata>
														<storage>QuickTime</storage>
														<key>com.apple.proapps.clipID</key>
														<size>36</size>
														<type>UTF8</type>
														<value>0D38C91C-3664-0580-0000-8500025A0A95</value>
													</metadata>
													<metadata>
														<storage>QuickTime</storage>
														<key>com.apple.proapps.originalFormat</key>
														<size>14</size>
														<type>UTF8</type>
														<value>Canon XF MPEG2</value>
													</metadata>
													<timecode>
														<rate>
															<timebase>24</timebase>
														</rate>
														<string>12:13:47:06</string>
														<frame>1056654</frame>
														<displayformat>NDF</displayformat>
														<source>source</source>
														<reel>
															<name>C01_verified</name>
														</reel>
													</timecode>
													<media>
														<video>
															<duration>22944</duration>
															<samplecharacteristics>
																<width>1920</width>
																<height>1080</height>
															</samplecharacteristics>
														</video>
														<audio>
															<samplecharacteristics>
																<samplerate>48000</samplerate>
																<depth>16</depth>
															</samplecharacteristics>
															<channelcount>1</channelcount>
															<layout>mono</layout>
															<audiochannel>
																<sourcechannel>1</sourcechannel>
																<channellabel>discrete</channellabel>
															</audiochannel>
														</audio>
														<audio>
															<samplecharacteristics>
																<samplerate>48000</samplerate>
																<depth>16</depth>
															</samplecharacteristics>
															<channelcount>1</channelcount>
															<layout>mono</layout>
															<audiochannel>
																<sourcechannel>2</sourcechannel>
																<channellabel>discrete</channellabel>
															</audiochannel>
														</audio>
													</media>
												</file>
												<sourcetrack>
													<mediatype>video</mediatype>
												</sourcetrack>
												<link>
													<linkclipref>CC0003_01 2</linkclipref>
													<mediatype>video</mediatype>
													<trackindex>1</trackindex>
													<clipindex>1</clipindex>
												</link>
												<link>
													<linkclipref>CC0003_01 4</linkclipref>
													<mediatype>audio</mediatype>
													<trackindex>1</trackindex>
													<clipindex>1</clipindex>
												</link>
												<link>
													<linkclipref>CC0003_01 5</linkclipref>
													<mediatype>audio</mediatype>
													<trackindex>2</trackindex>
													<clipindex>1</clipindex>
												</link>
												<fielddominance>none</fielddominance>
												<mediadelay>38299</mediadelay>
												<itemhistory>
													<uuid>A6180B22-76A0-4DB8-A796-7187B940ED38</uuid>
												</itemhistory>
											</clipitem>
											<enabled>TRUE</enabled>
											<locked>FALSE</locked>
										</track>
									</video>
									<audio>
										<outputs>
											<group>
												<index>1</index>
												<numchannels>2</numchannels>
												<downmix>0</downmix>
												<channel>
													<index>1</index>
												</channel>
												<channel>
													<index>2</index>
												</channel>
											</group>
										</outputs>
										<in>-1</in>
										<out>-1</out>
										<track>
											<clipitem id="CC0003_01 4">
												<name>CC0003_01</name>
												<duration>478461</duration>
												<rate>
													<ntsc>TRUE</ntsc>
													<timebase>24</timebase>
												</rate>
												<in>0</in>
												<out>478461</out>
												<start>0</start>
												<end>478461</end>
												<subframeoffset>0</subframeoffset>
												<anamorphic>FALSE</anamorphic>
												<masterclipid>CC0003_01 1</masterclipid>
												<syncoffset>0</syncoffset>
												<logginginfo>
													<scene/>
													<shottake/>
													<lognote/>
													<good>FALSE</good>
												</logginginfo>
												<labels>
													<label>Good Take</label>
													<label2/>
												</labels>
												<comments>
													<mastercomment1/>
													<mastercomment2/>
													<mastercomment3/>
													<mastercomment4/>
												</comments>
												<file id="CC0003_01 3"/>
												<filter>
													<effect>
														<name>Audio Levels</name>
														<effectid>audiolevels</effectid>
														<effectcategory>audiolevels</effectcategory>
														<effecttype>audiolevels</effecttype>
														<mediatype>audio</mediatype>
														<parameter>
															<name>Level</name>
															<parameterid>level</parameterid>
															<valuemin>0</valuemin>
															<valuemax>3.98109</valuemax>
															<value>1</value>
														</parameter>
													</effect>
												</filter>
												<filter>
													<effect>
														<name>Audio Pan</name>
														<effectid>audiopan</effectid>
														<effectcategory>audiopan</effectcategory>
														<effecttype>audiopan</effecttype>
														<mediatype>audio</mediatype>
														<parameter>
															<name>Pan</name>
															<parameterid>pan</parameterid>
															<valuemin>-1</valuemin>
															<valuemax>1</valuemax>
															<value>0</value>
														</parameter>
													</effect>
												</filter>
												<sourcetrack>
													<mediatype>audio</mediatype>
													<trackindex>1</trackindex>
												</sourcetrack>
												<link>
													<linkclipref>CC0003_01 2</linkclipref>
													<mediatype>video</mediatype>
													<trackindex>1</trackindex>
													<clipindex>1</clipindex>
												</link>
												<link>
													<linkclipref>CC0003_01 4</linkclipref>
													<mediatype>audio</mediatype>
													<trackindex>1</trackindex>
													<clipindex>1</clipindex>
												</link>
												<link>
													<linkclipref>CC0003_01 5</linkclipref>
													<mediatype>audio</mediatype>
													<trackindex>2</trackindex>
													<clipindex>1</clipindex>
												</link>
												<mediadelay>38299</mediadelay>
												<itemhistory>
													<uuid>B36E268F-9450-4B76-AA41-505C170564D8</uuid>
												</itemhistory>
											</clipitem>
											<enabled>TRUE</enabled>
											<locked>FALSE</locked>
										</track>
										<track>
											<clipitem id="CC0003_01 5">
												<name>CC0003_01</name>
												<duration>478461</duration>
												<rate>
													<ntsc>TRUE</ntsc>
													<timebase>24</timebase>
												</rate>
												<in>0</in>
												<out>478461</out>
												<start>0</start>
												<end>478461</end>
												<subframeoffset>0</subframeoffset>
												<anamorphic>FALSE</anamorphic>
												<masterclipid>CC0003_01 1</masterclipid>
												<syncoffset>0</syncoffset>
												<logginginfo>
													<scene/>
													<shottake/>
													<lognote/>
													<good>FALSE</good>
												</logginginfo>
												<labels>
													<label>Good Take</label>
													<label2/>
												</labels>
												<comments>
													<mastercomment1/>
													<mastercomment2/>
													<mastercomment3/>
													<mastercomment4/>
												</comments>
												<file id="CC0003_01 3"/>
												<filter>
													<effect>
														<name>Audio Levels</name>
														<effectid>audiolevels</effectid>
														<effectcategory>audiolevels</effectcategory>
														<effecttype>audiolevels</effecttype>
														<mediatype>audio</mediatype>
														<parameter>
															<name>Level</name>
															<parameterid>level</parameterid>
															<valuemin>0</valuemin>
															<valuemax>3.98109</valuemax>
															<value>1</value>
														</parameter>
													</effect>
												</filter>
												<filter>
													<effect>
														<name>Audio Pan</name>
														<effectid>audiopan</effectid>
														<effectcategory>audiopan</effectcategory>
														<effecttype>audiopan</effecttype>
														<mediatype>audio</mediatype>
														<parameter>
															<name>Pan</name>
															<parameterid>pan</parameterid>
															<valuemin>-1</valuemin>
															<valuemax>1</valuemax>
															<value>0</value>
														</parameter>
													</effect>
												</filter>
												<sourcetrack>
													<mediatype>audio</mediatype>
													<trackindex>2</trackindex>
												</sourcetrack>
												<link>
													<linkclipref>CC0003_01 2</linkclipref>
													<mediatype>video</mediatype>
													<trackindex>1</trackindex>
													<clipindex>1</clipindex>
												</link>
												<link>
													<linkclipref>CC0003_01 4</linkclipref>
													<mediatype>audio</mediatype>
													<trackindex>1</trackindex>
													<clipindex>1</clipindex>
												</link>
												<link>
													<linkclipref>CC0003_01 5</linkclipref>
													<mediatype>audio</mediatype>
													<trackindex>2</trackindex>
													<clipindex>1</clipindex>
												</link>
												<mediadelay>38299</mediadelay>
												<itemhistory>
													<uuid>4732C529-BD78-4C62-9652-2737C10E2A50</uuid>
												</itemhistory>
											</clipitem>
											<enabled>TRUE</enabled>
											<locked>FALSE</locked>
										</track>
										<filter>
											<effect>
												<name>Audio Levels</name>
												<effectid>audiolevels</effectid>
												<effectcategory>audiolevels</effectcategory>
												<effecttype>audiolevels</effecttype>
												<mediatype>audio</mediatype>
												<parameter>
													<name>Level</name>
													<parameterid>level</parameterid>
													<valuemin>0</valuemin>
													<valuemax>3.98109</valuemax>
													<value>1</value>
												</parameter>
											</effect>
										</filter>
									</audio>
								</media>
							</clip>
						</angle>
						<angle>
							<clip id="CC0004_01 ">
								<uuid>314DB0E9-5680-409B-8EEC-39343926E718</uuid>
								<updatebehavior>add</updatebehavior>
								<name>CC0004_01</name>
								<duration>478461</duration>
								<rate>
									<ntsc>TRUE</ntsc>
									<timebase>24</timebase>
								</rate>
								<in>-1</in>
								<out>-1</out>
								<anamorphic>FALSE</anamorphic>
								<masterclipid>CC0004_01 1</masterclipid>
								<ismasterclip>FALSE</ismasterclip>
								<logginginfo>
									<scene/>
									<shottake/>
									<lognote/>
									<good>FALSE</good>
								</logginginfo>
								<labels>
									<label>Good Take</label>
									<label2/>
								</labels>
								<comments>
									<mastercomment1/>
									<mastercomment2/>
									<mastercomment3/>
									<mastercomment4/>
								</comments>
								<media>
									<video>
										<track>
											<clipitem id="CC0004_01 2">
												<name>CC0004_01</name>
												<duration>478461</duration>
												<rate>
													<ntsc>TRUE</ntsc>
													<timebase>24</timebase>
												</rate>
												<in>0</in>
												<out>478461</out>
												<start>0</start>
												<end>478461</end>
												<pixelaspectratio>Square</pixelaspectratio>
												<anamorphic>FALSE</anamorphic>
												<alphatype>none</alphatype>
												<masterclipid>CC0004_01 1</masterclipid>
												<syncoffset>0</syncoffset>
												<logginginfo>
													<scene/>
													<shottake/>
													<lognote/>
													<good>FALSE</good>
												</logginginfo>
												<labels>
													<label>Good Take</label>
													<label2/>
												</labels>
												<comments>
													<mastercomment1/>
													<mastercomment2/>
													<mastercomment3/>
													<mastercomment4/>
												</comments>
												<file id="CC0004_01 3">
													<name>CC0004_01.mov</name>
													<pathurl>file://localhost/Volumes/Share/Edit%20Share/00%20BREW%20DOGS%20S1/BD_00_San_Diego/052413/01_Video/C300/CC0004_01.mov</pathurl>
													<rate>
														<timebase>24</timebase>
														<ntsc>TRUE</ntsc>
													</rate>
													<duration>612</duration>
													<metadata>
														<storage>QuickTime</storage>
														<key>com.apple.quicktime.creationdate</key>
														<size>24</size>
														<type>UTF8</type>
														<value>2013-05-24T12:29:43-0700</value>
													</metadata>
													<metadata>
														<storage>QuickTime</storage>
														<key>com.apple.finalcutstudio.media.history.uuid</key>
														<size>36</size>
														<type>UTF8</type>
														<value>445C3B27-F211-435D-9E5B-12E50127149C</value>
													</metadata>
													<metadata>
														<storage>QuickTime</storage>
														<key>com.apple.finalcutstudio.media.uuid</key>
														<size>36</size>
														<type>UTF8</type>
														<value>E371FAA0-F5FD-47E8-92F6-BE44FF2C9DB0</value>
													</metadata>
													<metadata>
														<storage>QuickTime</storage>
														<key>com.apple.proapps.reel</key>
														<size>12</size>
														<type>UTF8</type>
														<value>C01_verified</value>
													</metadata>
													<metadata>
														<storage>QuickTime</storage>
														<key>com.apple.proapps.isGood</key>
														<size>4</size>
														<type>unsigned</type>
														<value>0</value>
													</metadata>
													<metadata>
														<storage>QuickTime</storage>
														<key>com.apple.proapps.clipID</key>
														<size>36</size>
														<type>UTF8</type>
														<value>0D39A9A4-3664-0580-0000-8500025A0A95</value>
													</metadata>
													<metadata>
														<storage>QuickTime</storage>
														<key>com.apple.proapps.originalFormat</key>
														<size>14</size>
														<type>UTF8</type>
														<value>Canon XF MPEG2</value>
													</metadata>
													<timecode>
														<rate>
															<timebase>24</timebase>
														</rate>
														<string>12:29:44:10</string>
														<frame>1079626</frame>
														<displayformat>NDF</displayformat>
														<source>source</source>
														<reel>
															<name>C01_verified</name>
														</reel>
													</timecode>
													<media>
														<video>
															<duration>612</duration>
															<samplecharacteristics>
																<width>1920</width>
																<height>1080</height>
															</samplecharacteristics>
														</video>
														<audio>
															<samplecharacteristics>
																<samplerate>48000</samplerate>
																<depth>16</depth>
															</samplecharacteristics>
															<channelcount>1</channelcount>
															<layout>mono</layout>
															<audiochannel>
																<sourcechannel>1</sourcechannel>
																<channellabel>discrete</channellabel>
															</audiochannel>
														</audio>
														<audio>
															<samplecharacteristics>
																<samplerate>48000</samplerate>
																<depth>16</depth>
															</samplecharacteristics>
															<channelcount>1</channelcount>
															<layout>mono</layout>
															<audiochannel>
																<sourcechannel>2</sourcechannel>
																<channellabel>discrete</channellabel>
															</audiochannel>
														</audio>
													</media>
												</file>
												<sourcetrack>
													<mediatype>video</mediatype>
												</sourcetrack>
												<link>
													<linkclipref>CC0004_01 2</linkclipref>
													<mediatype>video</mediatype>
													<trackindex>1</trackindex>
													<clipindex>1</clipindex>
												</link>
												<link>
													<linkclipref>CC0004_01 4</linkclipref>
													<mediatype>audio</mediatype>
													<trackindex>1</trackindex>
													<clipindex>1</clipindex>
												</link>
												<link>
													<linkclipref>CC0004_01 5</linkclipref>
													<mediatype>audio</mediatype>
													<trackindex>2</trackindex>
													<clipindex>1</clipindex>
												</link>
												<fielddominance>none</fielddominance>
												<mediadelay>61271</mediadelay>
												<itemhistory>
													<uuid>4159C128-6E12-4F3F-B565-1D32D7D67843</uuid>
												</itemhistory>
											</clipitem>
											<enabled>TRUE</enabled>
											<locked>FALSE</locked>
										</track>
									</video>
									<audio>
										<outputs>
											<group>
												<index>1</index>
												<numchannels>2</numchannels>
												<downmix>0</downmix>
												<channel>
													<index>1</index>
												</channel>
												<channel>
													<index>2</index>
												</channel>
											</group>
										</outputs>
										<in>-1</in>
										<out>-1</out>
										<track>
											<clipitem id="CC0004_01 4">
												<name>CC0004_01</name>
												<duration>478461</duration>
												<rate>
													<ntsc>TRUE</ntsc>
													<timebase>24</timebase>
												</rate>
												<in>0</in>
												<out>478461</out>
												<start>0</start>
												<end>478461</end>
												<subframeoffset>0</subframeoffset>
												<anamorphic>FALSE</anamorphic>
												<masterclipid>CC0004_01 1</masterclipid>
												<syncoffset>0</syncoffset>
												<logginginfo>
													<scene/>
													<shottake/>
													<lognote/>
													<good>FALSE</good>
												</logginginfo>
												<labels>
													<label>Good Take</label>
													<label2/>
												</labels>
												<comments>
													<mastercomment1/>
													<mastercomment2/>
													<mastercomment3/>
													<mastercomment4/>
												</comments>
												<file id="CC0004_01 3"/>
												<filter>
													<effect>
														<name>Audio Levels</name>
														<effectid>audiolevels</effectid>
														<effectcategory>audiolevels</effectcategory>
														<effecttype>audiolevels</effecttype>
														<mediatype>audio</mediatype>
														<parameter>
															<name>Level</name>
															<parameterid>level</parameterid>
															<valuemin>0</valuemin>
															<valuemax>3.98109</valuemax>
															<value>1</value>
														</parameter>
													</effect>
												</filter>
												<filter>
													<effect>
														<name>Audio Pan</name>
														<effectid>audiopan</effectid>
														<effectcategory>audiopan</effectcategory>
														<effecttype>audiopan</effecttype>
														<mediatype>audio</mediatype>
														<parameter>
															<name>Pan</name>
															<parameterid>pan</parameterid>
															<valuemin>-1</valuemin>
															<valuemax>1</valuemax>
															<value>0</value>
														</parameter>
													</effect>
												</filter>
												<sourcetrack>
													<mediatype>audio</mediatype>
													<trackindex>1</trackindex>
												</sourcetrack>
												<link>
													<linkclipref>CC0004_01 2</linkclipref>
													<mediatype>video</mediatype>
													<trackindex>1</trackindex>
													<clipindex>1</clipindex>
												</link>
												<link>
													<linkclipref>CC0004_01 4</linkclipref>
													<mediatype>audio</mediatype>
													<trackindex>1</trackindex>
													<clipindex>1</clipindex>
												</link>
												<link>
													<linkclipref>CC0004_01 5</linkclipref>
													<mediatype>audio</mediatype>
													<trackindex>2</trackindex>
													<clipindex>1</clipindex>
												</link>
												<mediadelay>61271</mediadelay>
												<itemhistory>
													<uuid>9107AE8F-CDA5-444B-96FB-D6326A0D2238</uuid>
												</itemhistory>
											</clipitem>
											<enabled>TRUE</enabled>
											<locked>FALSE</locked>
										</track>
										<track>
											<clipitem id="CC0004_01 5">
												<name>CC0004_01</name>
												<duration>478461</duration>
												<rate>
													<ntsc>TRUE</ntsc>
													<timebase>24</timebase>
												</rate>
												<in>0</in>
												<out>478461</out>
												<start>0</start>
												<end>478461</end>
												<subframeoffset>0</subframeoffset>
												<anamorphic>FALSE</anamorphic>
												<masterclipid>CC0004_01 1</masterclipid>
												<syncoffset>0</syncoffset>
												<logginginfo>
													<scene/>
													<shottake/>
													<lognote/>
													<good>FALSE</good>
												</logginginfo>
												<labels>
													<label>Good Take</label>
													<label2/>
												</labels>
												<comments>
													<mastercomment1/>
													<mastercomment2/>
													<mastercomment3/>
													<mastercomment4/>
												</comments>
												<file id="CC0004_01 3"/>
												<filter>
													<effect>
														<name>Audio Levels</name>
														<effectid>audiolevels</effectid>
														<effectcategory>audiolevels</effectcategory>
														<effecttype>audiolevels</effecttype>
														<mediatype>audio</mediatype>
														<parameter>
															<name>Level</name>
															<parameterid>level</parameterid>
															<valuemin>0</valuemin>
															<valuemax>3.98109</valuemax>
															<value>1</value>
														</parameter>
													</effect>
												</filter>
												<filter>
													<effect>
														<name>Audio Pan</name>
														<effectid>audiopan</effectid>
														<effectcategory>audiopan</effectcategory>
														<effecttype>audiopan</effecttype>
														<mediatype>audio</mediatype>
														<parameter>
															<name>Pan</name>
															<parameterid>pan</parameterid>
															<valuemin>-1</valuemin>
															<valuemax>1</valuemax>
															<value>0</value>
														</parameter>
													</effect>
												</filter>
												<sourcetrack>
													<mediatype>audio</mediatype>
													<trackindex>2</trackindex>
												</sourcetrack>
												<link>
													<linkclipref>CC0004_01 2</linkclipref>
													<mediatype>video</mediatype>
													<trackindex>1</trackindex>
													<clipindex>1</clipindex>
												</link>
												<link>
													<linkclipref>CC0004_01 4</linkclipref>
													<mediatype>audio</mediatype>
													<trackindex>1</trackindex>
													<clipindex>1</clipindex>
												</link>
												<link>
													<linkclipref>CC0004_01 5</linkclipref>
													<mediatype>audio</mediatype>
													<trackindex>2</trackindex>
													<clipindex>1</clipindex>
												</link>
												<mediadelay>61271</mediadelay>
												<itemhistory>
													<uuid>78727DC8-5721-430B-AC43-DE5A826860BD</uuid>
												</itemhistory>
											</clipitem>
											<enabled>TRUE</enabled>
											<locked>FALSE</locked>
										</track>
										<filter>
											<effect>
												<name>Audio Levels</name>
												<effectid>audiolevels</effectid>
												<effectcategory>audiolevels</effectcategory>
												<effecttype>audiolevels</effecttype>
												<mediatype>audio</mediatype>
												<parameter>
													<name>Level</name>
													<parameterid>level</parameterid>
													<valuemin>0</valuemin>
													<valuemax>3.98109</valuemax>
													<value>1</value>
												</parameter>
											</effect>
										</filter>
									</audio>
								</media>
							</clip>
						</angle>
						<angle>
							<clip id="CC0005_01 ">
								<uuid>3D072755-5878-4E49-A7CB-3F8A651B4E95</uuid>
								<updatebehavior>add</updatebehavior>
								<name>CC0005_01</name>
								<duration>478461</duration>
								<rate>
									<ntsc>TRUE</ntsc>
									<timebase>24</timebase>
								</rate>
								<in>-1</in>
								<out>-1</out>
								<anamorphic>FALSE</anamorphic>
								<masterclipid>CC0005_01 1</masterclipid>
								<ismasterclip>FALSE</ismasterclip>
								<logginginfo>
									<scene/>
									<shottake/>
									<lognote/>
									<good>FALSE</good>
								</logginginfo>
								<labels>
									<label>Good Take</label>
									<label2/>
								</labels>
								<comments>
									<mastercomment1/>
									<mastercomment2/>
									<mastercomment3/>
									<mastercomment4/>
								</comments>
								<media>
									<video>
										<track>
											<clipitem id="CC0005_01 2">
												<name>CC0005_01</name>
												<duration>478461</duration>
												<rate>
													<ntsc>TRUE</ntsc>
													<timebase>24</timebase>
												</rate>
												<in>0</in>
												<out>478461</out>
												<start>0</start>
												<end>478461</end>
												<pixelaspectratio>Square</pixelaspectratio>
												<anamorphic>FALSE</anamorphic>
												<alphatype>none</alphatype>
												<masterclipid>CC0005_01 1</masterclipid>
												<syncoffset>0</syncoffset>
												<logginginfo>
													<scene/>
													<shottake/>
													<lognote/>
													<good>FALSE</good>
												</logginginfo>
												<labels>
													<label>Good Take</label>
													<label2/>
												</labels>
												<comments>
													<mastercomment1/>
													<mastercomment2/>
													<mastercomment3/>
													<mastercomment4/>
												</comments>
												<file id="CC0005_01 3">
													<name>CC0005_01.mov</name>
													<pathurl>file://localhost/Volumes/Share/Edit%20Share/00%20BREW%20DOGS%20S1/BD_00_San_Diego/052413/01_Video/C300/CC0005_01.mov</pathurl>
													<rate>
														<timebase>24</timebase>
														<ntsc>TRUE</ntsc>
													</rate>
													<duration>4368</duration>
													<metadata>
														<storage>QuickTime</storage>
														<key>com.apple.quicktime.creationdate</key>
														<size>24</size>
														<type>UTF8</type>
														<value>2013-05-24T12:30:30-0700</value>
													</metadata>
													<metadata>
														<storage>QuickTime</storage>
														<key>com.apple.finalcutstudio.media.history.uuid</key>
														<size>36</size>
														<type>UTF8</type>
														<value>A28531E3-FC2C-4CCD-BDA4-1DB375C4657A</value>
													</metadata>
													<metadata>
														<storage>QuickTime</storage>
														<key>com.apple.finalcutstudio.media.uuid</key>
														<size>36</size>
														<type>UTF8</type>
														<value>50C3EF24-6EEF-4473-A74A-FD35F1BF5CC5</value>
													</metadata>
													<metadata>
														<storage>QuickTime</storage>
														<key>com.apple.proapps.reel</key>
														<size>12</size>
														<type>UTF8</type>
														<value>C01_verified</value>
													</metadata>
													<metadata>
														<storage>QuickTime</storage>
														<key>com.apple.proapps.isGood</key>
														<size>4</size>
														<type>unsigned</type>
														<value>0</value>
													</metadata>
													<metadata>
														<storage>QuickTime</storage>
														<key>com.apple.proapps.clipID</key>
														<size>36</size>
														<type>UTF8</type>
														<value>0D39B4A8-3664-0580-0000-8500025A0A95</value>
													</metadata>
													<metadata>
														<storage>QuickTime</storage>
														<key>com.apple.proapps.originalFormat</key>
														<size>14</size>
														<type>UTF8</type>
														<value>Canon XF MPEG2</value>
													</metadata>
													<timecode>
														<rate>
															<timebase>24</timebase>
														</rate>
														<string>12:30:30:14</string>
														<frame>1080734</frame>
														<displayformat>NDF</displayformat>
														<source>source</source>
														<reel>
															<name>C01_verified</name>
														</reel>
													</timecode>
													<media>
														<video>
															<duration>4368</duration>
															<samplecharacteristics>
																<width>1920</width>
																<height>1080</height>
															</samplecharacteristics>
														</video>
														<audio>
															<samplecharacteristics>
																<samplerate>48000</samplerate>
																<depth>16</depth>
															</samplecharacteristics>
															<channelcount>1</channelcount>
															<layout>mono</layout>
															<audiochannel>
																<sourcechannel>1</sourcechannel>
																<channellabel>discrete</channellabel>
															</audiochannel>
														</audio>
														<audio>
															<samplecharacteristics>
																<samplerate>48000</samplerate>
																<depth>16</depth>
															</samplecharacteristics>
															<channelcount>1</channelcount>
															<layout>mono</layout>
															<audiochannel>
																<sourcechannel>2</sourcechannel>
																<channellabel>discrete</channellabel>
															</audiochannel>
														</audio>
													</media>
												</file>
												<sourcetrack>
													<mediatype>video</mediatype>
												</sourcetrack>
												<link>
													<linkclipref>CC0005_01 2</linkclipref>
													<mediatype>video</mediatype>
													<trackindex>1</trackindex>
													<clipindex>1</clipindex>
												</link>
												<link>
													<linkclipref>CC0005_01 4</linkclipref>
													<mediatype>audio</mediatype>
													<trackindex>1</trackindex>
													<clipindex>1</clipindex>
												</link>
												<link>
													<linkclipref>CC0005_01 5</linkclipref>
													<mediatype>audio</mediatype>
													<trackindex>2</trackindex>
													<clipindex>1</clipindex>
												</link>
												<fielddominance>none</fielddominance>
												<mediadelay>62379</mediadelay>
												<itemhistory>
													<uuid>61D80523-1376-46A1-BDA6-524CD779CD3A</uuid>
												</itemhistory>
											</clipitem>
											<enabled>TRUE</enabled>
											<locked>FALSE</locked>
										</track>
									</video>
									<audio>
										<outputs>
											<group>
												<index>1</index>
												<numchannels>2</numchannels>
												<downmix>0</downmix>
												<channel>
													<index>1</index>
												</channel>
												<channel>
													<index>2</index>
												</channel>
											</group>
										</outputs>
										<in>-1</in>
										<out>-1</out>
										<track>
											<clipitem id="CC0005_01 4">
												<name>CC0005_01</name>
												<duration>478461</duration>
												<rate>
													<ntsc>TRUE</ntsc>
													<timebase>24</timebase>
												</rate>
												<in>0</in>
												<out>478461</out>
												<start>0</start>
												<end>478461</end>
												<subframeoffset>0</subframeoffset>
												<anamorphic>FALSE</anamorphic>
												<masterclipid>CC0005_01 1</masterclipid>
												<syncoffset>0</syncoffset>
												<logginginfo>
													<scene/>
													<shottake/>
													<lognote/>
													<good>FALSE</good>
												</logginginfo>
												<labels>
													<label>Good Take</label>
													<label2/>
												</labels>
												<comments>
													<mastercomment1/>
													<mastercomment2/>
													<mastercomment3/>
													<mastercomment4/>
												</comments>
												<file id="CC0005_01 3"/>
												<filter>
													<effect>
														<name>Audio Levels</name>
														<effectid>audiolevels</effectid>
														<effectcategory>audiolevels</effectcategory>
														<effecttype>audiolevels</effecttype>
														<mediatype>audio</mediatype>
														<parameter>
															<name>Level</name>
															<parameterid>level</parameterid>
															<valuemin>0</valuemin>
															<valuemax>3.98109</valuemax>
															<value>1</value>
														</parameter>
													</effect>
												</filter>
												<filter>
													<effect>
														<name>Audio Pan</name>
														<effectid>audiopan</effectid>
														<effectcategory>audiopan</effectcategory>
														<effecttype>audiopan</effecttype>
														<mediatype>audio</mediatype>
														<parameter>
															<name>Pan</name>
															<parameterid>pan</parameterid>
															<valuemin>-1</valuemin>
															<valuemax>1</valuemax>
															<value>0</value>
														</parameter>
													</effect>
												</filter>
												<sourcetrack>
													<mediatype>audio</mediatype>
													<trackindex>1</trackindex>
												</sourcetrack>
												<link>
													<linkclipref>CC0005_01 2</linkclipref>
													<mediatype>video</mediatype>
													<trackindex>1</trackindex>
													<clipindex>1</clipindex>
												</link>
												<link>
													<linkclipref>CC0005_01 4</linkclipref>
													<mediatype>audio</mediatype>
													<trackindex>1</trackindex>
													<clipindex>1</clipindex>
												</link>
												<link>
													<linkclipref>CC0005_01 5</linkclipref>
													<mediatype>audio</mediatype>
													<trackindex>2</trackindex>
													<clipindex>1</clipindex>
												</link>
												<mediadelay>62379</mediadelay>
												<itemhistory>
													<uuid>3B7632C8-73D3-48F2-9E98-1DEFC61ED4A2</uuid>
												</itemhistory>
											</clipitem>
											<enabled>TRUE</enabled>
											<locked>FALSE</locked>
										</track>
										<track>
											<clipitem id="CC0005_01 5">
												<name>CC0005_01</name>
												<duration>478461</duration>
												<rate>
													<ntsc>TRUE</ntsc>
													<timebase>24</timebase>
												</rate>
												<in>0</in>
												<out>478461</out>
												<start>0</start>
												<end>478461</end>
												<subframeoffset>0</subframeoffset>
												<anamorphic>FALSE</anamorphic>
												<masterclipid>CC0005_01 1</masterclipid>
												<syncoffset>0</syncoffset>
												<logginginfo>
													<scene/>
													<shottake/>
													<lognote/>
													<good>FALSE</good>
												</logginginfo>
												<labels>
													<label>Good Take</label>
													<label2/>
												</labels>
												<comments>
													<mastercomment1/>
													<mastercomment2/>
													<mastercomment3/>
													<mastercomment4/>
												</comments>
												<file id="CC0005_01 3"/>
												<filter>
													<effect>
														<name>Audio Levels</name>
														<effectid>audiolevels</effectid>
														<effectcategory>audiolevels</effectcategory>
														<effecttype>audiolevels</effecttype>
														<mediatype>audio</mediatype>
														<parameter>
															<name>Level</name>
															<parameterid>level</parameterid>
															<valuemin>0</valuemin>
															<valuemax>3.98109</valuemax>
															<value>1</value>
														</parameter>
													</effect>
												</filter>
												<filter>
													<effect>
														<name>Audio Pan</name>
														<effectid>audiopan</effectid>
														<effectcategory>audiopan</effectcategory>
														<effecttype>audiopan</effecttype>
														<mediatype>audio</mediatype>
														<parameter>
															<name>Pan</name>
															<parameterid>pan</parameterid>
															<valuemin>-1</valuemin>
															<valuemax>1</valuemax>
															<value>0</value>
														</parameter>
													</effect>
												</filter>
												<sourcetrack>
													<mediatype>audio</mediatype>
													<trackindex>2</trackindex>
												</sourcetrack>
												<link>
													<linkclipref>CC0005_01 2</linkclipref>
													<mediatype>video</mediatype>
													<trackindex>1</trackindex>
													<clipindex>1</clipindex>
												</link>
												<link>
													<linkclipref>CC0005_01 4</linkclipref>
													<mediatype>audio</mediatype>
													<trackindex>1</trackindex>
													<clipindex>1</clipindex>
												</link>
												<link>
													<linkclipref>CC0005_01 5</linkclipref>
													<mediatype>audio</mediatype>
													<trackindex>2</trackindex>
													<clipindex>1</clipindex>
												</link>
												<mediadelay>62379</mediadelay>
												<itemhistory>
													<uuid>46A9185E-ED6F-4981-BB56-79715D209827</uuid>
												</itemhistory>
											</clipitem>
											<enabled>TRUE</enabled>
											<locked>FALSE</locked>
										</track>
										<filter>
											<effect>
												<name>Audio Levels</name>
												<effectid>audiolevels</effectid>
												<effectcategory>audiolevels</effectcategory>
												<effecttype>audiolevels</effecttype>
												<mediatype>audio</mediatype>
												<parameter>
													<name>Level</name>
													<parameterid>level</parameterid>
													<valuemin>0</valuemin>
													<valuemax>3.98109</valuemax>
													<value>1</value>
												</parameter>
											</effect>
										</filter>
									</audio>
								</media>
							</clip>
						</angle>
						<angle>
							<clip id="CC0006_01 ">
								<uuid>634C3FB5-6730-4361-B21F-63B1C5E9C6C0</uuid>
								<updatebehavior>add</updatebehavior>
								<name>CC0006_01</name>
								<duration>478461</duration>
								<rate>
									<ntsc>TRUE</ntsc>
									<timebase>24</timebase>
								</rate>
								<in>-1</in>
								<out>-1</out>
								<anamorphic>FALSE</anamorphic>
								<masterclipid>CC0006_01 1</masterclipid>
								<ismasterclip>FALSE</ismasterclip>
								<logginginfo>
									<scene/>
									<shottake/>
									<lognote/>
									<good>FALSE</good>
								</logginginfo>
								<labels>
									<label>Good Take</label>
									<label2/>
								</labels>
								<comments>
									<mastercomment1/>
									<mastercomment2/>
									<mastercomment3/>
									<mastercomment4/>
								</comments>
								<media>
									<video>
										<track>
											<clipitem id="CC0006_01 2">
												<name>CC0006_01</name>
												<duration>478461</duration>
												<rate>
													<ntsc>TRUE</ntsc>
													<timebase>24</timebase>
												</rate>
												<in>0</in>
												<out>478461</out>
												<start>0</start>
												<end>478461</end>
												<pixelaspectratio>Square</pixelaspectratio>
												<anamorphic>FALSE</anamorphic>
												<alphatype>none</alphatype>
												<masterclipid>CC0006_01 1</masterclipid>
												<syncoffset>0</syncoffset>
												<logginginfo>
													<scene/>
													<shottake/>
													<lognote/>
													<good>FALSE</good>
												</logginginfo>
												<labels>
													<label>Good Take</label>
													<label2/>
												</labels>
												<comments>
													<mastercomment1/>
													<mastercomment2/>
													<mastercomment3/>
													<mastercomment4/>
												</comments>
												<file id="CC0006_01 3">
													<name>CC0006_01.mov</name>
													<pathurl>file://localhost/Volumes/Share/Edit%20Share/00%20BREW%20DOGS%20S1/BD_00_San_Diego/052413/01_Video/C300/CC0006_01.mov</pathurl>
													<rate>
														<timebase>24</timebase>
														<ntsc>TRUE</ntsc>
													</rate>
													<duration>3252</duration>
													<metadata>
														<storage>QuickTime</storage>
														<key>com.apple.quicktime.creationdate</key>
														<size>24</size>
														<type>UTF8</type>
														<value>2013-05-24T12:34:21-0700</value>
													</metadata>
													<metadata>
														<storage>QuickTime</storage>
														<key>com.apple.finalcutstudio.media.history.uuid</key>
														<size>36</size>
														<type>UTF8</type>
														<value>0D8620EF-8C21-425C-B7AF-906F807DC9A0</value>
													</metadata>
													<metadata>
														<storage>QuickTime</storage>
														<key>com.apple.finalcutstudio.media.uuid</key>
														<size>36</size>
														<type>UTF8</type>
														<value>6E172112-4AA0-40A0-8EEF-59385ED7FD74</value>
													</metadata>
													<metadata>
														<storage>QuickTime</storage>
														<key>com.apple.proapps.reel</key>
														<size>12</size>
														<type>UTF8</type>
														<value>C01_verified</value>
													</metadata>
													<metadata>
														<storage>QuickTime</storage>
														<key>com.apple.proapps.isGood</key>
														<size>4</size>
														<type>unsigned</type>
														<value>0</value>
													</metadata>
													<metadata>
														<storage>QuickTime</storage>
														<key>com.apple.proapps.clipID</key>
														<size>36</size>
														<type>UTF8</type>
														<value>0D39EACC-3664-0580-0000-8500025A0A95</value>
													</metadata>
													<metadata>
														<storage>QuickTime</storage>
														<key>com.apple.proapps.originalFormat</key>
														<size>14</size>
														<type>UTF8</type>
														<value>Canon XF MPEG2</value>
													</metadata>
													<timecode>
														<rate>
															<timebase>24</timebase>
														</rate>
														<string>12:34:21:18</string>
														<frame>1086282</frame>
														<displayformat>NDF</displayformat>
														<source>source</source>
														<reel>
															<name>C01_verified</name>
														</reel>
													</timecode>
													<media>
														<video>
															<duration>3252</duration>
															<samplecharacteristics>
																<width>1920</width>
																<height>1080</height>
															</samplecharacteristics>
														</video>
														<audio>
															<samplecharacteristics>
																<samplerate>48000</samplerate>
																<depth>16</depth>
															</samplecharacteristics>
															<channelcount>1</channelcount>
															<layout>mono</layout>
															<audiochannel>
																<sourcechannel>1</sourcechannel>
																<channellabel>discrete</channellabel>
															</audiochannel>
														</audio>
														<audio>
															<samplecharacteristics>
																<samplerate>48000</samplerate>
																<depth>16</depth>
															</samplecharacteristics>
															<channelcount>1</channelcount>
															<layout>mono</layout>
															<audiochannel>
																<sourcechannel>2</sourcechannel>
																<channellabel>discrete</channellabel>
															</audiochannel>
														</audio>
													</media>
												</file>
												<sourcetrack>
													<mediatype>video</mediatype>
												</sourcetrack>
												<link>
													<linkclipref>CC0006_01 2</linkclipref>
													<mediatype>video</mediatype>
													<trackindex>1</trackindex>
													<clipindex>1</clipindex>
												</link>
												<link>
													<linkclipref>CC0006_01 4</linkclipref>
													<mediatype>audio</mediatype>
													<trackindex>1</trackindex>
													<clipindex>1</clipindex>
												</link>
												<link>
													<linkclipref>CC0006_01 5</linkclipref>
													<mediatype>audio</mediatype>
													<trackindex>2</trackindex>
													<clipindex>1</clipindex>
												</link>
												<fielddominance>none</fielddominance>
												<mediadelay>67927</mediadelay>
												<itemhistory>
													<uuid>25CC8CFC-0645-46C8-96E8-6B7DBD6654F5</uuid>
												</itemhistory>
											</clipitem>
											<enabled>TRUE</enabled>
											<locked>FALSE</locked>
										</track>
									</video>
									<audio>
										<outputs>
											<group>
												<index>1</index>
												<numchannels>2</numchannels>
												<downmix>0</downmix>
												<channel>
													<index>1</index>
												</channel>
												<channel>
													<index>2</index>
												</channel>
											</group>
										</outputs>
										<in>-1</in>
										<out>-1</out>
										<track>
											<clipitem id="CC0006_01 4">
												<name>CC0006_01</name>
												<duration>478461</duration>
												<rate>
													<ntsc>TRUE</ntsc>
													<timebase>24</timebase>
												</rate>
												<in>0</in>
												<out>478461</out>
												<start>0</start>
												<end>478461</end>
												<subframeoffset>0</subframeoffset>
												<anamorphic>FALSE</anamorphic>
												<masterclipid>CC0006_01 1</masterclipid>
												<syncoffset>0</syncoffset>
												<logginginfo>
													<scene/>
													<shottake/>
													<lognote/>
													<good>FALSE</good>
												</logginginfo>
												<labels>
													<label>Good Take</label>
													<label2/>
												</labels>
												<comments>
													<mastercomment1/>
													<mastercomment2/>
													<mastercomment3/>
													<mastercomment4/>
												</comments>
												<file id="CC0006_01 3"/>
												<filter>
													<effect>
														<name>Audio Levels</name>
														<effectid>audiolevels</effectid>
														<effectcategory>audiolevels</effectcategory>
														<effecttype>audiolevels</effecttype>
														<mediatype>audio</mediatype>
														<parameter>
															<name>Level</name>
															<parameterid>level</parameterid>
															<valuemin>0</valuemin>
															<valuemax>3.98109</valuemax>
															<value>1</value>
														</parameter>
													</effect>
												</filter>
												<filter>
													<effect>
														<name>Audio Pan</name>
														<effectid>audiopan</effectid>
														<effectcategory>audiopan</effectcategory>
														<effecttype>audiopan</effecttype>
														<mediatype>audio</mediatype>
														<parameter>
															<name>Pan</name>
															<parameterid>pan</parameterid>
															<valuemin>-1</valuemin>
															<valuemax>1</valuemax>
															<value>0</value>
														</parameter>
													</effect>
												</filter>
												<sourcetrack>
													<mediatype>audio</mediatype>
													<trackindex>1</trackindex>
												</sourcetrack>
												<link>
													<linkclipref>CC0006_01 2</linkclipref>
													<mediatype>video</mediatype>
													<trackindex>1</trackindex>
													<clipindex>1</clipindex>
												</link>
												<link>
													<linkclipref>CC0006_01 4</linkclipref>
													<mediatype>audio</mediatype>
													<trackindex>1</trackindex>
													<clipindex>1</clipindex>
												</link>
												<link>
													<linkclipref>CC0006_01 5</linkclipref>
													<mediatype>audio</mediatype>
													<trackindex>2</trackindex>
													<clipindex>1</clipindex>
												</link>
												<mediadelay>67927</mediadelay>
												<itemhistory>
													<uuid>2053A76D-1345-4165-809F-13A53A4C3BE5</uuid>
												</itemhistory>
											</clipitem>
											<enabled>TRUE</enabled>
											<locked>FALSE</locked>
										</track>
										<track>
											<clipitem id="CC0006_01 5">
												<name>CC0006_01</name>
												<duration>478461</duration>
												<rate>
													<ntsc>TRUE</ntsc>
													<timebase>24</timebase>
												</rate>
												<in>0</in>
												<out>478461</out>
												<start>0</start>
												<end>478461</end>
												<subframeoffset>0</subframeoffset>
												<anamorphic>FALSE</anamorphic>
												<masterclipid>CC0006_01 1</masterclipid>
												<syncoffset>0</syncoffset>
												<logginginfo>
													<scene/>
													<shottake/>
													<lognote/>
													<good>FALSE</good>
												</logginginfo>
												<labels>
													<label>Good Take</label>
													<label2/>
												</labels>
												<comments>
													<mastercomment1/>
													<mastercomment2/>
													<mastercomment3/>
													<mastercomment4/>
												</comments>
												<file id="CC0006_01 3"/>
												<filter>
													<effect>
														<name>Audio Levels</name>
														<effectid>audiolevels</effectid>
														<effectcategory>audiolevels</effectcategory>
														<effecttype>audiolevels</effecttype>
														<mediatype>audio</mediatype>
														<parameter>
															<name>Level</name>
															<parameterid>level</parameterid>
															<valuemin>0</valuemin>
															<valuemax>3.98109</valuemax>
															<value>1</value>
														</parameter>
													</effect>
												</filter>
												<filter>
													<effect>
														<name>Audio Pan</name>
														<effectid>audiopan</effectid>
														<effectcategory>audiopan</effectcategory>
														<effecttype>audiopan</effecttype>
														<mediatype>audio</mediatype>
														<parameter>
															<name>Pan</name>
															<parameterid>pan</parameterid>
															<valuemin>-1</valuemin>
															<valuemax>1</valuemax>
															<value>0</value>
														</parameter>
													</effect>
												</filter>
												<sourcetrack>
													<mediatype>audio</mediatype>
													<trackindex>2</trackindex>
												</sourcetrack>
												<link>
													<linkclipref>CC0006_01 2</linkclipref>
													<mediatype>video</mediatype>
													<trackindex>1</trackindex>
													<clipindex>1</clipindex>
												</link>
												<link>
													<linkclipref>CC0006_01 4</linkclipref>
													<mediatype>audio</mediatype>
													<trackindex>1</trackindex>
													<clipindex>1</clipindex>
												</link>
												<link>
													<linkclipref>CC0006_01 5</linkclipref>
													<mediatype>audio</mediatype>
													<trackindex>2</trackindex>
													<clipindex>1</clipindex>
												</link>
												<mediadelay>67927</mediadelay>
												<itemhistory>
													<uuid>CFE18AA3-A045-416D-90CD-B62AC3B62357</uuid>
												</itemhistory>
											</clipitem>
											<enabled>TRUE</enabled>
											<locked>FALSE</locked>
										</track>
										<filter>
											<effect>
												<name>Audio Levels</name>
												<effectid>audiolevels</effectid>
												<effectcategory>audiolevels</effectcategory>
												<effecttype>audiolevels</effecttype>
												<mediatype>audio</mediatype>
												<parameter>
													<name>Level</name>
													<parameterid>level</parameterid>
													<valuemin>0</valuemin>
													<valuemax>3.98109</valuemax>
													<value>1</value>
												</parameter>
											</effect>
										</filter>
									</audio>
								</media>
							</clip>
						</angle>
						<angle>
							<clip id="CC0007_01 ">
								<uuid>37B14955-9381-48C8-B1B1-EE8B42260504</uuid>
								<updatebehavior>add</updatebehavior>
								<name>CC0007_01</name>
								<duration>478461</duration>
								<rate>
									<ntsc>TRUE</ntsc>
									<timebase>24</timebase>
								</rate>
								<in>-1</in>
								<out>-1</out>
								<anamorphic>FALSE</anamorphic>
								<masterclipid>CC0007_01 1</masterclipid>
								<ismasterclip>FALSE</ismasterclip>
								<logginginfo>
									<scene/>
									<shottake/>
									<lognote/>
									<good>FALSE</good>
								</logginginfo>
								<labels>
									<label>Good Take</label>
									<label2/>
								</labels>
								<comments>
									<mastercomment1/>
									<mastercomment2/>
									<mastercomment3/>
									<mastercomment4/>
								</comments>
								<media>
									<video>
										<track>
											<clipitem id="CC0007_01 2">
												<name>CC0007_01</name>
												<duration>478461</duration>
												<rate>
													<ntsc>TRUE</ntsc>
													<timebase>24</timebase>
												</rate>
												<in>0</in>
												<out>478461</out>
												<start>0</start>
												<end>478461</end>
												<pixelaspectratio>Square</pixelaspectratio>
												<anamorphic>FALSE</anamorphic>
												<alphatype>none</alphatype>
												<masterclipid>CC0007_01 1</masterclipid>
												<syncoffset>0</syncoffset>
												<logginginfo>
													<scene/>
													<shottake/>
													<lognote/>
													<good>FALSE</good>
												</logginginfo>
												<labels>
													<label>Good Take</label>
													<label2/>
												</labels>
												<comments>
													<mastercomment1/>
													<mastercomment2/>
													<mastercomment3/>
													<mastercomment4/>
												</comments>
												<file id="CC0007_01 3">
													<name>CC0007_01.mov</name>
													<pathurl>file://localhost/Volumes/Share/Edit%20Share/00%20BREW%20DOGS%20S1/BD_00_San_Diego/052413/01_Video/C300/CC0007_01.mov</pathurl>
													<rate>
														<timebase>24</timebase>
														<ntsc>TRUE</ntsc>
													</rate>
													<duration>9408</duration>
													<metadata>
														<storage>QuickTime</storage>
														<key>com.apple.quicktime.creationdate</key>
														<size>24</size>
														<type>UTF8</type>
														<value>2013-05-24T12:37:24-0700</value>
													</metadata>
													<metadata>
														<storage>QuickTime</storage>
														<key>com.apple.finalcutstudio.media.history.uuid</key>
														<size>36</size>
														<type>UTF8</type>
														<value>F275BFEF-9EEA-4F67-A9BE-077D776A9980</value>
													</metadata>
													<metadata>
														<storage>QuickTime</storage>
														<key>com.apple.finalcutstudio.media.uuid</key>
														<size>36</size>
														<type>UTF8</type>
														<value>732831C3-8824-45C5-AB91-ED952C2182F6</value>
													</metadata>
													<metadata>
														<storage>QuickTime</storage>
														<key>com.apple.proapps.reel</key>
														<size>12</size>
														<type>UTF8</type>
														<value>C01_verified</value>
													</metadata>
													<metadata>
														<storage>QuickTime</storage>
														<key>com.apple.proapps.isGood</key>
														<size>4</size>
														<type>unsigned</type>
														<value>0</value>
													</metadata>
													<metadata>
														<storage>QuickTime</storage>
														<key>com.apple.proapps.clipID</key>
														<size>36</size>
														<type>UTF8</type>
														<value>0D3A15B0-3664-0580-0000-8500025A0A95</value>
													</metadata>
													<metadata>
														<storage>QuickTime</storage>
														<key>com.apple.proapps.originalFormat</key>
														<size>14</size>
														<type>UTF8</type>
														<value>Canon XF MPEG2</value>
													</metadata>
													<timecode>
														<rate>
															<timebase>24</timebase>
														</rate>
														<string>12:37:24:06</string>
														<frame>1090662</frame>
														<displayformat>NDF</displayformat>
														<source>source</source>
														<reel>
															<name>C01_verified</name>
														</reel>
													</timecode>
													<media>
														<video>
															<duration>9408</duration>
															<samplecharacteristics>
																<width>1920</width>
																<height>1080</height>
															</samplecharacteristics>
														</video>
														<audio>
															<samplecharacteristics>
																<samplerate>48000</samplerate>
																<depth>16</depth>
															</samplecharacteristics>
															<channelcount>1</channelcount>
															<layout>mono</layout>
															<audiochannel>
																<sourcechannel>1</sourcechannel>
																<channellabel>discrete</channellabel>
															</audiochannel>
														</audio>
														<audio>
															<samplecharacteristics>
																<samplerate>48000</samplerate>
																<depth>16</depth>
															</samplecharacteristics>
															<channelcount>1</channelcount>
															<layout>mono</layout>
															<audiochannel>
																<sourcechannel>2</sourcechannel>
																<channellabel>discrete</channellabel>
															</audiochannel>
														</audio>
													</media>
												</file>
												<sourcetrack>
													<mediatype>video</mediatype>
												</sourcetrack>
												<link>
													<linkclipref>CC0007_01 2</linkclipref>
													<mediatype>video</mediatype>
													<trackindex>1</trackindex>
													<clipindex>1</clipindex>
												</link>
												<link>
													<linkclipref>CC0007_01 4</linkclipref>
													<mediatype>audio</mediatype>
													<trackindex>1</trackindex>
													<clipindex>1</clipindex>
												</link>
												<link>
													<linkclipref>CC0007_01 5</linkclipref>
													<mediatype>audio</mediatype>
													<trackindex>2</trackindex>
													<clipindex>1</clipindex>
												</link>
												<fielddominance>none</fielddominance>
												<mediadelay>72307</mediadelay>
												<itemhistory>
													<uuid>601C32C5-8E58-49AC-9608-C715774DEC4D</uuid>
												</itemhistory>
											</clipitem>
											<enabled>TRUE</enabled>
											<locked>FALSE</locked>
										</track>
									</video>
									<audio>
										<outputs>
											<group>
												<index>1</index>
												<numchannels>2</numchannels>
												<downmix>0</downmix>
												<channel>
													<index>1</index>
												</channel>
												<channel>
													<index>2</index>
												</channel>
											</group>
										</outputs>
										<in>-1</in>
										<out>-1</out>
										<track>
											<clipitem id="CC0007_01 4">
												<name>CC0007_01</name>
												<duration>478461</duration>
												<rate>
													<ntsc>TRUE</ntsc>
													<timebase>24</timebase>
												</rate>
												<in>0</in>
												<out>478461</out>
												<start>0</start>
												<end>478461</end>
												<subframeoffset>0</subframeoffset>
												<anamorphic>FALSE</anamorphic>
												<masterclipid>CC0007_01 1</masterclipid>
												<syncoffset>0</syncoffset>
												<logginginfo>
													<scene/>
													<shottake/>
													<lognote/>
													<good>FALSE</good>
												</logginginfo>
												<labels>
													<label>Good Take</label>
													<label2/>
												</labels>
												<comments>
													<mastercomment1/>
													<mastercomment2/>
													<mastercomment3/>
													<mastercomment4/>
												</comments>
												<file id="CC0007_01 3"/>
												<filter>
													<effect>
														<name>Audio Levels</name>
														<effectid>audiolevels</effectid>
														<effectcategory>audiolevels</effectcategory>
														<effecttype>audiolevels</effecttype>
														<mediatype>audio</mediatype>
														<parameter>
															<name>Level</name>
															<parameterid>level</parameterid>
															<valuemin>0</valuemin>
															<valuemax>3.98109</valuemax>
															<value>1</value>
														</parameter>
													</effect>
												</filter>
												<filter>
													<effect>
														<name>Audio Pan</name>
														<effectid>audiopan</effectid>
														<effectcategory>audiopan</effectcategory>
														<effecttype>audiopan</effecttype>
														<mediatype>audio</mediatype>
														<parameter>
															<name>Pan</name>
															<parameterid>pan</parameterid>
															<valuemin>-1</valuemin>
															<valuemax>1</valuemax>
															<value>0</value>
														</parameter>
													</effect>
												</filter>
												<sourcetrack>
													<mediatype>audio</mediatype>
													<trackindex>1</trackindex>
												</sourcetrack>
												<link>
													<linkclipref>CC0007_01 2</linkclipref>
													<mediatype>video</mediatype>
													<trackindex>1</trackindex>
													<clipindex>1</clipindex>
												</link>
												<link>
													<linkclipref>CC0007_01 4</linkclipref>
													<mediatype>audio</mediatype>
													<trackindex>1</trackindex>
													<clipindex>1</clipindex>
												</link>
												<link>
													<linkclipref>CC0007_01 5</linkclipref>
													<mediatype>audio</mediatype>
													<trackindex>2</trackindex>
													<clipindex>1</clipindex>
												</link>
												<mediadelay>72307</mediadelay>
												<itemhistory>
													<uuid>103C5E7B-E728-4197-82EA-247EE01313F4</uuid>
												</itemhistory>
											</clipitem>
											<enabled>TRUE</enabled>
											<locked>FALSE</locked>
										</track>
										<track>
											<clipitem id="CC0007_01 5">
												<name>CC0007_01</name>
												<duration>478461</duration>
												<rate>
													<ntsc>TRUE</ntsc>
													<timebase>24</timebase>
												</rate>
												<in>0</in>
												<out>478461</out>
												<start>0</start>
												<end>478461</end>
												<subframeoffset>0</subframeoffset>
												<anamorphic>FALSE</anamorphic>
												<masterclipid>CC0007_01 1</masterclipid>
												<syncoffset>0</syncoffset>
												<logginginfo>
													<scene/>
													<shottake/>
													<lognote/>
													<good>FALSE</good>
												</logginginfo>
												<labels>
													<label>Good Take</label>
													<label2/>
												</labels>
												<comments>
													<mastercomment1/>
													<mastercomment2/>
													<mastercomment3/>
													<mastercomment4/>
												</comments>
												<file id="CC0007_01 3"/>
												<filter>
													<effect>
														<name>Audio Levels</name>
														<effectid>audiolevels</effectid>
														<effectcategory>audiolevels</effectcategory>
														<effecttype>audiolevels</effecttype>
														<mediatype>audio</mediatype>
														<parameter>
															<name>Level</name>
															<parameterid>level</parameterid>
															<valuemin>0</valuemin>
															<valuemax>3.98109</valuemax>
															<value>1</value>
														</parameter>
													</effect>
												</filter>
												<filter>
													<effect>
														<name>Audio Pan</name>
														<effectid>audiopan</effectid>
														<effectcategory>audiopan</effectcategory>
														<effecttype>audiopan</effecttype>
														<mediatype>audio</mediatype>
														<parameter>
															<name>Pan</name>
															<parameterid>pan</parameterid>
															<valuemin>-1</valuemin>
															<valuemax>1</valuemax>
															<value>0</value>
														</parameter>
													</effect>
												</filter>
												<sourcetrack>
													<mediatype>audio</mediatype>
													<trackindex>2</trackindex>
												</sourcetrack>
												<link>
													<linkclipref>CC0007_01 2</linkclipref>
													<mediatype>video</mediatype>
													<trackindex>1</trackindex>
													<clipindex>1</clipindex>
												</link>
												<link>
													<linkclipref>CC0007_01 4</linkclipref>
													<mediatype>audio</mediatype>
													<trackindex>1</trackindex>
													<clipindex>1</clipindex>
												</link>
												<link>
													<linkclipref>CC0007_01 5</linkclipref>
													<mediatype>audio</mediatype>
													<trackindex>2</trackindex>
													<clipindex>1</clipindex>
												</link>
												<mediadelay>72307</mediadelay>
												<itemhistory>
													<uuid>B66E59B9-F524-436A-AEFB-A25D62D71FCF</uuid>
												</itemhistory>
											</clipitem>
											<enabled>TRUE</enabled>
											<locked>FALSE</locked>
										</track>
										<filter>
											<effect>
												<name>Audio Levels</name>
												<effectid>audiolevels</effectid>
												<effectcategory>audiolevels</effectcategory>
												<effecttype>audiolevels</effecttype>
												<mediatype>audio</mediatype>
												<parameter>
													<name>Level</name>
													<parameterid>level</parameterid>
													<valuemin>0</valuemin>
													<valuemax>3.98109</valuemax>
													<value>1</value>
												</parameter>
											</effect>
										</filter>
									</audio>
								</media>
							</clip>
						</angle>
						<angle>
							<clip id="CC0008_01 ">
								<uuid>CC22458E-FDBF-409F-94C1-0BF8C94059AD</uuid>
								<updatebehavior>add</updatebehavior>
								<name>CC0008_01</name>
								<duration>478461</duration>
								<rate>
									<ntsc>TRUE</ntsc>
									<timebase>24</timebase>
								</rate>
								<in>-1</in>
								<out>-1</out>
								<anamorphic>FALSE</anamorphic>
								<masterclipid>CC0008_01 1</masterclipid>
								<ismasterclip>FALSE</ismasterclip>
								<logginginfo>
									<scene/>
									<shottake/>
									<lognote/>
									<good>FALSE</good>
								</logginginfo>
								<labels>
									<label>Good Take</label>
									<label2/>
								</labels>
								<comments>
									<mastercomment1/>
									<mastercomment2/>
									<mastercomment3/>
									<mastercomment4/>
								</comments>
								<media>
									<video>
										<track>
											<clipitem id="CC0008_01 2">
												<name>CC0008_01</name>
												<duration>478461</duration>
												<rate>
													<ntsc>TRUE</ntsc>
													<timebase>24</timebase>
												</rate>
												<in>0</in>
												<out>478461</out>
												<start>0</start>
												<end>478461</end>
												<pixelaspectratio>Square</pixelaspectratio>
												<anamorphic>FALSE</anamorphic>
												<alphatype>none</alphatype>
												<masterclipid>CC0008_01 1</masterclipid>
												<syncoffset>0</syncoffset>
												<logginginfo>
													<scene/>
													<shottake/>
													<lognote/>
													<good>FALSE</good>
												</logginginfo>
												<labels>
													<label>Good Take</label>
													<label2/>
												</labels>
												<comments>
													<mastercomment1/>
													<mastercomment2/>
													<mastercomment3/>
													<mastercomment4/>
												</comments>
												<file id="CC0008_01 3">
													<name>CC0008_01.mov</name>
													<pathurl>file://localhost/Volumes/Share/Edit%20Share/00%20BREW%20DOGS%20S1/BD_00_San_Diego/052413/01_Video/C300/CC0008_01.mov</pathurl>
													<rate>
														<timebase>24</timebase>
														<ntsc>TRUE</ntsc>
													</rate>
													<duration>972</duration>
													<metadata>
														<storage>QuickTime</storage>
														<key>com.apple.quicktime.creationdate</key>
														<size>24</size>
														<type>UTF8</type>
														<value>2013-05-24T12:49:09-0700</value>
													</metadata>
													<metadata>
														<storage>QuickTime</storage>
														<key>com.apple.finalcutstudio.media.history.uuid</key>
														<size>36</size>
														<type>UTF8</type>
														<value>8DBA19D2-9FAC-405E-914E-AF38B8725F8A</value>
													</metadata>
													<metadata>
														<storage>QuickTime</storage>
														<key>com.apple.finalcutstudio.media.uuid</key>
														<size>36</size>
														<type>UTF8</type>
														<value>85D8944C-8CE7-41E2-AB07-6EA5AC6C5486</value>
													</metadata>
													<metadata>
														<storage>QuickTime</storage>
														<key>com.apple.proapps.reel</key>
														<size>12</size>
														<type>UTF8</type>
														<value>C01_verified</value>
													</metadata>
													<metadata>
														<storage>QuickTime</storage>
														<key>com.apple.proapps.isGood</key>
														<size>4</size>
														<type>unsigned</type>
														<value>0</value>
													</metadata>
													<metadata>
														<storage>QuickTime</storage>
														<key>com.apple.proapps.clipID</key>
														<size>36</size>
														<type>UTF8</type>
														<value>0D3ABAEC-3664-0580-0000-8500025A0A95</value>
													</metadata>
													<metadata>
														<storage>QuickTime</storage>
														<key>com.apple.proapps.originalFormat</key>
														<size>14</size>
														<type>UTF8</type>
														<value>Canon XF MPEG2</value>
													</metadata>
													<timecode>
														<rate>
															<timebase>24</timebase>
														</rate>
														<string>12:49:08:22</string>
														<frame>1107574</frame>
														<displayformat>NDF</displayformat>
														<source>source</source>
														<reel>
															<name>C01_verified</name>
														</reel>
													</timecode>
													<media>
														<video>
															<duration>972</duration>
															<samplecharacteristics>
																<width>1920</width>
																<height>1080</height>
															</samplecharacteristics>
														</video>
														<audio>
															<samplecharacteristics>
																<samplerate>48000</samplerate>
																<depth>16</depth>
															</samplecharacteristics>
															<channelcount>1</channelcount>
															<layout>mono</layout>
															<audiochannel>
																<sourcechannel>1</sourcechannel>
																<channellabel>discrete</channellabel>
															</audiochannel>
														</audio>
														<audio>
															<samplecharacteristics>
																<samplerate>48000</samplerate>
																<depth>16</depth>
															</samplecharacteristics>
															<channelcount>1</channelcount>
															<layout>mono</layout>
															<audiochannel>
																<sourcechannel>2</sourcechannel>
																<channellabel>discrete</channellabel>
															</audiochannel>
														</audio>
													</media>
												</file>
												<sourcetrack>
													<mediatype>video</mediatype>
												</sourcetrack>
												<link>
													<linkclipref>CC0008_01 2</linkclipref>
													<mediatype>video</mediatype>
													<trackindex>1</trackindex>
													<clipindex>1</clipindex>
												</link>
												<link>
													<linkclipref>CC0008_01 4</linkclipref>
													<mediatype>audio</mediatype>
													<trackindex>1</trackindex>
													<clipindex>1</clipindex>
												</link>
												<link>
													<linkclipref>CC0008_01 5</linkclipref>
													<mediatype>audio</mediatype>
													<trackindex>2</trackindex>
													<clipindex>1</clipindex>
												</link>
												<fielddominance>none</fielddominance>
												<mediadelay>89219</mediadelay>
												<itemhistory>
													<uuid>98BB4F65-8D2F-4ACA-AC9D-A77B666E4888</uuid>
												</itemhistory>
											</clipitem>
											<enabled>TRUE</enabled>
											<locked>FALSE</locked>
										</track>
									</video>
									<audio>
										<outputs>
											<group>
												<index>1</index>
												<numchannels>2</numchannels>
												<downmix>0</downmix>
												<channel>
													<index>1</index>
												</channel>
												<channel>
													<index>2</index>
												</channel>
											</group>
										</outputs>
										<in>-1</in>
										<out>-1</out>
										<track>
											<clipitem id="CC0008_01 4">
												<name>CC0008_01</name>
												<duration>478461</duration>
												<rate>
													<ntsc>TRUE</ntsc>
													<timebase>24</timebase>
												</rate>
												<in>0</in>
												<out>478461</out>
												<start>0</start>
												<end>478461</end>
												<subframeoffset>0</subframeoffset>
												<anamorphic>FALSE</anamorphic>
												<masterclipid>CC0008_01 1</masterclipid>
												<syncoffset>0</syncoffset>
												<logginginfo>
													<scene/>
													<shottake/>
													<lognote/>
													<good>FALSE</good>
												</logginginfo>
												<labels>
													<label>Good Take</label>
													<label2/>
												</labels>
												<comments>
													<mastercomment1/>
													<mastercomment2/>
													<mastercomment3/>
													<mastercomment4/>
												</comments>
												<file id="CC0008_01 3"/>
												<filter>
													<effect>
														<name>Audio Levels</name>
														<effectid>audiolevels</effectid>
														<effectcategory>audiolevels</effectcategory>
														<effecttype>audiolevels</effecttype>
														<mediatype>audio</mediatype>
														<parameter>
															<name>Level</name>
															<parameterid>level</parameterid>
															<valuemin>0</valuemin>
															<valuemax>3.98109</valuemax>
															<value>1</value>
														</parameter>
													</effect>
												</filter>
												<filter>
													<effect>
														<name>Audio Pan</name>
														<effectid>audiopan</effectid>
														<effectcategory>audiopan</effectcategory>
														<effecttype>audiopan</effecttype>
														<mediatype>audio</mediatype>
														<parameter>
															<name>Pan</name>
															<parameterid>pan</parameterid>
															<valuemin>-1</valuemin>
															<valuemax>1</valuemax>
															<value>0</value>
														</parameter>
													</effect>
												</filter>
												<sourcetrack>
													<mediatype>audio</mediatype>
													<trackindex>1</trackindex>
												</sourcetrack>
												<link>
													<linkclipref>CC0008_01 2</linkclipref>
													<mediatype>video</mediatype>
													<trackindex>1</trackindex>
													<clipindex>1</clipindex>
												</link>
												<link>
													<linkclipref>CC0008_01 4</linkclipref>
													<mediatype>audio</mediatype>
													<trackindex>1</trackindex>
													<clipindex>1</clipindex>
												</link>
												<link>
													<linkclipref>CC0008_01 5</linkclipref>
													<mediatype>audio</mediatype>
													<trackindex>2</trackindex>
													<clipindex>1</clipindex>
												</link>
												<mediadelay>89219</mediadelay>
												<itemhistory>
													<uuid>A01F15A0-B4B1-4DA9-B211-79740BA4FB1D</uuid>
												</itemhistory>
											</clipitem>
											<enabled>TRUE</enabled>
											<locked>FALSE</locked>
										</track>
										<track>
											<clipitem id="CC0008_01 5">
												<name>CC0008_01</name>
												<duration>478461</duration>
												<rate>
													<ntsc>TRUE</ntsc>
													<timebase>24</timebase>
												</rate>
												<in>0</in>
												<out>478461</out>
												<start>0</start>
												<end>478461</end>
												<subframeoffset>0</subframeoffset>
												<anamorphic>FALSE</anamorphic>
												<masterclipid>CC0008_01 1</masterclipid>
												<syncoffset>0</syncoffset>
												<logginginfo>
													<scene/>
													<shottake/>
													<lognote/>
													<good>FALSE</good>
												</logginginfo>
												<labels>
													<label>Good Take</label>
													<label2/>
												</labels>
												<comments>
													<mastercomment1/>
													<mastercomment2/>
													<mastercomment3/>
													<mastercomment4/>
												</comments>
												<file id="CC0008_01 3"/>
												<filter>
													<effect>
														<name>Audio Levels</name>
														<effectid>audiolevels</effectid>
														<effectcategory>audiolevels</effectcategory>
														<effecttype>audiolevels</effecttype>
														<mediatype>audio</mediatype>
														<parameter>
															<name>Level</name>
															<parameterid>level</parameterid>
															<valuemin>0</valuemin>
															<valuemax>3.98109</valuemax>
															<value>1</value>
														</parameter>
													</effect>
												</filter>
												<filter>
													<effect>
														<name>Audio Pan</name>
														<effectid>audiopan</effectid>
														<effectcategory>audiopan</effectcategory>
														<effecttype>audiopan</effecttype>
														<mediatype>audio</mediatype>
														<parameter>
															<name>Pan</name>
															<parameterid>pan</parameterid>
															<valuemin>-1</valuemin>
															<valuemax>1</valuemax>
															<value>0</value>
														</parameter>
													</effect>
												</filter>
												<sourcetrack>
													<mediatype>audio</mediatype>
													<trackindex>2</trackindex>
												</sourcetrack>
												<link>
													<linkclipref>CC0008_01 2</linkclipref>
													<mediatype>video</mediatype>
													<trackindex>1</trackindex>
													<clipindex>1</clipindex>
												</link>
												<link>
													<linkclipref>CC0008_01 4</linkclipref>
													<mediatype>audio</mediatype>
													<trackindex>1</trackindex>
													<clipindex>1</clipindex>
												</link>
												<link>
													<linkclipref>CC0008_01 5</linkclipref>
													<mediatype>audio</mediatype>
													<trackindex>2</trackindex>
													<clipindex>1</clipindex>
												</link>
												<mediadelay>89219</mediadelay>
												<itemhistory>
													<uuid>C04D3E6C-E282-41A1-8C84-39279786009B</uuid>
												</itemhistory>
											</clipitem>
											<enabled>TRUE</enabled>
											<locked>FALSE</locked>
										</track>
										<filter>
											<effect>
												<name>Audio Levels</name>
												<effectid>audiolevels</effectid>
												<effectcategory>audiolevels</effectcategory>
												<effecttype>audiolevels</effecttype>
												<mediatype>audio</mediatype>
												<parameter>
													<name>Level</name>
													<parameterid>level</parameterid>
													<valuemin>0</valuemin>
													<valuemax>3.98109</valuemax>
													<value>1</value>
												</parameter>
											</effect>
										</filter>
									</audio>
								</media>
							</clip>
						</angle>
						<angle>
							<clip id="CC0009_01 ">
								<uuid>F3DF0EF4-B31D-47DE-842E-0EC99695B9A4</uuid>
								<updatebehavior>add</updatebehavior>
								<name>CC0009_01</name>
								<duration>478461</duration>
								<rate>
									<ntsc>TRUE</ntsc>
									<timebase>24</timebase>
								</rate>
								<in>-1</in>
								<out>-1</out>
								<anamorphic>FALSE</anamorphic>
								<masterclipid>CC0009_01 1</masterclipid>
								<ismasterclip>FALSE</ismasterclip>
								<logginginfo>
									<scene/>
									<shottake/>
									<lognote/>
									<good>FALSE</good>
								</logginginfo>
								<labels>
									<label>Good Take</label>
									<label2/>
								</labels>
								<comments>
									<mastercomment1/>
									<mastercomment2/>
									<mastercomment3/>
									<mastercomment4/>
								</comments>
								<media>
									<video>
										<track>
											<clipitem id="CC0009_01 2">
												<name>CC0009_01</name>
												<duration>478461</duration>
												<rate>
													<ntsc>TRUE</ntsc>
													<timebase>24</timebase>
												</rate>
												<in>0</in>
												<out>478461</out>
												<start>0</start>
												<end>478461</end>
												<pixelaspectratio>Square</pixelaspectratio>
												<anamorphic>FALSE</anamorphic>
												<alphatype>none</alphatype>
												<masterclipid>CC0009_01 1</masterclipid>
												<syncoffset>0</syncoffset>
												<logginginfo>
													<scene/>
													<shottake/>
													<lognote/>
													<good>FALSE</good>
												</logginginfo>
												<labels>
													<label>Good Take</label>
													<label2/>
												</labels>
												<comments>
													<mastercomment1/>
													<mastercomment2/>
													<mastercomment3/>
													<mastercomment4/>
												</comments>
												<file id="CC0009_01 3">
													<name>CC0009_01.mov</name>
													<pathurl>file://localhost/Volumes/Share/Edit%20Share/00%20BREW%20DOGS%20S1/BD_00_San_Diego/052413/01_Video/C300/CC0009_01.mov</pathurl>
													<rate>
														<timebase>24</timebase>
														<ntsc>TRUE</ntsc>
													</rate>
													<duration>16188</duration>
													<metadata>
														<storage>QuickTime</storage>
														<key>com.apple.quicktime.creationdate</key>
														<size>24</size>
														<type>UTF8</type>
														<value>2013-05-24T12:49:52-0700</value>
													</metadata>
													<metadata>
														<storage>QuickTime</storage>
														<key>com.apple.finalcutstudio.media.history.uuid</key>
														<size>36</size>
														<type>UTF8</type>
														<value>7C4C0589-3572-460A-B842-29EDAEA93714</value>
													</metadata>
													<metadata>
														<storage>QuickTime</storage>
														<key>com.apple.finalcutstudio.media.uuid</key>
														<size>36</size>
														<type>UTF8</type>
														<value>C0B180DA-2BFD-4F27-B3A8-17981B2FDE10</value>
													</metadata>
													<metadata>
														<storage>QuickTime</storage>
														<key>com.apple.proapps.reel</key>
														<size>12</size>
														<type>UTF8</type>
														<value>C01_verified</value>
													</metadata>
													<metadata>
														<storage>QuickTime</storage>
														<key>com.apple.proapps.isGood</key>
														<size>4</size>
														<type>unsigned</type>
														<value>0</value>
													</metadata>
													<metadata>
														<storage>QuickTime</storage>
														<key>com.apple.proapps.clipID</key>
														<size>36</size>
														<type>UTF8</type>
														<value>0D3AC500-3664-0580-0000-8500025A0A95</value>
													</metadata>
													<metadata>
														<storage>QuickTime</storage>
														<key>com.apple.proapps.originalFormat</key>
														<size>14</size>
														<type>UTF8</type>
														<value>Canon XF MPEG2</value>
													</metadata>
													<timecode>
														<rate>
															<timebase>24</timebase>
														</rate>
														<string>12:49:51:14</string>
														<frame>1108598</frame>
														<displayformat>NDF</displayformat>
														<source>source</source>
														<reel>
															<name>C01_verified</name>
														</reel>
													</timecode>
													<media>
														<video>
															<duration>16188</duration>
															<samplecharacteristics>
																<width>1920</width>
																<height>1080</height>
															</samplecharacteristics>
														</video>
														<audio>
															<samplecharacteristics>
																<samplerate>48000</samplerate>
																<depth>16</depth>
															</samplecharacteristics>
															<channelcount>1</channelcount>
															<layout>mono</layout>
															<audiochannel>
																<sourcechannel>1</sourcechannel>
																<channellabel>discrete</channellabel>
															</audiochannel>
														</audio>
														<audio>
															<samplecharacteristics>
																<samplerate>48000</samplerate>
																<depth>16</depth>
															</samplecharacteristics>
															<channelcount>1</channelcount>
															<layout>mono</layout>
															<audiochannel>
																<sourcechannel>2</sourcechannel>
																<channellabel>discrete</channellabel>
															</audiochannel>
														</audio>
													</media>
												</file>
												<sourcetrack>
													<mediatype>video</mediatype>
												</sourcetrack>
												<link>
													<linkclipref>CC0009_01 2</linkclipref>
													<mediatype>video</mediatype>
													<trackindex>1</trackindex>
													<clipindex>1</clipindex>
												</link>
												<link>
													<linkclipref>CC0009_01 4</linkclipref>
													<mediatype>audio</mediatype>
													<trackindex>1</trackindex>
													<clipindex>1</clipindex>
												</link>
												<link>
													<linkclipref>CC0009_01 5</linkclipref>
													<mediatype>audio</mediatype>
													<trackindex>2</trackindex>
													<clipindex>1</clipindex>
												</link>
												<fielddominance>none</fielddominance>
												<mediadelay>90243</mediadelay>
												<itemhistory>
													<uuid>CF452563-F585-47FE-BC66-D8DDD19AC58F</uuid>
												</itemhistory>
											</clipitem>
											<enabled>TRUE</enabled>
											<locked>FALSE</locked>
										</track>
									</video>
									<audio>
										<outputs>
											<group>
												<index>1</index>
												<numchannels>2</numchannels>
												<downmix>0</downmix>
												<channel>
													<index>1</index>
												</channel>
												<channel>
													<index>2</index>
												</channel>
											</group>
										</outputs>
										<in>-1</in>
										<out>-1</out>
										<track>
											<clipitem id="CC0009_01 4">
												<name>CC0009_01</name>
												<duration>478461</duration>
												<rate>
													<ntsc>TRUE</ntsc>
													<timebase>24</timebase>
												</rate>
												<in>0</in>
												<out>478461</out>
												<start>0</start>
												<end>478461</end>
												<subframeoffset>0</subframeoffset>
												<anamorphic>FALSE</anamorphic>
												<masterclipid>CC0009_01 1</masterclipid>
												<syncoffset>0</syncoffset>
												<logginginfo>
													<scene/>
													<shottake/>
													<lognote/>
													<good>FALSE</good>
												</logginginfo>
												<labels>
													<label>Good Take</label>
													<label2/>
												</labels>
												<comments>
													<mastercomment1/>
													<mastercomment2/>
													<mastercomment3/>
													<mastercomment4/>
												</comments>
												<file id="CC0009_01 3"/>
												<filter>
													<effect>
														<name>Audio Levels</name>
														<effectid>audiolevels</effectid>
														<effectcategory>audiolevels</effectcategory>
														<effecttype>audiolevels</effecttype>
														<mediatype>audio</mediatype>
														<parameter>
															<name>Level</name>
															<parameterid>level</parameterid>
															<valuemin>0</valuemin>
															<valuemax>3.98109</valuemax>
															<value>1</value>
														</parameter>
													</effect>
												</filter>
												<filter>
													<effect>
														<name>Audio Pan</name>
														<effectid>audiopan</effectid>
														<effectcategory>audiopan</effectcategory>
														<effecttype>audiopan</effecttype>
														<mediatype>audio</mediatype>
														<parameter>
															<name>Pan</name>
															<parameterid>pan</parameterid>
															<valuemin>-1</valuemin>
															<valuemax>1</valuemax>
															<value>0</value>
														</parameter>
													</effect>
												</filter>
												<sourcetrack>
													<mediatype>audio</mediatype>
													<trackindex>1</trackindex>
												</sourcetrack>
												<link>
													<linkclipref>CC0009_01 2</linkclipref>
													<mediatype>video</mediatype>
													<trackindex>1</trackindex>
													<clipindex>1</clipindex>
												</link>
												<link>
													<linkclipref>CC0009_01 4</linkclipref>
													<mediatype>audio</mediatype>
													<trackindex>1</trackindex>
													<clipindex>1</clipindex>
												</link>
												<link>
													<linkclipref>CC0009_01 5</linkclipref>
													<mediatype>audio</mediatype>
													<trackindex>2</trackindex>
													<clipindex>1</clipindex>
												</link>
												<mediadelay>90243</mediadelay>
												<itemhistory>
													<uuid>EAA34069-C47D-417C-9EF6-0056A972F540</uuid>
												</itemhistory>
											</clipitem>
											<enabled>TRUE</enabled>
											<locked>FALSE</locked>
										</track>
										<track>
											<clipitem id="CC0009_01 5">
												<name>CC0009_01</name>
												<duration>478461</duration>
												<rate>
													<ntsc>TRUE</ntsc>
													<timebase>24</timebase>
												</rate>
												<in>0</in>
												<out>478461</out>
												<start>0</start>
												<end>478461</end>
												<subframeoffset>0</subframeoffset>
												<anamorphic>FALSE</anamorphic>
												<masterclipid>CC0009_01 1</masterclipid>
												<syncoffset>0</syncoffset>
												<logginginfo>
													<scene/>
													<shottake/>
													<lognote/>
													<good>FALSE</good>
												</logginginfo>
												<labels>
													<label>Good Take</label>
													<label2/>
												</labels>
												<comments>
													<mastercomment1/>
													<mastercomment2/>
													<mastercomment3/>
													<mastercomment4/>
												</comments>
												<file id="CC0009_01 3"/>
												<filter>
													<effect>
														<name>Audio Levels</name>
														<effectid>audiolevels</effectid>
														<effectcategory>audiolevels</effectcategory>
														<effecttype>audiolevels</effecttype>
														<mediatype>audio</mediatype>
														<parameter>
															<name>Level</name>
															<parameterid>level</parameterid>
															<valuemin>0</valuemin>
															<valuemax>3.98109</valuemax>
															<value>1</value>
														</parameter>
													</effect>
												</filter>
												<filter>
													<effect>
														<name>Audio Pan</name>
														<effectid>audiopan</effectid>
														<effectcategory>audiopan</effectcategory>
														<effecttype>audiopan</effecttype>
														<mediatype>audio</mediatype>
														<parameter>
															<name>Pan</name>
															<parameterid>pan</parameterid>
															<valuemin>-1</valuemin>
															<valuemax>1</valuemax>
															<value>0</value>
														</parameter>
													</effect>
												</filter>
												<sourcetrack>
													<mediatype>audio</mediatype>
													<trackindex>2</trackindex>
												</sourcetrack>
												<link>
													<linkclipref>CC0009_01 2</linkclipref>
													<mediatype>video</mediatype>
													<trackindex>1</trackindex>
													<clipindex>1</clipindex>
												</link>
												<link>
													<linkclipref>CC0009_01 4</linkclipref>
													<mediatype>audio</mediatype>
													<trackindex>1</trackindex>
													<clipindex>1</clipindex>
												</link>
												<link>
													<linkclipref>CC0009_01 5</linkclipref>
													<mediatype>audio</mediatype>
													<trackindex>2</trackindex>
													<clipindex>1</clipindex>
												</link>
												<mediadelay>90243</mediadelay>
												<itemhistory>
													<uuid>4F259199-AAD6-4F61-A9D6-E84F338DA69E</uuid>
												</itemhistory>
											</clipitem>
											<enabled>TRUE</enabled>
											<locked>FALSE</locked>
										</track>
										<filter>
											<effect>
												<name>Audio Levels</name>
												<effectid>audiolevels</effectid>
												<effectcategory>audiolevels</effectcategory>
												<effecttype>audiolevels</effecttype>
												<mediatype>audio</mediatype>
												<parameter>
													<name>Level</name>
													<parameterid>level</parameterid>
													<valuemin>0</valuemin>
													<valuemax>3.98109</valuemax>
													<value>1</value>
												</parameter>
											</effect>
										</filter>
									</audio>
								</media>
							</clip>
						</angle>
						<angle>
							<clip id="CC0010_01 ">
								<uuid>973CF4B5-1A78-40BC-9653-E43E19B90D69</uuid>
								<updatebehavior>add</updatebehavior>
								<name>CC0010_01</name>
								<duration>478461</duration>
								<rate>
									<ntsc>TRUE</ntsc>
									<timebase>24</timebase>
								</rate>
								<in>-1</in>
								<out>-1</out>
								<anamorphic>FALSE</anamorphic>
								<masterclipid>CC0010_01 1</masterclipid>
								<ismasterclip>FALSE</ismasterclip>
								<logginginfo>
									<scene/>
									<shottake/>
									<lognote/>
									<good>FALSE</good>
								</logginginfo>
								<labels>
									<label>Good Take</label>
									<label2/>
								</labels>
								<comments>
									<mastercomment1/>
									<mastercomment2/>
									<mastercomment3/>
									<mastercomment4/>
								</comments>
								<media>
									<video>
										<track>
											<clipitem id="CC0010_01 2">
												<name>CC0010_01</name>
												<duration>478461</duration>
												<rate>
													<ntsc>TRUE</ntsc>
													<timebase>24</timebase>
												</rate>
												<in>0</in>
												<out>478461</out>
												<start>0</start>
												<end>478461</end>
												<pixelaspectratio>Square</pixelaspectratio>
												<anamorphic>FALSE</anamorphic>
												<alphatype>none</alphatype>
												<masterclipid>CC0010_01 1</masterclipid>
												<syncoffset>0</syncoffset>
												<logginginfo>
													<scene/>
													<shottake/>
													<lognote/>
													<good>FALSE</good>
												</logginginfo>
												<labels>
													<label>Good Take</label>
													<label2/>
												</labels>
												<comments>
													<mastercomment1/>
													<mastercomment2/>
													<mastercomment3/>
													<mastercomment4/>
												</comments>
												<file id="CC0010_01 3">
													<name>CC0010_01.mov</name>
													<pathurl>file://localhost/Volumes/Share/Edit%20Share/00%20BREW%20DOGS%20S1/BD_00_San_Diego/052413/01_Video/C300/CC0010_01.mov</pathurl>
													<rate>
														<timebase>24</timebase>
														<ntsc>TRUE</ntsc>
													</rate>
													<duration>12600</duration>
													<metadata>
														<storage>QuickTime</storage>
														<key>com.apple.quicktime.creationdate</key>
														<size>24</size>
														<type>UTF8</type>
														<value>2013-05-24T13:26:05-0700</value>
													</metadata>
													<metadata>
														<storage>QuickTime</storage>
														<key>com.apple.finalcutstudio.media.history.uuid</key>
														<size>36</size>
														<type>UTF8</type>
														<value>C2D08D02-9D04-4909-8462-D2C4CC579688</value>
													</metadata>
													<metadata>
														<storage>QuickTime</storage>
														<key>com.apple.finalcutstudio.media.uuid</key>
														<size>36</size>
														<type>UTF8</type>
														<value>EEEF33A0-3BF6-4168-9528-E770E5A36CF3</value>
													</metadata>
													<metadata>
														<storage>QuickTime</storage>
														<key>com.apple.proapps.reel</key>
														<size>12</size>
														<type>UTF8</type>
														<value>C01_verified</value>
													</metadata>
													<metadata>
														<storage>QuickTime</storage>
														<key>com.apple.proapps.isGood</key>
														<size>4</size>
														<type>unsigned</type>
														<value>0</value>
													</metadata>
													<metadata>
														<storage>QuickTime</storage>
														<key>com.apple.proapps.clipID</key>
														<size>36</size>
														<type>UTF8</type>
														<value>0D3CC24C-3664-0580-0000-8500025A0A95</value>
													</metadata>
													<metadata>
														<storage>QuickTime</storage>
														<key>com.apple.proapps.originalFormat</key>
														<size>14</size>
														<type>UTF8</type>
														<value>Canon XF MPEG2</value>
													</metadata>
													<timecode>
														<rate>
															<timebase>24</timebase>
														</rate>
														<string>13:26:02:11</string>
														<frame>1160699</frame>
														<displayformat>NDF</displayformat>
														<source>source</source>
														<reel>
															<name>C01_verified</name>
														</reel>
													</timecode>
													<media>
														<video>
															<duration>12600</duration>
															<samplecharacteristics>
																<width>1920</width>
																<height>1080</height>
															</samplecharacteristics>
														</video>
														<audio>
															<samplecharacteristics>
																<samplerate>48000</samplerate>
																<depth>16</depth>
															</samplecharacteristics>
															<channelcount>1</channelcount>
															<layout>mono</layout>
															<audiochannel>
																<sourcechannel>1</sourcechannel>
																<channellabel>discrete</channellabel>
															</audiochannel>
														</audio>
														<audio>
															<samplecharacteristics>
																<samplerate>48000</samplerate>
																<depth>16</depth>
															</samplecharacteristics>
															<channelcount>1</channelcount>
															<layout>mono</layout>
															<audiochannel>
																<sourcechannel>2</sourcechannel>
																<channellabel>discrete</channellabel>
															</audiochannel>
														</audio>
													</media>
												</file>
												<sourcetrack>
													<mediatype>video</mediatype>
												</sourcetrack>
												<link>
													<linkclipref>CC0010_01 2</linkclipref>
													<mediatype>video</mediatype>
													<trackindex>1</trackindex>
													<clipindex>1</clipindex>
												</link>
												<link>
													<linkclipref>CC0010_01 4</linkclipref>
													<mediatype>audio</mediatype>
													<trackindex>1</trackindex>
													<clipindex>1</clipindex>
												</link>
												<link>
													<linkclipref>CC0010_01 5</linkclipref>
													<mediatype>audio</mediatype>
													<trackindex>2</trackindex>
													<clipindex>1</clipindex>
												</link>
												<fielddominance>none</fielddominance>
												<mediadelay>142344</mediadelay>
												<itemhistory>
													<uuid>F9CBCBD5-4736-4C9D-B53E-19F6B5609CAA</uuid>
												</itemhistory>
											</clipitem>
											<enabled>TRUE</enabled>
											<locked>FALSE</locked>
										</track>
									</video>
									<audio>
										<outputs>
											<group>
												<index>1</index>
												<numchannels>2</numchannels>
												<downmix>0</downmix>
												<channel>
													<index>1</index>
												</channel>
												<channel>
													<index>2</index>
												</channel>
											</group>
										</outputs>
										<in>-1</in>
										<out>-1</out>
										<track>
											<clipitem id="CC0010_01 4">
												<name>CC0010_01</name>
												<duration>478461</duration>
												<rate>
													<ntsc>TRUE</ntsc>
													<timebase>24</timebase>
												</rate>
												<in>0</in>
												<out>478461</out>
												<start>0</start>
												<end>478461</end>
												<subframeoffset>0</subframeoffset>
												<anamorphic>FALSE</anamorphic>
												<masterclipid>CC0010_01 1</masterclipid>
												<syncoffset>0</syncoffset>
												<logginginfo>
													<scene/>
													<shottake/>
													<lognote/>
													<good>FALSE</good>
												</logginginfo>
												<labels>
													<label>Good Take</label>
													<label2/>
												</labels>
												<comments>
													<mastercomment1/>
													<mastercomment2/>
													<mastercomment3/>
													<mastercomment4/>
												</comments>
												<file id="CC0010_01 3"/>
												<filter>
													<effect>
														<name>Audio Levels</name>
														<effectid>audiolevels</effectid>
														<effectcategory>audiolevels</effectcategory>
														<effecttype>audiolevels</effecttype>
														<mediatype>audio</mediatype>
														<parameter>
															<name>Level</name>
															<parameterid>level</parameterid>
															<valuemin>0</valuemin>
															<valuemax>3.98109</valuemax>
															<value>1</value>
														</parameter>
													</effect>
												</filter>
												<filter>
													<effect>
														<name>Audio Pan</name>
														<effectid>audiopan</effectid>
														<effectcategory>audiopan</effectcategory>
														<effecttype>audiopan</effecttype>
														<mediatype>audio</mediatype>
														<parameter>
															<name>Pan</name>
															<parameterid>pan</parameterid>
															<valuemin>-1</valuemin>
															<valuemax>1</valuemax>
															<value>0</value>
														</parameter>
													</effect>
												</filter>
												<sourcetrack>
													<mediatype>audio</mediatype>
													<trackindex>1</trackindex>
												</sourcetrack>
												<link>
													<linkclipref>CC0010_01 2</linkclipref>
													<mediatype>video</mediatype>
													<trackindex>1</trackindex>
													<clipindex>1</clipindex>
												</link>
												<link>
													<linkclipref>CC0010_01 4</linkclipref>
													<mediatype>audio</mediatype>
													<trackindex>1</trackindex>
													<clipindex>1</clipindex>
												</link>
												<link>
													<linkclipref>CC0010_01 5</linkclipref>
													<mediatype>audio</mediatype>
													<trackindex>2</trackindex>
													<clipindex>1</clipindex>
												</link>
												<mediadelay>142344</mediadelay>
												<itemhistory>
													<uuid>12F85B3A-1189-42C4-8058-FAD3F18050CD</uuid>
												</itemhistory>
											</clipitem>
											<enabled>TRUE</enabled>
											<locked>FALSE</locked>
										</track>
										<track>
											<clipitem id="CC0010_01 5">
												<name>CC0010_01</name>
												<duration>478461</duration>
												<rate>
													<ntsc>TRUE</ntsc>
													<timebase>24</timebase>
												</rate>
												<in>0</in>
												<out>478461</out>
												<start>0</start>
												<end>478461</end>
												<subframeoffset>0</subframeoffset>
												<anamorphic>FALSE</anamorphic>
												<masterclipid>CC0010_01 1</masterclipid>
												<syncoffset>0</syncoffset>
												<logginginfo>
													<scene/>
													<shottake/>
													<lognote/>
													<good>FALSE</good>
												</logginginfo>
												<labels>
													<label>Good Take</label>
													<label2/>
												</labels>
												<comments>
													<mastercomment1/>
													<mastercomment2/>
													<mastercomment3/>
													<mastercomment4/>
												</comments>
												<file id="CC0010_01 3"/>
												<filter>
													<effect>
														<name>Audio Levels</name>
														<effectid>audiolevels</effectid>
														<effectcategory>audiolevels</effectcategory>
														<effecttype>audiolevels</effecttype>
														<mediatype>audio</mediatype>
														<parameter>
															<name>Level</name>
															<parameterid>level</parameterid>
															<valuemin>0</valuemin>
															<valuemax>3.98109</valuemax>
															<value>1</value>
														</parameter>
													</effect>
												</filter>
												<filter>
													<effect>
														<name>Audio Pan</name>
														<effectid>audiopan</effectid>
														<effectcategory>audiopan</effectcategory>
														<effecttype>audiopan</effecttype>
														<mediatype>audio</mediatype>
														<parameter>
															<name>Pan</name>
															<parameterid>pan</parameterid>
															<valuemin>-1</valuemin>
															<valuemax>1</valuemax>
															<value>0</value>
														</parameter>
													</effect>
												</filter>
												<sourcetrack>
													<mediatype>audio</mediatype>
													<trackindex>2</trackindex>
												</sourcetrack>
												<link>
													<linkclipref>CC0010_01 2</linkclipref>
													<mediatype>video</mediatype>
													<trackindex>1</trackindex>
													<clipindex>1</clipindex>
												</link>
												<link>
													<linkclipref>CC0010_01 4</linkclipref>
													<mediatype>audio</mediatype>
													<trackindex>1</trackindex>
													<clipindex>1</clipindex>
												</link>
												<link>
													<linkclipref>CC0010_01 5</linkclipref>
													<mediatype>audio</mediatype>
													<trackindex>2</trackindex>
													<clipindex>1</clipindex>
												</link>
												<mediadelay>142344</mediadelay>
												<itemhistory>
													<uuid>C2D225FF-41E0-400A-97A4-1BAE28574E4A</uuid>
												</itemhistory>
											</clipitem>
											<enabled>TRUE</enabled>
											<locked>FALSE</locked>
										</track>
										<filter>
											<effect>
												<name>Audio Levels</name>
												<effectid>audiolevels</effectid>
												<effectcategory>audiolevels</effectcategory>
												<effecttype>audiolevels</effecttype>
												<mediatype>audio</mediatype>
												<parameter>
													<name>Level</name>
													<parameterid>level</parameterid>
													<valuemin>0</valuemin>
													<valuemax>3.98109</valuemax>
													<value>1</value>
												</parameter>
											</effect>
										</filter>
									</audio>
								</media>
							</clip>
						</angle>
						<angle>
							<activevideoangle>TRUE</activevideoangle>
							<activeaudioangle>TRUE</activeaudioangle>
							<clip id="CC0011_01 5">
								<uuid>82425603-0039-4BDD-AE76-CA684C9177D1</uuid>
								<updatebehavior>add</updatebehavior>
								<name>CC0011_01</name>
								<duration>478461</duration>
								<rate>
									<ntsc>TRUE</ntsc>
									<timebase>24</timebase>
								</rate>
								<in>-1</in>
								<out>-1</out>
								<anamorphic>FALSE</anamorphic>
								<masterclipid>CC0011_01 1</masterclipid>
								<ismasterclip>FALSE</ismasterclip>
								<logginginfo>
									<scene/>
									<shottake/>
									<lognote/>
									<good>FALSE</good>
								</logginginfo>
								<labels>
									<label>Good Take</label>
									<label2/>
								</labels>
								<comments>
									<mastercomment1/>
									<mastercomment2/>
									<mastercomment3/>
									<mastercomment4/>
								</comments>
								<media>
									<video>
										<track>
											<clipitem id="CC0011_01 6">
												<name>CC0011_01</name>
												<duration>478461</duration>
												<rate>
													<ntsc>TRUE</ntsc>
													<timebase>24</timebase>
												</rate>
												<in>0</in>
												<out>478461</out>
												<start>0</start>
												<end>478461</end>
												<pixelaspectratio>Square</pixelaspectratio>
												<anamorphic>FALSE</anamorphic>
												<alphatype>none</alphatype>
												<masterclipid>CC0011_01 1</masterclipid>
												<syncoffset>0</syncoffset>
												<logginginfo>
													<scene/>
													<shottake/>
													<lognote/>
													<good>FALSE</good>
												</logginginfo>
												<labels>
													<label>Good Take</label>
													<label2/>
												</labels>
												<comments>
													<mastercomment1/>
													<mastercomment2/>
													<mastercomment3/>
													<mastercomment4/>
												</comments>
												<file id="CC0011_01 2"/>
												<sourcetrack>
													<mediatype>video</mediatype>
												</sourcetrack>
												<link>
													<linkclipref>CC0011_01 6</linkclipref>
													<mediatype>video</mediatype>
													<trackindex>1</trackindex>
													<clipindex>1</clipindex>
												</link>
												<link>
													<linkclipref>CC0011_01 7</linkclipref>
													<mediatype>audio</mediatype>
													<trackindex>1</trackindex>
													<clipindex>1</clipindex>
												</link>
												<link>
													<linkclipref>CC0011_01 8</linkclipref>
													<mediatype>audio</mediatype>
													<trackindex>2</trackindex>
													<clipindex>1</clipindex>
												</link>
												<fielddominance>none</fielddominance>
												<mediadelay>155264</mediadelay>
												<itemhistory>
													<uuid>13BAB011-E020-4F3C-96BB-67CF10F220C6</uuid>
												</itemhistory>
											</clipitem>
											<enabled>TRUE</enabled>
											<locked>FALSE</locked>
										</track>
									</video>
									<audio>
										<outputs>
											<group>
												<index>1</index>
												<numchannels>2</numchannels>
												<downmix>0</downmix>
												<channel>
													<index>1</index>
												</channel>
												<channel>
													<index>2</index>
												</channel>
											</group>
										</outputs>
										<in>-1</in>
										<out>-1</out>
										<track>
											<clipitem id="CC0011_01 7">
												<name>CC0011_01</name>
												<duration>478461</duration>
												<rate>
													<ntsc>TRUE</ntsc>
													<timebase>24</timebase>
												</rate>
												<in>0</in>
												<out>478461</out>
												<start>0</start>
												<end>478461</end>
												<subframeoffset>0</subframeoffset>
												<anamorphic>FALSE</anamorphic>
												<masterclipid>CC0011_01 1</masterclipid>
												<syncoffset>0</syncoffset>
												<logginginfo>
													<scene/>
													<shottake/>
													<lognote/>
													<good>FALSE</good>
												</logginginfo>
												<labels>
													<label>Good Take</label>
													<label2/>
												</labels>
												<comments>
													<mastercomment1/>
													<mastercomment2/>
													<mastercomment3/>
													<mastercomment4/>
												</comments>
												<file id="CC0011_01 2"/>
												<filter>
													<effect>
														<name>Audio Levels</name>
														<effectid>audiolevels</effectid>
														<effectcategory>audiolevels</effectcategory>
														<effecttype>audiolevels</effecttype>
														<mediatype>audio</mediatype>
														<parameter>
															<name>Level</name>
															<parameterid>level</parameterid>
															<valuemin>0</valuemin>
															<valuemax>3.98109</valuemax>
															<value>1</value>
														</parameter>
													</effect>
												</filter>
												<filter>
													<effect>
														<name>Audio Pan</name>
														<effectid>audiopan</effectid>
														<effectcategory>audiopan</effectcategory>
														<effecttype>audiopan</effecttype>
														<mediatype>audio</mediatype>
														<parameter>
															<name>Pan</name>
															<parameterid>pan</parameterid>
															<valuemin>-1</valuemin>
															<valuemax>1</valuemax>
															<value>0</value>
														</parameter>
													</effect>
												</filter>
												<sourcetrack>
													<mediatype>audio</mediatype>
													<trackindex>1</trackindex>
												</sourcetrack>
												<link>
													<linkclipref>CC0011_01 6</linkclipref>
													<mediatype>video</mediatype>
													<trackindex>1</trackindex>
													<clipindex>1</clipindex>
												</link>
												<link>
													<linkclipref>CC0011_01 7</linkclipref>
													<mediatype>audio</mediatype>
													<trackindex>1</trackindex>
													<clipindex>1</clipindex>
												</link>
												<link>
													<linkclipref>CC0011_01 8</linkclipref>
													<mediatype>audio</mediatype>
													<trackindex>2</trackindex>
													<clipindex>1</clipindex>
												</link>
												<mediadelay>155264</mediadelay>
												<itemhistory>
													<uuid>58BEEBF7-2A84-40A9-B3AD-109441E67DE7</uuid>
												</itemhistory>
											</clipitem>
											<enabled>TRUE</enabled>
											<locked>FALSE</locked>
										</track>
										<track>
											<clipitem id="CC0011_01 8">
												<name>CC0011_01</name>
												<duration>478461</duration>
												<rate>
													<ntsc>TRUE</ntsc>
													<timebase>24</timebase>
												</rate>
												<in>0</in>
												<out>478461</out>
												<start>0</start>
												<end>478461</end>
												<subframeoffset>0</subframeoffset>
												<anamorphic>FALSE</anamorphic>
												<masterclipid>CC0011_01 1</masterclipid>
												<syncoffset>0</syncoffset>
												<logginginfo>
													<scene/>
													<shottake/>
													<lognote/>
													<good>FALSE</good>
												</logginginfo>
												<labels>
													<label>Good Take</label>
													<label2/>
												</labels>
												<comments>
													<mastercomment1/>
													<mastercomment2/>
													<mastercomment3/>
													<mastercomment4/>
												</comments>
												<file id="CC0011_01 2"/>
												<filter>
													<effect>
														<name>Audio Levels</name>
														<effectid>audiolevels</effectid>
														<effectcategory>audiolevels</effectcategory>
														<effecttype>audiolevels</effecttype>
														<mediatype>audio</mediatype>
														<parameter>
															<name>Level</name>
															<parameterid>level</parameterid>
															<valuemin>0</valuemin>
															<valuemax>3.98109</valuemax>
															<value>1</value>
														</parameter>
													</effect>
												</filter>
												<filter>
													<effect>
														<name>Audio Pan</name>
														<effectid>audiopan</effectid>
														<effectcategory>audiopan</effectcategory>
														<effecttype>audiopan</effecttype>
														<mediatype>audio</mediatype>
														<parameter>
															<name>Pan</name>
															<parameterid>pan</parameterid>
															<valuemin>-1</valuemin>
															<valuemax>1</valuemax>
															<value>0</value>
														</parameter>
													</effect>
												</filter>
												<sourcetrack>
													<mediatype>audio</mediatype>
													<trackindex>2</trackindex>
												</sourcetrack>
												<link>
													<linkclipref>CC0011_01 6</linkclipref>
													<mediatype>video</mediatype>
													<trackindex>1</trackindex>
													<clipindex>1</clipindex>
												</link>
												<link>
													<linkclipref>CC0011_01 7</linkclipref>
													<mediatype>audio</mediatype>
													<trackindex>1</trackindex>
													<clipindex>1</clipindex>
												</link>
												<link>
													<linkclipref>CC0011_01 8</linkclipref>
													<mediatype>audio</mediatype>
													<trackindex>2</trackindex>
													<clipindex>1</clipindex>
												</link>
												<mediadelay>155264</mediadelay>
												<itemhistory>
													<uuid>1154D7CC-8161-4E94-B043-72FA83F71F34</uuid>
												</itemhistory>
											</clipitem>
											<enabled>TRUE</enabled>
											<locked>FALSE</locked>
										</track>
										<filter>
											<effect>
												<name>Audio Levels</name>
												<effectid>audiolevels</effectid>
												<effectcategory>audiolevels</effectcategory>
												<effecttype>audiolevels</effecttype>
												<mediatype>audio</mediatype>
												<parameter>
													<name>Level</name>
													<parameterid>level</parameterid>
													<valuemin>0</valuemin>
													<valuemax>3.98109</valuemax>
													<value>1</value>
												</parameter>
											</effect>
										</filter>
									</audio>
								</media>
							</clip>
						</angle>
						<angle>
							<clip id="CC0012_01 ">
								<uuid>DE7240A4-E744-4EC7-B98A-C4316817F34E</uuid>
								<updatebehavior>add</updatebehavior>
								<name>CC0012_01</name>
								<duration>478461</duration>
								<rate>
									<ntsc>TRUE</ntsc>
									<timebase>24</timebase>
								</rate>
								<in>-1</in>
								<out>-1</out>
								<anamorphic>FALSE</anamorphic>
								<masterclipid>CC0012_01 1</masterclipid>
								<ismasterclip>FALSE</ismasterclip>
								<logginginfo>
									<scene/>
									<shottake/>
									<lognote/>
									<good>FALSE</good>
								</logginginfo>
								<labels>
									<label>Good Take</label>
									<label2/>
								</labels>
								<comments>
									<mastercomment1/>
									<mastercomment2/>
									<mastercomment3/>
									<mastercomment4/>
								</comments>
								<media>
									<video>
										<track>
											<clipitem id="CC0012_01 2">
												<name>CC0012_01</name>
												<duration>478461</duration>
												<rate>
													<ntsc>TRUE</ntsc>
													<timebase>24</timebase>
												</rate>
												<in>0</in>
												<out>478461</out>
												<start>0</start>
												<end>478461</end>
												<pixelaspectratio>Square</pixelaspectratio>
												<anamorphic>FALSE</anamorphic>
												<alphatype>none</alphatype>
												<masterclipid>CC0012_01 1</masterclipid>
												<syncoffset>0</syncoffset>
												<logginginfo>
													<scene/>
													<shottake/>
													<lognote/>
													<good>FALSE</good>
												</logginginfo>
												<labels>
													<label>Good Take</label>
													<label2/>
												</labels>
												<comments>
													<mastercomment1/>
													<mastercomment2/>
													<mastercomment3/>
													<mastercomment4/>
												</comments>
												<file id="CC0012_01 3">
													<name>CC0012_01.mov</name>
													<pathurl>file://localhost/Volumes/Share/Edit%20Share/00%20BREW%20DOGS%20S1/BD_00_San_Diego/052413/01_Video/C300/CC0012_01.mov</pathurl>
													<rate>
														<timebase>24</timebase>
														<ntsc>TRUE</ntsc>
													</rate>
													<duration>5532</duration>
													<metadata>
														<storage>QuickTime</storage>
														<key>com.apple.quicktime.creationdate</key>
														<size>24</size>
														<type>UTF8</type>
														<value>2013-05-24T13:40:11-0700</value>
													</metadata>
													<metadata>
														<storage>QuickTime</storage>
														<key>com.apple.finalcutstudio.media.history.uuid</key>
														<size>36</size>
														<type>UTF8</type>
														<value>0BD61448-A3D9-4A3F-A4EE-485032731F90</value>
													</metadata>
													<metadata>
														<storage>QuickTime</storage>
														<key>com.apple.finalcutstudio.media.uuid</key>
														<size>36</size>
														<type>UTF8</type>
														<value>D8F9B0B8-812E-4E35-81C3-2240ED67B4E9</value>
													</metadata>
													<metadata>
														<storage>QuickTime</storage>
														<key>com.apple.proapps.reel</key>
														<size>12</size>
														<type>UTF8</type>
														<value>C01_verified</value>
													</metadata>
													<metadata>
														<storage>QuickTime</storage>
														<key>com.apple.proapps.isGood</key>
														<size>4</size>
														<type>unsigned</type>
														<value>0</value>
													</metadata>
													<metadata>
														<storage>QuickTime</storage>
														<key>com.apple.proapps.clipID</key>
														<size>36</size>
														<type>UTF8</type>
														<value>0D3D8894-3664-0580-0000-8500025A0A95</value>
													</metadata>
													<metadata>
														<storage>QuickTime</storage>
														<key>com.apple.proapps.originalFormat</key>
														<size>14</size>
														<type>UTF8</type>
														<value>Canon XF MPEG2</value>
													</metadata>
													<timecode>
														<rate>
															<timebase>24</timebase>
														</rate>
														<string>13:40:08:07</string>
														<frame>1180999</frame>
														<displayformat>NDF</displayformat>
														<source>source</source>
														<reel>
															<name>C01_verified</name>
														</reel>
													</timecode>
													<media>
														<video>
															<duration>5532</duration>
															<samplecharacteristics>
																<width>1920</width>
																<height>1080</height>
															</samplecharacteristics>
														</video>
														<audio>
															<samplecharacteristics>
																<samplerate>48000</samplerate>
																<depth>16</depth>
															</samplecharacteristics>
															<channelcount>1</channelcount>
															<layout>mono</layout>
															<audiochannel>
																<sourcechannel>1</sourcechannel>
																<channellabel>discrete</channellabel>
															</audiochannel>
														</audio>
														<audio>
															<samplecharacteristics>
																<samplerate>48000</samplerate>
																<depth>16</depth>
															</samplecharacteristics>
															<channelcount>1</channelcount>
															<layout>mono</layout>
															<audiochannel>
																<sourcechannel>2</sourcechannel>
																<channellabel>discrete</channellabel>
															</audiochannel>
														</audio>
													</media>
												</file>
												<sourcetrack>
													<mediatype>video</mediatype>
												</sourcetrack>
												<link>
													<linkclipref>CC0012_01 2</linkclipref>
													<mediatype>video</mediatype>
													<trackindex>1</trackindex>
													<clipindex>1</clipindex>
												</link>
												<link>
													<linkclipref>CC0012_01 4</linkclipref>
													<mediatype>audio</mediatype>
													<trackindex>1</trackindex>
													<clipindex>1</clipindex>
												</link>
												<link>
													<linkclipref>CC0012_01 5</linkclipref>
													<mediatype>audio</mediatype>
													<trackindex>2</trackindex>
													<clipindex>1</clipindex>
												</link>
												<fielddominance>none</fielddominance>
												<mediadelay>162644</mediadelay>
												<itemhistory>
													<uuid>94B0E4E1-4582-4082-A3FB-90ABA2249C8A</uuid>
												</itemhistory>
											</clipitem>
											<enabled>TRUE</enabled>
											<locked>FALSE</locked>
										</track>
									</video>
									<audio>
										<outputs>
											<group>
												<index>1</index>
												<numchannels>2</numchannels>
												<downmix>0</downmix>
												<channel>
													<index>1</index>
												</channel>
												<channel>
													<index>2</index>
												</channel>
											</group>
										</outputs>
										<in>-1</in>
										<out>-1</out>
										<track>
											<clipitem id="CC0012_01 4">
												<name>CC0012_01</name>
												<duration>478461</duration>
												<rate>
													<ntsc>TRUE</ntsc>
													<timebase>24</timebase>
												</rate>
												<in>0</in>
												<out>478461</out>
												<start>0</start>
												<end>478461</end>
												<subframeoffset>0</subframeoffset>
												<anamorphic>FALSE</anamorphic>
												<masterclipid>CC0012_01 1</masterclipid>
												<syncoffset>0</syncoffset>
												<logginginfo>
													<scene/>
													<shottake/>
													<lognote/>
													<good>FALSE</good>
												</logginginfo>
												<labels>
													<label>Good Take</label>
													<label2/>
												</labels>
												<comments>
													<mastercomment1/>
													<mastercomment2/>
													<mastercomment3/>
													<mastercomment4/>
												</comments>
												<file id="CC0012_01 3"/>
												<filter>
													<effect>
														<name>Audio Levels</name>
														<effectid>audiolevels</effectid>
														<effectcategory>audiolevels</effectcategory>
														<effecttype>audiolevels</effecttype>
														<mediatype>audio</mediatype>
														<parameter>
															<name>Level</name>
															<parameterid>level</parameterid>
															<valuemin>0</valuemin>
															<valuemax>3.98109</valuemax>
															<value>1</value>
														</parameter>
													</effect>
												</filter>
												<filter>
													<effect>
														<name>Audio Pan</name>
														<effectid>audiopan</effectid>
														<effectcategory>audiopan</effectcategory>
														<effecttype>audiopan</effecttype>
														<mediatype>audio</mediatype>
														<parameter>
															<name>Pan</name>
															<parameterid>pan</parameterid>
															<valuemin>-1</valuemin>
															<valuemax>1</valuemax>
															<value>0</value>
														</parameter>
													</effect>
												</filter>
												<sourcetrack>
													<mediatype>audio</mediatype>
													<trackindex>1</trackindex>
												</sourcetrack>
												<link>
													<linkclipref>CC0012_01 2</linkclipref>
													<mediatype>video</mediatype>
													<trackindex>1</trackindex>
													<clipindex>1</clipindex>
												</link>
												<link>
													<linkclipref>CC0012_01 4</linkclipref>
													<mediatype>audio</mediatype>
													<trackindex>1</trackindex>
													<clipindex>1</clipindex>
												</link>
												<link>
													<linkclipref>CC0012_01 5</linkclipref>
													<mediatype>audio</mediatype>
													<trackindex>2</trackindex>
													<clipindex>1</clipindex>
												</link>
												<mediadelay>162644</mediadelay>
												<itemhistory>
													<uuid>70FB4E1C-9945-4D78-89CA-FABA0FBF5913</uuid>
												</itemhistory>
											</clipitem>
											<enabled>TRUE</enabled>
											<locked>FALSE</locked>
										</track>
										<track>
											<clipitem id="CC0012_01 5">
												<name>CC0012_01</name>
												<duration>478461</duration>
												<rate>
													<ntsc>TRUE</ntsc>
													<timebase>24</timebase>
												</rate>
												<in>0</in>
												<out>478461</out>
												<start>0</start>
												<end>478461</end>
												<subframeoffset>0</subframeoffset>
												<anamorphic>FALSE</anamorphic>
												<masterclipid>CC0012_01 1</masterclipid>
												<syncoffset>0</syncoffset>
												<logginginfo>
													<scene/>
													<shottake/>
													<lognote/>
													<good>FALSE</good>
												</logginginfo>
												<labels>
													<label>Good Take</label>
													<label2/>
												</labels>
												<comments>
													<mastercomment1/>
													<mastercomment2/>
													<mastercomment3/>
													<mastercomment4/>
												</comments>
												<file id="CC0012_01 3"/>
												<filter>
													<effect>
														<name>Audio Levels</name>
														<effectid>audiolevels</effectid>
														<effectcategory>audiolevels</effectcategory>
														<effecttype>audiolevels</effecttype>
														<mediatype>audio</mediatype>
														<parameter>
															<name>Level</name>
															<parameterid>level</parameterid>
															<valuemin>0</valuemin>
															<valuemax>3.98109</valuemax>
															<value>1</value>
														</parameter>
													</effect>
												</filter>
												<filter>
													<effect>
														<name>Audio Pan</name>
														<effectid>audiopan</effectid>
														<effectcategory>audiopan</effectcategory>
														<effecttype>audiopan</effecttype>
														<mediatype>audio</mediatype>
														<parameter>
															<name>Pan</name>
															<parameterid>pan</parameterid>
															<valuemin>-1</valuemin>
															<valuemax>1</valuemax>
															<value>0</value>
														</parameter>
													</effect>
												</filter>
												<sourcetrack>
													<mediatype>audio</mediatype>
													<trackindex>2</trackindex>
												</sourcetrack>
												<link>
													<linkclipref>CC0012_01 2</linkclipref>
													<mediatype>video</mediatype>
													<trackindex>1</trackindex>
													<clipindex>1</clipindex>
												</link>
												<link>
													<linkclipref>CC0012_01 4</linkclipref>
													<mediatype>audio</mediatype>
													<trackindex>1</trackindex>
													<clipindex>1</clipindex>
												</link>
												<link>
													<linkclipref>CC0012_01 5</linkclipref>
													<mediatype>audio</mediatype>
													<trackindex>2</trackindex>
													<clipindex>1</clipindex>
												</link>
												<mediadelay>162644</mediadelay>
												<itemhistory>
													<uuid>EB82BA32-6C2E-42E7-9CFB-58974E925BBA</uuid>
												</itemhistory>
											</clipitem>
											<enabled>TRUE</enabled>
											<locked>FALSE</locked>
										</track>
										<filter>
											<effect>
												<name>Audio Levels</name>
												<effectid>audiolevels</effectid>
												<effectcategory>audiolevels</effectcategory>
												<effecttype>audiolevels</effecttype>
												<mediatype>audio</mediatype>
												<parameter>
													<name>Level</name>
													<parameterid>level</parameterid>
													<valuemin>0</valuemin>
													<valuemax>3.98109</valuemax>
													<value>1</value>
												</parameter>
											</effect>
										</filter>
									</audio>
								</media>
							</clip>
						</angle>
						<angle>
							<clip id="CC0013_01 ">
								<uuid>1C247C44-2A22-4539-A2C4-D38372C50AA4</uuid>
								<updatebehavior>add</updatebehavior>
								<name>CC0013_01</name>
								<duration>478461</duration>
								<rate>
									<ntsc>TRUE</ntsc>
									<timebase>24</timebase>
								</rate>
								<in>-1</in>
								<out>-1</out>
								<anamorphic>FALSE</anamorphic>
								<masterclipid>CC0013_01 1</masterclipid>
								<ismasterclip>FALSE</ismasterclip>
								<logginginfo>
									<scene/>
									<shottake/>
									<lognote/>
									<good>FALSE</good>
								</logginginfo>
								<labels>
									<label>Good Take</label>
									<label2/>
								</labels>
								<comments>
									<mastercomment1/>
									<mastercomment2/>
									<mastercomment3/>
									<mastercomment4/>
								</comments>
								<media>
									<video>
										<track>
											<clipitem id="CC0013_01 2">
												<name>CC0013_01</name>
												<duration>478461</duration>
												<rate>
													<ntsc>TRUE</ntsc>
													<timebase>24</timebase>
												</rate>
												<in>0</in>
												<out>478461</out>
												<start>0</start>
												<end>478461</end>
												<pixelaspectratio>Square</pixelaspectratio>
												<anamorphic>FALSE</anamorphic>
												<alphatype>none</alphatype>
												<masterclipid>CC0013_01 1</masterclipid>
												<syncoffset>0</syncoffset>
												<logginginfo>
													<scene/>
													<shottake/>
													<lognote/>
													<good>FALSE</good>
												</logginginfo>
												<labels>
													<label>Good Take</label>
													<label2/>
												</labels>
												<comments>
													<mastercomment1/>
													<mastercomment2/>
													<mastercomment3/>
													<mastercomment4/>
												</comments>
												<file id="CC0013_01 3">
													<name>CC0013_01.mov</name>
													<pathurl>file://localhost/Volumes/Share/Edit%20Share/00%20BREW%20DOGS%20S1/BD_00_San_Diego/052413/01_Video/C300/CC0013_01.mov</pathurl>
													<rate>
														<timebase>24</timebase>
														<ntsc>TRUE</ntsc>
													</rate>
													<duration>1212</duration>
													<metadata>
														<storage>QuickTime</storage>
														<key>com.apple.quicktime.creationdate</key>
														<size>24</size>
														<type>UTF8</type>
														<value>2013-05-24T13:53:40-0700</value>
													</metadata>
													<metadata>
														<storage>QuickTime</storage>
														<key>com.apple.finalcutstudio.media.history.uuid</key>
														<size>36</size>
														<type>UTF8</type>
														<value>438DCB33-D9B8-472B-93B0-C039DA7CFBD2</value>
													</metadata>
													<metadata>
														<storage>QuickTime</storage>
														<key>com.apple.finalcutstudio.media.uuid</key>
														<size>36</size>
														<type>UTF8</type>
														<value>F8ABD30F-C340-4FB9-9405-A037DCFBDFBA</value>
													</metadata>
													<metadata>
														<storage>QuickTime</storage>
														<key>com.apple.proapps.reel</key>
														<size>12</size>
														<type>UTF8</type>
														<value>C01_verified</value>
													</metadata>
													<metadata>
														<storage>QuickTime</storage>
														<key>com.apple.proapps.isGood</key>
														<size>4</size>
														<type>unsigned</type>
														<value>0</value>
													</metadata>
													<metadata>
														<storage>QuickTime</storage>
														<key>com.apple.proapps.clipID</key>
														<size>36</size>
														<type>UTF8</type>
														<value>0D3E4630-3664-0580-0000-8500025A0A95</value>
													</metadata>
													<metadata>
														<storage>QuickTime</storage>
														<key>com.apple.proapps.originalFormat</key>
														<size>14</size>
														<type>UTF8</type>
														<value>Canon XF MPEG2</value>
													</metadata>
													<timecode>
														<rate>
															<timebase>24</timebase>
														</rate>
														<string>13:53:36:11</string>
														<frame>1200395</frame>
														<displayformat>NDF</displayformat>
														<source>source</source>
														<reel>
															<name>C01_verified</name>
														</reel>
													</timecode>
													<media>
														<video>
															<duration>1212</duration>
															<samplecharacteristics>
																<width>1920</width>
																<height>1080</height>
															</samplecharacteristics>
														</video>
														<audio>
															<samplecharacteristics>
																<samplerate>48000</samplerate>
																<depth>16</depth>
															</samplecharacteristics>
															<channelcount>1</channelcount>
															<layout>mono</layout>
															<audiochannel>
																<sourcechannel>1</sourcechannel>
																<channellabel>discrete</channellabel>
															</audiochannel>
														</audio>
														<audio>
															<samplecharacteristics>
																<samplerate>48000</samplerate>
																<depth>16</depth>
															</samplecharacteristics>
															<channelcount>1</channelcount>
															<layout>mono</layout>
															<audiochannel>
																<sourcechannel>2</sourcechannel>
																<channellabel>discrete</channellabel>
															</audiochannel>
														</audio>
													</media>
												</file>
												<sourcetrack>
													<mediatype>video</mediatype>
												</sourcetrack>
												<link>
													<linkclipref>CC0013_01 2</linkclipref>
													<mediatype>video</mediatype>
													<trackindex>1</trackindex>
													<clipindex>1</clipindex>
												</link>
												<link>
													<linkclipref>CC0013_01 4</linkclipref>
													<mediatype>audio</mediatype>
													<trackindex>1</trackindex>
													<clipindex>1</clipindex>
												</link>
												<link>
													<linkclipref>CC0013_01 5</linkclipref>
													<mediatype>audio</mediatype>
													<trackindex>2</trackindex>
													<clipindex>1</clipindex>
												</link>
												<fielddominance>none</fielddominance>
												<mediadelay>182040</mediadelay>
												<itemhistory>
													<uuid>15E4302F-1D0C-4656-80C6-469A111AE020</uuid>
												</itemhistory>
											</clipitem>
											<enabled>TRUE</enabled>
											<locked>FALSE</locked>
										</track>
									</video>
									<audio>
										<outputs>
											<group>
												<index>1</index>
												<numchannels>2</numchannels>
												<downmix>0</downmix>
												<channel>
													<index>1</index>
												</channel>
												<channel>
													<index>2</index>
												</channel>
											</group>
										</outputs>
										<in>-1</in>
										<out>-1</out>
										<track>
											<clipitem id="CC0013_01 4">
												<name>CC0013_01</name>
												<duration>478461</duration>
												<rate>
													<ntsc>TRUE</ntsc>
													<timebase>24</timebase>
												</rate>
												<in>0</in>
												<out>478461</out>
												<start>0</start>
												<end>478461</end>
												<subframeoffset>0</subframeoffset>
												<anamorphic>FALSE</anamorphic>
												<masterclipid>CC0013_01 1</masterclipid>
												<syncoffset>0</syncoffset>
												<logginginfo>
													<scene/>
													<shottake/>
													<lognote/>
													<good>FALSE</good>
												</logginginfo>
												<labels>
													<label>Good Take</label>
													<label2/>
												</labels>
												<comments>
													<mastercomment1/>
													<mastercomment2/>
													<mastercomment3/>
													<mastercomment4/>
												</comments>
												<file id="CC0013_01 3"/>
												<filter>
													<effect>
														<name>Audio Levels</name>
														<effectid>audiolevels</effectid>
														<effectcategory>audiolevels</effectcategory>
														<effecttype>audiolevels</effecttype>
														<mediatype>audio</mediatype>
														<parameter>
															<name>Level</name>
															<parameterid>level</parameterid>
															<valuemin>0</valuemin>
															<valuemax>3.98109</valuemax>
															<value>1</value>
														</parameter>
													</effect>
												</filter>
												<filter>
													<effect>
														<name>Audio Pan</name>
														<effectid>audiopan</effectid>
														<effectcategory>audiopan</effectcategory>
														<effecttype>audiopan</effecttype>
														<mediatype>audio</mediatype>
														<parameter>
															<name>Pan</name>
															<parameterid>pan</parameterid>
															<valuemin>-1</valuemin>
															<valuemax>1</valuemax>
															<value>0</value>
														</parameter>
													</effect>
												</filter>
												<sourcetrack>
													<mediatype>audio</mediatype>
													<trackindex>1</trackindex>
												</sourcetrack>
												<link>
													<linkclipref>CC0013_01 2</linkclipref>
													<mediatype>video</mediatype>
													<trackindex>1</trackindex>
													<clipindex>1</clipindex>
												</link>
												<link>
													<linkclipref>CC0013_01 4</linkclipref>
													<mediatype>audio</mediatype>
													<trackindex>1</trackindex>
													<clipindex>1</clipindex>
												</link>
												<link>
													<linkclipref>CC0013_01 5</linkclipref>
													<mediatype>audio</mediatype>
													<trackindex>2</trackindex>
													<clipindex>1</clipindex>
												</link>
												<mediadelay>182040</mediadelay>
												<itemhistory>
													<uuid>ECFD1EC7-24B4-416B-B495-508FB3F3EB53</uuid>
												</itemhistory>
											</clipitem>
											<enabled>TRUE</enabled>
											<locked>FALSE</locked>
										</track>
										<track>
											<clipitem id="CC0013_01 5">
												<name>CC0013_01</name>
												<duration>478461</duration>
												<rate>
													<ntsc>TRUE</ntsc>
													<timebase>24</timebase>
												</rate>
												<in>0</in>
												<out>478461</out>
												<start>0</start>
												<end>478461</end>
												<subframeoffset>0</subframeoffset>
												<anamorphic>FALSE</anamorphic>
												<masterclipid>CC0013_01 1</masterclipid>
												<syncoffset>0</syncoffset>
												<logginginfo>
													<scene/>
													<shottake/>
													<lognote/>
													<good>FALSE</good>
												</logginginfo>
												<labels>
													<label>Good Take</label>
													<label2/>
												</labels>
												<comments>
													<mastercomment1/>
													<mastercomment2/>
													<mastercomment3/>
													<mastercomment4/>
												</comments>
												<file id="CC0013_01 3"/>
												<filter>
													<effect>
														<name>Audio Levels</name>
														<effectid>audiolevels</effectid>
														<effectcategory>audiolevels</effectcategory>
														<effecttype>audiolevels</effecttype>
														<mediatype>audio</mediatype>
														<parameter>
															<name>Level</name>
															<parameterid>level</parameterid>
															<valuemin>0</valuemin>
															<valuemax>3.98109</valuemax>
															<value>1</value>
														</parameter>
													</effect>
												</filter>
												<filter>
													<effect>
														<name>Audio Pan</name>
														<effectid>audiopan</effectid>
														<effectcategory>audiopan</effectcategory>
														<effecttype>audiopan</effecttype>
														<mediatype>audio</mediatype>
														<parameter>
															<name>Pan</name>
															<parameterid>pan</parameterid>
															<valuemin>-1</valuemin>
															<valuemax>1</valuemax>
															<value>0</value>
														</parameter>
													</effect>
												</filter>
												<sourcetrack>
													<mediatype>audio</mediatype>
													<trackindex>2</trackindex>
												</sourcetrack>
												<link>
													<linkclipref>CC0013_01 2</linkclipref>
													<mediatype>video</mediatype>
													<trackindex>1</trackindex>
													<clipindex>1</clipindex>
												</link>
												<link>
													<linkclipref>CC0013_01 4</linkclipref>
													<mediatype>audio</mediatype>
													<trackindex>1</trackindex>
													<clipindex>1</clipindex>
												</link>
												<link>
													<linkclipref>CC0013_01 5</linkclipref>
													<mediatype>audio</mediatype>
													<trackindex>2</trackindex>
													<clipindex>1</clipindex>
												</link>
												<mediadelay>182040</mediadelay>
												<itemhistory>
													<uuid>BE6BD1D8-BF2D-4653-BA39-7B9D1A10F9ED</uuid>
												</itemhistory>
											</clipitem>
											<enabled>TRUE</enabled>
											<locked>FALSE</locked>
										</track>
										<filter>
											<effect>
												<name>Audio Levels</name>
												<effectid>audiolevels</effectid>
												<effectcategory>audiolevels</effectcategory>
												<effecttype>audiolevels</effecttype>
												<mediatype>audio</mediatype>
												<parameter>
													<name>Level</name>
													<parameterid>level</parameterid>
													<valuemin>0</valuemin>
													<valuemax>3.98109</valuemax>
													<value>1</value>
												</parameter>
											</effect>
										</filter>
									</audio>
								</media>
							</clip>
						</angle>
						<angle>
							<clip id="CC0014_01 ">
								<uuid>1531DF51-6A80-4C6E-9ADD-E77FF4EE9F78</uuid>
								<updatebehavior>add</updatebehavior>
								<name>CC0014_01</name>
								<duration>478461</duration>
								<rate>
									<ntsc>TRUE</ntsc>
									<timebase>24</timebase>
								</rate>
								<in>-1</in>
								<out>-1</out>
								<anamorphic>FALSE</anamorphic>
								<masterclipid>CC0014_01 1</masterclipid>
								<ismasterclip>FALSE</ismasterclip>
								<logginginfo>
									<scene/>
									<shottake/>
									<lognote/>
									<good>FALSE</good>
								</logginginfo>
								<labels>
									<label>Good Take</label>
									<label2/>
								</labels>
								<comments>
									<mastercomment1/>
									<mastercomment2/>
									<mastercomment3/>
									<mastercomment4/>
								</comments>
								<media>
									<video>
										<track>
											<clipitem id="CC0014_01 2">
												<name>CC0014_01</name>
												<duration>478461</duration>
												<rate>
													<ntsc>TRUE</ntsc>
													<timebase>24</timebase>
												</rate>
												<in>0</in>
												<out>478461</out>
												<start>0</start>
												<end>478461</end>
												<pixelaspectratio>Square</pixelaspectratio>
												<anamorphic>FALSE</anamorphic>
												<alphatype>none</alphatype>
												<masterclipid>CC0014_01 1</masterclipid>
												<syncoffset>0</syncoffset>
												<logginginfo>
													<scene/>
													<shottake/>
													<lognote/>
													<good>FALSE</good>
												</logginginfo>
												<labels>
													<label>Good Take</label>
													<label2/>
												</labels>
												<comments>
													<mastercomment1/>
													<mastercomment2/>
													<mastercomment3/>
													<mastercomment4/>
												</comments>
												<file id="CC0014_01 3">
													<name>CC0014_01.mov</name>
													<pathurl>file://localhost/Volumes/Share/Edit%20Share/00%20BREW%20DOGS%20S1/BD_00_San_Diego/052413/01_Video/C300/CC0014_01.mov</pathurl>
													<rate>
														<timebase>24</timebase>
														<ntsc>TRUE</ntsc>
													</rate>
													<duration>10308</duration>
													<metadata>
														<storage>QuickTime</storage>
														<key>com.apple.quicktime.creationdate</key>
														<size>24</size>
														<type>UTF8</type>
														<value>2013-05-24T13:55:22-0700</value>
													</metadata>
													<metadata>
														<storage>QuickTime</storage>
														<key>com.apple.finalcutstudio.media.history.uuid</key>
														<size>36</size>
														<type>UTF8</type>
														<value>D6D13A41-1AB1-4507-8810-BE9C8BB24315</value>
													</metadata>
													<metadata>
														<storage>QuickTime</storage>
														<key>com.apple.finalcutstudio.media.uuid</key>
														<size>36</size>
														<type>UTF8</type>
														<value>AC83A160-8526-44C3-AE08-EE0689AF33E7</value>
													</metadata>
													<metadata>
														<storage>QuickTime</storage>
														<key>com.apple.proapps.reel</key>
														<size>12</size>
														<type>UTF8</type>
														<value>C01_verified</value>
													</metadata>
													<metadata>
														<storage>QuickTime</storage>
														<key>com.apple.proapps.isGood</key>
														<size>4</size>
														<type>unsigned</type>
														<value>0</value>
													</metadata>
													<metadata>
														<storage>QuickTime</storage>
														<key>com.apple.proapps.clipID</key>
														<size>36</size>
														<type>UTF8</type>
														<value>0D3E5E18-3664-0580-0000-8500025A0A95</value>
													</metadata>
													<metadata>
														<storage>QuickTime</storage>
														<key>com.apple.proapps.originalFormat</key>
														<size>14</size>
														<type>UTF8</type>
														<value>Canon XF MPEG2</value>
													</metadata>
													<timecode>
														<rate>
															<timebase>24</timebase>
														</rate>
														<string>13:55:17:23</string>
														<frame>1202831</frame>
														<displayformat>NDF</displayformat>
														<source>source</source>
														<reel>
															<name>C01_verified</name>
														</reel>
													</timecode>
													<media>
														<video>
															<duration>10308</duration>
															<samplecharacteristics>
																<width>1920</width>
																<height>1080</height>
															</samplecharacteristics>
														</video>
														<audio>
															<samplecharacteristics>
																<samplerate>48000</samplerate>
																<depth>16</depth>
															</samplecharacteristics>
															<channelcount>1</channelcount>
															<layout>mono</layout>
															<audiochannel>
																<sourcechannel>1</sourcechannel>
																<channellabel>discrete</channellabel>
															</audiochannel>
														</audio>
														<audio>
															<samplecharacteristics>
																<samplerate>48000</samplerate>
																<depth>16</depth>
															</samplecharacteristics>
															<channelcount>1</channelcount>
															<layout>mono</layout>
															<audiochannel>
																<sourcechannel>2</sourcechannel>
																<channellabel>discrete</channellabel>
															</audiochannel>
														</audio>
													</media>
												</file>
												<sourcetrack>
													<mediatype>video</mediatype>
												</sourcetrack>
												<link>
													<linkclipref>CC0014_01 2</linkclipref>
													<mediatype>video</mediatype>
													<trackindex>1</trackindex>
													<clipindex>1</clipindex>
												</link>
												<link>
													<linkclipref>CC0014_01 4</linkclipref>
													<mediatype>audio</mediatype>
													<trackindex>1</trackindex>
													<clipindex>1</clipindex>
												</link>
												<link>
													<linkclipref>CC0014_01 5</linkclipref>
													<mediatype>audio</mediatype>
													<trackindex>2</trackindex>
													<clipindex>1</clipindex>
												</link>
												<fielddominance>none</fielddominance>
												<mediadelay>184476</mediadelay>
												<itemhistory>
													<uuid>4437944B-2D7F-41F7-9FA1-1C36C2C9700C</uuid>
												</itemhistory>
											</clipitem>
											<enabled>TRUE</enabled>
											<locked>FALSE</locked>
										</track>
									</video>
									<audio>
										<outputs>
											<group>
												<index>1</index>
												<numchannels>2</numchannels>
												<downmix>0</downmix>
												<channel>
													<index>1</index>
												</channel>
												<channel>
													<index>2</index>
												</channel>
											</group>
										</outputs>
										<in>-1</in>
										<out>-1</out>
										<track>
											<clipitem id="CC0014_01 4">
												<name>CC0014_01</name>
												<duration>478461</duration>
												<rate>
													<ntsc>TRUE</ntsc>
													<timebase>24</timebase>
												</rate>
												<in>0</in>
												<out>478461</out>
												<start>0</start>
												<end>478461</end>
												<subframeoffset>0</subframeoffset>
												<anamorphic>FALSE</anamorphic>
												<masterclipid>CC0014_01 1</masterclipid>
												<syncoffset>0</syncoffset>
												<logginginfo>
													<scene/>
													<shottake/>
													<lognote/>
													<good>FALSE</good>
												</logginginfo>
												<labels>
													<label>Good Take</label>
													<label2/>
												</labels>
												<comments>
													<mastercomment1/>
													<mastercomment2/>
													<mastercomment3/>
													<mastercomment4/>
												</comments>
												<file id="CC0014_01 3"/>
												<filter>
													<effect>
														<name>Audio Levels</name>
														<effectid>audiolevels</effectid>
														<effectcategory>audiolevels</effectcategory>
														<effecttype>audiolevels</effecttype>
														<mediatype>audio</mediatype>
														<parameter>
															<name>Level</name>
															<parameterid>level</parameterid>
															<valuemin>0</valuemin>
															<valuemax>3.98109</valuemax>
															<value>1</value>
														</parameter>
													</effect>
												</filter>
												<filter>
													<effect>
														<name>Audio Pan</name>
														<effectid>audiopan</effectid>
														<effectcategory>audiopan</effectcategory>
														<effecttype>audiopan</effecttype>
														<mediatype>audio</mediatype>
														<parameter>
															<name>Pan</name>
															<parameterid>pan</parameterid>
															<valuemin>-1</valuemin>
															<valuemax>1</valuemax>
															<value>0</value>
														</parameter>
													</effect>
												</filter>
												<sourcetrack>
													<mediatype>audio</mediatype>
													<trackindex>1</trackindex>
												</sourcetrack>
												<link>
													<linkclipref>CC0014_01 2</linkclipref>
													<mediatype>video</mediatype>
													<trackindex>1</trackindex>
													<clipindex>1</clipindex>
												</link>
												<link>
													<linkclipref>CC0014_01 4</linkclipref>
													<mediatype>audio</mediatype>
													<trackindex>1</trackindex>
													<clipindex>1</clipindex>
												</link>
												<link>
													<linkclipref>CC0014_01 5</linkclipref>
													<mediatype>audio</mediatype>
													<trackindex>2</trackindex>
													<clipindex>1</clipindex>
												</link>
												<mediadelay>184476</mediadelay>
												<itemhistory>
													<uuid>00C1109F-0001-4C5E-BE4D-1EE7EF1AAB23</uuid>
												</itemhistory>
											</clipitem>
											<enabled>TRUE</enabled>
											<locked>FALSE</locked>
										</track>
										<track>
											<clipitem id="CC0014_01 5">
												<name>CC0014_01</name>
												<duration>478461</duration>
												<rate>
													<ntsc>TRUE</ntsc>
													<timebase>24</timebase>
												</rate>
												<in>0</in>
												<out>478461</out>
												<start>0</start>
												<end>478461</end>
												<subframeoffset>0</subframeoffset>
												<anamorphic>FALSE</anamorphic>
												<masterclipid>CC0014_01 1</masterclipid>
												<syncoffset>0</syncoffset>
												<logginginfo>
													<scene/>
													<shottake/>
													<lognote/>
													<good>FALSE</good>
												</logginginfo>
												<labels>
													<label>Good Take</label>
													<label2/>
												</labels>
												<comments>
													<mastercomment1/>
													<mastercomment2/>
													<mastercomment3/>
													<mastercomment4/>
												</comments>
												<file id="CC0014_01 3"/>
												<filter>
													<effect>
														<name>Audio Levels</name>
														<effectid>audiolevels</effectid>
														<effectcategory>audiolevels</effectcategory>
														<effecttype>audiolevels</effecttype>
														<mediatype>audio</mediatype>
														<parameter>
															<name>Level</name>
															<parameterid>level</parameterid>
															<valuemin>0</valuemin>
															<valuemax>3.98109</valuemax>
															<value>1</value>
														</parameter>
													</effect>
												</filter>
												<filter>
													<effect>
														<name>Audio Pan</name>
														<effectid>audiopan</effectid>
														<effectcategory>audiopan</effectcategory>
														<effecttype>audiopan</effecttype>
														<mediatype>audio</mediatype>
														<parameter>
															<name>Pan</name>
															<parameterid>pan</parameterid>
															<valuemin>-1</valuemin>
															<valuemax>1</valuemax>
															<value>0</value>
														</parameter>
													</effect>
												</filter>
												<sourcetrack>
													<mediatype>audio</mediatype>
													<trackindex>2</trackindex>
												</sourcetrack>
												<link>
													<linkclipref>CC0014_01 2</linkclipref>
													<mediatype>video</mediatype>
													<trackindex>1</trackindex>
													<clipindex>1</clipindex>
												</link>
												<link>
													<linkclipref>CC0014_01 4</linkclipref>
													<mediatype>audio</mediatype>
													<trackindex>1</trackindex>
													<clipindex>1</clipindex>
												</link>
												<link>
													<linkclipref>CC0014_01 5</linkclipref>
													<mediatype>audio</mediatype>
													<trackindex>2</trackindex>
													<clipindex>1</clipindex>
												</link>
												<mediadelay>184476</mediadelay>
												<itemhistory>
													<uuid>18C9AA28-45B4-413B-A39E-808DD80B702D</uuid>
												</itemhistory>
											</clipitem>
											<enabled>TRUE</enabled>
											<locked>FALSE</locked>
										</track>
										<filter>
											<effect>
												<name>Audio Levels</name>
												<effectid>audiolevels</effectid>
												<effectcategory>audiolevels</effectcategory>
												<effecttype>audiolevels</effecttype>
												<mediatype>audio</mediatype>
												<parameter>
													<name>Level</name>
													<parameterid>level</parameterid>
													<valuemin>0</valuemin>
													<valuemax>3.98109</valuemax>
													<value>1</value>
												</parameter>
											</effect>
										</filter>
									</audio>
								</media>
							</clip>
						</angle>
						<angle>
							<clip id="CC0015_01 ">
								<uuid>A1C49766-E734-4403-AD3D-0AADB5AE380C</uuid>
								<updatebehavior>add</updatebehavior>
								<name>CC0015_01</name>
								<duration>478461</duration>
								<rate>
									<ntsc>TRUE</ntsc>
									<timebase>24</timebase>
								</rate>
								<in>-1</in>
								<out>-1</out>
								<anamorphic>FALSE</anamorphic>
								<masterclipid>CC0015_01 1</masterclipid>
								<ismasterclip>FALSE</ismasterclip>
								<logginginfo>
									<scene/>
									<shottake/>
									<lognote/>
									<good>FALSE</good>
								</logginginfo>
								<labels>
									<label>Good Take</label>
									<label2/>
								</labels>
								<comments>
									<mastercomment1/>
									<mastercomment2/>
									<mastercomment3/>
									<mastercomment4/>
								</comments>
								<media>
									<video>
										<track>
											<clipitem id="CC0015_01 2">
												<name>CC0015_01</name>
												<duration>478461</duration>
												<rate>
													<ntsc>TRUE</ntsc>
													<timebase>24</timebase>
												</rate>
												<in>0</in>
												<out>478461</out>
												<start>0</start>
												<end>478461</end>
												<pixelaspectratio>Square</pixelaspectratio>
												<anamorphic>FALSE</anamorphic>
												<alphatype>none</alphatype>
												<masterclipid>CC0015_01 1</masterclipid>
												<syncoffset>0</syncoffset>
												<logginginfo>
													<scene/>
													<shottake/>
													<lognote/>
													<good>FALSE</good>
												</logginginfo>
												<labels>
													<label>Good Take</label>
													<label2/>
												</labels>
												<comments>
													<mastercomment1/>
													<mastercomment2/>
													<mastercomment3/>
													<mastercomment4/>
												</comments>
												<file id="CC0015_01 3">
													<name>CC0015_01.mov</name>
													<pathurl>file://localhost/Volumes/Share/Edit%20Share/00%20BREW%20DOGS%20S1/BD_00_San_Diego/052413/01_Video/C300/CC0015_01.mov</pathurl>
													<rate>
														<timebase>24</timebase>
														<ntsc>TRUE</ntsc>
													</rate>
													<duration>2736</duration>
													<metadata>
														<storage>QuickTime</storage>
														<key>com.apple.quicktime.creationdate</key>
														<size>24</size>
														<type>UTF8</type>
														<value>2013-05-24T14:03:55-0700</value>
													</metadata>
													<metadata>
														<storage>QuickTime</storage>
														<key>com.apple.finalcutstudio.media.history.uuid</key>
														<size>36</size>
														<type>UTF8</type>
														<value>D0474780-217D-45CF-8F7B-D3A62124AE4B</value>
													</metadata>
													<metadata>
														<storage>QuickTime</storage>
														<key>com.apple.finalcutstudio.media.uuid</key>
														<size>36</size>
														<type>UTF8</type>
														<value>546AFE00-0163-46A5-87BF-59B8557277E1</value>
													</metadata>
													<metadata>
														<storage>QuickTime</storage>
														<key>com.apple.proapps.reel</key>
														<size>12</size>
														<type>UTF8</type>
														<value>C02_verified</value>
													</metadata>
													<metadata>
														<storage>QuickTime</storage>
														<key>com.apple.proapps.isGood</key>
														<size>4</size>
														<type>unsigned</type>
														<value>0</value>
													</metadata>
													<metadata>
														<storage>QuickTime</storage>
														<key>com.apple.proapps.clipID</key>
														<size>36</size>
														<type>UTF8</type>
														<value>0D3ED654-3664-0580-0000-8500025A0A95</value>
													</metadata>
													<metadata>
														<storage>QuickTime</storage>
														<key>com.apple.proapps.originalFormat</key>
														<size>14</size>
														<type>UTF8</type>
														<value>Canon XF MPEG2</value>
													</metadata>
													<timecode>
														<rate>
															<timebase>24</timebase>
														</rate>
														<string>14:03:50:19</string>
														<frame>1215139</frame>
														<displayformat>NDF</displayformat>
														<source>source</source>
														<reel>
															<name>C02_verified</name>
														</reel>
													</timecode>
													<media>
														<video>
															<duration>2736</duration>
															<samplecharacteristics>
																<width>1920</width>
																<height>1080</height>
															</samplecharacteristics>
														</video>
														<audio>
															<samplecharacteristics>
																<samplerate>48000</samplerate>
																<depth>16</depth>
															</samplecharacteristics>
															<channelcount>1</channelcount>
															<layout>mono</layout>
															<audiochannel>
																<sourcechannel>1</sourcechannel>
																<channellabel>discrete</channellabel>
															</audiochannel>
														</audio>
														<audio>
															<samplecharacteristics>
																<samplerate>48000</samplerate>
																<depth>16</depth>
															</samplecharacteristics>
															<channelcount>1</channelcount>
															<layout>mono</layout>
															<audiochannel>
																<sourcechannel>2</sourcechannel>
																<channellabel>discrete</channellabel>
															</audiochannel>
														</audio>
													</media>
												</file>
												<sourcetrack>
													<mediatype>video</mediatype>
												</sourcetrack>
												<link>
													<linkclipref>CC0015_01 2</linkclipref>
													<mediatype>video</mediatype>
													<trackindex>1</trackindex>
													<clipindex>1</clipindex>
												</link>
												<link>
													<linkclipref>CC0015_01 4</linkclipref>
													<mediatype>audio</mediatype>
													<trackindex>1</trackindex>
													<clipindex>1</clipindex>
												</link>
												<link>
													<linkclipref>CC0015_01 5</linkclipref>
													<mediatype>audio</mediatype>
													<trackindex>2</trackindex>
													<clipindex>1</clipindex>
												</link>
												<fielddominance>none</fielddominance>
												<mediadelay>196784</mediadelay>
												<itemhistory>
													<uuid>165525A6-631C-4D67-A291-E72702BC6D81</uuid>
												</itemhistory>
											</clipitem>
											<enabled>TRUE</enabled>
											<locked>FALSE</locked>
										</track>
									</video>
									<audio>
										<outputs>
											<group>
												<index>1</index>
												<numchannels>2</numchannels>
												<downmix>0</downmix>
												<channel>
													<index>1</index>
												</channel>
												<channel>
													<index>2</index>
												</channel>
											</group>
										</outputs>
										<in>-1</in>
										<out>-1</out>
										<track>
											<clipitem id="CC0015_01 4">
												<name>CC0015_01</name>
												<duration>478461</duration>
												<rate>
													<ntsc>TRUE</ntsc>
													<timebase>24</timebase>
												</rate>
												<in>0</in>
												<out>478461</out>
												<start>0</start>
												<end>478461</end>
												<subframeoffset>0</subframeoffset>
												<anamorphic>FALSE</anamorphic>
												<masterclipid>CC0015_01 1</masterclipid>
												<syncoffset>0</syncoffset>
												<logginginfo>
													<scene/>
													<shottake/>
													<lognote/>
													<good>FALSE</good>
												</logginginfo>
												<labels>
													<label>Good Take</label>
													<label2/>
												</labels>
												<comments>
													<mastercomment1/>
													<mastercomment2/>
													<mastercomment3/>
													<mastercomment4/>
												</comments>
												<file id="CC0015_01 3"/>
												<filter>
													<effect>
														<name>Audio Levels</name>
														<effectid>audiolevels</effectid>
														<effectcategory>audiolevels</effectcategory>
														<effecttype>audiolevels</effecttype>
														<mediatype>audio</mediatype>
														<parameter>
															<name>Level</name>
															<parameterid>level</parameterid>
															<valuemin>0</valuemin>
															<valuemax>3.98109</valuemax>
															<value>1</value>
														</parameter>
													</effect>
												</filter>
												<filter>
													<effect>
														<name>Audio Pan</name>
														<effectid>audiopan</effectid>
														<effectcategory>audiopan</effectcategory>
														<effecttype>audiopan</effecttype>
														<mediatype>audio</mediatype>
														<parameter>
															<name>Pan</name>
															<parameterid>pan</parameterid>
															<valuemin>-1</valuemin>
															<valuemax>1</valuemax>
															<value>0</value>
														</parameter>
													</effect>
												</filter>
												<sourcetrack>
													<mediatype>audio</mediatype>
													<trackindex>1</trackindex>
												</sourcetrack>
												<link>
													<linkclipref>CC0015_01 2</linkclipref>
													<mediatype>video</mediatype>
													<trackindex>1</trackindex>
													<clipindex>1</clipindex>
												</link>
												<link>
													<linkclipref>CC0015_01 4</linkclipref>
													<mediatype>audio</mediatype>
													<trackindex>1</trackindex>
													<clipindex>1</clipindex>
												</link>
												<link>
													<linkclipref>CC0015_01 5</linkclipref>
													<mediatype>audio</mediatype>
													<trackindex>2</trackindex>
													<clipindex>1</clipindex>
												</link>
												<mediadelay>196784</mediadelay>
												<itemhistory>
													<uuid>BB6F236C-2C52-41D6-9E11-C311E9D22CA4</uuid>
												</itemhistory>
											</clipitem>
											<enabled>TRUE</enabled>
											<locked>FALSE</locked>
										</track>
										<track>
											<clipitem id="CC0015_01 5">
												<name>CC0015_01</name>
												<duration>478461</duration>
												<rate>
													<ntsc>TRUE</ntsc>
													<timebase>24</timebase>
												</rate>
												<in>0</in>
												<out>478461</out>
												<start>0</start>
												<end>478461</end>
												<subframeoffset>0</subframeoffset>
												<anamorphic>FALSE</anamorphic>
												<masterclipid>CC0015_01 1</masterclipid>
												<syncoffset>0</syncoffset>
												<logginginfo>
													<scene/>
													<shottake/>
													<lognote/>
													<good>FALSE</good>
												</logginginfo>
												<labels>
													<label>Good Take</label>
													<label2/>
												</labels>
												<comments>
													<mastercomment1/>
													<mastercomment2/>
													<mastercomment3/>
													<mastercomment4/>
												</comments>
												<file id="CC0015_01 3"/>
												<filter>
													<effect>
														<name>Audio Levels</name>
														<effectid>audiolevels</effectid>
														<effectcategory>audiolevels</effectcategory>
														<effecttype>audiolevels</effecttype>
														<mediatype>audio</mediatype>
														<parameter>
															<name>Level</name>
															<parameterid>level</parameterid>
															<valuemin>0</valuemin>
															<valuemax>3.98109</valuemax>
															<value>1</value>
														</parameter>
													</effect>
												</filter>
												<filter>
													<effect>
														<name>Audio Pan</name>
														<effectid>audiopan</effectid>
														<effectcategory>audiopan</effectcategory>
														<effecttype>audiopan</effecttype>
														<mediatype>audio</mediatype>
														<parameter>
															<name>Pan</name>
															<parameterid>pan</parameterid>
															<valuemin>-1</valuemin>
															<valuemax>1</valuemax>
															<value>0</value>
														</parameter>
													</effect>
												</filter>
												<sourcetrack>
													<mediatype>audio</mediatype>
													<trackindex>2</trackindex>
												</sourcetrack>
												<link>
													<linkclipref>CC0015_01 2</linkclipref>
													<mediatype>video</mediatype>
													<trackindex>1</trackindex>
													<clipindex>1</clipindex>
												</link>
												<link>
													<linkclipref>CC0015_01 4</linkclipref>
													<mediatype>audio</mediatype>
													<trackindex>1</trackindex>
													<clipindex>1</clipindex>
												</link>
												<link>
													<linkclipref>CC0015_01 5</linkclipref>
													<mediatype>audio</mediatype>
													<trackindex>2</trackindex>
													<clipindex>1</clipindex>
												</link>
												<mediadelay>196784</mediadelay>
												<itemhistory>
													<uuid>244E9AC4-2CFC-46B3-8459-575B2968DECF</uuid>
												</itemhistory>
											</clipitem>
											<enabled>TRUE</enabled>
											<locked>FALSE</locked>
										</track>
										<filter>
											<effect>
												<name>Audio Levels</name>
												<effectid>audiolevels</effectid>
												<effectcategory>audiolevels</effectcategory>
												<effecttype>audiolevels</effecttype>
												<mediatype>audio</mediatype>
												<parameter>
													<name>Level</name>
													<parameterid>level</parameterid>
													<valuemin>0</valuemin>
													<valuemax>3.98109</valuemax>
													<value>1</value>
												</parameter>
											</effect>
										</filter>
									</audio>
								</media>
							</clip>
						</angle>
						<angle>
							<clip id="CC0016_01 ">
								<uuid>B5C6B015-C3B4-42CE-96CC-BC168AEB63AD</uuid>
								<updatebehavior>add</updatebehavior>
								<name>CC0016_01</name>
								<duration>478461</duration>
								<rate>
									<ntsc>TRUE</ntsc>
									<timebase>24</timebase>
								</rate>
								<in>-1</in>
								<out>-1</out>
								<anamorphic>FALSE</anamorphic>
								<masterclipid>CC0016_01 1</masterclipid>
								<ismasterclip>FALSE</ismasterclip>
								<logginginfo>
									<scene/>
									<shottake/>
									<lognote/>
									<good>FALSE</good>
								</logginginfo>
								<labels>
									<label>Good Take</label>
									<label2/>
								</labels>
								<comments>
									<mastercomment1/>
									<mastercomment2/>
									<mastercomment3/>
									<mastercomment4/>
								</comments>
								<media>
									<video>
										<track>
											<clipitem id="CC0016_01 2">
												<name>CC0016_01</name>
												<duration>478461</duration>
												<rate>
													<ntsc>TRUE</ntsc>
													<timebase>24</timebase>
												</rate>
												<in>0</in>
												<out>478461</out>
												<start>0</start>
												<end>478461</end>
												<pixelaspectratio>Square</pixelaspectratio>
												<anamorphic>FALSE</anamorphic>
												<alphatype>none</alphatype>
												<masterclipid>CC0016_01 1</masterclipid>
												<syncoffset>0</syncoffset>
												<logginginfo>
													<scene/>
													<shottake/>
													<lognote/>
													<good>FALSE</good>
												</logginginfo>
												<labels>
													<label>Good Take</label>
													<label2/>
												</labels>
												<comments>
													<mastercomment1/>
													<mastercomment2/>
													<mastercomment3/>
													<mastercomment4/>
												</comments>
												<file id="CC0016_01 3">
													<name>CC0016_01.mov</name>
													<pathurl>file://localhost/Volumes/Share/Edit%20Share/00%20BREW%20DOGS%20S1/BD_00_San_Diego/052413/01_Video/C300/CC0016_01.mov</pathurl>
													<rate>
														<timebase>24</timebase>
														<ntsc>TRUE</ntsc>
													</rate>
													<duration>2784</duration>
													<metadata>
														<storage>QuickTime</storage>
														<key>com.apple.quicktime.creationdate</key>
														<size>24</size>
														<type>UTF8</type>
														<value>2013-05-24T17:06:30-0700</value>
													</metadata>
													<metadata>
														<storage>QuickTime</storage>
														<key>com.apple.finalcutstudio.media.history.uuid</key>
														<size>36</size>
														<type>UTF8</type>
														<value>2DA9003E-AB4C-4E3D-9D65-153D45603D5C</value>
													</metadata>
													<metadata>
														<storage>QuickTime</storage>
														<key>com.apple.finalcutstudio.media.uuid</key>
														<size>36</size>
														<type>UTF8</type>
														<value>42543C7E-08F2-4BA4-BDAC-630442BC213C</value>
													</metadata>
													<metadata>
														<storage>QuickTime</storage>
														<key>com.apple.proapps.reel</key>
														<size>12</size>
														<type>UTF8</type>
														<value>C02_verified</value>
													</metadata>
													<metadata>
														<storage>QuickTime</storage>
														<key>com.apple.proapps.isGood</key>
														<size>4</size>
														<type>unsigned</type>
														<value>0</value>
													</metadata>
													<metadata>
														<storage>QuickTime</storage>
														<key>com.apple.proapps.clipID</key>
														<size>36</size>
														<type>UTF8</type>
														<value>0D48DDE8-3664-0580-0000-8500025A0A95</value>
													</metadata>
													<metadata>
														<storage>QuickTime</storage>
														<key>com.apple.proapps.originalFormat</key>
														<size>14</size>
														<type>UTF8</type>
														<value>Canon XF MPEG2</value>
													</metadata>
													<timecode>
														<rate>
															<timebase>24</timebase>
														</rate>
														<string>17:06:14:20</string>
														<frame>1477796</frame>
														<displayformat>NDF</displayformat>
														<source>source</source>
														<reel>
															<name>C02_verified</name>
														</reel>
													</timecode>
													<media>
														<video>
															<duration>2784</duration>
															<samplecharacteristics>
																<width>1920</width>
																<height>1080</height>
															</samplecharacteristics>
														</video>
														<audio>
															<samplecharacteristics>
																<samplerate>48000</samplerate>
																<depth>16</depth>
															</samplecharacteristics>
															<channelcount>1</channelcount>
															<layout>mono</layout>
															<audiochannel>
																<sourcechannel>1</sourcechannel>
																<channellabel>discrete</channellabel>
															</audiochannel>
														</audio>
														<audio>
															<samplecharacteristics>
																<samplerate>48000</samplerate>
																<depth>16</depth>
															</samplecharacteristics>
															<channelcount>1</channelcount>
															<layout>mono</layout>
															<audiochannel>
																<sourcechannel>2</sourcechannel>
																<channellabel>discrete</channellabel>
															</audiochannel>
														</audio>
													</media>
												</file>
												<sourcetrack>
													<mediatype>video</mediatype>
												</sourcetrack>
												<link>
													<linkclipref>CC0016_01 2</linkclipref>
													<mediatype>video</mediatype>
													<trackindex>1</trackindex>
													<clipindex>1</clipindex>
												</link>
												<link>
													<linkclipref>CC0016_01 4</linkclipref>
													<mediatype>audio</mediatype>
													<trackindex>1</trackindex>
													<clipindex>1</clipindex>
												</link>
												<link>
													<linkclipref>CC0016_01 5</linkclipref>
													<mediatype>audio</mediatype>
													<trackindex>2</trackindex>
													<clipindex>1</clipindex>
												</link>
												<fielddominance>none</fielddominance>
												<mediadelay>459441</mediadelay>
												<itemhistory>
													<uuid>1E4BFFA9-A3BC-4B38-997E-6D780FB4CE88</uuid>
												</itemhistory>
											</clipitem>
											<enabled>TRUE</enabled>
											<locked>FALSE</locked>
										</track>
									</video>
									<audio>
										<outputs>
											<group>
												<index>1</index>
												<numchannels>2</numchannels>
												<downmix>0</downmix>
												<channel>
													<index>1</index>
												</channel>
												<channel>
													<index>2</index>
												</channel>
											</group>
										</outputs>
										<in>-1</in>
										<out>-1</out>
										<track>
											<clipitem id="CC0016_01 4">
												<name>CC0016_01</name>
												<duration>478461</duration>
												<rate>
													<ntsc>TRUE</ntsc>
													<timebase>24</timebase>
												</rate>
												<in>0</in>
												<out>478461</out>
												<start>0</start>
												<end>478461</end>
												<subframeoffset>0</subframeoffset>
												<anamorphic>FALSE</anamorphic>
												<masterclipid>CC0016_01 1</masterclipid>
												<syncoffset>0</syncoffset>
												<logginginfo>
													<scene/>
													<shottake/>
													<lognote/>
													<good>FALSE</good>
												</logginginfo>
												<labels>
													<label>Good Take</label>
													<label2/>
												</labels>
												<comments>
													<mastercomment1/>
													<mastercomment2/>
													<mastercomment3/>
													<mastercomment4/>
												</comments>
												<file id="CC0016_01 3"/>
												<filter>
													<effect>
														<name>Audio Levels</name>
														<effectid>audiolevels</effectid>
														<effectcategory>audiolevels</effectcategory>
														<effecttype>audiolevels</effecttype>
														<mediatype>audio</mediatype>
														<parameter>
															<name>Level</name>
															<parameterid>level</parameterid>
															<valuemin>0</valuemin>
															<valuemax>3.98109</valuemax>
															<value>1</value>
														</parameter>
													</effect>
												</filter>
												<filter>
													<effect>
														<name>Audio Pan</name>
														<effectid>audiopan</effectid>
														<effectcategory>audiopan</effectcategory>
														<effecttype>audiopan</effecttype>
														<mediatype>audio</mediatype>
														<parameter>
															<name>Pan</name>
															<parameterid>pan</parameterid>
															<valuemin>-1</valuemin>
															<valuemax>1</valuemax>
															<value>0</value>
														</parameter>
													</effect>
												</filter>
												<sourcetrack>
													<mediatype>audio</mediatype>
													<trackindex>1</trackindex>
												</sourcetrack>
												<link>
													<linkclipref>CC0016_01 2</linkclipref>
													<mediatype>video</mediatype>
													<trackindex>1</trackindex>
													<clipindex>1</clipindex>
												</link>
												<link>
													<linkclipref>CC0016_01 4</linkclipref>
													<mediatype>audio</mediatype>
													<trackindex>1</trackindex>
													<clipindex>1</clipindex>
												</link>
												<link>
													<linkclipref>CC0016_01 5</linkclipref>
													<mediatype>audio</mediatype>
													<trackindex>2</trackindex>
													<clipindex>1</clipindex>
												</link>
												<mediadelay>459441</mediadelay>
												<itemhistory>
													<uuid>6BBF3F7D-3EAC-4D85-9FE1-13EF98747167</uuid>
												</itemhistory>
											</clipitem>
											<enabled>TRUE</enabled>
											<locked>FALSE</locked>
										</track>
										<track>
											<clipitem id="CC0016_01 5">
												<name>CC0016_01</name>
												<duration>478461</duration>
												<rate>
													<ntsc>TRUE</ntsc>
													<timebase>24</timebase>
												</rate>
												<in>0</in>
												<out>478461</out>
												<start>0</start>
												<end>478461</end>
												<subframeoffset>0</subframeoffset>
												<anamorphic>FALSE</anamorphic>
												<masterclipid>CC0016_01 1</masterclipid>
												<syncoffset>0</syncoffset>
												<logginginfo>
													<scene/>
													<shottake/>
													<lognote/>
													<good>FALSE</good>
												</logginginfo>
												<labels>
													<label>Good Take</label>
													<label2/>
												</labels>
												<comments>
													<mastercomment1/>
													<mastercomment2/>
													<mastercomment3/>
													<mastercomment4/>
												</comments>
												<file id="CC0016_01 3"/>
												<filter>
													<effect>
														<name>Audio Levels</name>
														<effectid>audiolevels</effectid>
														<effectcategory>audiolevels</effectcategory>
														<effecttype>audiolevels</effecttype>
														<mediatype>audio</mediatype>
														<parameter>
															<name>Level</name>
															<parameterid>level</parameterid>
															<valuemin>0</valuemin>
															<valuemax>3.98109</valuemax>
															<value>1</value>
														</parameter>
													</effect>
												</filter>
												<filter>
													<effect>
														<name>Audio Pan</name>
														<effectid>audiopan</effectid>
														<effectcategory>audiopan</effectcategory>
														<effecttype>audiopan</effecttype>
														<mediatype>audio</mediatype>
														<parameter>
															<name>Pan</name>
															<parameterid>pan</parameterid>
															<valuemin>-1</valuemin>
															<valuemax>1</valuemax>
															<value>0</value>
														</parameter>
													</effect>
												</filter>
												<sourcetrack>
													<mediatype>audio</mediatype>
													<trackindex>2</trackindex>
												</sourcetrack>
												<link>
													<linkclipref>CC0016_01 2</linkclipref>
													<mediatype>video</mediatype>
													<trackindex>1</trackindex>
													<clipindex>1</clipindex>
												</link>
												<link>
													<linkclipref>CC0016_01 4</linkclipref>
													<mediatype>audio</mediatype>
													<trackindex>1</trackindex>
													<clipindex>1</clipindex>
												</link>
												<link>
													<linkclipref>CC0016_01 5</linkclipref>
													<mediatype>audio</mediatype>
													<trackindex>2</trackindex>
													<clipindex>1</clipindex>
												</link>
												<mediadelay>459441</mediadelay>
												<itemhistory>
													<uuid>711785FF-4BA0-482E-9E62-7C823F54FBF5</uuid>
												</itemhistory>
											</clipitem>
											<enabled>TRUE</enabled>
											<locked>FALSE</locked>
										</track>
										<filter>
											<effect>
												<name>Audio Levels</name>
												<effectid>audiolevels</effectid>
												<effectcategory>audiolevels</effectcategory>
												<effecttype>audiolevels</effecttype>
												<mediatype>audio</mediatype>
												<parameter>
													<name>Level</name>
													<parameterid>level</parameterid>
													<valuemin>0</valuemin>
													<valuemax>3.98109</valuemax>
													<value>1</value>
												</parameter>
											</effect>
										</filter>
									</audio>
								</media>
							</clip>
						</angle>
						<angle>
							<clip id="CC0017_01 ">
								<uuid>58A4503E-6348-4123-BFC6-61050A496DE3</uuid>
								<updatebehavior>add</updatebehavior>
								<name>CC0017_01</name>
								<duration>478461</duration>
								<rate>
									<ntsc>TRUE</ntsc>
									<timebase>24</timebase>
								</rate>
								<in>-1</in>
								<out>-1</out>
								<anamorphic>FALSE</anamorphic>
								<masterclipid>CC0017_01 1</masterclipid>
								<ismasterclip>FALSE</ismasterclip>
								<logginginfo>
									<scene/>
									<shottake/>
									<lognote/>
									<good>FALSE</good>
								</logginginfo>
								<labels>
									<label>Good Take</label>
									<label2/>
								</labels>
								<comments>
									<mastercomment1/>
									<mastercomment2/>
									<mastercomment3/>
									<mastercomment4/>
								</comments>
								<media>
									<video>
										<track>
											<clipitem id="CC0017_01 2">
												<name>CC0017_01</name>
												<duration>478461</duration>
												<rate>
													<ntsc>TRUE</ntsc>
													<timebase>24</timebase>
												</rate>
												<in>0</in>
												<out>478461</out>
												<start>0</start>
												<end>478461</end>
												<pixelaspectratio>Square</pixelaspectratio>
												<anamorphic>FALSE</anamorphic>
												<alphatype>none</alphatype>
												<masterclipid>CC0017_01 1</masterclipid>
												<syncoffset>0</syncoffset>
												<logginginfo>
													<scene/>
													<shottake/>
													<lognote/>
													<good>FALSE</good>
												</logginginfo>
												<labels>
													<label>Good Take</label>
													<label2/>
												</labels>
												<comments>
													<mastercomment1/>
													<mastercomment2/>
													<mastercomment3/>
													<mastercomment4/>
												</comments>
												<file id="CC0017_01 3">
													<name>CC0017_01.mov</name>
													<pathurl>file://localhost/Volumes/Share/Edit%20Share/00%20BREW%20DOGS%20S1/BD_00_San_Diego/052413/01_Video/C300/CC0017_01.mov</pathurl>
													<rate>
														<timebase>24</timebase>
														<ntsc>TRUE</ntsc>
													</rate>
													<duration>16200</duration>
													<metadata>
														<storage>QuickTime</storage>
														<key>com.apple.quicktime.creationdate</key>
														<size>24</size>
														<type>UTF8</type>
														<value>2013-05-24T17:08:28-0700</value>
													</metadata>
													<metadata>
														<storage>QuickTime</storage>
														<key>com.apple.finalcutstudio.media.history.uuid</key>
														<size>36</size>
														<type>UTF8</type>
														<value>7B003A3F-1BFB-42A4-8382-4A7241DB98BD</value>
													</metadata>
													<metadata>
														<storage>QuickTime</storage>
														<key>com.apple.finalcutstudio.media.uuid</key>
														<size>36</size>
														<type>UTF8</type>
														<value>24973CC7-3234-484E-9BEE-B8785FA0C965</value>
													</metadata>
													<metadata>
														<storage>QuickTime</storage>
														<key>com.apple.proapps.reel</key>
														<size>12</size>
														<type>UTF8</type>
														<value>C02_verified</value>
													</metadata>
													<metadata>
														<storage>QuickTime</storage>
														<key>com.apple.proapps.isGood</key>
														<size>4</size>
														<type>unsigned</type>
														<value>0</value>
													</metadata>
													<metadata>
														<storage>QuickTime</storage>
														<key>com.apple.proapps.clipID</key>
														<size>36</size>
														<type>UTF8</type>
														<value>0D48F990-3664-0580-0000-8500025A0A95</value>
													</metadata>
													<metadata>
														<storage>QuickTime</storage>
														<key>com.apple.proapps.originalFormat</key>
														<size>14</size>
														<type>UTF8</type>
														<value>Canon XF MPEG2</value>
													</metadata>
													<timecode>
														<rate>
															<timebase>24</timebase>
														</rate>
														<string>17:08:12:08</string>
														<frame>1480616</frame>
														<displayformat>NDF</displayformat>
														<source>source</source>
														<reel>
															<name>C02_verified</name>
														</reel>
													</timecode>
													<media>
														<video>
															<duration>16200</duration>
															<samplecharacteristics>
																<width>1920</width>
																<height>1080</height>
															</samplecharacteristics>
														</video>
														<audio>
															<samplecharacteristics>
																<samplerate>48000</samplerate>
																<depth>16</depth>
															</samplecharacteristics>
															<channelcount>1</channelcount>
															<layout>mono</layout>
															<audiochannel>
																<sourcechannel>1</sourcechannel>
																<channellabel>discrete</channellabel>
															</audiochannel>
														</audio>
														<audio>
															<samplecharacteristics>
																<samplerate>48000</samplerate>
																<depth>16</depth>
															</samplecharacteristics>
															<channelcount>1</channelcount>
															<layout>mono</layout>
															<audiochannel>
																<sourcechannel>2</sourcechannel>
																<channellabel>discrete</channellabel>
															</audiochannel>
														</audio>
													</media>
												</file>
												<sourcetrack>
													<mediatype>video</mediatype>
												</sourcetrack>
												<link>
													<linkclipref>CC0017_01 2</linkclipref>
													<mediatype>video</mediatype>
													<trackindex>1</trackindex>
													<clipindex>1</clipindex>
												</link>
												<link>
													<linkclipref>CC0017_01 4</linkclipref>
													<mediatype>audio</mediatype>
													<trackindex>1</trackindex>
													<clipindex>1</clipindex>
												</link>
												<link>
													<linkclipref>CC0017_01 5</linkclipref>
													<mediatype>audio</mediatype>
													<trackindex>2</trackindex>
													<clipindex>1</clipindex>
												</link>
												<fielddominance>none</fielddominance>
												<mediadelay>462261</mediadelay>
												<itemhistory>
													<uuid>42D3CE0A-5A5F-4106-A2E4-45E9C063ABB2</uuid>
												</itemhistory>
											</clipitem>
											<enabled>TRUE</enabled>
											<locked>FALSE</locked>
										</track>
									</video>
									<audio>
										<outputs>
											<group>
												<index>1</index>
												<numchannels>2</numchannels>
												<downmix>0</downmix>
												<channel>
													<index>1</index>
												</channel>
												<channel>
													<index>2</index>
												</channel>
											</group>
										</outputs>
										<in>-1</in>
										<out>-1</out>
										<track>
											<clipitem id="CC0017_01 4">
												<name>CC0017_01</name>
												<duration>478461</duration>
												<rate>
													<ntsc>TRUE</ntsc>
													<timebase>24</timebase>
												</rate>
												<in>0</in>
												<out>478461</out>
												<start>0</start>
												<end>478461</end>
												<subframeoffset>0</subframeoffset>
												<anamorphic>FALSE</anamorphic>
												<masterclipid>CC0017_01 1</masterclipid>
												<syncoffset>0</syncoffset>
												<logginginfo>
													<scene/>
													<shottake/>
													<lognote/>
													<good>FALSE</good>
												</logginginfo>
												<labels>
													<label>Good Take</label>
													<label2/>
												</labels>
												<comments>
													<mastercomment1/>
													<mastercomment2/>
													<mastercomment3/>
													<mastercomment4/>
												</comments>
												<file id="CC0017_01 3"/>
												<filter>
													<effect>
														<name>Audio Levels</name>
														<effectid>audiolevels</effectid>
														<effectcategory>audiolevels</effectcategory>
														<effecttype>audiolevels</effecttype>
														<mediatype>audio</mediatype>
														<parameter>
															<name>Level</name>
															<parameterid>level</parameterid>
															<valuemin>0</valuemin>
															<valuemax>3.98109</valuemax>
															<value>1</value>
														</parameter>
													</effect>
												</filter>
												<filter>
													<effect>
														<name>Audio Pan</name>
														<effectid>audiopan</effectid>
														<effectcategory>audiopan</effectcategory>
														<effecttype>audiopan</effecttype>
														<mediatype>audio</mediatype>
														<parameter>
															<name>Pan</name>
															<parameterid>pan</parameterid>
															<valuemin>-1</valuemin>
															<valuemax>1</valuemax>
															<value>0</value>
														</parameter>
													</effect>
												</filter>
												<sourcetrack>
													<mediatype>audio</mediatype>
													<trackindex>1</trackindex>
												</sourcetrack>
												<link>
													<linkclipref>CC0017_01 2</linkclipref>
													<mediatype>video</mediatype>
													<trackindex>1</trackindex>
													<clipindex>1</clipindex>
												</link>
												<link>
													<linkclipref>CC0017_01 4</linkclipref>
													<mediatype>audio</mediatype>
													<trackindex>1</trackindex>
													<clipindex>1</clipindex>
												</link>
												<link>
													<linkclipref>CC0017_01 5</linkclipref>
													<mediatype>audio</mediatype>
													<trackindex>2</trackindex>
													<clipindex>1</clipindex>
												</link>
												<mediadelay>462261</mediadelay>
												<itemhistory>
													<uuid>A227A32F-9B65-4702-A7A3-2668CFA2DA1B</uuid>
												</itemhistory>
											</clipitem>
											<enabled>TRUE</enabled>
											<locked>FALSE</locked>
										</track>
										<track>
											<clipitem id="CC0017_01 5">
												<name>CC0017_01</name>
												<duration>478461</duration>
												<rate>
													<ntsc>TRUE</ntsc>
													<timebase>24</timebase>
												</rate>
												<in>0</in>
												<out>478461</out>
												<start>0</start>
												<end>478461</end>
												<subframeoffset>0</subframeoffset>
												<anamorphic>FALSE</anamorphic>
												<masterclipid>CC0017_01 1</masterclipid>
												<syncoffset>0</syncoffset>
												<logginginfo>
													<scene/>
													<shottake/>
													<lognote/>
													<good>FALSE</good>
												</logginginfo>
												<labels>
													<label>Good Take</label>
													<label2/>
												</labels>
												<comments>
													<mastercomment1/>
													<mastercomment2/>
													<mastercomment3/>
													<mastercomment4/>
												</comments>
												<file id="CC0017_01 3"/>
												<filter>
													<effect>
														<name>Audio Levels</name>
														<effectid>audiolevels</effectid>
														<effectcategory>audiolevels</effectcategory>
														<effecttype>audiolevels</effecttype>
														<mediatype>audio</mediatype>
														<parameter>
															<name>Level</name>
															<parameterid>level</parameterid>
															<valuemin>0</valuemin>
															<valuemax>3.98109</valuemax>
															<value>1</value>
														</parameter>
													</effect>
												</filter>
												<filter>
													<effect>
														<name>Audio Pan</name>
														<effectid>audiopan</effectid>
														<effectcategory>audiopan</effectcategory>
														<effecttype>audiopan</effecttype>
														<mediatype>audio</mediatype>
														<parameter>
															<name>Pan</name>
															<parameterid>pan</parameterid>
															<valuemin>-1</valuemin>
															<valuemax>1</valuemax>
															<value>0</value>
														</parameter>
													</effect>
												</filter>
												<sourcetrack>
													<mediatype>audio</mediatype>
													<trackindex>2</trackindex>
												</sourcetrack>
												<link>
													<linkclipref>CC0017_01 2</linkclipref>
													<mediatype>video</mediatype>
													<trackindex>1</trackindex>
													<clipindex>1</clipindex>
												</link>
												<link>
													<linkclipref>CC0017_01 4</linkclipref>
													<mediatype>audio</mediatype>
													<trackindex>1</trackindex>
													<clipindex>1</clipindex>
												</link>
												<link>
													<linkclipref>CC0017_01 5</linkclipref>
													<mediatype>audio</mediatype>
													<trackindex>2</trackindex>
													<clipindex>1</clipindex>
												</link>
												<mediadelay>462261</mediadelay>
												<itemhistory>
													<uuid>004FD9E4-0D8A-47EE-95BA-A4E5B6E4AD46</uuid>
												</itemhistory>
											</clipitem>
											<enabled>TRUE</enabled>
											<locked>FALSE</locked>
										</track>
										<filter>
											<effect>
												<name>Audio Levels</name>
												<effectid>audiolevels</effectid>
												<effectcategory>audiolevels</effectcategory>
												<effecttype>audiolevels</effecttype>
												<mediatype>audio</mediatype>
												<parameter>
													<name>Level</name>
													<parameterid>level</parameterid>
													<valuemin>0</valuemin>
													<valuemax>3.98109</valuemax>
													<value>1</value>
												</parameter>
											</effect>
										</filter>
									</audio>
								</media>
							</clip>
						</angle>
						<masterclipid>CC0001_01 6</masterclipid>
					</multiclip>
					<mediadelay>155264</mediadelay>
					<itemhistory>
						<uuid>A8A07EDC-620E-4A56-BC32-1765CF39782A</uuid>
					</itemhistory>
				</clipitem>
				<enabled>TRUE</enabled>
				<locked>FALSE</locked>
			</track>
		</video>
		<audio>
			<format>
				<samplecharacteristics>
					<depth>16</depth>
					<samplerate>48000</samplerate>
				</samplecharacteristics>
			</format>
			<outputs>
				<group>
					<index>1</index>
					<numchannels>2</numchannels>
					<downmix>0</downmix>
					<channel>
						<index>1</index>
					</channel>
					<channel>
						<index>2</index>
					</channel>
				</group>
			</outputs>
			<in>-1</in>
			<out>-1</out>
			<track>
				<clipitem id="AA0042_01 3">
					<name>AA0042_01</name>
					<duration>578989</duration>
					<rate>
						<ntsc>TRUE</ntsc>
						<timebase>24</timebase>
					</rate>
					<in>186865</in>
					<out>193728</out>
					<start>5343</start>
					<end>12206</end>
					<enabled>TRUE</enabled>
					<masterclipid>AA0042_01 1</masterclipid>
					<syncoffset>0</syncoffset>
					<logginginfo>
						<scene/>
						<shottake/>
						<lognote/>
						<good>FALSE</good>
					</logginginfo>
					<labels>
						<label>Alternate Shots</label>
						<label2/>
					</labels>
					<comments>
						<mastercomment1/>
						<mastercomment2/>
						<mastercomment3/>
						<mastercomment4/>
					</comments>
					<file id="AA0042_01 2"/>
					<filter>
						<effect>
							<name>Audio Levels</name>
							<effectid>audiolevels</effectid>
							<effectcategory>audiolevels</effectcategory>
							<effecttype>audiolevels</effecttype>
							<mediatype>audio</mediatype>
							<parameter>
								<name>Level</name>
								<parameterid>level</parameterid>
								<valuemin>0</valuemin>
								<valuemax>3.98109</valuemax>
								<value>1</value>
							</parameter>
						</effect>
					</filter>
					<filter>
						<effect>
							<name>Audio Pan</name>
							<effectid>audiopan</effectid>
							<effectcategory>audiopan</effectcategory>
							<effecttype>audiopan</effecttype>
							<mediatype>audio</mediatype>
							<parameter>
								<name>Pan</name>
								<parameterid>pan</parameterid>
								<valuemin>-1</valuemin>
								<valuemax>1</valuemax>
								<value>0</value>
							</parameter>
						</effect>
					</filter>
					<sourcetrack>
						<mediatype>audio</mediatype>
						<trackindex>1</trackindex>
					</sourcetrack>
					<link>
						<linkclipref>AA0042_01 </linkclipref>
						<mediatype>video</mediatype>
						<trackindex>1</trackindex>
						<clipindex>1</clipindex>
					</link>
					<link>
						<linkclipref>AA0042_01 3</linkclipref>
						<mediatype>audio</mediatype>
						<trackindex>1</trackindex>
						<clipindex>1</clipindex>
					</link>
					<link>
						<linkclipref>AA0042_01 4</linkclipref>
						<mediatype>audio</mediatype>
						<trackindex>2</trackindex>
						<clipindex>1</clipindex>
					</link>
					<multiclip id="Multiclip 2 "/>
					<mediadelay>186865</mediadelay>
					<itemhistory>
						<uuid>59AD45D2-8DD3-4687-B121-062A82284F6B</uuid>
					</itemhistory>
				</clipitem>
				<enabled>FALSE</enabled>
				<locked>FALSE</locked>
				<outputchannelindex>1</outputchannelindex>
			</track>
			<track>
				<clipitem id="AA0042_01 4">
					<name>AA0042_01</name>
					<duration>578989</duration>
					<rate>
						<ntsc>TRUE</ntsc>
						<timebase>24</timebase>
					</rate>
					<in>186865</in>
					<out>193728</out>
					<start>5343</start>
					<end>12206</end>
					<enabled>TRUE</enabled>
					<masterclipid>AA0042_01 1</masterclipid>
					<syncoffset>0</syncoffset>
					<logginginfo>
						<scene/>
						<shottake/>
						<lognote/>
						<good>FALSE</good>
					</logginginfo>
					<labels>
						<label>Alternate Shots</label>
						<label2/>
					</labels>
					<comments>
						<mastercomment1/>
						<mastercomment2/>
						<mastercomment3/>
						<mastercomment4/>
					</comments>
					<file id="AA0042_01 2"/>
					<filter>
						<effect>
							<name>Audio Levels</name>
							<effectid>audiolevels</effectid>
							<effectcategory>audiolevels</effectcategory>
							<effecttype>audiolevels</effecttype>
							<mediatype>audio</mediatype>
							<parameter>
								<name>Level</name>
								<parameterid>level</parameterid>
								<valuemin>0</valuemin>
								<valuemax>3.98109</valuemax>
								<value>1</value>
							</parameter>
						</effect>
					</filter>
					<filter>
						<effect>
							<name>Audio Pan</name>
							<effectid>audiopan</effectid>
							<effectcategory>audiopan</effectcategory>
							<effecttype>audiopan</effecttype>
							<mediatype>audio</mediatype>
							<parameter>
								<name>Pan</name>
								<parameterid>pan</parameterid>
								<valuemin>-1</valuemin>
								<valuemax>1</valuemax>
								<value>0</value>
							</parameter>
						</effect>
					</filter>
					<sourcetrack>
						<mediatype>audio</mediatype>
						<trackindex>2</trackindex>
					</sourcetrack>
					<link>
						<linkclipref>AA0042_01 </linkclipref>
						<mediatype>video</mediatype>
						<trackindex>1</trackindex>
						<clipindex>1</clipindex>
					</link>
					<link>
						<linkclipref>AA0042_01 3</linkclipref>
						<mediatype>audio</mediatype>
						<trackindex>1</trackindex>
						<clipindex>1</clipindex>
					</link>
					<link>
						<linkclipref>AA0042_01 4</linkclipref>
						<mediatype>audio</mediatype>
						<trackindex>2</trackindex>
						<clipindex>1</clipindex>
					</link>
					<multiclip id="Multiclip 2 "/>
					<mediadelay>186865</mediadelay>
					<itemhistory>
						<uuid>E48842EF-BF2F-4163-8EB1-4B5996710403</uuid>
					</itemhistory>
				</clipitem>
				<enabled>FALSE</enabled>
				<locked>FALSE</locked>
				<outputchannelindex>2</outputchannelindex>
			</track>
			<track>
				<clipitem id="BB0019_01 3">
					<name>BB0019_01</name>
					<duration>576865</duration>
					<rate>
						<ntsc>TRUE</ntsc>
						<timebase>24</timebase>
					</rate>
					<in>235758</in>
					<out>242957</out>
					<start>0</start>
					<end>7199</end>
					<masterclipid>BB0019_01 1</masterclipid>
					<syncoffset>0</syncoffset>
					<logginginfo>
						<scene/>
						<shottake/>
						<lognote/>
						<good>FALSE</good>
					</logginginfo>
					<labels>
						<label>Best Take</label>
						<label2/>
					</labels>
					<comments>
						<mastercomment1/>
						<mastercomment2/>
						<mastercomment3/>
						<mastercomment4/>
					</comments>
					<file id="BB0019_01 2"/>
					<filter>
						<effect>
							<name>Audio Levels</name>
							<effectid>audiolevels</effectid>
							<effectcategory>audiolevels</effectcategory>
							<effecttype>audiolevels</effecttype>
							<mediatype>audio</mediatype>
							<parameter>
								<name>Level</name>
								<parameterid>level</parameterid>
								<valuemin>0</valuemin>
								<valuemax>3.98109</valuemax>
								<value>1</value>
							</parameter>
						</effect>
					</filter>
					<filter>
						<effect>
							<name>Audio Pan</name>
							<effectid>audiopan</effectid>
							<effectcategory>audiopan</effectcategory>
							<effecttype>audiopan</effecttype>
							<mediatype>audio</mediatype>
							<parameter>
								<name>Pan</name>
								<parameterid>pan</parameterid>
								<valuemin>-1</valuemin>
								<valuemax>1</valuemax>
								<value>0</value>
							</parameter>
						</effect>
					</filter>
					<sourcetrack>
						<mediatype>audio</mediatype>
						<trackindex>1</trackindex>
					</sourcetrack>
					<link>
						<linkclipref>BB0019_01 </linkclipref>
						<mediatype>video</mediatype>
						<trackindex>2</trackindex>
						<clipindex>1</clipindex>
					</link>
					<link>
						<linkclipref>BB0019_01 3</linkclipref>
						<mediatype>audio</mediatype>
						<trackindex>3</trackindex>
						<clipindex>1</clipindex>
					</link>
					<link>
						<linkclipref>BB0019_01 4</linkclipref>
						<mediatype>audio</mediatype>
						<trackindex>4</trackindex>
						<clipindex>1</clipindex>
					</link>
					<multiclip id="Multiclip 3 "/>
					<mediadelay>235758</mediadelay>
					<itemhistory>
						<uuid>0606A9DD-1C7E-4EBF-97CC-D8E83463CD5B</uuid>
					</itemhistory>
				</clipitem>
				<enabled>FALSE</enabled>
				<locked>FALSE</locked>
				<outputchannelindex>1</outputchannelindex>
			</track>
			<track>
				<clipitem id="BB0019_01 4">
					<name>BB0019_01</name>
					<duration>576865</duration>
					<rate>
						<ntsc>TRUE</ntsc>
						<timebase>24</timebase>
					</rate>
					<in>235758</in>
					<out>242957</out>
					<start>0</start>
					<end>7199</end>
					<masterclipid>BB0019_01 1</masterclipid>
					<syncoffset>0</syncoffset>
					<logginginfo>
						<scene/>
						<shottake/>
						<lognote/>
						<good>FALSE</good>
					</logginginfo>
					<labels>
						<label>Best Take</label>
						<label2/>
					</labels>
					<comments>
						<mastercomment1/>
						<mastercomment2/>
						<mastercomment3/>
						<mastercomment4/>
					</comments>
					<file id="BB0019_01 2"/>
					<filter>
						<effect>
							<name>Audio Levels</name>
							<effectid>audiolevels</effectid>
							<effectcategory>audiolevels</effectcategory>
							<effecttype>audiolevels</effecttype>
							<mediatype>audio</mediatype>
							<parameter>
								<name>Level</name>
								<parameterid>level</parameterid>
								<valuemin>0</valuemin>
								<valuemax>3.98109</valuemax>
								<value>1</value>
							</parameter>
						</effect>
					</filter>
					<filter>
						<effect>
							<name>Audio Pan</name>
							<effectid>audiopan</effectid>
							<effectcategory>audiopan</effectcategory>
							<effecttype>audiopan</effecttype>
							<mediatype>audio</mediatype>
							<parameter>
								<name>Pan</name>
								<parameterid>pan</parameterid>
								<valuemin>-1</valuemin>
								<valuemax>1</valuemax>
								<value>0</value>
							</parameter>
						</effect>
					</filter>
					<sourcetrack>
						<mediatype>audio</mediatype>
						<trackindex>2</trackindex>
					</sourcetrack>
					<link>
						<linkclipref>BB0019_01 </linkclipref>
						<mediatype>video</mediatype>
						<trackindex>2</trackindex>
						<clipindex>1</clipindex>
					</link>
					<link>
						<linkclipref>BB0019_01 3</linkclipref>
						<mediatype>audio</mediatype>
						<trackindex>3</trackindex>
						<clipindex>1</clipindex>
					</link>
					<link>
						<linkclipref>BB0019_01 4</linkclipref>
						<mediatype>audio</mediatype>
						<trackindex>4</trackindex>
						<clipindex>1</clipindex>
					</link>
					<multiclip id="Multiclip 3 "/>
					<mediadelay>235758</mediadelay>
					<itemhistory>
						<uuid>7768C21F-ECB4-448B-AB90-AC7358CB59E8</uuid>
					</itemhistory>
				</clipitem>
				<enabled>FALSE</enabled>
				<locked>FALSE</locked>
				<outputchannelindex>2</outputchannelindex>
			</track>
			<track>
				<clipitem id="CC0011_01 3">
					<name>CC0011_01</name>
					<duration>478461</duration>
					<rate>
						<ntsc>TRUE</ntsc>
						<timebase>24</timebase>
					</rate>
					<in>155264</in>
					<out>162463</out>
					<start>9956</start>
					<end>17155</end>
					<masterclipid>CC0011_01 1</masterclipid>
					<syncoffset>0</syncoffset>
					<logginginfo>
						<scene/>
						<shottake/>
						<lognote/>
						<good>FALSE</good>
					</logginginfo>
					<labels>
						<label>Good Take</label>
						<label2/>
					</labels>
					<comments>
						<mastercomment1/>
						<mastercomment2/>
						<mastercomment3/>
						<mastercomment4/>
					</comments>
					<file id="CC0011_01 2"/>
					<filter>
						<effect>
							<name>Audio Levels</name>
							<effectid>audiolevels</effectid>
							<effectcategory>audiolevels</effectcategory>
							<effecttype>audiolevels</effecttype>
							<mediatype>audio</mediatype>
							<parameter>
								<name>Level</name>
								<parameterid>level</parameterid>
								<valuemin>0</valuemin>
								<valuemax>3.98109</valuemax>
								<value>1</value>
							</parameter>
						</effect>
					</filter>
					<filter>
						<effect>
							<name>Audio Pan</name>
							<effectid>audiopan</effectid>
							<effectcategory>audiopan</effectcategory>
							<effecttype>audiopan</effecttype>
							<mediatype>audio</mediatype>
							<parameter>
								<name>Pan</name>
								<parameterid>pan</parameterid>
								<valuemin>-1</valuemin>
								<valuemax>1</valuemax>
								<value>0</value>
							</parameter>
						</effect>
					</filter>
					<sourcetrack>
						<mediatype>audio</mediatype>
						<trackindex>1</trackindex>
					</sourcetrack>
					<link>
						<linkclipref>CC0011_01 </linkclipref>
						<mediatype>video</mediatype>
						<trackindex>3</trackindex>
						<clipindex>1</clipindex>
					</link>
					<link>
						<linkclipref>CC0011_01 3</linkclipref>
						<mediatype>audio</mediatype>
						<trackindex>5</trackindex>
						<clipindex>1</clipindex>
					</link>
					<link>
						<linkclipref>CC0011_01 4</linkclipref>
						<mediatype>audio</mediatype>
						<trackindex>6</trackindex>
						<clipindex>1</clipindex>
					</link>
					<multiclip id="Multiclip 4 "/>
					<mediadelay>155264</mediadelay>
					<itemhistory>
						<uuid>0881742F-A9C1-4E49-845E-E2C8EC0536F0</uuid>
					</itemhistory>
				</clipitem>
				<enabled>FALSE</enabled>
				<locked>FALSE</locked>
				<outputchannelindex>1</outputchannelindex>
			</track>
			<track>
				<clipitem id="CC0011_01 4">
					<name>CC0011_01</name>
					<duration>478461</duration>
					<rate>
						<ntsc>TRUE</ntsc>
						<timebase>24</timebase>
					</rate>
					<in>155264</in>
					<out>162463</out>
					<start>9956</start>
					<end>17155</end>
					<masterclipid>CC0011_01 1</masterclipid>
					<syncoffset>0</syncoffset>
					<logginginfo>
						<scene/>
						<shottake/>
						<lognote/>
						<good>FALSE</good>
					</logginginfo>
					<labels>
						<label>Good Take</label>
						<label2/>
					</labels>
					<comments>
						<mastercomment1/>
						<mastercomment2/>
						<mastercomment3/>
						<mastercomment4/>
					</comments>
					<file id="CC0011_01 2"/>
					<filter>
						<effect>
							<name>Audio Levels</name>
							<effectid>audiolevels</effectid>
							<effectcategory>audiolevels</effectcategory>
							<effecttype>audiolevels</effecttype>
							<mediatype>audio</mediatype>
							<parameter>
								<name>Level</name>
								<parameterid>level</parameterid>
								<valuemin>0</valuemin>
								<valuemax>3.98109</valuemax>
								<value>1</value>
							</parameter>
						</effect>
					</filter>
					<filter>
						<effect>
							<name>Audio Pan</name>
							<effectid>audiopan</effectid>
							<effectcategory>audiopan</effectcategory>
							<effecttype>audiopan</effecttype>
							<mediatype>audio</mediatype>
							<parameter>
								<name>Pan</name>
								<parameterid>pan</parameterid>
								<valuemin>-1</valuemin>
								<valuemax>1</valuemax>
								<value>0</value>
							</parameter>
						</effect>
					</filter>
					<sourcetrack>
						<mediatype>audio</mediatype>
						<trackindex>2</trackindex>
					</sourcetrack>
					<link>
						<linkclipref>CC0011_01 </linkclipref>
						<mediatype>video</mediatype>
						<trackindex>3</trackindex>
						<clipindex>1</clipindex>
					</link>
					<link>
						<linkclipref>CC0011_01 3</linkclipref>
						<mediatype>audio</mediatype>
						<trackindex>5</trackindex>
						<clipindex>1</clipindex>
					</link>
					<link>
						<linkclipref>CC0011_01 4</linkclipref>
						<mediatype>audio</mediatype>
						<trackindex>6</trackindex>
						<clipindex>1</clipindex>
					</link>
					<multiclip id="Multiclip 4 "/>
					<mediadelay>155264</mediadelay>
					<itemhistory>
						<uuid>774FD20A-06BB-4A6A-BEB8-A73539A3B23E</uuid>
					</itemhistory>
				</clipitem>
				<enabled>FALSE</enabled>
				<locked>FALSE</locked>
				<outputchannelindex>2</outputchannelindex>
			</track>
			<track>
				<enabled>FALSE</enabled>
				<locked>FALSE</locked>
				<outputchannelindex>1</outputchannelindex>
			</track>
			<track>
				<enabled>FALSE</enabled>
				<locked>FALSE</locked>
				<outputchannelindex>2</outputchannelindex>
			</track>
			<track>
				<enabled>FALSE</enabled>
				<locked>FALSE</locked>
				<outputchannelindex>1</outputchannelindex>
			</track>
			<track>
				<enabled>FALSE</enabled>
				<locked>FALSE</locked>
				<outputchannelindex>2</outputchannelindex>
			</track>
			<track>
				<enabled>TRUE</enabled>
				<locked>FALSE</locked>
				<outputchannelindex>1</outputchannelindex>
			</track>
			<track>
				<clipitem id="FOODPAIRT14.WAV">
					<name>FOODPAIRT14.WAV</name>
					<duration>7224</duration>
					<rate>
						<ntsc>TRUE</ntsc>
						<timebase>24</timebase>
					</rate>
					<in>0</in>
					<out>7224</out>
					<start>15111</start>
					<end>22335</end>
					<enabled>TRUE</enabled>
					<masterclipid>FOODPAIRT14.WAV1</masterclipid>
					<logginginfo>
						<scene>FOODPAIR</scene>
						<shottake>14</shottake>
						<lognote/>
						<good>FALSE</good>
					</logginginfo>
					<labels>
						<label>Interviews</label>
						<label2/>
					</labels>
					<comments>
						<mastercomment1/>
						<mastercomment2/>
						<mastercomment3/>
						<mastercomment4/>
					</comments>
					<file id="FOODPAIRT14 ">
						<name>FOODPAIRT14.WAV</name>
						<pathurl>file://localhost/Volumes/Share/Edit%20Share/00%20BREW%20DOGS%20S1/BD_00_San_Diego/052413/00_Audio/FOODPAIRT14.WAV</pathurl>
						<rate>
							<timebase>24</timebase>
							<ntsc>TRUE</ntsc>
						</rate>
						<duration>7224</duration>
						<timecode>
							<rate>
								<timebase>24</timebase>
							</rate>
							<string>13:34:59:00</string>
							<frame>1173576</frame>
							<displayformat>NDF</displayformat>
							<source>source</source>
							<reel>
								<name>13Y05M24</name>
							</reel>
						</timecode>
						<media>
							<audio>
								<samplecharacteristics>
									<samplerate>48000</samplerate>
									<depth>24</depth>
								</samplecharacteristics>
								<channelcount>6</channelcount>
							</audio>
						</media>
					</file>
					<filter>
						<effect>
							<name>Audio Levels</name>
							<effectid>audiolevels</effectid>
							<effectcategory>audiolevels</effectcategory>
							<effecttype>audiolevels</effecttype>
							<mediatype>audio</mediatype>
							<parameter>
								<name>Level</name>
								<parameterid>level</parameterid>
								<valuemin>0</valuemin>
								<valuemax>3.98109</valuemax>
								<value>1</value>
							</parameter>
						</effect>
					</filter>
					<filter>
						<effect>
							<name>Audio Pan</name>
							<effectid>audiopan</effectid>
							<effectcategory>audiopan</effectcategory>
							<effecttype>audiopan</effecttype>
							<mediatype>audio</mediatype>
							<parameter>
								<name>Pan</name>
								<parameterid>pan</parameterid>
								<valuemin>-1</valuemin>
								<valuemax>1</valuemax>
								<value>0</value>
							</parameter>
						</effect>
					</filter>
					<sourcetrack>
						<mediatype>audio</mediatype>
						<trackindex>1</trackindex>
					</sourcetrack>
					<link>
						<linkclipref>FOODPAIRT14.WAV</linkclipref>
						<mediatype>audio</mediatype>
						<trackindex>12</trackindex>
						<clipindex>1</clipindex>
					</link>
					<link>
						<linkclipref>FOODPAIRT14.WAV2</linkclipref>
						<mediatype>audio</mediatype>
						<trackindex>13</trackindex>
						<clipindex>1</clipindex>
					</link>
					<link>
						<linkclipref>FOODPAIRT14.WAV3</linkclipref>
						<mediatype>audio</mediatype>
						<trackindex>14</trackindex>
						<clipindex>1</clipindex>
					</link>
					<link>
						<linkclipref>FOODPAIRT14.WAV4</linkclipref>
						<mediatype>audio</mediatype>
						<trackindex>15</trackindex>
						<clipindex>1</clipindex>
					</link>
					<link>
						<linkclipref>FOODPAIRT14.WAV5</linkclipref>
						<mediatype>audio</mediatype>
						<trackindex>16</trackindex>
						<clipindex>1</clipindex>
					</link>
					<link>
						<linkclipref>FOODPAIRT14.WAV6</linkclipref>
						<mediatype>audio</mediatype>
						<trackindex>17</trackindex>
						<clipindex>1</clipindex>
					</link>
					<itemhistory>
						<uuid>91A23E30-F784-455E-8964-255C3434E777</uuid>
					</itemhistory>
				</clipitem>
				<enabled>TRUE</enabled>
				<locked>FALSE</locked>
				<outputchannelindex>2</outputchannelindex>
			</track>
			<track>
				<clipitem id="FOODPAIRT14.WAV2">
					<name>FOODPAIRT14.WAV</name>
					<duration>7224</duration>
					<rate>
						<ntsc>TRUE</ntsc>
						<timebase>24</timebase>
					</rate>
					<in>0</in>
					<out>7224</out>
					<start>15111</start>
					<end>22335</end>
					<enabled>TRUE</enabled>
					<masterclipid>FOODPAIRT14.WAV1</masterclipid>
					<logginginfo>
						<scene>FOODPAIR</scene>
						<shottake>14</shottake>
						<lognote/>
						<good>FALSE</good>
					</logginginfo>
					<labels>
						<label>Interviews</label>
						<label2/>
					</labels>
					<comments>
						<mastercomment1/>
						<mastercomment2/>
						<mastercomment3/>
						<mastercomment4/>
					</comments>
					<file id="FOODPAIRT14 "/>
					<filter>
						<effect>
							<name>Audio Levels</name>
							<effectid>audiolevels</effectid>
							<effectcategory>audiolevels</effectcategory>
							<effecttype>audiolevels</effecttype>
							<mediatype>audio</mediatype>
							<parameter>
								<name>Level</name>
								<parameterid>level</parameterid>
								<valuemin>0</valuemin>
								<valuemax>3.98109</valuemax>
								<value>1</value>
							</parameter>
						</effect>
					</filter>
					<filter>
						<effect>
							<name>Audio Pan</name>
							<effectid>audiopan</effectid>
							<effectcategory>audiopan</effectcategory>
							<effecttype>audiopan</effecttype>
							<mediatype>audio</mediatype>
							<parameter>
								<name>Pan</name>
								<parameterid>pan</parameterid>
								<valuemin>-1</valuemin>
								<valuemax>1</valuemax>
								<value>0</value>
							</parameter>
						</effect>
					</filter>
					<sourcetrack>
						<mediatype>audio</mediatype>
						<trackindex>2</trackindex>
					</sourcetrack>
					<link>
						<linkclipref>FOODPAIRT14.WAV</linkclipref>
						<mediatype>audio</mediatype>
						<trackindex>12</trackindex>
						<clipindex>1</clipindex>
					</link>
					<link>
						<linkclipref>FOODPAIRT14.WAV2</linkclipref>
						<mediatype>audio</mediatype>
						<trackindex>13</trackindex>
						<clipindex>1</clipindex>
					</link>
					<link>
						<linkclipref>FOODPAIRT14.WAV3</linkclipref>
						<mediatype>audio</mediatype>
						<trackindex>14</trackindex>
						<clipindex>1</clipindex>
					</link>
					<link>
						<linkclipref>FOODPAIRT14.WAV4</linkclipref>
						<mediatype>audio</mediatype>
						<trackindex>15</trackindex>
						<clipindex>1</clipindex>
					</link>
					<link>
						<linkclipref>FOODPAIRT14.WAV5</linkclipref>
						<mediatype>audio</mediatype>
						<trackindex>16</trackindex>
						<clipindex>1</clipindex>
					</link>
					<link>
						<linkclipref>FOODPAIRT14.WAV6</linkclipref>
						<mediatype>audio</mediatype>
						<trackindex>17</trackindex>
						<clipindex>1</clipindex>
					</link>
					<itemhistory>
						<uuid>1D958ABB-4BA6-4FF9-A74B-3C815755816A</uuid>
					</itemhistory>
				</clipitem>
				<enabled>TRUE</enabled>
				<locked>FALSE</locked>
				<outputchannelindex>1</outputchannelindex>
			</track>
			<track>
				<clipitem id="FOODPAIRT14.WAV3">
					<name>FOODPAIRT14.WAV</name>
					<duration>7224</duration>
					<rate>
						<ntsc>TRUE</ntsc>
						<timebase>24</timebase>
					</rate>
					<in>0</in>
					<out>7224</out>
					<start>15111</start>
					<end>22335</end>
					<enabled>TRUE</enabled>
					<masterclipid>FOODPAIRT14.WAV1</masterclipid>
					<logginginfo>
						<scene>FOODPAIR</scene>
						<shottake>14</shottake>
						<lognote/>
						<good>FALSE</good>
					</logginginfo>
					<labels>
						<label>Interviews</label>
						<label2/>
					</labels>
					<comments>
						<mastercomment1/>
						<mastercomment2/>
						<mastercomment3/>
						<mastercomment4/>
					</comments>
					<file id="FOODPAIRT14 "/>
					<filter>
						<effect>
							<name>Audio Levels</name>
							<effectid>audiolevels</effectid>
							<effectcategory>audiolevels</effectcategory>
							<effecttype>audiolevels</effecttype>
							<mediatype>audio</mediatype>
							<parameter>
								<name>Level</name>
								<parameterid>level</parameterid>
								<valuemin>0</valuemin>
								<valuemax>3.98109</valuemax>
								<value>1</value>
							</parameter>
						</effect>
					</filter>
					<filter>
						<effect>
							<name>Audio Pan</name>
							<effectid>audiopan</effectid>
							<effectcategory>audiopan</effectcategory>
							<effecttype>audiopan</effecttype>
							<mediatype>audio</mediatype>
							<parameter>
								<name>Pan</name>
								<parameterid>pan</parameterid>
								<valuemin>-1</valuemin>
								<valuemax>1</valuemax>
								<value>0</value>
							</parameter>
						</effect>
					</filter>
					<sourcetrack>
						<mediatype>audio</mediatype>
						<trackindex>3</trackindex>
					</sourcetrack>
					<link>
						<linkclipref>FOODPAIRT14.WAV</linkclipref>
						<mediatype>audio</mediatype>
						<trackindex>12</trackindex>
						<clipindex>1</clipindex>
					</link>
					<link>
						<linkclipref>FOODPAIRT14.WAV2</linkclipref>
						<mediatype>audio</mediatype>
						<trackindex>13</trackindex>
						<clipindex>1</clipindex>
					</link>
					<link>
						<linkclipref>FOODPAIRT14.WAV3</linkclipref>
						<mediatype>audio</mediatype>
						<trackindex>14</trackindex>
						<clipindex>1</clipindex>
					</link>
					<link>
						<linkclipref>FOODPAIRT14.WAV4</linkclipref>
						<mediatype>audio</mediatype>
						<trackindex>15</trackindex>
						<clipindex>1</clipindex>
					</link>
					<link>
						<linkclipref>FOODPAIRT14.WAV5</linkclipref>
						<mediatype>audio</mediatype>
						<trackindex>16</trackindex>
						<clipindex>1</clipindex>
					</link>
					<link>
						<linkclipref>FOODPAIRT14.WAV6</linkclipref>
						<mediatype>audio</mediatype>
						<trackindex>17</trackindex>
						<clipindex>1</clipindex>
					</link>
					<itemhistory>
						<uuid>3E7C81EE-B536-4527-BCCD-5C8E80410440</uuid>
					</itemhistory>
				</clipitem>
				<enabled>TRUE</enabled>
				<locked>FALSE</locked>
				<outputchannelindex>2</outputchannelindex>
			</track>
			<track>
				<clipitem id="FOODPAIRT14.WAV4">
					<name>FOODPAIRT14.WAV</name>
					<duration>7224</duration>
					<rate>
						<ntsc>TRUE</ntsc>
						<timebase>24</timebase>
					</rate>
					<in>0</in>
					<out>7224</out>
					<start>15111</start>
					<end>22335</end>
					<enabled>TRUE</enabled>
					<masterclipid>FOODPAIRT14.WAV1</masterclipid>
					<logginginfo>
						<scene>FOODPAIR</scene>
						<shottake>14</shottake>
						<lognote/>
						<good>FALSE</good>
					</logginginfo>
					<labels>
						<label>Interviews</label>
						<label2/>
					</labels>
					<comments>
						<mastercomment1/>
						<mastercomment2/>
						<mastercomment3/>
						<mastercomment4/>
					</comments>
					<file id="FOODPAIRT14 "/>
					<filter>
						<effect>
							<name>Audio Levels</name>
							<effectid>audiolevels</effectid>
							<effectcategory>audiolevels</effectcategory>
							<effecttype>audiolevels</effecttype>
							<mediatype>audio</mediatype>
							<parameter>
								<name>Level</name>
								<parameterid>level</parameterid>
								<valuemin>0</valuemin>
								<valuemax>3.98109</valuemax>
								<value>1</value>
							</parameter>
						</effect>
					</filter>
					<filter>
						<effect>
							<name>Audio Pan</name>
							<effectid>audiopan</effectid>
							<effectcategory>audiopan</effectcategory>
							<effecttype>audiopan</effecttype>
							<mediatype>audio</mediatype>
							<parameter>
								<name>Pan</name>
								<parameterid>pan</parameterid>
								<valuemin>-1</valuemin>
								<valuemax>1</valuemax>
								<value>0</value>
							</parameter>
						</effect>
					</filter>
					<sourcetrack>
						<mediatype>audio</mediatype>
						<trackindex>4</trackindex>
					</sourcetrack>
					<link>
						<linkclipref>FOODPAIRT14.WAV</linkclipref>
						<mediatype>audio</mediatype>
						<trackindex>12</trackindex>
						<clipindex>1</clipindex>
					</link>
					<link>
						<linkclipref>FOODPAIRT14.WAV2</linkclipref>
						<mediatype>audio</mediatype>
						<trackindex>13</trackindex>
						<clipindex>1</clipindex>
					</link>
					<link>
						<linkclipref>FOODPAIRT14.WAV3</linkclipref>
						<mediatype>audio</mediatype>
						<trackindex>14</trackindex>
						<clipindex>1</clipindex>
					</link>
					<link>
						<linkclipref>FOODPAIRT14.WAV4</linkclipref>
						<mediatype>audio</mediatype>
						<trackindex>15</trackindex>
						<clipindex>1</clipindex>
					</link>
					<link>
						<linkclipref>FOODPAIRT14.WAV5</linkclipref>
						<mediatype>audio</mediatype>
						<trackindex>16</trackindex>
						<clipindex>1</clipindex>
					</link>
					<link>
						<linkclipref>FOODPAIRT14.WAV6</linkclipref>
						<mediatype>audio</mediatype>
						<trackindex>17</trackindex>
						<clipindex>1</clipindex>
					</link>
					<itemhistory>
						<uuid>42F3F838-B618-414D-B5DF-C4B508C7E1C8</uuid>
					</itemhistory>
				</clipitem>
				<enabled>TRUE</enabled>
				<locked>FALSE</locked>
				<outputchannelindex>1</outputchannelindex>
			</track>
			<track>
				<clipitem id="FOODPAIRT14.WAV5">
					<name>FOODPAIRT14.WAV</name>
					<duration>7224</duration>
					<rate>
						<ntsc>TRUE</ntsc>
						<timebase>24</timebase>
					</rate>
					<in>0</in>
					<out>7224</out>
					<start>15111</start>
					<end>22335</end>
					<enabled>TRUE</enabled>
					<masterclipid>FOODPAIRT14.WAV1</masterclipid>
					<logginginfo>
						<scene>FOODPAIR</scene>
						<shottake>14</shottake>
						<lognote/>
						<good>FALSE</good>
					</logginginfo>
					<labels>
						<label>Interviews</label>
						<label2/>
					</labels>
					<comments>
						<mastercomment1/>
						<mastercomment2/>
						<mastercomment3/>
						<mastercomment4/>
					</comments>
					<file id="FOODPAIRT14 "/>
					<filter>
						<effect>
							<name>Audio Levels</name>
							<effectid>audiolevels</effectid>
							<effectcategory>audiolevels</effectcategory>
							<effecttype>audiolevels</effecttype>
							<mediatype>audio</mediatype>
							<parameter>
								<name>Level</name>
								<parameterid>level</parameterid>
								<valuemin>0</valuemin>
								<valuemax>3.98109</valuemax>
								<value>1</value>
							</parameter>
						</effect>
					</filter>
					<filter>
						<effect>
							<name>Audio Pan</name>
							<effectid>audiopan</effectid>
							<effectcategory>audiopan</effectcategory>
							<effecttype>audiopan</effecttype>
							<mediatype>audio</mediatype>
							<parameter>
								<name>Pan</name>
								<parameterid>pan</parameterid>
								<valuemin>-1</valuemin>
								<valuemax>1</valuemax>
								<value>0</value>
							</parameter>
						</effect>
					</filter>
					<sourcetrack>
						<mediatype>audio</mediatype>
						<trackindex>5</trackindex>
					</sourcetrack>
					<link>
						<linkclipref>FOODPAIRT14.WAV</linkclipref>
						<mediatype>audio</mediatype>
						<trackindex>12</trackindex>
						<clipindex>1</clipindex>
					</link>
					<link>
						<linkclipref>FOODPAIRT14.WAV2</linkclipref>
						<mediatype>audio</mediatype>
						<trackindex>13</trackindex>
						<clipindex>1</clipindex>
					</link>
					<link>
						<linkclipref>FOODPAIRT14.WAV3</linkclipref>
						<mediatype>audio</mediatype>
						<trackindex>14</trackindex>
						<clipindex>1</clipindex>
					</link>
					<link>
						<linkclipref>FOODPAIRT14.WAV4</linkclipref>
						<mediatype>audio</mediatype>
						<trackindex>15</trackindex>
						<clipindex>1</clipindex>
					</link>
					<link>
						<linkclipref>FOODPAIRT14.WAV5</linkclipref>
						<mediatype>audio</mediatype>
						<trackindex>16</trackindex>
						<clipindex>1</clipindex>
					</link>
					<link>
						<linkclipref>FOODPAIRT14.WAV6</linkclipref>
						<mediatype>audio</mediatype>
						<trackindex>17</trackindex>
						<clipindex>1</clipindex>
					</link>
					<itemhistory>
						<uuid>6EFB4C47-3A7E-4FED-A066-FF0AA6E939EE</uuid>
					</itemhistory>
				</clipitem>
				<enabled>TRUE</enabled>
				<locked>FALSE</locked>
				<outputchannelindex>2</outputchannelindex>
			</track>
			<track>
				<clipitem id="FOODPAIRT14.WAV6">
					<name>FOODPAIRT14.WAV</name>
					<duration>7224</duration>
					<rate>
						<ntsc>TRUE</ntsc>
						<timebase>24</timebase>
					</rate>
					<in>0</in>
					<out>7224</out>
					<start>15111</start>
					<end>22335</end>
					<enabled>TRUE</enabled>
					<masterclipid>FOODPAIRT14.WAV1</masterclipid>
					<logginginfo>
						<scene>FOODPAIR</scene>
						<shottake>14</shottake>
						<lognote/>
						<good>FALSE</good>
					</logginginfo>
					<labels>
						<label>Interviews</label>
						<label2/>
					</labels>
					<comments>
						<mastercomment1/>
						<mastercomment2/>
						<mastercomment3/>
						<mastercomment4/>
					</comments>
					<file id="FOODPAIRT14 "/>
					<filter>
						<effect>
							<name>Audio Levels</name>
							<effectid>audiolevels</effectid>
							<effectcategory>audiolevels</effectcategory>
							<effecttype>audiolevels</effecttype>
							<mediatype>audio</mediatype>
							<parameter>
								<name>Level</name>
								<parameterid>level</parameterid>
								<valuemin>0</valuemin>
								<valuemax>3.98109</valuemax>
								<value>1</value>
							</parameter>
						</effect>
					</filter>
					<filter>
						<effect>
							<name>Audio Pan</name>
							<effectid>audiopan</effectid>
							<effectcategory>audiopan</effectcategory>
							<effecttype>audiopan</effecttype>
							<mediatype>audio</mediatype>
							<parameter>
								<name>Pan</name>
								<parameterid>pan</parameterid>
								<valuemin>-1</valuemin>
								<valuemax>1</valuemax>
								<value>0</value>
							</parameter>
						</effect>
					</filter>
					<sourcetrack>
						<mediatype>audio</mediatype>
						<trackindex>6</trackindex>
					</sourcetrack>
					<link>
						<linkclipref>FOODPAIRT14.WAV</linkclipref>
						<mediatype>audio</mediatype>
						<trackindex>12</trackindex>
						<clipindex>1</clipindex>
					</link>
					<link>
						<linkclipref>FOODPAIRT14.WAV2</linkclipref>
						<mediatype>audio</mediatype>
						<trackindex>13</trackindex>
						<clipindex>1</clipindex>
					</link>
					<link>
						<linkclipref>FOODPAIRT14.WAV3</linkclipref>
						<mediatype>audio</mediatype>
						<trackindex>14</trackindex>
						<clipindex>1</clipindex>
					</link>
					<link>
						<linkclipref>FOODPAIRT14.WAV4</linkclipref>
						<mediatype>audio</mediatype>
						<trackindex>15</trackindex>
						<clipindex>1</clipindex>
					</link>
					<link>
						<linkclipref>FOODPAIRT14.WAV5</linkclipref>
						<mediatype>audio</mediatype>
						<trackindex>16</trackindex>
						<clipindex>1</clipindex>
					</link>
					<link>
						<linkclipref>FOODPAIRT14.WAV6</linkclipref>
						<mediatype>audio</mediatype>
						<trackindex>17</trackindex>
						<clipindex>1</clipindex>
					</link>
					<itemhistory>
						<uuid>BB2404EA-A361-4248-8943-5DE15EF3B527</uuid>
					</itemhistory>
				</clipitem>
				<enabled>TRUE</enabled>
				<locked>FALSE</locked>
				<outputchannelindex>1</outputchannelindex>
			</track>
			<filter>
				<effect>
					<name>Audio Levels</name>
					<effectid>audiolevels</effectid>
					<effectcategory>audiolevels</effectcategory>
					<effecttype>audiolevels</effecttype>
					<mediatype>audio</mediatype>
					<parameter>
						<name>Level</name>
						<parameterid>level</parameterid>
						<valuemin>0</valuemin>
						<valuemax>3.98109</valuemax>
						<value>1</value>
					</parameter>
				</effect>
			</filter>
		</audio>
	</media>
	<ismasterclip>FALSE</ismasterclip>
</sequence>
<bin>
	<name>Multiclips</name>
	<children>
		<clip id="AA0026_01 6">
			<uuid>66FA9286-9F56-4A97-90CB-CE86EEDAD016</uuid>
			<updatebehavior>add</updatebehavior>
			<name>AA0026_01</name>
			<duration>578989</duration>
			<rate>
				<ntsc>TRUE</ntsc>
				<timebase>24</timebase>
			</rate>
			<in>-1</in>
			<out>-1</out>
			<masterclipid>AA0026_01 1</masterclipid>
			<ismasterclip>FALSE</ismasterclip>
			<logginginfo>
				<scene/>
				<shottake/>
				<lognote/>
				<good>FALSE</good>
			</logginginfo>
			<labels>
				<label>Alternate Shots</label>
				<label2/>
			</labels>
			<comments>
				<mastercomment1/>
				<mastercomment2/>
				<mastercomment3/>
				<mastercomment4/>
			</comments>
			<media>
				<video>
					<track>
						<clipitem id="AA0026_01 7">
							<name>AA0026_01</name>
							<duration>578989</duration>
							<rate>
								<ntsc>TRUE</ntsc>
								<timebase>24</timebase>
							</rate>
							<in>0</in>
							<out>578989</out>
							<start>0</start>
							<end>578989</end>
							<pixelaspectratio>Square</pixelaspectratio>
							<anamorphic>FALSE</anamorphic>
							<alphatype>none</alphatype>
							<masterclipid>AA0026_01 1</masterclipid>
							<syncoffset>0</syncoffset>
							<logginginfo>
								<scene/>
								<shottake/>
								<lognote/>
								<good>FALSE</good>
							</logginginfo>
							<labels>
								<label>Alternate Shots</label>
								<label2/>
							</labels>
							<comments>
								<mastercomment1/>
								<mastercomment2/>
								<mastercomment3/>
								<mastercomment4/>
							</comments>
							<file id="AA0026_01 3"/>
							<sourcetrack>
								<mediatype>video</mediatype>
							</sourcetrack>
							<link>
								<linkclipref>AA0026_01 7</linkclipref>
								<mediatype>video</mediatype>
								<trackindex>1</trackindex>
								<clipindex>1</clipindex>
							</link>
							<link>
								<linkclipref>AA0026_01 8</linkclipref>
								<mediatype>audio</mediatype>
								<trackindex>1</trackindex>
								<clipindex>1</clipindex>
							</link>
							<link>
								<linkclipref>AA0026_01 9</linkclipref>
								<mediatype>audio</mediatype>
								<trackindex>2</trackindex>
								<clipindex>1</clipindex>
							</link>
							<fielddominance>none</fielddominance>
							<multiclip id="Multiclip 2 1">
								<name>Multiclip 2</name>
								<collapsed>FALSE</collapsed>
								<synctype>3</synctype>
								<angle>
									<activevideoangle>TRUE</activevideoangle>
									<activeaudioangle>TRUE</activeaudioangle>
									<clip id="AA0026_01 "/>
								</angle>
								<angle>
									<clip id="AA0027_01 "/>
								</angle>
								<angle>
									<clip id="AA0031_01 "/>
								</angle>
								<angle>
									<clip id="AA0032_01 "/>
								</angle>
								<angle>
									<clip id="AA0033_01 "/>
								</angle>
								<angle>
									<clip id="AA0034_01 "/>
								</angle>
								<angle>
									<clip id="AA0035_01 "/>
								</angle>
								<angle>
									<clip id="AA0036_01 "/>
								</angle>
								<angle>
									<clip id="AA0037_01 "/>
								</angle>
								<angle>
									<clip id="AA0039_01 "/>
								</angle>
								<angle>
									<clip id="AA0041_01 "/>
								</angle>
								<angle>
									<clip id="AA0042_01 5"/>
								</angle>
								<angle>
									<clip id="AA0043_01 "/>
								</angle>
								<angle>
									<clip id="AA0044_01 "/>
								</angle>
								<angle>
									<clip id="AA0045_01 "/>
								</angle>
								<angle>
									<clip id="AA0047_01 "/>
								</angle>
								<angle>
									<clip id="AA0048_01 "/>
								</angle>
								<angle>
									<clip id="AA0049_01 "/>
								</angle>
								<angle>
									<clip id="AA0050_01 "/>
								</angle>
								<angle>
									<clip id="AA0051_01 "/>
								</angle>
								<angle>
									<clip id="AA0052_01 "/>
								</angle>
								<angle>
									<clip id="AA0053_01 "/>
								</angle>
								<angle>
									<clip id="AA0054_01 "/>
								</angle>
								<angle>
									<clip id="AA0055_01 "/>
								</angle>
								<masterclipid>AA0026_01 6</masterclipid>
							</multiclip>
							<itemhistory>
								<uuid>1F6044BE-FA60-477C-88F3-6A9D0FE0C0FE</uuid>
							</itemhistory>
						</clipitem>
						<enabled>TRUE</enabled>
						<locked>FALSE</locked>
					</track>
				</video>
				<audio>
					<in>-1</in>
					<out>-1</out>
					<track>
						<clipitem id="AA0026_01 8">
							<name>AA0026_01</name>
							<duration>578989</duration>
							<rate>
								<ntsc>TRUE</ntsc>
								<timebase>24</timebase>
							</rate>
							<in>0</in>
							<out>578989</out>
							<start>0</start>
							<end>578989</end>
							<subframeoffset>0</subframeoffset>
							<masterclipid>AA0026_01 1</masterclipid>
							<syncoffset>0</syncoffset>
							<logginginfo>
								<scene/>
								<shottake/>
								<lognote/>
								<good>FALSE</good>
							</logginginfo>
							<labels>
								<label>Alternate Shots</label>
								<label2/>
							</labels>
							<comments>
								<mastercomment1/>
								<mastercomment2/>
								<mastercomment3/>
								<mastercomment4/>
							</comments>
							<file id="AA0026_01 3"/>
							<filter>
								<effect>
									<name>Audio Levels</name>
									<effectid>audiolevels</effectid>
									<effectcategory>audiolevels</effectcategory>
									<effecttype>audiolevels</effecttype>
									<mediatype>audio</mediatype>
									<parameter>
										<name>Level</name>
										<parameterid>level</parameterid>
										<valuemin>0</valuemin>
										<valuemax>3.98109</valuemax>
										<value>1</value>
									</parameter>
								</effect>
							</filter>
							<filter>
								<effect>
									<name>Audio Pan</name>
									<effectid>audiopan</effectid>
									<effectcategory>audiopan</effectcategory>
									<effecttype>audiopan</effecttype>
									<mediatype>audio</mediatype>
									<parameter>
										<name>Pan</name>
										<parameterid>pan</parameterid>
										<valuemin>-1</valuemin>
										<valuemax>1</valuemax>
										<value>0</value>
									</parameter>
								</effect>
							</filter>
							<sourcetrack>
								<mediatype>audio</mediatype>
								<trackindex>1</trackindex>
							</sourcetrack>
							<link>
								<linkclipref>AA0026_01 7</linkclipref>
								<mediatype>video</mediatype>
								<trackindex>1</trackindex>
								<clipindex>1</clipindex>
							</link>
							<link>
								<linkclipref>AA0026_01 8</linkclipref>
								<mediatype>audio</mediatype>
								<trackindex>1</trackindex>
								<clipindex>1</clipindex>
							</link>
							<link>
								<linkclipref>AA0026_01 9</linkclipref>
								<mediatype>audio</mediatype>
								<trackindex>2</trackindex>
								<clipindex>1</clipindex>
							</link>
							<multiclip id="Multiclip 2 1"/>
							<itemhistory>
								<uuid>5FAF0A6B-278D-48A7-8292-B32BABE6CB46</uuid>
							</itemhistory>
						</clipitem>
						<enabled>TRUE</enabled>
						<locked>FALSE</locked>
					</track>
					<track>
						<clipitem id="AA0026_01 9">
							<name>AA0026_01</name>
							<duration>578989</duration>
							<rate>
								<ntsc>TRUE</ntsc>
								<timebase>24</timebase>
							</rate>
							<in>0</in>
							<out>578989</out>
							<start>0</start>
							<end>578989</end>
							<subframeoffset>0</subframeoffset>
							<masterclipid>AA0026_01 1</masterclipid>
							<syncoffset>0</syncoffset>
							<logginginfo>
								<scene/>
								<shottake/>
								<lognote/>
								<good>FALSE</good>
							</logginginfo>
							<labels>
								<label>Alternate Shots</label>
								<label2/>
							</labels>
							<comments>
								<mastercomment1/>
								<mastercomment2/>
								<mastercomment3/>
								<mastercomment4/>
							</comments>
							<file id="AA0026_01 3"/>
							<filter>
								<effect>
									<name>Audio Levels</name>
									<effectid>audiolevels</effectid>
									<effectcategory>audiolevels</effectcategory>
									<effecttype>audiolevels</effecttype>
									<mediatype>audio</mediatype>
									<parameter>
										<name>Level</name>
										<parameterid>level</parameterid>
										<valuemin>0</valuemin>
										<valuemax>3.98109</valuemax>
										<value>1</value>
									</parameter>
								</effect>
							</filter>
							<filter>
								<effect>
									<name>Audio Pan</name>
									<effectid>audiopan</effectid>
									<effectcategory>audiopan</effectcategory>
									<effecttype>audiopan</effecttype>
									<mediatype>audio</mediatype>
									<parameter>
										<name>Pan</name>
										<parameterid>pan</parameterid>
										<valuemin>-1</valuemin>
										<valuemax>1</valuemax>
										<value>0</value>
									</parameter>
								</effect>
							</filter>
							<sourcetrack>
								<mediatype>audio</mediatype>
								<trackindex>2</trackindex>
							</sourcetrack>
							<link>
								<linkclipref>AA0026_01 7</linkclipref>
								<mediatype>video</mediatype>
								<trackindex>1</trackindex>
								<clipindex>1</clipindex>
							</link>
							<link>
								<linkclipref>AA0026_01 8</linkclipref>
								<mediatype>audio</mediatype>
								<trackindex>1</trackindex>
								<clipindex>1</clipindex>
							</link>
							<link>
								<linkclipref>AA0026_01 9</linkclipref>
								<mediatype>audio</mediatype>
								<trackindex>2</trackindex>
								<clipindex>1</clipindex>
							</link>
							<multiclip id="Multiclip 2 1"/>
							<itemhistory>
								<uuid>A00910CB-23F1-4693-B329-67D9B003E27F</uuid>
							</itemhistory>
						</clipitem>
						<enabled>TRUE</enabled>
						<locked>FALSE</locked>
					</track>
					<filter>
						<effect>
							<name>Audio Levels</name>
							<effectid>audiolevels</effectid>
							<effectcategory>audiolevels</effectcategory>
							<effecttype>audiolevels</effecttype>
							<mediatype>audio</mediatype>
							<parameter>
								<name>Level</name>
								<parameterid>level</parameterid>
								<valuemin>0</valuemin>
								<valuemax>3.98109</valuemax>
								<value>1</value>
							</parameter>
						</effect>
					</filter>
				</audio>
			</media>
		</clip>
		<clip id="BB0002_01 6">
			<uuid>DE1B154F-61ED-4244-ADE8-F44011AF4145</uuid>
			<updatebehavior>add</updatebehavior>
			<name>BB0002_01</name>
			<duration>576865</duration>
			<rate>
				<ntsc>TRUE</ntsc>
				<timebase>24</timebase>
			</rate>
			<in>-1</in>
			<out>-1</out>
			<masterclipid>BB0002_01 1</masterclipid>
			<ismasterclip>FALSE</ismasterclip>
			<logginginfo>
				<scene/>
				<shottake/>
				<lognote/>
				<good>FALSE</good>
			</logginginfo>
			<labels>
				<label>Best Take</label>
				<label2/>
			</labels>
			<comments>
				<mastercomment1/>
				<mastercomment2/>
				<mastercomment3/>
				<mastercomment4/>
			</comments>
			<media>
				<video>
					<track>
						<clipitem id="BB0002_01 7">
							<name>BB0002_01</name>
							<duration>576865</duration>
							<rate>
								<ntsc>TRUE</ntsc>
								<timebase>24</timebase>
							</rate>
							<in>0</in>
							<out>576865</out>
							<start>0</start>
							<end>576865</end>
							<pixelaspectratio>Square</pixelaspectratio>
							<anamorphic>FALSE</anamorphic>
							<alphatype>none</alphatype>
							<masterclipid>BB0002_01 1</masterclipid>
							<syncoffset>0</syncoffset>
							<logginginfo>
								<scene/>
								<shottake/>
								<lognote/>
								<good>FALSE</good>
							</logginginfo>
							<labels>
								<label>Best Take</label>
								<label2/>
							</labels>
							<comments>
								<mastercomment1/>
								<mastercomment2/>
								<mastercomment3/>
								<mastercomment4/>
							</comments>
							<file id="BB0002_01 3"/>
							<sourcetrack>
								<mediatype>video</mediatype>
							</sourcetrack>
							<link>
								<linkclipref>BB0002_01 7</linkclipref>
								<mediatype>video</mediatype>
								<trackindex>1</trackindex>
								<clipindex>1</clipindex>
							</link>
							<link>
								<linkclipref>BB0002_01 8</linkclipref>
								<mediatype>audio</mediatype>
								<trackindex>1</trackindex>
								<clipindex>1</clipindex>
							</link>
							<link>
								<linkclipref>BB0002_01 9</linkclipref>
								<mediatype>audio</mediatype>
								<trackindex>2</trackindex>
								<clipindex>1</clipindex>
							</link>
							<fielddominance>none</fielddominance>
							<multiclip id="Multiclip 3 1">
								<name>Multiclip 3</name>
								<collapsed>FALSE</collapsed>
								<synctype>3</synctype>
								<angle>
									<activevideoangle>TRUE</activevideoangle>
									<activeaudioangle>TRUE</activeaudioangle>
									<clip id="BB0002_01 "/>
								</angle>
								<angle>
									<clip id="BB0003_01 "/>
								</angle>
								<angle>
									<clip id="BB0004_01 "/>
								</angle>
								<angle>
									<clip id="BB0008_01 "/>
								</angle>
								<angle>
									<clip id="BB0009_01 "/>
								</angle>
								<angle>
									<clip id="BB0010_01 "/>
								</angle>
								<angle>
									<clip id="BB0011_01 "/>
								</angle>
								<angle>
									<clip id="BB0012_01 "/>
								</angle>
								<angle>
									<clip id="BB0018_01 "/>
								</angle>
								<angle>
									<clip id="BB0019_01 5"/>
								</angle>
								<angle>
									<clip id="BB0020_01 "/>
								</angle>
								<angle>
									<clip id="BB0021_01 "/>
								</angle>
								<angle>
									<clip id="BB0022_01 "/>
								</angle>
								<angle>
									<clip id="BB0023_01 "/>
								</angle>
								<angle>
									<clip id="BB0024_01 "/>
								</angle>
								<angle>
									<clip id="BB0025_01 "/>
								</angle>
								<angle>
									<clip id="BB0026_01 "/>
								</angle>
								<angle>
									<clip id="BB0027_01 "/>
								</angle>
								<angle>
									<clip id="BB0028_01 "/>
								</angle>
								<angle>
									<clip id="BB0029_01 "/>
								</angle>
								<masterclipid>BB0002_01 6</masterclipid>
							</multiclip>
							<itemhistory>
								<uuid>6FC11D23-C236-407A-A82B-C348C7B28CF9</uuid>
							</itemhistory>
						</clipitem>
						<enabled>TRUE</enabled>
						<locked>FALSE</locked>
					</track>
				</video>
				<audio>
					<in>-1</in>
					<out>-1</out>
					<track>
						<clipitem id="BB0002_01 8">
							<name>BB0002_01</name>
							<duration>576865</duration>
							<rate>
								<ntsc>TRUE</ntsc>
								<timebase>24</timebase>
							</rate>
							<in>0</in>
							<out>576865</out>
							<start>0</start>
							<end>576865</end>
							<subframeoffset>0</subframeoffset>
							<masterclipid>BB0002_01 1</masterclipid>
							<syncoffset>0</syncoffset>
							<logginginfo>
								<scene/>
								<shottake/>
								<lognote/>
								<good>FALSE</good>
							</logginginfo>
							<labels>
								<label>Best Take</label>
								<label2/>
							</labels>
							<comments>
								<mastercomment1/>
								<mastercomment2/>
								<mastercomment3/>
								<mastercomment4/>
							</comments>
							<file id="BB0002_01 3"/>
							<filter>
								<effect>
									<name>Audio Levels</name>
									<effectid>audiolevels</effectid>
									<effectcategory>audiolevels</effectcategory>
									<effecttype>audiolevels</effecttype>
									<mediatype>audio</mediatype>
									<parameter>
										<name>Level</name>
										<parameterid>level</parameterid>
										<valuemin>0</valuemin>
										<valuemax>3.98109</valuemax>
										<value>1</value>
									</parameter>
								</effect>
							</filter>
							<filter>
								<effect>
									<name>Audio Pan</name>
									<effectid>audiopan</effectid>
									<effectcategory>audiopan</effectcategory>
									<effecttype>audiopan</effecttype>
									<mediatype>audio</mediatype>
									<parameter>
										<name>Pan</name>
										<parameterid>pan</parameterid>
										<valuemin>-1</valuemin>
										<valuemax>1</valuemax>
										<value>0</value>
									</parameter>
								</effect>
							</filter>
							<sourcetrack>
								<mediatype>audio</mediatype>
								<trackindex>1</trackindex>
							</sourcetrack>
							<link>
								<linkclipref>BB0002_01 7</linkclipref>
								<mediatype>video</mediatype>
								<trackindex>1</trackindex>
								<clipindex>1</clipindex>
							</link>
							<link>
								<linkclipref>BB0002_01 8</linkclipref>
								<mediatype>audio</mediatype>
								<trackindex>1</trackindex>
								<clipindex>1</clipindex>
							</link>
							<link>
								<linkclipref>BB0002_01 9</linkclipref>
								<mediatype>audio</mediatype>
								<trackindex>2</trackindex>
								<clipindex>1</clipindex>
							</link>
							<multiclip id="Multiclip 3 1"/>
							<itemhistory>
								<uuid>F3217BD3-31A7-42EB-906E-DEBA96003436</uuid>
							</itemhistory>
						</clipitem>
						<enabled>TRUE</enabled>
						<locked>FALSE</locked>
					</track>
					<track>
						<clipitem id="BB0002_01 9">
							<name>BB0002_01</name>
							<duration>576865</duration>
							<rate>
								<ntsc>TRUE</ntsc>
								<timebase>24</timebase>
							</rate>
							<in>0</in>
							<out>576865</out>
							<start>0</start>
							<end>576865</end>
							<subframeoffset>0</subframeoffset>
							<masterclipid>BB0002_01 1</masterclipid>
							<syncoffset>0</syncoffset>
							<logginginfo>
								<scene/>
								<shottake/>
								<lognote/>
								<good>FALSE</good>
							</logginginfo>
							<labels>
								<label>Best Take</label>
								<label2/>
							</labels>
							<comments>
								<mastercomment1/>
								<mastercomment2/>
								<mastercomment3/>
								<mastercomment4/>
							</comments>
							<file id="BB0002_01 3"/>
							<filter>
								<effect>
									<name>Audio Levels</name>
									<effectid>audiolevels</effectid>
									<effectcategory>audiolevels</effectcategory>
									<effecttype>audiolevels</effecttype>
									<mediatype>audio</mediatype>
									<parameter>
										<name>Level</name>
										<parameterid>level</parameterid>
										<valuemin>0</valuemin>
										<valuemax>3.98109</valuemax>
										<value>1</value>
									</parameter>
								</effect>
							</filter>
							<filter>
								<effect>
									<name>Audio Pan</name>
									<effectid>audiopan</effectid>
									<effectcategory>audiopan</effectcategory>
									<effecttype>audiopan</effecttype>
									<mediatype>audio</mediatype>
									<parameter>
										<name>Pan</name>
										<parameterid>pan</parameterid>
										<valuemin>-1</valuemin>
										<valuemax>1</valuemax>
										<value>0</value>
									</parameter>
								</effect>
							</filter>
							<sourcetrack>
								<mediatype>audio</mediatype>
								<trackindex>2</trackindex>
							</sourcetrack>
							<link>
								<linkclipref>BB0002_01 7</linkclipref>
								<mediatype>video</mediatype>
								<trackindex>1</trackindex>
								<clipindex>1</clipindex>
							</link>
							<link>
								<linkclipref>BB0002_01 8</linkclipref>
								<mediatype>audio</mediatype>
								<trackindex>1</trackindex>
								<clipindex>1</clipindex>
							</link>
							<link>
								<linkclipref>BB0002_01 9</linkclipref>
								<mediatype>audio</mediatype>
								<trackindex>2</trackindex>
								<clipindex>1</clipindex>
							</link>
							<multiclip id="Multiclip 3 1"/>
							<itemhistory>
								<uuid>02B604CD-5F69-4234-9181-AB8B4E0F1731</uuid>
							</itemhistory>
						</clipitem>
						<enabled>TRUE</enabled>
						<locked>FALSE</locked>
					</track>
					<filter>
						<effect>
							<name>Audio Levels</name>
							<effectid>audiolevels</effectid>
							<effectcategory>audiolevels</effectcategory>
							<effecttype>audiolevels</effecttype>
							<mediatype>audio</mediatype>
							<parameter>
								<name>Level</name>
								<parameterid>level</parameterid>
								<valuemin>0</valuemin>
								<valuemax>3.98109</valuemax>
								<value>1</value>
							</parameter>
						</effect>
					</filter>
				</audio>
			</media>
		</clip>
		<clip id="CC0001_01 6">
			<uuid>8914B017-D4E4-4CFD-A2E4-8F0FC26E8041</uuid>
			<updatebehavior>add</updatebehavior>
			<name>CC0001_01</name>
			<duration>478461</duration>
			<rate>
				<ntsc>TRUE</ntsc>
				<timebase>24</timebase>
			</rate>
			<in>-1</in>
			<out>-1</out>
			<masterclipid>CC0001_01 1</masterclipid>
			<ismasterclip>FALSE</ismasterclip>
			<logginginfo>
				<scene/>
				<shottake/>
				<lognote/>
				<good>FALSE</good>
			</logginginfo>
			<labels>
				<label>Good Take</label>
				<label2/>
			</labels>
			<comments>
				<mastercomment1/>
				<mastercomment2/>
				<mastercomment3/>
				<mastercomment4/>
			</comments>
			<media>
				<video>
					<track>
						<clipitem id="CC0001_01 7">
							<name>CC0001_01</name>
							<duration>478461</duration>
							<rate>
								<ntsc>TRUE</ntsc>
								<timebase>24</timebase>
							</rate>
							<in>0</in>
							<out>478461</out>
							<start>0</start>
							<end>478461</end>
							<pixelaspectratio>Square</pixelaspectratio>
							<anamorphic>FALSE</anamorphic>
							<alphatype>none</alphatype>
							<masterclipid>CC0001_01 1</masterclipid>
							<syncoffset>0</syncoffset>
							<logginginfo>
								<scene/>
								<shottake/>
								<lognote/>
								<good>FALSE</good>
							</logginginfo>
							<labels>
								<label>Good Take</label>
								<label2/>
							</labels>
							<comments>
								<mastercomment1/>
								<mastercomment2/>
								<mastercomment3/>
								<mastercomment4/>
							</comments>
							<file id="CC0001_01 3"/>
							<sourcetrack>
								<mediatype>video</mediatype>
							</sourcetrack>
							<link>
								<linkclipref>CC0001_01 7</linkclipref>
								<mediatype>video</mediatype>
								<trackindex>1</trackindex>
								<clipindex>1</clipindex>
							</link>
							<link>
								<linkclipref>CC0001_01 8</linkclipref>
								<mediatype>audio</mediatype>
								<trackindex>1</trackindex>
								<clipindex>1</clipindex>
							</link>
							<link>
								<linkclipref>CC0001_01 9</linkclipref>
								<mediatype>audio</mediatype>
								<trackindex>2</trackindex>
								<clipindex>1</clipindex>
							</link>
							<fielddominance>none</fielddominance>
							<multiclip id="Multiclip 4 1">
								<name>Multiclip 4</name>
								<collapsed>FALSE</collapsed>
								<synctype>3</synctype>
								<angle>
									<activevideoangle>TRUE</activevideoangle>
									<activeaudioangle>TRUE</activeaudioangle>
									<clip id="CC0001_01 10">
										<uuid>8914B017-D4E4-4CFD-A2E4-8F0FC26E8041</uuid>
										<updatebehavior>add</updatebehavior>
										<name>CC0001_01</name>
										<duration>478461</duration>
										<rate>
											<ntsc>TRUE</ntsc>
											<timebase>24</timebase>
										</rate>
										<in>-1</in>
										<out>-1</out>
										<anamorphic>FALSE</anamorphic>
										<masterclipid>CC0001_01 1</masterclipid>
										<ismasterclip>FALSE</ismasterclip>
										<logginginfo>
											<scene/>
											<shottake/>
											<lognote/>
											<good>FALSE</good>
										</logginginfo>
										<labels>
											<label>Good Take</label>
											<label2/>
										</labels>
										<comments>
											<mastercomment1/>
											<mastercomment2/>
											<mastercomment3/>
											<mastercomment4/>
										</comments>
										<media>
											<video>
												<track>
													<clipitem id="CC0001_01 11">
														<name>CC0001_01</name>
														<duration>478461</duration>
														<rate>
															<ntsc>TRUE</ntsc>
															<timebase>24</timebase>
														</rate>
														<in>0</in>
														<out>478461</out>
														<start>0</start>
														<end>478461</end>
														<pixelaspectratio>Square</pixelaspectratio>
														<anamorphic>FALSE</anamorphic>
														<alphatype>none</alphatype>
														<masterclipid>CC0001_01 1</masterclipid>
														<syncoffset>0</syncoffset>
														<logginginfo>
															<scene/>
															<shottake/>
															<lognote/>
															<good>FALSE</good>
														</logginginfo>
														<labels>
															<label>Good Take</label>
															<label2/>
														</labels>
														<comments>
															<mastercomment1/>
															<mastercomment2/>
															<mastercomment3/>
															<mastercomment4/>
														</comments>
														<file id="CC0001_01 3"/>
														<sourcetrack>
															<mediatype>video</mediatype>
														</sourcetrack>
														<link>
															<linkclipref>CC0001_01 11</linkclipref>
															<mediatype>video</mediatype>
															<trackindex>1</trackindex>
															<clipindex>1</clipindex>
														</link>
														<link>
															<linkclipref>CC0001_01 12</linkclipref>
															<mediatype>audio</mediatype>
															<trackindex>1</trackindex>
															<clipindex>1</clipindex>
														</link>
														<link>
															<linkclipref>CC0001_01 13</linkclipref>
															<mediatype>audio</mediatype>
															<trackindex>2</trackindex>
															<clipindex>1</clipindex>
														</link>
														<fielddominance>none</fielddominance>
														<itemhistory>
															<uuid>B5A3BE5E-EB19-4402-BE17-54B6D9F0E46D</uuid>
														</itemhistory>
													</clipitem>
													<enabled>TRUE</enabled>
													<locked>FALSE</locked>
												</track>
											</video>
											<audio>
												<in>-1</in>
												<out>-1</out>
												<track>
													<clipitem id="CC0001_01 12">
														<name>CC0001_01</name>
														<duration>478461</duration>
														<rate>
															<ntsc>TRUE</ntsc>
															<timebase>24</timebase>
														</rate>
														<in>0</in>
														<out>478461</out>
														<start>0</start>
														<end>478461</end>
														<subframeoffset>0</subframeoffset>
														<anamorphic>FALSE</anamorphic>
														<masterclipid>CC0001_01 1</masterclipid>
														<syncoffset>0</syncoffset>
														<logginginfo>
															<scene/>
															<shottake/>
															<lognote/>
															<good>FALSE</good>
														</logginginfo>
														<labels>
															<label>Good Take</label>
															<label2/>
														</labels>
														<comments>
															<mastercomment1/>
															<mastercomment2/>
															<mastercomment3/>
															<mastercomment4/>
														</comments>
														<file id="CC0001_01 3"/>
														<filter>
															<effect>
																<name>Audio Levels</name>
																<effectid>audiolevels</effectid>
																<effectcategory>audiolevels</effectcategory>
																<effecttype>audiolevels</effecttype>
																<mediatype>audio</mediatype>
																<parameter>
																	<name>Level</name>
																	<parameterid>level</parameterid>
																	<valuemin>0</valuemin>
																	<valuemax>3.98109</valuemax>
																	<value>1</value>
																</parameter>
															</effect>
														</filter>
														<filter>
															<effect>
																<name>Audio Pan</name>
																<effectid>audiopan</effectid>
																<effectcategory>audiopan</effectcategory>
																<effecttype>audiopan</effecttype>
																<mediatype>audio</mediatype>
																<parameter>
																	<name>Pan</name>
																	<parameterid>pan</parameterid>
																	<valuemin>-1</valuemin>
																	<valuemax>1</valuemax>
																	<value>0</value>
																</parameter>
															</effect>
														</filter>
														<sourcetrack>
															<mediatype>audio</mediatype>
															<trackindex>1</trackindex>
														</sourcetrack>
														<link>
															<linkclipref>CC0001_01 11</linkclipref>
															<mediatype>video</mediatype>
															<trackindex>1</trackindex>
															<clipindex>1</clipindex>
														</link>
														<link>
															<linkclipref>CC0001_01 12</linkclipref>
															<mediatype>audio</mediatype>
															<trackindex>1</trackindex>
															<clipindex>1</clipindex>
														</link>
														<link>
															<linkclipref>CC0001_01 13</linkclipref>
															<mediatype>audio</mediatype>
															<trackindex>2</trackindex>
															<clipindex>1</clipindex>
														</link>
														<itemhistory>
															<uuid>7A31518C-78C4-465D-B3C2-60B3D5E9A15A</uuid>
														</itemhistory>
													</clipitem>
													<enabled>TRUE</enabled>
													<locked>FALSE</locked>
												</track>
												<track>
													<clipitem id="CC0001_01 13">
														<name>CC0001_01</name>
														<duration>478461</duration>
														<rate>
															<ntsc>TRUE</ntsc>
															<timebase>24</timebase>
														</rate>
														<in>0</in>
														<out>478461</out>
														<start>0</start>
														<end>478461</end>
														<subframeoffset>0</subframeoffset>
														<anamorphic>FALSE</anamorphic>
														<masterclipid>CC0001_01 1</masterclipid>
														<syncoffset>0</syncoffset>
														<logginginfo>
															<scene/>
															<shottake/>
															<lognote/>
															<good>FALSE</good>
														</logginginfo>
														<labels>
															<label>Good Take</label>
															<label2/>
														</labels>
														<comments>
															<mastercomment1/>
															<mastercomment2/>
															<mastercomment3/>
															<mastercomment4/>
														</comments>
														<file id="CC0001_01 3"/>
														<filter>
															<effect>
																<name>Audio Levels</name>
																<effectid>audiolevels</effectid>
																<effectcategory>audiolevels</effectcategory>
																<effecttype>audiolevels</effecttype>
																<mediatype>audio</mediatype>
																<parameter>
																	<name>Level</name>
																	<parameterid>level</parameterid>
																	<valuemin>0</valuemin>
																	<valuemax>3.98109</valuemax>
																	<value>1</value>
																</parameter>
															</effect>
														</filter>
														<filter>
															<effect>
																<name>Audio Pan</name>
																<effectid>audiopan</effectid>
																<effectcategory>audiopan</effectcategory>
																<effecttype>audiopan</effecttype>
																<mediatype>audio</mediatype>
																<parameter>
																	<name>Pan</name>
																	<parameterid>pan</parameterid>
																	<valuemin>-1</valuemin>
																	<valuemax>1</valuemax>
																	<value>0</value>
																</parameter>
															</effect>
														</filter>
														<sourcetrack>
															<mediatype>audio</mediatype>
															<trackindex>2</trackindex>
														</sourcetrack>
														<link>
															<linkclipref>CC0001_01 11</linkclipref>
															<mediatype>video</mediatype>
															<trackindex>1</trackindex>
															<clipindex>1</clipindex>
														</link>
														<link>
															<linkclipref>CC0001_01 12</linkclipref>
															<mediatype>audio</mediatype>
															<trackindex>1</trackindex>
															<clipindex>1</clipindex>
														</link>
														<link>
															<linkclipref>CC0001_01 13</linkclipref>
															<mediatype>audio</mediatype>
															<trackindex>2</trackindex>
															<clipindex>1</clipindex>
														</link>
														<itemhistory>
															<uuid>9B357045-4D18-43C8-BBAD-6E571CDAC5E7</uuid>
														</itemhistory>
													</clipitem>
													<enabled>TRUE</enabled>
													<locked>FALSE</locked>
												</track>
												<filter>
													<effect>
														<name>Audio Levels</name>
														<effectid>audiolevels</effectid>
														<effectcategory>audiolevels</effectcategory>
														<effecttype>audiolevels</effecttype>
														<mediatype>audio</mediatype>
														<parameter>
															<name>Level</name>
															<parameterid>level</parameterid>
															<valuemin>0</valuemin>
															<valuemax>3.98109</valuemax>
															<value>1</value>
														</parameter>
													</effect>
												</filter>
											</audio>
										</media>
									</clip>
								</angle>
								<angle>
									<clip id="CC0002_01 6">
										<uuid>57BCB80F-5E42-4829-9E2C-9B1AE0A948C9</uuid>
										<updatebehavior>add</updatebehavior>
										<name>CC0002_01</name>
										<duration>478461</duration>
										<rate>
											<ntsc>TRUE</ntsc>
											<timebase>24</timebase>
										</rate>
										<in>-1</in>
										<out>-1</out>
										<anamorphic>FALSE</anamorphic>
										<masterclipid>CC0002_01 1</masterclipid>
										<ismasterclip>FALSE</ismasterclip>
										<logginginfo>
											<scene/>
											<shottake/>
											<lognote/>
											<good>FALSE</good>
										</logginginfo>
										<labels>
											<label>Good Take</label>
											<label2/>
										</labels>
										<comments>
											<mastercomment1/>
											<mastercomment2/>
											<mastercomment3/>
											<mastercomment4/>
										</comments>
										<media>
											<video>
												<track>
													<clipitem id="CC0002_01 7">
														<name>CC0002_01</name>
														<duration>478461</duration>
														<rate>
															<ntsc>TRUE</ntsc>
															<timebase>24</timebase>
														</rate>
														<in>0</in>
														<out>478461</out>
														<start>0</start>
														<end>478461</end>
														<pixelaspectratio>Square</pixelaspectratio>
														<anamorphic>FALSE</anamorphic>
														<alphatype>none</alphatype>
														<masterclipid>CC0002_01 1</masterclipid>
														<syncoffset>0</syncoffset>
														<logginginfo>
															<scene/>
															<shottake/>
															<lognote/>
															<good>FALSE</good>
														</logginginfo>
														<labels>
															<label>Good Take</label>
															<label2/>
														</labels>
														<comments>
															<mastercomment1/>
															<mastercomment2/>
															<mastercomment3/>
															<mastercomment4/>
														</comments>
														<file id="CC0002_01 3"/>
														<sourcetrack>
															<mediatype>video</mediatype>
														</sourcetrack>
														<link>
															<linkclipref>CC0002_01 7</linkclipref>
															<mediatype>video</mediatype>
															<trackindex>1</trackindex>
															<clipindex>1</clipindex>
														</link>
														<link>
															<linkclipref>CC0002_01 8</linkclipref>
															<mediatype>audio</mediatype>
															<trackindex>1</trackindex>
															<clipindex>1</clipindex>
														</link>
														<link>
															<linkclipref>CC0002_01 9</linkclipref>
															<mediatype>audio</mediatype>
															<trackindex>2</trackindex>
															<clipindex>1</clipindex>
														</link>
														<fielddominance>none</fielddominance>
														<mediadelay>11364</mediadelay>
														<itemhistory>
															<uuid>37DD9DD4-AD42-41FD-8ACD-C3F74E011D5E</uuid>
														</itemhistory>
													</clipitem>
													<enabled>TRUE</enabled>
													<locked>FALSE</locked>
												</track>
											</video>
											<audio>
												<in>-1</in>
												<out>-1</out>
												<track>
													<clipitem id="CC0002_01 8">
														<name>CC0002_01</name>
														<duration>478461</duration>
														<rate>
															<ntsc>TRUE</ntsc>
															<timebase>24</timebase>
														</rate>
														<in>0</in>
														<out>478461</out>
														<start>0</start>
														<end>478461</end>
														<subframeoffset>0</subframeoffset>
														<anamorphic>FALSE</anamorphic>
														<masterclipid>CC0002_01 1</masterclipid>
														<syncoffset>0</syncoffset>
														<logginginfo>
															<scene/>
															<shottake/>
															<lognote/>
															<good>FALSE</good>
														</logginginfo>
														<labels>
															<label>Good Take</label>
															<label2/>
														</labels>
														<comments>
															<mastercomment1/>
															<mastercomment2/>
															<mastercomment3/>
															<mastercomment4/>
														</comments>
														<file id="CC0002_01 3"/>
														<filter>
															<effect>
																<name>Audio Levels</name>
																<effectid>audiolevels</effectid>
																<effectcategory>audiolevels</effectcategory>
																<effecttype>audiolevels</effecttype>
																<mediatype>audio</mediatype>
																<parameter>
																	<name>Level</name>
																	<parameterid>level</parameterid>
																	<valuemin>0</valuemin>
																	<valuemax>3.98109</valuemax>
																	<value>1</value>
																</parameter>
															</effect>
														</filter>
														<filter>
															<effect>
																<name>Audio Pan</name>
																<effectid>audiopan</effectid>
																<effectcategory>audiopan</effectcategory>
																<effecttype>audiopan</effecttype>
																<mediatype>audio</mediatype>
																<parameter>
																	<name>Pan</name>
																	<parameterid>pan</parameterid>
																	<valuemin>-1</valuemin>
																	<valuemax>1</valuemax>
																	<value>0</value>
																</parameter>
															</effect>
														</filter>
														<sourcetrack>
															<mediatype>audio</mediatype>
															<trackindex>1</trackindex>
														</sourcetrack>
														<link>
															<linkclipref>CC0002_01 7</linkclipref>
															<mediatype>video</mediatype>
															<trackindex>1</trackindex>
															<clipindex>1</clipindex>
														</link>
														<link>
															<linkclipref>CC0002_01 8</linkclipref>
															<mediatype>audio</mediatype>
															<trackindex>1</trackindex>
															<clipindex>1</clipindex>
														</link>
														<link>
															<linkclipref>CC0002_01 9</linkclipref>
															<mediatype>audio</mediatype>
															<trackindex>2</trackindex>
															<clipindex>1</clipindex>
														</link>
														<mediadelay>11364</mediadelay>
														<itemhistory>
															<uuid>3E82B3D1-8D54-433C-BE84-9C98F48804FA</uuid>
														</itemhistory>
													</clipitem>
													<enabled>TRUE</enabled>
													<locked>FALSE</locked>
												</track>
												<track>
													<clipitem id="CC0002_01 9">
														<name>CC0002_01</name>
														<duration>478461</duration>
														<rate>
															<ntsc>TRUE</ntsc>
															<timebase>24</timebase>
														</rate>
														<in>0</in>
														<out>478461</out>
														<start>0</start>
														<end>478461</end>
														<subframeoffset>0</subframeoffset>
														<anamorphic>FALSE</anamorphic>
														<masterclipid>CC0002_01 1</masterclipid>
														<syncoffset>0</syncoffset>
														<logginginfo>
															<scene/>
															<shottake/>
															<lognote/>
															<good>FALSE</good>
														</logginginfo>
														<labels>
															<label>Good Take</label>
															<label2/>
														</labels>
														<comments>
															<mastercomment1/>
															<mastercomment2/>
															<mastercomment3/>
															<mastercomment4/>
														</comments>
														<file id="CC0002_01 3"/>
														<filter>
															<effect>
																<name>Audio Levels</name>
																<effectid>audiolevels</effectid>
																<effectcategory>audiolevels</effectcategory>
																<effecttype>audiolevels</effecttype>
																<mediatype>audio</mediatype>
																<parameter>
																	<name>Level</name>
																	<parameterid>level</parameterid>
																	<valuemin>0</valuemin>
																	<valuemax>3.98109</valuemax>
																	<value>1</value>
																</parameter>
															</effect>
														</filter>
														<filter>
															<effect>
																<name>Audio Pan</name>
																<effectid>audiopan</effectid>
																<effectcategory>audiopan</effectcategory>
																<effecttype>audiopan</effecttype>
																<mediatype>audio</mediatype>
																<parameter>
																	<name>Pan</name>
																	<parameterid>pan</parameterid>
																	<valuemin>-1</valuemin>
																	<valuemax>1</valuemax>
																	<value>0</value>
																</parameter>
															</effect>
														</filter>
														<sourcetrack>
															<mediatype>audio</mediatype>
															<trackindex>2</trackindex>
														</sourcetrack>
														<link>
															<linkclipref>CC0002_01 7</linkclipref>
															<mediatype>video</mediatype>
															<trackindex>1</trackindex>
															<clipindex>1</clipindex>
														</link>
														<link>
															<linkclipref>CC0002_01 8</linkclipref>
															<mediatype>audio</mediatype>
															<trackindex>1</trackindex>
															<clipindex>1</clipindex>
														</link>
														<link>
															<linkclipref>CC0002_01 9</linkclipref>
															<mediatype>audio</mediatype>
															<trackindex>2</trackindex>
															<clipindex>1</clipindex>
														</link>
														<mediadelay>11364</mediadelay>
														<itemhistory>
															<uuid>B9DC1A22-3EF5-4C4F-9E7F-3F42316CF755</uuid>
														</itemhistory>
													</clipitem>
													<enabled>TRUE</enabled>
													<locked>FALSE</locked>
												</track>
												<filter>
													<effect>
														<name>Audio Levels</name>
														<effectid>audiolevels</effectid>
														<effectcategory>audiolevels</effectcategory>
														<effecttype>audiolevels</effecttype>
														<mediatype>audio</mediatype>
														<parameter>
															<name>Level</name>
															<parameterid>level</parameterid>
															<valuemin>0</valuemin>
															<valuemax>3.98109</valuemax>
															<value>1</value>
														</parameter>
													</effect>
												</filter>
											</audio>
										</media>
									</clip>
								</angle>
								<angle>
									<clip id="CC0003_01 6">
										<uuid>361591F5-00A3-4D28-A810-F202D3161326</uuid>
										<updatebehavior>add</updatebehavior>
										<name>CC0003_01</name>
										<duration>478461</duration>
										<rate>
											<ntsc>TRUE</ntsc>
											<timebase>24</timebase>
										</rate>
										<in>-1</in>
										<out>-1</out>
										<anamorphic>FALSE</anamorphic>
										<masterclipid>CC0003_01 1</masterclipid>
										<ismasterclip>FALSE</ismasterclip>
										<logginginfo>
											<scene/>
											<shottake/>
											<lognote/>
											<good>FALSE</good>
										</logginginfo>
										<labels>
											<label>Good Take</label>
											<label2/>
										</labels>
										<comments>
											<mastercomment1/>
											<mastercomment2/>
											<mastercomment3/>
											<mastercomment4/>
										</comments>
										<media>
											<video>
												<track>
													<clipitem id="CC0003_01 7">
														<name>CC0003_01</name>
														<duration>478461</duration>
														<rate>
															<ntsc>TRUE</ntsc>
															<timebase>24</timebase>
														</rate>
														<in>0</in>
														<out>478461</out>
														<start>0</start>
														<end>478461</end>
														<pixelaspectratio>Square</pixelaspectratio>
														<anamorphic>FALSE</anamorphic>
														<alphatype>none</alphatype>
														<masterclipid>CC0003_01 1</masterclipid>
														<syncoffset>0</syncoffset>
														<logginginfo>
															<scene/>
															<shottake/>
															<lognote/>
															<good>FALSE</good>
														</logginginfo>
														<labels>
															<label>Good Take</label>
															<label2/>
														</labels>
														<comments>
															<mastercomment1/>
															<mastercomment2/>
															<mastercomment3/>
															<mastercomment4/>
														</comments>
														<file id="CC0003_01 3"/>
														<sourcetrack>
															<mediatype>video</mediatype>
														</sourcetrack>
														<link>
															<linkclipref>CC0003_01 7</linkclipref>
															<mediatype>video</mediatype>
															<trackindex>1</trackindex>
															<clipindex>1</clipindex>
														</link>
														<link>
															<linkclipref>CC0003_01 8</linkclipref>
															<mediatype>audio</mediatype>
															<trackindex>1</trackindex>
															<clipindex>1</clipindex>
														</link>
														<link>
															<linkclipref>CC0003_01 9</linkclipref>
															<mediatype>audio</mediatype>
															<trackindex>2</trackindex>
															<clipindex>1</clipindex>
														</link>
														<fielddominance>none</fielddominance>
														<mediadelay>38299</mediadelay>
														<itemhistory>
															<uuid>0839262C-07D0-4BF6-87D3-4D568E02D958</uuid>
														</itemhistory>
													</clipitem>
													<enabled>TRUE</enabled>
													<locked>FALSE</locked>
												</track>
											</video>
											<audio>
												<in>-1</in>
												<out>-1</out>
												<track>
													<clipitem id="CC0003_01 8">
														<name>CC0003_01</name>
														<duration>478461</duration>
														<rate>
															<ntsc>TRUE</ntsc>
															<timebase>24</timebase>
														</rate>
														<in>0</in>
														<out>478461</out>
														<start>0</start>
														<end>478461</end>
														<subframeoffset>0</subframeoffset>
														<anamorphic>FALSE</anamorphic>
														<masterclipid>CC0003_01 1</masterclipid>
														<syncoffset>0</syncoffset>
														<logginginfo>
															<scene/>
															<shottake/>
															<lognote/>
															<good>FALSE</good>
														</logginginfo>
														<labels>
															<label>Good Take</label>
															<label2/>
														</labels>
														<comments>
															<mastercomment1/>
															<mastercomment2/>
															<mastercomment3/>
															<mastercomment4/>
														</comments>
														<file id="CC0003_01 3"/>
														<filter>
															<effect>
																<name>Audio Levels</name>
																<effectid>audiolevels</effectid>
																<effectcategory>audiolevels</effectcategory>
																<effecttype>audiolevels</effecttype>
																<mediatype>audio</mediatype>
																<parameter>
																	<name>Level</name>
																	<parameterid>level</parameterid>
																	<valuemin>0</valuemin>
																	<valuemax>3.98109</valuemax>
																	<value>1</value>
																</parameter>
															</effect>
														</filter>
														<filter>
															<effect>
																<name>Audio Pan</name>
																<effectid>audiopan</effectid>
																<effectcategory>audiopan</effectcategory>
																<effecttype>audiopan</effecttype>
																<mediatype>audio</mediatype>
																<parameter>
																	<name>Pan</name>
																	<parameterid>pan</parameterid>
																	<valuemin>-1</valuemin>
																	<valuemax>1</valuemax>
																	<value>0</value>
																</parameter>
															</effect>
														</filter>
														<sourcetrack>
															<mediatype>audio</mediatype>
															<trackindex>1</trackindex>
														</sourcetrack>
														<link>
															<linkclipref>CC0003_01 7</linkclipref>
															<mediatype>video</mediatype>
															<trackindex>1</trackindex>
															<clipindex>1</clipindex>
														</link>
														<link>
															<linkclipref>CC0003_01 8</linkclipref>
															<mediatype>audio</mediatype>
															<trackindex>1</trackindex>
															<clipindex>1</clipindex>
														</link>
														<link>
															<linkclipref>CC0003_01 9</linkclipref>
															<mediatype>audio</mediatype>
															<trackindex>2</trackindex>
															<clipindex>1</clipindex>
														</link>
														<mediadelay>38299</mediadelay>
														<itemhistory>
															<uuid>913ADD8C-E255-40EC-AA7C-247320D35C14</uuid>
														</itemhistory>
													</clipitem>
													<enabled>TRUE</enabled>
													<locked>FALSE</locked>
												</track>
												<track>
													<clipitem id="CC0003_01 9">
														<name>CC0003_01</name>
														<duration>478461</duration>
														<rate>
															<ntsc>TRUE</ntsc>
															<timebase>24</timebase>
														</rate>
														<in>0</in>
														<out>478461</out>
														<start>0</start>
														<end>478461</end>
														<subframeoffset>0</subframeoffset>
														<anamorphic>FALSE</anamorphic>
														<masterclipid>CC0003_01 1</masterclipid>
														<syncoffset>0</syncoffset>
														<logginginfo>
															<scene/>
															<shottake/>
															<lognote/>
															<good>FALSE</good>
														</logginginfo>
														<labels>
															<label>Good Take</label>
															<label2/>
														</labels>
														<comments>
															<mastercomment1/>
															<mastercomment2/>
															<mastercomment3/>
															<mastercomment4/>
														</comments>
														<file id="CC0003_01 3"/>
														<filter>
															<effect>
																<name>Audio Levels</name>
																<effectid>audiolevels</effectid>
																<effectcategory>audiolevels</effectcategory>
																<effecttype>audiolevels</effecttype>
																<mediatype>audio</mediatype>
																<parameter>
																	<name>Level</name>
																	<parameterid>level</parameterid>
																	<valuemin>0</valuemin>
																	<valuemax>3.98109</valuemax>
																	<value>1</value>
																</parameter>
															</effect>
														</filter>
														<filter>
															<effect>
																<name>Audio Pan</name>
																<effectid>audiopan</effectid>
																<effectcategory>audiopan</effectcategory>
																<effecttype>audiopan</effecttype>
																<mediatype>audio</mediatype>
																<parameter>
																	<name>Pan</name>
																	<parameterid>pan</parameterid>
																	<valuemin>-1</valuemin>
																	<valuemax>1</valuemax>
																	<value>0</value>
																</parameter>
															</effect>
														</filter>
														<sourcetrack>
															<mediatype>audio</mediatype>
															<trackindex>2</trackindex>
														</sourcetrack>
														<link>
															<linkclipref>CC0003_01 7</linkclipref>
															<mediatype>video</mediatype>
															<trackindex>1</trackindex>
															<clipindex>1</clipindex>
														</link>
														<link>
															<linkclipref>CC0003_01 8</linkclipref>
															<mediatype>audio</mediatype>
															<trackindex>1</trackindex>
															<clipindex>1</clipindex>
														</link>
														<link>
															<linkclipref>CC0003_01 9</linkclipref>
															<mediatype>audio</mediatype>
															<trackindex>2</trackindex>
															<clipindex>1</clipindex>
														</link>
														<mediadelay>38299</mediadelay>
														<itemhistory>
															<uuid>C6AC23D3-B9EC-40A2-B724-6D975CED1B47</uuid>
														</itemhistory>
													</clipitem>
													<enabled>TRUE</enabled>
													<locked>FALSE</locked>
												</track>
												<filter>
													<effect>
														<name>Audio Levels</name>
														<effectid>audiolevels</effectid>
														<effectcategory>audiolevels</effectcategory>
														<effecttype>audiolevels</effecttype>
														<mediatype>audio</mediatype>
														<parameter>
															<name>Level</name>
															<parameterid>level</parameterid>
															<valuemin>0</valuemin>
															<valuemax>3.98109</valuemax>
															<value>1</value>
														</parameter>
													</effect>
												</filter>
											</audio>
										</media>
									</clip>
								</angle>
								<angle>
									<clip id="CC0004_01 6">
										<uuid>F9C1308F-EE47-4D27-8F5F-EC4E00221FAC</uuid>
										<updatebehavior>add</updatebehavior>
										<name>CC0004_01</name>
										<duration>478461</duration>
										<rate>
											<ntsc>TRUE</ntsc>
											<timebase>24</timebase>
										</rate>
										<in>-1</in>
										<out>-1</out>
										<anamorphic>FALSE</anamorphic>
										<masterclipid>CC0004_01 1</masterclipid>
										<ismasterclip>FALSE</ismasterclip>
										<logginginfo>
											<scene/>
											<shottake/>
											<lognote/>
											<good>FALSE</good>
										</logginginfo>
										<labels>
											<label>Good Take</label>
											<label2/>
										</labels>
										<comments>
											<mastercomment1/>
											<mastercomment2/>
											<mastercomment3/>
											<mastercomment4/>
										</comments>
										<media>
											<video>
												<track>
													<clipitem id="CC0004_01 7">
														<name>CC0004_01</name>
														<duration>478461</duration>
														<rate>
															<ntsc>TRUE</ntsc>
															<timebase>24</timebase>
														</rate>
														<in>0</in>
														<out>478461</out>
														<start>0</start>
														<end>478461</end>
														<pixelaspectratio>Square</pixelaspectratio>
														<anamorphic>FALSE</anamorphic>
														<alphatype>none</alphatype>
														<masterclipid>CC0004_01 1</masterclipid>
														<syncoffset>0</syncoffset>
														<logginginfo>
															<scene/>
															<shottake/>
															<lognote/>
															<good>FALSE</good>
														</logginginfo>
														<labels>
															<label>Good Take</label>
															<label2/>
														</labels>
														<comments>
															<mastercomment1/>
															<mastercomment2/>
															<mastercomment3/>
															<mastercomment4/>
														</comments>
														<file id="CC0004_01 3"/>
														<sourcetrack>
															<mediatype>video</mediatype>
														</sourcetrack>
														<link>
															<linkclipref>CC0004_01 7</linkclipref>
															<mediatype>video</mediatype>
															<trackindex>1</trackindex>
															<clipindex>1</clipindex>
														</link>
														<link>
															<linkclipref>CC0004_01 8</linkclipref>
															<mediatype>audio</mediatype>
															<trackindex>1</trackindex>
															<clipindex>1</clipindex>
														</link>
														<link>
															<linkclipref>CC0004_01 9</linkclipref>
															<mediatype>audio</mediatype>
															<trackindex>2</trackindex>
															<clipindex>1</clipindex>
														</link>
														<fielddominance>none</fielddominance>
														<mediadelay>61271</mediadelay>
														<itemhistory>
															<uuid>51981674-81E1-42E9-97A8-7E2DEC5CD053</uuid>
														</itemhistory>
													</clipitem>
													<enabled>TRUE</enabled>
													<locked>FALSE</locked>
												</track>
											</video>
											<audio>
												<in>-1</in>
												<out>-1</out>
												<track>
													<clipitem id="CC0004_01 8">
														<name>CC0004_01</name>
														<duration>478461</duration>
														<rate>
															<ntsc>TRUE</ntsc>
															<timebase>24</timebase>
														</rate>
														<in>0</in>
														<out>478461</out>
														<start>0</start>
														<end>478461</end>
														<subframeoffset>0</subframeoffset>
														<anamorphic>FALSE</anamorphic>
														<masterclipid>CC0004_01 1</masterclipid>
														<syncoffset>0</syncoffset>
														<logginginfo>
															<scene/>
															<shottake/>
															<lognote/>
															<good>FALSE</good>
														</logginginfo>
														<labels>
															<label>Good Take</label>
															<label2/>
														</labels>
														<comments>
															<mastercomment1/>
															<mastercomment2/>
															<mastercomment3/>
															<mastercomment4/>
														</comments>
														<file id="CC0004_01 3"/>
														<filter>
															<effect>
																<name>Audio Levels</name>
																<effectid>audiolevels</effectid>
																<effectcategory>audiolevels</effectcategory>
																<effecttype>audiolevels</effecttype>
																<mediatype>audio</mediatype>
																<parameter>
																	<name>Level</name>
																	<parameterid>level</parameterid>
																	<valuemin>0</valuemin>
																	<valuemax>3.98109</valuemax>
																	<value>1</value>
																</parameter>
															</effect>
														</filter>
														<filter>
															<effect>
																<name>Audio Pan</name>
																<effectid>audiopan</effectid>
																<effectcategory>audiopan</effectcategory>
																<effecttype>audiopan</effecttype>
																<mediatype>audio</mediatype>
																<parameter>
																	<name>Pan</name>
																	<parameterid>pan</parameterid>
																	<valuemin>-1</valuemin>
																	<valuemax>1</valuemax>
																	<value>0</value>
																</parameter>
															</effect>
														</filter>
														<sourcetrack>
															<mediatype>audio</mediatype>
															<trackindex>1</trackindex>
														</sourcetrack>
														<link>
															<linkclipref>CC0004_01 7</linkclipref>
															<mediatype>video</mediatype>
															<trackindex>1</trackindex>
															<clipindex>1</clipindex>
														</link>
														<link>
															<linkclipref>CC0004_01 8</linkclipref>
															<mediatype>audio</mediatype>
															<trackindex>1</trackindex>
															<clipindex>1</clipindex>
														</link>
														<link>
															<linkclipref>CC0004_01 9</linkclipref>
															<mediatype>audio</mediatype>
															<trackindex>2</trackindex>
															<clipindex>1</clipindex>
														</link>
														<mediadelay>61271</mediadelay>
														<itemhistory>
															<uuid>2F98D08D-C50F-4E9B-8495-712DA67E3753</uuid>
														</itemhistory>
													</clipitem>
													<enabled>TRUE</enabled>
													<locked>FALSE</locked>
												</track>
												<track>
													<clipitem id="CC0004_01 9">
														<name>CC0004_01</name>
														<duration>478461</duration>
														<rate>
															<ntsc>TRUE</ntsc>
															<timebase>24</timebase>
														</rate>
														<in>0</in>
														<out>478461</out>
														<start>0</start>
														<end>478461</end>
														<subframeoffset>0</subframeoffset>
														<anamorphic>FALSE</anamorphic>
														<masterclipid>CC0004_01 1</masterclipid>
														<syncoffset>0</syncoffset>
														<logginginfo>
															<scene/>
															<shottake/>
															<lognote/>
															<good>FALSE</good>
														</logginginfo>
														<labels>
															<label>Good Take</label>
															<label2/>
														</labels>
														<comments>
															<mastercomment1/>
															<mastercomment2/>
															<mastercomment3/>
															<mastercomment4/>
														</comments>
														<file id="CC0004_01 3"/>
														<filter>
															<effect>
																<name>Audio Levels</name>
																<effectid>audiolevels</effectid>
																<effectcategory>audiolevels</effectcategory>
																<effecttype>audiolevels</effecttype>
																<mediatype>audio</mediatype>
																<parameter>
																	<name>Level</name>
																	<parameterid>level</parameterid>
																	<valuemin>0</valuemin>
																	<valuemax>3.98109</valuemax>
																	<value>1</value>
																</parameter>
															</effect>
														</filter>
														<filter>
															<effect>
																<name>Audio Pan</name>
																<effectid>audiopan</effectid>
																<effectcategory>audiopan</effectcategory>
																<effecttype>audiopan</effecttype>
																<mediatype>audio</mediatype>
																<parameter>
																	<name>Pan</name>
																	<parameterid>pan</parameterid>
																	<valuemin>-1</valuemin>
																	<valuemax>1</valuemax>
																	<value>0</value>
																</parameter>
															</effect>
														</filter>
														<sourcetrack>
															<mediatype>audio</mediatype>
															<trackindex>2</trackindex>
														</sourcetrack>
														<link>
															<linkclipref>CC0004_01 7</linkclipref>
															<mediatype>video</mediatype>
															<trackindex>1</trackindex>
															<clipindex>1</clipindex>
														</link>
														<link>
															<linkclipref>CC0004_01 8</linkclipref>
															<mediatype>audio</mediatype>
															<trackindex>1</trackindex>
															<clipindex>1</clipindex>
														</link>
														<link>
															<linkclipref>CC0004_01 9</linkclipref>
															<mediatype>audio</mediatype>
															<trackindex>2</trackindex>
															<clipindex>1</clipindex>
														</link>
														<mediadelay>61271</mediadelay>
														<itemhistory>
															<uuid>97349A5C-C589-423E-B038-D1806BB2FCE5</uuid>
														</itemhistory>
													</clipitem>
													<enabled>TRUE</enabled>
													<locked>FALSE</locked>
												</track>
												<filter>
													<effect>
														<name>Audio Levels</name>
														<effectid>audiolevels</effectid>
														<effectcategory>audiolevels</effectcategory>
														<effecttype>audiolevels</effecttype>
														<mediatype>audio</mediatype>
														<parameter>
															<name>Level</name>
															<parameterid>level</parameterid>
															<valuemin>0</valuemin>
															<valuemax>3.98109</valuemax>
															<value>1</value>
														</parameter>
													</effect>
												</filter>
											</audio>
										</media>
									</clip>
								</angle>
								<angle>
									<clip id="CC0005_01 6">
										<uuid>06567FF3-D8CA-415D-BF69-C32089ECD8C4</uuid>
										<updatebehavior>add</updatebehavior>
										<name>CC0005_01</name>
										<duration>478461</duration>
										<rate>
											<ntsc>TRUE</ntsc>
											<timebase>24</timebase>
										</rate>
										<in>-1</in>
										<out>-1</out>
										<anamorphic>FALSE</anamorphic>
										<masterclipid>CC0005_01 1</masterclipid>
										<ismasterclip>FALSE</ismasterclip>
										<logginginfo>
											<scene/>
											<shottake/>
											<lognote/>
											<good>FALSE</good>
										</logginginfo>
										<labels>
											<label>Good Take</label>
											<label2/>
										</labels>
										<comments>
											<mastercomment1/>
											<mastercomment2/>
											<mastercomment3/>
											<mastercomment4/>
										</comments>
										<media>
											<video>
												<track>
													<clipitem id="CC0005_01 7">
														<name>CC0005_01</name>
														<duration>478461</duration>
														<rate>
															<ntsc>TRUE</ntsc>
															<timebase>24</timebase>
														</rate>
														<in>0</in>
														<out>478461</out>
														<start>0</start>
														<end>478461</end>
														<pixelaspectratio>Square</pixelaspectratio>
														<anamorphic>FALSE</anamorphic>
														<alphatype>none</alphatype>
														<masterclipid>CC0005_01 1</masterclipid>
														<syncoffset>0</syncoffset>
														<logginginfo>
															<scene/>
															<shottake/>
															<lognote/>
															<good>FALSE</good>
														</logginginfo>
														<labels>
															<label>Good Take</label>
															<label2/>
														</labels>
														<comments>
															<mastercomment1/>
															<mastercomment2/>
															<mastercomment3/>
															<mastercomment4/>
														</comments>
														<file id="CC0005_01 3"/>
														<sourcetrack>
															<mediatype>video</mediatype>
														</sourcetrack>
														<link>
															<linkclipref>CC0005_01 7</linkclipref>
															<mediatype>video</mediatype>
															<trackindex>1</trackindex>
															<clipindex>1</clipindex>
														</link>
														<link>
															<linkclipref>CC0005_01 8</linkclipref>
															<mediatype>audio</mediatype>
															<trackindex>1</trackindex>
															<clipindex>1</clipindex>
														</link>
														<link>
															<linkclipref>CC0005_01 9</linkclipref>
															<mediatype>audio</mediatype>
															<trackindex>2</trackindex>
															<clipindex>1</clipindex>
														</link>
														<fielddominance>none</fielddominance>
														<mediadelay>62379</mediadelay>
														<itemhistory>
															<uuid>BAB89787-3F80-429D-941E-3D13DB7B04F9</uuid>
														</itemhistory>
													</clipitem>
													<enabled>TRUE</enabled>
													<locked>FALSE</locked>
												</track>
											</video>
											<audio>
												<in>-1</in>
												<out>-1</out>
												<track>
													<clipitem id="CC0005_01 8">
														<name>CC0005_01</name>
														<duration>478461</duration>
														<rate>
															<ntsc>TRUE</ntsc>
															<timebase>24</timebase>
														</rate>
														<in>0</in>
														<out>478461</out>
														<start>0</start>
														<end>478461</end>
														<subframeoffset>0</subframeoffset>
														<anamorphic>FALSE</anamorphic>
														<masterclipid>CC0005_01 1</masterclipid>
														<syncoffset>0</syncoffset>
														<logginginfo>
															<scene/>
															<shottake/>
															<lognote/>
															<good>FALSE</good>
														</logginginfo>
														<labels>
															<label>Good Take</label>
															<label2/>
														</labels>
														<comments>
															<mastercomment1/>
															<mastercomment2/>
															<mastercomment3/>
															<mastercomment4/>
														</comments>
														<file id="CC0005_01 3"/>
														<filter>
															<effect>
																<name>Audio Levels</name>
																<effectid>audiolevels</effectid>
																<effectcategory>audiolevels</effectcategory>
																<effecttype>audiolevels</effecttype>
																<mediatype>audio</mediatype>
																<parameter>
																	<name>Level</name>
																	<parameterid>level</parameterid>
																	<valuemin>0</valuemin>
																	<valuemax>3.98109</valuemax>
																	<value>1</value>
																</parameter>
															</effect>
														</filter>
														<filter>
															<effect>
																<name>Audio Pan</name>
																<effectid>audiopan</effectid>
																<effectcategory>audiopan</effectcategory>
																<effecttype>audiopan</effecttype>
																<mediatype>audio</mediatype>
																<parameter>
																	<name>Pan</name>
																	<parameterid>pan</parameterid>
																	<valuemin>-1</valuemin>
																	<valuemax>1</valuemax>
																	<value>0</value>
																</parameter>
															</effect>
														</filter>
														<sourcetrack>
															<mediatype>audio</mediatype>
															<trackindex>1</trackindex>
														</sourcetrack>
														<link>
															<linkclipref>CC0005_01 7</linkclipref>
															<mediatype>video</mediatype>
															<trackindex>1</trackindex>
															<clipindex>1</clipindex>
														</link>
														<link>
															<linkclipref>CC0005_01 8</linkclipref>
															<mediatype>audio</mediatype>
															<trackindex>1</trackindex>
															<clipindex>1</clipindex>
														</link>
														<link>
															<linkclipref>CC0005_01 9</linkclipref>
															<mediatype>audio</mediatype>
															<trackindex>2</trackindex>
															<clipindex>1</clipindex>
														</link>
														<mediadelay>62379</mediadelay>
														<itemhistory>
															<uuid>E66B77F3-0928-4C23-8877-1915260EE142</uuid>
														</itemhistory>
													</clipitem>
													<enabled>TRUE</enabled>
													<locked>FALSE</locked>
												</track>
												<track>
													<clipitem id="CC0005_01 9">
														<name>CC0005_01</name>
														<duration>478461</duration>
														<rate>
															<ntsc>TRUE</ntsc>
															<timebase>24</timebase>
														</rate>
														<in>0</in>
														<out>478461</out>
														<start>0</start>
														<end>478461</end>
														<subframeoffset>0</subframeoffset>
														<anamorphic>FALSE</anamorphic>
														<masterclipid>CC0005_01 1</masterclipid>
														<syncoffset>0</syncoffset>
														<logginginfo>
															<scene/>
															<shottake/>
															<lognote/>
															<good>FALSE</good>
														</logginginfo>
														<labels>
															<label>Good Take</label>
															<label2/>
														</labels>
														<comments>
															<mastercomment1/>
															<mastercomment2/>
															<mastercomment3/>
															<mastercomment4/>
														</comments>
														<file id="CC0005_01 3"/>
														<filter>
															<effect>
																<name>Audio Levels</name>
																<effectid>audiolevels</effectid>
																<effectcategory>audiolevels</effectcategory>
																<effecttype>audiolevels</effecttype>
																<mediatype>audio</mediatype>
																<parameter>
																	<name>Level</name>
																	<parameterid>level</parameterid>
																	<valuemin>0</valuemin>
																	<valuemax>3.98109</valuemax>
																	<value>1</value>
																</parameter>
															</effect>
														</filter>
														<filter>
															<effect>
																<name>Audio Pan</name>
																<effectid>audiopan</effectid>
																<effectcategory>audiopan</effectcategory>
																<effecttype>audiopan</effecttype>
																<mediatype>audio</mediatype>
																<parameter>
																	<name>Pan</name>
																	<parameterid>pan</parameterid>
																	<valuemin>-1</valuemin>
																	<valuemax>1</valuemax>
																	<value>0</value>
																</parameter>
															</effect>
														</filter>
														<sourcetrack>
															<mediatype>audio</mediatype>
															<trackindex>2</trackindex>
														</sourcetrack>
														<link>
															<linkclipref>CC0005_01 7</linkclipref>
															<mediatype>video</mediatype>
															<trackindex>1</trackindex>
															<clipindex>1</clipindex>
														</link>
														<link>
															<linkclipref>CC0005_01 8</linkclipref>
															<mediatype>audio</mediatype>
															<trackindex>1</trackindex>
															<clipindex>1</clipindex>
														</link>
														<link>
															<linkclipref>CC0005_01 9</linkclipref>
															<mediatype>audio</mediatype>
															<trackindex>2</trackindex>
															<clipindex>1</clipindex>
														</link>
														<mediadelay>62379</mediadelay>
														<itemhistory>
															<uuid>6E17EC0B-F29C-485F-B337-C8974E5832D0</uuid>
														</itemhistory>
													</clipitem>
													<enabled>TRUE</enabled>
													<locked>FALSE</locked>
												</track>
												<filter>
													<effect>
														<name>Audio Levels</name>
														<effectid>audiolevels</effectid>
														<effectcategory>audiolevels</effectcategory>
														<effecttype>audiolevels</effecttype>
														<mediatype>audio</mediatype>
														<parameter>
															<name>Level</name>
															<parameterid>level</parameterid>
															<valuemin>0</valuemin>
															<valuemax>3.98109</valuemax>
															<value>1</value>
														</parameter>
													</effect>
												</filter>
											</audio>
										</media>
									</clip>
								</angle>
								<angle>
									<clip id="CC0006_01 6">
										<uuid>92D2E505-BEA3-4412-9061-47DF4E8A607C</uuid>
										<updatebehavior>add</updatebehavior>
										<name>CC0006_01</name>
										<duration>478461</duration>
										<rate>
											<ntsc>TRUE</ntsc>
											<timebase>24</timebase>
										</rate>
										<in>-1</in>
										<out>-1</out>
										<anamorphic>FALSE</anamorphic>
										<masterclipid>CC0006_01 1</masterclipid>
										<ismasterclip>FALSE</ismasterclip>
										<logginginfo>
											<scene/>
											<shottake/>
											<lognote/>
											<good>FALSE</good>
										</logginginfo>
										<labels>
											<label>Good Take</label>
											<label2/>
										</labels>
										<comments>
											<mastercomment1/>
											<mastercomment2/>
											<mastercomment3/>
											<mastercomment4/>
										</comments>
										<media>
											<video>
												<track>
													<clipitem id="CC0006_01 7">
														<name>CC0006_01</name>
														<duration>478461</duration>
														<rate>
															<ntsc>TRUE</ntsc>
															<timebase>24</timebase>
														</rate>
														<in>0</in>
														<out>478461</out>
														<start>0</start>
														<end>478461</end>
														<pixelaspectratio>Square</pixelaspectratio>
														<anamorphic>FALSE</anamorphic>
														<alphatype>none</alphatype>
														<masterclipid>CC0006_01 1</masterclipid>
														<syncoffset>0</syncoffset>
														<logginginfo>
															<scene/>
															<shottake/>
															<lognote/>
															<good>FALSE</good>
														</logginginfo>
														<labels>
															<label>Good Take</label>
															<label2/>
														</labels>
														<comments>
															<mastercomment1/>
															<mastercomment2/>
															<mastercomment3/>
															<mastercomment4/>
														</comments>
														<file id="CC0006_01 3"/>
														<sourcetrack>
															<mediatype>video</mediatype>
														</sourcetrack>
														<link>
															<linkclipref>CC0006_01 7</linkclipref>
															<mediatype>video</mediatype>
															<trackindex>1</trackindex>
															<clipindex>1</clipindex>
														</link>
														<link>
															<linkclipref>CC0006_01 8</linkclipref>
															<mediatype>audio</mediatype>
															<trackindex>1</trackindex>
															<clipindex>1</clipindex>
														</link>
														<link>
															<linkclipref>CC0006_01 9</linkclipref>
															<mediatype>audio</mediatype>
															<trackindex>2</trackindex>
															<clipindex>1</clipindex>
														</link>
														<fielddominance>none</fielddominance>
														<mediadelay>67927</mediadelay>
														<itemhistory>
															<uuid>A4A09111-1618-4867-8AF6-1E65F567AF31</uuid>
														</itemhistory>
													</clipitem>
													<enabled>TRUE</enabled>
													<locked>FALSE</locked>
												</track>
											</video>
											<audio>
												<in>-1</in>
												<out>-1</out>
												<track>
													<clipitem id="CC0006_01 8">
														<name>CC0006_01</name>
														<duration>478461</duration>
														<rate>
															<ntsc>TRUE</ntsc>
															<timebase>24</timebase>
														</rate>
														<in>0</in>
														<out>478461</out>
														<start>0</start>
														<end>478461</end>
														<subframeoffset>0</subframeoffset>
														<anamorphic>FALSE</anamorphic>
														<masterclipid>CC0006_01 1</masterclipid>
														<syncoffset>0</syncoffset>
														<logginginfo>
															<scene/>
															<shottake/>
															<lognote/>
															<good>FALSE</good>
														</logginginfo>
														<labels>
															<label>Good Take</label>
															<label2/>
														</labels>
														<comments>
															<mastercomment1/>
															<mastercomment2/>
															<mastercomment3/>
															<mastercomment4/>
														</comments>
														<file id="CC0006_01 3"/>
														<filter>
															<effect>
																<name>Audio Levels</name>
																<effectid>audiolevels</effectid>
																<effectcategory>audiolevels</effectcategory>
																<effecttype>audiolevels</effecttype>
																<mediatype>audio</mediatype>
																<parameter>
																	<name>Level</name>
																	<parameterid>level</parameterid>
																	<valuemin>0</valuemin>
																	<valuemax>3.98109</valuemax>
																	<value>1</value>
																</parameter>
															</effect>
														</filter>
														<filter>
															<effect>
																<name>Audio Pan</name>
																<effectid>audiopan</effectid>
																<effectcategory>audiopan</effectcategory>
																<effecttype>audiopan</effecttype>
																<mediatype>audio</mediatype>
																<parameter>
																	<name>Pan</name>
																	<parameterid>pan</parameterid>
																	<valuemin>-1</valuemin>
																	<valuemax>1</valuemax>
																	<value>0</value>
																</parameter>
															</effect>
														</filter>
														<sourcetrack>
															<mediatype>audio</mediatype>
															<trackindex>1</trackindex>
														</sourcetrack>
														<link>
															<linkclipref>CC0006_01 7</linkclipref>
															<mediatype>video</mediatype>
															<trackindex>1</trackindex>
															<clipindex>1</clipindex>
														</link>
														<link>
															<linkclipref>CC0006_01 8</linkclipref>
															<mediatype>audio</mediatype>
															<trackindex>1</trackindex>
															<clipindex>1</clipindex>
														</link>
														<link>
															<linkclipref>CC0006_01 9</linkclipref>
															<mediatype>audio</mediatype>
															<trackindex>2</trackindex>
															<clipindex>1</clipindex>
														</link>
														<mediadelay>67927</mediadelay>
														<itemhistory>
															<uuid>4D89D5A4-F640-446C-8A13-834CE7CFB0AA</uuid>
														</itemhistory>
													</clipitem>
													<enabled>TRUE</enabled>
													<locked>FALSE</locked>
												</track>
												<track>
													<clipitem id="CC0006_01 9">
														<name>CC0006_01</name>
														<duration>478461</duration>
														<rate>
															<ntsc>TRUE</ntsc>
															<timebase>24</timebase>
														</rate>
														<in>0</in>
														<out>478461</out>
														<start>0</start>
														<end>478461</end>
														<subframeoffset>0</subframeoffset>
														<anamorphic>FALSE</anamorphic>
														<masterclipid>CC0006_01 1</masterclipid>
														<syncoffset>0</syncoffset>
														<logginginfo>
															<scene/>
															<shottake/>
															<lognote/>
															<good>FALSE</good>
														</logginginfo>
														<labels>
															<label>Good Take</label>
															<label2/>
														</labels>
														<comments>
															<mastercomment1/>
															<mastercomment2/>
															<mastercomment3/>
															<mastercomment4/>
														</comments>
														<file id="CC0006_01 3"/>
														<filter>
															<effect>
																<name>Audio Levels</name>
																<effectid>audiolevels</effectid>
																<effectcategory>audiolevels</effectcategory>
																<effecttype>audiolevels</effecttype>
																<mediatype>audio</mediatype>
																<parameter>
																	<name>Level</name>
																	<parameterid>level</parameterid>
																	<valuemin>0</valuemin>
																	<valuemax>3.98109</valuemax>
																	<value>1</value>
																</parameter>
															</effect>
														</filter>
														<filter>
															<effect>
																<name>Audio Pan</name>
																<effectid>audiopan</effectid>
																<effectcategory>audiopan</effectcategory>
																<effecttype>audiopan</effecttype>
																<mediatype>audio</mediatype>
																<parameter>
																	<name>Pan</name>
																	<parameterid>pan</parameterid>
																	<valuemin>-1</valuemin>
																	<valuemax>1</valuemax>
																	<value>0</value>
																</parameter>
															</effect>
														</filter>
														<sourcetrack>
															<mediatype>audio</mediatype>
															<trackindex>2</trackindex>
														</sourcetrack>
														<link>
															<linkclipref>CC0006_01 7</linkclipref>
															<mediatype>video</mediatype>
															<trackindex>1</trackindex>
															<clipindex>1</clipindex>
														</link>
														<link>
															<linkclipref>CC0006_01 8</linkclipref>
															<mediatype>audio</mediatype>
															<trackindex>1</trackindex>
															<clipindex>1</clipindex>
														</link>
														<link>
															<linkclipref>CC0006_01 9</linkclipref>
															<mediatype>audio</mediatype>
															<trackindex>2</trackindex>
															<clipindex>1</clipindex>
														</link>
														<mediadelay>67927</mediadelay>
														<itemhistory>
															<uuid>4358CC68-273E-4097-B71E-25D63538E4D6</uuid>
														</itemhistory>
													</clipitem>
													<enabled>TRUE</enabled>
													<locked>FALSE</locked>
												</track>
												<filter>
													<effect>
														<name>Audio Levels</name>
														<effectid>audiolevels</effectid>
														<effectcategory>audiolevels</effectcategory>
														<effecttype>audiolevels</effecttype>
														<mediatype>audio</mediatype>
														<parameter>
															<name>Level</name>
															<parameterid>level</parameterid>
															<valuemin>0</valuemin>
															<valuemax>3.98109</valuemax>
															<value>1</value>
														</parameter>
													</effect>
												</filter>
											</audio>
										</media>
									</clip>
								</angle>
								<angle>
									<clip id="CC0007_01 6">
										<uuid>02B99BFB-5530-4EC0-A3EE-3B4D8E994566</uuid>
										<updatebehavior>add</updatebehavior>
										<name>CC0007_01</name>
										<duration>478461</duration>
										<rate>
											<ntsc>TRUE</ntsc>
											<timebase>24</timebase>
										</rate>
										<in>-1</in>
										<out>-1</out>
										<anamorphic>FALSE</anamorphic>
										<masterclipid>CC0007_01 1</masterclipid>
										<ismasterclip>FALSE</ismasterclip>
										<logginginfo>
											<scene/>
											<shottake/>
											<lognote/>
											<good>FALSE</good>
										</logginginfo>
										<labels>
											<label>Good Take</label>
											<label2/>
										</labels>
										<comments>
											<mastercomment1/>
											<mastercomment2/>
											<mastercomment3/>
											<mastercomment4/>
										</comments>
										<media>
											<video>
												<track>
													<clipitem id="CC0007_01 7">
														<name>CC0007_01</name>
														<duration>478461</duration>
														<rate>
															<ntsc>TRUE</ntsc>
															<timebase>24</timebase>
														</rate>
														<in>0</in>
														<out>478461</out>
														<start>0</start>
														<end>478461</end>
														<pixelaspectratio>Square</pixelaspectratio>
														<anamorphic>FALSE</anamorphic>
														<alphatype>none</alphatype>
														<masterclipid>CC0007_01 1</masterclipid>
														<syncoffset>0</syncoffset>
														<logginginfo>
															<scene/>
															<shottake/>
															<lognote/>
															<good>FALSE</good>
														</logginginfo>
														<labels>
															<label>Good Take</label>
															<label2/>
														</labels>
														<comments>
															<mastercomment1/>
															<mastercomment2/>
															<mastercomment3/>
															<mastercomment4/>
														</comments>
														<file id="CC0007_01 3"/>
														<sourcetrack>
															<mediatype>video</mediatype>
														</sourcetrack>
														<link>
															<linkclipref>CC0007_01 7</linkclipref>
															<mediatype>video</mediatype>
															<trackindex>1</trackindex>
															<clipindex>1</clipindex>
														</link>
														<link>
															<linkclipref>CC0007_01 8</linkclipref>
															<mediatype>audio</mediatype>
															<trackindex>1</trackindex>
															<clipindex>1</clipindex>
														</link>
														<link>
															<linkclipref>CC0007_01 9</linkclipref>
															<mediatype>audio</mediatype>
															<trackindex>2</trackindex>
															<clipindex>1</clipindex>
														</link>
														<fielddominance>none</fielddominance>
														<mediadelay>72307</mediadelay>
														<itemhistory>
															<uuid>94CDC39D-9446-49AA-B08A-7A73BF0436E9</uuid>
														</itemhistory>
													</clipitem>
													<enabled>TRUE</enabled>
													<locked>FALSE</locked>
												</track>
											</video>
											<audio>
												<in>-1</in>
												<out>-1</out>
												<track>
													<clipitem id="CC0007_01 8">
														<name>CC0007_01</name>
														<duration>478461</duration>
														<rate>
															<ntsc>TRUE</ntsc>
															<timebase>24</timebase>
														</rate>
														<in>0</in>
														<out>478461</out>
														<start>0</start>
														<end>478461</end>
														<subframeoffset>0</subframeoffset>
														<anamorphic>FALSE</anamorphic>
														<masterclipid>CC0007_01 1</masterclipid>
														<syncoffset>0</syncoffset>
														<logginginfo>
															<scene/>
															<shottake/>
															<lognote/>
															<good>FALSE</good>
														</logginginfo>
														<labels>
															<label>Good Take</label>
															<label2/>
														</labels>
														<comments>
															<mastercomment1/>
															<mastercomment2/>
															<mastercomment3/>
															<mastercomment4/>
														</comments>
														<file id="CC0007_01 3"/>
														<filter>
															<effect>
																<name>Audio Levels</name>
																<effectid>audiolevels</effectid>
																<effectcategory>audiolevels</effectcategory>
																<effecttype>audiolevels</effecttype>
																<mediatype>audio</mediatype>
																<parameter>
																	<name>Level</name>
																	<parameterid>level</parameterid>
																	<valuemin>0</valuemin>
																	<valuemax>3.98109</valuemax>
																	<value>1</value>
																</parameter>
															</effect>
														</filter>
														<filter>
															<effect>
																<name>Audio Pan</name>
																<effectid>audiopan</effectid>
																<effectcategory>audiopan</effectcategory>
																<effecttype>audiopan</effecttype>
																<mediatype>audio</mediatype>
																<parameter>
																	<name>Pan</name>
																	<parameterid>pan</parameterid>
																	<valuemin>-1</valuemin>
																	<valuemax>1</valuemax>
																	<value>0</value>
																</parameter>
															</effect>
														</filter>
														<sourcetrack>
															<mediatype>audio</mediatype>
															<trackindex>1</trackindex>
														</sourcetrack>
														<link>
															<linkclipref>CC0007_01 7</linkclipref>
															<mediatype>video</mediatype>
															<trackindex>1</trackindex>
															<clipindex>1</clipindex>
														</link>
														<link>
															<linkclipref>CC0007_01 8</linkclipref>
															<mediatype>audio</mediatype>
															<trackindex>1</trackindex>
															<clipindex>1</clipindex>
														</link>
														<link>
															<linkclipref>CC0007_01 9</linkclipref>
															<mediatype>audio</mediatype>
															<trackindex>2</trackindex>
															<clipindex>1</clipindex>
														</link>
														<mediadelay>72307</mediadelay>
														<itemhistory>
															<uuid>8FA7EF7C-828B-4601-B2E9-0298355DC61F</uuid>
														</itemhistory>
													</clipitem>
													<enabled>TRUE</enabled>
													<locked>FALSE</locked>
												</track>
												<track>
													<clipitem id="CC0007_01 9">
														<name>CC0007_01</name>
														<duration>478461</duration>
														<rate>
															<ntsc>TRUE</ntsc>
															<timebase>24</timebase>
														</rate>
														<in>0</in>
														<out>478461</out>
														<start>0</start>
														<end>478461</end>
														<subframeoffset>0</subframeoffset>
														<anamorphic>FALSE</anamorphic>
														<masterclipid>CC0007_01 1</masterclipid>
														<syncoffset>0</syncoffset>
														<logginginfo>
															<scene/>
															<shottake/>
															<lognote/>
															<good>FALSE</good>
														</logginginfo>
														<labels>
															<label>Good Take</label>
															<label2/>
														</labels>
														<comments>
															<mastercomment1/>
															<mastercomment2/>
															<mastercomment3/>
															<mastercomment4/>
														</comments>
														<file id="CC0007_01 3"/>
														<filter>
															<effect>
																<name>Audio Levels</name>
																<effectid>audiolevels</effectid>
																<effectcategory>audiolevels</effectcategory>
																<effecttype>audiolevels</effecttype>
																<mediatype>audio</mediatype>
																<parameter>
																	<name>Level</name>
																	<parameterid>level</parameterid>
																	<valuemin>0</valuemin>
																	<valuemax>3.98109</valuemax>
																	<value>1</value>
																</parameter>
															</effect>
														</filter>
														<filter>
															<effect>
																<name>Audio Pan</name>
																<effectid>audiopan</effectid>
																<effectcategory>audiopan</effectcategory>
																<effecttype>audiopan</effecttype>
																<mediatype>audio</mediatype>
																<parameter>
																	<name>Pan</name>
																	<parameterid>pan</parameterid>
																	<valuemin>-1</valuemin>
																	<valuemax>1</valuemax>
																	<value>0</value>
																</parameter>
															</effect>
														</filter>
														<sourcetrack>
															<mediatype>audio</mediatype>
															<trackindex>2</trackindex>
														</sourcetrack>
														<link>
															<linkclipref>CC0007_01 7</linkclipref>
															<mediatype>video</mediatype>
															<trackindex>1</trackindex>
															<clipindex>1</clipindex>
														</link>
														<link>
															<linkclipref>CC0007_01 8</linkclipref>
															<mediatype>audio</mediatype>
															<trackindex>1</trackindex>
															<clipindex>1</clipindex>
														</link>
														<link>
															<linkclipref>CC0007_01 9</linkclipref>
															<mediatype>audio</mediatype>
															<trackindex>2</trackindex>
															<clipindex>1</clipindex>
														</link>
														<mediadelay>72307</mediadelay>
														<itemhistory>
															<uuid>E89DC840-C613-4963-B412-EA68310EC1F5</uuid>
														</itemhistory>
													</clipitem>
													<enabled>TRUE</enabled>
													<locked>FALSE</locked>
												</track>
												<filter>
													<effect>
														<name>Audio Levels</name>
														<effectid>audiolevels</effectid>
														<effectcategory>audiolevels</effectcategory>
														<effecttype>audiolevels</effecttype>
														<mediatype>audio</mediatype>
														<parameter>
															<name>Level</name>
															<parameterid>level</parameterid>
															<valuemin>0</valuemin>
															<valuemax>3.98109</valuemax>
															<value>1</value>
														</parameter>
													</effect>
												</filter>
											</audio>
										</media>
									</clip>
								</angle>
								<angle>
									<clip id="CC0008_01 6">
										<uuid>816E1C97-1DD5-4209-96D8-CC390A9B3F10</uuid>
										<updatebehavior>add</updatebehavior>
										<name>CC0008_01</name>
										<duration>478461</duration>
										<rate>
											<ntsc>TRUE</ntsc>
											<timebase>24</timebase>
										</rate>
										<in>-1</in>
										<out>-1</out>
										<anamorphic>FALSE</anamorphic>
										<masterclipid>CC0008_01 1</masterclipid>
										<ismasterclip>FALSE</ismasterclip>
										<logginginfo>
											<scene/>
											<shottake/>
											<lognote/>
											<good>FALSE</good>
										</logginginfo>
										<labels>
											<label>Good Take</label>
											<label2/>
										</labels>
										<comments>
											<mastercomment1/>
											<mastercomment2/>
											<mastercomment3/>
											<mastercomment4/>
										</comments>
										<media>
											<video>
												<track>
													<clipitem id="CC0008_01 7">
														<name>CC0008_01</name>
														<duration>478461</duration>
														<rate>
															<ntsc>TRUE</ntsc>
															<timebase>24</timebase>
														</rate>
														<in>0</in>
														<out>478461</out>
														<start>0</start>
														<end>478461</end>
														<pixelaspectratio>Square</pixelaspectratio>
														<anamorphic>FALSE</anamorphic>
														<alphatype>none</alphatype>
														<masterclipid>CC0008_01 1</masterclipid>
														<syncoffset>0</syncoffset>
														<logginginfo>
															<scene/>
															<shottake/>
															<lognote/>
															<good>FALSE</good>
														</logginginfo>
														<labels>
															<label>Good Take</label>
															<label2/>
														</labels>
														<comments>
															<mastercomment1/>
															<mastercomment2/>
															<mastercomment3/>
															<mastercomment4/>
														</comments>
														<file id="CC0008_01 3"/>
														<sourcetrack>
															<mediatype>video</mediatype>
														</sourcetrack>
														<link>
															<linkclipref>CC0008_01 7</linkclipref>
															<mediatype>video</mediatype>
															<trackindex>1</trackindex>
															<clipindex>1</clipindex>
														</link>
														<link>
															<linkclipref>CC0008_01 8</linkclipref>
															<mediatype>audio</mediatype>
															<trackindex>1</trackindex>
															<clipindex>1</clipindex>
														</link>
														<link>
															<linkclipref>CC0008_01 9</linkclipref>
															<mediatype>audio</mediatype>
															<trackindex>2</trackindex>
															<clipindex>1</clipindex>
														</link>
														<fielddominance>none</fielddominance>
														<mediadelay>89219</mediadelay>
														<itemhistory>
															<uuid>A9190E35-267D-4B3F-A88B-2F33C143BD11</uuid>
														</itemhistory>
													</clipitem>
													<enabled>TRUE</enabled>
													<locked>FALSE</locked>
												</track>
											</video>
											<audio>
												<in>-1</in>
												<out>-1</out>
												<track>
													<clipitem id="CC0008_01 8">
														<name>CC0008_01</name>
														<duration>478461</duration>
														<rate>
															<ntsc>TRUE</ntsc>
															<timebase>24</timebase>
														</rate>
														<in>0</in>
														<out>478461</out>
														<start>0</start>
														<end>478461</end>
														<subframeoffset>0</subframeoffset>
														<anamorphic>FALSE</anamorphic>
														<masterclipid>CC0008_01 1</masterclipid>
														<syncoffset>0</syncoffset>
														<logginginfo>
															<scene/>
															<shottake/>
															<lognote/>
															<good>FALSE</good>
														</logginginfo>
														<labels>
															<label>Good Take</label>
															<label2/>
														</labels>
														<comments>
															<mastercomment1/>
															<mastercomment2/>
															<mastercomment3/>
															<mastercomment4/>
														</comments>
														<file id="CC0008_01 3"/>
														<filter>
															<effect>
																<name>Audio Levels</name>
																<effectid>audiolevels</effectid>
																<effectcategory>audiolevels</effectcategory>
																<effecttype>audiolevels</effecttype>
																<mediatype>audio</mediatype>
																<parameter>
																	<name>Level</name>
																	<parameterid>level</parameterid>
																	<valuemin>0</valuemin>
																	<valuemax>3.98109</valuemax>
																	<value>1</value>
																</parameter>
															</effect>
														</filter>
														<filter>
															<effect>
																<name>Audio Pan</name>
																<effectid>audiopan</effectid>
																<effectcategory>audiopan</effectcategory>
																<effecttype>audiopan</effecttype>
																<mediatype>audio</mediatype>
																<parameter>
																	<name>Pan</name>
																	<parameterid>pan</parameterid>
																	<valuemin>-1</valuemin>
																	<valuemax>1</valuemax>
																	<value>0</value>
																</parameter>
															</effect>
														</filter>
														<sourcetrack>
															<mediatype>audio</mediatype>
															<trackindex>1</trackindex>
														</sourcetrack>
														<link>
															<linkclipref>CC0008_01 7</linkclipref>
															<mediatype>video</mediatype>
															<trackindex>1</trackindex>
															<clipindex>1</clipindex>
														</link>
														<link>
															<linkclipref>CC0008_01 8</linkclipref>
															<mediatype>audio</mediatype>
															<trackindex>1</trackindex>
															<clipindex>1</clipindex>
														</link>
														<link>
															<linkclipref>CC0008_01 9</linkclipref>
															<mediatype>audio</mediatype>
															<trackindex>2</trackindex>
															<clipindex>1</clipindex>
														</link>
														<mediadelay>89219</mediadelay>
														<itemhistory>
															<uuid>8945D6E3-86B0-405D-9283-A6E0F733151D</uuid>
														</itemhistory>
													</clipitem>
													<enabled>TRUE</enabled>
													<locked>FALSE</locked>
												</track>
												<track>
													<clipitem id="CC0008_01 9">
														<name>CC0008_01</name>
														<duration>478461</duration>
														<rate>
															<ntsc>TRUE</ntsc>
															<timebase>24</timebase>
														</rate>
														<in>0</in>
														<out>478461</out>
														<start>0</start>
														<end>478461</end>
														<subframeoffset>0</subframeoffset>
														<anamorphic>FALSE</anamorphic>
														<masterclipid>CC0008_01 1</masterclipid>
														<syncoffset>0</syncoffset>
														<logginginfo>
															<scene/>
															<shottake/>
															<lognote/>
															<good>FALSE</good>
														</logginginfo>
														<labels>
															<label>Good Take</label>
															<label2/>
														</labels>
														<comments>
															<mastercomment1/>
															<mastercomment2/>
															<mastercomment3/>
															<mastercomment4/>
														</comments>
														<file id="CC0008_01 3"/>
														<filter>
															<effect>
																<name>Audio Levels</name>
																<effectid>audiolevels</effectid>
																<effectcategory>audiolevels</effectcategory>
																<effecttype>audiolevels</effecttype>
																<mediatype>audio</mediatype>
																<parameter>
																	<name>Level</name>
																	<parameterid>level</parameterid>
																	<valuemin>0</valuemin>
																	<valuemax>3.98109</valuemax>
																	<value>1</value>
																</parameter>
															</effect>
														</filter>
														<filter>
															<effect>
																<name>Audio Pan</name>
																<effectid>audiopan</effectid>
																<effectcategory>audiopan</effectcategory>
																<effecttype>audiopan</effecttype>
																<mediatype>audio</mediatype>
																<parameter>
																	<name>Pan</name>
																	<parameterid>pan</parameterid>
																	<valuemin>-1</valuemin>
																	<valuemax>1</valuemax>
																	<value>0</value>
																</parameter>
															</effect>
														</filter>
														<sourcetrack>
															<mediatype>audio</mediatype>
															<trackindex>2</trackindex>
														</sourcetrack>
														<link>
															<linkclipref>CC0008_01 7</linkclipref>
															<mediatype>video</mediatype>
															<trackindex>1</trackindex>
															<clipindex>1</clipindex>
														</link>
														<link>
															<linkclipref>CC0008_01 8</linkclipref>
															<mediatype>audio</mediatype>
															<trackindex>1</trackindex>
															<clipindex>1</clipindex>
														</link>
														<link>
															<linkclipref>CC0008_01 9</linkclipref>
															<mediatype>audio</mediatype>
															<trackindex>2</trackindex>
															<clipindex>1</clipindex>
														</link>
														<mediadelay>89219</mediadelay>
														<itemhistory>
															<uuid>D7509EFF-1A3F-41A3-B6D7-9F411CCD79A1</uuid>
														</itemhistory>
													</clipitem>
													<enabled>TRUE</enabled>
													<locked>FALSE</locked>
												</track>
												<filter>
													<effect>
														<name>Audio Levels</name>
														<effectid>audiolevels</effectid>
														<effectcategory>audiolevels</effectcategory>
														<effecttype>audiolevels</effecttype>
														<mediatype>audio</mediatype>
														<parameter>
															<name>Level</name>
															<parameterid>level</parameterid>
															<valuemin>0</valuemin>
															<valuemax>3.98109</valuemax>
															<value>1</value>
														</parameter>
													</effect>
												</filter>
											</audio>
										</media>
									</clip>
								</angle>
								<angle>
									<clip id="CC0009_01 6">
										<uuid>C1195BCE-9D7D-4002-8FD1-DE42650FCE85</uuid>
										<updatebehavior>add</updatebehavior>
										<name>CC0009_01</name>
										<duration>478461</duration>
										<rate>
											<ntsc>TRUE</ntsc>
											<timebase>24</timebase>
										</rate>
										<in>-1</in>
										<out>-1</out>
										<anamorphic>FALSE</anamorphic>
										<masterclipid>CC0009_01 1</masterclipid>
										<ismasterclip>FALSE</ismasterclip>
										<logginginfo>
											<scene/>
											<shottake/>
											<lognote/>
											<good>FALSE</good>
										</logginginfo>
										<labels>
											<label>Good Take</label>
											<label2/>
										</labels>
										<comments>
											<mastercomment1/>
											<mastercomment2/>
											<mastercomment3/>
											<mastercomment4/>
										</comments>
										<media>
											<video>
												<track>
													<clipitem id="CC0009_01 7">
														<name>CC0009_01</name>
														<duration>478461</duration>
														<rate>
															<ntsc>TRUE</ntsc>
															<timebase>24</timebase>
														</rate>
														<in>0</in>
														<out>478461</out>
														<start>0</start>
														<end>478461</end>
														<pixelaspectratio>Square</pixelaspectratio>
														<anamorphic>FALSE</anamorphic>
														<alphatype>none</alphatype>
														<masterclipid>CC0009_01 1</masterclipid>
														<syncoffset>0</syncoffset>
														<logginginfo>
															<scene/>
															<shottake/>
															<lognote/>
															<good>FALSE</good>
														</logginginfo>
														<labels>
															<label>Good Take</label>
															<label2/>
														</labels>
														<comments>
															<mastercomment1/>
															<mastercomment2/>
															<mastercomment3/>
															<mastercomment4/>
														</comments>
														<file id="CC0009_01 3"/>
														<sourcetrack>
															<mediatype>video</mediatype>
														</sourcetrack>
														<link>
															<linkclipref>CC0009_01 7</linkclipref>
															<mediatype>video</mediatype>
															<trackindex>1</trackindex>
															<clipindex>1</clipindex>
														</link>
														<link>
															<linkclipref>CC0009_01 8</linkclipref>
															<mediatype>audio</mediatype>
															<trackindex>1</trackindex>
															<clipindex>1</clipindex>
														</link>
														<link>
															<linkclipref>CC0009_01 9</linkclipref>
															<mediatype>audio</mediatype>
															<trackindex>2</trackindex>
															<clipindex>1</clipindex>
														</link>
														<fielddominance>none</fielddominance>
														<mediadelay>90243</mediadelay>
														<itemhistory>
															<uuid>0B5E49E3-F026-4864-A20F-89E778A77DB2</uuid>
														</itemhistory>
													</clipitem>
													<enabled>TRUE</enabled>
													<locked>FALSE</locked>
												</track>
											</video>
											<audio>
												<in>-1</in>
												<out>-1</out>
												<track>
													<clipitem id="CC0009_01 8">
														<name>CC0009_01</name>
														<duration>478461</duration>
														<rate>
															<ntsc>TRUE</ntsc>
															<timebase>24</timebase>
														</rate>
														<in>0</in>
														<out>478461</out>
														<start>0</start>
														<end>478461</end>
														<subframeoffset>0</subframeoffset>
														<anamorphic>FALSE</anamorphic>
														<masterclipid>CC0009_01 1</masterclipid>
														<syncoffset>0</syncoffset>
														<logginginfo>
															<scene/>
															<shottake/>
															<lognote/>
															<good>FALSE</good>
														</logginginfo>
														<labels>
															<label>Good Take</label>
															<label2/>
														</labels>
														<comments>
															<mastercomment1/>
															<mastercomment2/>
															<mastercomment3/>
															<mastercomment4/>
														</comments>
														<file id="CC0009_01 3"/>
														<filter>
															<effect>
																<name>Audio Levels</name>
																<effectid>audiolevels</effectid>
																<effectcategory>audiolevels</effectcategory>
																<effecttype>audiolevels</effecttype>
																<mediatype>audio</mediatype>
																<parameter>
																	<name>Level</name>
																	<parameterid>level</parameterid>
																	<valuemin>0</valuemin>
																	<valuemax>3.98109</valuemax>
																	<value>1</value>
																</parameter>
															</effect>
														</filter>
														<filter>
															<effect>
																<name>Audio Pan</name>
																<effectid>audiopan</effectid>
																<effectcategory>audiopan</effectcategory>
																<effecttype>audiopan</effecttype>
																<mediatype>audio</mediatype>
																<parameter>
																	<name>Pan</name>
																	<parameterid>pan</parameterid>
																	<valuemin>-1</valuemin>
																	<valuemax>1</valuemax>
																	<value>0</value>
																</parameter>
															</effect>
														</filter>
														<sourcetrack>
															<mediatype>audio</mediatype>
															<trackindex>1</trackindex>
														</sourcetrack>
														<link>
															<linkclipref>CC0009_01 7</linkclipref>
															<mediatype>video</mediatype>
															<trackindex>1</trackindex>
															<clipindex>1</clipindex>
														</link>
														<link>
															<linkclipref>CC0009_01 8</linkclipref>
															<mediatype>audio</mediatype>
															<trackindex>1</trackindex>
															<clipindex>1</clipindex>
														</link>
														<link>
															<linkclipref>CC0009_01 9</linkclipref>
															<mediatype>audio</mediatype>
															<trackindex>2</trackindex>
															<clipindex>1</clipindex>
														</link>
														<mediadelay>90243</mediadelay>
														<itemhistory>
															<uuid>F7B588B2-9936-48F4-80F9-5A1EC9032726</uuid>
														</itemhistory>
													</clipitem>
													<enabled>TRUE</enabled>
													<locked>FALSE</locked>
												</track>
												<track>
													<clipitem id="CC0009_01 9">
														<name>CC0009_01</name>
														<duration>478461</duration>
														<rate>
															<ntsc>TRUE</ntsc>
															<timebase>24</timebase>
														</rate>
														<in>0</in>
														<out>478461</out>
														<start>0</start>
														<end>478461</end>
														<subframeoffset>0</subframeoffset>
														<anamorphic>FALSE</anamorphic>
														<masterclipid>CC0009_01 1</masterclipid>
														<syncoffset>0</syncoffset>
														<logginginfo>
															<scene/>
															<shottake/>
															<lognote/>
															<good>FALSE</good>
														</logginginfo>
														<labels>
															<label>Good Take</label>
															<label2/>
														</labels>
														<comments>
															<mastercomment1/>
															<mastercomment2/>
															<mastercomment3/>
															<mastercomment4/>
														</comments>
														<file id="CC0009_01 3"/>
														<filter>
															<effect>
																<name>Audio Levels</name>
																<effectid>audiolevels</effectid>
																<effectcategory>audiolevels</effectcategory>
																<effecttype>audiolevels</effecttype>
																<mediatype>audio</mediatype>
																<parameter>
																	<name>Level</name>
																	<parameterid>level</parameterid>
																	<valuemin>0</valuemin>
																	<valuemax>3.98109</valuemax>
																	<value>1</value>
																</parameter>
															</effect>
														</filter>
														<filter>
															<effect>
																<name>Audio Pan</name>
																<effectid>audiopan</effectid>
																<effectcategory>audiopan</effectcategory>
																<effecttype>audiopan</effecttype>
																<mediatype>audio</mediatype>
																<parameter>
																	<name>Pan</name>
																	<parameterid>pan</parameterid>
																	<valuemin>-1</valuemin>
																	<valuemax>1</valuemax>
																	<value>0</value>
																</parameter>
															</effect>
														</filter>
														<sourcetrack>
															<mediatype>audio</mediatype>
															<trackindex>2</trackindex>
														</sourcetrack>
														<link>
															<linkclipref>CC0009_01 7</linkclipref>
															<mediatype>video</mediatype>
															<trackindex>1</trackindex>
															<clipindex>1</clipindex>
														</link>
														<link>
															<linkclipref>CC0009_01 8</linkclipref>
															<mediatype>audio</mediatype>
															<trackindex>1</trackindex>
															<clipindex>1</clipindex>
														</link>
														<link>
															<linkclipref>CC0009_01 9</linkclipref>
															<mediatype>audio</mediatype>
															<trackindex>2</trackindex>
															<clipindex>1</clipindex>
														</link>
														<mediadelay>90243</mediadelay>
														<itemhistory>
															<uuid>40161A92-97D6-40E4-BC39-02D594327736</uuid>
														</itemhistory>
													</clipitem>
													<enabled>TRUE</enabled>
													<locked>FALSE</locked>
												</track>
												<filter>
													<effect>
														<name>Audio Levels</name>
														<effectid>audiolevels</effectid>
														<effectcategory>audiolevels</effectcategory>
														<effecttype>audiolevels</effecttype>
														<mediatype>audio</mediatype>
														<parameter>
															<name>Level</name>
															<parameterid>level</parameterid>
															<valuemin>0</valuemin>
															<valuemax>3.98109</valuemax>
															<value>1</value>
														</parameter>
													</effect>
												</filter>
											</audio>
										</media>
									</clip>
								</angle>
								<angle>
									<clip id="CC0010_01 6">
										<uuid>A2273B16-A9FF-4515-840C-F8DB18FD00B5</uuid>
										<updatebehavior>add</updatebehavior>
										<name>CC0010_01</name>
										<duration>478461</duration>
										<rate>
											<ntsc>TRUE</ntsc>
											<timebase>24</timebase>
										</rate>
										<in>-1</in>
										<out>-1</out>
										<anamorphic>FALSE</anamorphic>
										<masterclipid>CC0010_01 1</masterclipid>
										<ismasterclip>FALSE</ismasterclip>
										<logginginfo>
											<scene/>
											<shottake/>
											<lognote/>
											<good>FALSE</good>
										</logginginfo>
										<labels>
											<label>Good Take</label>
											<label2/>
										</labels>
										<comments>
											<mastercomment1/>
											<mastercomment2/>
											<mastercomment3/>
											<mastercomment4/>
										</comments>
										<media>
											<video>
												<track>
													<clipitem id="CC0010_01 7">
														<name>CC0010_01</name>
														<duration>478461</duration>
														<rate>
															<ntsc>TRUE</ntsc>
															<timebase>24</timebase>
														</rate>
														<in>0</in>
														<out>478461</out>
														<start>0</start>
														<end>478461</end>
														<pixelaspectratio>Square</pixelaspectratio>
														<anamorphic>FALSE</anamorphic>
														<alphatype>none</alphatype>
														<masterclipid>CC0010_01 1</masterclipid>
														<syncoffset>0</syncoffset>
														<logginginfo>
															<scene/>
															<shottake/>
															<lognote/>
															<good>FALSE</good>
														</logginginfo>
														<labels>
															<label>Good Take</label>
															<label2/>
														</labels>
														<comments>
															<mastercomment1/>
															<mastercomment2/>
															<mastercomment3/>
															<mastercomment4/>
														</comments>
														<file id="CC0010_01 3"/>
														<sourcetrack>
															<mediatype>video</mediatype>
														</sourcetrack>
														<link>
															<linkclipref>CC0010_01 7</linkclipref>
															<mediatype>video</mediatype>
															<trackindex>1</trackindex>
															<clipindex>1</clipindex>
														</link>
														<link>
															<linkclipref>CC0010_01 8</linkclipref>
															<mediatype>audio</mediatype>
															<trackindex>1</trackindex>
															<clipindex>1</clipindex>
														</link>
														<link>
															<linkclipref>CC0010_01 9</linkclipref>
															<mediatype>audio</mediatype>
															<trackindex>2</trackindex>
															<clipindex>1</clipindex>
														</link>
														<fielddominance>none</fielddominance>
														<mediadelay>142344</mediadelay>
														<itemhistory>
															<uuid>9770704B-121F-43DD-9853-9F96E6605618</uuid>
														</itemhistory>
													</clipitem>
													<enabled>TRUE</enabled>
													<locked>FALSE</locked>
												</track>
											</video>
											<audio>
												<in>-1</in>
												<out>-1</out>
												<track>
													<clipitem id="CC0010_01 8">
														<name>CC0010_01</name>
														<duration>478461</duration>
														<rate>
															<ntsc>TRUE</ntsc>
															<timebase>24</timebase>
														</rate>
														<in>0</in>
														<out>478461</out>
														<start>0</start>
														<end>478461</end>
														<subframeoffset>0</subframeoffset>
														<anamorphic>FALSE</anamorphic>
														<masterclipid>CC0010_01 1</masterclipid>
														<syncoffset>0</syncoffset>
														<logginginfo>
															<scene/>
															<shottake/>
															<lognote/>
															<good>FALSE</good>
														</logginginfo>
														<labels>
															<label>Good Take</label>
															<label2/>
														</labels>
														<comments>
															<mastercomment1/>
															<mastercomment2/>
															<mastercomment3/>
															<mastercomment4/>
														</comments>
														<file id="CC0010_01 3"/>
														<filter>
															<effect>
																<name>Audio Levels</name>
																<effectid>audiolevels</effectid>
																<effectcategory>audiolevels</effectcategory>
																<effecttype>audiolevels</effecttype>
																<mediatype>audio</mediatype>
																<parameter>
																	<name>Level</name>
																	<parameterid>level</parameterid>
																	<valuemin>0</valuemin>
																	<valuemax>3.98109</valuemax>
																	<value>1</value>
																</parameter>
															</effect>
														</filter>
														<filter>
															<effect>
																<name>Audio Pan</name>
																<effectid>audiopan</effectid>
																<effectcategory>audiopan</effectcategory>
																<effecttype>audiopan</effecttype>
																<mediatype>audio</mediatype>
																<parameter>
																	<name>Pan</name>
																	<parameterid>pan</parameterid>
																	<valuemin>-1</valuemin>
																	<valuemax>1</valuemax>
																	<value>0</value>
																</parameter>
															</effect>
														</filter>
														<sourcetrack>
															<mediatype>audio</mediatype>
															<trackindex>1</trackindex>
														</sourcetrack>
														<link>
															<linkclipref>CC0010_01 7</linkclipref>
															<mediatype>video</mediatype>
															<trackindex>1</trackindex>
															<clipindex>1</clipindex>
														</link>
														<link>
															<linkclipref>CC0010_01 8</linkclipref>
															<mediatype>audio</mediatype>
															<trackindex>1</trackindex>
															<clipindex>1</clipindex>
														</link>
														<link>
															<linkclipref>CC0010_01 9</linkclipref>
															<mediatype>audio</mediatype>
															<trackindex>2</trackindex>
															<clipindex>1</clipindex>
														</link>
														<mediadelay>142344</mediadelay>
														<itemhistory>
															<uuid>D12D5615-E6FF-4856-96CE-3687A3263DDE</uuid>
														</itemhistory>
													</clipitem>
													<enabled>TRUE</enabled>
													<locked>FALSE</locked>
												</track>
												<track>
													<clipitem id="CC0010_01 9">
														<name>CC0010_01</name>
														<duration>478461</duration>
														<rate>
															<ntsc>TRUE</ntsc>
															<timebase>24</timebase>
														</rate>
														<in>0</in>
														<out>478461</out>
														<start>0</start>
														<end>478461</end>
														<subframeoffset>0</subframeoffset>
														<anamorphic>FALSE</anamorphic>
														<masterclipid>CC0010_01 1</masterclipid>
														<syncoffset>0</syncoffset>
														<logginginfo>
															<scene/>
															<shottake/>
															<lognote/>
															<good>FALSE</good>
														</logginginfo>
														<labels>
															<label>Good Take</label>
															<label2/>
														</labels>
														<comments>
															<mastercomment1/>
															<mastercomment2/>
															<mastercomment3/>
															<mastercomment4/>
														</comments>
														<file id="CC0010_01 3"/>
														<filter>
															<effect>
																<name>Audio Levels</name>
																<effectid>audiolevels</effectid>
																<effectcategory>audiolevels</effectcategory>
																<effecttype>audiolevels</effecttype>
																<mediatype>audio</mediatype>
																<parameter>
																	<name>Level</name>
																	<parameterid>level</parameterid>
																	<valuemin>0</valuemin>
																	<valuemax>3.98109</valuemax>
																	<value>1</value>
																</parameter>
															</effect>
														</filter>
														<filter>
															<effect>
																<name>Audio Pan</name>
																<effectid>audiopan</effectid>
																<effectcategory>audiopan</effectcategory>
																<effecttype>audiopan</effecttype>
																<mediatype>audio</mediatype>
																<parameter>
																	<name>Pan</name>
																	<parameterid>pan</parameterid>
																	<valuemin>-1</valuemin>
																	<valuemax>1</valuemax>
																	<value>0</value>
																</parameter>
															</effect>
														</filter>
														<sourcetrack>
															<mediatype>audio</mediatype>
															<trackindex>2</trackindex>
														</sourcetrack>
														<link>
															<linkclipref>CC0010_01 7</linkclipref>
															<mediatype>video</mediatype>
															<trackindex>1</trackindex>
															<clipindex>1</clipindex>
														</link>
														<link>
															<linkclipref>CC0010_01 8</linkclipref>
															<mediatype>audio</mediatype>
															<trackindex>1</trackindex>
															<clipindex>1</clipindex>
														</link>
														<link>
															<linkclipref>CC0010_01 9</linkclipref>
															<mediatype>audio</mediatype>
															<trackindex>2</trackindex>
															<clipindex>1</clipindex>
														</link>
														<mediadelay>142344</mediadelay>
														<itemhistory>
															<uuid>9634FB85-FA04-49D1-9C7A-471B6D424A33</uuid>
														</itemhistory>
													</clipitem>
													<enabled>TRUE</enabled>
													<locked>FALSE</locked>
												</track>
												<filter>
													<effect>
														<name>Audio Levels</name>
														<effectid>audiolevels</effectid>
														<effectcategory>audiolevels</effectcategory>
														<effecttype>audiolevels</effecttype>
														<mediatype>audio</mediatype>
														<parameter>
															<name>Level</name>
															<parameterid>level</parameterid>
															<valuemin>0</valuemin>
															<valuemax>3.98109</valuemax>
															<value>1</value>
														</parameter>
													</effect>
												</filter>
											</audio>
										</media>
									</clip>
								</angle>
								<angle>
									<clip id="CC0011_01 9">
										<uuid>480E6DE4-834F-4D51-973C-14E4A5199AE8</uuid>
										<updatebehavior>add</updatebehavior>
										<name>CC0011_01</name>
										<duration>478461</duration>
										<rate>
											<ntsc>TRUE</ntsc>
											<timebase>24</timebase>
										</rate>
										<in>-1</in>
										<out>-1</out>
										<anamorphic>FALSE</anamorphic>
										<masterclipid>CC0011_01 1</masterclipid>
										<ismasterclip>FALSE</ismasterclip>
										<logginginfo>
											<scene/>
											<shottake/>
											<lognote/>
											<good>FALSE</good>
										</logginginfo>
										<labels>
											<label>Good Take</label>
											<label2/>
										</labels>
										<comments>
											<mastercomment1/>
											<mastercomment2/>
											<mastercomment3/>
											<mastercomment4/>
										</comments>
										<media>
											<video>
												<track>
													<clipitem id="CC0011_01 10">
														<name>CC0011_01</name>
														<duration>478461</duration>
														<rate>
															<ntsc>TRUE</ntsc>
															<timebase>24</timebase>
														</rate>
														<in>0</in>
														<out>478461</out>
														<start>0</start>
														<end>478461</end>
														<pixelaspectratio>Square</pixelaspectratio>
														<anamorphic>FALSE</anamorphic>
														<alphatype>none</alphatype>
														<masterclipid>CC0011_01 1</masterclipid>
														<syncoffset>0</syncoffset>
														<logginginfo>
															<scene/>
															<shottake/>
															<lognote/>
															<good>FALSE</good>
														</logginginfo>
														<labels>
															<label>Good Take</label>
															<label2/>
														</labels>
														<comments>
															<mastercomment1/>
															<mastercomment2/>
															<mastercomment3/>
															<mastercomment4/>
														</comments>
														<file id="CC0011_01 2"/>
														<sourcetrack>
															<mediatype>video</mediatype>
														</sourcetrack>
														<link>
															<linkclipref>CC0011_01 10</linkclipref>
															<mediatype>video</mediatype>
															<trackindex>1</trackindex>
															<clipindex>1</clipindex>
														</link>
														<link>
															<linkclipref>CC0011_01 11</linkclipref>
															<mediatype>audio</mediatype>
															<trackindex>1</trackindex>
															<clipindex>1</clipindex>
														</link>
														<link>
															<linkclipref>CC0011_01 12</linkclipref>
															<mediatype>audio</mediatype>
															<trackindex>2</trackindex>
															<clipindex>1</clipindex>
														</link>
														<fielddominance>none</fielddominance>
														<mediadelay>155264</mediadelay>
														<itemhistory>
															<uuid>D2B9C444-15EC-44E9-8003-3CD078435991</uuid>
														</itemhistory>
													</clipitem>
													<enabled>TRUE</enabled>
													<locked>FALSE</locked>
												</track>
											</video>
											<audio>
												<in>-1</in>
												<out>-1</out>
												<track>
													<clipitem id="CC0011_01 11">
														<name>CC0011_01</name>
														<duration>478461</duration>
														<rate>
															<ntsc>TRUE</ntsc>
															<timebase>24</timebase>
														</rate>
														<in>0</in>
														<out>478461</out>
														<start>0</start>
														<end>478461</end>
														<subframeoffset>0</subframeoffset>
														<anamorphic>FALSE</anamorphic>
														<masterclipid>CC0011_01 1</masterclipid>
														<syncoffset>0</syncoffset>
														<logginginfo>
															<scene/>
															<shottake/>
															<lognote/>
															<good>FALSE</good>
														</logginginfo>
														<labels>
															<label>Good Take</label>
															<label2/>
														</labels>
														<comments>
															<mastercomment1/>
															<mastercomment2/>
															<mastercomment3/>
															<mastercomment4/>
														</comments>
														<file id="CC0011_01 2"/>
														<filter>
															<effect>
																<name>Audio Levels</name>
																<effectid>audiolevels</effectid>
																<effectcategory>audiolevels</effectcategory>
																<effecttype>audiolevels</effecttype>
																<mediatype>audio</mediatype>
																<parameter>
																	<name>Level</name>
																	<parameterid>level</parameterid>
																	<valuemin>0</valuemin>
																	<valuemax>3.98109</valuemax>
																	<value>1</value>
																</parameter>
															</effect>
														</filter>
														<filter>
															<effect>
																<name>Audio Pan</name>
																<effectid>audiopan</effectid>
																<effectcategory>audiopan</effectcategory>
																<effecttype>audiopan</effecttype>
																<mediatype>audio</mediatype>
																<parameter>
																	<name>Pan</name>
																	<parameterid>pan</parameterid>
																	<valuemin>-1</valuemin>
																	<valuemax>1</valuemax>
																	<value>0</value>
																</parameter>
															</effect>
														</filter>
														<sourcetrack>
															<mediatype>audio</mediatype>
															<trackindex>1</trackindex>
														</sourcetrack>
														<link>
															<linkclipref>CC0011_01 10</linkclipref>
															<mediatype>video</mediatype>
															<trackindex>1</trackindex>
															<clipindex>1</clipindex>
														</link>
														<link>
															<linkclipref>CC0011_01 11</linkclipref>
															<mediatype>audio</mediatype>
															<trackindex>1</trackindex>
															<clipindex>1</clipindex>
														</link>
														<link>
															<linkclipref>CC0011_01 12</linkclipref>
															<mediatype>audio</mediatype>
															<trackindex>2</trackindex>
															<clipindex>1</clipindex>
														</link>
														<mediadelay>155264</mediadelay>
														<itemhistory>
															<uuid>8E69AE70-A2EF-43B7-AF1E-0CFAE43CB0C6</uuid>
														</itemhistory>
													</clipitem>
													<enabled>TRUE</enabled>
													<locked>FALSE</locked>
												</track>
												<track>
													<clipitem id="CC0011_01 12">
														<name>CC0011_01</name>
														<duration>478461</duration>
														<rate>
															<ntsc>TRUE</ntsc>
															<timebase>24</timebase>
														</rate>
														<in>0</in>
														<out>478461</out>
														<start>0</start>
														<end>478461</end>
														<subframeoffset>0</subframeoffset>
														<anamorphic>FALSE</anamorphic>
														<masterclipid>CC0011_01 1</masterclipid>
														<syncoffset>0</syncoffset>
														<logginginfo>
															<scene/>
															<shottake/>
															<lognote/>
															<good>FALSE</good>
														</logginginfo>
														<labels>
															<label>Good Take</label>
															<label2/>
														</labels>
														<comments>
															<mastercomment1/>
															<mastercomment2/>
															<mastercomment3/>
															<mastercomment4/>
														</comments>
														<file id="CC0011_01 2"/>
														<filter>
															<effect>
																<name>Audio Levels</name>
																<effectid>audiolevels</effectid>
																<effectcategory>audiolevels</effectcategory>
																<effecttype>audiolevels</effecttype>
																<mediatype>audio</mediatype>
																<parameter>
																	<name>Level</name>
																	<parameterid>level</parameterid>
																	<valuemin>0</valuemin>
																	<valuemax>3.98109</valuemax>
																	<value>1</value>
																</parameter>
															</effect>
														</filter>
														<filter>
															<effect>
																<name>Audio Pan</name>
																<effectid>audiopan</effectid>
																<effectcategory>audiopan</effectcategory>
																<effecttype>audiopan</effecttype>
																<mediatype>audio</mediatype>
																<parameter>
																	<name>Pan</name>
																	<parameterid>pan</parameterid>
																	<valuemin>-1</valuemin>
																	<valuemax>1</valuemax>
																	<value>0</value>
																</parameter>
															</effect>
														</filter>
														<sourcetrack>
															<mediatype>audio</mediatype>
															<trackindex>2</trackindex>
														</sourcetrack>
														<link>
															<linkclipref>CC0011_01 10</linkclipref>
															<mediatype>video</mediatype>
															<trackindex>1</trackindex>
															<clipindex>1</clipindex>
														</link>
														<link>
															<linkclipref>CC0011_01 11</linkclipref>
															<mediatype>audio</mediatype>
															<trackindex>1</trackindex>
															<clipindex>1</clipindex>
														</link>
														<link>
															<linkclipref>CC0011_01 12</linkclipref>
															<mediatype>audio</mediatype>
															<trackindex>2</trackindex>
															<clipindex>1</clipindex>
														</link>
														<mediadelay>155264</mediadelay>
														<itemhistory>
															<uuid>B1121F4A-8234-4924-8A3B-2D9CF6F211A6</uuid>
														</itemhistory>
													</clipitem>
													<enabled>TRUE</enabled>
													<locked>FALSE</locked>
												</track>
												<filter>
													<effect>
														<name>Audio Levels</name>
														<effectid>audiolevels</effectid>
														<effectcategory>audiolevels</effectcategory>
														<effecttype>audiolevels</effecttype>
														<mediatype>audio</mediatype>
														<parameter>
															<name>Level</name>
															<parameterid>level</parameterid>
															<valuemin>0</valuemin>
															<valuemax>3.98109</valuemax>
															<value>1</value>
														</parameter>
													</effect>
												</filter>
											</audio>
										</media>
									</clip>
								</angle>
								<angle>
									<clip id="CC0012_01 6">
										<uuid>EFF9E821-CA67-4298-81D6-F2D828CA48F9</uuid>
										<updatebehavior>add</updatebehavior>
										<name>CC0012_01</name>
										<duration>478461</duration>
										<rate>
											<ntsc>TRUE</ntsc>
											<timebase>24</timebase>
										</rate>
										<in>-1</in>
										<out>-1</out>
										<anamorphic>FALSE</anamorphic>
										<masterclipid>CC0012_01 1</masterclipid>
										<ismasterclip>FALSE</ismasterclip>
										<logginginfo>
											<scene/>
											<shottake/>
											<lognote/>
											<good>FALSE</good>
										</logginginfo>
										<labels>
											<label>Good Take</label>
											<label2/>
										</labels>
										<comments>
											<mastercomment1/>
											<mastercomment2/>
											<mastercomment3/>
											<mastercomment4/>
										</comments>
										<media>
											<video>
												<track>
													<clipitem id="CC0012_01 7">
														<name>CC0012_01</name>
														<duration>478461</duration>
														<rate>
															<ntsc>TRUE</ntsc>
															<timebase>24</timebase>
														</rate>
														<in>0</in>
														<out>478461</out>
														<start>0</start>
														<end>478461</end>
														<pixelaspectratio>Square</pixelaspectratio>
														<anamorphic>FALSE</anamorphic>
														<alphatype>none</alphatype>
														<masterclipid>CC0012_01 1</masterclipid>
														<syncoffset>0</syncoffset>
														<logginginfo>
															<scene/>
															<shottake/>
															<lognote/>
															<good>FALSE</good>
														</logginginfo>
														<labels>
															<label>Good Take</label>
															<label2/>
														</labels>
														<comments>
															<mastercomment1/>
															<mastercomment2/>
															<mastercomment3/>
															<mastercomment4/>
														</comments>
														<file id="CC0012_01 3"/>
														<sourcetrack>
															<mediatype>video</mediatype>
														</sourcetrack>
														<link>
															<linkclipref>CC0012_01 7</linkclipref>
															<mediatype>video</mediatype>
															<trackindex>1</trackindex>
															<clipindex>1</clipindex>
														</link>
														<link>
															<linkclipref>CC0012_01 8</linkclipref>
															<mediatype>audio</mediatype>
															<trackindex>1</trackindex>
															<clipindex>1</clipindex>
														</link>
														<link>
															<linkclipref>CC0012_01 9</linkclipref>
															<mediatype>audio</mediatype>
															<trackindex>2</trackindex>
															<clipindex>1</clipindex>
														</link>
														<fielddominance>none</fielddominance>
														<mediadelay>162644</mediadelay>
														<itemhistory>
															<uuid>1E526B98-2403-4237-937A-B502089D8F6C</uuid>
														</itemhistory>
													</clipitem>
													<enabled>TRUE</enabled>
													<locked>FALSE</locked>
												</track>
											</video>
											<audio>
												<in>-1</in>
												<out>-1</out>
												<track>
													<clipitem id="CC0012_01 8">
														<name>CC0012_01</name>
														<duration>478461</duration>
														<rate>
															<ntsc>TRUE</ntsc>
															<timebase>24</timebase>
														</rate>
														<in>0</in>
														<out>478461</out>
														<start>0</start>
														<end>478461</end>
														<subframeoffset>0</subframeoffset>
														<anamorphic>FALSE</anamorphic>
														<masterclipid>CC0012_01 1</masterclipid>
														<syncoffset>0</syncoffset>
														<logginginfo>
															<scene/>
															<shottake/>
															<lognote/>
															<good>FALSE</good>
														</logginginfo>
														<labels>
															<label>Good Take</label>
															<label2/>
														</labels>
														<comments>
															<mastercomment1/>
															<mastercomment2/>
															<mastercomment3/>
															<mastercomment4/>
														</comments>
														<file id="CC0012_01 3"/>
														<filter>
															<effect>
																<name>Audio Levels</name>
																<effectid>audiolevels</effectid>
																<effectcategory>audiolevels</effectcategory>
																<effecttype>audiolevels</effecttype>
																<mediatype>audio</mediatype>
																<parameter>
																	<name>Level</name>
																	<parameterid>level</parameterid>
																	<valuemin>0</valuemin>
																	<valuemax>3.98109</valuemax>
																	<value>1</value>
																</parameter>
															</effect>
														</filter>
														<filter>
															<effect>
																<name>Audio Pan</name>
																<effectid>audiopan</effectid>
																<effectcategory>audiopan</effectcategory>
																<effecttype>audiopan</effecttype>
																<mediatype>audio</mediatype>
																<parameter>
																	<name>Pan</name>
																	<parameterid>pan</parameterid>
																	<valuemin>-1</valuemin>
																	<valuemax>1</valuemax>
																	<value>0</value>
																</parameter>
															</effect>
														</filter>
														<sourcetrack>
															<mediatype>audio</mediatype>
															<trackindex>1</trackindex>
														</sourcetrack>
														<link>
															<linkclipref>CC0012_01 7</linkclipref>
															<mediatype>video</mediatype>
															<trackindex>1</trackindex>
															<clipindex>1</clipindex>
														</link>
														<link>
															<linkclipref>CC0012_01 8</linkclipref>
															<mediatype>audio</mediatype>
															<trackindex>1</trackindex>
															<clipindex>1</clipindex>
														</link>
														<link>
															<linkclipref>CC0012_01 9</linkclipref>
															<mediatype>audio</mediatype>
															<trackindex>2</trackindex>
															<clipindex>1</clipindex>
														</link>
														<mediadelay>162644</mediadelay>
														<itemhistory>
															<uuid>061C6576-CF0C-463D-9707-B58941B1F877</uuid>
														</itemhistory>
													</clipitem>
													<enabled>TRUE</enabled>
													<locked>FALSE</locked>
												</track>
												<track>
													<clipitem id="CC0012_01 9">
														<name>CC0012_01</name>
														<duration>478461</duration>
														<rate>
															<ntsc>TRUE</ntsc>
															<timebase>24</timebase>
														</rate>
														<in>0</in>
														<out>478461</out>
														<start>0</start>
														<end>478461</end>
														<subframeoffset>0</subframeoffset>
														<anamorphic>FALSE</anamorphic>
														<masterclipid>CC0012_01 1</masterclipid>
														<syncoffset>0</syncoffset>
														<logginginfo>
															<scene/>
															<shottake/>
															<lognote/>
															<good>FALSE</good>
														</logginginfo>
														<labels>
															<label>Good Take</label>
															<label2/>
														</labels>
														<comments>
															<mastercomment1/>
															<mastercomment2/>
															<mastercomment3/>
															<mastercomment4/>
														</comments>
														<file id="CC0012_01 3"/>
														<filter>
															<effect>
																<name>Audio Levels</name>
																<effectid>audiolevels</effectid>
																<effectcategory>audiolevels</effectcategory>
																<effecttype>audiolevels</effecttype>
																<mediatype>audio</mediatype>
																<parameter>
																	<name>Level</name>
																	<parameterid>level</parameterid>
																	<valuemin>0</valuemin>
																	<valuemax>3.98109</valuemax>
																	<value>1</value>
																</parameter>
															</effect>
														</filter>
														<filter>
															<effect>
																<name>Audio Pan</name>
																<effectid>audiopan</effectid>
																<effectcategory>audiopan</effectcategory>
																<effecttype>audiopan</effecttype>
																<mediatype>audio</mediatype>
																<parameter>
																	<name>Pan</name>
																	<parameterid>pan</parameterid>
																	<valuemin>-1</valuemin>
																	<valuemax>1</valuemax>
																	<value>0</value>
																</parameter>
															</effect>
														</filter>
														<sourcetrack>
															<mediatype>audio</mediatype>
															<trackindex>2</trackindex>
														</sourcetrack>
														<link>
															<linkclipref>CC0012_01 7</linkclipref>
															<mediatype>video</mediatype>
															<trackindex>1</trackindex>
															<clipindex>1</clipindex>
														</link>
														<link>
															<linkclipref>CC0012_01 8</linkclipref>
															<mediatype>audio</mediatype>
															<trackindex>1</trackindex>
															<clipindex>1</clipindex>
														</link>
														<link>
															<linkclipref>CC0012_01 9</linkclipref>
															<mediatype>audio</mediatype>
															<trackindex>2</trackindex>
															<clipindex>1</clipindex>
														</link>
														<mediadelay>162644</mediadelay>
														<itemhistory>
															<uuid>8E7FF573-FADC-4795-A161-F4AC26DE2A9F</uuid>
														</itemhistory>
													</clipitem>
													<enabled>TRUE</enabled>
													<locked>FALSE</locked>
												</track>
												<filter>
													<effect>
														<name>Audio Levels</name>
														<effectid>audiolevels</effectid>
														<effectcategory>audiolevels</effectcategory>
														<effecttype>audiolevels</effecttype>
														<mediatype>audio</mediatype>
														<parameter>
															<name>Level</name>
															<parameterid>level</parameterid>
															<valuemin>0</valuemin>
															<valuemax>3.98109</valuemax>
															<value>1</value>
														</parameter>
													</effect>
												</filter>
											</audio>
										</media>
									</clip>
								</angle>
								<angle>
									<clip id="CC0013_01 6">
										<uuid>78B0BF5D-20D6-4B60-A0B0-03F5C5272C70</uuid>
										<updatebehavior>add</updatebehavior>
										<name>CC0013_01</name>
										<duration>478461</duration>
										<rate>
											<ntsc>TRUE</ntsc>
											<timebase>24</timebase>
										</rate>
										<in>-1</in>
										<out>-1</out>
										<anamorphic>FALSE</anamorphic>
										<masterclipid>CC0013_01 1</masterclipid>
										<ismasterclip>FALSE</ismasterclip>
										<logginginfo>
											<scene/>
											<shottake/>
											<lognote/>
											<good>FALSE</good>
										</logginginfo>
										<labels>
											<label>Good Take</label>
											<label2/>
										</labels>
										<comments>
											<mastercomment1/>
											<mastercomment2/>
											<mastercomment3/>
											<mastercomment4/>
										</comments>
										<media>
											<video>
												<track>
													<clipitem id="CC0013_01 7">
														<name>CC0013_01</name>
														<duration>478461</duration>
														<rate>
															<ntsc>TRUE</ntsc>
															<timebase>24</timebase>
														</rate>
														<in>0</in>
														<out>478461</out>
														<start>0</start>
														<end>478461</end>
														<pixelaspectratio>Square</pixelaspectratio>
														<anamorphic>FALSE</anamorphic>
														<alphatype>none</alphatype>
														<masterclipid>CC0013_01 1</masterclipid>
														<syncoffset>0</syncoffset>
														<logginginfo>
															<scene/>
															<shottake/>
															<lognote/>
															<good>FALSE</good>
														</logginginfo>
														<labels>
															<label>Good Take</label>
															<label2/>
														</labels>
														<comments>
															<mastercomment1/>
															<mastercomment2/>
															<mastercomment3/>
															<mastercomment4/>
														</comments>
														<file id="CC0013_01 3"/>
														<sourcetrack>
															<mediatype>video</mediatype>
														</sourcetrack>
														<link>
															<linkclipref>CC0013_01 7</linkclipref>
															<mediatype>video</mediatype>
															<trackindex>1</trackindex>
															<clipindex>1</clipindex>
														</link>
														<link>
															<linkclipref>CC0013_01 8</linkclipref>
															<mediatype>audio</mediatype>
															<trackindex>1</trackindex>
															<clipindex>1</clipindex>
														</link>
														<link>
															<linkclipref>CC0013_01 9</linkclipref>
															<mediatype>audio</mediatype>
															<trackindex>2</trackindex>
															<clipindex>1</clipindex>
														</link>
														<fielddominance>none</fielddominance>
														<mediadelay>182040</mediadelay>
														<itemhistory>
															<uuid>B45B0C0B-7B91-4B36-800C-B6A1EE8DEF9F</uuid>
														</itemhistory>
													</clipitem>
													<enabled>TRUE</enabled>
													<locked>FALSE</locked>
												</track>
											</video>
											<audio>
												<in>-1</in>
												<out>-1</out>
												<track>
													<clipitem id="CC0013_01 8">
														<name>CC0013_01</name>
														<duration>478461</duration>
														<rate>
															<ntsc>TRUE</ntsc>
															<timebase>24</timebase>
														</rate>
														<in>0</in>
														<out>478461</out>
														<start>0</start>
														<end>478461</end>
														<subframeoffset>0</subframeoffset>
														<anamorphic>FALSE</anamorphic>
														<masterclipid>CC0013_01 1</masterclipid>
														<syncoffset>0</syncoffset>
														<logginginfo>
															<scene/>
															<shottake/>
															<lognote/>
															<good>FALSE</good>
														</logginginfo>
														<labels>
															<label>Good Take</label>
															<label2/>
														</labels>
														<comments>
															<mastercomment1/>
															<mastercomment2/>
															<mastercomment3/>
															<mastercomment4/>
														</comments>
														<file id="CC0013_01 3"/>
														<filter>
															<effect>
																<name>Audio Levels</name>
																<effectid>audiolevels</effectid>
																<effectcategory>audiolevels</effectcategory>
																<effecttype>audiolevels</effecttype>
																<mediatype>audio</mediatype>
																<parameter>
																	<name>Level</name>
																	<parameterid>level</parameterid>
																	<valuemin>0</valuemin>
																	<valuemax>3.98109</valuemax>
																	<value>1</value>
																</parameter>
															</effect>
														</filter>
														<filter>
															<effect>
																<name>Audio Pan</name>
																<effectid>audiopan</effectid>
																<effectcategory>audiopan</effectcategory>
																<effecttype>audiopan</effecttype>
																<mediatype>audio</mediatype>
																<parameter>
																	<name>Pan</name>
																	<parameterid>pan</parameterid>
																	<valuemin>-1</valuemin>
																	<valuemax>1</valuemax>
																	<value>0</value>
																</parameter>
															</effect>
														</filter>
														<sourcetrack>
															<mediatype>audio</mediatype>
															<trackindex>1</trackindex>
														</sourcetrack>
														<link>
															<linkclipref>CC0013_01 7</linkclipref>
															<mediatype>video</mediatype>
															<trackindex>1</trackindex>
															<clipindex>1</clipindex>
														</link>
														<link>
															<linkclipref>CC0013_01 8</linkclipref>
															<mediatype>audio</mediatype>
															<trackindex>1</trackindex>
															<clipindex>1</clipindex>
														</link>
														<link>
															<linkclipref>CC0013_01 9</linkclipref>
															<mediatype>audio</mediatype>
															<trackindex>2</trackindex>
															<clipindex>1</clipindex>
														</link>
														<mediadelay>182040</mediadelay>
														<itemhistory>
															<uuid>7A61D0E0-5259-4233-8B8B-FEC1FA4BCAAE</uuid>
														</itemhistory>
													</clipitem>
													<enabled>TRUE</enabled>
													<locked>FALSE</locked>
												</track>
												<track>
													<clipitem id="CC0013_01 9">
														<name>CC0013_01</name>
														<duration>478461</duration>
														<rate>
															<ntsc>TRUE</ntsc>
															<timebase>24</timebase>
														</rate>
														<in>0</in>
														<out>478461</out>
														<start>0</start>
														<end>478461</end>
														<subframeoffset>0</subframeoffset>
														<anamorphic>FALSE</anamorphic>
														<masterclipid>CC0013_01 1</masterclipid>
														<syncoffset>0</syncoffset>
														<logginginfo>
															<scene/>
															<shottake/>
															<lognote/>
															<good>FALSE</good>
														</logginginfo>
														<labels>
															<label>Good Take</label>
															<label2/>
														</labels>
														<comments>
															<mastercomment1/>
															<mastercomment2/>
															<mastercomment3/>
															<mastercomment4/>
														</comments>
														<file id="CC0013_01 3"/>
														<filter>
															<effect>
																<name>Audio Levels</name>
																<effectid>audiolevels</effectid>
																<effectcategory>audiolevels</effectcategory>
																<effecttype>audiolevels</effecttype>
																<mediatype>audio</mediatype>
																<parameter>
																	<name>Level</name>
																	<parameterid>level</parameterid>
																	<valuemin>0</valuemin>
																	<valuemax>3.98109</valuemax>
																	<value>1</value>
																</parameter>
															</effect>
														</filter>
														<filter>
															<effect>
																<name>Audio Pan</name>
																<effectid>audiopan</effectid>
																<effectcategory>audiopan</effectcategory>
																<effecttype>audiopan</effecttype>
																<mediatype>audio</mediatype>
																<parameter>
																	<name>Pan</name>
																	<parameterid>pan</parameterid>
																	<valuemin>-1</valuemin>
																	<valuemax>1</valuemax>
																	<value>0</value>
																</parameter>
															</effect>
														</filter>
														<sourcetrack>
															<mediatype>audio</mediatype>
															<trackindex>2</trackindex>
														</sourcetrack>
														<link>
															<linkclipref>CC0013_01 7</linkclipref>
															<mediatype>video</mediatype>
															<trackindex>1</trackindex>
															<clipindex>1</clipindex>
														</link>
														<link>
															<linkclipref>CC0013_01 8</linkclipref>
															<mediatype>audio</mediatype>
															<trackindex>1</trackindex>
															<clipindex>1</clipindex>
														</link>
														<link>
															<linkclipref>CC0013_01 9</linkclipref>
															<mediatype>audio</mediatype>
															<trackindex>2</trackindex>
															<clipindex>1</clipindex>
														</link>
														<mediadelay>182040</mediadelay>
														<itemhistory>
															<uuid>A8E97353-4B79-4382-9114-52D170C26893</uuid>
														</itemhistory>
													</clipitem>
													<enabled>TRUE</enabled>
													<locked>FALSE</locked>
												</track>
												<filter>
													<effect>
														<name>Audio Levels</name>
														<effectid>audiolevels</effectid>
														<effectcategory>audiolevels</effectcategory>
														<effecttype>audiolevels</effecttype>
														<mediatype>audio</mediatype>
														<parameter>
															<name>Level</name>
															<parameterid>level</parameterid>
															<valuemin>0</valuemin>
															<valuemax>3.98109</valuemax>
															<value>1</value>
														</parameter>
													</effect>
												</filter>
											</audio>
										</media>
									</clip>
								</angle>
								<angle>
									<clip id="CC0014_01 6">
										<uuid>2D95764C-08E7-453E-803C-8575EFA28416</uuid>
										<updatebehavior>add</updatebehavior>
										<name>CC0014_01</name>
										<duration>478461</duration>
										<rate>
											<ntsc>TRUE</ntsc>
											<timebase>24</timebase>
										</rate>
										<in>-1</in>
										<out>-1</out>
										<anamorphic>FALSE</anamorphic>
										<masterclipid>CC0014_01 1</masterclipid>
										<ismasterclip>FALSE</ismasterclip>
										<logginginfo>
											<scene/>
											<shottake/>
											<lognote/>
											<good>FALSE</good>
										</logginginfo>
										<labels>
											<label>Good Take</label>
											<label2/>
										</labels>
										<comments>
											<mastercomment1/>
											<mastercomment2/>
											<mastercomment3/>
											<mastercomment4/>
										</comments>
										<media>
											<video>
												<track>
													<clipitem id="CC0014_01 7">
														<name>CC0014_01</name>
														<duration>478461</duration>
														<rate>
															<ntsc>TRUE</ntsc>
															<timebase>24</timebase>
														</rate>
														<in>0</in>
														<out>478461</out>
														<start>0</start>
														<end>478461</end>
														<pixelaspectratio>Square</pixelaspectratio>
														<anamorphic>FALSE</anamorphic>
														<alphatype>none</alphatype>
														<masterclipid>CC0014_01 1</masterclipid>
														<syncoffset>0</syncoffset>
														<logginginfo>
															<scene/>
															<shottake/>
															<lognote/>
															<good>FALSE</good>
														</logginginfo>
														<labels>
															<label>Good Take</label>
															<label2/>
														</labels>
														<comments>
															<mastercomment1/>
															<mastercomment2/>
															<mastercomment3/>
															<mastercomment4/>
														</comments>
														<file id="CC0014_01 3"/>
														<sourcetrack>
															<mediatype>video</mediatype>
														</sourcetrack>
														<link>
															<linkclipref>CC0014_01 7</linkclipref>
															<mediatype>video</mediatype>
															<trackindex>1</trackindex>
															<clipindex>1</clipindex>
														</link>
														<link>
															<linkclipref>CC0014_01 8</linkclipref>
															<mediatype>audio</mediatype>
															<trackindex>1</trackindex>
															<clipindex>1</clipindex>
														</link>
														<link>
															<linkclipref>CC0014_01 9</linkclipref>
															<mediatype>audio</mediatype>
															<trackindex>2</trackindex>
															<clipindex>1</clipindex>
														</link>
														<fielddominance>none</fielddominance>
														<mediadelay>184476</mediadelay>
														<itemhistory>
															<uuid>75E4F0CC-CB6F-4F73-8811-661BFAD61624</uuid>
														</itemhistory>
													</clipitem>
													<enabled>TRUE</enabled>
													<locked>FALSE</locked>
												</track>
											</video>
											<audio>
												<in>-1</in>
												<out>-1</out>
												<track>
													<clipitem id="CC0014_01 8">
														<name>CC0014_01</name>
														<duration>478461</duration>
														<rate>
															<ntsc>TRUE</ntsc>
															<timebase>24</timebase>
														</rate>
														<in>0</in>
														<out>478461</out>
														<start>0</start>
														<end>478461</end>
														<subframeoffset>0</subframeoffset>
														<anamorphic>FALSE</anamorphic>
														<masterclipid>CC0014_01 1</masterclipid>
														<syncoffset>0</syncoffset>
														<logginginfo>
															<scene/>
															<shottake/>
															<lognote/>
															<good>FALSE</good>
														</logginginfo>
														<labels>
															<label>Good Take</label>
															<label2/>
														</labels>
														<comments>
															<mastercomment1/>
															<mastercomment2/>
															<mastercomment3/>
															<mastercomment4/>
														</comments>
														<file id="CC0014_01 3"/>
														<filter>
															<effect>
																<name>Audio Levels</name>
																<effectid>audiolevels</effectid>
																<effectcategory>audiolevels</effectcategory>
																<effecttype>audiolevels</effecttype>
																<mediatype>audio</mediatype>
																<parameter>
																	<name>Level</name>
																	<parameterid>level</parameterid>
																	<valuemin>0</valuemin>
																	<valuemax>3.98109</valuemax>
																	<value>1</value>
																</parameter>
															</effect>
														</filter>
														<filter>
															<effect>
																<name>Audio Pan</name>
																<effectid>audiopan</effectid>
																<effectcategory>audiopan</effectcategory>
																<effecttype>audiopan</effecttype>
																<mediatype>audio</mediatype>
																<parameter>
																	<name>Pan</name>
																	<parameterid>pan</parameterid>
																	<valuemin>-1</valuemin>
																	<valuemax>1</valuemax>
																	<value>0</value>
																</parameter>
															</effect>
														</filter>
														<sourcetrack>
															<mediatype>audio</mediatype>
															<trackindex>1</trackindex>
														</sourcetrack>
														<link>
															<linkclipref>CC0014_01 7</linkclipref>
															<mediatype>video</mediatype>
															<trackindex>1</trackindex>
															<clipindex>1</clipindex>
														</link>
														<link>
															<linkclipref>CC0014_01 8</linkclipref>
															<mediatype>audio</mediatype>
															<trackindex>1</trackindex>
															<clipindex>1</clipindex>
														</link>
														<link>
															<linkclipref>CC0014_01 9</linkclipref>
															<mediatype>audio</mediatype>
															<trackindex>2</trackindex>
															<clipindex>1</clipindex>
														</link>
														<mediadelay>184476</mediadelay>
														<itemhistory>
															<uuid>70E09B5F-BCE3-41C6-BD00-91E1DA257E57</uuid>
														</itemhistory>
													</clipitem>
													<enabled>TRUE</enabled>
													<locked>FALSE</locked>
												</track>
												<track>
													<clipitem id="CC0014_01 9">
														<name>CC0014_01</name>
														<duration>478461</duration>
														<rate>
															<ntsc>TRUE</ntsc>
															<timebase>24</timebase>
														</rate>
														<in>0</in>
														<out>478461</out>
														<start>0</start>
														<end>478461</end>
														<subframeoffset>0</subframeoffset>
														<anamorphic>FALSE</anamorphic>
														<masterclipid>CC0014_01 1</masterclipid>
														<syncoffset>0</syncoffset>
														<logginginfo>
															<scene/>
															<shottake/>
															<lognote/>
															<good>FALSE</good>
														</logginginfo>
														<labels>
															<label>Good Take</label>
															<label2/>
														</labels>
														<comments>
															<mastercomment1/>
															<mastercomment2/>
															<mastercomment3/>
															<mastercomment4/>
														</comments>
														<file id="CC0014_01 3"/>
														<filter>
															<effect>
																<name>Audio Levels</name>
																<effectid>audiolevels</effectid>
																<effectcategory>audiolevels</effectcategory>
																<effecttype>audiolevels</effecttype>
																<mediatype>audio</mediatype>
																<parameter>
																	<name>Level</name>
																	<parameterid>level</parameterid>
																	<valuemin>0</valuemin>
																	<valuemax>3.98109</valuemax>
																	<value>1</value>
																</parameter>
															</effect>
														</filter>
														<filter>
															<effect>
																<name>Audio Pan</name>
																<effectid>audiopan</effectid>
																<effectcategory>audiopan</effectcategory>
																<effecttype>audiopan</effecttype>
																<mediatype>audio</mediatype>
																<parameter>
																	<name>Pan</name>
																	<parameterid>pan</parameterid>
																	<valuemin>-1</valuemin>
																	<valuemax>1</valuemax>
																	<value>0</value>
																</parameter>
															</effect>
														</filter>
														<sourcetrack>
															<mediatype>audio</mediatype>
															<trackindex>2</trackindex>
														</sourcetrack>
														<link>
															<linkclipref>CC0014_01 7</linkclipref>
															<mediatype>video</mediatype>
															<trackindex>1</trackindex>
															<clipindex>1</clipindex>
														</link>
														<link>
															<linkclipref>CC0014_01 8</linkclipref>
															<mediatype>audio</mediatype>
															<trackindex>1</trackindex>
															<clipindex>1</clipindex>
														</link>
														<link>
															<linkclipref>CC0014_01 9</linkclipref>
															<mediatype>audio</mediatype>
															<trackindex>2</trackindex>
															<clipindex>1</clipindex>
														</link>
														<mediadelay>184476</mediadelay>
														<itemhistory>
															<uuid>677B8748-039E-465A-B3F8-2B7B3B6A2C24</uuid>
														</itemhistory>
													</clipitem>
													<enabled>TRUE</enabled>
													<locked>FALSE</locked>
												</track>
												<filter>
													<effect>
														<name>Audio Levels</name>
														<effectid>audiolevels</effectid>
														<effectcategory>audiolevels</effectcategory>
														<effecttype>audiolevels</effecttype>
														<mediatype>audio</mediatype>
														<parameter>
															<name>Level</name>
															<parameterid>level</parameterid>
															<valuemin>0</valuemin>
															<valuemax>3.98109</valuemax>
															<value>1</value>
														</parameter>
													</effect>
												</filter>
											</audio>
										</media>
									</clip>
								</angle>
								<angle>
									<clip id="CC0015_01 6">
										<uuid>42158081-FF9D-4EEB-9929-5C54AFE8F64E</uuid>
										<updatebehavior>add</updatebehavior>
										<name>CC0015_01</name>
										<duration>478461</duration>
										<rate>
											<ntsc>TRUE</ntsc>
											<timebase>24</timebase>
										</rate>
										<in>-1</in>
										<out>-1</out>
										<anamorphic>FALSE</anamorphic>
										<masterclipid>CC0015_01 1</masterclipid>
										<ismasterclip>FALSE</ismasterclip>
										<logginginfo>
											<scene/>
											<shottake/>
											<lognote/>
											<good>FALSE</good>
										</logginginfo>
										<labels>
											<label>Good Take</label>
											<label2/>
										</labels>
										<comments>
											<mastercomment1/>
											<mastercomment2/>
											<mastercomment3/>
											<mastercomment4/>
										</comments>
										<media>
											<video>
												<track>
													<clipitem id="CC0015_01 7">
														<name>CC0015_01</name>
														<duration>478461</duration>
														<rate>
															<ntsc>TRUE</ntsc>
															<timebase>24</timebase>
														</rate>
														<in>0</in>
														<out>478461</out>
														<start>0</start>
														<end>478461</end>
														<pixelaspectratio>Square</pixelaspectratio>
														<anamorphic>FALSE</anamorphic>
														<alphatype>none</alphatype>
														<masterclipid>CC0015_01 1</masterclipid>
														<syncoffset>0</syncoffset>
														<logginginfo>
															<scene/>
															<shottake/>
															<lognote/>
															<good>FALSE</good>
														</logginginfo>
														<labels>
															<label>Good Take</label>
															<label2/>
														</labels>
														<comments>
															<mastercomment1/>
															<mastercomment2/>
															<mastercomment3/>
															<mastercomment4/>
														</comments>
														<file id="CC0015_01 3"/>
														<sourcetrack>
															<mediatype>video</mediatype>
														</sourcetrack>
														<link>
															<linkclipref>CC0015_01 7</linkclipref>
															<mediatype>video</mediatype>
															<trackindex>1</trackindex>
															<clipindex>1</clipindex>
														</link>
														<link>
															<linkclipref>CC0015_01 8</linkclipref>
															<mediatype>audio</mediatype>
															<trackindex>1</trackindex>
															<clipindex>1</clipindex>
														</link>
														<link>
															<linkclipref>CC0015_01 9</linkclipref>
															<mediatype>audio</mediatype>
															<trackindex>2</trackindex>
															<clipindex>1</clipindex>
														</link>
														<fielddominance>none</fielddominance>
														<mediadelay>196784</mediadelay>
														<itemhistory>
															<uuid>53D78100-773B-4E51-AA2F-E8CC0A73C712</uuid>
														</itemhistory>
													</clipitem>
													<enabled>TRUE</enabled>
													<locked>FALSE</locked>
												</track>
											</video>
											<audio>
												<in>-1</in>
												<out>-1</out>
												<track>
													<clipitem id="CC0015_01 8">
														<name>CC0015_01</name>
														<duration>478461</duration>
														<rate>
															<ntsc>TRUE</ntsc>
															<timebase>24</timebase>
														</rate>
														<in>0</in>
														<out>478461</out>
														<start>0</start>
														<end>478461</end>
														<subframeoffset>0</subframeoffset>
														<anamorphic>FALSE</anamorphic>
														<masterclipid>CC0015_01 1</masterclipid>
														<syncoffset>0</syncoffset>
														<logginginfo>
															<scene/>
															<shottake/>
															<lognote/>
															<good>FALSE</good>
														</logginginfo>
														<labels>
															<label>Good Take</label>
															<label2/>
														</labels>
														<comments>
															<mastercomment1/>
															<mastercomment2/>
															<mastercomment3/>
															<mastercomment4/>
														</comments>
														<file id="CC0015_01 3"/>
														<filter>
															<effect>
																<name>Audio Levels</name>
																<effectid>audiolevels</effectid>
																<effectcategory>audiolevels</effectcategory>
																<effecttype>audiolevels</effecttype>
																<mediatype>audio</mediatype>
																<parameter>
																	<name>Level</name>
																	<parameterid>level</parameterid>
																	<valuemin>0</valuemin>
																	<valuemax>3.98109</valuemax>
																	<value>1</value>
																</parameter>
															</effect>
														</filter>
														<filter>
															<effect>
																<name>Audio Pan</name>
																<effectid>audiopan</effectid>
																<effectcategory>audiopan</effectcategory>
																<effecttype>audiopan</effecttype>
																<mediatype>audio</mediatype>
																<parameter>
																	<name>Pan</name>
																	<parameterid>pan</parameterid>
																	<valuemin>-1</valuemin>
																	<valuemax>1</valuemax>
																	<value>0</value>
																</parameter>
															</effect>
														</filter>
														<sourcetrack>
															<mediatype>audio</mediatype>
															<trackindex>1</trackindex>
														</sourcetrack>
														<link>
															<linkclipref>CC0015_01 7</linkclipref>
															<mediatype>video</mediatype>
															<trackindex>1</trackindex>
															<clipindex>1</clipindex>
														</link>
														<link>
															<linkclipref>CC0015_01 8</linkclipref>
															<mediatype>audio</mediatype>
															<trackindex>1</trackindex>
															<clipindex>1</clipindex>
														</link>
														<link>
															<linkclipref>CC0015_01 9</linkclipref>
															<mediatype>audio</mediatype>
															<trackindex>2</trackindex>
															<clipindex>1</clipindex>
														</link>
														<mediadelay>196784</mediadelay>
														<itemhistory>
															<uuid>A1A9874F-942D-4D61-8F25-87C21726DD7F</uuid>
														</itemhistory>
													</clipitem>
													<enabled>TRUE</enabled>
													<locked>FALSE</locked>
												</track>
												<track>
													<clipitem id="CC0015_01 9">
														<name>CC0015_01</name>
														<duration>478461</duration>
														<rate>
															<ntsc>TRUE</ntsc>
															<timebase>24</timebase>
														</rate>
														<in>0</in>
														<out>478461</out>
														<start>0</start>
														<end>478461</end>
														<subframeoffset>0</subframeoffset>
														<anamorphic>FALSE</anamorphic>
														<masterclipid>CC0015_01 1</masterclipid>
														<syncoffset>0</syncoffset>
														<logginginfo>
															<scene/>
															<shottake/>
															<lognote/>
															<good>FALSE</good>
														</logginginfo>
														<labels>
															<label>Good Take</label>
															<label2/>
														</labels>
														<comments>
															<mastercomment1/>
															<mastercomment2/>
															<mastercomment3/>
															<mastercomment4/>
														</comments>
														<file id="CC0015_01 3"/>
														<filter>
															<effect>
																<name>Audio Levels</name>
																<effectid>audiolevels</effectid>
																<effectcategory>audiolevels</effectcategory>
																<effecttype>audiolevels</effecttype>
																<mediatype>audio</mediatype>
																<parameter>
																	<name>Level</name>
																	<parameterid>level</parameterid>
																	<valuemin>0</valuemin>
																	<valuemax>3.98109</valuemax>
																	<value>1</value>
																</parameter>
															</effect>
														</filter>
														<filter>
															<effect>
																<name>Audio Pan</name>
																<effectid>audiopan</effectid>
																<effectcategory>audiopan</effectcategory>
																<effecttype>audiopan</effecttype>
																<mediatype>audio</mediatype>
																<parameter>
																	<name>Pan</name>
																	<parameterid>pan</parameterid>
																	<valuemin>-1</valuemin>
																	<valuemax>1</valuemax>
																	<value>0</value>
																</parameter>
															</effect>
														</filter>
														<sourcetrack>
															<mediatype>audio</mediatype>
															<trackindex>2</trackindex>
														</sourcetrack>
														<link>
															<linkclipref>CC0015_01 7</linkclipref>
															<mediatype>video</mediatype>
															<trackindex>1</trackindex>
															<clipindex>1</clipindex>
														</link>
														<link>
															<linkclipref>CC0015_01 8</linkclipref>
															<mediatype>audio</mediatype>
															<trackindex>1</trackindex>
															<clipindex>1</clipindex>
														</link>
														<link>
															<linkclipref>CC0015_01 9</linkclipref>
															<mediatype>audio</mediatype>
															<trackindex>2</trackindex>
															<clipindex>1</clipindex>
														</link>
														<mediadelay>196784</mediadelay>
														<itemhistory>
															<uuid>2E959554-B7A4-4B45-9C57-4B96FD84079D</uuid>
														</itemhistory>
													</clipitem>
													<enabled>TRUE</enabled>
													<locked>FALSE</locked>
												</track>
												<filter>
													<effect>
														<name>Audio Levels</name>
														<effectid>audiolevels</effectid>
														<effectcategory>audiolevels</effectcategory>
														<effecttype>audiolevels</effecttype>
														<mediatype>audio</mediatype>
														<parameter>
															<name>Level</name>
															<parameterid>level</parameterid>
															<valuemin>0</valuemin>
															<valuemax>3.98109</valuemax>
															<value>1</value>
														</parameter>
													</effect>
												</filter>
											</audio>
										</media>
									</clip>
								</angle>
								<angle>
									<clip id="CC0016_01 6">
										<uuid>1796F7AC-3E43-4ED9-92E4-A89C286B7451</uuid>
										<updatebehavior>add</updatebehavior>
										<name>CC0016_01</name>
										<duration>478461</duration>
										<rate>
											<ntsc>TRUE</ntsc>
											<timebase>24</timebase>
										</rate>
										<in>-1</in>
										<out>-1</out>
										<anamorphic>FALSE</anamorphic>
										<masterclipid>CC0016_01 1</masterclipid>
										<ismasterclip>FALSE</ismasterclip>
										<logginginfo>
											<scene/>
											<shottake/>
											<lognote/>
											<good>FALSE</good>
										</logginginfo>
										<labels>
											<label>Good Take</label>
											<label2/>
										</labels>
										<comments>
											<mastercomment1/>
											<mastercomment2/>
											<mastercomment3/>
											<mastercomment4/>
										</comments>
										<media>
											<video>
												<track>
													<clipitem id="CC0016_01 7">
														<name>CC0016_01</name>
														<duration>478461</duration>
														<rate>
															<ntsc>TRUE</ntsc>
															<timebase>24</timebase>
														</rate>
														<in>0</in>
														<out>478461</out>
														<start>0</start>
														<end>478461</end>
														<pixelaspectratio>Square</pixelaspectratio>
														<anamorphic>FALSE</anamorphic>
														<alphatype>none</alphatype>
														<masterclipid>CC0016_01 1</masterclipid>
														<syncoffset>0</syncoffset>
														<logginginfo>
															<scene/>
															<shottake/>
															<lognote/>
															<good>FALSE</good>
														</logginginfo>
														<labels>
															<label>Good Take</label>
															<label2/>
														</labels>
														<comments>
															<mastercomment1/>
															<mastercomment2/>
															<mastercomment3/>
															<mastercomment4/>
														</comments>
														<file id="CC0016_01 3"/>
														<sourcetrack>
															<mediatype>video</mediatype>
														</sourcetrack>
														<link>
															<linkclipref>CC0016_01 7</linkclipref>
															<mediatype>video</mediatype>
															<trackindex>1</trackindex>
															<clipindex>1</clipindex>
														</link>
														<link>
															<linkclipref>CC0016_01 8</linkclipref>
															<mediatype>audio</mediatype>
															<trackindex>1</trackindex>
															<clipindex>1</clipindex>
														</link>
														<link>
															<linkclipref>CC0016_01 9</linkclipref>
															<mediatype>audio</mediatype>
															<trackindex>2</trackindex>
															<clipindex>1</clipindex>
														</link>
														<fielddominance>none</fielddominance>
														<mediadelay>459441</mediadelay>
														<itemhistory>
															<uuid>3F7194F6-8DF1-4638-9F60-FB69D294296B</uuid>
														</itemhistory>
													</clipitem>
													<enabled>TRUE</enabled>
													<locked>FALSE</locked>
												</track>
											</video>
											<audio>
												<in>-1</in>
												<out>-1</out>
												<track>
													<clipitem id="CC0016_01 8">
														<name>CC0016_01</name>
														<duration>478461</duration>
														<rate>
															<ntsc>TRUE</ntsc>
															<timebase>24</timebase>
														</rate>
														<in>0</in>
														<out>478461</out>
														<start>0</start>
														<end>478461</end>
														<subframeoffset>0</subframeoffset>
														<anamorphic>FALSE</anamorphic>
														<masterclipid>CC0016_01 1</masterclipid>
														<syncoffset>0</syncoffset>
														<logginginfo>
															<scene/>
															<shottake/>
															<lognote/>
															<good>FALSE</good>
														</logginginfo>
														<labels>
															<label>Good Take</label>
															<label2/>
														</labels>
														<comments>
															<mastercomment1/>
															<mastercomment2/>
															<mastercomment3/>
															<mastercomment4/>
														</comments>
														<file id="CC0016_01 3"/>
														<filter>
															<effect>
																<name>Audio Levels</name>
																<effectid>audiolevels</effectid>
																<effectcategory>audiolevels</effectcategory>
																<effecttype>audiolevels</effecttype>
																<mediatype>audio</mediatype>
																<parameter>
																	<name>Level</name>
																	<parameterid>level</parameterid>
																	<valuemin>0</valuemin>
																	<valuemax>3.98109</valuemax>
																	<value>1</value>
																</parameter>
															</effect>
														</filter>
														<filter>
															<effect>
																<name>Audio Pan</name>
																<effectid>audiopan</effectid>
																<effectcategory>audiopan</effectcategory>
																<effecttype>audiopan</effecttype>
																<mediatype>audio</mediatype>
																<parameter>
																	<name>Pan</name>
																	<parameterid>pan</parameterid>
																	<valuemin>-1</valuemin>
																	<valuemax>1</valuemax>
																	<value>0</value>
																</parameter>
															</effect>
														</filter>
														<sourcetrack>
															<mediatype>audio</mediatype>
															<trackindex>1</trackindex>
														</sourcetrack>
														<link>
															<linkclipref>CC0016_01 7</linkclipref>
															<mediatype>video</mediatype>
															<trackindex>1</trackindex>
															<clipindex>1</clipindex>
														</link>
														<link>
															<linkclipref>CC0016_01 8</linkclipref>
															<mediatype>audio</mediatype>
															<trackindex>1</trackindex>
															<clipindex>1</clipindex>
														</link>
														<link>
															<linkclipref>CC0016_01 9</linkclipref>
															<mediatype>audio</mediatype>
															<trackindex>2</trackindex>
															<clipindex>1</clipindex>
														</link>
														<mediadelay>459441</mediadelay>
														<itemhistory>
															<uuid>8190D4B4-00CD-4EE2-88B9-3414EDA4746F</uuid>
														</itemhistory>
													</clipitem>
													<enabled>TRUE</enabled>
													<locked>FALSE</locked>
												</track>
												<track>
													<clipitem id="CC0016_01 9">
														<name>CC0016_01</name>
														<duration>478461</duration>
														<rate>
															<ntsc>TRUE</ntsc>
															<timebase>24</timebase>
														</rate>
														<in>0</in>
														<out>478461</out>
														<start>0</start>
														<end>478461</end>
														<subframeoffset>0</subframeoffset>
														<anamorphic>FALSE</anamorphic>
														<masterclipid>CC0016_01 1</masterclipid>
														<syncoffset>0</syncoffset>
														<logginginfo>
															<scene/>
															<shottake/>
															<lognote/>
															<good>FALSE</good>
														</logginginfo>
														<labels>
															<label>Good Take</label>
															<label2/>
														</labels>
														<comments>
															<mastercomment1/>
															<mastercomment2/>
															<mastercomment3/>
															<mastercomment4/>
														</comments>
														<file id="CC0016_01 3"/>
														<filter>
															<effect>
																<name>Audio Levels</name>
																<effectid>audiolevels</effectid>
																<effectcategory>audiolevels</effectcategory>
																<effecttype>audiolevels</effecttype>
																<mediatype>audio</mediatype>
																<parameter>
																	<name>Level</name>
																	<parameterid>level</parameterid>
																	<valuemin>0</valuemin>
																	<valuemax>3.98109</valuemax>
																	<value>1</value>
																</parameter>
															</effect>
														</filter>
														<filter>
															<effect>
																<name>Audio Pan</name>
																<effectid>audiopan</effectid>
																<effectcategory>audiopan</effectcategory>
																<effecttype>audiopan</effecttype>
																<mediatype>audio</mediatype>
																<parameter>
																	<name>Pan</name>
																	<parameterid>pan</parameterid>
																	<valuemin>-1</valuemin>
																	<valuemax>1</valuemax>
																	<value>0</value>
																</parameter>
															</effect>
														</filter>
														<sourcetrack>
															<mediatype>audio</mediatype>
															<trackindex>2</trackindex>
														</sourcetrack>
														<link>
															<linkclipref>CC0016_01 7</linkclipref>
															<mediatype>video</mediatype>
															<trackindex>1</trackindex>
															<clipindex>1</clipindex>
														</link>
														<link>
															<linkclipref>CC0016_01 8</linkclipref>
															<mediatype>audio</mediatype>
															<trackindex>1</trackindex>
															<clipindex>1</clipindex>
														</link>
														<link>
															<linkclipref>CC0016_01 9</linkclipref>
															<mediatype>audio</mediatype>
															<trackindex>2</trackindex>
															<clipindex>1</clipindex>
														</link>
														<mediadelay>459441</mediadelay>
														<itemhistory>
															<uuid>82C2A8F2-0E3D-42A9-8EF6-B10071D6B4AD</uuid>
														</itemhistory>
													</clipitem>
													<enabled>TRUE</enabled>
													<locked>FALSE</locked>
												</track>
												<filter>
													<effect>
														<name>Audio Levels</name>
														<effectid>audiolevels</effectid>
														<effectcategory>audiolevels</effectcategory>
														<effecttype>audiolevels</effecttype>
														<mediatype>audio</mediatype>
														<parameter>
															<name>Level</name>
															<parameterid>level</parameterid>
															<valuemin>0</valuemin>
															<valuemax>3.98109</valuemax>
															<value>1</value>
														</parameter>
													</effect>
												</filter>
											</audio>
										</media>
									</clip>
								</angle>
								<angle>
									<clip id="CC0017_01 6">
										<uuid>79966617-90A5-4B5C-965F-4B791EA67C5B</uuid>
										<updatebehavior>add</updatebehavior>
										<name>CC0017_01</name>
										<duration>478461</duration>
										<rate>
											<ntsc>TRUE</ntsc>
											<timebase>24</timebase>
										</rate>
										<in>-1</in>
										<out>-1</out>
										<anamorphic>FALSE</anamorphic>
										<masterclipid>CC0017_01 1</masterclipid>
										<ismasterclip>FALSE</ismasterclip>
										<logginginfo>
											<scene/>
											<shottake/>
											<lognote/>
											<good>FALSE</good>
										</logginginfo>
										<labels>
											<label>Good Take</label>
											<label2/>
										</labels>
										<comments>
											<mastercomment1/>
											<mastercomment2/>
											<mastercomment3/>
											<mastercomment4/>
										</comments>
										<media>
											<video>
												<track>
													<clipitem id="CC0017_01 7">
														<name>CC0017_01</name>
														<duration>478461</duration>
														<rate>
															<ntsc>TRUE</ntsc>
															<timebase>24</timebase>
														</rate>
														<in>0</in>
														<out>478461</out>
														<start>0</start>
														<end>478461</end>
														<pixelaspectratio>Square</pixelaspectratio>
														<anamorphic>FALSE</anamorphic>
														<alphatype>none</alphatype>
														<masterclipid>CC0017_01 1</masterclipid>
														<syncoffset>0</syncoffset>
														<logginginfo>
															<scene/>
															<shottake/>
															<lognote/>
															<good>FALSE</good>
														</logginginfo>
														<labels>
															<label>Good Take</label>
															<label2/>
														</labels>
														<comments>
															<mastercomment1/>
															<mastercomment2/>
															<mastercomment3/>
															<mastercomment4/>
														</comments>
														<file id="CC0017_01 3"/>
														<sourcetrack>
															<mediatype>video</mediatype>
														</sourcetrack>
														<link>
															<linkclipref>CC0017_01 7</linkclipref>
															<mediatype>video</mediatype>
															<trackindex>1</trackindex>
															<clipindex>1</clipindex>
														</link>
														<link>
															<linkclipref>CC0017_01 8</linkclipref>
															<mediatype>audio</mediatype>
															<trackindex>1</trackindex>
															<clipindex>1</clipindex>
														</link>
														<link>
															<linkclipref>CC0017_01 9</linkclipref>
															<mediatype>audio</mediatype>
															<trackindex>2</trackindex>
															<clipindex>1</clipindex>
														</link>
														<fielddominance>none</fielddominance>
														<mediadelay>462261</mediadelay>
														<itemhistory>
															<uuid>E81EE720-AE17-4813-B24E-475BFB468EBA</uuid>
														</itemhistory>
													</clipitem>
													<enabled>TRUE</enabled>
													<locked>FALSE</locked>
												</track>
											</video>
											<audio>
												<in>-1</in>
												<out>-1</out>
												<track>
													<clipitem id="CC0017_01 8">
														<name>CC0017_01</name>
														<duration>478461</duration>
														<rate>
															<ntsc>TRUE</ntsc>
															<timebase>24</timebase>
														</rate>
														<in>0</in>
														<out>478461</out>
														<start>0</start>
														<end>478461</end>
														<subframeoffset>0</subframeoffset>
														<anamorphic>FALSE</anamorphic>
														<masterclipid>CC0017_01 1</masterclipid>
														<syncoffset>0</syncoffset>
														<logginginfo>
															<scene/>
															<shottake/>
															<lognote/>
															<good>FALSE</good>
														</logginginfo>
														<labels>
															<label>Good Take</label>
															<label2/>
														</labels>
														<comments>
															<mastercomment1/>
															<mastercomment2/>
															<mastercomment3/>
															<mastercomment4/>
														</comments>
														<file id="CC0017_01 3"/>
														<filter>
															<effect>
																<name>Audio Levels</name>
																<effectid>audiolevels</effectid>
																<effectcategory>audiolevels</effectcategory>
																<effecttype>audiolevels</effecttype>
																<mediatype>audio</mediatype>
																<parameter>
																	<name>Level</name>
																	<parameterid>level</parameterid>
																	<valuemin>0</valuemin>
																	<valuemax>3.98109</valuemax>
																	<value>1</value>
																</parameter>
															</effect>
														</filter>
														<filter>
															<effect>
																<name>Audio Pan</name>
																<effectid>audiopan</effectid>
																<effectcategory>audiopan</effectcategory>
																<effecttype>audiopan</effecttype>
																<mediatype>audio</mediatype>
																<parameter>
																	<name>Pan</name>
																	<parameterid>pan</parameterid>
																	<valuemin>-1</valuemin>
																	<valuemax>1</valuemax>
																	<value>0</value>
																</parameter>
															</effect>
														</filter>
														<sourcetrack>
															<mediatype>audio</mediatype>
															<trackindex>1</trackindex>
														</sourcetrack>
														<link>
															<linkclipref>CC0017_01 7</linkclipref>
															<mediatype>video</mediatype>
															<trackindex>1</trackindex>
															<clipindex>1</clipindex>
														</link>
														<link>
															<linkclipref>CC0017_01 8</linkclipref>
															<mediatype>audio</mediatype>
															<trackindex>1</trackindex>
															<clipindex>1</clipindex>
														</link>
														<link>
															<linkclipref>CC0017_01 9</linkclipref>
															<mediatype>audio</mediatype>
															<trackindex>2</trackindex>
															<clipindex>1</clipindex>
														</link>
														<mediadelay>462261</mediadelay>
														<itemhistory>
															<uuid>CE121172-42FC-4FDE-AE21-1862D08F41FE</uuid>
														</itemhistory>
													</clipitem>
													<enabled>TRUE</enabled>
													<locked>FALSE</locked>
												</track>
												<track>
													<clipitem id="CC0017_01 9">
														<name>CC0017_01</name>
														<duration>478461</duration>
														<rate>
															<ntsc>TRUE</ntsc>
															<timebase>24</timebase>
														</rate>
														<in>0</in>
														<out>478461</out>
														<start>0</start>
														<end>478461</end>
														<subframeoffset>0</subframeoffset>
														<anamorphic>FALSE</anamorphic>
														<masterclipid>CC0017_01 1</masterclipid>
														<syncoffset>0</syncoffset>
														<logginginfo>
															<scene/>
															<shottake/>
															<lognote/>
															<good>FALSE</good>
														</logginginfo>
														<labels>
															<label>Good Take</label>
															<label2/>
														</labels>
														<comments>
															<mastercomment1/>
															<mastercomment2/>
															<mastercomment3/>
															<mastercomment4/>
														</comments>
														<file id="CC0017_01 3"/>
														<filter>
															<effect>
																<name>Audio Levels</name>
																<effectid>audiolevels</effectid>
																<effectcategory>audiolevels</effectcategory>
																<effecttype>audiolevels</effecttype>
																<mediatype>audio</mediatype>
																<parameter>
																	<name>Level</name>
																	<parameterid>level</parameterid>
																	<valuemin>0</valuemin>
																	<valuemax>3.98109</valuemax>
																	<value>1</value>
																</parameter>
															</effect>
														</filter>
														<filter>
															<effect>
																<name>Audio Pan</name>
																<effectid>audiopan</effectid>
																<effectcategory>audiopan</effectcategory>
																<effecttype>audiopan</effecttype>
																<mediatype>audio</mediatype>
																<parameter>
																	<name>Pan</name>
																	<parameterid>pan</parameterid>
																	<valuemin>-1</valuemin>
																	<valuemax>1</valuemax>
																	<value>0</value>
																</parameter>
															</effect>
														</filter>
														<sourcetrack>
															<mediatype>audio</mediatype>
															<trackindex>2</trackindex>
														</sourcetrack>
														<link>
															<linkclipref>CC0017_01 7</linkclipref>
															<mediatype>video</mediatype>
															<trackindex>1</trackindex>
															<clipindex>1</clipindex>
														</link>
														<link>
															<linkclipref>CC0017_01 8</linkclipref>
															<mediatype>audio</mediatype>
															<trackindex>1</trackindex>
															<clipindex>1</clipindex>
														</link>
														<link>
															<linkclipref>CC0017_01 9</linkclipref>
															<mediatype>audio</mediatype>
															<trackindex>2</trackindex>
															<clipindex>1</clipindex>
														</link>
														<mediadelay>462261</mediadelay>
														<itemhistory>
															<uuid>8F9E0EAD-8198-4508-BB4A-B763AF2E5073</uuid>
														</itemhistory>
													</clipitem>
													<enabled>TRUE</enabled>
													<locked>FALSE</locked>
												</track>
												<filter>
													<effect>
														<name>Audio Levels</name>
														<effectid>audiolevels</effectid>
														<effectcategory>audiolevels</effectcategory>
														<effecttype>audiolevels</effecttype>
														<mediatype>audio</mediatype>
														<parameter>
															<name>Level</name>
															<parameterid>level</parameterid>
															<valuemin>0</valuemin>
															<valuemax>3.98109</valuemax>
															<value>1</value>
														</parameter>
													</effect>
												</filter>
											</audio>
										</media>
									</clip>
								</angle>
								<masterclipid>CC0001_01 6</masterclipid>
							</multiclip>
							<itemhistory>
								<uuid>E304CC81-8A54-4E13-999F-90B63265E64E</uuid>
							</itemhistory>
						</clipitem>
						<enabled>TRUE</enabled>
						<locked>FALSE</locked>
					</track>
				</video>
				<audio>
					<in>-1</in>
					<out>-1</out>
					<track>
						<clipitem id="CC0001_01 8">
							<name>CC0001_01</name>
							<duration>478461</duration>
							<rate>
								<ntsc>TRUE</ntsc>
								<timebase>24</timebase>
							</rate>
							<in>0</in>
							<out>478461</out>
							<start>0</start>
							<end>478461</end>
							<subframeoffset>0</subframeoffset>
							<masterclipid>CC0001_01 1</masterclipid>
							<syncoffset>0</syncoffset>
							<logginginfo>
								<scene/>
								<shottake/>
								<lognote/>
								<good>FALSE</good>
							</logginginfo>
							<labels>
								<label>Good Take</label>
								<label2/>
							</labels>
							<comments>
								<mastercomment1/>
								<mastercomment2/>
								<mastercomment3/>
								<mastercomment4/>
							</comments>
							<file id="CC0001_01 3"/>
							<filter>
								<effect>
									<name>Audio Levels</name>
									<effectid>audiolevels</effectid>
									<effectcategory>audiolevels</effectcategory>
									<effecttype>audiolevels</effecttype>
									<mediatype>audio</mediatype>
									<parameter>
										<name>Level</name>
										<parameterid>level</parameterid>
										<valuemin>0</valuemin>
										<valuemax>3.98109</valuemax>
										<value>1</value>
									</parameter>
								</effect>
							</filter>
							<filter>
								<effect>
									<name>Audio Pan</name>
									<effectid>audiopan</effectid>
									<effectcategory>audiopan</effectcategory>
									<effecttype>audiopan</effecttype>
									<mediatype>audio</mediatype>
									<parameter>
										<name>Pan</name>
										<parameterid>pan</parameterid>
										<valuemin>-1</valuemin>
										<valuemax>1</valuemax>
										<value>0</value>
									</parameter>
								</effect>
							</filter>
							<sourcetrack>
								<mediatype>audio</mediatype>
								<trackindex>1</trackindex>
							</sourcetrack>
							<link>
								<linkclipref>CC0001_01 7</linkclipref>
								<mediatype>video</mediatype>
								<trackindex>1</trackindex>
								<clipindex>1</clipindex>
							</link>
							<link>
								<linkclipref>CC0001_01 8</linkclipref>
								<mediatype>audio</mediatype>
								<trackindex>1</trackindex>
								<clipindex>1</clipindex>
							</link>
							<link>
								<linkclipref>CC0001_01 9</linkclipref>
								<mediatype>audio</mediatype>
								<trackindex>2</trackindex>
								<clipindex>1</clipindex>
							</link>
							<multiclip id="Multiclip 4 1"/>
							<itemhistory>
								<uuid>4E576483-A12A-48A8-A8CA-549290EEDA79</uuid>
							</itemhistory>
						</clipitem>
						<enabled>TRUE</enabled>
						<locked>FALSE</locked>
					</track>
					<track>
						<clipitem id="CC0001_01 9">
							<name>CC0001_01</name>
							<duration>478461</duration>
							<rate>
								<ntsc>TRUE</ntsc>
								<timebase>24</timebase>
							</rate>
							<in>0</in>
							<out>478461</out>
							<start>0</start>
							<end>478461</end>
							<subframeoffset>0</subframeoffset>
							<masterclipid>CC0001_01 1</masterclipid>
							<syncoffset>0</syncoffset>
							<logginginfo>
								<scene/>
								<shottake/>
								<lognote/>
								<good>FALSE</good>
							</logginginfo>
							<labels>
								<label>Good Take</label>
								<label2/>
							</labels>
							<comments>
								<mastercomment1/>
								<mastercomment2/>
								<mastercomment3/>
								<mastercomment4/>
							</comments>
							<file id="CC0001_01 3"/>
							<filter>
								<effect>
									<name>Audio Levels</name>
									<effectid>audiolevels</effectid>
									<effectcategory>audiolevels</effectcategory>
									<effecttype>audiolevels</effecttype>
									<mediatype>audio</mediatype>
									<parameter>
										<name>Level</name>
										<parameterid>level</parameterid>
										<valuemin>0</valuemin>
										<valuemax>3.98109</valuemax>
										<value>1</value>
									</parameter>
								</effect>
							</filter>
							<filter>
								<effect>
									<name>Audio Pan</name>
									<effectid>audiopan</effectid>
									<effectcategory>audiopan</effectcategory>
									<effecttype>audiopan</effecttype>
									<mediatype>audio</mediatype>
									<parameter>
										<name>Pan</name>
										<parameterid>pan</parameterid>
										<valuemin>-1</valuemin>
										<valuemax>1</valuemax>
										<value>0</value>
									</parameter>
								</effect>
							</filter>
							<sourcetrack>
								<mediatype>audio</mediatype>
								<trackindex>2</trackindex>
							</sourcetrack>
							<link>
								<linkclipref>CC0001_01 7</linkclipref>
								<mediatype>video</mediatype>
								<trackindex>1</trackindex>
								<clipindex>1</clipindex>
							</link>
							<link>
								<linkclipref>CC0001_01 8</linkclipref>
								<mediatype>audio</mediatype>
								<trackindex>1</trackindex>
								<clipindex>1</clipindex>
							</link>
							<link>
								<linkclipref>CC0001_01 9</linkclipref>
								<mediatype>audio</mediatype>
								<trackindex>2</trackindex>
								<clipindex>1</clipindex>
							</link>
							<multiclip id="Multiclip 4 1"/>
							<itemhistory>
								<uuid>3ABC2379-B27B-439D-BC62-A9CC8D1845D4</uuid>
							</itemhistory>
						</clipitem>
						<enabled>TRUE</enabled>
						<locked>FALSE</locked>
					</track>
					<filter>
						<effect>
							<name>Audio Levels</name>
							<effectid>audiolevels</effectid>
							<effectcategory>audiolevels</effectcategory>
							<effecttype>audiolevels</effecttype>
							<mediatype>audio</mediatype>
							<parameter>
								<name>Level</name>
								<parameterid>level</parameterid>
								<valuemin>0</valuemin>
								<valuemax>3.98109</valuemax>
								<value>1</value>
							</parameter>
						</effect>
					</filter>
				</audio>
			</media>
		</clip>
	</children>
</bin>
</xmeml>


