<?xml version='1.0' encoding='UTF-8'?>
<!DOCTYPE xmeml><xmeml version='5'>
<sequence id='S17_BD03_SEA_062013 '>
	<uuid>9616FDEF-54EF-4926-B394-8D85831E87C7</uuid>
	<updatebehavior>add</updatebehavior>
	<name>S17_BD03_SEA_062013</name>
	<duration>213253</duration>
	<rate>
		<ntsc>TRUE</ntsc>
		<timebase>24</timebase>
	</rate>
	<timecode>
		<rate>
			<ntsc>TRUE</ntsc>
			<timebase>24</timebase>
		</rate>
		<string>19:24:53:00</string>
		<frame>1677432</frame>
		<source>source</source>
		<displayformat>NDF</displayformat>
	</timecode>
	<in>-1</in>
	<out>-1</out>
	<media>
		<video>
			<format>
				<samplecharacteristics>
					<width>1920</width>
					<height>1080</height>
					<anamorphic>FALSE</anamorphic>
					<pixelaspectratio>Square</pixelaspectratio>
					<fielddominance>none</fielddominance>
					<rate>
						<ntsc>TRUE</ntsc>
						<timebase>24</timebase>
					</rate>
					<colordepth>24</colordepth>
					<codec>
						<name>Apple ProRes 422 (Proxy)</name>
						<appspecificdata>
							<appname>Final Cut Pro</appname>
							<appmanufacturer>Apple Inc.</appmanufacturer>
							<appversion>7.0</appversion>
							<data>
								<qtcodec>
									<codecname>Apple ProRes 422 (Proxy)</codecname>
									<codectypename>Apple ProRes 422 (Proxy)</codectypename>
									<codectypecode>apco</codectypecode>
									<codecvendorcode>appl</codecvendorcode>
									<spatialquality>1024</spatialquality>
									<temporalquality>0</temporalquality>
									<keyframerate>0</keyframerate>
									<datarate>0</datarate>
								</qtcodec>
							</data>
						</appspecificdata>
					</codec>
				</samplecharacteristics>
				<appspecificdata>
					<appname>Final Cut Pro</appname>
					<appmanufacturer>Apple Inc.</appmanufacturer>
					<appversion>7.0</appversion>
					<data>
						<fcpimageprocessing>
							<useyuv>TRUE</useyuv>
							<usesuperwhite>FALSE</usesuperwhite>
							<rendermode>YUV8BPP</rendermode>
						</fcpimageprocessing>
					</data>
				</appspecificdata>
			</format>
			<track>
				<clipitem id='AA0315_01 '>
					<name>AA0315_01</name>
					<duration>61704</duration>
					<rate>
						<ntsc>TRUE</ntsc>
						<timebase>24</timebase>
					</rate>
					<in>0</in>
					<out>61704</out>
					<start>3732</start>
					<end>65436</end>
					<pixelaspectratio>Square</pixelaspectratio>
					<enabled>TRUE</enabled>
					<anamorphic>FALSE</anamorphic>
					<alphatype>none</alphatype>
					<masterclipid>AA0315_01 1</masterclipid>
					<logginginfo>
						<scene/>
						<shottake/>
						<lognote/>
						<good>FALSE</good>
					</logginginfo>
					<labels>
						<label>Alternate Shots</label>
						<label2/>
					</labels>
					<comments>
						<mastercomment1/>
						<mastercomment2/>
						<mastercomment3/>
						<mastercomment4/>
					</comments>
					<file id='AA0315_01 2'>
						<name>AA0315_01.mov</name>
						<pathurl>file://localhost/Volumes/Share/Edit%20Share/00%20BREW%20DOGS%20S1/BD_03_Sattle/BD_03_Seattle_PROXY/01_Video/060313/C300/AA0315_01.mov</pathurl>
						<rate>
							<timebase>24</timebase>
							<ntsc>TRUE</ntsc>
						</rate>
						<duration>61704</duration>
						<metadata>
							<storage>QuickTime</storage>
							<key>com.apple.quicktime.creationdate</key>
							<size>24</size>
							<type>UTF8</type>
							<value>2013-06-03T19:27:29-0700</value>
						</metadata>
						<metadata>
							<storage>QuickTime</storage>
							<key>com.apple.proapps.reel</key>
							<size>12</size>
							<type>UTF8</type>
							<value>A05_verified</value>
						</metadata>
						<metadata>
							<storage>QuickTime</storage>
							<key>com.apple.finalcutstudio.media.uuid</key>
							<size>36</size>
							<type>UTF8</type>
							<value>61006626-F33D-4B86-9BAD-E7757CA48DB7</value>
						</metadata>
						<metadata>
							<storage>QuickTime</storage>
							<key>com.apple.finalcutstudio.media.history.uuid</key>
							<size>36</size>
							<type>UTF8</type>
							<value>35C1A6E4-0764-44F5-B575-E876A6CAC15B</value>
						</metadata>
						<metadata>
							<storage>QuickTime</storage>
							<key>com.apple.proapps.isGood</key>
							<size>4</size>
							<type>unsigned</type>
							<value>0</value>
						</metadata>
						<metadata>
							<storage>QuickTime</storage>
							<key>com.apple.proapps.clipID</key>
							<size>36</size>
							<type>UTF8</type>
							<value>0D01827C-4764-0580-0000-8500025A0F55</value>
						</metadata>
						<metadata>
							<storage>QuickTime</storage>
							<key>com.apple.proapps.originalFormat</key>
							<size>14</size>
							<type>UTF8</type>
							<value>Canon XF MPEG2</value>
						</metadata>
						<timecode>
							<rate>
								<timebase>24</timebase>
							</rate>
							<string>19:27:28:12</string>
							<frame>1681164</frame>
							<displayformat>NDF</displayformat>
							<source>source</source>
							<reel>
								<name>A05_verified</name>
							</reel>
						</timecode>
						<media>
							<video>
								<duration>61704</duration>
								<samplecharacteristics>
									<width>1920</width>
									<height>1080</height>
								</samplecharacteristics>
							</video>
							<audio>
								<samplecharacteristics>
									<samplerate>48000</samplerate>
									<depth>16</depth>
								</samplecharacteristics>
								<channelcount>1</channelcount>
								<layout>mono</layout>
								<audiochannel>
									<sourcechannel>1</sourcechannel>
									<channellabel>discrete</channellabel>
								</audiochannel>
							</audio>
							<audio>
								<samplecharacteristics>
									<samplerate>48000</samplerate>
									<depth>16</depth>
								</samplecharacteristics>
								<channelcount>1</channelcount>
								<layout>mono</layout>
								<audiochannel>
									<sourcechannel>2</sourcechannel>
									<channellabel>discrete</channellabel>
								</audiochannel>
							</audio>
						</media>
					</file>
					<filter>
						<effect>
							<name>Basic Motion</name>
							<effectid>basic</effectid>
							<effectcategory>motion</effectcategory>
							<effecttype>motion</effecttype>
							<mediatype>video</mediatype>
							<parameter>
								<parameterid>scale</parameterid>
								<name>Scale</name>
								<valuemin>0</valuemin>
								<valuemax>1000</valuemax>
								<value>100</value>
							</parameter>
							<parameter>
								<parameterid>rotation</parameterid>
								<name>Rotation</name>
								<valuemin>-8640</valuemin>
								<valuemax>8640</valuemax>
								<value>0</value>
							</parameter>
							<parameter>
								<parameterid>center</parameterid>
								<name>Center</name>
								<value>
									<horiz>0</horiz>
									<vert>0</vert>
								</value>
							</parameter>
							<parameter>
								<parameterid>centerOffset</parameterid>
								<name>Anchor Point</name>
								<value>
									<horiz>0</horiz>
									<vert>0</vert>
								</value>
							</parameter>
						</effect>
					</filter>
					<sourcetrack>
						<mediatype>video</mediatype>
					</sourcetrack>
					<link>
						<linkclipref>AA0315_01 </linkclipref>
						<mediatype>video</mediatype>
						<trackindex>1</trackindex>
						<clipindex>1</clipindex>
					</link>
					<fielddominance>none</fielddominance>
					<itemhistory>
						<uuid>59C8261E-43F2-4ABD-934B-3BDC0C8F5AA1</uuid>
					</itemhistory>
				</clipitem>
				<enabled>TRUE</enabled>
				<locked>FALSE</locked>
			</track>
			<track>
				<clipitem id='BB0209_01 '>
					<name>BB0209_01</name>
					<duration>1704</duration>
					<rate>
						<ntsc>TRUE</ntsc>
						<timebase>24</timebase>
					</rate>
					<in>0</in>
					<out>1704</out>
					<start>3565</start>
					<end>5269</end>
					<pixelaspectratio>Square</pixelaspectratio>
					<enabled>TRUE</enabled>
					<anamorphic>FALSE</anamorphic>
					<alphatype>none</alphatype>
					<masterclipid>BB0209_01 1</masterclipid>
					<logginginfo>
						<scene/>
						<shottake/>
						<lognote/>
						<good>FALSE</good>
					</logginginfo>
					<labels>
						<label>Best Take</label>
						<label2/>
					</labels>
					<comments>
						<mastercomment1/>
						<mastercomment2/>
						<mastercomment3/>
						<mastercomment4/>
					</comments>
					<file id='BB0209_01 2'>
						<name>BB0209_01.mov</name>
						<pathurl>file://localhost/Volumes/Share/Edit%20Share/00%20BREW%20DOGS%20S1/BD_03_Sattle/BD_03_Seattle_PROXY/01_Video/060313/C300/BB0209_01.mov</pathurl>
						<rate>
							<timebase>24</timebase>
							<ntsc>TRUE</ntsc>
						</rate>
						<duration>1704</duration>
						<metadata>
							<storage>QuickTime</storage>
							<key>com.apple.quicktime.creationdate</key>
							<size>24</size>
							<type>UTF8</type>
							<value>2013-06-03T19:26:40-0700</value>
						</metadata>
						<metadata>
							<storage>QuickTime</storage>
							<key>com.apple.proapps.reel</key>
							<size>12</size>
							<type>UTF8</type>
							<value>B05_verified</value>
						</metadata>
						<metadata>
							<storage>QuickTime</storage>
							<key>com.apple.finalcutstudio.media.uuid</key>
							<size>36</size>
							<type>UTF8</type>
							<value>9072200A-0B0C-4730-BEF1-B8E3E9FCCE2A</value>
						</metadata>
						<metadata>
							<storage>QuickTime</storage>
							<key>com.apple.finalcutstudio.media.history.uuid</key>
							<size>36</size>
							<type>UTF8</type>
							<value>159BEA96-7A33-4744-9B79-E8A141F7D02D</value>
						</metadata>
						<metadata>
							<storage>QuickTime</storage>
							<key>com.apple.proapps.isGood</key>
							<size>4</size>
							<type>unsigned</type>
							<value>0</value>
						</metadata>
						<metadata>
							<storage>QuickTime</storage>
							<key>com.apple.proapps.clipID</key>
							<size>36</size>
							<type>UTF8</type>
							<value>0D017700-4764-0580-0000-8500025A0AE7</value>
						</metadata>
						<metadata>
							<storage>QuickTime</storage>
							<key>com.apple.proapps.originalFormat</key>
							<size>14</size>
							<type>UTF8</type>
							<value>Canon XF MPEG2</value>
						</metadata>
						<timecode>
							<rate>
								<timebase>24</timebase>
							</rate>
							<string>19:27:21:13</string>
							<frame>1680997</frame>
							<displayformat>NDF</displayformat>
							<source>source</source>
							<reel>
								<name>B05_verified</name>
							</reel>
						</timecode>
						<media>
							<video>
								<duration>1704</duration>
								<samplecharacteristics>
									<width>1920</width>
									<height>1080</height>
								</samplecharacteristics>
							</video>
							<audio>
								<samplecharacteristics>
									<samplerate>48000</samplerate>
									<depth>16</depth>
								</samplecharacteristics>
								<channelcount>1</channelcount>
								<layout>mono</layout>
								<audiochannel>
									<sourcechannel>1</sourcechannel>
									<channellabel>discrete</channellabel>
								</audiochannel>
							</audio>
							<audio>
								<samplecharacteristics>
									<samplerate>48000</samplerate>
									<depth>16</depth>
								</samplecharacteristics>
								<channelcount>1</channelcount>
								<layout>mono</layout>
								<audiochannel>
									<sourcechannel>2</sourcechannel>
									<channellabel>discrete</channellabel>
								</audiochannel>
							</audio>
						</media>
					</file>
					<filter>
						<effect>
							<name>Basic Motion</name>
							<effectid>basic</effectid>
							<effectcategory>motion</effectcategory>
							<effecttype>motion</effecttype>
							<mediatype>video</mediatype>
							<parameter>
								<parameterid>scale</parameterid>
								<name>Scale</name>
								<valuemin>0</valuemin>
								<valuemax>1000</valuemax>
								<value>100</value>
							</parameter>
							<parameter>
								<parameterid>rotation</parameterid>
								<name>Rotation</name>
								<valuemin>-8640</valuemin>
								<valuemax>8640</valuemax>
								<value>0</value>
							</parameter>
							<parameter>
								<parameterid>center</parameterid>
								<name>Center</name>
								<value>
									<horiz>0</horiz>
									<vert>0</vert>
								</value>
							</parameter>
							<parameter>
								<parameterid>centerOffset</parameterid>
								<name>Anchor Point</name>
								<value>
									<horiz>0</horiz>
									<vert>0</vert>
								</value>
							</parameter>
						</effect>
					</filter>
					<sourcetrack>
						<mediatype>video</mediatype>
					</sourcetrack>
					<link>
						<linkclipref>BB0209_01 </linkclipref>
						<mediatype>video</mediatype>
						<trackindex>2</trackindex>
						<clipindex>1</clipindex>
					</link>
					<fielddominance>none</fielddominance>
					<itemhistory>
						<uuid>B33516E2-0700-49A4-91B2-33AA0983FEAF</uuid>
					</itemhistory>
				</clipitem>
				<clipitem id='BB0210_01 '>
					<name>BB0210_01</name>
					<duration>60096</duration>
					<rate>
						<ntsc>TRUE</ntsc>
						<timebase>24</timebase>
					</rate>
					<in>0</in>
					<out>60096</out>
					<start>77202</start>
					<end>137298</end>
					<pixelaspectratio>Square</pixelaspectratio>
					<enabled>TRUE</enabled>
					<anamorphic>FALSE</anamorphic>
					<alphatype>none</alphatype>
					<masterclipid>BB0210_01 1</masterclipid>
					<logginginfo>
						<scene/>
						<shottake/>
						<lognote/>
						<good>FALSE</good>
					</logginginfo>
					<labels>
						<label>Best Take</label>
						<label2/>
					</labels>
					<comments>
						<mastercomment1/>
						<mastercomment2/>
						<mastercomment3/>
						<mastercomment4/>
					</comments>
					<file id='BB0210_01 2'>
						<name>BB0210_01.mov</name>
						<pathurl>file://localhost/Volumes/Share/Edit%20Share/00%20BREW%20DOGS%20S1/BD_03_Sattle/BD_03_Seattle_PROXY/01_Video/060313/C300/BB0210_01.mov</pathurl>
						<rate>
							<timebase>24</timebase>
							<ntsc>TRUE</ntsc>
						</rate>
						<duration>60096</duration>
						<metadata>
							<storage>QuickTime</storage>
							<key>com.apple.quicktime.creationdate</key>
							<size>24</size>
							<type>UTF8</type>
							<value>2013-06-03T19:27:54-0700</value>
						</metadata>
						<metadata>
							<storage>QuickTime</storage>
							<key>com.apple.proapps.reel</key>
							<size>12</size>
							<type>UTF8</type>
							<value>B05_verified</value>
						</metadata>
						<metadata>
							<storage>QuickTime</storage>
							<key>com.apple.finalcutstudio.media.uuid</key>
							<size>36</size>
							<type>UTF8</type>
							<value>5583F73B-7D37-4567-9EE8-DDB6B69E039B</value>
						</metadata>
						<metadata>
							<storage>QuickTime</storage>
							<key>com.apple.finalcutstudio.media.history.uuid</key>
							<size>36</size>
							<type>UTF8</type>
							<value>AA85EB88-0C81-47E8-AF4D-029780FB2292</value>
						</metadata>
						<metadata>
							<storage>QuickTime</storage>
							<key>com.apple.proapps.isGood</key>
							<size>4</size>
							<type>unsigned</type>
							<value>0</value>
						</metadata>
						<metadata>
							<storage>QuickTime</storage>
							<key>com.apple.proapps.clipID</key>
							<size>36</size>
							<type>UTF8</type>
							<value>0D018858-4764-0580-0000-8500025A0AE7</value>
						</metadata>
						<metadata>
							<storage>QuickTime</storage>
							<key>com.apple.proapps.originalFormat</key>
							<size>14</size>
							<type>UTF8</type>
							<value>Canon XF MPEG2</value>
						</metadata>
						<timecode>
							<rate>
								<timebase>24</timebase>
							</rate>
							<string>19:28:36:09</string>
							<frame>1682793</frame>
							<displayformat>NDF</displayformat>
							<source>source</source>
							<reel>
								<name>B05_verified</name>
							</reel>
						</timecode>
						<media>
							<video>
								<duration>60096</duration>
								<samplecharacteristics>
									<width>1920</width>
									<height>1080</height>
								</samplecharacteristics>
							</video>
							<audio>
								<samplecharacteristics>
									<samplerate>48000</samplerate>
									<depth>16</depth>
								</samplecharacteristics>
								<channelcount>1</channelcount>
								<layout>mono</layout>
								<audiochannel>
									<sourcechannel>1</sourcechannel>
									<channellabel>discrete</channellabel>
								</audiochannel>
							</audio>
							<audio>
								<samplecharacteristics>
									<samplerate>48000</samplerate>
									<depth>16</depth>
								</samplecharacteristics>
								<channelcount>1</channelcount>
								<layout>mono</layout>
								<audiochannel>
									<sourcechannel>2</sourcechannel>
									<channellabel>discrete</channellabel>
								</audiochannel>
							</audio>
						</media>
					</file>
					<filter>
						<effect>
							<name>Basic Motion</name>
							<effectid>basic</effectid>
							<effectcategory>motion</effectcategory>
							<effecttype>motion</effecttype>
							<mediatype>video</mediatype>
							<parameter>
								<parameterid>scale</parameterid>
								<name>Scale</name>
								<valuemin>0</valuemin>
								<valuemax>1000</valuemax>
								<value>100</value>
							</parameter>
							<parameter>
								<parameterid>rotation</parameterid>
								<name>Rotation</name>
								<valuemin>-8640</valuemin>
								<valuemax>8640</valuemax>
								<value>0</value>
							</parameter>
							<parameter>
								<parameterid>center</parameterid>
								<name>Center</name>
								<value>
									<horiz>0</horiz>
									<vert>0</vert>
								</value>
							</parameter>
							<parameter>
								<parameterid>centerOffset</parameterid>
								<name>Anchor Point</name>
								<value>
									<horiz>0</horiz>
									<vert>0</vert>
								</value>
							</parameter>
						</effect>
					</filter>
					<sourcetrack>
						<mediatype>video</mediatype>
					</sourcetrack>
					<link>
						<linkclipref>BB0210_01 </linkclipref>
						<mediatype>video</mediatype>
						<trackindex>2</trackindex>
						<clipindex>2</clipindex>
					</link>
					<fielddominance>none</fielddominance>
					<itemhistory>
						<uuid>A4B798BA-BEE6-4282-8CF9-A88223215289</uuid>
					</itemhistory>
				</clipitem>
				<enabled>TRUE</enabled>
				<locked>FALSE</locked>
			</track>
			<track>
				<enabled>TRUE</enabled>
				<locked>FALSE</locked>
			</track>
			<track>
				<clipitem id='ARM_2931 '>
					<name>ARM_2931</name>
					<duration>19464</duration>
					<rate>
						<ntsc>TRUE</ntsc>
						<timebase>24</timebase>
					</rate>
					<in>0</in>
					<out>19464</out>
					<start>3614</start>
					<end>23078</end>
					<pixelaspectratio>Square</pixelaspectratio>
					<enabled>TRUE</enabled>
					<anamorphic>FALSE</anamorphic>
					<alphatype>none</alphatype>
					<masterclipid>ARM_2931 1</masterclipid>
					<logginginfo>
						<scene/>
						<shottake/>
						<lognote/>
						<good>FALSE</good>
					</logginginfo>
					<labels>
						<label>B Roll</label>
						<label2/>
					</labels>
					<comments>
						<mastercomment1/>
						<mastercomment2/>
						<mastercomment3/>
						<mastercomment4/>
					</comments>
					<file id='ARM_2931 2'>
						<name>ARM_2931.mov</name>
						<pathurl>file://localhost/Volumes/Share/Edit%20Share/00%20BREW%20DOGS%20S1/BD_03_Sattle/BD_03_Seattle_PROXY/01_Video/060313/Dslr/ARM_2931.mov</pathurl>
						<rate>
							<timebase>24</timebase>
							<ntsc>TRUE</ntsc>
						</rate>
						<duration>19464</duration>
						<metadata>
							<storage>QuickTime</storage>
							<key>com.apple.finalcutstudio.media.uuid</key>
							<size>36</size>
							<type>UTF8</type>
							<value>42F6E107-D1A2-4C39-8CD9-DAF70EC56523</value>
						</metadata>
						<timecode>
							<rate>
								<timebase>24</timebase>
							</rate>
							<string>19:27:23:14</string>
							<frame>1681046</frame>
							<displayformat>NDF</displayformat>
							<source>source</source>
							<reel>
								<name>NoName</name>
							</reel>
						</timecode>
						<media>
							<video>
								<duration>19464</duration>
								<samplecharacteristics>
									<width>1920</width>
									<height>1080</height>
								</samplecharacteristics>
							</video>
						</media>
					</file>
					<filter>
						<effect>
							<name>Basic Motion</name>
							<effectid>basic</effectid>
							<effectcategory>motion</effectcategory>
							<effecttype>motion</effecttype>
							<mediatype>video</mediatype>
							<parameter>
								<parameterid>scale</parameterid>
								<name>Scale</name>
								<valuemin>0</valuemin>
								<valuemax>1000</valuemax>
								<value>100</value>
							</parameter>
							<parameter>
								<parameterid>rotation</parameterid>
								<name>Rotation</name>
								<valuemin>-8640</valuemin>
								<valuemax>8640</valuemax>
								<value>0</value>
							</parameter>
							<parameter>
								<parameterid>center</parameterid>
								<name>Center</name>
								<value>
									<horiz>0</horiz>
									<vert>0</vert>
								</value>
							</parameter>
							<parameter>
								<parameterid>centerOffset</parameterid>
								<name>Anchor Point</name>
								<value>
									<horiz>0</horiz>
									<vert>0</vert>
								</value>
							</parameter>
						</effect>
					</filter>
					<sourcetrack>
						<mediatype>video</mediatype>
					</sourcetrack>
					<fielddominance>none</fielddominance>
					<itemhistory>
						<uuid>2D455C80-A830-4FFB-AE22-E2A38FA15EE9</uuid>
					</itemhistory>
				</clipitem>
				<clipitem id='ARM_2933 '>
					<name>ARM_2933</name>
					<duration>3392</duration>
					<rate>
						<ntsc>TRUE</ntsc>
						<timebase>24</timebase>
					</rate>
					<in>0</in>
					<out>3392</out>
					<start>59595</start>
					<end>62987</end>
					<pixelaspectratio>Square</pixelaspectratio>
					<enabled>TRUE</enabled>
					<anamorphic>FALSE</anamorphic>
					<alphatype>none</alphatype>
					<masterclipid>ARM_2933 1</masterclipid>
					<logginginfo>
						<scene/>
						<shottake/>
						<lognote/>
						<good>FALSE</good>
					</logginginfo>
					<labels>
						<label>B Roll</label>
						<label2/>
					</labels>
					<comments>
						<mastercomment1/>
						<mastercomment2/>
						<mastercomment3/>
						<mastercomment4/>
					</comments>
					<file id='ARM_2933 2'>
						<name>ARM_2933.mov</name>
						<pathurl>file://localhost/Volumes/Share/Edit%20Share/00%20BREW%20DOGS%20S1/BD_03_Sattle/BD_03_Seattle_PROXY/01_Video/060313/Dslr/ARM_2933.mov</pathurl>
						<rate>
							<timebase>24</timebase>
							<ntsc>TRUE</ntsc>
						</rate>
						<duration>3392</duration>
						<metadata>
							<storage>QuickTime</storage>
							<key>com.apple.finalcutstudio.media.uuid</key>
							<size>36</size>
							<type>UTF8</type>
							<value>57032694-EB2E-48F0-8741-7113AFF4A617</value>
						</metadata>
						<timecode>
							<rate>
								<timebase>24</timebase>
							</rate>
							<string>19:54:59:14</string>
							<frame>1720790</frame>
							<displayformat>NDF</displayformat>
							<source>source</source>
							<reel>
								<name>NoName</name>
							</reel>
						</timecode>
						<media>
							<video>
								<duration>3392</duration>
								<samplecharacteristics>
									<width>1920</width>
									<height>1080</height>
								</samplecharacteristics>
							</video>
						</media>
					</file>
					<filter>
						<effect>
							<name>Basic Motion</name>
							<effectid>basic</effectid>
							<effectcategory>motion</effectcategory>
							<effecttype>motion</effecttype>
							<mediatype>video</mediatype>
							<parameter>
								<parameterid>scale</parameterid>
								<name>Scale</name>
								<valuemin>0</valuemin>
								<valuemax>1000</valuemax>
								<value>100</value>
							</parameter>
							<parameter>
								<parameterid>rotation</parameterid>
								<name>Rotation</name>
								<valuemin>-8640</valuemin>
								<valuemax>8640</valuemax>
								<value>0</value>
							</parameter>
							<parameter>
								<parameterid>center</parameterid>
								<name>Center</name>
								<value>
									<horiz>0</horiz>
									<vert>0</vert>
								</value>
							</parameter>
							<parameter>
								<parameterid>centerOffset</parameterid>
								<name>Anchor Point</name>
								<value>
									<horiz>0</horiz>
									<vert>0</vert>
								</value>
							</parameter>
						</effect>
					</filter>
					<sourcetrack>
						<mediatype>video</mediatype>
					</sourcetrack>
					<fielddominance>none</fielddominance>
					<itemhistory>
						<uuid>3AD74D52-32C4-48F3-A29C-D2F58680E2CA</uuid>
					</itemhistory>
				</clipitem>
				<clipitem id='ARM_2934 '>
					<name>ARM_2934</name>
					<duration>16788</duration>
					<rate>
						<ntsc>TRUE</ntsc>
						<timebase>24</timebase>
					</rate>
					<in>0</in>
					<out>16788</out>
					<start>75948</start>
					<end>92736</end>
					<pixelaspectratio>Square</pixelaspectratio>
					<enabled>TRUE</enabled>
					<anamorphic>FALSE</anamorphic>
					<alphatype>none</alphatype>
					<masterclipid>ARM_2934 1</masterclipid>
					<logginginfo>
						<scene/>
						<shottake/>
						<lognote/>
						<good>FALSE</good>
					</logginginfo>
					<labels>
						<label>B Roll</label>
						<label2/>
					</labels>
					<comments>
						<mastercomment1/>
						<mastercomment2/>
						<mastercomment3/>
						<mastercomment4/>
					</comments>
					<file id='ARM_2934 2'>
						<name>ARM_2934.mov</name>
						<pathurl>file://localhost/Volumes/Share/Edit%20Share/00%20BREW%20DOGS%20S1/BD_03_Sattle/BD_03_Seattle_PROXY/01_Video/060313/Dslr/ARM_2934.mov</pathurl>
						<rate>
							<timebase>24</timebase>
							<ntsc>TRUE</ntsc>
						</rate>
						<duration>16788</duration>
						<metadata>
							<storage>QuickTime</storage>
							<key>com.apple.finalcutstudio.media.uuid</key>
							<size>36</size>
							<type>UTF8</type>
							<value>39229332-56F6-4681-967C-092DA02F8DE9</value>
						</metadata>
						<timecode>
							<rate>
								<timebase>24</timebase>
							</rate>
							<string>19:57:24:20</string>
							<frame>1724276</frame>
							<displayformat>NDF</displayformat>
							<source>source</source>
							<reel>
								<name>NoName</name>
							</reel>
						</timecode>
						<media>
							<video>
								<duration>16788</duration>
								<samplecharacteristics>
									<width>1920</width>
									<height>1080</height>
								</samplecharacteristics>
							</video>
						</media>
					</file>
					<filter>
						<effect>
							<name>Basic Motion</name>
							<effectid>basic</effectid>
							<effectcategory>motion</effectcategory>
							<effecttype>motion</effecttype>
							<mediatype>video</mediatype>
							<parameter>
								<parameterid>scale</parameterid>
								<name>Scale</name>
								<valuemin>0</valuemin>
								<valuemax>1000</valuemax>
								<value>100</value>
							</parameter>
							<parameter>
								<parameterid>rotation</parameterid>
								<name>Rotation</name>
								<valuemin>-8640</valuemin>
								<valuemax>8640</valuemax>
								<value>0</value>
							</parameter>
							<parameter>
								<parameterid>center</parameterid>
								<name>Center</name>
								<value>
									<horiz>0</horiz>
									<vert>0</vert>
								</value>
							</parameter>
							<parameter>
								<parameterid>centerOffset</parameterid>
								<name>Anchor Point</name>
								<value>
									<horiz>0</horiz>
									<vert>0</vert>
								</value>
							</parameter>
						</effect>
					</filter>
					<sourcetrack>
						<mediatype>video</mediatype>
					</sourcetrack>
					<fielddominance>none</fielddominance>
					<itemhistory>
						<uuid>D1DA6158-BABE-4A05-ABA9-EF414B2617DA</uuid>
					</itemhistory>
				</clipitem>
				<clipitem id='ARM_2932 '>
					<name>ARM_2932</name>
					<duration>20280</duration>
					<rate>
						<ntsc>TRUE</ntsc>
						<timebase>24</timebase>
					</rate>
					<in>0</in>
					<out>20280</out>
					<start>101199</start>
					<end>121479</end>
					<pixelaspectratio>Square</pixelaspectratio>
					<anamorphic>FALSE</anamorphic>
					<alphatype>none</alphatype>
					<masterclipid>ARM_2932 1</masterclipid>
					<logginginfo>
						<scene/>
						<shottake/>
						<lognote/>
						<good>FALSE</good>
					</logginginfo>
					<labels>
						<label>B Roll</label>
						<label2/>
					</labels>
					<comments>
						<mastercomment1/>
						<mastercomment2/>
						<mastercomment3/>
						<mastercomment4/>
					</comments>
					<file id='ARM_2932 2'>
						<name>ARM_2932.mov</name>
						<pathurl>file://localhost/Volumes/Share/Edit%20Share/00%20BREW%20DOGS%20S1/BD_03_Sattle/BD_03_Seattle_PROXY/01_Video/060313/Dslr/ARM_2932.mov</pathurl>
						<rate>
							<timebase>24</timebase>
							<ntsc>TRUE</ntsc>
						</rate>
						<duration>20280</duration>
						<metadata>
							<storage>QuickTime</storage>
							<key>com.apple.finalcutstudio.media.uuid</key>
							<size>36</size>
							<type>UTF8</type>
							<value>31E89F5E-DF8E-4CFC-B09D-35EA23BB3475</value>
						</metadata>
						<timecode>
							<rate>
								<timebase>24</timebase>
							</rate>
							<string>19:40:54:14</string>
							<frame>1700510</frame>
							<displayformat>NDF</displayformat>
							<source>source</source>
							<reel>
								<name>NoName</name>
							</reel>
						</timecode>
						<media>
							<video>
								<duration>20280</duration>
								<samplecharacteristics>
									<width>1920</width>
									<height>1080</height>
								</samplecharacteristics>
							</video>
						</media>
					</file>
					<filter>
						<effect>
							<name>Basic Motion</name>
							<effectid>basic</effectid>
							<effectcategory>motion</effectcategory>
							<effecttype>motion</effecttype>
							<mediatype>video</mediatype>
							<parameter>
								<parameterid>scale</parameterid>
								<name>Scale</name>
								<valuemin>0</valuemin>
								<valuemax>1000</valuemax>
								<value>100</value>
							</parameter>
							<parameter>
								<parameterid>rotation</parameterid>
								<name>Rotation</name>
								<valuemin>-8640</valuemin>
								<valuemax>8640</valuemax>
								<value>0</value>
							</parameter>
							<parameter>
								<parameterid>center</parameterid>
								<name>Center</name>
								<value>
									<horiz>0</horiz>
									<vert>0</vert>
								</value>
							</parameter>
							<parameter>
								<parameterid>centerOffset</parameterid>
								<name>Anchor Point</name>
								<value>
									<horiz>0</horiz>
									<vert>0</vert>
								</value>
							</parameter>
						</effect>
					</filter>
					<sourcetrack>
						<mediatype>video</mediatype>
					</sourcetrack>
					<fielddominance>none</fielddominance>
					<itemhistory>
						<uuid>B8DEC0DE-A4E0-4C16-B231-3E068726713D</uuid>
					</itemhistory>
				</clipitem>
				<enabled>TRUE</enabled>
				<locked>FALSE</locked>
			</track>
		</video>
		<audio>
			<format>
				<samplecharacteristics>
					<depth>16</depth>
					<samplerate>48000</samplerate>
				</samplecharacteristics>
			</format>
			<outputs>
				<group>
					<index>1</index>
					<numchannels>2</numchannels>
					<downmix>0</downmix>
					<channel>
						<index>1</index>
					</channel>
					<channel>
						<index>2</index>
					</channel>
				</group>
			</outputs>
			<in>-1</in>
			<out>-1</out>
			<track>
				<enabled>FALSE</enabled>
				<locked>FALSE</locked>
				<outputchannelindex>1</outputchannelindex>
			</track>
			<track>
				<enabled>FALSE</enabled>
				<locked>FALSE</locked>
				<outputchannelindex>2</outputchannelindex>
			</track>
			<track>
				<enabled>FALSE</enabled>
				<locked>FALSE</locked>
				<outputchannelindex>1</outputchannelindex>
			</track>
			<track>
				<enabled>FALSE</enabled>
				<locked>FALSE</locked>
				<outputchannelindex>2</outputchannelindex>
			</track>
			<track>
				<enabled>FALSE</enabled>
				<locked>FALSE</locked>
				<outputchannelindex>1</outputchannelindex>
			</track>
			<track>
				<enabled>FALSE</enabled>
				<locked>FALSE</locked>
				<outputchannelindex>2</outputchannelindex>
			</track>
			<track>
				<enabled>TRUE</enabled>
				<locked>FALSE</locked>
				<outputchannelindex>1</outputchannelindex>
			</track>
			<track>
				<clipitem id='COFFEET_060313_05.WAV'>
					<name>COFFEET_060313_05.WAV</name>
					<duration>5904</duration>
					<rate>
						<ntsc>TRUE</ntsc>
						<timebase>24</timebase>
					</rate>
					<in>0</in>
					<out>5904</out>
					<start>59760</start>
					<end>65664</end>
					<masterclipid>COFFEET_060313_05.WAV1</masterclipid>
					<logginginfo>
						<scene>COFFEE</scene>
						<shottake>05</shottake>
						<lognote/>
						<good>FALSE</good>
					</logginginfo>
					<labels>
						<label>Interviews</label>
						<label2/>
					</labels>
					<comments>
						<mastercomment1/>
						<mastercomment2/>
						<mastercomment3/>
						<mastercomment4/>
					</comments>
					<file id='COFFEET_060313_05 '>
						<name>COFFEET_060313_05.WAV</name>
						<pathurl>file://localhost/Volumes/Share/Edit%20Share/00%20BREW%20DOGS%20S1/BD_03_Sattle/BD_03_Seattle_PROXY/00_Audio/060313/COFFEET_060313_05.WAV</pathurl>
						<rate>
							<timebase>24</timebase>
							<ntsc>TRUE</ntsc>
						</rate>
						<duration>5904</duration>
						<timecode>
							<rate>
								<timebase>24</timebase>
							</rate>
							<string>20:06:23:00</string>
							<frame>1737192</frame>
							<displayformat>NDF</displayformat>
							<source>source</source>
							<reel>
								<name>13Y06M03</name>
							</reel>
						</timecode>
						<media>
							<audio>
								<samplecharacteristics>
									<samplerate>48000</samplerate>
									<depth>24</depth>
								</samplecharacteristics>
								<channelcount>5</channelcount>
							</audio>
						</media>
					</file>
					<filter>
						<effect>
							<name>Audio Levels</name>
							<effectid>audiolevels</effectid>
							<effectcategory>audiolevels</effectcategory>
							<effecttype>audiolevels</effecttype>
							<mediatype>audio</mediatype>
							<parameter>
								<name>Level</name>
								<parameterid>level</parameterid>
								<valuemin>0</valuemin>
								<valuemax>3.98109</valuemax>
								<value>1</value>
							</parameter>
						</effect>
					</filter>
					<filter>
						<effect>
							<name>Audio Pan</name>
							<effectid>audiopan</effectid>
							<effectcategory>audiopan</effectcategory>
							<effecttype>audiopan</effecttype>
							<mediatype>audio</mediatype>
							<parameter>
								<name>Pan</name>
								<parameterid>pan</parameterid>
								<valuemin>-1</valuemin>
								<valuemax>1</valuemax>
								<value>0</value>
							</parameter>
						</effect>
					</filter>
					<sourcetrack>
						<mediatype>audio</mediatype>
						<trackindex>1</trackindex>
					</sourcetrack>
					<link>
						<linkclipref>COFFEET_060313_05.WAV</linkclipref>
						<mediatype>audio</mediatype>
						<trackindex>8</trackindex>
						<clipindex>1</clipindex>
					</link>
					<link>
						<linkclipref>COFFEET_060313_05.WAV2</linkclipref>
						<mediatype>audio</mediatype>
						<trackindex>9</trackindex>
						<clipindex>1</clipindex>
					</link>
					<link>
						<linkclipref>COFFEET_060313_05.WAV3</linkclipref>
						<mediatype>audio</mediatype>
						<trackindex>10</trackindex>
						<clipindex>1</clipindex>
					</link>
					<link>
						<linkclipref>COFFEET_060313_05.WAV4</linkclipref>
						<mediatype>audio</mediatype>
						<trackindex>11</trackindex>
						<clipindex>1</clipindex>
					</link>
					<link>
						<linkclipref>COFFEET_060313_05.WAV5</linkclipref>
						<mediatype>audio</mediatype>
						<trackindex>12</trackindex>
						<clipindex>1</clipindex>
					</link>
					<itemhistory>
						<uuid>CA531904-DA75-495B-BFF5-7A8C013613CD</uuid>
					</itemhistory>
				</clipitem>
				<clipitem id='COFFEET_060313_04.WAV'>
					<name>COFFEET_060313_04.WAV</name>
					<duration>59760</duration>
					<rate>
						<ntsc>TRUE</ntsc>
						<timebase>24</timebase>
					</rate>
					<in>0</in>
					<out>59760</out>
					<start>152106</start>
					<end>211866</end>
					<enabled>TRUE</enabled>
					<masterclipid>COFFEET_060313_04.WAV1</masterclipid>
					<logginginfo>
						<scene>COFFEE</scene>
						<shottake>04</shottake>
						<lognote/>
						<good>FALSE</good>
					</logginginfo>
					<labels>
						<label>Interviews</label>
						<label2/>
					</labels>
					<comments>
						<mastercomment1/>
						<mastercomment2/>
						<mastercomment3/>
						<mastercomment4/>
					</comments>
					<file id='COFFEET_060313_04 '>
						<name>COFFEET_060313_04.WAV</name>
						<pathurl>file://localhost/Volumes/Share/Edit%20Share/00%20BREW%20DOGS%20S1/BD_03_Sattle/BD_03_Seattle_PROXY/00_Audio/060313/COFFEET_060313_04.WAV</pathurl>
						<rate>
							<timebase>24</timebase>
							<ntsc>TRUE</ntsc>
						</rate>
						<duration>59760</duration>
						<timecode>
							<rate>
								<timebase>24</timebase>
							</rate>
							<string>19:24:53:00</string>
							<frame>1677432</frame>
							<displayformat>NDF</displayformat>
							<source>source</source>
							<reel>
								<name>13Y06M03</name>
							</reel>
						</timecode>
						<media>
							<audio>
								<samplecharacteristics>
									<samplerate>48000</samplerate>
									<depth>24</depth>
								</samplecharacteristics>
								<channelcount>5</channelcount>
							</audio>
						</media>
					</file>
					<marker>
						<name>19:24:54:03</name>
						<comment/>
						<color>
							<alpha>0</alpha>
							<red>255</red>
							<green>0</green>
							<blue>0</blue>
						</color>
						<in>27</in>
						<out>-1</out>
					</marker>
					<filter>
						<effect>
							<name>Audio Levels</name>
							<effectid>audiolevels</effectid>
							<effectcategory>audiolevels</effectcategory>
							<effecttype>audiolevels</effecttype>
							<mediatype>audio</mediatype>
							<parameter>
								<name>Level</name>
								<parameterid>level</parameterid>
								<valuemin>0</valuemin>
								<valuemax>3.98109</valuemax>
								<value>1</value>
							</parameter>
						</effect>
					</filter>
					<filter>
						<effect>
							<name>Audio Pan</name>
							<effectid>audiopan</effectid>
							<effectcategory>audiopan</effectcategory>
							<effecttype>audiopan</effecttype>
							<mediatype>audio</mediatype>
							<parameter>
								<name>Pan</name>
								<parameterid>pan</parameterid>
								<valuemin>-1</valuemin>
								<valuemax>1</valuemax>
								<value>0</value>
							</parameter>
						</effect>
					</filter>
					<sourcetrack>
						<mediatype>audio</mediatype>
						<trackindex>1</trackindex>
					</sourcetrack>
					<link>
						<linkclipref>COFFEET_060313_04.WAV</linkclipref>
						<mediatype>audio</mediatype>
						<trackindex>8</trackindex>
						<clipindex>2</clipindex>
					</link>
					<link>
						<linkclipref>COFFEET_060313_04.WAV2</linkclipref>
						<mediatype>audio</mediatype>
						<trackindex>9</trackindex>
						<clipindex>2</clipindex>
					</link>
					<link>
						<linkclipref>COFFEET_060313_04.WAV3</linkclipref>
						<mediatype>audio</mediatype>
						<trackindex>10</trackindex>
						<clipindex>2</clipindex>
					</link>
					<link>
						<linkclipref>COFFEET_060313_04.WAV4</linkclipref>
						<mediatype>audio</mediatype>
						<trackindex>11</trackindex>
						<clipindex>2</clipindex>
					</link>
					<link>
						<linkclipref>COFFEET_060313_04.WAV5</linkclipref>
						<mediatype>audio</mediatype>
						<trackindex>12</trackindex>
						<clipindex>2</clipindex>
					</link>
					<itemhistory>
						<uuid>09F6115B-8E6A-4E1E-8C18-B97B53CD36EE</uuid>
					</itemhistory>
				</clipitem>
				<enabled>TRUE</enabled>
				<locked>FALSE</locked>
				<outputchannelindex>2</outputchannelindex>
			</track>
			<track>
				<clipitem id='COFFEET_060313_05.WAV2'>
					<name>COFFEET_060313_05.WAV</name>
					<duration>5904</duration>
					<rate>
						<ntsc>TRUE</ntsc>
						<timebase>24</timebase>
					</rate>
					<in>0</in>
					<out>5904</out>
					<start>59760</start>
					<end>65664</end>
					<masterclipid>COFFEET_060313_05.WAV1</masterclipid>
					<logginginfo>
						<scene>COFFEE</scene>
						<shottake>05</shottake>
						<lognote/>
						<good>FALSE</good>
					</logginginfo>
					<labels>
						<label>Interviews</label>
						<label2/>
					</labels>
					<comments>
						<mastercomment1/>
						<mastercomment2/>
						<mastercomment3/>
						<mastercomment4/>
					</comments>
					<file id='COFFEET_060313_05 '/>
					<filter>
						<effect>
							<name>Audio Levels</name>
							<effectid>audiolevels</effectid>
							<effectcategory>audiolevels</effectcategory>
							<effecttype>audiolevels</effecttype>
							<mediatype>audio</mediatype>
							<parameter>
								<name>Level</name>
								<parameterid>level</parameterid>
								<valuemin>0</valuemin>
								<valuemax>3.98109</valuemax>
								<value>1</value>
							</parameter>
						</effect>
					</filter>
					<filter>
						<effect>
							<name>Audio Pan</name>
							<effectid>audiopan</effectid>
							<effectcategory>audiopan</effectcategory>
							<effecttype>audiopan</effecttype>
							<mediatype>audio</mediatype>
							<parameter>
								<name>Pan</name>
								<parameterid>pan</parameterid>
								<valuemin>-1</valuemin>
								<valuemax>1</valuemax>
								<value>0</value>
							</parameter>
						</effect>
					</filter>
					<sourcetrack>
						<mediatype>audio</mediatype>
						<trackindex>2</trackindex>
					</sourcetrack>
					<link>
						<linkclipref>COFFEET_060313_05.WAV</linkclipref>
						<mediatype>audio</mediatype>
						<trackindex>8</trackindex>
						<clipindex>1</clipindex>
					</link>
					<link>
						<linkclipref>COFFEET_060313_05.WAV2</linkclipref>
						<mediatype>audio</mediatype>
						<trackindex>9</trackindex>
						<clipindex>1</clipindex>
					</link>
					<link>
						<linkclipref>COFFEET_060313_05.WAV3</linkclipref>
						<mediatype>audio</mediatype>
						<trackindex>10</trackindex>
						<clipindex>1</clipindex>
					</link>
					<link>
						<linkclipref>COFFEET_060313_05.WAV4</linkclipref>
						<mediatype>audio</mediatype>
						<trackindex>11</trackindex>
						<clipindex>1</clipindex>
					</link>
					<link>
						<linkclipref>COFFEET_060313_05.WAV5</linkclipref>
						<mediatype>audio</mediatype>
						<trackindex>12</trackindex>
						<clipindex>1</clipindex>
					</link>
					<itemhistory>
						<uuid>AED6482E-8058-4F8F-B46D-680E6E596A24</uuid>
					</itemhistory>
				</clipitem>
				<clipitem id='COFFEET_060313_04.WAV2'>
					<name>COFFEET_060313_04.WAV</name>
					<duration>59760</duration>
					<rate>
						<ntsc>TRUE</ntsc>
						<timebase>24</timebase>
					</rate>
					<in>0</in>
					<out>59760</out>
					<start>152106</start>
					<end>211866</end>
					<enabled>TRUE</enabled>
					<masterclipid>COFFEET_060313_04.WAV1</masterclipid>
					<logginginfo>
						<scene>COFFEE</scene>
						<shottake>04</shottake>
						<lognote/>
						<good>FALSE</good>
					</logginginfo>
					<labels>
						<label>Interviews</label>
						<label2/>
					</labels>
					<comments>
						<mastercomment1/>
						<mastercomment2/>
						<mastercomment3/>
						<mastercomment4/>
					</comments>
					<file id='COFFEET_060313_04 '/>
					<marker>
						<name>19:24:54:03</name>
						<comment/>
						<color>
							<alpha>0</alpha>
							<red>255</red>
							<green>0</green>
							<blue>0</blue>
						</color>
						<in>27</in>
						<out>-1</out>
					</marker>
					<filter>
						<effect>
							<name>Audio Levels</name>
							<effectid>audiolevels</effectid>
							<effectcategory>audiolevels</effectcategory>
							<effecttype>audiolevels</effecttype>
							<mediatype>audio</mediatype>
							<parameter>
								<name>Level</name>
								<parameterid>level</parameterid>
								<valuemin>0</valuemin>
								<valuemax>3.98109</valuemax>
								<value>1</value>
							</parameter>
						</effect>
					</filter>
					<filter>
						<effect>
							<name>Audio Pan</name>
							<effectid>audiopan</effectid>
							<effectcategory>audiopan</effectcategory>
							<effecttype>audiopan</effecttype>
							<mediatype>audio</mediatype>
							<parameter>
								<name>Pan</name>
								<parameterid>pan</parameterid>
								<valuemin>-1</valuemin>
								<valuemax>1</valuemax>
								<value>0</value>
							</parameter>
						</effect>
					</filter>
					<sourcetrack>
						<mediatype>audio</mediatype>
						<trackindex>2</trackindex>
					</sourcetrack>
					<link>
						<linkclipref>COFFEET_060313_04.WAV</linkclipref>
						<mediatype>audio</mediatype>
						<trackindex>8</trackindex>
						<clipindex>2</clipindex>
					</link>
					<link>
						<linkclipref>COFFEET_060313_04.WAV2</linkclipref>
						<mediatype>audio</mediatype>
						<trackindex>9</trackindex>
						<clipindex>2</clipindex>
					</link>
					<link>
						<linkclipref>COFFEET_060313_04.WAV3</linkclipref>
						<mediatype>audio</mediatype>
						<trackindex>10</trackindex>
						<clipindex>2</clipindex>
					</link>
					<link>
						<linkclipref>COFFEET_060313_04.WAV4</linkclipref>
						<mediatype>audio</mediatype>
						<trackindex>11</trackindex>
						<clipindex>2</clipindex>
					</link>
					<link>
						<linkclipref>COFFEET_060313_04.WAV5</linkclipref>
						<mediatype>audio</mediatype>
						<trackindex>12</trackindex>
						<clipindex>2</clipindex>
					</link>
					<itemhistory>
						<uuid>1A8741B1-416D-4492-A2C5-1D19F12BD43E</uuid>
					</itemhistory>
				</clipitem>
				<enabled>TRUE</enabled>
				<locked>FALSE</locked>
				<outputchannelindex>1</outputchannelindex>
			</track>
			<track>
				<clipitem id='COFFEET_060313_05.WAV3'>
					<name>COFFEET_060313_05.WAV</name>
					<duration>5904</duration>
					<rate>
						<ntsc>TRUE</ntsc>
						<timebase>24</timebase>
					</rate>
					<in>0</in>
					<out>5904</out>
					<start>59760</start>
					<end>65664</end>
					<masterclipid>COFFEET_060313_05.WAV1</masterclipid>
					<logginginfo>
						<scene>COFFEE</scene>
						<shottake>05</shottake>
						<lognote/>
						<good>FALSE</good>
					</logginginfo>
					<labels>
						<label>Interviews</label>
						<label2/>
					</labels>
					<comments>
						<mastercomment1/>
						<mastercomment2/>
						<mastercomment3/>
						<mastercomment4/>
					</comments>
					<file id='COFFEET_060313_05 '/>
					<filter>
						<effect>
							<name>Audio Levels</name>
							<effectid>audiolevels</effectid>
							<effectcategory>audiolevels</effectcategory>
							<effecttype>audiolevels</effecttype>
							<mediatype>audio</mediatype>
							<parameter>
								<name>Level</name>
								<parameterid>level</parameterid>
								<valuemin>0</valuemin>
								<valuemax>3.98109</valuemax>
								<value>1</value>
							</parameter>
						</effect>
					</filter>
					<filter>
						<effect>
							<name>Audio Pan</name>
							<effectid>audiopan</effectid>
							<effectcategory>audiopan</effectcategory>
							<effecttype>audiopan</effecttype>
							<mediatype>audio</mediatype>
							<parameter>
								<name>Pan</name>
								<parameterid>pan</parameterid>
								<valuemin>-1</valuemin>
								<valuemax>1</valuemax>
								<value>0</value>
							</parameter>
						</effect>
					</filter>
					<sourcetrack>
						<mediatype>audio</mediatype>
						<trackindex>3</trackindex>
					</sourcetrack>
					<link>
						<linkclipref>COFFEET_060313_05.WAV</linkclipref>
						<mediatype>audio</mediatype>
						<trackindex>8</trackindex>
						<clipindex>1</clipindex>
					</link>
					<link>
						<linkclipref>COFFEET_060313_05.WAV2</linkclipref>
						<mediatype>audio</mediatype>
						<trackindex>9</trackindex>
						<clipindex>1</clipindex>
					</link>
					<link>
						<linkclipref>COFFEET_060313_05.WAV3</linkclipref>
						<mediatype>audio</mediatype>
						<trackindex>10</trackindex>
						<clipindex>1</clipindex>
					</link>
					<link>
						<linkclipref>COFFEET_060313_05.WAV4</linkclipref>
						<mediatype>audio</mediatype>
						<trackindex>11</trackindex>
						<clipindex>1</clipindex>
					</link>
					<link>
						<linkclipref>COFFEET_060313_05.WAV5</linkclipref>
						<mediatype>audio</mediatype>
						<trackindex>12</trackindex>
						<clipindex>1</clipindex>
					</link>
					<itemhistory>
						<uuid>FC1563BF-25ED-41CE-B635-33646E26532A</uuid>
					</itemhistory>
				</clipitem>
				<clipitem id='COFFEET_060313_04.WAV3'>
					<name>COFFEET_060313_04.WAV</name>
					<duration>59760</duration>
					<rate>
						<ntsc>TRUE</ntsc>
						<timebase>24</timebase>
					</rate>
					<in>0</in>
					<out>59760</out>
					<start>152106</start>
					<end>211866</end>
					<enabled>TRUE</enabled>
					<masterclipid>COFFEET_060313_04.WAV1</masterclipid>
					<logginginfo>
						<scene>COFFEE</scene>
						<shottake>04</shottake>
						<lognote/>
						<good>FALSE</good>
					</logginginfo>
					<labels>
						<label>Interviews</label>
						<label2/>
					</labels>
					<comments>
						<mastercomment1/>
						<mastercomment2/>
						<mastercomment3/>
						<mastercomment4/>
					</comments>
					<file id='COFFEET_060313_04 '/>
					<marker>
						<name>19:24:54:03</name>
						<comment/>
						<color>
							<alpha>0</alpha>
							<red>255</red>
							<green>0</green>
							<blue>0</blue>
						</color>
						<in>27</in>
						<out>-1</out>
					</marker>
					<filter>
						<effect>
							<name>Audio Levels</name>
							<effectid>audiolevels</effectid>
							<effectcategory>audiolevels</effectcategory>
							<effecttype>audiolevels</effecttype>
							<mediatype>audio</mediatype>
							<parameter>
								<name>Level</name>
								<parameterid>level</parameterid>
								<valuemin>0</valuemin>
								<valuemax>3.98109</valuemax>
								<value>1</value>
							</parameter>
						</effect>
					</filter>
					<filter>
						<effect>
							<name>Audio Pan</name>
							<effectid>audiopan</effectid>
							<effectcategory>audiopan</effectcategory>
							<effecttype>audiopan</effecttype>
							<mediatype>audio</mediatype>
							<parameter>
								<name>Pan</name>
								<parameterid>pan</parameterid>
								<valuemin>-1</valuemin>
								<valuemax>1</valuemax>
								<value>0</value>
							</parameter>
						</effect>
					</filter>
					<sourcetrack>
						<mediatype>audio</mediatype>
						<trackindex>3</trackindex>
					</sourcetrack>
					<link>
						<linkclipref>COFFEET_060313_04.WAV</linkclipref>
						<mediatype>audio</mediatype>
						<trackindex>8</trackindex>
						<clipindex>2</clipindex>
					</link>
					<link>
						<linkclipref>COFFEET_060313_04.WAV2</linkclipref>
						<mediatype>audio</mediatype>
						<trackindex>9</trackindex>
						<clipindex>2</clipindex>
					</link>
					<link>
						<linkclipref>COFFEET_060313_04.WAV3</linkclipref>
						<mediatype>audio</mediatype>
						<trackindex>10</trackindex>
						<clipindex>2</clipindex>
					</link>
					<link>
						<linkclipref>COFFEET_060313_04.WAV4</linkclipref>
						<mediatype>audio</mediatype>
						<trackindex>11</trackindex>
						<clipindex>2</clipindex>
					</link>
					<link>
						<linkclipref>COFFEET_060313_04.WAV5</linkclipref>
						<mediatype>audio</mediatype>
						<trackindex>12</trackindex>
						<clipindex>2</clipindex>
					</link>
					<itemhistory>
						<uuid>E5D9EB3C-61FC-4C36-B25E-8B6457613640</uuid>
					</itemhistory>
				</clipitem>
				<enabled>TRUE</enabled>
				<locked>FALSE</locked>
				<outputchannelindex>2</outputchannelindex>
			</track>
			<track>
				<clipitem id='COFFEET_060313_05.WAV4'>
					<name>COFFEET_060313_05.WAV</name>
					<duration>5904</duration>
					<rate>
						<ntsc>TRUE</ntsc>
						<timebase>24</timebase>
					</rate>
					<in>0</in>
					<out>5904</out>
					<start>59760</start>
					<end>65664</end>
					<masterclipid>COFFEET_060313_05.WAV1</masterclipid>
					<logginginfo>
						<scene>COFFEE</scene>
						<shottake>05</shottake>
						<lognote/>
						<good>FALSE</good>
					</logginginfo>
					<labels>
						<label>Interviews</label>
						<label2/>
					</labels>
					<comments>
						<mastercomment1/>
						<mastercomment2/>
						<mastercomment3/>
						<mastercomment4/>
					</comments>
					<file id='COFFEET_060313_05 '/>
					<filter>
						<effect>
							<name>Audio Levels</name>
							<effectid>audiolevels</effectid>
							<effectcategory>audiolevels</effectcategory>
							<effecttype>audiolevels</effecttype>
							<mediatype>audio</mediatype>
							<parameter>
								<name>Level</name>
								<parameterid>level</parameterid>
								<valuemin>0</valuemin>
								<valuemax>3.98109</valuemax>
								<value>1</value>
							</parameter>
						</effect>
					</filter>
					<filter>
						<effect>
							<name>Audio Pan</name>
							<effectid>audiopan</effectid>
							<effectcategory>audiopan</effectcategory>
							<effecttype>audiopan</effecttype>
							<mediatype>audio</mediatype>
							<parameter>
								<name>Pan</name>
								<parameterid>pan</parameterid>
								<valuemin>-1</valuemin>
								<valuemax>1</valuemax>
								<value>0</value>
							</parameter>
						</effect>
					</filter>
					<sourcetrack>
						<mediatype>audio</mediatype>
						<trackindex>4</trackindex>
					</sourcetrack>
					<link>
						<linkclipref>COFFEET_060313_05.WAV</linkclipref>
						<mediatype>audio</mediatype>
						<trackindex>8</trackindex>
						<clipindex>1</clipindex>
					</link>
					<link>
						<linkclipref>COFFEET_060313_05.WAV2</linkclipref>
						<mediatype>audio</mediatype>
						<trackindex>9</trackindex>
						<clipindex>1</clipindex>
					</link>
					<link>
						<linkclipref>COFFEET_060313_05.WAV3</linkclipref>
						<mediatype>audio</mediatype>
						<trackindex>10</trackindex>
						<clipindex>1</clipindex>
					</link>
					<link>
						<linkclipref>COFFEET_060313_05.WAV4</linkclipref>
						<mediatype>audio</mediatype>
						<trackindex>11</trackindex>
						<clipindex>1</clipindex>
					</link>
					<link>
						<linkclipref>COFFEET_060313_05.WAV5</linkclipref>
						<mediatype>audio</mediatype>
						<trackindex>12</trackindex>
						<clipindex>1</clipindex>
					</link>
					<itemhistory>
						<uuid>8F32DCC2-1134-4238-A47E-C45DC76DC15E</uuid>
					</itemhistory>
				</clipitem>
				<clipitem id='COFFEET_060313_04.WAV4'>
					<name>COFFEET_060313_04.WAV</name>
					<duration>59760</duration>
					<rate>
						<ntsc>TRUE</ntsc>
						<timebase>24</timebase>
					</rate>
					<in>0</in>
					<out>59760</out>
					<start>152106</start>
					<end>211866</end>
					<enabled>TRUE</enabled>
					<masterclipid>COFFEET_060313_04.WAV1</masterclipid>
					<logginginfo>
						<scene>COFFEE</scene>
						<shottake>04</shottake>
						<lognote/>
						<good>FALSE</good>
					</logginginfo>
					<labels>
						<label>Interviews</label>
						<label2/>
					</labels>
					<comments>
						<mastercomment1/>
						<mastercomment2/>
						<mastercomment3/>
						<mastercomment4/>
					</comments>
					<file id='COFFEET_060313_04 '/>
					<marker>
						<name>19:24:54:03</name>
						<comment/>
						<color>
							<alpha>0</alpha>
							<red>255</red>
							<green>0</green>
							<blue>0</blue>
						</color>
						<in>27</in>
						<out>-1</out>
					</marker>
					<filter>
						<effect>
							<name>Audio Levels</name>
							<effectid>audiolevels</effectid>
							<effectcategory>audiolevels</effectcategory>
							<effecttype>audiolevels</effecttype>
							<mediatype>audio</mediatype>
							<parameter>
								<name>Level</name>
								<parameterid>level</parameterid>
								<valuemin>0</valuemin>
								<valuemax>3.98109</valuemax>
								<value>1</value>
							</parameter>
						</effect>
					</filter>
					<filter>
						<effect>
							<name>Audio Pan</name>
							<effectid>audiopan</effectid>
							<effectcategory>audiopan</effectcategory>
							<effecttype>audiopan</effecttype>
							<mediatype>audio</mediatype>
							<parameter>
								<name>Pan</name>
								<parameterid>pan</parameterid>
								<valuemin>-1</valuemin>
								<valuemax>1</valuemax>
								<value>0</value>
							</parameter>
						</effect>
					</filter>
					<sourcetrack>
						<mediatype>audio</mediatype>
						<trackindex>4</trackindex>
					</sourcetrack>
					<link>
						<linkclipref>COFFEET_060313_04.WAV</linkclipref>
						<mediatype>audio</mediatype>
						<trackindex>8</trackindex>
						<clipindex>2</clipindex>
					</link>
					<link>
						<linkclipref>COFFEET_060313_04.WAV2</linkclipref>
						<mediatype>audio</mediatype>
						<trackindex>9</trackindex>
						<clipindex>2</clipindex>
					</link>
					<link>
						<linkclipref>COFFEET_060313_04.WAV3</linkclipref>
						<mediatype>audio</mediatype>
						<trackindex>10</trackindex>
						<clipindex>2</clipindex>
					</link>
					<link>
						<linkclipref>COFFEET_060313_04.WAV4</linkclipref>
						<mediatype>audio</mediatype>
						<trackindex>11</trackindex>
						<clipindex>2</clipindex>
					</link>
					<link>
						<linkclipref>COFFEET_060313_04.WAV5</linkclipref>
						<mediatype>audio</mediatype>
						<trackindex>12</trackindex>
						<clipindex>2</clipindex>
					</link>
					<itemhistory>
						<uuid>A55E4E14-4A57-46CF-8927-691F5192DC63</uuid>
					</itemhistory>
				</clipitem>
				<enabled>TRUE</enabled>
				<locked>FALSE</locked>
				<outputchannelindex>1</outputchannelindex>
			</track>
			<track>
				<clipitem id='COFFEET_060313_05.WAV5'>
					<name>COFFEET_060313_05.WAV</name>
					<duration>5904</duration>
					<rate>
						<ntsc>TRUE</ntsc>
						<timebase>24</timebase>
					</rate>
					<in>0</in>
					<out>5904</out>
					<start>59760</start>
					<end>65664</end>
					<masterclipid>COFFEET_060313_05.WAV1</masterclipid>
					<logginginfo>
						<scene>COFFEE</scene>
						<shottake>05</shottake>
						<lognote/>
						<good>FALSE</good>
					</logginginfo>
					<labels>
						<label>Interviews</label>
						<label2/>
					</labels>
					<comments>
						<mastercomment1/>
						<mastercomment2/>
						<mastercomment3/>
						<mastercomment4/>
					</comments>
					<file id='COFFEET_060313_05 '/>
					<filter>
						<effect>
							<name>Audio Levels</name>
							<effectid>audiolevels</effectid>
							<effectcategory>audiolevels</effectcategory>
							<effecttype>audiolevels</effecttype>
							<mediatype>audio</mediatype>
							<parameter>
								<name>Level</name>
								<parameterid>level</parameterid>
								<valuemin>0</valuemin>
								<valuemax>3.98109</valuemax>
								<value>1</value>
							</parameter>
						</effect>
					</filter>
					<filter>
						<effect>
							<name>Audio Pan</name>
							<effectid>audiopan</effectid>
							<effectcategory>audiopan</effectcategory>
							<effecttype>audiopan</effecttype>
							<mediatype>audio</mediatype>
							<parameter>
								<name>Pan</name>
								<parameterid>pan</parameterid>
								<valuemin>-1</valuemin>
								<valuemax>1</valuemax>
								<value>0</value>
							</parameter>
						</effect>
					</filter>
					<sourcetrack>
						<mediatype>audio</mediatype>
						<trackindex>5</trackindex>
					</sourcetrack>
					<link>
						<linkclipref>COFFEET_060313_05.WAV</linkclipref>
						<mediatype>audio</mediatype>
						<trackindex>8</trackindex>
						<clipindex>1</clipindex>
					</link>
					<link>
						<linkclipref>COFFEET_060313_05.WAV2</linkclipref>
						<mediatype>audio</mediatype>
						<trackindex>9</trackindex>
						<clipindex>1</clipindex>
					</link>
					<link>
						<linkclipref>COFFEET_060313_05.WAV3</linkclipref>
						<mediatype>audio</mediatype>
						<trackindex>10</trackindex>
						<clipindex>1</clipindex>
					</link>
					<link>
						<linkclipref>COFFEET_060313_05.WAV4</linkclipref>
						<mediatype>audio</mediatype>
						<trackindex>11</trackindex>
						<clipindex>1</clipindex>
					</link>
					<link>
						<linkclipref>COFFEET_060313_05.WAV5</linkclipref>
						<mediatype>audio</mediatype>
						<trackindex>12</trackindex>
						<clipindex>1</clipindex>
					</link>
					<itemhistory>
						<uuid>9437E15C-6E4C-4F0B-AC81-5AE98ABE0C34</uuid>
					</itemhistory>
				</clipitem>
				<clipitem id='COFFEET_060313_04.WAV5'>
					<name>COFFEET_060313_04.WAV</name>
					<duration>59760</duration>
					<rate>
						<ntsc>TRUE</ntsc>
						<timebase>24</timebase>
					</rate>
					<in>0</in>
					<out>59760</out>
					<start>152106</start>
					<end>211866</end>
					<enabled>TRUE</enabled>
					<masterclipid>COFFEET_060313_04.WAV1</masterclipid>
					<logginginfo>
						<scene>COFFEE</scene>
						<shottake>04</shottake>
						<lognote/>
						<good>FALSE</good>
					</logginginfo>
					<labels>
						<label>Interviews</label>
						<label2/>
					</labels>
					<comments>
						<mastercomment1/>
						<mastercomment2/>
						<mastercomment3/>
						<mastercomment4/>
					</comments>
					<file id='COFFEET_060313_04 '/>
					<marker>
						<name>19:24:54:03</name>
						<comment/>
						<color>
							<alpha>0</alpha>
							<red>255</red>
							<green>0</green>
							<blue>0</blue>
						</color>
						<in>27</in>
						<out>-1</out>
					</marker>
					<filter>
						<effect>
							<name>Audio Levels</name>
							<effectid>audiolevels</effectid>
							<effectcategory>audiolevels</effectcategory>
							<effecttype>audiolevels</effecttype>
							<mediatype>audio</mediatype>
							<parameter>
								<name>Level</name>
								<parameterid>level</parameterid>
								<valuemin>0</valuemin>
								<valuemax>3.98109</valuemax>
								<value>1</value>
							</parameter>
						</effect>
					</filter>
					<filter>
						<effect>
							<name>Audio Pan</name>
							<effectid>audiopan</effectid>
							<effectcategory>audiopan</effectcategory>
							<effecttype>audiopan</effecttype>
							<mediatype>audio</mediatype>
							<parameter>
								<name>Pan</name>
								<parameterid>pan</parameterid>
								<valuemin>-1</valuemin>
								<valuemax>1</valuemax>
								<value>0</value>
							</parameter>
						</effect>
					</filter>
					<sourcetrack>
						<mediatype>audio</mediatype>
						<trackindex>5</trackindex>
					</sourcetrack>
					<link>
						<linkclipref>COFFEET_060313_04.WAV</linkclipref>
						<mediatype>audio</mediatype>
						<trackindex>8</trackindex>
						<clipindex>2</clipindex>
					</link>
					<link>
						<linkclipref>COFFEET_060313_04.WAV2</linkclipref>
						<mediatype>audio</mediatype>
						<trackindex>9</trackindex>
						<clipindex>2</clipindex>
					</link>
					<link>
						<linkclipref>COFFEET_060313_04.WAV3</linkclipref>
						<mediatype>audio</mediatype>
						<trackindex>10</trackindex>
						<clipindex>2</clipindex>
					</link>
					<link>
						<linkclipref>COFFEET_060313_04.WAV4</linkclipref>
						<mediatype>audio</mediatype>
						<trackindex>11</trackindex>
						<clipindex>2</clipindex>
					</link>
					<link>
						<linkclipref>COFFEET_060313_04.WAV5</linkclipref>
						<mediatype>audio</mediatype>
						<trackindex>12</trackindex>
						<clipindex>2</clipindex>
					</link>
					<itemhistory>
						<uuid>22580D8D-5463-49DB-BB90-CABF7041E02E</uuid>
					</itemhistory>
				</clipitem>
				<enabled>TRUE</enabled>
				<locked>FALSE</locked>
				<outputchannelindex>2</outputchannelindex>
			</track>
			<track>
				<enabled>TRUE</enabled>
				<locked>FALSE</locked>
				<outputchannelindex>1</outputchannelindex>
			</track>
			<track>
				<enabled>TRUE</enabled>
				<locked>FALSE</locked>
				<outputchannelindex>2</outputchannelindex>
			</track>
			<filter>
				<effect>
					<name>Audio Levels</name>
					<effectid>audiolevels</effectid>
					<effectcategory>audiolevels</effectcategory>
					<effecttype>audiolevels</effecttype>
					<mediatype>audio</mediatype>
					<parameter>
						<name>Level</name>
						<parameterid>level</parameterid>
						<valuemin>0</valuemin>
						<valuemax>3.98109</valuemax>
						<value>1</value>
					</parameter>
				</effect>
			</filter>
		</audio>
	</media>
	<ismasterclip>FALSE</ismasterclip>
	<marker>
		<name>19:24:54:03</name>
		<comment/>
		<color>
			<alpha>0</alpha>
			<red>255</red>
			<green>0</green>
			<blue>0</blue>
		</color>
		<in>27</in>
		<out>-1</out>
	</marker>
	<marker>
		<name>19:29:38:17</name>
		<comment/>
		<color>
			<alpha>0</alpha>
			<red>255</red>
			<green>0</green>
			<blue>0</blue>
		</color>
		<in>6857</in>
		<out>-1</out>
	</marker>
</sequence>
</xmeml>


